<svg width="115" height="148" fill="none" xmlns="http://www.w3.org/2000/svg"><path fill="#fff" d="M0 1h112v147H0z"/><path d="M3.01 148v-28.409l54.262-44.886c3.599-2.983 6.676-5.777 9.233-8.381 2.604-2.652 4.593-5.374 5.966-8.168 1.42-2.793 2.13-5.895 2.13-9.304 0-3.74-.804-6.936-2.414-9.588-1.563-2.651-3.74-4.687-6.534-6.108-2.794-1.468-6.014-2.201-9.66-2.201-3.645 0-6.865.733-9.659 2.201-2.746 1.468-4.876 3.622-6.392 6.463-1.515 2.841-2.272 6.298-2.272 10.37H.17c0-10.228 2.296-19.034 6.889-26.42 4.593-7.387 11.08-13.069 19.46-17.046C34.9 2.545 44.725.557 55.994.557c11.647 0 21.733 1.87 30.255 5.61 8.57 3.694 15.175 8.902 19.816 15.626 4.687 6.723 7.031 14.607 7.031 23.65 0 5.587-1.16 11.15-3.48 16.69-2.32 5.493-6.487 11.577-12.5 18.253-6.013 6.677-14.56 14.631-25.64 23.864L57.84 115.614v.852h56.818V148H3.011Z" fill="#DDF3FD"/></svg>