<svg width="122" height="150" fill="none" xmlns="http://www.w3.org/2000/svg"><path fill="#fff" d="M0 1h114v147H0z"/><path d="M60.497 149.989c-11.459 0-21.639-1.965-30.54-5.895-8.854-3.978-15.814-9.446-20.88-16.406-5.067-6.961-7.624-14.963-7.671-24.006h39.773c.047 2.793.9 5.303 2.556 7.528 1.705 2.178 4.025 3.883 6.96 5.114 2.936 1.231 6.298 1.846 10.086 1.846 3.646 0 6.865-.639 9.659-1.917 2.794-1.326 4.972-3.149 6.534-5.469 1.563-2.32 2.32-4.972 2.273-7.954.047-2.936-.853-5.54-2.7-7.813-1.798-2.273-4.331-4.048-7.599-5.327-3.266-1.278-7.03-1.917-11.292-1.917H42.883V60.5h14.773c3.93 0 7.386-.64 10.37-1.918 3.03-1.278 5.373-3.054 7.03-5.326 1.705-2.273 2.534-4.877 2.486-7.813.048-2.84-.639-5.35-2.06-7.528-1.42-2.178-3.409-3.883-5.965-5.114-2.51-1.23-5.422-1.847-8.736-1.847-3.599 0-6.818.64-9.66 1.918-2.793 1.279-4.995 3.054-6.604 5.327-1.61 2.273-2.439 4.877-2.486 7.812H4.247c.047-8.901 2.486-16.761 7.315-23.58 4.877-6.817 11.553-12.168 20.029-16.05C40.066 2.498 49.796.557 60.78.557c10.748 0 20.241 1.823 28.48 5.469 8.286 3.645 14.749 8.664 19.389 15.056 4.688 6.345 7.008 13.613 6.96 21.804.095 8.144-2.698 14.82-8.38 20.029-5.635 5.208-12.784 8.286-21.45 9.233v1.136c11.743 1.278 20.574 4.877 26.492 10.795 5.919 5.872 8.831 13.258 8.736 22.16.048 8.522-2.509 16.074-7.67 22.656-5.114 6.581-12.24 11.742-21.378 15.483-9.091 3.74-19.579 5.611-31.463 5.611Z" fill="#DDF3FD"/></svg>