<svg width="117" height="148" fill="none" xmlns="http://www.w3.org/2000/svg"><path d="M58.003 147.989c-11.174 0-21.094-1.965-29.758-5.895-8.618-3.978-15.412-9.446-20.384-16.406-4.924-6.961-7.434-14.963-7.528-24.006h38.352c.142 5.019 2.083 9.02 5.824 12.003 3.788 2.983 8.286 4.474 13.494 4.474 4.025 0 7.576-.852 10.654-2.557 3.077-1.752 5.492-4.214 7.244-7.386 1.752-3.172 2.604-6.866 2.557-11.08.047-4.261-.805-7.954-2.557-11.08-1.752-3.171-4.167-5.61-7.244-7.314-3.078-1.752-6.63-2.628-10.654-2.628-4.166 0-8.025 1.018-11.577 3.054-3.503 1.988-6.084 4.758-7.741 8.31l-34.66-6.819L9.709.545h97.727V32.08h-65.34l-2.842 32.102h.852c2.273-4.404 6.203-8.05 11.79-10.938 5.587-2.935 12.074-4.403 19.46-4.403 8.665 0 16.383 2.012 23.154 6.037 6.818 4.025 12.192 9.588 16.122 16.69 3.977 7.055 5.942 15.199 5.895 24.432.047 10.133-2.368 19.129-7.244 26.989-4.83 7.812-11.624 13.944-20.384 18.395-8.76 4.403-19.058 6.605-30.895 6.605Z" fill="#DDF3FD"/></svg>