<svg width="100" height="100" fill="none" xmlns="http://www.w3.org/2000/svg"><g clip-path="url(#a)" fill="#03A9F4"><path d="M79.033 61.947c-2.047-2.131-4.517-3.271-7.134-3.271-2.596 0-5.086 1.119-7.218 3.25l-6.67 6.649c-.548-.296-1.097-.57-1.624-.845-.76-.38-1.478-.738-2.09-1.118-6.247-3.968-11.925-9.139-17.37-15.83-2.638-3.334-4.41-6.141-5.698-8.99 1.73-1.584 3.334-3.23 4.896-4.813.591-.59 1.182-1.203 1.773-1.794 4.432-4.432 4.432-10.173 0-14.605l-5.762-5.762a87.962 87.962 0 0 1-1.963-2.005c-1.266-1.308-2.596-2.659-3.967-3.925-2.048-2.026-4.496-3.103-7.07-3.103-2.576 0-5.066 1.077-7.177 3.103l-.042.042-7.176 7.24c-2.702 2.7-4.242 5.993-4.58 9.813-.506 6.163 1.309 11.904 2.702 15.66 3.419 9.224 8.526 17.772 16.145 26.932 9.245 11.038 20.367 19.754 33.073 25.896 4.854 2.3 11.334 5.023 18.573 5.488.443.02.908.042 1.33.042 4.875 0 8.97-1.752 12.178-5.234.02-.042.063-.064.084-.106 1.098-1.33 2.364-2.532 3.694-3.82a83.035 83.035 0 0 0 2.743-2.723c2.09-2.173 3.187-4.706 3.187-7.302 0-2.617-1.118-5.129-3.25-7.24L79.033 61.948Zm7.556 22.225c-.021 0-.021.02 0 0-.823.886-1.668 1.688-2.575 2.575-1.372 1.308-2.765 2.68-4.073 4.22-2.132 2.28-4.644 3.356-7.936 3.356-.317 0-.654 0-.971-.02-6.268-.402-12.094-2.85-16.463-4.94-11.945-5.782-22.435-13.992-31.151-24.397C16.221 56.29 11.41 48.27 8.223 39.66c-1.962-5.255-2.68-9.35-2.363-13.212.21-2.47 1.16-4.517 2.912-6.269l7.197-7.197c1.034-.97 2.132-1.498 3.208-1.498 1.33 0 2.406.802 3.082 1.477l.063.063c1.288 1.203 2.512 2.449 3.8 3.778.653.676 1.329 1.351 2.004 2.048l5.762 5.761c2.237 2.238 2.237 4.306 0 6.543-.612.612-1.203 1.224-1.815 1.815-1.773 1.815-3.462 3.504-5.298 5.15-.042.042-.084.063-.105.106-1.815 1.815-1.478 3.588-1.098 4.79l.064.19c1.498 3.63 3.609 7.05 6.817 11.123l.02.021c5.826 7.176 11.968 12.77 18.743 17.054.865.548 1.752.992 2.596 1.414.76.38 1.477.739 2.09 1.118.084.043.168.106.252.148.718.359 1.393.528 2.09.528 1.752 0 2.85-1.098 3.208-1.457l7.218-7.218c.718-.717 1.857-1.583 3.187-1.583 1.309 0 2.385.824 3.04 1.541l.041.042 11.63 11.63c2.174 2.152 2.174 4.368.02 6.606ZM54.044 23.787c5.53.929 10.553 3.546 14.564 7.556 4.01 4.01 6.605 9.033 7.555 14.563a2.832 2.832 0 0 0 2.807 2.364c.17 0 .317-.022.486-.043 1.562-.253 2.596-1.73 2.343-3.292-1.14-6.69-4.306-12.79-9.14-17.623-4.833-4.834-10.932-8-17.623-9.14a2.864 2.864 0 0 0-3.292 2.322c-.274 1.541.739 3.04 2.3 3.293ZM99.886 44.112c-1.878-11.017-7.07-21.042-15.048-29.02C76.86 7.114 66.835 1.922 55.818.043c-1.541-.274-2.998.781-3.272 2.322a2.863 2.863 0 0 0 2.343 3.293c9.835 1.667 18.805 6.331 25.939 13.444 7.133 7.134 11.776 16.104 13.444 25.939a2.832 2.832 0 0 0 2.807 2.364c.169 0 .317-.022.485-.043 1.541-.232 2.596-1.71 2.322-3.25Z"/></g><defs><clipPath id="a"><path fill="#fff" d="M0 0h100v100H0z"/></clipPath></defs></svg>