<svg width="100" height="100" fill="none" xmlns="http://www.w3.org/2000/svg"><g clip-path="url(#a)" stroke="#03A9F4" stroke-width="3.5" stroke-miterlimit="10" stroke-linecap="round" stroke-linejoin="round"><path d="M50.477 55.47v30.048M55.24 90.282a4.765 4.765 0 1 1-9.53 0 4.765 4.765 0 0 1 9.53 0ZM66.625 55.47v22.485h11.502M85.686 77.954a3.779 3.779 0 1 1-7.557 0 3.779 3.779 0 0 1 7.557 0ZM22.823 77.954a3.779 3.779 0 1 1-7.557 0 3.779 3.779 0 0 1 7.557 0ZM96.082 63.695a3.11 3.11 0 1 1-6.219 0 3.11 3.11 0 0 1 6.22 0ZM11.18 63.695a3.11 3.11 0 1 1-6.219 0 3.11 3.11 0 0 1 6.219 0Z"/><path d="M34.322 55.47v22.485H22.82M82.89 55.47v8.225h6.973M18.152 55.47v8.225H11.18M68.862 9.392a25.136 25.136 0 0 0-14.3-4.438c-9.813 0-18.314 5.598-22.495 13.773-1.218 2.381-3.644 2.067-4.68 2.067-7.608 0-14.068 4.9-16.402 11.717-.388 1.133-1.316 1.984-2.445 2.38a10.59 10.59 0 0 0-7.067 10.41c.22 5.72 5.09 10.168 10.815 10.168H63"/><path d="M61.969 55.469h18.538c9.913 0 18.216-8.114 18.026-18.026-.189-9.857-8.435-17.68-18.293-17.324a3.848 3.848 0 0 1-3.498-2c-.799-1.462-2.241-3.619-3.741-5.119"/></g><defs><clipPath id="a"><path fill="#fff" d="M0 0h100v100H0z"/></clipPath></defs></svg>