<svg width="510" height="510" fill="none" xmlns="http://www.w3.org/2000/svg"><path d="M380.466 463.338c127.856-79.917 129.576-223.515 129.533-230.096-.454-71.959-33.487-175.913-122.761-215.736-42.312-18.87-109.189-28.646-156.877 3.14-44.523 29.678-25.229 64.205-74.349 123.506C99.44 212.387 53.933 203.171 15.978 262.785-9.048 302.166 2 349.823 5.17 363.495c23.239 100.217 145.22 134.67 158.892 138.308 108.623 28.891 198.02-26.975 216.404-38.465Z" fill="#CCEDFB"/><path d="M111.62 32.678h378.153a19.244 19.244 0 0 1 19.245 19.245v294.275a19.246 19.246 0 0 1-5.639 13.612 19.246 19.246 0 0 1-13.612 5.639H111.62a19.247 19.247 0 0 1-19.245-19.245V51.929a19.245 19.245 0 0 1 19.245-19.251Z" fill="#fff"/><path d="M509.114 73.68H92.464V51.978a19.3 19.3 0 0 1 19.301-19.3H489.82a19.294 19.294 0 0 1 19.294 19.3V73.68Z" fill="#95DBFA"/><path d="M461.631 102.812h-321.87c-8.806 0-15.945 7.138-15.945 15.945v199.889c0 8.806 7.139 15.945 15.945 15.945h321.87c8.806 0 15.945-7.139 15.945-15.945V118.757c0-8.807-7.139-15.945-15.945-15.945Z" fill="#CCEDFB"/><path d="M489.838 366.37H323.764a.921.921 0 1 1 0-1.843h166.074a18.284 18.284 0 0 0 18.262-18.255V51.861a18.28 18.28 0 0 0-18.262-18.262H285.84a.922.922 0 1 1 0-1.843h203.998a20.13 20.13 0 0 1 20.105 20.105v294.411a20.129 20.129 0 0 1-20.105 20.098Z" fill="#353535"/><path d="M444.649 60.354a6.998 6.998 0 0 0 3.813-9.134 6.998 6.998 0 1 0-12.946 5.32 6.998 6.998 0 0 0 9.133 3.814ZM467.528 60.35a6.999 6.999 0 1 0-5.321-12.947 6.999 6.999 0 0 0 5.321 12.947ZM490.595 60.333a6.999 6.999 0 1 0-5.65-12.807 6.999 6.999 0 0 0 5.65 12.807ZM259.378 2.268H18.45c-9.447 0-17.106 7.658-17.106 17.106v174.217c0 9.448 7.659 17.106 17.106 17.106h240.928c9.447 0 17.106-7.658 17.106-17.106V19.374c0-9.448-7.659-17.106-17.106-17.106Z" fill="#fff"/><path d="M252.028 12.412H25.196c-7.126 0-12.903 5.777-12.903 12.904v162.327c0 7.126 5.777 12.903 12.904 12.903h226.831c7.127 0 12.904-5.777 12.904-12.903V25.316c0-7.127-5.777-12.904-12.904-12.904Z" fill="#95DBFA"/><path d="M91.754 211.62h-73.36A17.99 17.99 0 0 1 .423 193.647V19.313A17.991 17.991 0 0 1 18.395 1.347h241.044a17.987 17.987 0 0 1 17.966 17.966V139.63a.924.924 0 0 1-.921.922.921.921 0 0 1-.922-.922V19.313A16.141 16.141 0 0 0 259.439 3.19H18.395a16.148 16.148 0 0 0-16.13 16.123v174.334a16.153 16.153 0 0 0 16.13 16.129h73.36a.925.925 0 0 1 .921.922.922.922 0 0 1-.922.922ZM259.438 211.619H153.715a.921.921 0 1 1 0-1.843h105.723a16.104 16.104 0 0 0 12.461-5.887.915.915 0 0 1 .63-.384.923.923 0 0 1 .789 1.552 17.898 17.898 0 0 1-13.88 6.562Z" fill="#353535"/><path d="M227.352 37.998h-37.9a3.226 3.226 0 0 1 0-6.445h37.9a3.224 3.224 0 0 1 2.189 5.453c-.574.6-1.359.956-2.189.992ZM242.797 51.78H189.45a3.22 3.22 0 1 1 0-6.44h53.347a3.22 3.22 0 0 1 0 6.44ZM202.841 65.3h-13.389a3.226 3.226 0 0 1 0-6.447h13.389a3.227 3.227 0 0 1 0 6.446ZM241.611 65.3h-19.663a3.226 3.226 0 0 1 0-6.447h19.663a3.224 3.224 0 0 1 2.189 5.454c-.574.6-1.359.956-2.189.992Z" fill="#CCEDFB"/><path d="M31.504 58.86V27.404H42.52c3.814 0 6.708.732 8.682 2.194 1.975 1.462 2.962 3.603 2.962 6.421a7.11 7.11 0 0 1-1.192 4.074 6.856 6.856 0 0 1-3.306 2.58 6.63 6.63 0 0 1 3.816 2.458 7.22 7.22 0 0 1 1.395 4.492c0 3.023-.967 5.313-2.9 6.87-1.934 1.556-4.685 2.345-8.253 2.365H31.504Zm6.476-18.305h4.8c3.276-.058 4.915-1.36 4.915-3.908 0-1.426-.418-2.458-1.23-3.073-.81-.614-2.137-.94-3.92-.94H37.98v7.92Zm0 4.584v8.51h5.53a5.383 5.383 0 0 0 3.577-1.088 3.761 3.761 0 0 0 1.284-3.017c0-2.867-1.491-4.328-4.474-4.38l-5.917-.026ZM80.624 58.86H59.069v-4.301l10.17-10.84a25.122 25.122 0 0 0 3.071-4 6.408 6.408 0 0 0 1.002-3.238 4.8 4.8 0 0 0-1.026-3.3 3.823 3.823 0 0 0-3.023-1.198 4.117 4.117 0 0 0-3.337 1.457 5.75 5.75 0 0 0-1.229 3.834h-6.255a10.274 10.274 0 0 1 1.37-5.248 9.69 9.69 0 0 1 3.878-3.73 11.822 11.822 0 0 1 5.683-1.351c3.24 0 5.756.778 7.546 2.335 1.79 1.556 2.687 3.752 2.691 6.587a10.607 10.607 0 0 1-1.229 4.756 26.336 26.336 0 0 1-4.147 5.634L67.1 53.821h13.518l.006 5.039ZM85.117 58.86V27.404h11.017c3.814 0 6.71.732 8.689 2.194 1.978 1.462 2.963 3.603 2.955 6.421a7.104 7.104 0 0 1-1.186 4.074 6.855 6.855 0 0 1-3.305 2.58 6.665 6.665 0 0 1 3.815 2.458 7.21 7.21 0 0 1 1.389 4.492c0 3.023-.965 5.313-2.894 6.87-1.929 1.556-4.68 2.349-8.252 2.378l-12.228-.013ZM91.6 40.554h4.799c3.277-.058 4.915-1.36 4.915-3.908 0-1.426-.409-2.45-1.229-3.073-.819-.622-2.126-.936-3.92-.94H91.63l-.03 7.92Zm0 4.584v8.51h5.53a5.352 5.352 0 0 0 3.57-1.088 3.735 3.735 0 0 0 1.29-3.017c0-2.867-1.491-4.328-4.473-4.38l-5.917-.026ZM108.657 71.751h-76.91v98.368h76.91V71.751Z" fill="#fff"/><path d="M57.643 99.862H40.887v55.056h16.756V99.862ZM78.584 84.673H61.828v70.251h16.756V84.673ZM99.518 122.1H82.762v32.824h16.756V122.1ZM154.18 94.475c1.395-8.596-4.442-16.695-13.037-18.09-8.595-1.395-16.694 4.442-18.089 13.037-1.396 8.595 4.441 16.694 13.037 18.09 8.595 1.395 16.694-4.442 18.089-13.037Z" fill="#CCEDFB"/><path d="M138.61 105.184c7.31 0 13.236-5.926 13.236-13.236 0-7.31-5.926-13.235-13.236-13.235-7.309 0-13.235 5.926-13.235 13.235 0 7.31 5.926 13.236 13.235 13.236Z" fill="#fff"/><path d="M137.393 101.287v-2.175a9.155 9.155 0 0 1-3.889-.983l.682-2.68a8.086 8.086 0 0 0 3.803 1.009c1.303 0 2.2-.504 2.2-1.42 0-.915-.731-1.42-2.458-1.99-2.457-.824-4.123-1.973-4.123-4.191 0-2.016 1.42-3.595 3.871-4.074v-2.181h2.243v2.015a8.372 8.372 0 0 1 3.318.756l-.663 2.593a7.576 7.576 0 0 0-3.294-.78c-1.493 0-1.972.614-1.972 1.284 0 .75.805 1.228 2.746 1.966 2.729.965 3.828 2.224 3.828 4.301s-1.444 3.779-4.08 4.234v2.335l-2.212-.019Z" fill="#0888C2"/><path d="M169.455 52.884c2.696-11.421-4.378-22.865-15.799-25.56-11.421-2.696-22.865 4.377-25.56 15.798-2.696 11.421 4.377 22.865 15.798 25.56 11.422 2.696 22.865-4.377 25.561-15.798Z" fill="#CCEDFB"/><path d="M166.383 50.863c1.578-9.72-5.023-18.88-14.744-20.458-9.72-1.578-18.88 5.023-20.458 14.744-1.578 9.72 5.023 18.88 14.744 20.458 9.721 1.578 18.881-5.023 20.458-14.744Z" fill="#fff"/><path d="M147.146 60.598v-2.93a12.454 12.454 0 0 1-5.248-1.328l.922-3.613a10.883 10.883 0 0 0 5.125 1.346c1.757 0 2.961-.676 2.961-1.911 0-1.235-.983-1.917-3.269-2.685-3.299-1.112-5.53-2.655-5.53-5.647 0-2.716 1.911-4.848 5.217-5.493v-2.919h3.023v2.716a11.16 11.16 0 0 1 4.473 1.014l-.897 3.49a10.216 10.216 0 0 0-4.442-1.05c-2.003 0-2.655.865-2.655 1.726 0 1.02 1.082 1.671 3.687 2.654 3.687 1.297 5.155 2.999 5.155 5.776 0 2.777-1.947 5.088-5.493 5.708v3.146h-3.029Z" fill="#0888C2"/><path d="M463.072 334.474c-.614-3.072-1.149-5.339-1.653-7.49a426.567 426.567 0 0 0-10.673-37.685l-7.945-28.941-97.981 17.82s-3.17 21.401-9.64 56.302l127.892-.006Z" fill="#353535"/><path d="M357.484 330.818c10.759 0 17.758-11.717 12.947-21.678a890.371 890.371 0 0 0-3.337-6.814c-8.264-16.689-31.92-13.045-34.87 5.456-.049.326-.706.652-.749.983-1.53 11.675 7.477 22.053 18.888 22.053h7.121Z" fill="#353535"/><path d="M428.161 124.12c55.958 15.362 63.946 34.41 63.946 75.511 0 35.86-36.935 55.614-36.935 55.614s17.733 59.173 7.724 64.887c-10.01 5.714-23.724 8.965-38.993 3.165-30.545-11.614-78.202-24.751-92.433-14.563 0 0 22.618-95.696 3.073-132.723 0 0-47.571-12.492-6.219-40.794 26.022-17.856 74.03-18.187 99.837-11.097Z" fill="#03A9F4"/><path d="M343.579 185.407c-13.137 1.524-57.267 14.814-78.072 11.718-23.491-3.503-48.874-46.017-56.1-58.958a12.768 12.768 0 0 1-1.388-8.633c.884-4.577 2.98-11.103 7.883-13.893 4.092-2.328 11.742-6.292 18.956 1.537 0 0 18.102 28.295 39.896 28.983 21.021.695 44.087-27.834 108.876-25.112l-40.051 64.358Z" fill="#03A9F4"/><path d="M223.11 144.096c-6.483 0-10.655-7.127-10.833-7.435a.917.917 0 0 1 .362-1.219.925.925 0 0 1 .679-.096c.23.057.429.2.557.4.037.061 3.846 6.581 9.339 6.507 4.216-.068 8.412-3.945 12.48-11.515a.915.915 0 0 1 .546-.473.907.907 0 0 1 .366-.04.91.91 0 0 1 .636.342.927.927 0 0 1 .074 1.044c-4.412 8.209-9.149 12.412-14.077 12.485h-.129Z" fill="#353535"/><path d="M404.356 237.795a.922.922 0 0 1-.393-1.757c20.664-9.555 30.679-23.577 35.447-33.648 5.168-10.937 5.451-19.73 5.457-19.816a.898.898 0 0 1 .589-.842.903.903 0 0 1 .357-.055.92.92 0 0 1 .897.94c0 .375-.282 9.217-5.598 20.474-4.915 10.378-15.17 24.811-36.375 34.618a.84.84 0 0 1-.381.086ZM413.531 266.619a.923.923 0 0 1-.652-1.573.923.923 0 0 1 .652-.27c25.34-.308 42.096-9.727 42.262-9.832a.918.918 0 0 1 1.05.042.915.915 0 0 1 .329.998.926.926 0 0 1-.463.558c-.166.098-17.303 9.751-43.153 10.065l-.025.012Z" fill="#CADDFF"/><path d="M389.958 264.076s5.217.559 15.539-2.028c7.798-1.954 5.494-27.27-3.993-20.412-7.921 5.727-12.554 6.47-12.554 6.47l-7.637-3.81a29.104 29.104 0 0 0-9.524-2.863c-13.162-1.548-12.376 1.493-12.376 1.493-.565 3.072.535 3.539 2.956 4.553l10.298 4.301a2.2 2.2 0 0 1 1.281 1.641 2.2 2.2 0 0 1-.666 1.972 19.588 19.588 0 0 1-6.09 3.841 132.463 132.463 0 0 1-18.433 5.831c-3.429.774-4.516 5.02-1.352 6.593l22.735 1.678a20.988 20.988 0 0 0 15.767-5.531l4.049-3.729Z" fill="#fff"/><path d="M371.631 274.337c-.52 0-1.042-.019-1.567-.056l-22.734-1.677a.921.921 0 0 1-.345-.092 4.03 4.03 0 0 1-2.359-4.191 4.964 4.964 0 0 1 3.92-4.135 132.416 132.416 0 0 0 18.286-5.788 18.513 18.513 0 0 0 5.801-3.656 1.233 1.233 0 0 0 .381-1.162 1.188 1.188 0 0 0-.713-.921l-10.298-4.332c-2.415-1.014-4.16-1.745-3.527-5.438a1.808 1.808 0 0 1 .479-1.26c1.401-1.61 5.635-1.972 12.904-1.112a29.888 29.888 0 0 1 9.831 2.956l7.373 3.686c1.076-.258 5.34-1.511 11.89-6.249 2.667-1.923 4.676-1.438 5.899-.694 3.545 2.163 4.842 9.42 4.006 14.894-.664 4.338-2.538 7.202-5.149 7.859-8.824 2.206-13.967 2.157-15.429 2.077l-3.785 3.472a22.087 22.087 0 0 1-14.864 5.819Zm-23.964-3.558 22.545 1.659a20.175 20.175 0 0 0 15.054-5.303l4.068-3.742a.91.91 0 0 1 .718-.233c.099 0 5.273.485 15.214-2.003 1.844-.467 3.232-2.778 3.773-6.348.83-5.425-.614-11.521-3.146-13.045-1.094-.669-2.353-.467-3.853.615-7.987 5.788-12.749 6.605-12.946 6.636a.93.93 0 0 1-.559-.086l-7.638-3.804a27.97 27.97 0 0 0-9.217-2.777c-9.665-1.137-11.189.313-11.349.516a.87.87 0 0 1 0 .228c-.43 2.347 0 2.525 2.403 3.539l10.298 4.301a3.09 3.09 0 0 1 1.217.916c.322.403.537.88.627 1.388a3.08 3.08 0 0 1-.947 2.833 20.466 20.466 0 0 1-6.378 4.025 132.753 132.753 0 0 1-18.569 5.868 3.069 3.069 0 0 0-2.494 2.556 2.197 2.197 0 0 0 1.167 2.261h.012Z" fill="#353535"/><path d="M171.8 78.24a3.005 3.005 0 0 1 3.484-2.059c4.178.916 25.671 5.653 29.684 6.563 4.012.909 4.166 5.376 6.452 9.462 1.984 3.558 8.817 16.591 16.264 25.654a8.736 8.736 0 0 1 .811 9.763 13.609 13.609 0 0 1-3.785 4.566c-3.883 2.654-6.808 5.819-14.611-12.848a6.18 6.18 0 0 0-2.305-2.802 28.268 28.268 0 0 1-5.972-5.334s-13.07 15.976-16.412-16.449a7.285 7.285 0 0 1 3.41-7.103c.197-.117.399-.227.614-.338l-15.662-5.026a3.19 3.19 0 0 1-1.826-1.616 3.182 3.182 0 0 1-.146-2.433Z" fill="#fff"/><path d="M220.523 135.138a4.201 4.201 0 0 1-1.136-.166c-2.993-.873-6.028-5.444-10.139-15.282a5.245 5.245 0 0 0-1.966-2.378 29.146 29.146 0 0 1-5.481-4.731c-1.45 1.468-4.873 4.301-8.51 3.232-4.547-1.37-7.509-8.418-8.799-20.965a8.365 8.365 0 0 1 2.808-7.251l-13.813-4.43a3.968 3.968 0 0 1-2.323-1.997 4.246 4.246 0 0 1-.246-3.22 3.945 3.945 0 0 1 4.566-2.673c.252.055 25.272 5.567 29.684 6.569 3.269.743 4.332 3.453 5.45 6.322a27.386 27.386 0 0 0 1.604 3.589l.823 1.493c2.624 4.793 8.775 16.007 15.362 24.025a9.662 9.662 0 0 1 .903 10.796 14.295 14.295 0 0 1-4.068 4.879l-.51.35c-1.315.904-2.648 1.838-4.209 1.838Zm-18.704-24.855a.903.903 0 0 1 .707.325 27.501 27.501 0 0 0 5.77 5.162 7.116 7.116 0 0 1 2.654 3.213c3.718 8.892 6.648 13.519 8.953 14.219 1.167.338 2.187-.32 3.76-1.413l.522-.363a12.42 12.42 0 0 0 3.503-4.258 7.817 7.817 0 0 0-.719-8.725c-6.685-8.148-12.904-19.472-15.54-24.308-.331-.615-.614-1.094-.817-1.481a29.404 29.404 0 0 1-1.708-3.816c-1.168-2.98-1.936-4.694-4.148-5.192-4.405-1.002-29.42-6.513-29.672-6.569a2.109 2.109 0 0 0-2.421 1.45 2.374 2.374 0 0 0 .136 1.807 2.109 2.109 0 0 0 1.229 1.075l15.656 5.027a.906.906 0 0 1 .614.792.92.92 0 0 1-.485.897c-.203.105-.393.216-.578.32a6.374 6.374 0 0 0-2.961 6.212c1.511 14.618 4.915 18.612 7.496 19.386 3.558 1.069 7.25-3.379 7.287-3.428a.938.938 0 0 1 .707-.332h.055Z" fill="#353535"/><path d="M204.817 104.808a.97.97 0 0 1-.467-.123c-.995-.614-2.758-1.843-3.723-2.519a31.185 31.185 0 0 1-7.687-7.668 6.15 6.15 0 0 1-1.106-3.644 3.189 3.189 0 0 1 2.384-3.281c2.655-.922 6.802 1.567 7.269 1.843a.926.926 0 0 1 .433.935.919.919 0 0 1-1.404.632c-1.468-.903-4.301-2.163-5.69-1.684-.614.222-1.118.394-1.155 1.592a4.41 4.41 0 0 0 .793 2.562 29.364 29.364 0 0 0 7.244 7.189c1.616 1.156 2.925 2.04 3.601 2.458a.933.933 0 0 1 .271.237.905.905 0 0 1 .179.683.913.913 0 0 1-.118.34.928.928 0 0 1-.824.448ZM201.998 112.311a.93.93 0 0 1-.669-.289 11.485 11.485 0 0 1-3.337-7.988.936.936 0 0 1 .983-.867.922.922 0 0 1 .861.977c0 .148-.148 3.454 2.832 6.618a.925.925 0 0 1 .177.998.922.922 0 0 1-.847.557v-.006Z" fill="#353535"/><path d="m407.835 123.162-1.413-38.33-26.895 14.133.301 24.228c.197 5.401 4.627 8.411 4.627 8.411 5.53 4.179 13.199 3.423 18.796-.614l1.297-.934a8.024 8.024 0 0 0 3.287-6.894Z" fill="#fff"/><path d="M393.045 135.335a15.03 15.03 0 0 1-9.149-3.005c-.154-.104-4.78-3.318-4.989-9.118l-.302-24.247a.93.93 0 0 1 .498-.83l26.889-14.132a.923.923 0 0 1 1.352.78l1.413 38.33a8.906 8.906 0 0 1-3.687 7.681l-1.296.934a18.517 18.517 0 0 1-10.729 3.607Zm-12.59-35.829.289 23.663c.178 4.854 4.19 7.637 4.233 7.662 4.855 3.687 12.136 3.435 17.74-.614l1.296-.934a7.07 7.07 0 0 0 2.907-6.102l-1.365-36.867-25.1 13.192Z" fill="#353535"/><path d="M367.325 40.93c7.183-.424-1.843 7.17 24.701-.805 10.569-3.177 5.223 9.518 7.988 8.7 10.132-3.01 9.788-2.924 14.747-1.585 3.275.885 5.407 7.097 4.792 11.736-.817 6.145-5.732 7.712-10.083 20.658-3.072 9.094-2.304 14.618-5.843 15.976-3.539 1.358-6.231-3.607-10.249-2.458-5.199 1.506-4.172 10.766-9.217 14.612-3.189 2.421-10.618 3.545-22.526-2.409a4.639 4.639 0 0 1-2.347-5.358c.731-2.734 1.671-6.193 2.839-9.413 5.53-15.362 10.875-18.833 8.952-22.809-2.955-6.095-14.163-2.599-16.019-7.607-1.978-5.216 2.44-18.655 12.265-19.238Z" fill="#353535"/><path d="m392.373 67.37-2.053 3.944a47.524 47.524 0 0 0-2.519 5.758c-1.333 3.686-3.859 9.985-5.241 13.518-4.437 11.398-18.065-1.125-18.065-1.125l-.952-3.14-1.844-.768a2.178 2.178 0 0 1-1.266-1.37 2.195 2.195 0 0 1 .252-1.85c2.741-4.16 8.449-13.517 10.501-21.886a22.588 22.588 0 0 1 21.187 6.918Z" fill="#fff"/><path d="M376.41 96.317c-5.769 0-12.24-5.88-12.541-6.145a.955.955 0 0 1-.258-.411l-.823-2.722-1.432-.615a3.112 3.112 0 0 1-1.913-3.336c.068-.457.236-.894.494-1.278 2.458-3.687 8.326-13.224 10.378-21.605a.913.913 0 0 1 .657-.67c.498-.135 12.339-3.133 22.078 7.196a.93.93 0 0 1 .141 1.063l-2.052 3.945a45.442 45.442 0 0 0-2.458 5.64c-.971 2.71-2.599 6.84-3.908 10.151-.498 1.266-.965 2.458-1.34 3.404-1.124 2.888-2.912 4.633-5.308 5.192a7.524 7.524 0 0 1-1.715.19Zm-11.109-7.374c1.174 1.02 7.693 6.465 12.393 5.365 1.795-.418 3.11-1.745 4.013-4.062.375-.97.835-2.144 1.339-3.41 1.303-3.306 2.925-7.417 3.89-10.096a47.078 47.078 0 0 1 2.568-5.874l1.745-3.355a21.822 21.822 0 0 0-19.287-6.323c-2.145 8.191-7.46 17.02-10.483 21.61a1.303 1.303 0 0 0 .055 1.512c.141.176.325.312.535.394l1.843.768a.909.909 0 0 1 .529.614l.86 2.857Z" fill="#353535"/><path d="M389.473 81.14s4.915-9.494 8.602-6.262c3.687 3.232-1.948 13.543-8.602 6.261Z" fill="#fff"/><path d="M371.25 83.069a3.988 3.988 0 0 1-2.833-1.088c-1.364-1.32-1.935-3.687-1.733-7.244.154-2.753.947-4.406 2.458-5.063a4.062 4.062 0 0 1 3.244-.086 3.137 3.137 0 0 1 1.782 1.75c1.678 4.45.965 8.124-.258 10.078a3.066 3.066 0 0 1-2.138 1.628c-.197.012-.356.025-.522.025Zm-1.389-11.675c-.78.344-1.229 1.512-1.339 3.472-.203 3.686.528 5.192 1.173 5.819a2.255 2.255 0 0 0 1.88.553c.068 0 .437-.215.848-.953.897-1.597 1.364-4.614 0-8.264a1.362 1.362 0 0 0-.768-.707 2.233 2.233 0 0 0-1.794.05v.03Z" fill="#353535"/><path d="M393.924 74.067h-.117l-22.44-2.931a.931.931 0 0 1-.805-1.038.914.914 0 0 1 .353-.618.923.923 0 0 1 .685-.188l22.446 2.931a.922.922 0 1 1-.122 1.844ZM361.426 80.666a.93.93 0 0 1-.4-.092c-.571-.277-1.069-1.075-1.481-2.384-.706-2.23-.94-5.53.51-8.105a3.214 3.214 0 0 1 2.212-1.653c2.231-.424 4.695 1.524 4.971 1.745a.925.925 0 0 1-.49 1.635.923.923 0 0 1-.677-.203c-.522-.43-2.28-1.585-3.459-1.364a1.331 1.331 0 0 0-.947.75c-1.683 2.986-.375 7.312.234 7.987.174.104.309.261.384.449a.917.917 0 0 1-.297 1.078.922.922 0 0 1-.56.188v-.03Z" fill="#353535"/><path d="M307.31 282.699a.912.912 0 0 1-.78-.423l-15.73-24.818a.93.93 0 0 1-.121-.697.922.922 0 0 1 1.433-.554c.099.07.184.159.249.261l15.723 24.843a.912.912 0 0 1-.304 1.287.923.923 0 0 1-.47.126v-.025ZM314.246 282.7a.925.925 0 0 1-.922-.922v-24.843a.919.919 0 0 1 .922-.921.923.923 0 0 1 .922.921v24.843a.937.937 0 0 1-.27.652.937.937 0 0 1-.652.27ZM303.143 292.561a.908.908 0 0 1-.614-.221l-23.128-19.718a.913.913 0 0 1-.278-.986.94.94 0 0 1 .459-.536.918.918 0 0 1 1.017.121l23.122 19.718a.921.921 0 0 1-.615 1.622h.037ZM68.633 492.284 57.99 457.992s-9.346-1.143-12.627-1.487c-57.476-6.102-28.633-121.048 19.202-147.949 29.383-16.511 64.561-18.753 98.816-17.285 24.105 1.026 47.504.307 69.225 13.303 30.852 18.434 57.298 50.269 73.654 99.063l14.852 88.647H68.632Z" fill="#fff"/><path d="M321.11 493.2H68.631a.905.905 0 0 1-.879-.614l-10.445-33.722c-2.108-.258-9.26-1.124-12.019-1.413-16.59-1.764-27.386-12.492-31.208-31.03-3.736-18.151-.197-43.012 9.469-66.472 9.99-24.277 24.787-43.288 40.554-52.161 31.736-17.819 69.746-18.674 99.314-17.408 2.685.117 5.364.209 8.031.301 21.659.75 42.121 1.463 61.623 13.131 33.759 20.204 58.681 53.698 74.061 99.542.003.047.003.094 0 .142l14.851 88.647a.913.913 0 0 1-.522.986.907.907 0 0 1-.387.083l.036-.012Zm-251.803-1.843h250.697l-14.617-87.499c-15.257-45.396-39.897-78.534-73.256-98.473-19.091-11.422-39.325-12.123-60.745-12.866a1105.35 1105.35 0 0 1-8.043-.302c-29.322-1.228-66.975-.436-98.312 17.168-31.872 17.912-57.145 77.87-49.157 116.655 2.562 12.301 9.727 27.429 29.598 29.543 3.25.344 12.548 1.481 12.646 1.493a.932.932 0 0 1 .768.615l10.421 33.666ZM138.826 239.498c-6.944 3.502-12.173 4.006-15.976 3.785-13.629-.781-22.372-11.767-24.124-13.967-9.032-11.355-13.388-30.004-5.726-40.953 5.53-7.89 12.455-4.916 18.802-13.734 7.208-10.009-.178-18.175 6.47-26.937 7.656-10.09 24.529-9.322 27.558-9.18 10.446.473 11.675 5.64 21.506 5.37 10.047-.27 11.374-5.315 20.597-5.37 7.324-.043 18.003 3.072 22.784 11.545 6.003 10.637-.135 24.64-7.263 32.038-8.553 8.873-14.581 4.111-26.563 11.343-20.756 12.523-15.791 34.84-38.065 46.06Z" fill="#353535"/><path d="m177.504 286.773-5.622-34.987c1.229-.135 11.595-1.941 12.774-2.531 9.592-4.775 6.925-28.843 6.925-28.843l5.334-6.372-15.902-35.583c-16.885 14.071-22.913.252-39.626 7.177-16.714 6.925-7.644 25.537-7.644 25.537s-13.66-6.022-10.741 7.189c2.206 9.979 9.475 10.605 14.262 10.2l-8.91 59.989s-28.677 8.148-34.225 9.616c7.22-.344 57.113 21.359 113.711-2.359l-30.336-9.033Z" fill="#fff"/><path d="M151.804 307.843c-21.629 0-39.202-4.442-49.23-6.98-4.148-1.051-7.153-1.813-8.4-1.745a.935.935 0 0 1-.952-.781.919.919 0 0 1 .676-1.032c5.038-1.333 29.555-8.295 33.629-9.45l8.657-58.275c-7.674.282-12.405-3.41-14.083-10.987-.891-4.043-.387-6.876 1.506-8.43 2.341-1.917 6.144-1.229 8.491-.529-1.155-3.17-2.9-9.646-.614-15.588 1.567-4.142 4.793-7.251 9.585-9.217 7.448-3.072 12.996-2.157 17.893-1.34 6.556 1.094 12.216 2.04 21.506-5.696a.927.927 0 0 1 1.176.004c.11.09.197.205.256.334l15.902 35.583a.933.933 0 0 1-.135.971l-5.082 6.065c.32 3.3 1.997 24.664-7.472 29.377-1.185.615-9.216 2.022-12.129 2.458l5.383 33.494 29.739 8.86a.921.921 0 0 1 .658.83.93.93 0 0 1-.566.903 144.902 144.902 0 0 1-56.394 11.171Zm-53.31-9.887c1.284.295 2.796.683 4.534 1.119 17.359 4.393 57.587 14.569 102.043-3.072l-27.829-8.296a.91.91 0 0 1-.645-.737l-5.622-35.042a.912.912 0 0 1 .172-.701.933.933 0 0 1 .614-.362c1.493-.166 11.503-1.967 12.474-2.458 8.903-4.437 6.445-27.688 6.415-27.921a.95.95 0 0 1 .209-.695l4.964-5.923-15.171-33.942c-9.395 7.447-15.539 6.414-22.04 5.333-4.873-.817-9.917-1.659-16.885 1.229-4.301 1.782-7.183 4.535-8.566 8.178-2.789 7.374 1.358 16.013 1.395 16.099a.925.925 0 0 1-.18 1.023.92.92 0 0 1-1.018.206c-1.659-.731-6.433-2.224-8.602-.455-1.309 1.076-1.604 3.3-.873 6.606 1.548 6.998 5.887 10.101 13.285 9.481a.907.907 0 0 1 .406.058.91.91 0 0 1 .55.583.932.932 0 0 1 .033.41l-8.91 59.989a.922.922 0 0 1-.639.743c-.246.093-20.461 5.838-30.114 8.517v.03Z" fill="#353535"/><path d="M168.085 252.973a24.923 24.923 0 0 1-20.732-11.024.926.926 0 0 1 1.029-1.36.926.926 0 0 1 .563.426c.289.498 7.281 11.982 22.808 9.862a.945.945 0 0 1 .689.181.937.937 0 0 1 .359.615.92.92 0 0 1-.181.689.928.928 0 0 1-.615.359 29.522 29.522 0 0 1-3.92.252Z" fill="#353535"/><path d="M146.96 247.627a20.22 20.22 0 0 1-18.225-11.491l-3.951-8.221a.927.927 0 0 1 .449-1.191.92.92 0 0 1 1.21.392l3.957 8.221a18.36 18.36 0 0 0 21.734 9.709l19.386-5.622a.923.923 0 0 1 1.102.64.924.924 0 0 1-.592 1.129l-19.38 5.622a20.26 20.26 0 0 1-5.69.812Z" fill="#0888C2"/><path d="M122.063 212.08a.923.923 0 0 1-.836-.528c-.436-.934-10.599-23.061-4.049-40.321 2.679-7.066 7.828-12.289 15.288-15.521a.905.905 0 0 1 .705-.013.913.913 0 0 1 .508.489.905.905 0 0 1 .013.705.913.913 0 0 1-.489.509c-6.992 3.029-11.804 7.901-14.304 14.488-6.274 16.535 3.895 38.662 4 38.883a.925.925 0 0 1-.449 1.229.862.862 0 0 1-.387.08Z" fill="#CADDFF"/><path d="M179.124 240.253a5.381 5.381 0 0 0-2.596-5.402 5.372 5.372 0 0 0-5.982.356 5.371 5.371 0 0 0-1.936 5.672 5.375 5.375 0 0 0 4.516 3.94 5.335 5.335 0 0 0 5.998-4.566ZM140.284 219.263c1.026-8.117-4.173-15.46-11.614-16.4a45.444 45.444 0 0 0-4.639-.129c-6.458.437-9.782 5.893-10.697 13.119-.99 7.797 1.984 15.079 8.952 16.461.289.062 2.354.228 2.648.228 8.16.024 14.323-5.162 15.35-13.279Z" fill="#0888C2"/><path d="M137.07 219.007c.868-8.136-4.476-15.376-11.937-16.172-7.461-.796-14.213 5.154-15.081 13.29-.868 8.135 4.477 15.376 11.937 16.172 7.461.796 14.213-5.154 15.081-13.29Z" fill="#95DBFA"/><path d="M110.353 229.046a.247.247 0 0 1-.174-.42.247.247 0 0 1 .174-.072c5.868-1.149 20.719-4.762 17.69-11.404-1.112-2.458-13.352-.707-18.341-.05-4.99.658-20.486 13.998-23.866 24.456-2.587 8.025-3.686 20.891-5.837 29.033 0 0-79.265 104.402-70.466 146.462 10.98 52.407 62.49 33.248 72.107 8.811 8.498-21.647 11.76-120.661 12.375-142.947 1.032-2.722 3.686-9.407 6.077-11.884 2.998-3.152 18.532-9.831 19.048-16.59.381-5.137-8.179-10.968-12.326-13.481a.774.774 0 0 1 .393-1.438 20.61 20.61 0 0 1 9.893 2.458c6.114 3.416 12.645 1.573 10.796-2.667-1.672-3.816-10.532-9.444-17.543-10.267Z" fill="#fff"/><path d="M43.057 451.325c-.996 0-1.979-.043-2.956-.123-9.266-.805-25.678-6.236-31.497-33.985-3.686-17.678 7.079-47.848 32.038-89.668 17.82-29.826 36.867-55.221 38.483-57.396.903-3.509 1.616-7.829 2.372-12.4.965-5.868 1.966-11.939 3.441-16.504 3.508-10.876 19.472-24.407 24.615-25.089l.614-.08c10.975-1.462 17.543-1.843 18.68.664a4.704 4.704 0 0 1-.055 4.301c-2.004 3.89-9.371 6.348-15.128 7.718 6.691 1.843 13.518 6.691 15.048 10.157a3.58 3.58 0 0 1-.762 4.301c-2.28 2.065-7.152 1.843-11.331-.473a19.493 19.493 0 0 0-8.903-2.353c4.977 3.072 12.707 8.725 12.289 14.058-.387 5.149-7.884 9.776-13.911 13.518-2.458 1.506-4.535 2.802-5.383 3.687-2.255 2.366-4.959 9.168-5.825 11.429-.578 20.443-3.846 121.238-12.449 143.107-2.716 6.906-8.787 13.598-16.652 18.372-7.207 4.406-15.189 6.759-22.728 6.759ZM122.8 216.806c-.615 0-1.229 0-2.016.055-3.588.172-7.662.713-10.353 1.069l-.615.086c-4.676.614-19.847 13.709-23.11 23.822-1.431 4.437-2.42 10.446-3.373 16.241-.774 4.688-1.505 9.118-2.458 12.743l-.043.179-.11.147c-.799 1.057-78.933 104.544-70.275 145.712 4.123 19.663 14.747 31.227 29.838 32.505 16.055 1.352 34.98-9.788 40.51-23.841 8.48-21.641 11.73-122.596 12.296-142.64v-.153l.055-.142c1.315-3.484 3.877-9.696 6.267-12.197 1.014-1.057 3.073-2.347 5.746-3.981 5.37-3.318 12.731-7.859 13.045-12.068.239-3.251-4.203-7.988-11.89-12.621a1.7 1.7 0 0 1-.765-1.909 1.696 1.696 0 0 1 1.637-1.243 21.425 21.425 0 0 1 10.342 2.593c3.815 2.132 7.742 2.033 9.216.712.615-.553.713-1.278.308-2.206-1.524-3.49-10.102-8.928-16.793-9.708a1.168 1.168 0 0 1-.093-2.31c9.187-1.801 15.546-4.578 17.015-7.435a2.906 2.906 0 0 0 0-2.679s-.394-.731-4.381-.731Z" fill="#353535"/><path d="M53.344 459.08c-1.83.014-3.66-.07-5.48-.252a.929.929 0 0 1-.468-1.65.936.936 0 0 1 .683-.194c8.949.704 17.95-.339 26.5-3.072 18.09-6.009 28.88-19.134 32.174-39.012a.93.93 0 0 1 1.069-.774.934.934 0 0 1 .774 1.069c-4.215 25.703-20.529 36.204-33.47 40.487a70.486 70.486 0 0 1-21.782 3.398Z" fill="#99B9FF"/><path d="M346.359 390.74H239.561a4.52 4.52 0 0 1-3.853-6.876l66.177-108.224a7.759 7.759 0 0 1 6.63-3.687h105.907a5.017 5.017 0 0 1 5.037 5.11 5.018 5.018 0 0 1-.736 2.528l-65.734 107.431a7.768 7.768 0 0 1-6.63 3.718Z" fill="#fff"/><path d="M346.358 391.661H239.56a5.435 5.435 0 0 1-4.745-2.779 5.44 5.44 0 0 1 .106-5.498l66.164-108.224a8.734 8.734 0 0 1 7.429-4.184h105.907a5.93 5.93 0 0 1 3.002.815 5.94 5.94 0 0 1 2.068 8.223l-65.747 107.469a8.758 8.758 0 0 1-7.386 4.178Zm-37.844-118.842a6.875 6.875 0 0 0-5.843 3.275l-66.177 108.249a3.59 3.59 0 0 0 1.251 4.984 3.597 3.597 0 0 0 1.821.491h106.792a6.88 6.88 0 0 0 5.844-3.275l65.716-107.469a4.092 4.092 0 0 0-3.497-6.255H308.514Z" fill="#353535"/><path d="M371.488 321.736h-75.031l4.381-7.176h75.025l-4.375 7.176ZM380.054 307.69h-75.031l13.383-21.936h75.025l-13.377 21.936Z" fill="#95DBFA"/><path d="M344.053 481.12h-117.6l87.185-134.118a14.986 14.986 0 0 1 12.572-6.759h95.437c6.064 0 9.745 6.489 6.507 11.466L344.053 481.12Z" fill="#353535"/><path d="M362.114 394.074c6.968-4.529 10.645-11.236 8.211-14.98-2.434-3.745-10.056-3.109-17.024 1.42-6.968 4.529-10.645 11.235-8.211 14.98 2.434 3.745 10.056 3.109 17.024-1.42Z" fill="#CADDFF"/><path d="M124.379 480.125h220.097v.756a11.397 11.397 0 0 1-11.398 11.398H135.795a11.394 11.394 0 0 1-8.059-3.339 11.394 11.394 0 0 1-3.339-8.059v-.756h-.018Z" fill="#353535"/><path d="M337.951 482.128h-101.01a.927.927 0 0 1-.652-.27.926.926 0 0 1 0-1.304.923.923 0 0 1 .652-.27h101.01a.921.921 0 1 1 0 1.844Z" fill="#fff"/><path d="M510.001 489.495H.004V510H510v-20.505Z" fill="#95DBFA"/><path d="M371.07 505.907a.923.923 0 0 1-.922-.922v-10.476a.925.925 0 0 1 .922-.922.921.921 0 0 1 .922.922v10.476a.921.921 0 0 1-.922.922Z" fill="#353535"/><path d="M6.354 312.145a.91.91 0 0 1-.221 0 .924.924 0 0 1-.676-1.119c.13-.528 13.389-53.095 45.857-75.578a.926.926 0 0 1 .704-.182.925.925 0 0 1 .763.726.92.92 0 0 1-.416.968c-31.897 22.065-44.99 73.956-45.12 74.49a.924.924 0 0 1-.89.695Z" fill="#fff"/><path d="M20.801 294.325a.893.893 0 0 1-.356-.074.92.92 0 0 1-.508-.509.916.916 0 0 1 .016-.72c5.285-12.504 11.417-23.417 18.237-32.437a.92.92 0 0 1 1.271-.152.92.92 0 0 1 .198 1.264c-6.722 8.898-12.787 19.663-18.01 32.044a.919.919 0 0 1-.848.584ZM175.738 80.15a.923.923 0 0 1-.652-1.573.923.923 0 0 1 .652-.27l3.269-.068a.924.924 0 0 1 .94.904.912.912 0 0 1-.257.657.923.923 0 0 1-.646.283l-3.263.073-.043-.006ZM164.277 80.397a.923.923 0 0 1-.652-1.574.923.923 0 0 1 .652-.27l3.269-.067a.924.924 0 0 1 .94.903.913.913 0 0 1-.257.657.923.923 0 0 1-.646.283l-3.269.074-.037-.007ZM171.595 76.193a.915.915 0 0 1-.915-.915v-3.22a.91.91 0 0 1 .265-.654.918.918 0 0 1 .65-.274.92.92 0 0 1 .852.564c.046.111.07.23.07.351v3.22a.91.91 0 0 1-.266.654.923.923 0 0 1-.65.274h-.006ZM171.687 87.481a.92.92 0 0 1-.921-.91v-3.225a.928.928 0 0 1 .265-.654.916.916 0 0 1 1.298-.004.928.928 0 0 1 .274.645v3.22a.933.933 0 0 1-.066.354.93.93 0 0 1-.496.503.917.917 0 0 1-.354.071ZM228.58 254.213a7.636 7.636 0 0 1-7.146-10.273 7.26 7.26 0 0 1 3.902-4.099 7.432 7.432 0 0 1 5.788-.086 7.633 7.633 0 0 1 4.344 9.715 7.27 7.27 0 0 1-3.902 4.098c-.939.42-1.956.64-2.986.645Zm-.27-13.167a5.587 5.587 0 0 0-2.243.467 5.448 5.448 0 0 0-2.919 3.072 5.787 5.787 0 0 0 3.306 7.373 5.599 5.599 0 0 0 4.369-.061 5.468 5.468 0 0 0 2.919-3.072 5.78 5.78 0 0 0-3.318-7.343 5.697 5.697 0 0 0-2.108-.436h-.006ZM207.001 261.691a5.162 5.162 0 0 1-1.929-.374 5.253 5.253 0 0 1-2.986-6.71 5.004 5.004 0 0 1 2.685-2.827 5.12 5.12 0 0 1 3.988-.055 5.253 5.253 0 0 1 2.992 6.704 5.047 5.047 0 0 1-2.691 2.832c-.65.282-1.35.428-2.059.43Zm-.172-8.497c-.452-.001-.9.093-1.315.276a3.17 3.17 0 0 0-1.708 1.794 3.401 3.401 0 0 0 1.948 4.338 3.285 3.285 0 0 0 2.562-.03 3.19 3.19 0 0 0 1.709-1.801 3.413 3.413 0 0 0-1.624-4.189 3.4 3.4 0 0 0-1.572-.388Z" fill="#fff"/></svg>