<svg width="108" height="108" fill="none" xmlns="http://www.w3.org/2000/svg"><mask id="a" maskUnits="userSpaceOnUse" x="1.766" y="1.768" width="104" height="104" fill="#000"><path fill="#fff" d="M1.766 1.768h104v104h-104z"/><path d="M98.477 47.244c-.148 0-.311 0-.475.033-3.06.196-5.53 2.438-6.136 5.334h-5.45a32.328 32.328 0 0 0-8.525-20.536l3.846-3.846a6.855 6.855 0 0 0 3.73 1.113c1.571 0 3.142-.556 4.37-1.653.13-.098.261-.229.376-.343a6.732 6.732 0 0 0 1.98-4.795c0-1.8-.704-3.502-1.98-4.762a6.694 6.694 0 0 0-4.778-1.98c-1.817-.049-3.519.704-4.811 1.997a2.973 2.973 0 0 0-.262.278c-2.062 2.307-2.242 5.662-.605 8.182l-3.862 3.862a32.328 32.328 0 0 0-20.537-8.526v-5.465c2.897-.606 5.139-3.077 5.335-6.137.016-.163.033-.327.033-.474a6.76 6.76 0 0 0-6.759-6.758 6.76 6.76 0 0 0-6.758 6.758c0 .147 0 .31.033.474.196 3.06 2.438 5.531 5.335 6.137v5.449A32.328 32.328 0 0 0 32.04 30.11l-3.845-3.862c1.636-2.503 1.456-5.858-.59-8.149a5.453 5.453 0 0 0-.294-.31 6.722 6.722 0 0 0-4.778-1.98 6.694 6.694 0 0 0-4.778 1.98 6.723 6.723 0 0 0-1.98 4.778c0 1.8.703 3.518 1.98 4.778.13.13.262.245.294.262a6.697 6.697 0 0 0 4.484 1.718c1.293 0 2.569-.377 3.682-1.097l3.845 3.846a32.328 32.328 0 0 0-8.525 20.536h-5.4c-.606-2.896-3.077-5.138-6.137-5.334a4.95 4.95 0 0 0-.474-.033 6.76 6.76 0 0 0-6.758 6.758 6.76 6.76 0 0 0 6.758 6.758c.147 0 .31 0 .474-.032 3.06-.197 5.531-2.439 6.137-5.335h5.432c.328 7.658 3.306 14.907 8.51 20.57l-3.83 3.828c-2.503-1.636-5.858-1.472-8.083.524-.131.098-.278.229-.393.344a6.722 6.722 0 0 0-1.98 4.778c0 1.816.704 3.502 1.98 4.778a6.722 6.722 0 0 0 4.778 1.98 6.694 6.694 0 0 0 4.778-1.98c.099-.098.213-.213.311-.327 2.046-2.308 2.21-5.646.573-8.15l3.83-3.829c.261.23.506.475.768.704a32.42 32.42 0 0 0 19.784 7.805v5.433c-2.897.606-5.138 3.077-5.335 6.137a4.948 4.948 0 0 0-.032.474 6.76 6.76 0 0 0 6.758 6.758 6.76 6.76 0 0 0 6.758-6.758c0-.147 0-.31-.033-.474-.196-3.06-2.438-5.531-5.334-6.137v-5.433c7.282-.31 14.269-3.043 19.783-7.805.262-.23.508-.458.77-.687l3.829 3.829c-1.637 2.504-1.473 5.858.54 8.084.098.13.229.261.343.392a6.722 6.722 0 0 0 4.778 1.98h.017c1.8 0 3.501-.703 4.761-1.98a6.722 6.722 0 0 0 1.98-4.778 6.68 6.68 0 0 0-1.996-4.794c-.114-.115-.245-.246-.294-.262-2.308-2.062-5.662-2.242-8.182-.606l-3.83-3.829c5.204-5.662 8.183-12.91 8.51-20.569h5.433c.605 2.896 3.076 5.138 6.136 5.335.163.016.327.032.474.032a6.76 6.76 0 0 0 6.759-6.758c0-3.73-2.979-6.758-6.71-6.758ZM73.374 76.519a29.568 29.568 0 0 1-11.717 6.185c1.146-1.211 2.226-2.684 3.191-4.451.442-.785.851-1.604 1.211-2.454.507-1.146.95-2.373 1.375-3.633a29.688 29.688 0 0 1 6.153 4.156c-.082.066-.148.131-.213.197Zm-41.073-2.242c-4.844-5.188-7.61-11.848-7.953-18.884h13.533c.098 4.975.753 9.77 1.882 14.056a32.767 32.767 0 0 0-7.348 4.959c-.032-.033-.081-.082-.114-.131ZM70.118 52.61c-.098-5.105-.752-9.867-1.849-14.056a32.632 32.632 0 0 0 6.922-4.55c.131-.114.262-.245.393-.36a29.596 29.596 0 0 1 8.067 18.983H70.118v-.017ZM52.61 24.466v14.547A29.62 29.62 0 0 1 43.135 37c2.192-6.807 5.612-11.602 9.474-12.534Zm0 17.329v10.8H40.68c.098-4.631.704-9.033 1.686-12.911a32.03 32.03 0 0 0 10.243 2.11Zm0 13.598v10.816c-3.55.148-7.003.868-10.26 2.111-1.014-3.96-1.587-8.361-1.685-12.927h11.945Zm0 13.598v14.531c-2.52-.622-4.958-2.913-7.003-6.627a28.135 28.135 0 0 1-1.097-2.226 35.57 35.57 0 0 1-1.374-3.665 29.44 29.44 0 0 1 9.474-2.013Zm2.782 0c3.29.147 6.48.835 9.475 2.013a37.057 37.057 0 0 1-1.375 3.665c-.344.77-.703 1.522-1.096 2.226-2.046 3.714-4.484 5.989-7.004 6.61V68.992Zm0-2.782V55.393h11.93c-.099 4.566-.672 8.967-1.686 12.927-3.24-1.26-6.693-1.963-10.244-2.11Zm0-13.598v-10.8a32.482 32.482 0 0 0 10.244-2.11c.981 3.877 1.587 8.28 1.685 12.91H55.391Zm0-13.598V24.466c3.862.932 7.282 5.727 9.475 12.534a29.62 29.62 0 0 1-9.475 2.013Zm17.984-7.134a30.226 30.226 0 0 1-5.908 3.943c-1.44-4.385-3.403-7.985-5.727-10.473 4.435 1.195 8.46 3.404 11.831 6.35-.082.065-.13.13-.196.18Zm-32.842 3.943c-2.111-1.08-4.091-2.373-5.907-3.944-.066-.049-.131-.114-.197-.18A29.538 29.538 0 0 1 46.26 25.35c-2.307 2.488-4.27 6.088-5.727 10.473Zm-8.1-2.193c.13.115.245.246.376.36 2.111 1.833 4.451 3.339 6.922 4.55-1.096 4.189-1.75 8.967-1.849 14.056H24.366a29.59 29.59 0 0 1 8.067-18.966Zm1.98 42.693a29.054 29.054 0 0 1 6.153-4.156c.409 1.26.867 2.487 1.374 3.633.377.85.786 1.685 1.211 2.454.965 1.767 2.045 3.24 3.191 4.45a29.631 29.631 0 0 1-11.733-6.184 1.112 1.112 0 0 0-.196-.197Zm41.285-2.029c-.032.05-.081.082-.13.13-2.242-1.995-4.697-3.665-7.348-4.957 1.13-4.304 1.784-9.098 1.882-14.057h13.533a29.525 29.525 0 0 1-7.937 18.884Zm6.775-54.36c.033-.033.147-.147.163-.18a3.948 3.948 0 0 1 2.815-1.162c1.064 0 2.062.41 2.798 1.162a3.883 3.883 0 0 1 1.162 2.798c0 1.064-.409 2.062-1.162 2.815l.982.982-1.162-.819a3.959 3.959 0 0 1-5.433-.163 3.959 3.959 0 0 1-.163-5.433ZM50.04 9.771c0-.065 0-.18-.016-.245A3.98 3.98 0 0 1 54 5.549a3.98 3.98 0 0 1 3.977 3.977v.049c-.017.065-.017.13-.033.196-.098 2.095-1.833 3.731-3.944 3.731-2.094 0-3.845-1.636-3.96-3.73ZM19.931 25.53a1.73 1.73 0 0 0-.196-.163 3.948 3.948 0 0 1-1.162-2.815c0-1.063.409-2.062 1.162-2.814a3.947 3.947 0 0 1 2.814-1.162c1.064 0 2.062.409 2.815 1.162a.944.944 0 0 1 .163.196 3.958 3.958 0 0 1-.163 5.433 3.958 3.958 0 0 1-5.433.163ZM9.77 57.962c-.065 0-.18 0-.245.016a3.98 3.98 0 0 1-3.977-3.976c0-2.193 1.784-3.976 4.026-3.976.065.016.13.016.196.032a3.953 3.953 0 0 1 3.731 3.96 3.949 3.949 0 0 1-3.73 3.944Zm15.758 30.11a1.635 1.635 0 0 0-.163.18c-1.49 1.505-4.124 1.505-5.613 0a3.92 3.92 0 0 1-1.162-2.815c0-1.08.41-2.062 1.162-2.815l.18-.163a3.94 3.94 0 0 1 5.433.18c1.489 1.489 1.57 3.878.163 5.432Zm32.45 10.308v.099A3.98 3.98 0 0 1 54 102.454c-2.193 0-3.976-1.784-3.976-4.026.016-.065.016-.13.016-.196a3.953 3.953 0 0 1 3.96-3.73c2.111 0 3.846 1.635 3.977 3.877ZM85.45 81.477c.933 0 1.882.327 2.618.998.033.033.147.147.18.163a3.947 3.947 0 0 1 1.162 2.815c0 1.064-.409 2.062-1.162 2.815a3.91 3.91 0 0 1-2.798 1.161 3.897 3.897 0 0 1-2.814-1.178l-.164-.18a3.942 3.942 0 0 1 .163-5.433 4.02 4.02 0 0 1 2.815-1.161Zm12.977-23.499c-.066-.016-.132-.016-.197-.032a3.953 3.953 0 0 1-3.73-3.96c0-2.095 1.635-3.846 3.73-3.96.066 0 .18 0 .246-.017a3.98 3.98 0 0 1 3.976 3.977c0 2.209-1.784 3.992-4.026 3.992Z"/></mask><path d="M98.477 47.244c-.148 0-.311 0-.475.033-3.06.196-5.53 2.438-6.136 5.334h-5.45a32.328 32.328 0 0 0-8.525-20.536l3.846-3.846a6.855 6.855 0 0 0 3.73 1.113c1.571 0 3.142-.556 4.37-1.653.13-.098.261-.229.376-.343a6.732 6.732 0 0 0 1.98-4.795c0-1.8-.704-3.502-1.98-4.762a6.694 6.694 0 0 0-4.778-1.98c-1.817-.049-3.519.704-4.811 1.997a2.973 2.973 0 0 0-.262.278c-2.062 2.307-2.242 5.662-.605 8.182l-3.862 3.862a32.328 32.328 0 0 0-20.537-8.526v-5.465c2.897-.606 5.139-3.077 5.335-6.137.016-.163.033-.327.033-.474a6.76 6.76 0 0 0-6.759-6.758 6.76 6.76 0 0 0-6.758 6.758c0 .147 0 .31.033.474.196 3.06 2.438 5.531 5.335 6.137v5.449A32.328 32.328 0 0 0 32.04 30.11l-3.845-3.862c1.636-2.503 1.456-5.858-.59-8.149a5.453 5.453 0 0 0-.294-.31 6.722 6.722 0 0 0-4.778-1.98 6.694 6.694 0 0 0-4.778 1.98 6.723 6.723 0 0 0-1.98 4.778c0 1.8.703 3.518 1.98 4.778.13.13.262.245.294.262a6.697 6.697 0 0 0 4.484 1.718c1.293 0 2.569-.377 3.682-1.097l3.845 3.846a32.328 32.328 0 0 0-8.525 20.536h-5.4c-.606-2.896-3.077-5.138-6.137-5.334a4.95 4.95 0 0 0-.474-.033 6.76 6.76 0 0 0-6.758 6.758 6.76 6.76 0 0 0 6.758 6.758c.147 0 .31 0 .474-.032 3.06-.197 5.531-2.439 6.137-5.335h5.432c.328 7.658 3.306 14.907 8.51 20.57l-3.83 3.828c-2.503-1.636-5.858-1.472-8.083.524-.131.098-.278.229-.393.344a6.722 6.722 0 0 0-1.98 4.778c0 1.816.704 3.502 1.98 4.778a6.722 6.722 0 0 0 4.778 1.98 6.694 6.694 0 0 0 4.778-1.98c.099-.098.213-.213.311-.327 2.046-2.308 2.21-5.646.573-8.15l3.83-3.829c.261.23.506.475.768.704a32.42 32.42 0 0 0 19.784 7.805v5.433c-2.897.606-5.138 3.077-5.335 6.137a4.948 4.948 0 0 0-.032.474 6.76 6.76 0 0 0 6.758 6.758 6.76 6.76 0 0 0 6.758-6.758c0-.147 0-.31-.033-.474-.196-3.06-2.438-5.531-5.334-6.137v-5.433c7.282-.31 14.269-3.043 19.783-7.805.262-.23.508-.458.77-.687l3.829 3.829c-1.637 2.504-1.473 5.858.54 8.084.098.13.229.261.343.392a6.722 6.722 0 0 0 4.778 1.98h.017c1.8 0 3.501-.703 4.761-1.98a6.722 6.722 0 0 0 1.98-4.778 6.68 6.68 0 0 0-1.996-4.794c-.114-.115-.245-.246-.294-.262-2.308-2.062-5.662-2.242-8.182-.606l-3.83-3.829c5.204-5.662 8.183-12.91 8.51-20.569h5.433c.605 2.896 3.076 5.138 6.136 5.335.163.016.327.032.474.032a6.76 6.76 0 0 0 6.759-6.758c0-3.73-2.979-6.758-6.71-6.758ZM73.374 76.519a29.568 29.568 0 0 1-11.717 6.185c1.146-1.211 2.226-2.684 3.191-4.451.442-.785.851-1.604 1.211-2.454.507-1.146.95-2.373 1.375-3.633a29.688 29.688 0 0 1 6.153 4.156c-.082.066-.148.131-.213.197Zm-41.073-2.242c-4.844-5.188-7.61-11.848-7.953-18.884h13.533c.098 4.975.753 9.77 1.882 14.056a32.767 32.767 0 0 0-7.348 4.959c-.032-.033-.081-.082-.114-.131ZM70.118 52.61c-.098-5.105-.752-9.867-1.849-14.056a32.632 32.632 0 0 0 6.922-4.55c.131-.114.262-.245.393-.36a29.596 29.596 0 0 1 8.067 18.983H70.118v-.017ZM52.61 24.466v14.547A29.62 29.62 0 0 1 43.135 37c2.192-6.807 5.612-11.602 9.474-12.534Zm0 17.329v10.8H40.68c.098-4.631.704-9.033 1.686-12.911a32.03 32.03 0 0 0 10.243 2.11Zm0 13.598v10.816c-3.55.148-7.003.868-10.26 2.111-1.014-3.96-1.587-8.361-1.685-12.927h11.945Zm0 13.598v14.531c-2.52-.622-4.958-2.913-7.003-6.627a28.135 28.135 0 0 1-1.097-2.226 35.57 35.57 0 0 1-1.374-3.665 29.44 29.44 0 0 1 9.474-2.013Zm2.782 0c3.29.147 6.48.835 9.475 2.013a37.057 37.057 0 0 1-1.375 3.665c-.344.77-.703 1.522-1.096 2.226-2.046 3.714-4.484 5.989-7.004 6.61V68.992Zm0-2.782V55.393h11.93c-.099 4.566-.672 8.967-1.686 12.927-3.24-1.26-6.693-1.963-10.244-2.11Zm0-13.598v-10.8a32.482 32.482 0 0 0 10.244-2.11c.981 3.877 1.587 8.28 1.685 12.91H55.391Zm0-13.598V24.466c3.862.932 7.282 5.727 9.475 12.534a29.62 29.62 0 0 1-9.475 2.013Zm17.984-7.134a30.226 30.226 0 0 1-5.908 3.943c-1.44-4.385-3.403-7.985-5.727-10.473 4.435 1.195 8.46 3.404 11.831 6.35-.082.065-.13.13-.196.18Zm-32.842 3.943c-2.111-1.08-4.091-2.373-5.907-3.944-.066-.049-.131-.114-.197-.18A29.538 29.538 0 0 1 46.26 25.35c-2.307 2.488-4.27 6.088-5.727 10.473Zm-8.1-2.193c.13.115.245.246.376.36 2.111 1.833 4.451 3.339 6.922 4.55-1.096 4.189-1.75 8.967-1.849 14.056H24.366a29.59 29.59 0 0 1 8.067-18.966Zm1.98 42.693a29.054 29.054 0 0 1 6.153-4.156c.409 1.26.867 2.487 1.374 3.633.377.85.786 1.685 1.211 2.454.965 1.767 2.045 3.24 3.191 4.45a29.631 29.631 0 0 1-11.733-6.184 1.112 1.112 0 0 0-.196-.197Zm41.285-2.029c-.032.05-.081.082-.13.13-2.242-1.995-4.697-3.665-7.348-4.957 1.13-4.304 1.784-9.098 1.882-14.057h13.533a29.525 29.525 0 0 1-7.937 18.884Zm6.775-54.36c.033-.033.147-.147.163-.18a3.948 3.948 0 0 1 2.815-1.162c1.064 0 2.062.41 2.798 1.162a3.883 3.883 0 0 1 1.162 2.798c0 1.064-.409 2.062-1.162 2.815l.982.982-1.162-.819a3.959 3.959 0 0 1-5.433-.163 3.959 3.959 0 0 1-.163-5.433ZM50.04 9.771c0-.065 0-.18-.016-.245A3.98 3.98 0 0 1 54 5.549a3.98 3.98 0 0 1 3.977 3.977v.049c-.017.065-.017.13-.033.196-.098 2.095-1.833 3.731-3.944 3.731-2.094 0-3.845-1.636-3.96-3.73ZM19.931 25.53a1.73 1.73 0 0 0-.196-.163 3.948 3.948 0 0 1-1.162-2.815c0-1.063.409-2.062 1.162-2.814a3.947 3.947 0 0 1 2.814-1.162c1.064 0 2.062.409 2.815 1.162a.944.944 0 0 1 .163.196 3.958 3.958 0 0 1-.163 5.433 3.958 3.958 0 0 1-5.433.163ZM9.77 57.962c-.065 0-.18 0-.245.016a3.98 3.98 0 0 1-3.977-3.976c0-2.193 1.784-3.976 4.026-3.976.065.016.13.016.196.032a3.953 3.953 0 0 1 3.731 3.96 3.949 3.949 0 0 1-3.73 3.944Zm15.758 30.11a1.635 1.635 0 0 0-.163.18c-1.49 1.505-4.124 1.505-5.613 0a3.92 3.92 0 0 1-1.162-2.815c0-1.08.41-2.062 1.162-2.815l.18-.163a3.94 3.94 0 0 1 5.433.18c1.489 1.489 1.57 3.878.163 5.432Zm32.45 10.308v.099A3.98 3.98 0 0 1 54 102.454c-2.193 0-3.976-1.784-3.976-4.026.016-.065.016-.13.016-.196a3.953 3.953 0 0 1 3.96-3.73c2.111 0 3.846 1.635 3.977 3.877ZM85.45 81.477c.933 0 1.882.327 2.618.998.033.033.147.147.18.163a3.947 3.947 0 0 1 1.162 2.815c0 1.064-.409 2.062-1.162 2.815a3.91 3.91 0 0 1-2.798 1.161 3.897 3.897 0 0 1-2.814-1.178l-.164-.18a3.942 3.942 0 0 1 .163-5.433 4.02 4.02 0 0 1 2.815-1.161Zm12.977-23.499c-.066-.016-.132-.016-.197-.032a3.953 3.953 0 0 1-3.73-3.96c0-2.095 1.635-3.846 3.73-3.96.066 0 .18 0 .246-.017a3.98 3.98 0 0 1 3.976 3.977c0 2.209-1.784 3.992-4.026 3.992Z" fill="#00AEEF"/><path d="M98.477 47.244c-.148 0-.311 0-.475.033-3.06.196-5.53 2.438-6.136 5.334h-5.45a32.328 32.328 0 0 0-8.525-20.536l3.846-3.846a6.855 6.855 0 0 0 3.73 1.113c1.571 0 3.142-.556 4.37-1.653.13-.098.261-.229.376-.343a6.732 6.732 0 0 0 1.98-4.795c0-1.8-.704-3.502-1.98-4.762a6.694 6.694 0 0 0-4.778-1.98c-1.817-.049-3.519.704-4.811 1.997a2.973 2.973 0 0 0-.262.278c-2.062 2.307-2.242 5.662-.605 8.182l-3.862 3.862a32.328 32.328 0 0 0-20.537-8.526v-5.465c2.897-.606 5.139-3.077 5.335-6.137.016-.163.033-.327.033-.474a6.76 6.76 0 0 0-6.759-6.758 6.76 6.76 0 0 0-6.758 6.758c0 .147 0 .31.033.474.196 3.06 2.438 5.531 5.335 6.137v5.449A32.328 32.328 0 0 0 32.04 30.11l-3.845-3.862c1.636-2.503 1.456-5.858-.59-8.149a5.453 5.453 0 0 0-.294-.31 6.722 6.722 0 0 0-4.778-1.98 6.694 6.694 0 0 0-4.778 1.98 6.723 6.723 0 0 0-1.98 4.778c0 1.8.703 3.518 1.98 4.778.13.13.262.245.294.262a6.697 6.697 0 0 0 4.484 1.718c1.293 0 2.569-.377 3.682-1.097l3.845 3.846a32.328 32.328 0 0 0-8.525 20.536h-5.4c-.606-2.896-3.077-5.138-6.137-5.334a4.95 4.95 0 0 0-.474-.033 6.76 6.76 0 0 0-6.758 6.758 6.76 6.76 0 0 0 6.758 6.758c.147 0 .31 0 .474-.032 3.06-.197 5.531-2.439 6.137-5.335h5.432c.328 7.658 3.306 14.907 8.51 20.57l-3.83 3.828c-2.503-1.636-5.858-1.472-8.083.524-.131.098-.278.229-.393.344a6.722 6.722 0 0 0-1.98 4.778c0 1.816.704 3.502 1.98 4.778a6.722 6.722 0 0 0 4.778 1.98 6.694 6.694 0 0 0 4.778-1.98c.099-.098.213-.213.311-.327 2.046-2.308 2.21-5.646.573-8.15l3.83-3.829c.261.23.506.475.768.704a32.42 32.42 0 0 0 19.784 7.805v5.433c-2.897.606-5.138 3.077-5.335 6.137a4.948 4.948 0 0 0-.032.474 6.76 6.76 0 0 0 6.758 6.758 6.76 6.76 0 0 0 6.758-6.758c0-.147 0-.31-.033-.474-.196-3.06-2.438-5.531-5.334-6.137v-5.433c7.282-.31 14.269-3.043 19.783-7.805.262-.23.508-.458.77-.687l3.829 3.829c-1.637 2.504-1.473 5.858.54 8.084.098.13.229.261.343.392a6.722 6.722 0 0 0 4.778 1.98h.017c1.8 0 3.501-.703 4.761-1.98a6.722 6.722 0 0 0 1.98-4.778 6.68 6.68 0 0 0-1.996-4.794c-.114-.115-.245-.246-.294-.262-2.308-2.062-5.662-2.242-8.182-.606l-3.83-3.829c5.204-5.662 8.183-12.91 8.51-20.569h5.433c.605 2.896 3.076 5.138 6.136 5.335.163.016.327.032.474.032a6.76 6.76 0 0 0 6.759-6.758c0-3.73-2.979-6.758-6.71-6.758ZM73.374 76.519a29.568 29.568 0 0 1-11.717 6.185c1.146-1.211 2.226-2.684 3.191-4.451.442-.785.851-1.604 1.211-2.454.507-1.146.95-2.373 1.375-3.633a29.688 29.688 0 0 1 6.153 4.156c-.082.066-.148.131-.213.197Zm-41.073-2.242c-4.844-5.188-7.61-11.848-7.953-18.884h13.533c.098 4.975.753 9.77 1.882 14.056a32.767 32.767 0 0 0-7.348 4.959c-.032-.033-.081-.082-.114-.131ZM70.118 52.61c-.098-5.105-.752-9.867-1.849-14.056a32.632 32.632 0 0 0 6.922-4.55c.131-.114.262-.245.393-.36a29.596 29.596 0 0 1 8.067 18.983H70.118v-.017ZM52.61 24.466v14.547A29.62 29.62 0 0 1 43.135 37c2.192-6.807 5.612-11.602 9.474-12.534Zm0 17.329v10.8H40.68c.098-4.631.704-9.033 1.686-12.911a32.03 32.03 0 0 0 10.243 2.11Zm0 13.598v10.816c-3.55.148-7.003.868-10.26 2.111-1.014-3.96-1.587-8.361-1.685-12.927h11.945Zm0 13.598v14.531c-2.52-.622-4.958-2.913-7.003-6.627a28.135 28.135 0 0 1-1.097-2.226 35.57 35.57 0 0 1-1.374-3.665 29.44 29.44 0 0 1 9.474-2.013Zm2.782 0c3.29.147 6.48.835 9.475 2.013a37.057 37.057 0 0 1-1.375 3.665c-.344.77-.703 1.522-1.096 2.226-2.046 3.714-4.484 5.989-7.004 6.61V68.992Zm0-2.782V55.393h11.93c-.099 4.566-.672 8.967-1.686 12.927-3.24-1.26-6.693-1.963-10.244-2.11Zm0-13.598v-10.8a32.482 32.482 0 0 0 10.244-2.11c.981 3.877 1.587 8.28 1.685 12.91H55.391Zm0-13.598V24.466c3.862.932 7.282 5.727 9.475 12.534a29.62 29.62 0 0 1-9.475 2.013Zm17.984-7.134a30.226 30.226 0 0 1-5.908 3.943c-1.44-4.385-3.403-7.985-5.727-10.473 4.435 1.195 8.46 3.404 11.831 6.35-.082.065-.13.13-.196.18Zm-32.842 3.943c-2.111-1.08-4.091-2.373-5.907-3.944-.066-.049-.131-.114-.197-.18A29.538 29.538 0 0 1 46.26 25.35c-2.307 2.488-4.27 6.088-5.727 10.473Zm-8.1-2.193c.13.115.245.246.376.36 2.111 1.833 4.451 3.339 6.922 4.55-1.096 4.189-1.75 8.967-1.849 14.056H24.366a29.59 29.59 0 0 1 8.067-18.966Zm1.98 42.693a29.054 29.054 0 0 1 6.153-4.156c.409 1.26.867 2.487 1.374 3.633.377.85.786 1.685 1.211 2.454.965 1.767 2.045 3.24 3.191 4.45a29.631 29.631 0 0 1-11.733-6.184 1.112 1.112 0 0 0-.196-.197Zm41.285-2.029c-.032.05-.081.082-.13.13-2.242-1.995-4.697-3.665-7.348-4.957 1.13-4.304 1.784-9.098 1.882-14.057h13.533a29.525 29.525 0 0 1-7.937 18.884Zm6.775-54.36c.033-.033.147-.147.163-.18a3.948 3.948 0 0 1 2.815-1.162c1.064 0 2.062.41 2.798 1.162a3.883 3.883 0 0 1 1.162 2.798c0 1.064-.409 2.062-1.162 2.815l.982.982-1.162-.819a3.959 3.959 0 0 1-5.433-.163 3.959 3.959 0 0 1-.163-5.433ZM50.04 9.771c0-.065 0-.18-.016-.245A3.98 3.98 0 0 1 54 5.549a3.98 3.98 0 0 1 3.977 3.977v.049c-.017.065-.017.13-.033.196-.098 2.095-1.833 3.731-3.944 3.731-2.094 0-3.845-1.636-3.96-3.73ZM19.931 25.53a1.73 1.73 0 0 0-.196-.163 3.948 3.948 0 0 1-1.162-2.815c0-1.063.409-2.062 1.162-2.814a3.947 3.947 0 0 1 2.814-1.162c1.064 0 2.062.409 2.815 1.162a.944.944 0 0 1 .163.196 3.958 3.958 0 0 1-.163 5.433 3.958 3.958 0 0 1-5.433.163ZM9.77 57.962c-.065 0-.18 0-.245.016a3.98 3.98 0 0 1-3.977-3.976c0-2.193 1.784-3.976 4.026-3.976.065.016.13.016.196.032a3.953 3.953 0 0 1 3.731 3.96 3.949 3.949 0 0 1-3.73 3.944Zm15.758 30.11a1.635 1.635 0 0 0-.163.18c-1.49 1.505-4.124 1.505-5.613 0a3.92 3.92 0 0 1-1.162-2.815c0-1.08.41-2.062 1.162-2.815l.18-.163a3.94 3.94 0 0 1 5.433.18c1.489 1.489 1.57 3.878.163 5.432Zm32.45 10.308v.099A3.98 3.98 0 0 1 54 102.454c-2.193 0-3.976-1.784-3.976-4.026.016-.065.016-.13.016-.196a3.953 3.953 0 0 1 3.96-3.73c2.111 0 3.846 1.635 3.977 3.877ZM85.45 81.477c.933 0 1.882.327 2.618.998.033.033.147.147.18.163a3.947 3.947 0 0 1 1.162 2.815c0 1.064-.409 2.062-1.162 2.815a3.91 3.91 0 0 1-2.798 1.161 3.897 3.897 0 0 1-2.814-1.178l-.164-.18a3.942 3.942 0 0 1 .163-5.433 4.02 4.02 0 0 1 2.815-1.161Zm12.977-23.499c-.066-.016-.132-.016-.197-.032a3.953 3.953 0 0 1-3.73-3.96c0-2.095 1.635-3.846 3.73-3.96.066 0 .18 0 .246-.017a3.98 3.98 0 0 1 3.976 3.977c0 2.209-1.784 3.992-4.026 3.992Z" stroke="#03A9F4" stroke-width=".4" mask="url(#a)"/><path d="M54 84c16.569 0 30-13.431 30-30 0-16.569-13.431-30-30-30-16.569 0-30 13.431-30 30 0 16.569 13.431 30 30 30Z" fill="#fff" stroke="#00AEEF" stroke-width="2" stroke-miterlimit="10" stroke-linecap="round" stroke-linejoin="round"/><path d="m64.138 55.119.053-.084h.001l.002.001.006.005.026.016.1.064a173.709 173.709 0 0 1 1.54 1.002c.9.594 1.932 1.29 2.447 1.694.225.176.457.344.688.512l.171.125c.286.21.567.42.822.64.509.44.925.93 1.074 1.554.042.177.04.447.01.747a8.18 8.18 0 0 1-.167.992 7.17 7.17 0 0 1-.282.95c-.102.264-.219.492-.346.614l-.011.017-.054.078c-.048.069-.12.169-.215.296-.19.254-.477.617-.862 1.052-.771.87-1.937 2.032-3.518 3.2-1.6 1.18-3.78 1.535-5.758 1.504-1.979-.03-3.777-.447-4.626-.827-2.912-1.305-6.802-4.155-9.754-7.169-2.952-3.014-5.334-6.57-6.611-9.54-.775-1.802-1.078-4.106-.943-6.21.134-2.1.706-4.029 1.707-5.06l.007-.008 4.526-3.797c.117-.13.317-.246.56-.34.251-.097.557-.173.89-.214.664-.082 1.448-.023 2.114.317 1.55.791 2.479 2.09 3.246 3.16.142.2.28.392.413.57l-.08.06.08-.06c.398.53.852 1.304 1.24 2.078.389.773.715 1.555.852 2.1.058.229-.019.511-.147.792-.13.285-.325.59-.53.875a10.37 10.37 0 0 1-.997 1.182l-.006.007-.027.033-.102.122c-.086.104-.209.25-.35.414-.28.328-.639.734-.948 1.048a.487.487 0 0 0-.004.127c.009.095.037.228.098.389.12.32.363.747.807 1.2l2.04 2.082.509.521.127.13.032.033.008.008h.001l2.527 2.334.001.001.003.003.011.01.044.04a34.461 34.461 0 0 0 .666.579c.192.162.394.327.568.46.087.066.167.123.234.168a.926.926 0 0 0 .15.085.07.07 0 0 0 .02-.003.346.346 0 0 0 .08-.034c.07-.04.157-.105.26-.194.206-.178.462-.439.738-.736.228-.245.47-.515.707-.78.334-.372.659-.735.924-1.005.247-.253.58-.374.93-.42.35-.045.725-.014 1.066.044a6.47 6.47 0 0 1 1.223.343l.02.008.005.002h.001l-.037.093Zm0 0 .053-.084-.007-.005-.008-.003-.038.092ZM46.29 40.682l.042.052c.073.09.182.228.326.411.288.368.715.924 1.274 1.677.914 1.232 1.438 2.257 1.62 2.752-.722.677-1.65 1.55-2.251 2.161-.438.444-.864 1.267-.498 2.67.448 1.712 2.073 4.11 4.333 6.418 2.26 2.307 4.608 3.967 6.287 4.425l.027-.097-.027.096c.685.187 1.231.173 1.662.054.431-.118.742-.34.957-.562a92.394 92.394 0 0 0 2.115-2.297c.486.186 1.487.721 2.69 1.653.735.567 1.252 1.06 1.6 1.453.308.346.48.608.554.768l-3.423 3.13c-.798.729-2.035 1.06-3.327 1.098-1.29.037-2.614-.22-3.574-.65-2.68-1.202-5.691-3.428-8.475-6.27-2.784-2.842-4.963-5.916-6.14-8.654-.42-.979-.625-2.281-.54-3.548.085-1.266.457-2.482 1.173-3.3l3.595-3.44Z" fill="#00AEEF" stroke="#00AEEF" stroke-width=".2"/></svg>