<svg width="70" height="70" fill="none" xmlns="http://www.w3.org/2000/svg"><path d="M67.348 42.548c-.633-1.057-3.23-4.195-10.075-.209l-12.034 7.01a6.626 6.626 0 0 1-1.792.73 4.73 4.73 0 0 0 .524-1.242c.619-2.309-.753-4.72-3.124-5.488a1.147 1.147 0 0 0-.143-.036c-3.456-.623-6.869-1.857-9.61-2.848a87.97 87.97 0 0 0-2.619-.919c-3.092-1.003-5.883.237-8.205 1.583L11.342 46.3l-.634-1.12a2.869 2.869 0 0 0-3.906-1.083L3.426 46.01a2.869 2.869 0 0 0-1.082 3.905l9.926 17.539a2.886 2.886 0 0 0 2.502 1.454 2.84 2.84 0 0 0 1.403-.372l3.376-1.91a2.845 2.845 0 0 0 1.348-1.73 2.845 2.845 0 0 0-.265-2.176l-1.21-2.136 2.01-1.16 15.402 4.127a9.9 9.9 0 0 0 2.568.35c1.671 0 3.269-.464 4.773-1.39l21.837-13.447c2.002-1.232 2.638-4.338 1.334-6.515ZM18.79 64.31a.672.672 0 0 1-.317.41l-3.377 1.91a.673.673 0 0 1-.514.062.673.673 0 0 1-.41-.317l-9.926-17.54a.687.687 0 0 1 .257-.923l3.376-1.911a.686.686 0 0 1 .924.256l9.926 17.539c.088.156.11.338.061.514Zm46.076-17.11L43.03 60.648c-1.726 1.062-3.62 1.328-5.628.789l-15.84-4.244a1.094 1.094 0 0 0-.83.109l-2.385 1.377-5.928-10.474 8.947-5.183c2.001-1.16 4.165-2.131 6.434-1.395.73.237 1.574.542 2.55.895 2.798 1.011 6.277 2.27 9.886 2.93 1.244.435 1.94 1.636 1.622 2.82-.412 1.537-1.71 1.727-2.742 1.608-1.877-.377-3.582-.86-5.366-1.367-.8-.227-1.626-.461-2.496-.694a1.094 1.094 0 0 0-.566 2.113c.854.229 1.673.461 2.465.686 1.84.521 3.598 1.02 5.563 1.413a40.268 40.268 0 0 0 1.536.277c2.245.36 4.236.009 6.088-1.07l12.033-7.008c3.45-2.01 6.104-2.218 7.098-.558.684 1.142.38 2.923-.604 3.529ZM8.648 49.016a1.206 1.206 0 1 1-2.386.349 1.206 1.206 0 0 1 2.386-.349Zm5.454-10.624h15.1a1.094 1.094 0 0 0 1.041.756H50.22a1.094 1.094 0 0 0 1.04-.756h15.101a1.094 1.094 0 0 0 1.088-1.21 11.106 11.106 0 0 0-7.098-9.213 6.161 6.161 0 0 0 2.195-4.715 6.18 6.18 0 0 0-6.173-6.173 6.18 6.18 0 0 0-6.173 6.173c0 1.89.855 3.584 2.198 4.717a11.13 11.13 0 0 0-4.45 3.12 11.119 11.119 0 0 0-3.738-2.366 6.16 6.16 0 0 0 2.195-4.715 6.18 6.18 0 0 0-6.173-6.173 6.18 6.18 0 0 0-6.174 6.173c0 1.889.854 3.581 2.195 4.715a11.116 11.116 0 0 0-3.738 2.366 11.127 11.127 0 0 0-4.45-3.12 6.16 6.16 0 0 0 2.198-4.717 6.18 6.18 0 0 0-6.173-6.173 6.18 6.18 0 0 0-6.173 6.173c0 1.889.854 3.582 2.195 4.715a11.106 11.106 0 0 0-7.098 9.213 1.093 1.093 0 0 0 1.088 1.21Zm42.27-19.124a3.99 3.99 0 0 1 3.986 3.986 3.99 3.99 0 0 1-3.985 3.985 3.99 3.99 0 0 1-3.986-3.985 3.99 3.99 0 0 1 3.986-3.986Zm0 10.159c4.171 0 7.713 2.84 8.688 6.778H50.98a11.063 11.063 0 0 0-1.59-3.427 8.942 8.942 0 0 1 6.983-3.351Zm-16.14-9.403a3.99 3.99 0 0 1 3.985 3.986 3.99 3.99 0 0 1-3.986 3.985 3.99 3.99 0 0 1-3.985-3.985 3.99 3.99 0 0 1 3.985-3.986Zm0 10.159c4.17 0 7.712 2.84 8.687 6.778H31.544a8.932 8.932 0 0 1 8.687-6.778Zm-20.128-6.93a3.99 3.99 0 0 1 3.986-3.985 3.99 3.99 0 0 1 3.986 3.986 3.99 3.99 0 0 1-3.986 3.985 3.99 3.99 0 0 1-3.986-3.985Zm3.986 6.174c2.733 0 5.29 1.24 6.983 3.351a11.06 11.06 0 0 0-1.59 3.427h-14.08a8.931 8.931 0 0 1 8.687-6.778ZM16.78 8.275l2.978 2.393-1.002 3.686a1.403 1.403 0 0 0 .533 1.515c.479.348 1.109.363 1.605.039l3.196-2.092 3.196 2.092a1.41 1.41 0 0 0 1.605-.04c.48-.348.689-.942.533-1.514l-1.002-3.686L31.4 8.275c.461-.372.641-.976.458-1.54a1.403 1.403 0 0 0-1.275-.974l-3.816-.186-1.355-3.571a1.403 1.403 0 0 0-1.322-.91c-.593 0-1.112.357-1.322.91l-1.355 3.571-3.816.186a1.403 1.403 0 0 0-1.276.975 1.403 1.403 0 0 0 .46 1.539Zm5.246-.54a1.414 1.414 0 0 0 1.252-.91l.812-2.139.812 2.14c.2.524.691.882 1.253.91l2.286.11-1.784 1.434c-.438.352-.626.93-.478 1.473l.6 2.208-1.914-1.253a1.413 1.413 0 0 0-1.55 0l-1.914 1.253.6-2.208a1.413 1.413 0 0 0-.478-1.473L19.74 7.847l2.287-.112Zm10.896.54 2.977 2.393-1.002 3.686a1.403 1.403 0 0 0 .533 1.514c.48.349 1.11.364 1.605.04l3.196-2.092 3.197 2.092c.237.155.506.233.774.233.29 0 .581-.091.83-.273.48-.348.689-.942.534-1.514l-1.003-3.686 2.978-2.393c.462-.372.642-.976.459-1.54a1.403 1.403 0 0 0-1.276-.974l-3.815-.186-1.356-3.571a1.402 1.402 0 0 0-1.322-.91c-.593 0-1.111.357-1.321.91l-1.356 3.571-3.816.186a1.403 1.403 0 0 0-1.275.975 1.404 1.404 0 0 0 .459 1.539Zm5.244-.54a1.413 1.413 0 0 0 1.253-.91l.812-2.14.813 2.14c.2.526.691.883 1.252.91l2.286.112-1.784 1.433c-.438.352-.626.93-.478 1.473l.6 2.208-1.914-1.253a1.411 1.411 0 0 0-1.549 0l-1.914 1.253.6-2.208a1.413 1.413 0 0 0-.479-1.473l-1.783-1.433 2.285-.112Zm10.897.54 2.977 2.393-1.002 3.686a1.403 1.403 0 0 0 .533 1.514 1.41 1.41 0 0 0 1.605.04l3.196-2.092 3.197 2.092c.495.324 1.125.309 1.605-.04.479-.348.688-.942.533-1.514l-1.002-3.686 2.977-2.393c.462-.372.642-.976.459-1.539a1.403 1.403 0 0 0-1.276-.975l-3.815-.186-1.356-3.571a1.403 1.403 0 0 0-1.321-.91c-.593 0-1.112.357-1.322.91l-1.356 3.571-3.815.186a1.403 1.403 0 0 0-1.276.975 1.403 1.403 0 0 0 .459 1.539Zm5.245-.54a1.414 1.414 0 0 0 1.252-.91l.813-2.14.812 2.14c.2.525.69.883 1.253.91l2.285.112L58.94 9.28c-.439.352-.626.93-.479 1.473l.6 2.208-1.914-1.253a1.412 1.412 0 0 0-1.548 0l-1.915 1.253.6-2.208a1.413 1.413 0 0 0-.478-1.473l-1.784-1.433 2.286-.112Z" fill="#03A9F4"/></svg>