<svg width="70" height="70" fill="none" xmlns="http://www.w3.org/2000/svg"><path d="M2.188 68.906H35a1.094 1.094 0 0 0 1.094-1.094V35A1.094 1.094 0 0 0 35 33.906H2.187A1.094 1.094 0 0 0 1.095 35v32.813a1.094 1.094 0 0 0 1.093 1.093Zm13.124-32.812h6.563v8.072l-2.79-1.39a1.092 1.092 0 0 0-.983 0l-2.79 1.39v-8.072Zm-12.03 0h9.843v9.843a1.094 1.094 0 0 0 1.586.974l3.883-1.936 3.883 1.936a1.093 1.093 0 0 0 1.071-.044 1.093 1.093 0 0 0 .515-.93v-9.843h9.843v30.625H3.281V36.094Z" fill="#03A9F4"/><path d="m67.013 33.195-1.99-.656a24.433 24.433 0 0 0 0-6.016l1.98-.656a2.001 2.001 0 0 0 1.3-2.526l-1.695-5.185a2.001 2.001 0 0 0-2.526-1.301l-2.002.656a24.448 24.448 0 0 0-3.522-4.878l1.225-1.695a2.012 2.012 0 0 0-.437-2.811L54.97 4.933a1.936 1.936 0 0 0-1.477-.372 2.013 2.013 0 0 0-1.334.798l-1.269 1.696a24.467 24.467 0 0 0-5.742-1.86v-2.1a2.002 2.002 0 0 0-2.002-2.001H37.68a2.002 2.002 0 0 0-2.002 2.001v2.1a24.631 24.631 0 0 0-5.742 1.86L28.71 5.359a2.013 2.013 0 0 0-1.367-.798 1.936 1.936 0 0 0-1.466.36L21.48 8.128a2.013 2.013 0 0 0-.437 2.81l1.225 1.696a24.88 24.88 0 0 0-3.522 4.867l-2.013-.656a1.992 1.992 0 0 0-2.515 1.301l-1.695 5.207a2.012 2.012 0 0 0 1.29 2.515l1.99.656c-.118.999-.18 2.003-.185 3.008v1.16l2.187-.132v-1.028c.007-.961.069-1.922.186-2.876a2.001 2.001 0 0 0-1.356-2.188l-1.98-.623 1.586-4.857 1.98.646a2.046 2.046 0 0 0 2.373-.952 23.15 23.15 0 0 1 3.358-4.648 1.969 1.969 0 0 0 .186-2.56l-1.17-1.63 4.134-2.985 1.225 1.684a1.991 1.991 0 0 0 2.483.602 22.291 22.291 0 0 1 5.469-1.772 2.002 2.002 0 0 0 1.63-1.969V3.281h5.096v2.067a2.034 2.034 0 0 0 1.652 1.97c1.892.35 3.73.946 5.469 1.771a2.034 2.034 0 0 0 2.504-.612l1.214-1.674 4.124 3.04-1.214 1.674a1.99 1.99 0 0 0 .12 2.516c1.33 1.4 2.466 2.97 3.38 4.67a2.023 2.023 0 0 0 2.373.93l1.969-.645 1.575 4.856-1.958.634a2.012 2.012 0 0 0-1.378 2.188c.123.95.185 1.907.186 2.865a22.978 22.978 0 0 1-.186 2.877 1.99 1.99 0 0 0 1.367 2.187l1.969.646-1.586 4.856-1.98-.645a2.013 2.013 0 0 0-2.373.951 21.71 21.71 0 0 1-3.358 4.627l1.597 1.498a23.998 23.998 0 0 0 3.61-4.965l2.012.656a1.989 1.989 0 0 0 2.515-1.29l1.696-5.207a1.992 1.992 0 0 0-1.29-2.527Z" fill="#03A9F4"/><path d="M40.469 12.031a17.5 17.5 0 0 1 14.798 26.764l1.849 1.16A19.687 19.687 0 1 0 20.78 29.53v1.16l2.188-.132v-1.028a17.5 17.5 0 0 1 17.5-17.5Z" fill="#03A9F4"/><path d="M41.29 27.344h-1.642a1.258 1.258 0 0 1-1.367-1.094h-2.187a3.401 3.401 0 0 0 3.281 3.281v1.094h2.188v-1.094a3.401 3.401 0 0 0 3.28-3.281 3.435 3.435 0 0 0-3.554-3.281h-1.64a1.258 1.258 0 0 1-1.368-1.094 1.258 1.258 0 0 1 1.367-1.094h1.641a1.27 1.27 0 0 1 1.367 1.094h2.188a3.402 3.402 0 0 0-3.282-3.281V17.5h-2.187v1.094a3.401 3.401 0 0 0-3.281 3.281 3.434 3.434 0 0 0 3.554 3.281h1.641a1.27 1.27 0 0 1 1.367 1.094 1.269 1.269 0 0 1-1.367 1.094ZM51.406 38.281h-6.562a1.094 1.094 0 0 0-1.094 1.094v14.219h-2.188a1.094 1.094 0 0 0-.874 1.75l6.562 8.75a1.094 1.094 0 0 0 1.75 0l6.563-8.75a1.093 1.093 0 0 0-.876-1.75H52.5V39.375a1.093 1.093 0 0 0-1.094-1.094Zm-3.281 23.33-4.375-5.83h1.094a1.094 1.094 0 0 0 1.093-1.093v-14.22h4.376v14.22a1.093 1.093 0 0 0 1.093 1.093H52.5l-4.375 5.83Z" fill="#03A9F4"/></svg>