<svg width="71" height="70" fill="none" xmlns="http://www.w3.org/2000/svg"><path d="M46.87 67.174H5.928a4.77 4.77 0 0 1-4.765-4.765V7.82A4.77 4.77 0 0 1 5.93 3.057h40.94a4.77 4.77 0 0 1 4.765 4.764v25.91a.778.778 0 0 1-1.556 0V7.82c0-1.77-1.438-3.209-3.209-3.209H5.93a3.212 3.212 0 0 0-3.21 3.21v54.587c0 1.77 1.44 3.209 3.21 3.209h40.94c1.77 0 3.21-1.439 3.21-3.21v-3.443a.778.778 0 0 1 1.555 0v3.444a4.77 4.77 0 0 1-4.765 4.765Z" fill="#03A9F4"/><path d="M35.368 11.856H12.981a.778.778 0 0 1 0-1.555h22.387a.778.778 0 0 1 0 1.555ZM35.368 17.684H12.981a.778.778 0 0 1 0-1.555h22.387a.778.778 0 0 1 0 1.555ZM35.368 23.51H12.981a.778.778 0 0 1 0-1.555h22.387a.778.778 0 0 1 0 1.556ZM35.368 29.337H12.981a.778.778 0 0 1 0-1.556h22.387a.778.778 0 0 1 0 1.556ZM9.418 11.856H6.735a.778.778 0 0 1 0-1.555h2.683a.778.778 0 0 1 0 1.555ZM9.418 17.684H6.735a.778.778 0 0 1 0-1.555h2.683a.778.778 0 0 1 0 1.555ZM9.418 23.51H6.735a.778.778 0 0 1 0-1.555h2.683a.778.778 0 0 1 0 1.556ZM9.418 29.337H6.735a.778.778 0 0 1 0-1.556h2.683a.778.778 0 0 1 0 1.556ZM11.643 59.93a.778.778 0 0 1-.778-.778V42.679H7.513v16.473a.778.778 0 0 1-1.556 0V41.9c0-.43.348-.778.778-.778h4.906c.43 0 .778.349.778.778v17.25a.776.776 0 0 1-.776.779Z" fill="#03A9F4"/><path d="M34.873 59.929H6.735a.778.778 0 0 1 0-1.556h28.137a.778.778 0 0 1 .001 1.556Z" fill="#03A9F4"/><path d="M19.385 59.93a.778.778 0 0 1-.778-.778V39.995h-3.352v19.157a.778.778 0 0 1-1.556 0V39.217c0-.43.349-.777.778-.777h4.906c.43 0 .778.348.778.777v19.935a.776.776 0 0 1-.776.777ZM27.13 59.93a.778.778 0 0 1-.778-.778V36.895H23v22.257a.778.778 0 0 1-1.556 0V36.118c0-.43.349-.778.778-.778h4.906c.43 0 .778.348.778.778v23.034c0 .43-.348.778-.778.778ZM34.873 59.93a.778.778 0 0 1-.778-.778v-25.84h-3.352v25.84a.778.778 0 0 1-1.555 0V32.534c0-.43.348-.778.777-.778h4.906c.43 0 .778.348.778.778v26.618a.776.776 0 0 1-.776.778ZM35.37 23.51a.778.778 0 0 1-.591-1.283l8.69-10.188a.778.778 0 0 1 1.184 1.01l-8.69 10.188a.773.773 0 0 1-.592.274Zm18.171-5.131a.775.775 0 0 1-.488-.173l-6.593-5.324a.778.778 0 0 1 .977-1.21l6.593 5.324a.778.778 0 0 1-.489 1.383Zm3.015-.15a.778.778 0 0 1-.548-1.332l5.681-5.616a.778.778 0 0 1 1.094 1.106l-5.681 5.616a.769.769 0 0 1-.546.225Z" fill="#03A9F4"/><path d="M45.373 13.806a2.806 2.806 0 0 1-2.803-2.801 2.805 2.805 0 0 1 2.803-2.802 2.805 2.805 0 0 1 2.802 2.802 2.805 2.805 0 0 1-2.802 2.801Zm0-4.049c-.687 0-1.247.559-1.247 1.246a1.248 1.248 0 0 0 2.493 0c0-.686-.558-1.246-1.246-1.246ZM55.114 21.675a2.805 2.805 0 0 1-2.801-2.801 2.805 2.805 0 0 1 2.801-2.802 2.805 2.805 0 0 1 2.802 2.802 2.804 2.804 0 0 1-2.802 2.801Zm0-4.049c-.688 0-1.246.56-1.246 1.246 0 .686.56 1.246 1.246 1.246.686 0 1.246-.56 1.246-1.246 0-.686-.558-1.246-1.246-1.246ZM65.103 13.813a4.82 4.82 0 0 1-4.814-4.815 4.82 4.82 0 0 1 4.814-4.814 4.82 4.82 0 0 1 4.815 4.814 4.82 4.82 0 0 1-4.815 4.815Zm0-8.074a3.263 3.263 0 0 0-3.258 3.259 3.263 3.263 0 0 0 3.258 3.259 3.263 3.263 0 0 0 3.26-3.259 3.263 3.263 0 0 0-3.26-3.259ZM53.042 59.929c-7.488 0-13.581-6.093-13.581-13.582 0-7.488 6.093-13.581 13.581-13.581 7.489 0 13.582 6.093 13.582 13.581 0 7.489-6.093 13.582-13.581 13.582Zm0-25.608c-6.63 0-12.026 5.395-12.026 12.026s5.395 12.026 12.026 12.026c6.632 0 12.026-5.395 12.026-12.026s-5.394-12.026-12.026-12.026Z" fill="#03A9F4"/><path d="M53.042 53.412a7.073 7.073 0 0 1-7.065-7.065 7.072 7.072 0 0 1 7.065-7.066 7.072 7.072 0 0 1 7.065 7.066 7.073 7.073 0 0 1-7.065 7.065Zm0-12.574a5.516 5.516 0 0 0-5.51 5.51 5.516 5.516 0 0 0 5.51 5.51 5.516 5.516 0 0 0 5.51-5.51 5.516 5.516 0 0 0-5.51-5.51Z" fill="#03A9F4"/><path d="M53.043 40.837a.778.778 0 0 1-.777-.777v-6.517a.778.778 0 0 1 1.555 0v6.517c0 .429-.348.777-.778.777ZM59.114 45.498a.778.778 0 0 1-.201-1.53l6.295-1.686a.777.777 0 1 1 .402 1.503l-6.296 1.686a.8.8 0 0 1-.2.027ZM59.443 58.213c-.27 0-.53-.14-.674-.39l-3.258-5.643a.778.778 0 0 1 1.347-.777l3.259 5.643a.778.778 0 0 1-.674 1.167ZM43.99 56.18a.778.778 0 0 1-.55-1.327l4.606-4.608a.778.778 0 0 1 1.1 1.1l-4.608 4.607a.775.775 0 0 1-.549.227ZM47.596 43.982a.775.775 0 0 1-.388-.104l-5.643-3.259a.778.778 0 0 1 .778-1.347l5.643 3.26a.778.778 0 0 1-.39 1.45Z" fill="#03A9F4"/></svg>