<svg width="71" height="70" fill="none" xmlns="http://www.w3.org/2000/svg"><g clip-path="url(#a)" fill="#03A9F4"><path d="M65.038 49.644c.566 0 1.025-.46 1.025-1.026V13.836c0-.263-.103-.528-.3-.726L52.953.3a1.033 1.033 0 0 0-.725-.3H21.099a4.124 4.124 0 0 0-4.12 4.12v2.316h-2.315a4.124 4.124 0 0 0-4.12 4.12v7.01a1.025 1.025 0 0 0 2.05 0v-7.01c0-1.141.929-2.07 2.07-2.07h2.316v18.965h-4.385v-5.1a1.025 1.025 0 0 0-2.051 0v5.1H7.815a2.885 2.885 0 0 0-2.881 2.882v14.84a2.885 2.885 0 0 0 2.881 2.881h2.73V65.88A4.124 4.124 0 0 0 14.663 70h40.844a4.124 4.124 0 0 0 4.12-4.12v-2.316h2.315a4.124 4.124 0 0 0 4.12-4.12v-6.04a1.025 1.025 0 0 0-2.05 0v6.04c0 1.141-.929 2.07-2.07 2.07H21.1a2.071 2.071 0 0 1-2.07-2.07v-11.39h4.102v6.067a2.395 2.395 0 0 0 2.393 2.393h31.993a2.395 2.395 0 0 0 2.393-2.393V14.861h4.101v33.757c0 .567.46 1.026 1.026 1.026ZM54.85 12.754a2.071 2.071 0 0 1-1.598-2.013v-7.24l9.31 9.31c-7.548 0-7.319.02-7.712-.057ZM19.031 4.12c0-1.141.928-2.07 2.069-2.07h30.102v8.691c0 .582.122 1.136.34 1.639H25.526a2.395 2.395 0 0 0-2.393 2.392v12.68H19.03V4.12Zm17.728 43.934h5.002a2.9 2.9 0 0 0 2.763-2.061h1.76v3.21h-9.525v-1.149Zm5.002-20.603H36.76v-2.5h9.525v3.21h-2.63a2.91 2.91 0 0 0-1.893-.71Zm-16.578 0v-2.5h9.525v2.5h-9.525Zm11.576-13.02h9.525v3.209h-9.525v-3.21Zm21.1 13.73h-9.524v-3.21h9.525v3.21Zm0 5.26h-9.524v-3.21h9.525v3.21Zm0 5.26h-9.524v-3.209h9.525v3.21Zm0 5.261h-9.524v-3.21h9.525v3.21ZM25.184 19.691h9.525v3.21h-9.525v-3.21Zm11.576 0h9.525v3.21h-9.525v-3.21Zm7.884 15.781h1.641v3.21h-1.64v-3.21Zm1.641-2.05h-1.64v-3.089l-.003-.121h1.643v3.21Zm-1.64 7.31h1.64v3.21h-1.64v-3.21ZM34.707 17.64h-9.525v-2.868c0-.188.153-.342.342-.342h9.183v3.21Zm13.627 28.353h9.525v3.21h-9.525v-3.21ZM57.86 22.9h-9.525v-3.21h9.525v3.21ZM6.984 45.172V30.333c0-.458.373-.831.831-.831h33.946c.452 0 .831.37.831.831v14.84a.832.832 0 0 1-.83.83H7.814a.832.832 0 0 1-.83-.83ZM21.1 63.564h36.477v2.316c0 1.141-.928 2.07-2.069 2.07H14.664a2.071 2.071 0 0 1-2.07-2.07V48.054h4.386v11.39a4.124 4.124 0 0 0 4.12 4.12Zm13.61-15.51v1.149h-9.526v-1.149h9.525Zm-9.526 6.067v-2.868h9.525v3.21h-9.183a.342.342 0 0 1-.342-.342Zm11.576-2.868h9.525v3.21h-9.525v-3.21Zm21.1 2.868a.342.342 0 0 1-.34.342h-9.184v-3.21h9.525v2.868Zm0-39.259v2.778h-9.524v-3.21h5.148c1.023.528 1.863.444 4.377.432Z"/><path d="M23.153 43.154c.218.037 2.18.021 3.26.015a1.025 1.025 0 0 0-.006-2.05H26.4l-2.05.007v-7.773a1.025 1.025 0 0 0-2.05 0v8.79c0 .5.36.927.852 1.011ZM34.037 43.177c1.818 0 3.344-1.158 3.629-2.752.213-1.197-.334-2.762-2.51-3.565a46.973 46.973 0 0 1-2.409-.974c-.444-.346-.34-1.159.502-1.412 1.279-.385 2.456.546 2.49.573a1.025 1.025 0 0 0 1.314-1.574c-.082-.069-2.031-1.676-4.396-.963-1.186.357-2.026 1.291-2.19 2.438-.19 1.32.61 2.44 1.356 2.772.051.023 1.26.561 2.623 1.064.403.148 1.327.57 1.2 1.28-.093.522-.72 1.062-1.61 1.062-.894 0-1.757-.362-2.306-.968a1.026 1.026 0 0 0-1.52 1.378c.932 1.027 2.362 1.64 3.827 1.64ZM11.676 42.742l2.48-3.52 2.476 3.52a1.026 1.026 0 0 0 1.678-1.18l-2.9-4.122 2.464-3.496a1.026 1.026 0 0 0-1.677-1.18l-2.04 2.895-2.036-2.895a1.025 1.025 0 0 0-1.678 1.18l2.46 3.495L10 41.562a1.025 1.025 0 1 0 1.676 1.18Z"/></g><defs><clipPath id="a"><path fill="#fff" transform="translate(.5)" d="M0 0h70v70H0z"/></clipPath></defs></svg>