<svg width="71" height="71" fill="none" xmlns="http://www.w3.org/2000/svg"><path d="M27.85 43.822v-.001l-5.995-6.656.186-.168a.555.555 0 0 1 .041-.783l5.768 7.608Zm0 0a.806.806 0 0 0 1.136.057.804.804 0 0 0 .059-1.136l-5.994-6.656a.803.803 0 0 0-1.137-.058l5.936 7.793ZM10.29 31.078a3.027 3.027 0 0 0 3.023 3.024.805.805 0 0 0 0-1.61c-.78 0-1.415-.634-1.415-1.414a.805.805 0 0 0-1.609 0Z" fill="#03A9F4" stroke="#03A9F4" stroke-width=".5"/><path d="M13.313 34.102h44.374a.805.805 0 0 0 0-1.61H13.313a.805.805 0 0 0 0 1.61ZM10.29 31.078a.805.805 0 0 0 1.608 0V28.86a.805.805 0 0 0-1.609 0v2.22Z" fill="#03A9F4" stroke="#03A9F4" stroke-width=".5"/><path d="M10.29 28.86a.805.805 0 0 0 1.608 0c0-.78.635-1.415 1.415-1.415a.805.805 0 0 0 0-1.61 3.027 3.027 0 0 0-3.024 3.024Z" fill="#03A9F4" stroke="#03A9F4" stroke-width=".5"/><path d="M13.313 27.445h44.374a.805.805 0 0 0 0-1.61H13.313a.805.805 0 0 0 0 1.61Z" fill="#03A9F4" stroke="#03A9F4" stroke-width=".5"/><path d="M59.102 28.86a.805.805 0 0 0 1.609 0 3.026 3.026 0 0 0-3.023-3.024.805.805 0 0 0 0 1.61c.779 0 1.414.634 1.414 1.413Z" fill="#03A9F4" stroke="#03A9F4" stroke-width=".5"/><path d="M59.102 31.078a.805.805 0 0 0 1.609 0V28.86a.805.805 0 0 0-1.61 0v2.22Z" fill="#03A9F4" stroke="#03A9F4" stroke-width=".5"/><path d="M56.883 33.297c0 .444.36.805.804.805a3.026 3.026 0 0 0 3.024-3.024.805.805 0 0 0-1.61 0c0 .78-.634 1.414-1.413 1.414a.805.805 0 0 0-.805.805ZM16.39 26.64a.805.805 0 0 0 1.61 0V15.548a.805.805 0 0 0-1.61 0V26.64ZM23.047 26.64a.805.805 0 0 0 1.61 0V15.548a.805.805 0 0 0-1.61 0V26.64ZM33.031 26.64a.805.805 0 0 0 1.61 0V9.061a.805.805 0 0 0-1.61 0V26.64ZM26.375 26.64a.805.805 0 0 0 1.61 0V9.061a.805.805 0 0 0-1.61 0V26.64ZM43.016 26.638a.805.805 0 0 0 1.609 0v-12.81a.805.805 0 0 0-1.61 0v12.81ZM36.36 26.638a.805.805 0 0 0 1.609 0v-12.81a.805.805 0 0 0-1.61 0v12.81ZM53 26.643a.805.805 0 1 0 1.61-.002v-20a.805.805 0 0 0-1.61 0v20.002ZM46.344 26.643a.805.805 0 1 0 1.61-.002v-20a.805.805 0 0 0-1.61 0v20.002ZM29.356 50.467l-14.977-16.63a.805.805 0 0 1 1.196-1.078l-.186.167.186-.167 13.78 17.708Zm0 0a.806.806 0 0 0 .598.265l-.598-.265Zm1.195-1.079-.186.168.186-.167Zm-.227.951.168.186.001-.002-.169-.184Z" fill="#03A9F4" stroke="#03A9F4" stroke-width=".5"/><path d="m56.395 32.886.168-.185c.33.297.357.806.058 1.136l-14.977 16.63a.803.803 0 0 1-1.136.057.803.803 0 0 1-.058-1.135v-.001l14.976-16.629a.801.801 0 0 1 1.138-.057l-.169.184Zm0 0a.553.553 0 0 1 .04.784l-.04-.784ZM47.148 7.445h6.657a.805.805 0 0 0 0-1.61h-6.657a.805.805 0 0 0 0 1.61ZM37.164 14.633h6.656a.805.805 0 0 0 0-1.61h-6.656a.805.805 0 0 0 0 1.61ZM27.18 9.867h6.656a.805.805 0 0 0 0-1.61H27.18a.805.805 0 0 0 0 1.61ZM17.195 16.352h6.657a.805.805 0 0 0 0-1.61h-6.657a.805.805 0 0 0 0 1.61ZM29.148 64.363a.805.805 0 0 0 1.61 0V49.93a.805.805 0 0 0-1.61 0v14.433Z" fill="#03A9F4" stroke="#03A9F4" stroke-width=".5"/><path d="M40.242 58.193a.805.805 0 0 0 1.61 0V49.93a.805.805 0 0 0-1.61 0v8.263Z" fill="#03A9F4" stroke="#03A9F4" stroke-width=".5"/><path d="M29.25 64.755v.001l.974.092.121.218 11.094-6.169a.804.804 0 1 0-.783-1.405L29.562 63.66a.805.805 0 0 0-.312 1.094Z" fill="#03A9F4" stroke="#03A9F4" stroke-width=".5"/></svg>