<svg width="71" height="70" fill="none" xmlns="http://www.w3.org/2000/svg"><path d="M62.345 54.12a.97.97 0 0 0 .018-.186V3.143A3.149 3.149 0 0 0 59.22 0H11.777a3.148 3.148 0 0 0-3.144 3.145v63.71A3.149 3.149 0 0 0 11.777 70H46.3a.981.981 0 0 0 .676-.28l15.108-15.108c.13-.137.22-.306.262-.491ZM10.547 66.855V3.143a1.232 1.232 0 0 1 1.23-1.23H59.22a1.232 1.232 0 0 1 1.23 1.23v49.834H49.58a4.243 4.243 0 0 0-4.238 4.238v10.87H11.777a1.231 1.231 0 0 1-1.23-1.231Zm36.709-.123v-9.516a2.327 2.327 0 0 1 2.324-2.324h9.516l-11.84 11.84Z" fill="#03A9F4"/><path d="M33.926 26.39H57.03a.957.957 0 1 0 0-1.914h-.675V13.744a.957.957 0 0 0-.957-.957h-3.828a.957.957 0 0 0-.957.957v10.732H48.35V10.598a.957.957 0 0 0-.957-.957h-3.828a.957.957 0 0 0-.958.957v13.878h-2.264v-6.521a.956.956 0 0 0-.957-.957h-3.828a.957.957 0 0 0-.957.957v6.521h-.675a.957.957 0 1 0 0 1.914ZM52.528 14.7h1.914v9.776h-1.914v-9.775Zm-8.006-3.145h1.913v12.921h-1.913V11.555Zm-8.007 7.357h1.914v5.564h-1.914v-5.564ZM21.384 48.813a8.32 8.32 0 0 0 5.921-2.453 8.375 8.375 0 1 0-5.92 2.453Zm6.459-8.375a6.41 6.41 0 0 1-1.265 3.843l-4.238-4.239v-5.994a6.47 6.47 0 0 1 5.503 6.39Zm-7.416-6.39v6.39a.957.957 0 0 0 .28.677l4.519 4.52a6.462 6.462 0 1 1-4.799-11.587ZM13.965 11.898H29.55a.957.957 0 1 0 0-1.914H13.965a.957.957 0 0 0 0 1.914ZM15.809 14.43a.957.957 0 1 0 0 1.914h11.894a.957.957 0 0 0 0-1.914H15.81ZM13.965 20.79H29.55a.957.957 0 0 0 0-1.915H13.965a.957.957 0 1 0 0 1.914ZM15.809 23.32a.957.957 0 1 0 0 1.914h11.894a.957.957 0 0 0 0-1.914H15.81ZM33.781 33.64H57.03a.957.957 0 1 0 0-1.913H33.781a.957.957 0 1 0 0 1.914ZM35.629 36.172a.957.957 0 1 0 0 1.914h19.557a.957.957 0 1 0 0-1.914H35.629ZM33.781 42.54H57.03a.957.957 0 0 0 0-1.915H33.781a.957.957 0 1 0 0 1.914ZM55.186 45.07H35.629a.957.957 0 1 0 0 1.914h19.557a.957.957 0 0 0 0-1.914ZM41.946 54.066a.957.957 0 0 0-.957-.957H15.004a.957.957 0 1 0 0 1.914h25.985a.957.957 0 0 0 .957-.957ZM16.848 57.555a.957.957 0 1 0 0 1.914H39.14a.957.957 0 0 0 0-1.914H16.848ZM40.989 62H15.004a.957.957 0 1 0 0 1.914h25.985a.957.957 0 0 0 0-1.914Z" fill="#03A9F4"/></svg>