<svg width="80" height="80" fill="none" xmlns="http://www.w3.org/2000/svg"><path d="m53.01 37.107-.347.346a1.184 1.184 0 1 0 1.675 1.675l2.368-2.368a1.185 1.185 0 0 0 0-1.675l-2.368-2.368a1.184 1.184 0 1 0-1.675 1.675l.347.346H40.271a3.57 3.57 0 0 0-2.165-2.164V24.57l.347.347a1.184 1.184 0 0 0 1.675-1.675l-2.368-2.368a1.184 1.184 0 0 0-1.675 0l-2.368 2.368a1.184 1.184 0 1 0 1.674 1.675l.347-.347v8.003a3.553 3.553 0 1 0 4.533 4.533h12.74Zm-16.088 0a1.184 1.184 0 1 1 0-2.369 1.184 1.184 0 0 1 0 2.369Z" fill="#03A9F4"/><path d="M67.348 45.77a31.947 31.947 0 1 0-20.58 20.578 15.393 15.393 0 1 0 20.58-20.579ZM36.922 65.526c-16.324 0-29.604-13.28-29.604-29.605 0-16.323 13.28-29.604 29.604-29.604 16.324 0 29.605 13.28 29.605 29.605a29.55 29.55 0 0 1-1.384 8.971c-.76-.234-1.536-.409-2.322-.522a27.152 27.152 0 0 0 1.337-8.45c0-15.017-12.218-27.236-27.236-27.236S9.686 20.904 9.686 35.922c0 15.019 12.218 27.236 27.236 27.236 2.87.005 5.722-.447 8.45-1.336.113.786.288 1.562.522 2.32a29.554 29.554 0 0 1-8.972 1.385Zm8.292-6.153a24.686 24.686 0 0 1-7.108 1.389v-1.157a1.184 1.184 0 1 0-2.368 0v1.155a24.772 24.772 0 0 1-15.535-6.445l.81-.81a1.185 1.185 0 1 0-1.675-1.674l-.81.81a24.772 24.772 0 0 1-6.445-15.535h1.156a1.184 1.184 0 0 0 0-2.369h-1.156a24.773 24.773 0 0 1 6.446-15.534l.977.977a1.183 1.183 0 1 0 1.674-1.675l-.977-.977a24.772 24.772 0 0 1 15.535-6.445v1.155a1.184 1.184 0 0 0 2.368 0v-1.155a24.773 24.773 0 0 1 15.535 6.445l-.81.81a1.184 1.184 0 0 0 1.675 1.674l.81-.81a24.773 24.773 0 0 1 6.445 15.535h-1.155a1.185 1.185 0 0 0 0 2.369h1.156a24.707 24.707 0 0 1-1.39 7.108 15.411 15.411 0 0 0-15.158 15.159Zm15.392 13.258a13.026 13.026 0 1 1 13.026-13.026 13.04 13.04 0 0 1-13.026 13.026Z" fill="#03A9F4"/><path d="M67.254 53.935a1.184 1.184 0 0 0-1.662.207l-7.466 9.599-2.604-2.604a1.184 1.184 0 1 0-1.674 1.674l3.552 3.553a1.185 1.185 0 0 0 .837.347c.025 0 .05 0 .075-.002a1.184 1.184 0 0 0 .86-.455l8.29-10.658a1.184 1.184 0 0 0-.208-1.661Z" fill="#03A9F4"/></svg>