<svg width="80" height="80" fill="none" xmlns="http://www.w3.org/2000/svg"><path d="M18.154 24.464a6.497 6.497 0 0 0-1.954 4.458c-.102 3.68.812 7.746 2.717 12.086 3.447 7.852 9.723 14.265 17.67 18.058 5.222 2.493 9.932 3.837 13.998 3.998a6.808 6.808 0 0 0 5.008-1.926l2.148-2.118c2.023-1.995 2.023-5.324 0-7.319l-4.846-4.78c-2.046-2.017-5.375-2.018-7.421 0l-2.94 2.9-.083-.039c-6.692-3.08-9.53-5.879-12.655-12.48l-.04-.084 2.94-2.899a5.13 5.13 0 0 0 0-7.318l-4.847-4.78c-2.046-2.018-5.375-2.018-7.42 0l-2.275 2.243Zm5.985-.984c.623 0 1.247.234 1.722.702l4.846 4.78c.95.936.95 2.46 0 3.396l-3.62 3.57c-.397.392-.52.979-.311 1.494.006.016.16.396.472 1.054 3.419 7.221 6.693 10.45 14.014 13.82.665.306 1.05.457 1.066.464a1.42 1.42 0 0 0 1.515-.308l3.62-3.57c.938-.926 2.505-.926 3.443 0l4.847 4.78a2.4 2.4 0 0 1 0 3.396l-2.148 2.12a3.933 3.933 0 0 1-2.908 1.115c-3.677-.145-8.012-1.398-12.884-3.723-7.342-3.504-13.136-9.422-16.315-16.664-1.742-3.966-2.578-7.636-2.487-10.908a3.752 3.752 0 0 1 1.131-2.574l2.274-2.242a2.446 2.446 0 0 1 1.723-.702ZM7.944 31.033c1.707-6.31 5.262-11.92 10.279-16.224a33.744 33.744 0 0 1 2.324-1.82c.629-.449.769-1.316.313-1.936a1.419 1.419 0 0 0-1.964-.308c-.88.63-1.727 1.293-2.519 1.972-5.442 4.668-9.297 10.755-11.15 17.601a35.031 35.031 0 0 0 .554 20.223c.238.718 1.045 1.122 1.774.887a1.383 1.383 0 0 0 .9-1.749 32.3 32.3 0 0 1-.51-18.646Z" fill="#03A9F4"/><path d="M72.445 27.573a1.383 1.383 0 0 0-.9 1.748 32.3 32.3 0 0 1 .51 18.647c-3.82 14.119-17.186 24.26-32.006 24.259-9.117 0-17.946-3.731-24.196-10.284h4.524c.776 0 1.406-.62 1.406-1.386 0-.766-.63-1.387-1.407-1.387h-7.59c-.776 0-1.405.62-1.405 1.386v7.484c0 .766.63 1.387 1.406 1.387.776 0 1.406-.621 1.406-1.387v-3.795C20.947 71.113 30.358 75 40.053 75c16.079 0 30.575-11 34.72-26.317a35.032 35.032 0 0 0-.555-20.223 1.41 1.41 0 0 0-1.773-.887ZM67.83 17.487v-7.484c0-.766-.63-1.387-1.406-1.387-.776 0-1.406.62-1.406 1.387v3.976a35.937 35.937 0 0 0-14.905-8.55 36.567 36.567 0 0 0-19.696-.153 1.384 1.384 0 0 0-.983 1.705c.206.739.981 1.173 1.73.969a33.718 33.718 0 0 1 18.162.14 33.12 33.12 0 0 1 13.87 8.01h-4.36c-.777 0-1.406.622-1.406 1.387 0 .766.63 1.387 1.406 1.387h7.588c.777 0 1.406-.62 1.406-1.387ZM41.864 34.615c2.022 0 3.667 1.622 3.667 3.616 0 .766.63 1.387 1.406 1.387.777 0 1.406-.621 1.406-1.387 0-3.523-2.906-6.39-6.479-6.39-.776 0-1.405.622-1.405 1.387 0 .766.629 1.387 1.405 1.387Z" fill="#03A9F4"/><path d="M41.864 27.867c5.795 0 10.51 4.65 10.51 10.364 0 .766.63 1.387 1.406 1.387.776 0 1.406-.621 1.406-1.387 0-7.244-5.976-13.138-13.322-13.138-.776 0-1.405.621-1.405 1.387s.629 1.387 1.405 1.387Z" fill="#03A9F4"/><path d="M61.489 38.231c0-10.91-9.001-19.787-20.064-19.787-.777 0-1.406.62-1.406 1.386 0 .766.63 1.387 1.406 1.387 9.512 0 17.252 7.633 17.252 17.014 0 .766.63 1.387 1.406 1.387.776 0 1.406-.621 1.406-1.387ZM23.656 9.307a1.425 1.425 0 0 0 1.835.75 1.392 1.392 0 0 0 .76-1.81c-.293-.699-1.126-1.04-1.834-.75a1.391 1.391 0 0 0-.76 1.81Z" fill="#03A9F4"/></svg>