<svg width="512" height="511" fill="none" xmlns="http://www.w3.org/2000/svg"><path d="M125.629 129.592C178.838 75.885 163.596 42.228 200 17.347 256.074-20.9 360.679 12.02 422.394 64.674c75.588 64.427 114.587 182.123 70.173 288.597-47.327 113.376-171.803 172.252-282.88 154.513-99.19-15.839-196.696-94.205-206.469-188.189-1.057-10.191-5.734-65.256 27.044-112.737 27.143-39.238 53.142-34.69 95.367-77.266Z" fill="#CCEDFB"/><path d="M299.202 365.614c87.222-56.578 111.752-173.63 54.79-261.444C297.031 16.356 180.147-8.967 92.925 47.611c-87.222 56.578-111.752 173.63-54.79 261.444 56.961 87.814 173.845 113.136 261.067 56.559Z" fill="#fff"/><path d="M71.805 81.516c-.03 1.383 3.989 3.356 7.824.867 3.835-2.49 5.341-4.376 9.65-1.23 4.309 3.148 11.266 18.76 16.841 22.46 5.575 3.7 11.506 4.425 12.502-.338.995-4.764-4.303-12.293-2.072-16.491 2.232-4.198 10.044-20.228 6.509-27.08-3.534-6.854-11.143-8.778-23.171-2.81-12.029 5.968-27.88 14.432-28.083 24.622Z" fill="#CCEDFB"/><path d="M113.133 257.565a5.335 5.335 0 0 0 .117 5.852c3.755 5.237 10.209 20.16 8.224 27.554-2.527 9.41 6.103 17.824 8.605 21.863 5.052 8.205 8.254 11.241 20.405 8.838 12.152-2.403 16.079-4.628 21.802 2.637 5.722 7.265 26.195 36.374 34.069 42.244 7.873 5.87 22.084 14.481 27.185 15.292 5.102.811 13.645-2.459 1.899-10.381-11.745-7.923-17.947-11.224-16.552-20.812 1.396-9.588 1.144-29.552-1.69-35.489-2.833-5.937-1.702-11.242.738-13.737 2.44-2.496 7.265-8.371 7.799-11.463.535-3.092-6.589-6.245-10.793-10.375-4.204-4.13-6.085-7.032.351-16.687 6.435-9.656-4.96-17.825-18.993-12.834-14.032 4.991-25.501 3.737-28.039-3.301-2.539-7.037-11.771-.141-19.367.67-7.597.812-10.382-3.847-18.151-1.887-10.516 2.649-15.433 8.298-17.609 12.016ZM308.274 130.03c-5.335-2.318-9.176-8.98-8.156-22.164.799-10.357-11.284-12.354-16.509-12.736a1.061 1.061 0 0 1-.927-1.364c.06-.202.18-.382.343-.516 4.02-3.307 15.034-8.365 34.082 11.303 24.634 25.44 20.393 13.743 21.223 8.39.83-5.354-8.943-7.991-7.523-18.243.897-6.447-1.229-13.645-3.46-19.158a189.655 189.655 0 0 0-152.59-49.945c3.356 5.034 13.608 23.51-11.678 29.564 0 0-16.755 2.194 2.329 24.978 19.085 22.785 12.373-10.448 13.731-12.76 1.359-2.31 5.87-7.178 14.291 10.96 0 0 3.399 5.986-7.696 11.74-11.094 5.752-9.834 12.151-8.064 14.861 1.771 2.711 7.376 9.177 4.961 17.972-2.416 8.795 7.836 20.928 12.723 11.5 4.886-9.429 1.229-26.829 7.449-32.766 6.22-5.938 18.525-.941 23.725-7.683 5.2-6.743-5.317-16.307-1.949-18.489 3.369-2.181 14.838 0 17.124 5.747 2.287 5.747-6.607 14.887.043 19.245 6.651 4.357 11.064-1.396 15.366 1.579 4.303 2.975-2.704 14.26-14.087 14.432-11.383.172-7.892 8.494-14.137 7.72-6.245-.775-11.199-7.665-15.366-1.58s-4.474 13.018-9.68 21.211c-5.206 8.193-8.415 16.534-5.335 21.285 3.079 4.751 9.072 8.082 12.563 16.417 3.491 8.334 14.333 30.197 35.938 10.406 21.604-19.792 26.712-5.286 27.591-3.934.878 1.352 11.979 19.207 16.312 20.726 4.333 1.518 15.421 6.84 15.169 23.393-.252 16.552 19.478 40.35 24.352 32.372 4.874-7.977 3.368-25.814 7.72-38.242 4.352-12.428-2.649-49.823-13.639-55.698-10.99-5.876-3.688-21.199-5.98-28.391-2.293-7.191-4.93-9.809-10.259-12.132ZM10.691 168.548c3.805 5.532 8.193 13.436 8.304 21.549.332 24.475 6.325 32.933 16.54 51.015 10.215 18.083 54.168 33.086 62.257 32.41 8.088-.676 4.044-8.931.08-15.046-3.965-6.116-11.291-11.783-19.41-16.595-8.12-4.813-11.064-9.3-11.87-12.908-.805-3.608 2.791-7.296 7.493-6.226 4.702 1.069 13.153-.768 15.243-4.696 2.563-4.825-4.647-12.52-5.114-16.337-.467-3.817 6.042-10.774 5.255-18.955-.786-8.181 2.828-14.18 7.302-21.199 4.475-7.019 9.312-11.936 9.115-14.524-.196-2.588-4.523-6.208-6.103-12.502-1.58-6.294-1.31-15.157-4.739-16.595-3.43-1.438-11.444-2.176-17.148 10.67-5.704 12.846-8.181 14.45-14.137 11.451-5.956-2.999-8.095-19.453 4.26-27.444 12.354-7.99 12.292-13.478 10.786-16.595-1.506-3.116-7.492-3.823-12.145-1.72-4.653 2.101-3.897 4.793-17.37 22.655-8.985 11.936-21.512 16.626-27.824 19.103a204.205 204.205 0 0 0-10.775 32.489ZM365.133 137.632c-2.735 1.014 1.604 6.546-.885 9.675-2.49 3.128-2.772 5.593 1.844 10.946 4.616 5.354 8.297 13.959 7.025 18.962-1.272 5.003-4.401 10.055 0 17.431 4.401 7.375 2.286 18.623-.135 23.602-2.422 4.978-6.091 12.674-2.108 18.814 2.563 3.952 5.74 9.072 9.17 12.366a189.605 189.605 0 0 0-6.103-104.85c-3.209-3.522-7.247-7.524-8.808-6.946Z" fill="#95DBFA"/><path d="M201.535 412.496a.92.92 0 1 1-.031-1.844 208.815 208.815 0 0 0 49.897-7.928.921.921 0 0 1 1.058 1.338.93.93 0 0 1-.554.438 211.218 211.218 0 0 1-50.333 7.99l-.037.006ZM283.839 392.411a.922.922 0 0 1-.393-1.751 213.026 213.026 0 0 0 24.585-13.725 208.779 208.779 0 0 0 59.62-58.348.924.924 0 0 1 1.701.325.914.914 0 0 1-.177.708 210.642 210.642 0 0 1-60.136 58.864 215.415 215.415 0 0 1-24.788 13.841.888.888 0 0 1-.412.086ZM197.487 396.696c-2.828 0-5.659-.061-8.495-.184a.926.926 0 0 1-.882-.962.92.92 0 0 1 .962-.882 186.42 186.42 0 0 0 172.338-97.875.926.926 0 0 1 1.251-.378.926.926 0 0 1 .378 1.251 188.313 188.313 0 0 1-165.552 99.03ZM47.44 323.092a.925.925 0 0 1-.731-.356 197.782 197.782 0 0 1-9.349-13.184C9.677 266.89.162 216.047 10.562 166.428c10.4-49.62 39.466-92.097 81.875-119.578a188.328 188.328 0 0 1 158.644-21.795.924.924 0 1 1-.547 1.764A186.497 186.497 0 0 0 93.427 48.381C6.763 104.589-17.687 221.302 38.91 308.55a186.737 186.737 0 0 0 9.275 13.043.932.932 0 0 1-.166 1.296.92.92 0 0 1-.578.203Z" fill="#00AEEF"/><path d="M301.697 491.849a551.596 551.596 0 0 0-26.835-66.326l-104.433 20.505a389.882 389.882 0 0 0-22.409 45.821h153.677ZM206.759 178.381c11.629.547 22.815 13.602 18.537 31.304-3.491 14.456-18.672 16.072-26.656 22.6-25.815 21.106-40.13 97.389-76.707 113.947-29.177 13.209-85.687 2.022-107.783-37.038-21.014-37.142-19.053-86.362 11.777-104.273 27.732-16.103 47.413 20.99 76.54 6.485 28.692-14.291 30.056-29.337 46.817-35.901 18.003-7.069 24.512 1.334 57.475 2.876Z" fill="#353535"/><path d="M113.951 370.418s-18.63-46.829-7.652-56.712c.572-.517 7.99-1.273 15.587 5.673 7.167 6.564 14.555 20.836 14.555 20.836l2.458 32.33-24.948-2.127Z" fill="#95DBFA"/><path d="M255.661 285.42s7.265 1.561 12.969 10.375c11.389 17.591 28.992 49.576 57.161 54.352 42.281 7.173 67.893-44.254 64.26-55.791 0 0-6.072-8.064-16.048-10.498 0 0-.104-8.039 8.568-4.228 8.673 3.81 12.146 1.481 16.024.571 6.816-1.598 21.297-17.972 26.694-20.055 5.396-2.084 3.687 2.415 3.687 2.415s5.286-5.949 8.931-2.962l-7.769 10.264s6.282-8.304 9.926-4.136l-16.257 19.023 11.912-9.355s1.659 1.844-1.457 5.064c-3.116 3.221-15.777 20.898-27.904 20.898 0 0 6.533 97.414-66.381 101.366-62.693 3.399-88.188-47.155-88.188-47.155l3.872-70.148Z" fill="#fff"/><path d="M334.064 403.813c-29.472 0-50.001-12.133-62.288-22.692-14.192-12.201-20.762-25.004-20.817-25.108a.958.958 0 0 1-.099-.467l3.885-70.155a.92.92 0 0 1 .102-.381.922.922 0 0 1 .254-.301.94.94 0 0 1 .756-.166c.314.067 7.702 1.752 13.522 10.781 1.076 1.659 2.207 3.448 3.399 5.328 11.162 17.665 28.034 44.353 53.142 48.612 23.184 3.94 39.736-10.498 47.536-19.453 12.065-13.848 17.246-29.589 15.734-34.998-.805-1.008-6.57-7.873-15.433-10.03a.93.93 0 0 1-.701-.886c0-.153 0-3.687 2.502-5.378 1.77-1.174 4.247-1.075 7.375.289 6.921 3.037 10.246 2.041 13.461 1.07.645-.191 1.309-.394 1.979-.547 3.602-.848 9.834-6.411 15.366-11.322 4.659-4.143 8.685-7.726 11.205-8.697 2.163-.836 3.645-.817 4.53.061.265.268.459.598.565.959 2.059-1.696 5.581-3.78 8.464-1.419a.915.915 0 0 1 .147 1.266l-2.919 3.86a5.646 5.646 0 0 1 1.745-.375 4.103 4.103 0 0 1 3.295 1.487.928.928 0 0 1 0 1.229l-10.228 11.961 4.61-3.62a.93.93 0 0 1 1.229.104c.092.105 2.194 2.508-1.475 6.325-.449.467-1.137 1.285-2.01 2.323-4.991 5.938-15.212 18.095-25.593 18.821.301 7.209 1.174 53.584-23.043 80.935-11.156 12.594-26.054 19.478-44.285 20.467-1.991.078-3.962.117-5.912.117Zm-81.347-48.415c.909 1.703 7.375 13.307 20.319 24.407 12.834 11.008 34.85 23.768 66.885 22.035 17.72-.965 32.182-7.64 43.025-19.853 25.679-28.992 22.575-80.025 22.544-80.517a.914.914 0 0 1 .246-.695.922.922 0 0 1 .67-.288c9.834 0 20.572-12.754 25.151-18.2.891-1.063 1.592-1.899 2.09-2.415 1.229-1.279 1.586-2.232 1.635-2.871l-10.879 8.476a.92.92 0 0 1-1.272-1.328l15.673-18.334a2.087 2.087 0 0 0-1.229-.332c-2.459.086-5.643 3.589-6.663 4.917a.924.924 0 0 1-1.469-1.112l7.142-9.441c-2.901-1.094-6.841 3.27-6.884 3.319a.921.921 0 0 1-1.555-.934c.184-.504.295-1.353.055-1.586-.239-.234-.909-.289-2.569.35-2.206.854-6.306 4.499-10.639 8.353-5.962 5.304-12.121 10.787-16.177 11.74a27.51 27.51 0 0 0-1.875.522c-3.368 1.014-7.191 2.157-14.751-1.149-2.496-1.094-4.383-1.23-5.594-.443-1.21.787-1.518 2.25-1.635 3.129 9.73 2.686 15.563 10.313 15.815 10.645a.966.966 0 0 1 .141.277c2.023 6.416-4.075 23.159-16.054 36.915-7.123 8.168-21.309 20.756-41.125 20.756a48.482 48.482 0 0 1-8.113-.695c-25.92-4.394-43.025-31.506-54.396-49.441-1.186-1.881-2.311-3.688-3.386-5.316-4.149-6.417-9.189-8.851-11.34-9.65l-3.786 68.759Z" fill="#353535"/><path d="M415.373 277.375a.948.948 0 0 1-.651-.258.923.923 0 0 1 0-1.309l13.626-13.891a.923.923 0 1 1 1.316 1.291l-13.627 13.891a.935.935 0 0 1-.664.276ZM420.919 280.192a.932.932 0 0 1-.614-.264.923.923 0 0 1 0-1.303l9.219-9.41a.925.925 0 1 1 1.316 1.296l-9.22 9.404a.904.904 0 0 1-.701.277ZM396.613 295.309a.911.911 0 0 1-.778-.417.911.911 0 0 1-.064-.88c.172-.387 4.302-9.342 11.1-7.947 5.827 1.192 9.926-.301 9.969-.313a.923.923 0 0 1 .646 1.727c-.191.067-4.653 1.69-10.984.393-5.372-1.1-9.01 6.816-9.047 6.896a.917.917 0 0 1-.842.541Z" fill="#353535"/><path d="M116.189 319.282s-37.818 51.826-37.72 86.264c.098 34.439 27.825 25.342 27.825 25.342l30.117-90.671-20.222-20.935Z" fill="#fff"/><path d="M98.631 432.91c-3.688 0-8.131-.769-12.016-3.578-5.992-4.302-9.041-12.329-9.072-23.786-.098-34.34 36.344-84.685 37.892-86.811l.646-.885 21.401 22.127-30.467 91.636-.436.141a27.601 27.601 0 0 1-7.948 1.156Zm17.659-112.196c-4.96 7.013-36.995 53.541-36.878 84.82 0 10.83 2.82 18.334 8.31 22.293 6.797 4.917 15.802 2.864 17.867 2.298l29.816-89.681-19.115-19.73Z" fill="#353535"/><path d="M106.293 313.706s128.348-35.975 154.274-31.647l9.072 60.474 17.16 46.263a37.912 37.912 0 0 1-7.424 38.765c-10.701 11.678-28.483 24.063-56.338 25.323-54.088 2.459-80.388 15.76-83.253-8.137-2.864-23.897-6.275-81.225-6.275-81.225-8.636-22.809-19.158-49.158-27.216-49.816Z" fill="#00AEEF"/><path d="M189.506 278.979a216.563 216.563 0 0 1-2.385-7.376c5.126 1.844 10.418 1.93 13.46.074 3.75-2.286 4.26-6.478 5.581-11.531.553-2.108 1.033-4.56 3.104-6.761a11.27 11.27 0 0 1 3.583-2.532 3.272 3.272 0 0 0 1.74-3.964l-.449-.959a62.092 62.092 0 0 1-5.999-23.295l-.915-15.95c-8.87-3.073-12.017-2.323-13.141-.891-.412.529-1.045.897-.898 3.35.689 11.85-10.024 11.125-19.053 9.355-9.029-1.771-5.127 14.628-5.127 14.628s-5.869-6.896-11.739-.4c-4.204 4.653 4.72 11.543 10.111 15.077l-1.943 34.42a23.763 23.763 0 0 1-14.523 20.56l-12.643 5.31s52.115 1.475 88.255-19.121h-23.018a14.798 14.798 0 0 1-14.001-9.994Z" fill="#fff"/><path d="M140.267 309.065h-2.022a.929.929 0 0 1-.332-1.776l12.643-5.305a22.977 22.977 0 0 0 13.958-19.766l1.918-33.91c-4.88-3.245-10.578-7.892-11.131-12.163a4.836 4.836 0 0 1 1.285-4.014c1.88-2.084 3.964-3.122 6.232-3.073a8.769 8.769 0 0 1 4.8 1.678c-.498-3.399-.879-9.164 1.666-11.814 1.229-1.272 2.913-1.702 5.028-1.29 5.482 1.075 12.219 1.924 15.642-1.07 1.752-1.524 2.502-3.921 2.305-7.326-.135-2.336.375-3.135.965-3.817l.129-.154c1.807-2.311 6.306-2.126 14.167.584a.927.927 0 0 1 .615.818l.91 15.98a60.836 60.836 0 0 0 5.919 22.938l.442.928c.02.04.037.081.049.123a4.194 4.194 0 0 1-2.237 5.077 10.345 10.345 0 0 0-3.288 2.324c-1.727 1.844-2.237 3.86-2.735 5.802l-.154.584c-.184.707-.35 1.395-.516 2.065-1.033 4.216-1.924 7.855-5.477 10.018-2.919 1.783-7.615 1.973-12.538.56a265.065 265.065 0 0 0 1.844 5.673 13.883 13.883 0 0 0 13.128 9.398h23.025a.921.921 0 0 1 .454 1.721c-31.881 18.138-76.7 19.207-86.694 19.207Zm22.453-78.2c-1.672 0-3.276.836-4.764 2.458a3.048 3.048 0 0 0-.83 2.545c.369 2.846 4.303 6.915 10.763 11.143a.948.948 0 0 1 .412.824l-1.949 34.42a24.827 24.827 0 0 1-15.083 21.358l-8.433 3.584c12.975-.197 51.052-2.139 80.05-17.272h-19.385a15.72 15.72 0 0 1-14.874-10.645 225.578 225.578 0 0 1-2.397-7.419.932.932 0 0 1 .245-.94.92.92 0 0 1 .947-.197c4.917 1.77 9.92 1.844 12.674.154 2.901-1.764 3.688-4.917 4.646-8.882.166-.682.338-1.377.523-2.096l.147-.571c.529-2.066 1.125-4.413 3.178-6.602a12.145 12.145 0 0 1 3.872-2.747 2.338 2.338 0 0 0 1.229-2.79l-.411-.861a62.674 62.674 0 0 1-6.091-23.633l-.879-15.366c-8.464-2.833-10.861-1.843-11.531-.989l-.184.221c-.308.357-.615.719-.523 2.502.234 3.958-.75 6.927-2.925 8.826-4.032 3.522-11.316 2.649-17.21 1.493-1.481-.295-2.576-.043-3.344.756-2.458 2.551-1.34 10.068-.707 12.748a.918.918 0 0 1-1.077 1.116.918.918 0 0 1-.521-.305s-2.458-2.821-5.531-2.858l-.037.025Z" fill="#353535"/><path d="M187.094 272.513a.948.948 0 0 1-.265-.037c-10.11-2.981-14.849-16.484-15.046-17.056a.921.921 0 0 1 .255-.996.92.92 0 0 1 1.018-.146.943.943 0 0 1 .473.527c.043.136 4.634 13.178 13.823 15.889a.921.921 0 0 1-.258 1.807v.012Z" fill="#353535"/><path d="M172.014 266.922a20.562 20.562 0 0 1-18.538-11.678l-4.026-8.365a.919.919 0 0 1-.038-.706.918.918 0 0 1 .821-.616.916.916 0 0 1 .667.235c.09.081.163.178.216.288l4.013 8.353a18.72 18.72 0 0 0 22.127 9.889l19.736-5.728a.922.922 0 0 1 1.144.633.927.927 0 0 1-.633 1.143l-19.73 5.722c-1.872.546-3.81.825-5.759.83Z" fill="#00AEEF"/><path d="M150.947 225.433a.91.91 0 0 1-.647-.283.913.913 0 0 1-.257-.657c0-1.051.707-25.815 14.45-38.63 5.624-5.243 12.668-7.695 20.941-7.283a.916.916 0 0 1 .823.611.923.923 0 0 1-.915 1.232c-7.751-.381-14.34 1.9-19.589 6.761-13.171 12.293-13.86 37.075-13.866 37.321a.922.922 0 0 1-.94.928Z" fill="#CCEDFB"/><path d="M205.128 261.031c.387-2.94-1.728-5.643-4.722-6.036-2.994-.393-5.735 1.672-6.121 4.612-.386 2.941 1.728 5.643 4.723 6.037 2.994.393 5.734-1.672 6.12-4.613ZM165.216 238.05c1.045-8.267-4.247-15.741-11.825-16.699a46.483 46.483 0 0 0-4.721-.129c-6.576.442-9.963 5.998-10.891 13.356-1.008 7.935 2.016 15.366 9.115 16.761.289.055 2.391.227 2.698.227 8.304.025 14.579-5.255 15.624-13.516Z" fill="#00AEEF"/><path d="M161.942 237.781c.885-8.285-4.561-15.655-12.151-16.466-7.591-.811-14.469 5.249-15.366 13.522-.898 8.273 4.56 15.655 12.151 16.46 7.591.805 14.481-5.231 15.366-13.516Z" fill="#95DBFA"/><path d="M179.584 272.422c-1.481-2.92-8.691-6.945-14.247-7.265a.196.196 0 0 1-.19-.175.193.193 0 0 1 .147-.212c4.566-1.174 16.079-4.684 13.393-9.767-.984-1.875-10.529.043-14.42.787-3.89.744-15.476 11.936-17.652 20.32-2.176 8.383-2.035 23.085-4.794 27.794 0 0-57.358 80.83-62.693 98.993-5.335 18.162 2.366 40.99 27.148 38.765 37.001-3.313 41.894-93.234 48.348-132.46 0 0 2.304-7.96 4.523-10.572 2.219-2.612 14.137-8.605 14.217-13.928.067-4.056-6.927-8.248-10.308-10.037a.612.612 0 0 1 .246-1.149 16.095 16.095 0 0 1 7.892 1.5c4.979 2.403 10.031.657 8.39-2.594Z" fill="#fff"/><path d="M103.023 442.732c-8.359 0-15.194-2.988-19.92-8.734-6.282-7.653-8.187-19.964-4.843-31.347 5.28-18.046 60.111-95.471 62.779-99.233 1.462-2.532 2.102-8.549 2.716-14.37.498-4.665 1.008-9.49 1.967-13.159 2.2-8.458 13.762-20.099 18.365-20.984l.492-.092c10.08-1.943 13.989-1.998 14.923-.222a3.939 3.939 0 0 1 .16 3.541c-1.358 3.073-6.613 5.286-10.996 6.656 4.918 1.26 10.314 4.426 11.734 7.234a3.015 3.015 0 0 1-.43 3.651c-1.758 1.783-5.698 1.844-9.158.185a14.87 14.87 0 0 0-6.27-1.432c4.081 2.28 9.834 6.22 9.761 10.307-.074 4.087-5.802 8.175-10.406 11.402-1.758 1.229-3.417 2.391-4.026 3.104-1.703 2.003-3.688 7.99-4.302 10.178-1.015 6.202-2.016 13.823-3.074 21.887-2.852 21.752-6.404 48.821-13.134 70.714-7.991 26.03-18.784 39.306-32.957 40.566a43.182 43.182 0 0 1-3.381.148Zm73.007-187.643c-1.795 0-5.114.369-11.064 1.518l-.485.093c-3.614.688-14.844 11.592-16.933 19.631-.922 3.54-1.426 8.298-1.912 12.907-.67 6.319-1.303 12.293-2.981 15.139l-.043.068c-.572.805-57.327 80.91-62.54 98.716-3.177 10.836-1.407 22.484 4.5 29.675 4.917 6.011 12.434 8.746 21.684 7.916 30.388-2.722 38.833-67.099 44.42-109.694 1.063-8.101 2.071-15.759 3.073-22.004v-.104c.092-.332 2.391-8.181 4.708-10.91.763-.897 2.354-2.01 4.377-3.423 3.804-2.668 9.563-6.7 9.619-9.921.043-2.495-3.627-5.937-9.835-9.219a1.534 1.534 0 0 1-.785-1.675 1.526 1.526 0 0 1 1.4-1.208 17.014 17.014 0 0 1 8.347 1.592c3.012 1.463 5.999 1.229 7.037.178.246-.252.529-.682.105-1.518-1.334-2.637-8.242-6.46-13.479-6.761a1.11 1.11 0 0 1-1.066-1.003 1.116 1.116 0 0 1 .851-1.191c7.08-1.844 11.905-4.253 12.907-6.509a2.07 2.07 0 0 0-.098-1.936c-.154-.203-.676-.357-1.807-.357ZM388.521 58.098a.904.904 0 0 1-.553-.19C347.402 27.01 299.257 9.59 252.336 8.854a.921.921 0 1 1 0-1.844 218.13 218.13 0 0 1 71.052 13.325 247.9 247.9 0 0 1 65.692 36.11.92.92 0 0 1 .179 1.29.948.948 0 0 1-.738.363Z" fill="#353535"/><path d="M373.111 66.87a.914.914 0 0 1-.571-.203c-28.888-22.89-62.079-38.108-95.988-43.94a.933.933 0 0 1-.765-1.08.933.933 0 0 1 1.078-.765c34.242 5.913 67.721 21.236 96.818 44.316a.926.926 0 0 1 .154 1.297.947.947 0 0 1-.726.374ZM35.723 383.88a6.145 6.145 0 0 1-5.642-3.756 6.311 6.311 0 0 1 3.153-8.248 6.045 6.045 0 0 1 4.683-.123 6.146 6.146 0 0 1 3.442 3.337 6.32 6.32 0 0 1-3.153 8.255 6.058 6.058 0 0 1-2.483.535Zm0-10.695a4.135 4.135 0 0 0-1.727.375 4.47 4.47 0 0 0-2.219 5.839 4.353 4.353 0 0 0 2.416 2.348 4.213 4.213 0 0 0 3.264-.086 4.468 4.468 0 0 0 2.218-5.839 4.292 4.292 0 0 0-2.415-2.348 4.176 4.176 0 0 0-1.543-.289h.006ZM491.274 301.757a.92.92 0 0 1-.922-.922v-4.769a.92.92 0 0 1 .922-.922.919.919 0 0 1 .921.922v4.769a.921.921 0 0 1-.921.922ZM491.274 312.864a.92.92 0 0 1-.922-.922v-4.769a.921.921 0 1 1 1.843 0v4.769a.92.92 0 0 1-.921.922ZM488.101 304.923h-4.757a.921.921 0 1 1 0-1.844h4.769a.921.921 0 1 1 0 1.844h-.012ZM499.213 304.923h-4.764a.923.923 0 0 1 0-1.844h4.764a.923.923 0 0 1 0 1.844ZM55.242 399.301a.922.922 0 0 1-.922-.922v-4.77a.92.92 0 0 1 .922-.921.921.921 0 0 1 .922.921v4.77a.921.921 0 0 1-.922.922ZM55.242 410.407a.919.919 0 0 1-.91-.922v-4.769a.922.922 0 1 1 1.844 0v4.769a.92.92 0 0 1-.934.922ZM52.078 402.473h-4.77a.921.921 0 1 1 0-1.844h4.77a.921.921 0 1 1 0 1.844ZM63.184 402.473h-4.77a.921.921 0 1 1 0-1.844h4.77a.921.921 0 1 1 0 1.844Z" fill="#353535"/><path d="M504.541 483.242H7.3a4.917 4.917 0 0 0-4.917 4.917v15.981a4.917 4.917 0 0 0 4.917 4.917H504.54a4.918 4.918 0 0 0 4.917-4.917v-15.981a4.918 4.918 0 0 0-4.917-4.917Z" fill="#95DBFA"/><path d="M504.544 509.979H7.304a5.853 5.853 0 0 1-5.827-5.839v-15.981a5.851 5.851 0 0 1 5.839-5.839h497.24a5.849 5.849 0 0 1 5.839 5.839v15.981a5.84 5.84 0 0 1-3.614 5.396 5.837 5.837 0 0 1-2.237.443ZM7.304 484.164a4.004 4.004 0 0 0-3.984 3.995v15.981a4.001 4.001 0 0 0 3.996 3.995h497.24a4 4 0 0 0 3.995-3.995v-15.981a3.998 3.998 0 0 0-3.995-3.995H7.303Z" fill="#353535"/><path d="M366.716 375.588h132.853a4.353 4.353 0 0 1 4.375 3.341c.153.648.156 1.321.008 1.97l-15.981 91.089a6.61 6.61 0 0 1-6.244 5.31H348.879a4.33 4.33 0 0 1-4.376-5.31l15.98-91.089a6.601 6.601 0 0 1 6.233-5.311Z" fill="#95DBFA"/><path d="M371.887 375.121H504.74a4.332 4.332 0 0 1 3.501 1.575 4.331 4.331 0 0 1 .882 3.735l-15.981 91.083a6.597 6.597 0 0 1-6.238 5.311H354.05a4.354 4.354 0 0 1-3.498-1.577 4.353 4.353 0 0 1-.884-3.734l15.98-91.083a6.588 6.588 0 0 1 6.239-5.31ZM306.453 476.879h180.046c2.403 0 4.351 1.702 4.351 3.884s-1.948 3.891-4.351 3.891H306.453c-2.403 0-4.351-1.696-4.351-3.891 0-2.194 1.948-3.884 4.351-3.884Z" fill="#00AEEF"/><path d="M349.86 471.022h-.159a.926.926 0 0 1-.75-1.07l7-39.668a.936.936 0 0 1 1.844.319l-7.025 39.657a.925.925 0 0 1-.91.762ZM486.902 477.748h-2.668a.922.922 0 1 1 0-1.844h2.668a5.658 5.658 0 0 0 5.335-4.548l15.981-91.083a3.642 3.642 0 0 0-.72-3.03 3.503 3.503 0 0 0-2.753-1.199l-16.884.246a.907.907 0 0 1-.865-.555.898.898 0 0 1-.069-.355.906.906 0 0 1 .261-.655.917.917 0 0 1 .648-.279l16.897-.246a5.34 5.34 0 0 1 4.179 1.844 5.46 5.46 0 0 1 1.072 2.152 5.46 5.46 0 0 1 .041 2.403l-15.981 91.089a7.56 7.56 0 0 1-7.142 6.06ZM474.883 485.578h-168.41c-2.957 0-5.274-2.114-5.274-4.813 0-2.698 2.317-4.806 5.274-4.806h168.41a.921.921 0 1 1 0 1.844h-168.41c-1.924 0-3.43 1.303-3.43 2.962 0 1.66 1.506 2.969 3.43 2.969h168.41a.921.921 0 1 1 0 1.844Z" fill="#353535"/><path d="M306.779 173.919H280.35a8.322 8.322 0 0 0-7.566 4.917l-6.903 15.188-8.568-15.735a8.31 8.31 0 0 0-7.296-4.363h-24.278a8.377 8.377 0 0 1-8.297-8.452v-52.115a8.373 8.373 0 0 1 8.328-8.426h81.009a8.366 8.366 0 0 1 7.709 5.211 8.347 8.347 0 0 1 .619 3.209v52.121a8.376 8.376 0 0 1-8.328 8.445Z" fill="#fff"/><path d="M265.916 194.934a.905.905 0 0 1-.812-.48l-8.555-15.74a7.38 7.38 0 0 0-6.485-3.879h-24.278a9.315 9.315 0 0 1-8.574-5.792 9.292 9.292 0 0 1-.688-3.569v-52.115a9.303 9.303 0 0 1 9.256-9.348h81.003a9.124 9.124 0 0 1 6.546 2.741 9.323 9.323 0 0 1 2.704 6.601v52.121a9.346 9.346 0 0 1-2.704 6.608 9.165 9.165 0 0 1-6.546 2.741h-26.429a7.437 7.437 0 0 0-6.731 4.37l-6.871 15.206a.905.905 0 0 1-.327.382.91.91 0 0 1-.479.153h-.03Zm-40.136-89.079a7.46 7.46 0 0 0-7.406 7.504v52.115a7.468 7.468 0 0 0 7.406 7.505h24.278a9.218 9.218 0 0 1 8.101 4.843l7.689 14.137 6.147-13.522a9.27 9.27 0 0 1 8.408-5.452h26.429a7.316 7.316 0 0 0 5.231-2.194 7.514 7.514 0 0 0 2.175-5.31v-52.122a7.482 7.482 0 0 0-2.169-5.304 7.304 7.304 0 0 0-5.237-2.194l-81.052-.006Z" fill="#353535"/><path d="M237.496 126.623a.923.923 0 0 1 0-1.844l59.62-.154a.923.923 0 0 1 0 1.844l-59.62.154ZM237.496 140.435a.923.923 0 0 1 0-1.844l43.185-.111a.923.923 0 0 1 0 1.844l-43.185.111ZM237.496 154.585a.923.923 0 0 1 0-1.844l59.884-.147a.921.921 0 1 1 0 1.844l-59.884.147Z" fill="#353535"/><path d="M414.588 136.395c15.913 0 28.814-13.049 28.814-29.146s-12.901-29.146-28.814-29.146c-15.914 0-28.815 13.049-28.815 29.146s12.901 29.146 28.815 29.146Z" fill="#fff"/><path d="M414.537 137.325a29.324 29.324 0 0 1-18.796-6.81 29.951 29.951 0 0 1-10.738-20.455c-1.536-16.503 10.498-31.193 26.823-32.742a29.314 29.314 0 0 1 21.623 6.675 29.969 29.969 0 0 1 10.762 20.455c1.531 16.503-10.504 31.193-26.829 32.742-.965.092-1.905.135-2.845.135Zm-27.69-27.431a28.104 28.104 0 0 0 10.105 19.201 27.494 27.494 0 0 0 20.283 6.263c15.31-1.456 26.601-15.243 25.163-30.732a28.103 28.103 0 0 0-10.105-19.2 27.491 27.491 0 0 0-20.283-6.264c-15.329 1.444-26.632 15.23-25.163 30.732Z" fill="#353535"/><path d="m427.917 119.716-4.105-5.151a2.277 2.277 0 0 0-.729-.543 2.284 2.284 0 0 0-.882-.219h-.688c-.624.02-1.24.158-1.813.405-1.617.677-4.235.701-7.659-5.304-3.423-6.005-2.108-8.248-.731-9.342a6.212 6.212 0 0 0 1.481-1.74l.154-.258a2.38 2.38 0 0 0 .154-1.788l-2.361-6.177a1.226 1.226 0 0 0-1.327-.757l-1.518.283a5.672 5.672 0 0 0-3.301 1.881c-3.596 4.241-2.993 12.741 1.844 21.186 4.837 8.446 11.826 13.246 17.259 12.189a5.656 5.656 0 0 0 3.202-1.918l1.02-1.229a1.231 1.231 0 0 0 0-1.518Z" fill="#00AEEF"/><path d="M474.986 268.117c15.707 0 28.439-12.881 28.439-28.771s-12.732-28.771-28.439-28.771c-15.706 0-28.439 12.881-28.439 28.771s12.733 28.771 28.439 28.771Z" fill="#fff"/><path d="M474.949 269.04a29 29 0 0 1-18.562-6.724 29.585 29.585 0 0 1-10.621-20.197c-1.512-16.3 10.369-30.806 26.485-32.336a28.992 28.992 0 0 1 21.353 6.595 29.59 29.59 0 0 1 10.645 20.197c1.512 16.3-10.369 30.805-26.485 32.33-.958.092-1.893.135-2.815.135Zm.093-57.542c-.867 0-1.74.043-2.619.123-15.101 1.432-26.239 15.04-24.825 30.326a27.759 27.759 0 0 0 9.969 18.949 27.132 27.132 0 0 0 19.995 6.177c15.107-1.414 26.245-15.04 24.843-30.301a27.757 27.757 0 0 0-9.969-18.95 27.14 27.14 0 0 0-17.394-6.324Z" fill="#353535"/><path d="m488.432 220.398-4.143 4.518a1.373 1.373 0 0 0-.344 1.186l.381 2.207a1.406 1.406 0 0 0 1.266 1.161l2.225.191a1.397 1.397 0 0 0 1.156-.455l4.142-4.511a1.086 1.086 0 0 1 1.136-.299 1.08 1.08 0 0 1 .739.913 8.11 8.11 0 0 1-2.114 6.313c-2.981 3.245-7.56 3.159-10.683.295-3.122-2.864-3.608-7.425-.614-10.67a8.08 8.08 0 0 1 6.103-2.649 1.089 1.089 0 0 1 1.01 1.26 1.08 1.08 0 0 1-.26.54Z" fill="#95DBFA"/><path d="m459.991 251.586-.713.78c-1.229 1.334-1.488 3.074-.615 3.91l1.07.983c.903.83 2.624.412 3.847-.922l.713-.774c.049-.056.099-.105.142-.16l20.16-23.971-2.33-2.139-22.127 22.158-.147.135Zm1.137.934c.922-1.002 2.157-1.377 2.753-.83.597.547.332 1.807-.614 2.815-.947 1.008-2.151 1.377-2.748.83-.596-.547-.313-1.807.609-2.815Z" fill="#95DBFA"/><path d="m480.871 242.207-1.623 1.413-14.689-17.185 1.278-1.119 15.034 16.891Z" fill="#353535"/><path d="m477.602 237.627-2.459 2.132a1.12 1.12 0 0 0-.129 1.549l12.391 15.133a2.621 2.621 0 0 0 1.804.953 2.608 2.608 0 0 0 1.939-.634l1.15-1.002a2.627 2.627 0 0 0 .893-1.836 2.619 2.619 0 0 0-.697-1.919l-13.337-14.321a1.121 1.121 0 0 0-1.555-.055Z" fill="#00AEEF"/><path d="m460.688 219.894-.805.7a.574.574 0 0 0-.184.676l1.426 2.828a.428.428 0 0 0 .116.141l3.227 2.459a.579.579 0 0 0 .713-.074l.848-.744a.567.567 0 0 0 .166-.707l-2.083-3.454a.465.465 0 0 0-.117-.129l-2.612-1.801a.613.613 0 0 0-.695.105Z" fill="#353535"/><path d="M458.049 197.855c15.706 0 28.439-12.882 28.439-28.771 0-15.89-12.733-28.772-28.439-28.772-15.707 0-28.44 12.882-28.44 28.772 0 15.889 12.733 28.771 28.44 28.771Z" fill="#00AEEF"/><path d="M445.277 180.79a.923.923 0 0 1-.904-.756l-4.468-24.862-3.467-.16a.928.928 0 0 1-.879-.965.898.898 0 0 1 .295-.645.89.89 0 0 1 .67-.234l4.204.197a.924.924 0 0 1 .861.762l4.456 24.801 25.077-.566 6.761-16.823a.921.921 0 0 1 1.202-.513.925.925 0 0 1 .513 1.202l-6.994 17.382a.917.917 0 0 1-.836.571l-26.467.615-.024-.006Z" fill="#fff"/><path d="M442.461 163.207a.921.921 0 1 1 0-1.844l36.264-.399a.922.922 0 1 1 0 1.844l-36.264.399ZM443.5 169.601a.923.923 0 0 1 0-1.844l31.721-.4a.937.937 0 0 1 .935.91.935.935 0 0 1-.262.656.914.914 0 0 1-.648.278l-31.721.4h-.025ZM444.543 175.199a.923.923 0 0 1-.652-1.573.923.923 0 0 1 .652-.27l28.673-.4a.923.923 0 0 1 0 1.844l-28.673.399ZM453.422 185.222a2.606 2.606 0 1 1-2.599-2.397 2.507 2.507 0 0 1 2.599 2.397ZM470.004 185.222a2.606 2.606 0 1 1-2.599-2.397 2.507 2.507 0 0 1 2.599 2.397Z" fill="#fff"/><path d="M453.288 179.194a.93.93 0 0 1-.916-.8l-2.188-15.98a.934.934 0 0 1 .796-1.048.933.933 0 0 1 1.048.796l2.195 15.98a.932.932 0 0 1-.787 1.039l-.148.013ZM462.613 179.994h-.05a.923.923 0 0 1-.866-.971l.909-16.595a.927.927 0 0 1 .975-.87.922.922 0 0 1 .869.974l-.916 16.595a.923.923 0 0 1-.921.867Z" fill="#fff"/></svg>