<svg width="70" height="70" fill="none" xmlns="http://www.w3.org/2000/svg"><mask id="a" style="mask-type:luminance" maskUnits="userSpaceOnUse" x="0" y="0" width="70" height="70"><path d="M0 0h70v70H0V0Z" fill="#fff"/></mask><g mask="url(#a)" stroke="#00AEEF" stroke-width="2.5" stroke-miterlimit="10" stroke-linecap="round" stroke-linejoin="round"><path d="M48.348 35.413a2.733 2.733 0 0 1-.274-2.08c1.193-4.45-1.458-9.042-5.909-10.235a2.74 2.74 0 0 1 1.419-5.295c7.37 1.975 11.76 9.578 9.785 16.95a2.74 2.74 0 0 1-5.02.66Z"/><path d="M59.067 38.285a2.733 2.733 0 0 1-.274-2.08c2.776-10.362-3.395-21.05-13.757-23.827a2.74 2.74 0 1 1 1.419-5.295c13.281 3.559 21.192 17.26 17.633 30.541a2.74 2.74 0 0 1-5.021.661ZM18.612 50.255l4.593 7.956c5.754 9.966 18.497 13.38 28.463 7.627l1.892-1.092a5.214 5.214 0 0 0 1.908-7.122l-5.335-9.24a5.214 5.214 0 0 0-7.122-1.91l-5.567 3.215a2.5 2.5 0 0 1-3.416-.916L21.495 27.066a2.5 2.5 0 0 1 .915-3.416l5.567-3.214a5.214 5.214 0 0 0 1.909-7.122l-5.392-9.34a5.214 5.214 0 0 0-7.122-1.907L15.48 3.158C5.514 8.912 2.1 21.656 7.854 31.621L12.46 39.6M22.41 23.65 12.258 6.067M37.445 49.69l10.051 17.408"/></g></svg>