<svg width="70" height="70" fill="none" xmlns="http://www.w3.org/2000/svg"><path d="M59.883 27.625a.957.957 0 0 1-.957-.957v-5.75a.957.957 0 1 1 1.914 0v5.75a.957.957 0 0 1-.957.957Zm-20.645-14.34v3.28a.957.957 0 0 1-.957.958h-.699l-4.787 6.6-.58 10.427a.956.956 0 0 1-.53.804l-3.642 1.81a.957.957 0 0 1-1.382-.813l-.566-12.216-4.795-6.612h-.7a.957.957 0 0 1-.958-.957v-3.281a.957.957 0 0 1 .957-.957h17.682a.957.957 0 0 1 .957.957Zm-17.682 2.324h15.768v-1.367H21.556v1.367Zm13.662 1.914H23.664l4.148 5.72c.11.15.173.33.181.517l.512 11.035 1.83-.908.563-10.153a.953.953 0 0 1 .18-.508l4.14-5.703Zm10.241 2.438h-7.178a.957.957 0 0 0 0 1.914h7.178a.957.957 0 1 0 0-1.914Zm0 4.526h-7.178a.957.957 0 1 0 0 1.914h7.178a.957.957 0 1 0 0-1.914Zm0 4.526h-7.178a.957.957 0 1 0 0 1.914h7.178a.957.957 0 0 0 0-1.914Zm0 4.526h-7.178a.957.957 0 0 0 0 1.914h7.178a.957.957 0 1 0 0-1.914ZM67.402 3.555v46.227a.955.955 0 0 1-.957.957h-27.33l1.411 8.292a7.525 7.525 0 0 1 6.316 7.414.957.957 0 0 1-.957.957H24.117a.957.957 0 0 1-.957-.957 7.446 7.446 0 0 1 .807-3.39.957.957 0 0 1 1.708.864 5.514 5.514 0 0 0-.52 1.57h19.691a5.615 5.615 0 0 0-5.523-4.648H30.68a5.57 5.57 0 0 0-2.231.462.957.957 0 1 1-.766-1.756 7.462 7.462 0 0 1 1.79-.515l1.412-8.292H3.555a.96.96 0 0 1-.957-.957V3.555a.957.957 0 0 1 .957-.957l45.676-.091c.253 0 .59.314.769.493.18.18 1 .5 1 .5s-2.32-.18-2.5 0c-.18.18.984 1.012.73 1.012H4.513v44.313h60.976V4.511H48c-.254 0-.572-.101-.751-.28-.18-.18-.249-.478-.249-.732s.07-.543.249-.722c.18-.18.497-.278.751-.278l18.445.098a.957.957 0 0 1 .957.957Zm-28.836 55.37-1.394-8.186h-4.344l-1.394 8.187h7.132ZM6.836 33.594c-.126 0-.22.359-.336.407-.116.048-.252.175-.34.264-.09.09.047.12 0 .236-.049.116-.281-1.033-.281-.907v9.626a.956.956 0 0 0 .957.957h56.328a.955.955 0 0 0 .957-.957V6.836a.957.957 0 0 0-.957-.957H6.836a.957.957 0 0 0-.957.957v27.207a.957.957 0 0 0 1.914 0V7.793h54.414v34.469H7.793v-9.017c0-.126-.245.871-.293.755-.048-.116-.411-.411-.5-.5-.089-.089.116.548 0 .5-.116-.048-.038-.407-.164-.407Z" fill="#03A9F4"/></svg>