<svg width="62" height="70" fill="none" xmlns="http://www.w3.org/2000/svg"><path d="M60.822 18.277a.946.946 0 0 0 .946-.945V6.923A6.931 6.931 0 0 0 54.844 0H19.042a6.931 6.931 0 0 0-6.924 6.923v.386h-1.072a3.848 3.848 0 0 0-3.843 3.843 3.848 3.848 0 0 0 3.843 3.844h1.072v2.646h-1.072a3.848 3.848 0 0 0-3.843 3.843 3.848 3.848 0 0 0 3.843 3.844h1.072v2.646h-1.072a3.848 3.848 0 0 0-3.843 3.843 3.848 3.848 0 0 0 3.843 3.843h1.072v2.647h-1.072a3.848 3.848 0 0 0-3.843 3.843 3.848 3.848 0 0 0 3.843 3.843h1.072v2.647h-1.072a3.848 3.848 0 0 0-3.843 3.843 3.848 3.848 0 0 0 3.843 3.844h1.072v.385a6.931 6.931 0 0 0 6.924 6.923h35.802a6.931 6.931 0 0 0 6.924-6.923v-35.6a.946.946 0 0 0-1.89 0v35.6a5.039 5.039 0 0 1-5.034 5.033H19.042a5.039 5.039 0 0 1-5.033-5.033v-.385h3.087a3.848 3.848 0 0 0 3.844-3.844 3.848 3.848 0 0 0-3.844-3.843H14.01v-2.646h3.087a3.848 3.848 0 0 0 3.844-3.844 3.848 3.848 0 0 0-3.844-3.843H14.01v-2.647h3.087a3.848 3.848 0 0 0 3.844-3.843 3.848 3.848 0 0 0-3.844-3.843H14.01v-2.646h3.087a3.848 3.848 0 0 0 3.844-3.844 3.848 3.848 0 0 0-3.844-3.843H14.01v-2.646h3.087a3.848 3.848 0 0 0 3.844-3.844 3.848 3.848 0 0 0-3.844-3.843H14.01v-.386a5.039 5.039 0 0 1 5.033-5.033H42.18v13.363a.944.944 0 0 0 1.484.776l5.32-3.69 5.321 3.69a.942.942 0 0 0 .977.06.944.944 0 0 0 .507-.836V1.98a5.04 5.04 0 0 1 4.088 4.943v10.409c0 .521.423.945.944.945ZM19.05 52.484a1.955 1.955 0 0 1-1.953 1.953h-6.05a1.955 1.955 0 0 1-1.953-1.953c0-1.077.877-1.953 1.953-1.953h6.05c1.077 0 1.953.876 1.953 1.953Zm0-10.333a1.955 1.955 0 0 1-1.953 1.953h-6.05a1.955 1.955 0 0 1-1.953-1.953c0-1.077.877-1.953 1.953-1.953h6.05c1.077 0 1.953.876 1.953 1.953Zm0-10.333a1.955 1.955 0 0 1-1.953 1.953h-6.05a1.955 1.955 0 0 1-1.953-1.953c0-1.077.877-1.953 1.953-1.953h6.05c1.077 0 1.953.876 1.953 1.953Zm0-10.333a1.955 1.955 0 0 1-1.953 1.953h-6.05a1.955 1.955 0 0 1-1.953-1.953c0-1.077.877-1.953 1.953-1.953h6.05c1.077 0 1.953.876 1.953 1.953Zm0-10.333a1.955 1.955 0 0 1-1.953 1.953h-6.05a1.955 1.955 0 0 1-1.953-1.953c0-1.077.877-1.953 1.953-1.953h6.05c1.077 0 1.953.876 1.953 1.953Zm34.85 2.295-4.375-3.035a.946.946 0 0 0-1.078 0l-4.375 3.035V2.022H53.9v11.425Z" fill="#00AEEF"/><path d="M38.536 43.993 28.288 33.745c-.37-.369-1.092-.614-1.461-.245s-.826.631-.457 1L37.2 45.33a11.308 11.308 0 0 0 11.122 2.871 11.325 11.325 0 0 0 4.862-2.87l1.846-1.847a2.718 2.718 0 0 0 0-3.839l-4.82-4.819a2.718 2.718 0 0 0-3.838 0l-2.403 2.403a2.224 2.224 0 0 1-1.584.656c-.598 0-1.16-.233-1.584-.656l-7.21-7.21a2.226 2.226 0 0 1-.656-1.584c0-.598.233-1.16.656-1.583l2.403-2.404a2.718 2.718 0 0 0 0-3.839l-4.819-4.818a2.718 2.718 0 0 0-3.84 0l-1.845 1.845a11.226 11.226 0 0 0-3.31 7.992c0 3.02 1.175 5.858 3.31 7.993l2.064 2.063a.945.945 0 0 0 1.337-1.336l-2.064-2.064a9.35 9.35 0 0 1-2.757-6.655c0-2.197.747-4.278 2.121-5.955l5.955 5.955a4.101 4.101 0 0 0-1.101 2.806c0 1.104.43 2.14 1.21 2.92l7.21 7.211c.78.78 1.817 1.21 2.92 1.21 1.051 0 2.041-.391 2.806-1.102l5.954 5.954a9.41 9.41 0 0 1-3.346 1.757 9.423 9.423 0 0 1-9.263-2.392ZM29.84 17.127l4.819 4.82a.825.825 0 0 1 0 1.165L33.48 24.29l-5.985-5.985 1.177-1.177a.825.825 0 0 1 1.167 0Zm19.035 19.036 4.819 4.82a.825.825 0 0 1 0 1.165l-1.177 1.177-5.985-5.984 1.178-1.178a.825.825 0 0 1 1.165 0Z" fill="#00AEEF"/><g clip-path="url(#a)"><circle cx="15" cy="52" r="15" fill="#fff"/><path d="M15 37C6.729 37 0 43.729 0 52c0 8.27 6.731 15 15 15 8.285 0 15-6.747 15-15 0-8.271-6.729-15-15-15Zm0 28.043a12.98 12.98 0 0 1-8.092-2.82A8.805 8.805 0 0 1 15 56.89a8.807 8.807 0 0 1 8.094 5.33A12.98 12.98 0 0 1 15 65.043Zm-4.891-15A4.897 4.897 0 0 1 15 45.154a4.897 4.897 0 0 1 4.891 4.89A4.897 4.897 0 0 1 15 54.936a4.897 4.897 0 0 1-4.891-4.892Zm14.49 10.779a10.765 10.765 0 0 0-5.695-5.156 6.845 6.845 0 0 0 2.944-5.622A6.856 6.856 0 0 0 15 43.196a6.856 6.856 0 0 0-6.848 6.848 6.845 6.845 0 0 0 2.945 5.623 10.764 10.764 0 0 0-5.695 5.156A12.994 12.994 0 0 1 1.956 52c0-7.192 5.852-13.044 13.044-13.044S28.044 44.808 28.044 52c0 3.399-1.308 6.498-3.445 8.822Z" fill="#00AEEF"/></g><defs><clipPath id="a"><path fill="#fff" transform="translate(0 37)" d="M0 0h30v30H0z"/></clipPath></defs></svg>