<svg width="70" height="70" fill="none" xmlns="http://www.w3.org/2000/svg"><path d="M35.36 20.742h10.67c.93 0 1.685-.756 1.685-1.685V8.342c0-.93-.756-1.685-1.685-1.685H35.36c-.93 0-1.685.756-1.685 1.685v2.535a1.01 1.01 0 1 0 2.022 0V8.68h9.996V18.72h-9.996v-2.98a1.01 1.01 0 1 0-2.022 0v3.317c0 .929.756 1.685 1.685 1.685ZM16.534 19.108h13.77a1.01 1.01 0 1 0 0-2.021h-13.77a1.01 1.01 0 1 0 0 2.021ZM39.578 26.642a1.01 1.01 0 0 0-1.011-1.01H24.67a1.01 1.01 0 1 0 0 2.02h13.896a1.01 1.01 0 0 0 1.01-1.01ZM16.534 14.71h13.77a1.01 1.01 0 1 0 0-2.021h-13.77a1.01 1.01 0 1 0 0 2.021ZM16.534 10.312h13.77a1.01 1.01 0 1 0 0-2.021h-13.77a1.01 1.01 0 1 0 0 2.021ZM16.534 38.836H37.27a1.01 1.01 0 1 0 0-2.021H16.533a1.01 1.01 0 1 0 0 2.021ZM16.534 33.182h16.4a1.01 1.01 0 1 0 0-2.022h-16.4a1.01 1.01 0 1 0 0 2.022ZM46.767 31.16h-9.452a1.01 1.01 0 1 0 0 2.022h9.452a1.01 1.01 0 1 0 0-2.022Z" fill="#03A9F4"/><path d="M68.328 63.022a1.049 1.049 0 0 0-.038-.035l-6.22-5.535a13.185 13.185 0 0 0 1.617-5.887 1.01 1.01 0 1 0-2.02-.073c-.153 5.954-5.197 10.859-11.163 10.799-6.16 0-11.17-5.027-11.17-11.207-.094-6.056 5.121-11.293 11.17-11.207 4.712 0 8.941 2.99 10.524 7.44a1.01 1.01 0 0 0 1.904-.678 13.232 13.232 0 0 0-10.836-8.686V2.185c0-.93-.755-1.685-1.684-1.685H12.826c-.93 0-1.685.756-1.685 1.685V5.84H7.505c-.929 0-1.684.756-1.684 1.685v3.656H2.185c-.93 0-1.685.755-1.685 1.684v50.423c0 .93.756 1.685 1.685 1.685h32.187c.929 0 1.685-.756 1.685-1.685v-3.656h4.388c2.422 2.861 6.032 4.68 10.06 4.68 2.212 0 4.348-.546 6.249-1.574l6.268 5.613c1.49 1.476 3.905 1.558 5.4.082 1.497-1.43 1.406-3.997-.094-5.41Zm-55.165-60.5h36.912v35.342a13.21 13.21 0 0 0-10.534 5.862h-4.104a1.01 1.01 0 1 0 0 2.021h2.993a13.202 13.202 0 0 0-1.065 6.523H23.302a7.282 7.282 0 0 0 2.255-5.272v-1.25h5.498a1.01 1.01 0 1 0 0-2.022h-6.51a1.01 1.01 0 0 0-1.01 1.01v2.262c0 2.908-2.355 5.273-5.249 5.273h-5.123V2.52Zm-5.32 41.272a1.01 1.01 0 1 0-2.022 0v14.154c0 .929.755 1.684 1.684 1.684h26.53v3.32H2.522v-49.75H5.82v26.32a1.01 1.01 0 1 0 2.021 0V7.862h3.3v45.42c0 .558.452 1.01 1.01 1.01h25.553c.293 1.176.744 2.29 1.328 3.319H7.843V43.794Zm59.156 23.203c-.7.698-1.886.626-2.609-.134l-5.878-5.265a13.39 13.39 0 0 0 2.44-2.434l5.973 5.314c.689.664.769 1.85.074 2.52Z" fill="#03A9F4"/><path d="M50.504 42.445c-4.664-.067-8.687 3.97-8.616 8.639 0 4.764 3.865 8.639 8.616 8.639 4.751 0 8.616-3.875 8.616-8.639 0-4.764-3.865-8.64-8.616-8.64Zm0 15.256c-3.636 0-6.595-2.968-6.595-6.617-.055-3.576 3.024-6.668 6.595-6.618 3.636 0 6.595 2.969 6.595 6.618 0 3.649-2.959 6.617-6.595 6.617Z" fill="#03A9F4"/></svg>