<svg width="525" height="544" fill="none" xmlns="http://www.w3.org/2000/svg"><path d="M127.141 134.196c54.916-55.27 39.216-89.907 76.77-115.5 57.819-39.374 165.722-5.503 229.398 48.66 77.953 66.334 118.181 187.457 72.355 297.029-48.806 116.689-177.222 177.266-291.804 159.011C111.536 507.096 10.945 426.449.87 329.729c-1.095-10.487-5.927-67.155 27.906-116.018 27.958-40.4 54.809-35.7 98.365-79.515Z" fill="#CCEDFB"/><path d="m125.877 309.14-2.613-9.551-10.797.493a40.809 40.809 0 0 0-3.473-5.965l5.693-9.165-7.033-6.958-9.109 5.832a41.473 41.473 0 0 0-5.984-3.416l.374-10.816-9.577-2.53-4.972 9.595a40.496 40.496 0 0 0-6.894.051l-5.06-9.551-9.545 2.612.493 10.81a40.485 40.485 0 0 0-5.958 3.473l-9.16-5.725-6.957 7.047 5.813 9.127a41.7 41.7 0 0 0-3.41 5.984l-10.803-.373-2.53 9.582 9.583 4.972a41.253 41.253 0 0 0 .05 6.901l-9.538 5.06 2.612 9.551 10.797-.493a40.372 40.372 0 0 0 3.473 5.965l-5.693 9.165 7.034 6.958 9.108-5.826a42.07 42.07 0 0 0 5.984 3.409l-.386 10.874 9.577 2.53 4.965-9.596c2.298.179 4.606.162 6.9-.05l5.061 9.551 9.545-2.613-.462-10.854a40.573 40.573 0 0 0 5.959-3.472l9.159 5.692 6.957-7.046-5.825-9.115a41.688 41.688 0 0 0 3.409-5.983l10.804.373 2.53-9.583-9.589-4.94a41.2 41.2 0 0 0-.051-6.901l9.539-5.085Zm-43.961 33.347a25.497 25.497 0 0 1-26.87-8.955 25.489 25.489 0 0 1 8.732-38.429 25.49 25.49 0 0 1 27.024 42.942 25.489 25.489 0 0 1-8.905 4.442h.019Z" fill="#0888C2"/><path d="m503.939 273.295-3.795-13.916-15.731.715a59.008 59.008 0 0 0-5.061-8.685l8.331-13.352-10.253-10.121-13.284 8.489a61.483 61.483 0 0 0-8.722-4.997l.538-15.75-13.916-3.656-7.242 13.972a59.953 59.953 0 0 0-10.045.07l-7.394-13.916-13.916 3.796.74 15.762a59.916 59.916 0 0 0-8.678 5.06l-13.34-8.336-10.12 10.259 8.482 13.283a60.529 60.529 0 0 0-4.966 8.723l-15.743-.544-3.707 13.954 13.966 7.242a60.026 60.026 0 0 0 .07 10.051l-13.916 7.4 3.796 13.916 15.724-.715a59.997 59.997 0 0 0 5.06 8.691l-8.33 13.346 10.247 10.121 13.283-8.489a60.25 60.25 0 0 0 8.716 4.972l-.544 15.75 13.947 3.662 7.237-13.972c3.344.256 6.704.23 10.044-.076l7.401 13.915 13.915-3.795-.677-15.737a59.782 59.782 0 0 0 8.679-5.06l13.34 8.337 10.12-10.26-8.488-13.283a59.932 59.932 0 0 0 4.971-8.723l15.744.544 3.656-13.953-13.966-7.243a60.098 60.098 0 0 0-.07-10.057l13.897-7.394Zm-64.037 48.578a37.14 37.14 0 0 1-42.097-54.203 37.136 37.136 0 0 1 56.602-9.681 37.142 37.142 0 0 1 11.492 18.247 37.134 37.134 0 0 1 1.038 14.456 37.115 37.115 0 0 1-27.035 31.181ZM129.405 524.933h236.458c10.19 0 17.407-8.222 16.123-18.393L323.794 46.572c-1.266-10.158-10.589-18.387-20.779-18.387L78.392 25.56c-25.775 0-29.273 10.854-27.99 21.012l58.193 459.968c1.316 10.158 10.62 18.393 20.81 18.393Z" fill="#03A9F4"/><path d="M143.631 524.933h236.464c10.19 0 17.407-8.261 16.123-18.451L338.026 45.053c-1.265-10.19-10.589-18.45-20.779-18.45H80.751c-10.19 0-17.407 8.26-16.123 18.45l58.225 461.429c1.29 10.19 10.613 18.451 20.778 18.451Z" fill="#fff"/><path d="M72.112 105.34a.95.95 0 0 1-.942-.828l-7.477-59.344a17.3 17.3 0 0 1 4.03-13.84 17.078 17.078 0 0 1 13.03-5.693h27.444a.949.949 0 1 1 0 1.898H80.752a15.18 15.18 0 0 0-11.607 5.029 15.446 15.446 0 0 0-3.573 12.346l7.489 59.344a.95.95 0 0 1-.823 1.057l-.126.031ZM167.624 27.552h-42.601a.949.949 0 1 1 0-1.898h42.601a.95.95 0 0 1 .671 1.62.95.95 0 0 1-.671.278ZM380.095 525.882h-74.689a.952.952 0 0 1-.949-.948.948.948 0 0 1 .949-.949h74.689a15.173 15.173 0 0 0 11.607-5.029 15.483 15.483 0 0 0 3.131-5.787c.616-2.132.767-4.371.442-6.566l-4.889-38.749a.954.954 0 0 1 .828-1.069.955.955 0 0 1 1.069.829l4.89 38.749a17.31 17.31 0 0 1-4.029 13.846 17.086 17.086 0 0 1-13.049 5.673ZM289.354 525.882h-81.311a.948.948 0 1 1 0-1.898h81.311a.948.948 0 1 1 0 1.898ZM167.622 525.882H143.65c-10.633 0-20.374-8.647-21.715-19.279l-8.931-70.609a.956.956 0 1 1 1.897-.241l8.906 70.609c1.227 9.716 10.121 17.622 19.836 17.622h23.979a.948.948 0 1 1 0 1.898Z" fill="#353535"/><path d="M382.737 507.122 327.144 66.529a4.967 4.967 0 0 0-4.794-4.257H84.615a3.67 3.67 0 0 0-3.72 4.257l55.593 440.593a4.973 4.973 0 0 0 4.795 4.257h237.735a3.67 3.67 0 0 0 3.719-4.257ZM206.446 48.21c2.454-2.613 2.04-6.987-.924-9.77-2.964-2.784-7.356-2.923-9.81-.31-2.453 2.613-2.04 6.987.925 9.77 2.964 2.784 7.356 2.923 9.809.31Z" fill="#CCEDFB"/><path d="M245.479 109.641c13.169.531 25.775 14.428 20.873 33.353-4.016 15.459-21.215 17.256-30.285 24.264-29.343 22.67-45.89 104.222-87.384 122.078-33.1 14.251-97.036 2.53-121.881-39.071C3.164 210.687 5.58 158.131 40.59 138.82c31.48-17.325 53.594 22.201 86.656 6.578 32.581-15.402 34.156-31.468 53.189-38.584 20.399-7.622 27.73 1.347 65.043 2.827Z" fill="#353535"/><path d="M439.135 204.274c36.586 0 66.245-29.658 66.245-66.244s-29.659-66.245-66.245-66.245c-36.586 0-66.244 29.659-66.244 66.245 0 36.586 29.658 66.244 66.244 66.244Z" fill="#fff"/><path d="M505.611 139.362c2.84-35.499-23.636-66.58-59.135-69.42-35.5-2.84-66.58 23.637-69.42 59.136-2.84 35.499 23.636 66.58 59.135 69.42 35.5 2.84 66.58-23.636 69.42-59.136Z" fill="#95DBFA"/><path d="M441.968 201.288a65.226 65.226 0 1 1 65.227-65.226 65.3 65.3 0 0 1-65.227 65.226Zm0-128.555a63.326 63.326 0 0 0-62.111 75.683 63.33 63.33 0 0 0 49.757 49.757 63.325 63.325 0 0 0 75.683-62.111 63.406 63.406 0 0 0-63.329-63.323v-.006Z" fill="#353535"/><path d="M493.626 151.725c8.636-28.513-7.477-58.627-35.99-67.262-28.512-8.636-58.626 7.477-67.262 35.99-8.635 28.512 7.478 58.626 35.99 67.262 28.513 8.635 58.627-7.478 67.262-35.99Z" fill="#fff"/><path d="M487.32 166.233a.981.981 0 0 1-.518-.152.952.952 0 0 1-.279-1.315 52.949 52.949 0 0 0 6.326-13.72.957.957 0 0 1 .81-.734.946.946 0 0 1 1.063.89.956.956 0 0 1-.058.382 54.478 54.478 0 0 1-6.515 14.213.968.968 0 0 1-.829.436ZM490.522 113.481a.951.951 0 0 1-.854-.531 52.647 52.647 0 0 0-47.699-29.88 53.223 53.223 0 0 0-42.765 21.695.951.951 0 0 1-1.531-1.126 54.908 54.908 0 0 1 49.249-22.246 54.904 54.904 0 0 1 44.454 30.728.95.95 0 0 1-.854 1.36ZM441.969 190.953a54.897 54.897 0 0 1-47.902-81.716.946.946 0 0 1 1.326-.432.956.956 0 0 1 .459.606.962.962 0 0 1-.134.749 53.012 53.012 0 0 0 46.244 78.895.948.948 0 1 1 0 1.898h.007Z" fill="#353535"/><path d="M402.801 158.225v-2.53c0-10.651 4.263-12.65 16.243-20.032 5.389-3.327 7.382-4.99 7.382-8.052 0-3.593-2.657-5.389-9.311-5.389-4.13.109-8.236.667-12.246 1.664l-1.6-7.724a55.02 55.02 0 0 1 14.972-2.264c11.651 0 17.774 5.263 17.774 13.315 0 6.186-3.795 9.779-10.848 14.371-5.528 3.592-10.519 6.255-11.114 8.324h22.139v8.317h-33.391ZM474.807 148.776v9.45h-9.185v-9.45h-22.423v-8.356l21.297-25.819h10.311v26.351h6.325v7.856l-6.325-.032Zm-9.185-23.827-13.283 15.971h13.283v-15.971Z" fill="#0888C2"/><path d="M162.633 520.405s7.173-33.714 13.365-54.334c9.981-33.258 31.842-70.9 31.842-70.9l111.533-21.829s38.534 77.289 46.067 144.59c0 0-31.057 22.138-70.717 25.649-26.363 2.327-81.38-20.589-132.09-23.176Z" fill="#353535"/><path d="M147.521 314.631s-19.9-50.008-8.173-60.558c.633-.557 8.533-1.36 16.642 6.06 7.654 7.002 15.548 22.245 15.548 22.245l2.599 34.518-26.616-2.265Z" fill="#99B9FF"/><path d="M298.864 223.857s7.755 1.677 13.852 11.089c12.164 18.779 30.994 52.942 61.039 58.04 45.15 7.666 72.507-47.275 68.629-59.577 0 0-6.483-8.616-17.141-11.215 0 0-.114-8.584 9.152-4.516 9.267 4.067 12.967 1.581 17.079.632 7.28-1.708 22.771-19.197 28.508-21.417 5.737-2.22 3.959 2.58 3.959 2.58s5.649-6.356 9.539-3.162l-8.293 10.961s6.705-8.855 10.595-4.427l-17.356 20.31 12.751-9.994s1.771 1.955-1.556 5.408c-3.327 3.454-16.85 22.31-29.773 22.31 0 0 6.958 104.031-70.925 108.257-66.921 3.63-94.177-50.356-94.177-50.356l4.118-74.923Z" fill="#fff"/><path d="M382.59 350.262c-31.462 0-53.379-12.955-66.497-24.22-15.143-13.017-22.139-26.699-22.221-26.838a.953.953 0 0 1-.101-.481l4.149-74.916a.96.96 0 0 1 .743-.874.936.936 0 0 1 .408.001c.329.069 8.223 1.866 14.447 11.493 1.145 1.777 2.353 3.687 3.625 5.693 11.929 18.862 29.95 47.376 56.775 51.93 24.77 4.2 42.468-11.227 50.805-20.797 12.891-14.795 18.432-31.627 16.806-37.408-.847-1.063-7.015-8.419-16.509-10.753a.947.947 0 0 1-.721-.911c0-.158 0-3.934 2.657-5.693 1.897-1.265 4.516-1.138 7.824.31 7.401 3.251 10.955 2.183 14.396 1.152.69-.209 1.398-.424 2.113-.589 3.858-.904 10.538-6.85 16.446-12.1 4.971-4.428 9.266-8.223 11.955-9.279 2.296-.886 3.864-.873 4.8.05.3.296.518.664.633 1.069 2.189-1.815 5.958-4.079 9.032-1.556a.947.947 0 0 1 .159 1.303l-3.207 4.238a5.892 5.892 0 0 1 1.979-.455 4.32 4.32 0 0 1 3.486 1.575.94.94 0 0 1 0 1.265L485.42 216.52l5.212-4.092a.94.94 0 0 1 1.265.113c.102.102 2.322 2.651-1.575 6.699-.48.506-1.214 1.379-2.144 2.486-5.332 6.325-16.256 19.336-27.338 20.089a173.384 173.384 0 0 1-1.714 30.722c-2.372 16.306-8.267 39.216-22.891 55.719-11.911 13.441-27.831 20.791-47.269 21.847-2.167.106-4.293.159-6.376.159Zm-86.909-51.71c.955 1.79 7.869 14.207 21.708 26.08 13.714 11.765 37.244 25.396 71.476 23.542 18.932-1.031 34.384-8.166 45.94-21.208 27.427-30.994 24.125-85.493 24.087-86.024a.96.96 0 0 1 .259-.709.942.942 0 0 1 .69-.303c10.538 0 21.993-13.625 26.882-19.444.955-1.132 1.708-2.03 2.233-2.581 1.373-1.423 1.733-2.479 1.758-3.162l-11.67 9.171a.95.95 0 0 1-1.268-.088.948.948 0 0 1-.041-1.272l16.762-19.608a2.286 2.286 0 0 0-1.385-.386c-2.638.089-6.047 3.846-7.141 5.288a.953.953 0 0 1-1.198.277.947.947 0 0 1-.466-1.137.975.975 0 0 1 .152-.291l7.66-10.121c-3.1-1.201-7.388 3.479-7.432 3.536a.96.96 0 0 1-1.194.167.95.95 0 0 1-.407-1.135c.196-.531.323-1.454.044-1.733-.05-.05-.575-.48-2.776.374-2.366.91-6.743 4.807-11.386 8.924-6.363 5.662-12.935 11.512-17.261 12.531a38.87 38.87 0 0 0-2.006.556c-3.592 1.082-7.666 2.303-15.705-1.227-2.676-1.176-4.7-1.334-6.009-.461-1.31.873-1.632 2.454-1.752 3.39 10.392 2.859 16.622 11.012 16.888 11.385a.944.944 0 0 1 .152.285c2.157 6.844-4.352 24.7-17.142 39.381-7.59 8.723-22.771 22.139-43.891 22.139a51.18 51.18 0 0 1-8.659-.74c-27.66-4.694-45.953-33.632-58.06-52.785a878.095 878.095 0 0 0-3.618-5.693c-4.491-6.957-9.905-9.487-12.176-10.335l-4.048 73.417Z" fill="#353535"/><path d="M469.426 215.235a.936.936 0 0 1-.91-.942c0-.251.099-.493.277-.67l14.548-14.833a.955.955 0 0 1 1.628.67.95.95 0 0 1-.28.671l-14.549 14.832a.936.936 0 0 1-.714.272ZM475.344 218.221a.936.936 0 0 1-.91-.942c0-.252.099-.493.277-.671l9.804-10.025a.95.95 0 0 1 1.047-.242.943.943 0 0 1 .523 1.26.942.942 0 0 1-.216.31l-9.874 10.044a.933.933 0 0 1-.651.266ZM449.385 234.388a.95.95 0 0 1-.799-.433.948.948 0 0 1-.068-.907c.184-.405 4.58-9.944 11.81-8.464 6.192 1.265 10.626-.316 10.67-.335a.948.948 0 0 1 .633 1.777c-.202.076-4.959 1.803-11.714.418-5.756-1.177-9.659 7.299-9.697 7.388a.957.957 0 0 1-.835.556Z" fill="#353535"/><path d="M149.911 260.018s-40.387 55.353-40.286 92.128c.101 36.775 29.729 27.065 29.729 27.065l32.189-96.833-21.632-22.36Z" fill="#fff"/><path d="M131.169 381.337c-3.947 0-8.672-.822-12.815-3.795-6.383-4.611-9.64-13.15-9.678-25.371-.101-36.686 38.812-90.42 40.482-92.69l.664-.911 22.796 23.536-.183.55-32.341 97.283-.456.146a29.485 29.485 0 0 1-8.469 1.252Zm18.849-119.839c-5.212 7.369-39.533 57.175-39.444 90.648.038 11.575 3.023 19.608 8.855 23.833 7.287 5.269 16.964 3.056 19.147 2.461l31.854-95.815-20.412-21.127Z" fill="#353535"/><path d="M139.348 254.073s137.068-38.42 164.767-33.803l9.684 64.581 18.343 49.407a40.482 40.482 0 0 1-7.932 41.405c-11.423 12.493-30.412 25.7-60.16 27.035-57.756 2.606-85.853 16.837-88.914-8.685-3.061-25.522-6.705-86.745-6.705-86.745-9.241-24.352-20.481-52.493-29.083-53.195Z" fill="#0888C2"/><path d="M228.205 216.987a212.638 212.638 0 0 1-2.53-7.893c5.477 1.967 11.126 2.062 14.377.082 4.004-2.448 4.548-6.926 5.958-12.316.589-2.251 1.101-4.876 3.315-7.242a12.002 12.002 0 0 1 3.827-2.707 3.494 3.494 0 0 0 1.853-4.232l-.474-.993a66.215 66.215 0 0 1-6.408-24.865l-.993-17.033c-9.488-3.264-12.834-2.48-14.029-.949-.443.569-1.12.955-.962 3.58.74 12.65-10.702 11.879-20.342 9.987-9.64-1.891-5.471 15.624-5.471 15.624s-6.269-7.369-12.537-.411c-4.491 4.971 5.06 12.334 10.797 16.104l-2.081 36.781a25.368 25.368 0 0 1-15.503 21.962l-13.498 5.692s55.662 1.575 94.246-20.418h-24.586a15.807 15.807 0 0 1-14.959-10.753Z" fill="#fff"/><path d="M175.634 249.075h-2.164a.95.95 0 0 1-.903-.773.948.948 0 0 1 .562-1.048l13.504-5.693a24.561 24.561 0 0 0 14.928-21.133l2.049-36.237c-5.205-3.46-11.303-8.419-11.891-12.973a5.119 5.119 0 0 1 1.366-4.257c1.999-2.221 4.232-3.334 6.629-3.29a9.398 9.398 0 0 1 5.174 1.835c-.538-3.612-.974-9.83 1.752-12.651 1.297-1.353 3.093-1.809 5.339-1.372 5.863 1.151 13.068 2.062 16.743-1.145 1.897-1.638 2.682-4.206 2.466-7.856-.145-2.486.399-3.334 1.019-4.055.05-.052.096-.106.139-.164 1.898-2.454 6.717-2.252 15.092.632a.95.95 0 0 1 .633.842l.974 17.04a65.086 65.086 0 0 0 6.325 24.51l.481.993a4.426 4.426 0 0 1-2.322 5.51 10.92 10.92 0 0 0-3.523 2.492c-1.853 1.973-2.397 4.124-2.928 6.205l-.165.633c-.196.752-.379 1.492-.55 2.201-1.107 4.497-2.056 8.381-5.832 10.683-3.125 1.898-8.153 2.094-13.429.569.633 1.98 1.265 4.036 1.999 6.123a14.884 14.884 0 0 0 5.418 7.285 14.885 14.885 0 0 0 8.643 2.779h24.587a.95.95 0 0 1 .917.702.96.96 0 0 1-.449 1.069c-34.087 19.418-81.913 20.544-92.583 20.544Zm23.972-83.493c-1.796 0-3.516.892-5.117 2.663a3.284 3.284 0 0 0-.885 2.739c.392 3.055 4.586 7.406 11.499 11.929a.956.956 0 0 1 .43.848l-2.081 36.787a26.464 26.464 0 0 1-16.085 22.771l-9.159 3.846c13.701-.202 54.688-2.22 85.821-18.52h-20.873a16.76 16.76 0 0 1-15.851-11.348 229.823 229.823 0 0 1-2.562-7.925.95.95 0 0 1 .251-.964.946.946 0 0 1 .976-.2c5.294 1.897 10.62 1.961 13.568.164 3.106-1.897 3.928-5.256 4.971-9.488.178-.721.361-1.467.563-2.233l.159-.632c.563-2.201 1.201-4.706 3.384-7.034a12.888 12.888 0 0 1 4.117-2.922 2.53 2.53 0 0 0 1.367-3.03l-.443-.923a66.734 66.734 0 0 1-6.496-25.245l-.936-16.395c-9.083-3.048-11.658-1.979-12.379-1.056-.063.082-.133.158-.202.24-.329.38-.671.778-.563 2.695.246 4.213-.797 7.375-3.112 9.399-4.295 3.745-12.063 2.815-18.344 1.582-1.587-.317-2.77-.045-3.605.822-2.631 2.739-1.442 10.753-.759 13.644a.952.952 0 0 1-.493 1.075.952.952 0 0 1-1.158-.24c0-.032-2.631-3.024-5.92-3.068l-.083.019Z" fill="#353535"/><path d="M225.662 210.043c-.092 0-.183-.013-.272-.038-10.753-3.163-15.813-17.584-16.047-18.192a.952.952 0 1 1 1.796-.632c.051.139 4.953 14.093 14.789 16.99a.95.95 0 0 1-.266 1.859v.013Z" fill="#353535"/><path d="M209.532 204.065a21.908 21.908 0 0 1-19.773-12.461l-4.301-8.937a.95.95 0 0 1 1.708-.822l4.301 8.937a20.023 20.023 0 0 0 23.695 10.582l21.076-6.116a.952.952 0 0 1 .721.079.944.944 0 0 1 .138 1.571.936.936 0 0 1-.328.171l-21.076 6.117a22.181 22.181 0 0 1-6.161.879Z" fill="#0888C2"/><path d="M187.032 159.763a.958.958 0 0 1-.666-.291.95.95 0 0 1-.264-.677c0-1.12.752-27.566 15.421-41.228 6.002-5.592 13.511-8.223 22.334-7.768a.948.948 0 0 1 .898.994.927.927 0 0 1-.993.898c-8.279-.411-15.332 2.036-20.949 7.267-14.086 13.119-14.807 39.609-14.814 39.85a.937.937 0 0 1-.282.681.933.933 0 0 1-.685.274Z" fill="#CCEDFB"/><path d="M244.504 196.082a5.836 5.836 0 0 0-2.822-5.87 5.847 5.847 0 0 0-8.494 3.15 5.848 5.848 0 0 0 4.795 7.686 5.803 5.803 0 0 0 4.29-1.132 5.8 5.8 0 0 0 2.231-3.834ZM202.279 173.273c1.113-8.824-4.542-16.812-12.651-17.837a49.955 49.955 0 0 0-5.06-.133c-7.021.468-10.639 6.401-11.632 14.264-1.076 8.469 2.157 16.388 9.734 17.894.31.063 2.53.246 2.878.246 8.906.026 15.598-5.61 16.731-14.434Z" fill="#0888C2"/><path d="M198.773 172.983c.943-8.856-4.864-16.718-12.973-17.578-8.109-.86-15.453 5.604-16.395 14.447-.943 8.843 4.864 16.718 12.973 17.584 8.109.867 15.453-5.604 16.395-14.453Z" fill="#95DBFA"/><path d="M217.593 209.997c-1.575-3.118-9.273-7.413-15.181-7.761a.209.209 0 0 1-.136-.055.208.208 0 0 1-.065-.131.205.205 0 0 1 .036-.142.21.21 0 0 1 .121-.083c4.876-1.265 17.166-5.003 14.307-10.43-1.056-2.005-11.246.05-15.408.841-4.162.791-16.522 12.745-18.849 21.689-2.328 8.944-2.17 24.669-5.124 29.685 0 0-61.247 86.321-66.927 105.72-5.681 19.4 2.53 43.771 28.995 41.399 39.514-3.542 44.738-99.566 51.626-141.464 0 0 2.467-8.495 4.839-11.285 2.372-2.789 15.08-9.165 15.181-14.877.07-4.326-7.401-8.805-11.006-10.715a.63.63 0 0 1-.408-.727.633.633 0 0 1 .667-.5 17.153 17.153 0 0 1 8.426 1.6c5.288 2.55 10.683.69 8.906-2.764Z" fill="#fff"/><path d="M135.855 391.824c-8.913 0-16.212-3.162-21.247-9.317-6.705-8.16-8.729-21.297-5.168-33.461 5.643-19.266 64.202-101.963 67.048-105.967 1.563-2.707 2.246-9.14 2.91-15.358.525-4.984 1.075-10.12 2.094-14.048 2.346-9.026 14.674-21.443 19.608-22.385l.519-.101c10.753-2.069 14.915-2.132 15.901-.253a4.184 4.184 0 0 1 .171 3.751c-1.461 3.282-7.147 5.692-11.847 7.128 5.307 1.316 11.113 4.719 12.65 7.736a3.159 3.159 0 0 1-.455 3.858c-1.866 1.898-6.053 1.974-9.741.184a16.002 16.002 0 0 0-6.85-1.531c4.364 2.423 10.601 6.654 10.531 11.044-.069 4.39-6.192 8.71-11.1 12.144-1.898 1.316-3.656 2.562-4.308 3.328-1.822 2.144-3.941 8.526-4.63 10.885-1.088 6.623-2.157 14.764-3.289 23.404-3.043 23.226-6.838 52.126-14.023 75.511-8.546 27.787-20.045 41.949-35.162 43.309a55.625 55.625 0 0 1-3.612.139Zm77.94-200.391c-1.929 0-5.478.392-11.841 1.62l-.519.101c-3.865.74-15.876 12.391-18.115 20.993-.981 3.796-1.525 8.856-2.043 13.777-.715 6.743-1.392 13.112-3.163 16.148l-.044.07c-.633.86-61.229 86.416-66.795 105.436-3.391 11.581-1.506 24.036 4.813 31.727 5.276 6.42 13.283 9.349 23.182 8.464 32.487-2.916 41.507-71.678 47.478-117.176 1.132-8.653 2.207-16.832 3.302-23.499v-.107c.107-.361 2.53-8.729 5.022-11.639.816-.955 2.53-2.144 4.668-3.649 4.074-2.853 10.228-7.167 10.291-10.627.045-2.675-3.883-6.363-10.5-9.867a1.602 1.602 0 0 1 .633-3.011 18.086 18.086 0 0 1 8.925 1.702c3.238 1.568 6.439 1.322 7.558.183.272-.278.582-.753.114-1.664-1.423-2.821-8.817-6.913-14.421-7.242a1.16 1.16 0 0 1-1.087-1.044c-.027-.275.046-.55.205-.776a1.15 1.15 0 0 1 .66-.457c7.591-1.948 12.733-4.554 13.808-6.958.155-.332.226-.697.207-1.063a2.262 2.262 0 0 0-.314-1.037c-.203-.234-.759-.405-2.024-.405Z" fill="#353535"/><path d="M357.925.499 252.666 35.686a9.691 9.691 0 0 0-6.116 12.259l14.548 43.568a9.696 9.696 0 0 0 12.264 6.117l78.813-26.345 28.869 9.969-5.895-17.648 3.466-1.164a9.688 9.688 0 0 0 6.593-8.508 9.677 9.677 0 0 0-.477-3.75L370.183 6.615A9.688 9.688 0 0 0 357.925.5Z" fill="#0888C2"/><path d="M275.151 90.614a10.642 10.642 0 0 1-10.437-8.697l-8.381-45.169a10.647 10.647 0 0 1 8.52-12.397L373.97 4.11a10.643 10.643 0 0 1 10.87 4.677 10.633 10.633 0 0 1 1.534 3.862l8.375 45.169a10.652 10.652 0 0 1-8.514 12.391l-2.663.493 3.22 17.363a.96.96 0 0 1-.371.93.952.952 0 0 1-.995.089l-26.927-13.752-32.784 6.085a.962.962 0 0 1-1.107-.759.948.948 0 0 1 .765-1.106l33.101-6.142a.94.94 0 0 1 .6.088l25.504 12.999-3.043-16.402a.958.958 0 0 1 .76-1.107l3.599-.632a8.745 8.745 0 0 0 6.995-10.19l-8.374-45.163a8.753 8.753 0 0 0-3.638-5.634 8.736 8.736 0 0 0-6.559-1.4L265.201 26.21a8.748 8.748 0 0 0-7.002 10.184l8.381 45.2a8.73 8.73 0 0 0 10.19 6.958l13.131-2.435a.968.968 0 0 1 .984.425.964.964 0 0 1-.636 1.473l-13.137 2.435c-.647.117-1.304.172-1.961.164Z" fill="#353535"/><path d="M305.407 85.485a1.27 1.27 0 1 1-.234-2.53l5.756-1.063a1.265 1.265 0 1 1 .462 2.486l-5.756 1.069-.228.038Z" fill="#353535"/><path d="M431.703 477.538c11.598 0 21-9.402 21-21s-9.402-21-21-21-21 9.402-21 21 9.402 21 21 21Z" fill="#fff"/><path d="M431.703 478.487a21.954 21.954 0 0 1-20.278-13.55 21.946 21.946 0 0 1 28.677-28.677 21.943 21.943 0 0 1 13.549 20.278 21.971 21.971 0 0 1-21.948 21.949Zm0-42a20.052 20.052 0 1 0 20.051 20.051 20.078 20.078 0 0 0-20.051-20.051Z" fill="#353535"/><path d="M431.703 467.924a.948.948 0 0 1-.949-.949v-20.873a.948.948 0 1 1 1.897 0v20.873a.947.947 0 0 1-.948.949Z" fill="#353535"/><path d="M442.139 457.487h-20.874a.95.95 0 0 1 0-1.898h20.874a.946.946 0 0 1 .948.949.948.948 0 0 1-.948.949Z" fill="#353535"/><path d="M486.549 424.946c18.542-4.257 30.123-22.74 25.866-41.282-4.257-18.542-22.74-30.123-41.282-25.866-18.543 4.257-30.123 22.739-25.866 41.282 4.257 18.542 22.739 30.123 41.282 25.866Z" fill="#fff"/><path d="M478.828 426.714a35.366 35.366 0 0 1-17.957-4.907 35.37 35.37 0 0 1-12.006-49.249 35.42 35.42 0 0 1 61.055 1.587 35.428 35.428 0 0 1-13.488 47.941 35.408 35.408 0 0 1-17.604 4.628Zm-28.325-53.132a33.493 33.493 0 1 0 46.175-10.601 33.528 33.528 0 0 0-46.175 10.601Z" fill="#353535"/><path d="m502.196 388.809-28.393-17.704a3.206 3.206 0 0 0-4.417 1.024l-12.226 19.608a3.206 3.206 0 0 0 1.024 4.417l28.393 17.704a3.207 3.207 0 0 0 4.417-1.024l12.226-19.608a3.206 3.206 0 0 0-1.024-4.417Z" fill="#03A9F4"/><path d="M486.636 414.69a4.168 4.168 0 0 1-2.201-.632l-28.3-17.711a4.149 4.149 0 0 1-1.315-5.693l12.246-19.545a4.148 4.148 0 0 1 5.692-1.316l28.306 17.711a4.158 4.158 0 0 1 1.316 5.693l-12.246 19.545a4.154 4.154 0 0 1-3.498 1.948Zm-1.196-2.239a2.26 2.26 0 0 0 3.112-.708l12.24-19.577a2.262 2.262 0 0 0 .289-1.7 2.259 2.259 0 0 0-.998-1.406l-28.305-17.711a2.266 2.266 0 0 0-2.504.075 2.253 2.253 0 0 0-.602.64l-12.246 19.545a2.261 2.261 0 0 0 .715 3.106l28.299 17.736Z" fill="#353535"/><path d="M478.049 394.064a.946.946 0 0 1-.861-.55l-6.382-13.916a.941.941 0 0 1-.066-.752.938.938 0 0 1 .194-.333.957.957 0 0 1 .686-.316.963.963 0 0 1 .699.286c.09.093.161.203.208.325l6.382 13.915a.943.943 0 0 1-.462 1.265.909.909 0 0 1-.398.076Z" fill="#353535"/><path d="M478.125 394.063a.948.948 0 1 1 0-1.897l15.281-.31a.95.95 0 1 1 .038 1.897l-15.281.31h-.038Z" fill="#353535"/><path d="M74.531 448.612c13.453-13.453 13.453-35.264 0-48.716-13.453-13.453-35.263-13.453-48.716 0-13.453 13.452-13.453 35.263 0 48.716 13.453 13.452 35.263 13.452 48.716 0Z" fill="#fff"/><path d="M50.11 459.65a35.417 35.417 0 0 1-35.175-32.063 35.421 35.421 0 1 1 38.54 31.93c-1.126.083-2.24.133-3.365.133Zm.12-68.895a33.349 33.349 0 0 0-22.112 58.295 33.349 33.349 0 0 0 45.414-48.817 33.349 33.349 0 0 0-23.302-9.478Z" fill="#353535"/><path d="m64.45 437.891-4.56-5.655a2.54 2.54 0 0 0-1.79-.853h-.766a5.705 5.705 0 0 0-2.011.442c-1.797.772-4.719.823-8.514-5.787-3.795-6.61-2.347-9.064-.81-10.26a6.885 6.885 0 0 0 1.639-1.898l.17-.284a2.53 2.53 0 0 0 .171-1.967l-2.606-6.813a1.393 1.393 0 0 0-1.48-.828l-1.682.31a6.325 6.325 0 0 0-3.67 2.068c-3.99 4.655-3.32 13.992 2.031 23.258 5.351 9.267 13.138 14.548 19.166 13.384a6.218 6.218 0 0 0 3.555-2.112l1.138-1.335a1.379 1.379 0 0 0 .02-1.67Z" fill="#03A9F4"/><path d="M58.03 444.135c-6.174 0-13.284-5.377-18.281-14.017-5.49-9.488-6.262-19.292-1.93-24.352a7.252 7.252 0 0 1 4.22-2.378l1.682-.31a2.333 2.333 0 0 1 2.53 1.416l2.613 6.781a3.504 3.504 0 0 1-.24 2.796l-.171.285a7.908 7.908 0 0 1-1.898 2.169c-.708.557-2.872 2.246 1.05 9.039 3.922 6.793 6.483 5.762 7.325 5.421a6.378 6.378 0 0 1 2.353-.519h.765a3.436 3.436 0 0 1 2.53 1.189l4.567 5.693a2.322 2.322 0 0 1-.038 2.897l-1.132 1.341a7.24 7.24 0 0 1-4.099 2.422c-.61.1-1.229.142-1.847.127Zm-13.916-39.217h-.045l-1.682.31a5.369 5.369 0 0 0-3.119 1.746c-3.757 4.383-2.878 13.498 2.132 22.138 5.01 8.641 12.505 14.011 18.166 12.923a5.274 5.274 0 0 0 3.01-1.79l1.14-1.335a.454.454 0 0 0 0-.48l-4.567-5.655a1.658 1.658 0 0 0-1.031-.487h-.76a4.576 4.576 0 0 0-1.67.373c-3.314 1.36-6.483-.671-9.69-6.224-3.206-5.554-3.384-9.292-.575-11.481a5.903 5.903 0 0 0 1.385-1.575l.17-.284c.167-.356.201-.76.096-1.139l-2.613-6.78a.459.459 0 0 0-.354-.241l.007-.019Z" fill="#353535"/><path d="M130.777 372.659a.935.935 0 0 1-.872-.576 141.563 141.563 0 0 1-2.284-5.585.951.951 0 0 1 .544-1.227.947.947 0 0 1 1.227.544c.709 1.841 1.468 3.7 2.252 5.516a.941.941 0 0 1 .02.736.951.951 0 0 1-.513.529.902.902 0 0 1-.374.063Zm-4.813-12.701a.947.947 0 0 1-.898-.633 138.583 138.583 0 0 1-2.17-7.324.946.946 0 0 1 .671-1.164.946.946 0 0 1 1.163.67c.633 2.41 1.36 4.845 2.138 7.23a.968.968 0 0 1-.13.863.96.96 0 0 1-.774.402v-.044Zm-3.884-14.662a.955.955 0 0 1-.93-.759c-.525-2.492-.98-5.023-1.36-7.521a.96.96 0 0 1 1.898-.285c.373 2.467.822 4.959 1.335 7.42a.945.945 0 0 1-.393.98.948.948 0 0 1-.341.146l-.209.019Zm-2.271-15.004a.958.958 0 0 1-.942-.866c-.234-2.53-.392-5.124-.468-7.635a.944.944 0 0 1 .559-.894.96.96 0 0 1 .726-.022.943.943 0 0 1 .612.859c.076 2.473.228 5.003.462 7.521a.936.936 0 0 1-.216.694.943.943 0 0 1-.644.337l-.089.006Zm-.423-15.18h-.045a.951.951 0 0 1-.658-.305.943.943 0 0 1-.246-.682c.074-2.573.302-5.14.683-7.685a.961.961 0 0 1 .121-.364.955.955 0 0 1 .986-.458.958.958 0 0 1 .627.412.958.958 0 0 1 .132.739 66.971 66.971 0 0 0-.633 7.432.945.945 0 0 1-.993.923l.026-.012Z" fill="#99B9FF"/><path d="M44.148 23.244a.949.949 0 0 1-.949-.948v-4.909a.949.949 0 1 1 1.898 0v4.909a.95.95 0 0 1-.949.948ZM44.148 34.674a.949.949 0 0 1-.949-.949v-4.902a.949.949 0 0 1 1.898 0v4.902a.949.949 0 0 1-.949.95ZM40.888 26.508H35.98a.949.949 0 1 1 0-1.897h4.908a.949.949 0 1 1 0 1.897ZM52.318 26.508H47.44a.948.948 0 1 1 0-1.897h4.908a.949.949 0 0 1 0 1.897h-.031Z" fill="#353535"/><path d="M121.505 113.594a10.225 10.225 0 0 1-9.448-6.305 10.227 10.227 0 0 1 2.212-11.142 10.221 10.221 0 0 1 17.452 7.226 10.236 10.236 0 0 1-10.216 10.221Zm0-18.54a8.324 8.324 0 1 0-.013 16.648 8.324 8.324 0 0 0 .013-16.647ZM389.732 202.243a4.5 4.5 0 0 1-.757 2.496 4.496 4.496 0 0 1-6.912.677 4.486 4.486 0 0 1 .688-6.91 4.489 4.489 0 0 1 4.214-.412 4.488 4.488 0 0 1 2.767 4.149Z" fill="#fff"/><path d="M256.399 480.404a.948.948 0 0 1 0-1.898 58.116 58.116 0 0 0 7.426-.721.962.962 0 0 1 .304 1.898 61.086 61.086 0 0 1-7.673.74l-.057-.019Zm-7.59-.266h-.095a60.907 60.907 0 0 1-7.59-1.265.946.946 0 0 1-.592-.424.948.948 0 0 1 .304-1.31.952.952 0 0 1 .718-.119c2.421.566 4.876.976 7.35 1.227a.946.946 0 0 1 .901.996.946.946 0 0 1-.996.901v-.006Zm22.55-2.132a.948.948 0 0 1-.266-1.859 58.98 58.98 0 0 0 7.021-2.53.94.94 0 0 1 .757-.059.957.957 0 0 1 .558.515.939.939 0 0 1 .001.76.932.932 0 0 1-.225.316.934.934 0 0 1-.332.201 59.147 59.147 0 0 1-7.249 2.625.947.947 0 0 1-.265.031Zm-37.262-1.265a.935.935 0 0 1-.323-.057 76.095 76.095 0 0 1-7.078-2.966.952.952 0 0 1-.228-1.562.955.955 0 0 1 .685-.243.938.938 0 0 1 .359.091 73.758 73.758 0 0 0 6.907 2.897.948.948 0 0 1-.322 1.84Zm51.12-4.832a.966.966 0 0 1-.809-.456.949.949 0 0 1 .31-1.303 45.916 45.916 0 0 0 5.99-4.396.959.959 0 0 1 1.35.086.954.954 0 0 1-.085 1.35 48.536 48.536 0 0 1-6.237 4.573.967.967 0 0 1-.525.152l.006-.006Zm-64.802-1.67a.94.94 0 0 1-.481-.133 118.64 118.64 0 0 1-6.458-4.118.95.95 0 0 1 1.075-1.562 113.083 113.083 0 0 0 6.326 4.048.954.954 0 0 1 .431 1.065.947.947 0 0 1-.912.7h.019Zm113.292-2.682a.948.948 0 1 1 0-1.898 85.699 85.699 0 0 0 7.489-.436.954.954 0 1 1 .196 1.898 88.22 88.22 0 0 1-7.66.449l-.025-.013Zm-7.59-.171h-.057a150.782 150.782 0 0 1-7.591-.632.954.954 0 0 1 .209-1.898c2.6.291 5.13.5 7.515.633a.941.941 0 0 1 .663.295.946.946 0 0 1-.349 1.54.945.945 0 0 1-.365.062h-.025Zm22.644-1.448a.954.954 0 1 1-.196-1.898 65.892 65.892 0 0 0 7.211-1.967.954.954 0 0 1 1.177 1.315.959.959 0 0 1-.545.488 67.518 67.518 0 0 1-7.419 2.017c-.074.025-.15.042-.228.051v-.006Zm-37.724-.253a.815.815 0 0 1-.171 0 107.15 107.15 0 0 1-7.489-1.582.94.94 0 0 1-.762-.774.95.95 0 0 1 1.211-1.066c2.417.594 4.89 1.119 7.369 1.556a.951.951 0 1 1-.158 1.897v-.031Zm-14.731-3.656a.94.94 0 0 1-.298-.045 83.277 83.277 0 0 1-7.185-2.7.967.967 0 0 1-.314-.21.948.948 0 0 1-.186-1.056.97.97 0 0 1 .528-.514.978.978 0 0 1 .37-.067.966.966 0 0 1 .367.082c2.069.892 4.27 1.72 6.547 2.486a34.257 34.257 0 0 0 3.605-5.858.954.954 0 0 1 .916-.577.962.962 0 0 1 .672.324.937.937 0 0 1 .23.711.938.938 0 0 1-.11.365 35.934 35.934 0 0 1-4.156 6.616.953.953 0 0 1-.569.348.916.916 0 0 1-.417.101v-.006Zm-88.428-.348a.933.933 0 0 1-.575-.203 161.882 161.882 0 0 1-5.927-4.807.94.94 0 0 1-.332-.646.938.938 0 0 1 .221-.692.952.952 0 0 1 1.338-.11 178.713 178.713 0 0 0 5.857 4.756.953.953 0 0 1 .32 1.06.944.944 0 0 1-.902.642Zm155.248-.532a.947.947 0 0 1-.849-1.369.96.96 0 0 1 .45-.44 78.842 78.842 0 0 0 6.642-3.472.948.948 0 0 1 .955 1.638c-2.264 1.322-4.554 2.53-6.8 3.555a.994.994 0 0 1-.398.095v-.007Zm-80.742-5.142a.967.967 0 0 1-.468-.12 54.863 54.863 0 0 1-6.439-4.263.952.952 0 0 1 1.163-1.506 51.852 51.852 0 0 0 6.212 4.112.95.95 0 0 1-.468 1.771v.006Zm93.854-2.454a.946.946 0 0 1-.892-1.256.945.945 0 0 1 .354-.471 129.6 129.6 0 0 0 6.06-4.478.949.949 0 0 1 1.164 1.493 133.784 133.784 0 0 1-6.142 4.541.957.957 0 0 1-.544.177v-.006Zm-179.954-1.67a.953.953 0 0 1-.632-.247 322.835 322.835 0 0 1-5.573-5.205.938.938 0 0 1-.311-.669.94.94 0 0 1 .57-.905.95.95 0 0 1 1.05.201 209.175 209.175 0 0 0 5.541 5.168.952.952 0 0 1-.099 1.484.953.953 0 0 1-.533.173h-.013Zm106.777-3.511h-.209a.945.945 0 0 1-.729-.761.946.946 0 0 1 .008-.371 33.55 33.55 0 0 0 .791-7.299.958.958 0 0 1 1.311-.888.946.946 0 0 1 .514.508.93.93 0 0 1 .072.361 35.31 35.31 0 0 1-.835 7.729.938.938 0 0 1-.923.728v-.007Zm-32.543-1.72a.952.952 0 0 1-.715-.323 31.685 31.685 0 0 1-4.428-6.439.949.949 0 1 1 1.689-.86 29.868 29.868 0 0 0 4.137 6.053.947.947 0 0 1 .153 1.017.941.941 0 0 1-.868.552h.032Zm117.694-2.423a.927.927 0 0 1-.721-.329.943.943 0 0 1 .095-1.334 100.936 100.936 0 0 0 5.509-5.117.95.95 0 0 1 1.341 1.341 102.106 102.106 0 0 1-5.611 5.212.952.952 0 0 1-.613.234v-.007Zm-202.928-2.833a.94.94 0 0 1-.664-.272 580.59 580.59 0 0 1-5.382-5.377.945.945 0 0 1 .029-1.318.949.949 0 0 1 1.318-.016 876.123 876.123 0 0 0 5.37 5.363.957.957 0 0 1 0 1.341.968.968 0 0 1-.671.285v-.006Zm213.605-7.926a.927.927 0 0 1-.633-.221.95.95 0 0 1-.338-.643.937.937 0 0 1 .218-.692c1.626-1.942 3.163-3.953 4.516-5.971a.95.95 0 0 1 1.682.37.95.95 0 0 1-.113.693 76.753 76.753 0 0 1-4.63 6.129.958.958 0 0 1-.702.341v-.006Zm-95.815-.152a.945.945 0 0 1-.924-.733 33.358 33.358 0 0 0-2.53-6.92.954.954 0 0 1-.019-.705.952.952 0 0 1 1.721-.13 34.91 34.91 0 0 1 2.675 7.318.955.955 0 0 1-.702 1.145 1.509 1.509 0 0 1-.221.032v-.007Zm-39.185-.095a.946.946 0 0 1-.937-.79 28.842 28.842 0 0 1-.373-4.611 27.285 27.285 0 0 1 .184-3.22.954.954 0 1 1 1.897.221 26.14 26.14 0 0 0-.17 2.999c-.002 1.44.114 2.879.347 4.301a.941.941 0 0 1-.16.707.93.93 0 0 1-.618.381.693.693 0 0 1-.17.019v-.007Zm-89.307-2.58a.953.953 0 0 1-.67-.279 2280.936 2280.936 0 0 0-5.358-5.376.95.95 0 1 1 1.341-1.347c1.775 1.779 3.563 3.576 5.364 5.389a.942.942 0 0 1 .197 1.031.954.954 0 0 1-.874.582Zm232.77-9.703a.95.95 0 0 1-.835-1.379 64.473 64.473 0 0 0 3.118-6.793.957.957 0 0 1 .869-.624.96.96 0 0 1 .686.271.935.935 0 0 1 .286.68.95.95 0 0 1-.076.368 67.424 67.424 0 0 1-3.207 6.99.95.95 0 0 1-.841.487Zm-243.592-.993a.953.953 0 0 1-.633-.266 364.59 364.59 0 0 0-5.509-5.187.946.946 0 0 1 .171-1.639.94.94 0 0 1 .775.005c.122.055.23.136.319.236a297.831 297.831 0 0 1 5.553 5.219.942.942 0 0 1 .27.486.958.958 0 0 1-.049.555.957.957 0 0 1-.885.591h-.012Zm132.697-.19a.953.953 0 0 1-.752-.373 32.056 32.056 0 0 0-5.06-5.332.951.951 0 0 1-.097-1.31.947.947 0 0 1 1.305-.152 33.48 33.48 0 0 1 5.376 5.643.953.953 0 0 1 .189.701.952.952 0 0 1-.935.823h-.026Zm-30.753-1.373a.9.9 0 0 1-.405-.088.955.955 0 0 1-.455-1.265 17.194 17.194 0 0 1 4.902-6.269.947.947 0 0 1 1.523.481.955.955 0 0 1-.353 1.012 15.359 15.359 0 0 0-4.358 5.592.93.93 0 0 1-.829.537h-.025Zm19.014-7.932a.86.86 0 0 1-.329-.063 14.777 14.777 0 0 0-7.009-.816.956.956 0 1 1-.253-1.897 16.606 16.606 0 0 1 7.939.936.95.95 0 0 1-.323 1.84h-.025Zm-132.198-.727a.925.925 0 0 1-.633-.221 133.93 133.93 0 0 0-4.902-3.947l-.993-.759a.96.96 0 0 1-.392-.63.944.944 0 0 1 .465-.97.952.952 0 0 1 1.072.088l1.005.765a138 138 0 0 1 4.966 4.004.95.95 0 0 1-.633 1.67h.045Zm260.348-2.891a.96.96 0 0 1-.579-.193.95.95 0 0 1-.363-.627.938.938 0 0 1 .025-.369 71.457 71.457 0 0 0 1.518-7.331.951.951 0 0 1 .38-.628.972.972 0 0 1 .714-.175.963.963 0 0 1 .803 1.094 73.609 73.609 0 0 1-1.556 7.527.946.946 0 0 1-.911.702h-.031Zm-272.442-6.274a.95.95 0 0 1-.538-.171 168.966 168.966 0 0 0-6.325-4.13.947.947 0 0 1-.473-.974.953.953 0 0 1 .396-.633.96.96 0 0 1 .732-.15.949.949 0 0 1 .35.15 167.295 167.295 0 0 1 6.389 4.175.946.946 0 0 1 .027 1.549.947.947 0 0 1-.565.184h.007Zm-12.885-8.027a.974.974 0 0 1-.468-.127c-2.195-1.265-4.428-2.435-6.654-3.561a.939.939 0 0 1-.474-.55.933.933 0 0 1 .053-.724.942.942 0 0 1 .55-.474.94.94 0 0 1 .725.053 173.29 173.29 0 0 1 6.736 3.606.955.955 0 0 1 .456 1.07.953.953 0 0 1-.924.707Zm287.635-.67h-.05a.955.955 0 0 1-.898-1 84.76 84.76 0 0 0 .126-4.763c0-.911 0-1.822-.038-2.745a.946.946 0 0 1 .26-.678.94.94 0 0 1 1.336-.035c.182.171.29.407.302.656 0 .943.038 1.898.038 2.802 0 1.645-.045 3.283-.127 4.864a.952.952 0 0 1-.917.899h-.032Zm-301.184-6.187a.948.948 0 0 1-.392-.082 145.941 145.941 0 0 0-6.958-2.916.95.95 0 0 1-.672-.868.943.943 0 0 1 .274-.707.945.945 0 0 1 1.081-.19c2.335.905 4.707 1.898 7.053 2.948a.944.944 0 0 1 .542 1.064.95.95 0 0 1-.928.751Zm-79.83-.544a.95.95 0 0 1-.532-1.733 57.622 57.622 0 0 1 6.635-3.928.95.95 0 0 1 .854 1.695 56.223 56.223 0 0 0-6.42 3.796.937.937 0 0 1-.506.17h-.032Zm65.674-4.94a.967.967 0 0 1-.297-.044 121.304 121.304 0 0 0-7.223-2.113.946.946 0 0 1-.564-1.511.942.942 0 0 1 .657-.363.945.945 0 0 1 .381.04c2.41.633 4.877 1.341 7.337 2.138a.952.952 0 0 1 .651 1.052.946.946 0 0 1-.942.801Zm-52.158-1.897a.949.949 0 0 1-.31-1.847 60.977 60.977 0 0 1 7.458-1.993.964.964 0 0 1 .715.134.947.947 0 0 1 .277 1.315.937.937 0 0 1-.6.411 59.29 59.29 0 0 0-7.198 1.936.894.894 0 0 1-.31.069l-.032-.025Zm367.087-1.613a.95.95 0 0 1-.942-.854 128.736 128.736 0 0 0-.981-7.47.961.961 0 1 1 1.898-.304c.417 2.581.753 5.13.999 7.59a.938.938 0 0 1-.211.696.957.957 0 0 1-.643.342h-.12Zm-329.622-.278h-.171a97.753 97.753 0 0 0-7.432-1.076.949.949 0 0 1-.642-.347.95.95 0 0 1-.1-1.055.958.958 0 0 1 .567-.461.967.967 0 0 1 .37-.034c2.474.253 5.023.632 7.591 1.094a.942.942 0 0 1 .613.394.953.953 0 0 1 .153.713.965.965 0 0 1-.918.797l-.031-.025Zm-22.651-1.266a.95.95 0 1 1-.082-1.897 76.457 76.457 0 0 1 7.672-.291.949.949 0 0 1 0 1.898 72.602 72.602 0 0 0-7.476.284l-.114.006Z" fill="#99B9FF"/></svg>