<svg width="52" height="52" fill="none" xmlns="http://www.w3.org/2000/svg"><path d="M40.667 6H11.333A5.34 5.34 0 0 0 6 11.333v29.334A5.34 5.34 0 0 0 11.333 46h29.334A5.34 5.34 0 0 0 46 40.667V11.333A5.34 5.34 0 0 0 40.667 6ZM11.333 7.333h29.334a4.004 4.004 0 0 1 4 4V34H7.333V11.333a4.004 4.004 0 0 1 4-4Zm29.334 37.334H11.333a4.004 4.004 0 0 1-4-4v-5.334h37.334v5.334a4.004 4.004 0 0 1-4 4Z" fill="#00AEEF"/><path d="m14.72 38.755-2.46-1.814a1.357 1.357 0 0 0-1.443-.125c-.51.265-.827.795-.817 1.37v3.628c-.01.575.307 1.105.817 1.37.465.24 1.026.19 1.442-.125l2.461-1.814a1.57 1.57 0 0 0 0-2.49Zm-.791 1.416-2.51 1.823a.193.193 0 0 1-.086-.18v-3.628c0-.101.046-.16.134-.171l2.46 1.814a.24.24 0 0 1 0 .342h.002ZM40.667 36.667H38A.667.667 0 1 0 38 38h2.667a.667.667 0 0 0 0-1.333ZM40.667 39.333H38a.667.667 0 1 0 0 1.334h2.667a.667.667 0 0 0 0-1.334ZM40.667 42H38a.667.667 0 1 0 0 1.333h2.667a.667.667 0 0 0 0-1.333ZM34.667 39.333H23.333v-.666a.667.667 0 0 0-1.333 0v.666h-4a.667.667 0 1 0 0 1.334h4v.666a.667.667 0 1 0 1.333 0v-.666h11.334a.667.667 0 0 0 0-1.334ZM16.667 32h20.666a.667.667 0 1 0 0-1.333h-4v-7.334a.667.667 0 1 0-1.333 0v7.334h-2V26a.667.667 0 0 0-1.333 0v4.667h-2v-2a.667.667 0 0 0-1.334 0v2h-2v-4a.667.667 0 1 0-1.333 0v4h-2V28a.667.667 0 1 0-1.333 0v2.667h-2v-3.045l5.313-4.973 3.06 2.95c.257.256.605.397.967.392.357-.004.698-.154.942-.415L34 18.311V20a.667.667 0 1 0 1.334 0v-3.333c0-.01-.005-.018-.005-.028a.652.652 0 0 0-.046-.226l-.003-.01a.662.662 0 0 0-.127-.188c-.016-.016-.033-.03-.05-.044a.651.651 0 0 0-.14-.094.663.663 0 0 0-.296-.077h-3.333a.667.667 0 0 0 0 1.333h1.756l-7.115 7.316-3.087-2.978a1.338 1.338 0 0 0-1.785.009l-4.435 4.123V10a.667.667 0 0 0-1.334 0v20.667c0 .736.597 1.333 1.334 1.333Z" fill="#00AEEF"/></svg>