<svg width="70" height="70" fill="none" xmlns="http://www.w3.org/2000/svg"><path d="M61.25 64H8.75c-1.16-.002-2.272-.297-3.092-1.117a4.38 4.38 0 0 1-1.283-3.092v-35a4.38 4.38 0 0 1 4.375-4.375h52.5a4.38 4.38 0 0 1 4.375 4.375v35a4.38 4.38 0 0 1-1.283 3.092c-.82.82-1.932 1.115-3.092 1.116ZM9 23c-.387 0-1.227.226-1.5.5-.273.273-.5.904-.5 1.291v35c0 .387.227.935.5 1.209.273.273.863.723 1.25.723h52.5c.387 0 .977-.45 1.25-.724.273-.273.634-.821.635-1.208v-35c0-.387-.362-1.018-.635-1.291-.273-.274-.613-.5-1-.5H9Z" fill="#00AEEF"/><path d="M24.999 23h-9a8.25 8.25 0 0 1-.99-.095 1.458 1.458 0 0 1-.427-1.03v-2.917a2.92 2.92 0 0 1 2.917-2.917h5.833a2.92 2.92 0 0 1 2.917 2.917v2.916c0 .387-.154.758-.427 1.032 0 0-.436.094-.823.094Zm-7.5-2.584h5.833v-1.458h-5.833v1.458ZM54 23h-9.5c-.177-.074-.188.041-.323-.094a1.46 1.46 0 0 1-.427-1.032v-2.916a2.92 2.92 0 0 1 2.917-2.917H52.5a2.92 2.92 0 0 1 2.917 2.917v2.916a1.46 1.46 0 0 1-.427 1.032c-.136.135-.313.02-.49.094H54Zm-7.333-2.584H52.5v-1.458h-5.833v1.458Z" fill="#00AEEF"/><path d="M49.582 18.958a1.456 1.456 0 0 1-1.458-1.458v-5.834a2.92 2.92 0 0 0-2.917-2.916H24.79a2.92 2.92 0 0 0-2.916 2.916V17.5a1.458 1.458 0 1 1-2.917 0v-5.834a5.84 5.84 0 0 1 5.833-5.833h20.417a5.84 5.84 0 0 1 5.833 5.833V17.5a1.46 1.46 0 0 1-1.458 1.458ZM35.001 56.875a14.583 14.583 0 1 1 10.32-24.891c1.68 1.681 3.18 4.516 4.103 6.873.14.36.577 1.643.077 1.643-.5 0-.623-.086-1 0-.376.085-1.22-1.547-1.5-2-.877-2.198-2.192-2.904-3.745-4.458A11.668 11.668 0 1 0 35 53.958a11.733 11.733 0 0 0 7.595-2.836c2.114-1.818 4.475-4.367 4.905-7.122.083-.528.614-1 1-1 1 0 .98 1.088.923 1.47A14.668 14.668 0 0 1 35 56.875Z" fill="#00AEEF"/><path d="M22.196 40.834H5.833a1.458 1.458 0 0 1-1.03-2.49c.273-.273.644 0 1.03 0H22.096c.387 0 .858-.273 1.131 0a1.458 1.458 0 0 1-1.03 2.49Z" fill="#00AEEF"/><circle cx="35" cy="42.2" r="12.5" fill="#fff"/><path d="m39.78 42.841.054-.084.004.002.013.009.05.032a78.546 78.546 0 0 1 .776.498 23.486 23.486 0 0 1 1.58 1.098c.03.02.058.041.087.062.144.104.287.21.417.321.259.221.478.474.557.8.023.096.021.237.006.388a4.052 4.052 0 0 1-.23.979.955.955 0 0 1-.181.319l-.003.004a4.195 4.195 0 0 1-.137.188 8.564 8.564 0 0 1-.437.527 11.5 11.5 0 0 1-1.779 1.597c-.82.598-1.84.704-2.75.619a7.352 7.352 0 0 1-2.153-.555c-1.473-.651-3.437-2.073-4.926-3.574-1.49-1.503-2.693-3.276-3.34-4.76a8.28 8.28 0 0 1-.665-2.963c-.027-.979.166-1.888.686-2.418l.008-.007 2.276-1.885a.808.808 0 0 1 .299-.18c.13-.05.288-.089.46-.11.34-.04.745-.011 1.091.163.793.4 1.269 1.056 1.654 1.59.072.098.14.192.206.28.203.266.433.654.63 1.04.196.386.362.778.432 1.054.034.133-.012.287-.077.428a2.74 2.74 0 0 1-.272.444 5.259 5.259 0 0 1-.506.593l-.014.017-.052.061a18.66 18.66 0 0 1-.177.207 11.43 11.43 0 0 1-.468.511l.001.035a.708.708 0 0 0 .046.18c.058.152.177.358.396.579l1.026 1.035.257.26.064.064.016.016.004.004 1.27 1.159h.001l.002.001.005.005.022.02a16.11 16.11 0 0 0 .334.287c.097.08.198.162.284.227a2.127 2.127 0 0 0 .17.114.827.827 0 0 0 .144-.1 5.11 5.11 0 0 0 .367-.363c.113-.12.234-.254.354-.385.169-.187.334-.369.468-.503a.831.831 0 0 1 .498-.223 1.91 1.91 0 0 1 .55.022 3.352 3.352 0 0 1 .626.173l.01.004.003.001h.001l-.038.093Zm0 0 .054-.085-.008-.004-.008-.004-.038.093Zm-8.99-7.105c.036.045.087.107.15.189.145.182.36.458.642.832.44.585.697 1.073.796 1.324-.36.333-.813.755-1.11 1.053m-.478-3.398 6.892 9.865.072.07c-.232.235-.657.457-1.367.266-.858-.231-2.048-1.064-3.188-2.213-1.139-1.15-1.965-2.35-2.194-3.214-.19-.715.03-1.142.263-1.376m-.478-3.398-1.77 1.672c-.344.39-.439.904-.39 1.455.05.551.242 1.127.456 1.617.589 1.354 1.682 2.877 3.08 4.287 1.4 1.41 2.91 2.513 4.253 3.107.486.215 1.056.41 1.603.459.546.05 1.058-.047 1.444-.395l1.695-1.53M30.79 35.736l10.37 10.672m-9.892-7.274.071.07-.07-.07Zm9.893 7.274a.466.466 0 0 1 .028.06l.094-.036-.067-.074-.055.05Zm-8.26-6.283v.002-.002Zm5.835 4.404.061.023.046-.05-.074-.067-.033.094Z" fill="#00AEEF" stroke="#00AEEF" stroke-width=".2"/><path d="m64.083 40.749-15.17.104c-1.415 0-1.5-1.315-1.915-2.353-1-2.5.65.042.915-.261s.625 0 1 0l15.17-.104c.376 0 .736-.303 1 0 .266.303.415.715.415 1.144 0 .428-.149.84-.414 1.143-.265.303-.625.327-1 .327Z" fill="#00AEEF"/></svg>