<svg width="52" height="52" fill="none" xmlns="http://www.w3.org/2000/svg"><path d="M42.129 27.632V14.981A4.52 4.52 0 0 0 46 10.516 4.521 4.521 0 0 0 41.484 6a4.522 4.522 0 0 0-4.516 4.516H6v25.807h19.388c.335 5.39 4.816 9.677 10.29 9.677C41.368 46 46 41.369 46 35.677c0-3.25-1.514-6.151-3.871-8.045ZM41.484 7.29a3.23 3.23 0 0 1 3.226 3.226 3.23 3.23 0 0 1-3.226 3.226 3.23 3.23 0 0 1-3.226-3.226 3.23 3.23 0 0 1 3.226-3.226ZM7.29 11.806h29.868c.154.515.4.99.714 1.41l-3.946 3.946a1.91 1.91 0 0 0-.83-.194c-.297 0-.576.073-.828.194l-1.3-1.3c.12-.253.193-.532.193-.83a1.938 1.938 0 0 0-1.935-1.935 1.938 1.938 0 0 0-1.936 1.935c0 .298.073.577.195.83l-3.236 3.235a1.917 1.917 0 0 0-.83-.194 1.938 1.938 0 0 0-1.935 1.936c0 1.067.868 1.935 1.935 1.935a1.938 1.938 0 0 0 1.936-1.935c0-.298-.073-.577-.194-.83l3.235-3.235c.253.12.532.194.83.194.298 0 .577-.073.829-.195l1.3 1.3c-.12.253-.194.532-.194.83 0 1.067.869 1.936 1.936 1.936a1.938 1.938 0 0 0 1.935-1.936c0-.298-.073-.576-.194-.829l3.947-3.946c.59.443 1.29.743 2.054.853v11.771a10.24 10.24 0 0 0-5.162-1.397c-3.084 0-5.849 1.366-7.741 3.518V26h-3.872v7.742h1.48c-.08.421-.13.853-.156 1.29H7.29V11.807Zm25.807 6.452a.646.646 0 1 1-.001 1.292.646.646 0 0 1 0-1.292Zm-4.516-3.226a.646.646 0 1 1 1.291.002.646.646 0 0 1-1.291-.002Zm-4.517 5.807a.646.646 0 1 1-1.291-.002.646.646 0 0 1 1.291.002Zm11.613 20a5.167 5.167 0 0 1-5.16-5.162 5.167 5.167 0 0 1 5.16-5.16 5.167 5.167 0 0 1 5.162 5.16 5.167 5.167 0 0 1-5.162 5.162ZM26.645 30.69c-.309.557-.564 1.146-.767 1.76h-.523v-5.16h1.29v3.4Zm8.387-4.013v2.58c-3.255.326-5.806 3.08-5.806 6.42 0 .943.209 1.838.575 2.647l-2.238 1.292a8.954 8.954 0 0 1-.918-3.94c0-4.762 3.708-8.666 8.387-8.999Zm.645 18.032a9.028 9.028 0 0 1-7.476-3.971l2.247-1.298a6.442 6.442 0 0 0 5.23 2.688 6.442 6.442 0 0 0 5.229-2.688l2.247 1.298a9.028 9.028 0 0 1-7.477 3.97Zm8.115-5.093-2.238-1.292a6.41 6.41 0 0 0 .575-2.648c0-3.339-2.55-6.094-5.806-6.418v-2.58c4.679.332 8.387 4.236 8.387 8.998a8.956 8.956 0 0 1-.918 3.94Z" fill="#03A9F4"/><path d="M35.677 31.806a3.875 3.875 0 0 0-3.87 3.871 3.875 3.875 0 0 0 3.87 3.871 3.875 3.875 0 0 0 3.871-3.87 3.875 3.875 0 0 0-3.87-3.872Zm0 6.452a2.583 2.583 0 0 1-2.58-2.58 2.583 2.583 0 0 1 2.58-2.581 2.583 2.583 0 0 1 2.581 2.58 2.583 2.583 0 0 1-2.58 2.581ZM8.58 13.097h1.291v1.29h-1.29v-1.29ZM11.161 13.097h9.033v1.29H11.16v-1.29ZM8.58 15.677h1.291v1.29h-1.29v-1.29ZM11.161 15.677h9.033v1.29H11.16v-1.29ZM8.58 18.258h1.291v1.29h-1.29v-1.29ZM11.161 18.258h9.033v1.29H11.16v-1.29ZM8.58 20.839h1.291v1.29h-1.29v-1.29ZM11.161 20.839h9.033v1.29H11.16v-1.29ZM8.58 33.742h3.872V27.29H8.58v6.452Zm1.291-5.161h1.29v3.87h-1.29v-3.87ZM13.742 33.742h3.87V28.58h-3.87v5.16Zm1.29-3.871h1.29v2.58h-1.29v-2.58ZM18.903 33.742h3.871V23.419h-3.87v10.323Zm1.29-9.032h1.29v7.742h-1.29V24.71Z" fill="#03A9F4"/></svg>