<svg width="52" height="52" fill="none" xmlns="http://www.w3.org/2000/svg"><path d="M27.56 37.549h-3.88c-.98 0-1.776.798-1.776 1.778v6.086c0 .324.262.587.586.587h6.26a.586.586 0 0 0 .585-.587v-6.086c0-.98-.796-1.778-1.775-1.778Zm-4.484 7.277v-5.499c0-.333.27-.604.603-.604h3.88c.333 0 .604.271.604.604v5.5h-5.087Z" fill="#03A9F4"/><path d="M36.303 22.26c.117-.735.178-1.484.178-2.235 0-2.982-.935-5.748-2.524-8.023l.956-1.708h7.926a.586.586 0 0 0 0-1.174H34.57a.585.585 0 0 0-.51.3l-.88 1.57C30.61 7.94 26.766 6 22.48 6a13.96 13.96 0 0 0-9.312 3.553.588.588 0 0 0-.047.83.585.585 0 0 0 .827.046 12.79 12.79 0 0 1 8.532-3.255c4.087 0 7.733 1.924 10.084 4.915l-2.393 4.272a.588.588 0 0 0 .51.874.586.586 0 0 0 .512-.3l2.12-3.786a12.79 12.79 0 0 1 1.996 6.876c0 .735-.064 1.469-.187 2.187h-3.11c-.979 0-1.775.798-1.775 1.778v6.271a12.651 12.651 0 0 1-7.17 2.602V20.025a.586.586 0 0 0-.587-.587H9.665a12.71 12.71 0 0 1 2.76-7.392.588.588 0 0 0-.918-.73 13.89 13.89 0 0 0-3.027 8.709c0 .324.263.587.586.587h12.829v12.851c0 .324.262.587.585.587 2.803 0 5.461-.808 7.757-2.346v13.709c0 .324.262.587.586.587h6.258a.586.586 0 0 0 .586-.587v-4.407a.586.586 0 1 0-1.172 0v3.82H31.41V23.99c0-.333.27-.604.603-.604h3.88c.333 0 .603.271.603.604v14.668a.586.586 0 1 0 1.172 0V23.99a1.78 1.78 0 0 0-1.364-1.73Z" fill="#03A9F4"/><path d="M44.225 31.096h-3.88c-.98 0-1.776.797-1.776 1.778v12.539c0 .324.262.587.586.587h6.26a.586.586 0 0 0 .585-.587V32.874c0-.98-.796-1.778-1.775-1.778Zm-4.484 13.73V32.874c0-.333.27-.604.603-.604h3.88c.334 0 .604.27.604.604v11.952h-5.087ZM20 21.922H6.586A.586.586 0 0 0 6 22.51c0 6.085 3.89 11.277 9.308 13.214l-1.622 3.522H7.382a.586.586 0 0 0 0 1.174h6.68a.586.586 0 0 0 .531-.34l1.844-4.005c1.138.3 2.332.46 3.563.46a.586.586 0 0 0 .586-.586V22.509a.586.586 0 0 0-.586-.587Zm-.586 13.425c-.85-.038-1.679-.16-2.478-.358l.714-1.55a.586.586 0 1 0-1.064-.492l-.785 1.706c-4.842-1.685-8.374-6.199-8.616-11.557h12.23v12.251Z" fill="#03A9F4"/><path d="M7.382 37.892h4.868a.586.586 0 0 0 0-1.174H7.382a.586.586 0 0 0 0 1.174ZM37.066 7.956h5.773a.586.586 0 0 0 0-1.173h-5.773a.586.586 0 0 0 0 1.173ZM39.4 19.774c0 .324.261.587.585.587h4.257a.586.586 0 0 0 0-1.174h-4.257a.586.586 0 0 0-.586.587ZM44.242 21.717h-4.257a.586.586 0 0 0 0 1.174h4.257a.586.586 0 0 0 0-1.174ZM44.242 24.247h-4.257a.586.586 0 0 0 0 1.173h4.257a.586.586 0 0 0 0-1.174Z" fill="#03A9F4"/></svg>