<svg width="72" height="72" fill="none" xmlns="http://www.w3.org/2000/svg"><path d="M36 49.114a1.107 1.107 0 0 0 .786-.325l8.28-8.292a1.36 1.36 0 0 0-.934-2.353h-2.94V26.73c-.004-.292-.925-1.305-1.133-1.51-.207-.204.292 1.145 0 1.145s-.3-.205-.507 0c-.208.204-.574-.148-.578.144v12.744a1.11 1.11 0 0 0 1.11 1.11h1.982L36 46.436l-6.066-6.073h1.984a1.11 1.11 0 0 0 1.109-1.11V25.221a.105.105 0 0 1 .1-.11h5.746a.106.106 0 0 1 .1.11v1.509a1.11 1.11 0 0 0 2.218 0v-1.51a2.327 2.327 0 0 0-2.318-2.328h-5.746a2.326 2.326 0 0 0-2.319 2.329v12.923h-2.94a1.358 1.358 0 0 0-1.271.864 1.334 1.334 0 0 0 .31 1.461l8.308 8.32a1.11 1.11 0 0 0 .785.325ZM44.5 52.38a1.11 1.11 0 0 0-1.11-1.11H28.61a1.11 1.11 0 0 0 0 2.22h14.78a1.11 1.11 0 0 0 1.11-1.11ZM17.88 12.332a23.02 23.02 0 0 0-6.877 15.362 3.581 3.581 0 0 0-2.769 3.483v9.218a3.581 3.581 0 0 0 3.572 3.583h2.618a1.11 1.11 0 0 0 1.109-1.109v-7.476a1.11 1.11 0 0 0-2.219 0v6.367h-1.508a1.36 1.36 0 0 1-1.353-1.365v-9.218a1.36 1.36 0 0 1 1.353-1.364h1.508v6.384c0 .146 2.219-.197 2.219-.197v-7.296a1.11 1.11 0 0 0-1.11-1.11h-1.197a20.832 20.832 0 0 1 6.218-13.69 1.11 1.11 0 0 0-1.565-1.572Z" fill="#03A9F4"/><path d="M61.175 27.753c-.31-12.803-12.326-23.09-25.088-22.81a25.926 25.926 0 0 0-14.529 4.37 1.11 1.11 0 0 0 1.238 1.842A23.712 23.712 0 0 1 36.087 7.16c11.514-.25 22.433 8.894 22.86 20.436h-1.375a1.11 1.11 0 0 0-1.11 1.11v14.158a1.11 1.11 0 0 0 1.11 1.109h1.433a16.785 16.785 0 0 1-15.802 18.17v-.607a1.11 1.11 0 0 0-1.109-1.109H36.84a3.317 3.317 0 1 0 0 6.635h5.255a1.11 1.11 0 0 0 1.11-1.11v-1.589a19.034 19.034 0 0 0 18.02-20.561 3.57 3.57 0 0 0 2.542-3.407v-9.222a3.571 3.571 0 0 0-2.591-3.421Zm-20.19 37.09h-4.146a1.099 1.099 0 0 1 0-2.197h4.146v2.198Zm20.562-24.447a1.361 1.361 0 0 1-1.36 1.36h-1.506v-11.94h1.507a1.361 1.361 0 0 1 1.36 1.358v9.222Z" fill="#03A9F4"/></svg>