<svg width="60" height="59" fill="none" xmlns="http://www.w3.org/2000/svg"><path d="m50.267 31.707-6.477-2.7v-1.94a7.222 7.222 0 0 0 3.484-4.837h.145a2.177 2.177 0 0 0 1.59-3.698 2.176 2.176 0 0 0-1.53-.659l.711-1.65a5.868 5.868 0 0 0-2.954-7.66L43.21 7.64a7.436 7.436 0 0 0-7.427.808l-1.13.852a4.543 4.543 0 0 0-2.757 2.056 4.503 4.503 0 0 0-.4 3.787 7.525 7.525 0 0 0-3.311.08 5.845 5.845 0 0 0-3.271-6.66l-2.027-.923a7.435 7.435 0 0 0-7.426.808l-1.13.852a4.522 4.522 0 0 0-2.925 6.406l1.085 2.167a2.177 2.177 0 0 0-1.463 3.75c.417.4.975.619 1.553.607h.145a7.235 7.235 0 0 0 3.484 4.836v1.94l-6.477 2.7A3.62 3.62 0 0 0 7.5 35.059v9.681a.726.726 0 0 0 .726.726h5.08v5.809a.726.726 0 0 0 .726.726h31.936a.726.726 0 0 0 .725-.726v-5.809h5.081a.725.725 0 0 0 .726-.726v-9.681a3.622 3.622 0 0 0-2.233-3.351ZM32.448 16.949l2.026.924a4.413 4.413 0 0 1 2.222 5.765l-.218.497-.744-1.504a.726.726 0 0 0-1.089-.256l-1.161.871a5.805 5.805 0 0 1-6.968 0l-1.161-.871a.717.717 0 0 0-.602-.126.726.726 0 0 0-.483.382l-.802 1.61-.6-1.198a3.072 3.072 0 0 1 2.744-4.444 3.388 3.388 0 0 1 2.825 1.513l.228.342 1.208-.806-.228-.341a4.834 4.834 0 0 0-2.737-1.978 5.96 5.96 0 0 1 5.54-.38Zm4.81 10.363h.726a.725.725 0 0 1 0 1.453h-.726v-1.453Zm-9.435 8.379a7.25 7.25 0 0 0 4.354 0v1.486L30 39.356l-2.177-2.179v-1.486ZM30 34.574a5.812 5.812 0 0 1-5.806-5.81v-2.732l.985-1.973.466.35a7.256 7.256 0 0 0 8.71 0l.466-.35.986 1.973v2.733A5.817 5.817 0 0 1 30 34.574Zm-7.258-5.81h-.726a.725.725 0 0 1 0-1.451h.726v1.452Zm-9.436 14.552v.697H8.953v-8.955a2.174 2.174 0 0 1 1.34-2.01l6.923-2.885a.726.726 0 0 0 .446-.672v-2.858a.76.76 0 0 0-.42-.659 5.785 5.785 0 0 1-3.173-4.55.726.726 0 0 0-.722-.646h-.765a.726.726 0 0 1 0-1.453h.726a.726.726 0 0 0 .725-.73l-.005-.727a.727.727 0 0 0-.076-.32l-1.246-2.492a3.07 3.07 0 0 1 2.096-4.371.743.743 0 0 0 .284-.13l1.248-.944a5.963 5.963 0 0 1 5.952-.646l2.028.921a4.413 4.413 0 0 1 2.221 5.764l-.117.273c-.276.153-.54.324-.794.512l-1.144.857a4.514 4.514 0 0 0-3.391 4.459c.012.674.175 1.337.477 1.94l1.086 2.17h-.635a2.177 2.177 0 0 0-1.54 3.718c.409.408.963.638 1.54.638h.871a7.28 7.28 0 0 0 3.484 4.826v1.883l-10.407 2.892a3.639 3.639 0 0 0-2.658 3.498Zm31.936 7.232h-4.355v-5.809h-1.452v5.809h-18.87v-5.809h-1.452v5.809h-4.355v-7.232a2.183 2.183 0 0 1 1.597-2.099l10.53-2.926 2.604 2.605a.726.726 0 0 0 1.026 0l2.604-2.605 10.526 2.926a2.181 2.181 0 0 1 1.597 2.099v7.232Zm5.806-6.535h-4.355v-.697a3.64 3.64 0 0 0-2.657-3.498l-10.407-2.892v-1.883a7.276 7.276 0 0 0 3.484-4.826h.87a2.177 2.177 0 0 0 1.54-3.719 2.177 2.177 0 0 0-1.54-.638h-.665l.71-1.649a5.868 5.868 0 0 0-2.953-7.66l-1.684-.768-.363-.726a3.07 3.07 0 0 1 2.096-4.372.743.743 0 0 0 .283-.13l1.249-.944a5.964 5.964 0 0 1 5.951-.646l2.028.921a4.412 4.412 0 0 1 2.222 5.764l-.835 1.933a.725.725 0 0 0-.06.29l.006.726a.726.726 0 0 0 .725.726h.726a.726.726 0 0 1 0 1.453h-.765a.726.726 0 0 0-.722.646 5.784 5.784 0 0 1-3.193 4.559.726.726 0 0 0-.403.65v2.858a.727.727 0 0 0 .446.67l6.927 2.888a2.173 2.173 0 0 1 1.34 2.009v8.955Z" fill="#03A9F4"/></svg>