<svg width="507" height="511" fill="none" xmlns="http://www.w3.org/2000/svg"><path d="M5.797 417.924c14.829 36.316 49.562 53.457 71.765 64.415 87.505 43.183 220.53 37.943 316.387-41.136 22.43-18.504 134.792-133.458 109.238-264.514-22.589-115.86-126.359-166.13-234.93-173.762C188.341-2.668 84.27 24.996 47.36 95.739c-23.206 44.481 4.617 58.569-14.468 159.319C16.394 342.263-12.34 373.511 5.797 417.924Z" fill="#CCEDFB"/><path d="M99.244 466.698c-7.13 0-18.442-1.364-31.92-7.827-13.08-6.28-25.071-15.856-35.564-28.471a.927.927 0 0 1-.243-.682.92.92 0 0 1 .653-.82.916.916 0 0 1 .996.328c27.566 33.057 57.523 35.638 66.084 35.638a.917.917 0 1 1 0 1.834h-.006Z" fill="#000"/><path d="M101.599 479.274c-2.861 0-14.064-.409-29.015-6.249-15.648-6.115-38.414-19.635-57.97-49.311a.912.912 0 0 1-.167-.706.913.913 0 0 1 .743-.744.923.923 0 0 1 .706.165c.1.075.184.168.247.276 19.293 29.272 41.704 42.591 57.114 48.614 16.645 6.506 28.85 6.115 28.966 6.115a.884.884 0 0 1 .357.053.903.903 0 0 1 .597.834.918.918 0 0 1-.88.947c-.068 0-.3.006-.698.006ZM481.747 252.756a.984.984 0 0 1-.579-.21.917.917 0 0 1-.295-.976 107.605 107.605 0 0 0 4.653-39.943.919.919 0 0 1 .838-.984.935.935 0 0 1 .991.843 109.38 109.38 0 0 1-4.715 40.616.922.922 0 0 1-.893.654ZM489.996 264.019a.845.845 0 0 1-.318-.062.916.916 0 0 1-.538-1.18c9.081-24.319 10.652-48.504 4.672-71.875a.919.919 0 1 1 1.779-.452c6.072 23.744 4.483 48.308-4.733 72.969a.925.925 0 0 1-.862.6ZM14.994 411.464a6.113 6.113 0 0 1-3.66-11.011 6.118 6.118 0 0 1 9.768 5.248 6.116 6.116 0 0 1-6.108 5.763Zm-.972-1.95a4.288 4.288 0 0 0 4.43-1.703 4.28 4.28 0 1 0-4.43 1.703ZM91.659 184.217a.804.804 0 0 1-.208 0 .917.917 0 0 1-.685-1.101l.874-3.742a.918.918 0 1 1 1.786.415l-.874 3.743a.916.916 0 0 1-.893.685ZM94.722 171.115a.804.804 0 0 1-.207 0 .917.917 0 0 1-.699-.743.91.91 0 0 1 .014-.358l.874-3.742a.916.916 0 0 1 1.786.415l-.875 3.7a.915.915 0 0 1-.892.728ZM102.067 177.723a1.204 1.204 0 0 1-.208 0l-3.749-.856a.916.916 0 0 1 .404-1.785l3.755.85a.92.92 0 0 1 .816 1.018.924.924 0 0 1-1.018.816v-.043ZM88.936 174.728a.758.758 0 0 1-.202 0l-3.736-.875a.916.916 0 0 1-.694-1.097.918.918 0 0 1 1.097-.694l3.749.856a.92.92 0 0 1 .816 1.018.923.923 0 0 1-1.018.816l-.012-.024Z" fill="#000"/><path d="M3.975 96.018c-1.45-13.324-1.021-32.41 9.949-48.638C44.266 2.453 137.018 6.006 156.127 41.302c9.692 17.916.611 44.406-13.667 59.315-21.146 22.013-57.94 22.943-80.797 10.829C39.9 99.883 32.55 77.435 19.036 79.985c-7.51 1.406-12.31 9.68-15.061 16.033Z" fill="#007BB3"/><path d="M47.152 58.523a.917.917 0 0 1-.917-.893.906.906 0 0 1 .887-.941l77.929-2.446a.917.917 0 0 1 .061 1.834l-77.935 2.446h-.025ZM65.57 71.652a.917.917 0 1 1 0-1.835l39.209-1.223a.917.917 0 0 1 .055 1.835l-39.21 1.223h-.054Z" fill="#fff"/><path d="M210.967 174.872c1.896-2.843 23.237-36.078 8.029-72.768-10.646-25.768-36.359-46.07-65.479-46.327-4.892-.036-35.9-.281-51.732 24.955-10.67 17-11.166 40.298.232 56.869 13.551 19.709 38.31 21.806 41.986 22.057 25.713 1.779 39.325-15.098 53.548-7.601 8.702 4.605 11.991 15.349 13.416 22.815Z" fill="#95DBFA"/><path d="m121.312 103.193 73.264-2.287-73.264 2.287Z" fill="#fff"/><path d="M121.316 104.115a.917.917 0 1 1 0-1.834l73.263-2.288a.906.906 0 0 1 .663.242.895.895 0 0 1 .285.645.927.927 0 0 1-.247.658.927.927 0 0 1-.64.29l-73.263 2.287h-.061Z" fill="#000"/><path d="m144.594 112.023 26.215-.82-26.215.82Z" fill="#fff"/><path d="M144.593 112.943a.918.918 0 1 1-.031-1.834l26.215-.82a.927.927 0 0 1 .657.25.91.91 0 0 1 .288.64.92.92 0 0 1-.89.945l-26.209.819h-.03Z" fill="#000"/><path d="M84.561 229.841c-2.971-7.711-7.276-24.325-10.462-29.517a47.088 47.088 0 0 0-13.312-14.297c-3.23-2.323-9.833-6.812-15.006-8.56-5.174-1.749-3.523 8.561 1.076 10.689 4.598 2.128 8.023 5.686 6.677 6.494-.941.562-3.614 3.106-8.359 1.638-5.314-1.638-8.56-6.952-8.072-12.492.081-.97.251-1.93.508-2.868 1.62-5.712-.715-11.906-6.011-14.597a16.393 16.393 0 0 0-9.234-1.657c-5.821.581-9.3 33.253 11.961 45.214 4.403 2.446 22.858 7.528 26.362 13.08 3.504 5.552 7.056 16.351 7.056 16.351l16.816-9.478Z" fill="#fff"/><path d="m67.22 240.67-.348-1.064c-.037-.104-3.547-10.756-6.959-16.149-2.269-3.59-11.79-7.161-18.742-9.784a65.197 65.197 0 0 1-7.29-2.997c-15.965-8.97-18.387-29.162-16.149-39.777.924-4.403 2.544-6.941 4.562-7.143 3.34-.374 6.718.23 9.723 1.737 5.503 2.813 8.255 9.399 6.481 15.666a14.96 14.96 0 0 0-.482 2.697c-.46 5.21 2.666 10.065 7.43 11.539a7.427 7.427 0 0 0 7.135-1.223l.3-.208c-.288-.813-2.544-3.21-6.403-4.99-3.668-1.687-5.68-7.674-4.457-10.744.66-1.663 2.177-2.274 4.054-1.645 5.24 1.768 11.802 6.201 15.244 8.69a48.34 48.34 0 0 1 13.563 14.559c2.061 3.364 4.477 11.05 6.819 18.486 1.351 4.28 2.623 8.341 3.718 11.178l.28.74L67.22 240.67Zm-43.024-75.177c-.58-.002-1.16.027-1.737.086-.868.085-2.159 1.901-2.947 5.686-2.116 10.108.159 29.315 15.287 37.815a65.106 65.106 0 0 0 7.02 2.887c7.595 2.849 17.048 6.396 19.647 10.511 2.917 4.617 5.803 12.621 6.794 15.501l15.165-8.56c-1.046-2.826-2.232-6.586-3.473-10.549-2.202-6.989-4.69-14.908-6.635-18.075a45.913 45.913 0 0 0-13.068-14.022c-3.363-2.446-9.784-6.726-14.761-8.439-1.186-.397-1.56.074-1.761.612-.82 2.054.611 7.075 3.516 8.402 3.522 1.62 7.393 4.647 7.503 6.689a1.527 1.527 0 0 1-.74 1.419 5.692 5.692 0 0 0-.373.251 9.298 9.298 0 0 1-8.726 1.474c-5.59-1.725-9.252-7.381-8.714-13.453.08-1.034.26-2.058.538-3.058 1.535-5.424-.795-11.117-5.546-13.526a15.221 15.221 0 0 0-6.99-1.651Z" fill="#000"/><path d="m56.223 241.511 35.13-22.277s60.85 82.332 80.827 88.16c19.978 5.827 53.812 8.395 53.812 8.395s21.2 52.766-24.295 75.917C129.168 428.598 56.223 241.511 56.223 241.511Z" fill="#00AEEF"/><path d="m227.725 424.24 182.684 24.423c-8.255-26.386-10.768-67.369-3.858-94.17 16.804-65.106 22.913-122.079-12.23-135.752a297.65 297.65 0 0 0-30.575-9.784c-36.353-9.735-103.954-9.258-140.644 15.214-58.287 38.854-72.969 123.161-72.969 123.161l75.281 13.153 2.311 63.755Z" fill="#00AEEF"/><path d="m99.746 429.125.508 8.561a2.7 2.7 0 0 0 1.969 2.446l244.39 68.622a8.712 8.712 0 0 0 7.784-1.578l52.087-43.679-18.235-19.568-288.503-14.804Z" fill="#fff"/><path d="M348.956 510.001a9.631 9.631 0 0 1-2.593-.36l-244.384-68.616a3.624 3.624 0 0 1-2.642-3.272l-.507-8.561a.914.914 0 0 1 .587-.912.91.91 0 0 1 .379-.06l288.503 14.829a.932.932 0 0 1 .612.287l18.234 19.568a.89.89 0 0 1 .245.679.924.924 0 0 1-.324.648l-52.093 43.679a9.66 9.66 0 0 1-6.017 2.091Zm-248.231-79.904.441 7.546a1.83 1.83 0 0 0 1.308 1.621l244.384 68.609a7.792 7.792 0 0 0 6.965-1.406l51.366-43.043-17.324-18.565-287.14-14.762Z" fill="#95DBFA"/><path d="m99.746 429.128 248.151 67.185a7.748 7.748 0 0 0 6.971-1.517l55.542-46.137-234.466-60.581-76.198 41.05Z" fill="#007BB3"/><path d="m435.196 394.547-22.711 41.233a7.711 7.711 0 0 1-10.511 3.057l-14.285-7.521a21.687 21.687 0 0 0-6.005-2.122 12.84 12.84 0 0 0-10.67 2.678l-22.094 18.089c-11.104 11.966 13.264 14.565 18.137 14.064l8.384-.899s9.24.385 16.639 3.057c7.399 2.673 17.843 4.318 28.55.514l.838-.293a31.189 31.189 0 0 0 15.63-12.316l27.254-41.618-29.156-17.923Z" fill="#fff"/><path d="M407.508 469.77a47.717 47.717 0 0 1-15.758-2.776c-6.855-2.446-15.459-2.936-16.302-2.978l-8.311.892c-2.892.306-18.253-.55-21.457-6.928-1.272-2.544-.416-5.448 2.55-8.646l.092-.086 22.093-18.088a13.703 13.703 0 0 1 11.435-2.868 22.389 22.389 0 0 1 6.268 2.22l14.284 7.509a6.738 6.738 0 0 0 5.18.611 6.823 6.823 0 0 0 4.103-3.283l22.711-41.246a.914.914 0 0 1 .57-.44.95.95 0 0 1 .368-.021c.122.018.24.061.346.125l29.131 17.868a.917.917 0 0 1 .288 1.284l-27.267 41.618a32.28 32.28 0 0 1-16.088 12.671l-.838.299a39.976 39.976 0 0 1-13.398 2.263Zm-32.085-7.589h.037c.385 0 9.466.422 16.908 3.058 5.503 1.956 16.375 4.616 27.933.513l.837-.299a30.41 30.41 0 0 0 15.178-11.943l26.734-40.829-27.517-16.872-22.252 40.396a8.648 8.648 0 0 1-2.169 2.595 8.635 8.635 0 0 1-9.59.817l-14.279-7.509a20.966 20.966 0 0 0-5.76-2.03 11.863 11.863 0 0 0-9.906 2.488l-22.014 18.046c-2.36 2.562-3.1 4.757-2.214 6.53 2.446 4.843 15.814 6.342 19.623 5.932l8.384-.899.067.006Z" fill="#000"/><path d="M388.603 322.249c39.454 6.164 32.764 42.432 32.764 42.432l-8.243 54.869 39.588 25.756s79.335-85.322 46.033-153.882c-27.584-56.778-123.729-79.158-123.729-79.158l13.587 109.983Z" fill="#00AEEF"/><path d="M271.835 150.325c-4.378-2.012-6.641 1.333-13.16.428-6.928-.966-14.547-6.145-17.409-13.728-3.455-9.172 1.523-17.88 4.66-23.377 3.137-5.498 7.093-11.57 13.96-14.2 8.983-3.43 12.744 1.835 23.029-1.393 8.365-2.63 7.754-6.727 15.196-8.843 6.206-1.78 24.093-.764 28.092 8.843 2.537 6.114-2.935 9.783-.208 18.834 1.639 5.423 4.219 6.084 6.115 10.273 4.666 10.395-1.18 28.63-12.31 34.739-15.097 8.298-40.419-8.121-47.965-11.576Z" fill="#000"/><path d="m285.72 167.751-3.51 29.137a13.588 13.588 0 0 1-9.985 11.533l-10.121 3.259a2.519 2.519 0 0 0-.611 4.47c25.573 16.927 60.862 16.627 85.34-2.14l2.868-2.195a2.843 2.843 0 0 0-1.082-5.027l-12.524-2.825a13.549 13.549 0 0 1-10.328-10.872l-7.656-42.927-32.391 17.587Z" fill="#fff"/><path d="M302.953 229.442a76.221 76.221 0 0 1-41.991-12.523 3.375 3.375 0 0 1-1.474-3.296 3.421 3.421 0 0 1 2.336-2.813l10.12-3.259a12.616 12.616 0 0 0 9.344-10.769l3.51-29.137a.93.93 0 0 1 .477-.698l32.36-17.58a.915.915 0 0 1 1.159.227c.09.112.151.244.18.384l7.662 42.927a12.612 12.612 0 0 0 9.625 10.139l12.524 2.825a3.757 3.757 0 0 1 2.824 2.868 3.764 3.764 0 0 1-1.387 3.779l-2.862 2.195c-12.744 9.809-28.502 14.731-44.407 14.731Zm-16.376-61.106-3.455 28.666a14.405 14.405 0 0 1-10.652 12.31l-10.084 3.271a1.56 1.56 0 0 0-1.082 1.309 1.513 1.513 0 0 0 .673 1.516c25.762 17.055 60.415 16.187 84.276-2.097l2.868-2.195a1.898 1.898 0 0 0 .703-1.945 1.835 1.835 0 0 0-1.431-1.455l-12.523-2.831a14.45 14.45 0 0 1-11.007-11.619l-7.436-41.667-30.85 16.737Z" fill="#000"/><path d="M314.4 156.085s11.404-5.595 7.393-16.272c-3.669-9.783-11.521-.055-11.521-.055s-6.463-23.414-20.057-14.18a95.185 95.185 0 0 1-26.465 12.591s4.788 23.567 13.386 39.245c5.185 9.454 11.753 16.04 19.494 12.842 21.194-8.678 17.77-34.171 17.77-34.171Z" fill="#fff"/><path d="M292.67 192.012c-5.693 0-11.172-4.739-16.339-14.162-8.561-15.624-13.453-39.264-13.453-39.503a.916.916 0 0 1 .666-1.07 95.23 95.23 0 0 0 26.184-12.462c3.388-2.3 6.684-2.893 9.784-1.749 6.311 2.33 9.907 11.239 11.166 14.908 1.529-1.51 4.397-3.834 7.246-3.369 2.049.33 3.669 1.975 4.733 4.892 3.706 9.875-4.928 15.733-7.282 17.122.348 4.054 1.314 26.447-18.394 34.537a11.325 11.325 0 0 1-4.311.856Zm-27.842-53.2c.942 4.28 5.583 24.423 13.111 38.157 5.937 10.823 12.107 15.018 18.345 12.456 20.307-8.334 17.244-32.972 17.213-33.222a.906.906 0 0 1 .502-.942c.434-.22 10.603-5.375 6.94-15.135-.844-2.25-1.957-3.497-3.308-3.717-2.513-.404-5.644 2.69-6.641 3.919a.922.922 0 0 1-.898.321.914.914 0 0 1-.698-.651c-.037-.128-3.577-12.658-10.542-15.214-2.519-.923-5.247-.403-8.121 1.547a99.155 99.155 0 0 1-25.903 12.481Z" fill="#000"/><path d="m295.315 178.089-.667-1.712 18.296-7.136a17.858 17.858 0 0 0 11.007-20.351l-1.834-8.689 1.798-.373 1.834 8.683a19.69 19.69 0 0 1-1.95 13.455 19.69 19.69 0 0 1-10.206 8.981l-18.278 7.142Z" fill="#000"/><path d="M319.941 131.935a.912.912 0 0 1-.874-.66c-.067-.226-6.91-22.925-22.118-30.942-6.06-3.192-12.701-3.669-19.745-1.357a.921.921 0 0 1-1.104-1.292.92.92 0 0 1 .535-.457c7.534-2.446 14.676-1.945 21.176 1.486 15.899 8.383 22.729 31.082 23.011 32.042a.921.921 0 0 1-.612 1.144.975.975 0 0 1-.269.036ZM289.237 181.515a5.234 5.234 0 1 1 7.338 0 5.192 5.192 0 0 1-7.338 0Z" fill="#007BB3"/><path d="M310.165 147.082c-3.058-7.338 0-15.587 6.726-18.344a44.593 44.593 0 0 1 4.323-1.303c6.176-1.223 10.695 3.058 13.398 9.601 2.911 7.068 1.975 14.675-4.213 17.733-.263.128-2.159.807-2.446.887-7.644 2.091-14.755-1.211-17.788-8.574Z" fill="#95DBFA"/><path d="M330.676 154.64c6.804-2.648 9.978-10.812 7.089-18.233-2.889-7.42-10.746-11.289-17.551-8.64-6.804 2.648-9.978 10.811-7.089 18.232 2.889 7.421 10.747 11.29 17.551 8.641Z" fill="#007BB3"/><path d="m274.627 462.384-193.14-56.123a7.021 7.021 0 0 1-5.057-6.726V267.171a7.015 7.015 0 0 1 8.976-6.727l193.135 56.093c2.996.868 4.617 3.669 4.617 6.781l-.294 131.472c0 4.702-3.748 8.903-8.237 7.594Z" fill="#fff"/><path d="m278.54 316.534-1.798-.526v146.606a6.986 6.986 0 0 0 6.861-6.971V323.291a7.025 7.025 0 0 0-5.063-6.757Z" fill="#000"/><path d="M191.006 470.444v-105.96a11.948 11.948 0 0 0-8.561-11.46l-28.263-8.438a7.69 7.69 0 0 0-6.794 1.23 7.704 7.704 0 0 0-3.075 6.181v131.471a6.907 6.907 0 0 0 4.934 6.623l39.381 11.722a6.929 6.929 0 0 0 4.671-.256l34.177-14.468a2.764 2.764 0 0 0 1.685-2.673 2.756 2.756 0 0 0-1.93-2.501l-36.225-11.471Z" fill="#95DBFA"/><path d="M198.533 319.175 148.55 304.2a1.604 1.604 0 0 1-1.144-1.535v-4.366a1.635 1.635 0 0 1 2.098-1.56l48.583 14.554a2.49 2.49 0 0 1 1.773 2.385v4.507a1.036 1.036 0 0 1-.415.827 1.032 1.032 0 0 1-.912.163ZM192.046 496.385a.917.917 0 0 1-.917-.917v-28.777a.917.917 0 1 1 1.834 0v28.777a.923.923 0 0 1-.268.648.922.922 0 0 1-.649.269Z" fill="#CCEDFB"/><path d="M190.604 503.035a7.96 7.96 0 0 1-2.238-.324l-39.386-11.765a7.872 7.872 0 0 1-5.589-7.479v-53.065a.916.916 0 1 1 1.834 0v53.065a6.033 6.033 0 0 0 4.281 5.742l39.392 11.759a5.87 5.87 0 0 0 2.116.239.92.92 0 0 1 .927 1.209.918.918 0 0 1-.805.619h-.532Z" fill="#000"/><path d="M144.312 431.319a.918.918 0 0 1-.917-.917v-78.406a8.617 8.617 0 0 1 11.08-8.261l28.263 8.439a12.955 12.955 0 0 1 9.172 12.34l-.654 42.119a.895.895 0 0 1-.067.354.903.903 0 0 1-.507.489.876.876 0 0 1-.355.056.911.911 0 0 1-.84-.577.905.905 0 0 1-.065-.352l.654-42.102a11.102 11.102 0 0 0-7.852-10.597l-28.257-8.439a6.778 6.778 0 0 0-8.744 6.531v78.406a.918.918 0 0 1-.911.917ZM190.995 480.238a.917.917 0 0 1-.917-.918v-35.723a.919.919 0 0 1 1.566-.649.919.919 0 0 1 .269.649v35.723a.917.917 0 0 1-.918.918Z" fill="#000"/><path d="M276.275 463.534a6.648 6.648 0 0 1-1.901-.275l-71.496-20.761a.917.917 0 1 1 .513-1.761l71.49 20.791a4.762 4.762 0 0 0 4.311-.801 7.426 7.426 0 0 0 2.758-5.889l.294-131.471c0-2.929-1.517-5.192-3.957-5.901l-193.134-56.16a6.119 6.119 0 0 0-7.154 3.136 6.113 6.113 0 0 0-.649 2.722v132.352a6.116 6.116 0 0 0 4.397 5.858l55.75 16.199a.923.923 0 0 1 .623 1.137.907.907 0 0 1-.78.655.916.916 0 0 1-.357-.031l-55.75-16.198a7.986 7.986 0 0 1-5.717-7.62V267.164a7.95 7.95 0 0 1 10.15-7.619l193.135 56.123c3.204.93 5.277 3.938 5.277 7.662l-.293 131.472a9.29 9.29 0 0 1-3.492 7.338 6.633 6.633 0 0 1-4.018 1.394Z" fill="#000"/><path d="M400.42 105.221c17.925-4.115 29.121-21.983 25.005-39.909-4.115-17.926-21.983-29.121-39.909-25.006-17.926 4.116-29.121 21.984-25.006 39.91 4.116 17.925 21.984 29.121 39.91 25.005Z" fill="#fff"/><path d="M392.916 106.945a34.206 34.206 0 1 1 29.052-16.051 34.01 34.01 0 0 1-29.052 16.051Zm.116-66.598c-2.469 0-4.931.279-7.338.832a32.224 32.224 0 0 0-24.485 36.855 32.224 32.224 0 0 0 56.381 15.33 32.225 32.225 0 0 0-24.558-53.017Z" fill="#000"/><path d="M415.079 69.568 387.63 52.452a3.1 3.1 0 0 0-4.27.99L371.54 72.4a3.1 3.1 0 0 0 .991 4.27l27.449 17.115a3.1 3.1 0 0 0 4.27-.99l11.819-18.956a3.099 3.099 0 0 0-.99-4.27Z" fill="#95DBFA"/><path d="M400.485 95.33a4.01 4.01 0 0 1-2.122-.61l-27.358-17.123a4.01 4.01 0 0 1-1.272-5.503l11.838-18.944a3.999 3.999 0 0 1 5.504-1.272L414.439 69a4.02 4.02 0 0 1 1.272 5.503l-11.839 18.895a3.987 3.987 0 0 1-2.501 1.78 4.2 4.2 0 0 1-.886.153Zm-15.508-42.229c-.166 0-.332.019-.495.055a2.152 2.152 0 0 0-1.358.966l-11.838 18.895a2.19 2.19 0 0 0 .07 2.422c.166.233.377.43.621.58l27.364 17.123a2.151 2.151 0 0 0 1.639.28 2.196 2.196 0 0 0 1.364-.971l11.832-18.896a2.188 2.188 0 0 0-.067-2.419 2.188 2.188 0 0 0-.618-.583l-27.364-17.122a2.146 2.146 0 0 0-1.15-.33Z" fill="#000"/><path d="M392.189 75.363a.92.92 0 0 1-.832-.532l-6.176-13.453a.919.919 0 0 1 1.669-.764l6.17 13.453a.9.9 0 0 1-.154 1.013.88.88 0 0 1-.677.284Z" fill="#000"/><path d="M392.261 75.398a.919.919 0 0 1-.649-1.566.919.919 0 0 1 .649-.268l14.768-.306a.947.947 0 0 1 .941.899.922.922 0 0 1-.255.654.928.928 0 0 1-.644.281l-14.773.306h-.037Z" fill="#000"/><path d="M332.046 44.574c3.257-18.102-8.777-35.416-26.878-38.673-18.102-3.257-35.416 8.777-38.673 26.878-3.257 18.101 8.777 35.416 26.878 38.673 18.102 3.257 35.416-8.777 38.673-26.878Z" fill="#fff"/><path d="M299.221 72.896a34.242 34.242 0 0 1-33.864-38.541 34.246 34.246 0 0 1 7.569-17.508 34.247 34.247 0 0 1 47.345-3.512 34.242 34.242 0 0 1 5.354 47.172 34.003 34.003 0 0 1-23.157 12.23 32.07 32.07 0 0 1-3.247.16Zm.116-66.604c-1.021 0-2.049.05-3.058.141a32.41 32.41 0 0 0 3.003 64.629 32.409 32.409 0 0 0 20.687-57.321 32.135 32.135 0 0 0-20.632-7.449Z" fill="#000"/><path d="m313.085 51.858-4.409-5.504a2.484 2.484 0 0 0-1.706-.776h-.74a5.35 5.35 0 0 0-1.945.434c-1.737.715-4.549.74-8.224-5.632-3.676-6.372-2.269-8.757-.783-9.912a6.85 6.85 0 0 0 1.584-1.835l.165-.275a2.449 2.449 0 0 0 .165-1.902l-2.526-6.555a1.344 1.344 0 0 0-1.431-.8l-1.626.299a6.08 6.08 0 0 0-3.547 1.993c-3.858 4.507-3.21 13.526 1.963 22.485 5.173 8.958 12.701 14.064 18.528 12.94a6 6 0 0 0 3.413-2.007l1.1-1.29c.191-.234.297-.526.301-.828a1.34 1.34 0 0 0-.282-.835Z" fill="#007BB3"/><path d="M484.834 150.718c2.747-16.924-8.746-32.871-25.671-35.619-16.924-2.747-32.871 8.746-35.618 25.671-2.748 16.924 8.745 32.871 25.67 35.618 16.924 2.748 32.871-8.745 35.619-25.67Z" fill="#fff"/><path d="M454.174 177.723a31.96 31.96 0 0 1-29.528-19.726 31.964 31.964 0 0 1 23.277-43.583 31.96 31.96 0 0 1 38.214 31.321 32 32 0 0 1-31.963 31.988Zm0-62.086a30.129 30.129 0 1 0 30.128 30.098 30.16 30.16 0 0 0-30.128-30.122v.024Z" fill="#000"/><path d="M429.574 154.484v-.972c0-4.097 1.639-4.892 6.244-7.711 2.079-1.278 2.843-1.92 2.843-3.1 0-1.382-1.021-2.073-3.583-2.073a21.883 21.883 0 0 0-4.709.642l-.611-2.972a21.202 21.202 0 0 1 5.76-.868c4.482 0 6.836 2.024 6.836 5.118 0 2.385-1.455 3.767-4.17 5.503-2.128 1.382-4.048 2.404-4.28 3.198h8.53v3.235h-12.86ZM455.815 150.816v3.669h-3.534v-3.669h-8.629v-3.229l8.194-9.931h3.969v10.139h2.446v3.021h-2.446Zm-3.534-9.173-5.119 6.146h5.119v-6.146ZM460.861 155.128h-2.752l5.724-18.198h2.739l-5.711 18.198ZM479.412 139.735l-6.262 14.676h-4.134l6.274-13.765h-7.974v-2.99h12.096v2.079Z" fill="#007BB3"/></svg>