<svg width="218" height="38" fill="none" xmlns="http://www.w3.org/2000/svg"><path d="M4.06 21.117 23.562 0h5.146L14.354 15.527l15.727 21.965h-4.918L11.666 18.464 4.06 26.48v10.954H0V0h4.06v21.117ZM48.21 11.236v3.783H46.55c-2.23 0-4.174.79-5.718 2.315-1.602 1.525-2.402 3.501-2.402 5.985v14.173h-3.775V11.8h3.775v3.444c.057-.113.171-.226.343-.452.114-.169.457-.508 1.03-.96.514-.451 1.086-.847 1.715-1.242a11.64 11.64 0 0 1 2.459-.96 11.851 11.851 0 0 1 3.202-.451h1.03v.056ZM76.346 26.036l-21.16-.057c.114 2.315 1.087 4.291 2.917 5.985 1.772 1.694 3.888 2.541 6.29 2.541 1.602 0 3.146-.339 4.518-1.073 1.373-.734 2.402-1.411 2.974-2.145l.915-1.073 2.459 2.428a6.487 6.487 0 0 0-.457.564c-.23.226-.63.678-1.316 1.3-.686.62-1.43 1.129-2.173 1.58-.8.452-1.773.904-3.031 1.299-1.258.395-2.516.565-3.832.565-3.545 0-6.576-1.3-9.15-3.897-2.573-2.597-3.831-5.759-3.831-9.429s1.258-6.889 3.774-9.486c2.516-2.597 5.49-3.896 8.922-3.896 3.545 0 6.519 1.242 8.864 3.67 2.401 2.428 3.545 5.477 3.545 9.204l-.228 1.92ZM69.998 17c-1.602-1.524-3.546-2.258-5.834-2.258-2.287 0-4.231.79-5.947 2.371-1.716 1.581-2.688 3.445-2.974 5.647h17.614c-.286-2.315-1.258-4.235-2.86-5.76ZM103.168 15.81V0h3.774v37.435h-3.774v-4.009a3.85 3.85 0 0 1-.343.509c-.172.225-.572.564-1.144 1.129-.572.508-1.201 1.016-1.887 1.411-.686.396-1.544.791-2.574 1.073-1.03.34-2.116.452-3.26.452-3.316 0-6.233-1.299-8.692-3.953-2.516-2.597-3.717-5.759-3.717-9.429s1.258-6.832 3.717-9.43c2.516-2.653 5.376-3.952 8.693-3.952 1.086 0 2.173.17 3.202.508 1.03.34 1.887.678 2.63 1.13.687.451 1.316.847 1.831 1.298a27.2 27.2 0 0 1 1.201 1.13l.343.508Zm-2.86 15.697c1.888-1.977 2.86-4.292 2.86-6.945 0-2.654-.972-4.97-2.86-6.945-1.887-1.977-4.003-2.937-6.347-2.937-2.23 0-4.232.96-6.005 2.88-1.773 1.92-2.63 4.235-2.63 7.002 0 2.766.857 5.081 2.63 7.001s3.774 2.88 6.005 2.88c2.344.056 4.46-.96 6.347-2.936ZM116.034 4.917c-.458-.452-.686-1.016-.686-1.694 0-.678.228-1.242.686-1.694.457-.452 1.029-.677 1.716-.677.686 0 1.258.225 1.715.677.458.452.686 1.016.686 1.694 0 .678-.228 1.242-.686 1.694-.457.452-1.029.678-1.715.678-.687 0-1.259-.226-1.716-.678Zm-.172 32.523V11.806h3.775v25.69h-3.775v-.056ZM130.788 9.091V3.219h3.545V11.8h5.662v3.444h-5.662v15.246c0 2.654 1.201 4.009 3.546 4.009.572 0 1.144-.057 1.716-.226.571-.113 1.029-.283 1.315-.34l.457-.225v3.5c-1.086.566-2.287.791-3.66.791-2.23 0-4.003-.62-5.261-1.92-1.258-1.298-1.887-3.161-1.887-5.533V15.245h-4.918v-3.5h2.973c1.43.056 2.174-.847 2.174-2.654Z" fill="#585857"/><path d="M156.295 30.886c2.231 2.202 4.918 3.33 8.064 3.33 3.145 0 5.833-1.128 8.063-3.33 2.231-2.203 3.317-4.97 3.317-8.131V0h4.06v22.755c0 4.122-1.544 7.735-4.575 10.728-3.031 2.992-6.691 4.517-10.865 4.517-4.175 0-7.835-1.525-10.866-4.517-3.031-2.993-4.575-6.606-4.575-10.728V0h4.06v22.755c0 3.218 1.087 5.928 3.317 8.13ZM190.609 0h14.355c3.488 0 6.405 1.13 8.749 3.388 2.288 2.258 3.489 5.025 3.489 8.413 0 3.331-1.144 6.154-3.489 8.413-2.344 2.259-5.204 3.388-8.692 3.388h-10.294v13.89h-4.06V0h-.058Zm14.355 3.783H194.67V19.82h10.294c2.459 0 4.403-.734 5.89-2.202s2.23-3.388 2.23-5.816-.743-4.348-2.23-5.816-3.431-2.202-5.89-2.202Z" fill="#6DC422"/></svg>