<svg width="172" height="80" fill="none" xmlns="http://www.w3.org/2000/svg"><g clip-path="url(#a)"><path d="M75.1 0H0v80h75.1V0Z" fill="#FFDE00"/><path d="M172 0H81.46v80H172V0ZM32.855 65.2c-7.04-1.58-12.598-7.435-14.204-14.935-4.632-2.17-6.732-7.96-4.632-12.894.988-2.303 2.717-4.145 4.94-5.066.186-10.724 8.523-19.21 18.528-18.947 9.758.197 17.602 8.552 17.787 18.947 4.694 2.04 6.979 7.697 5.064 12.697-1.42 3.75-4.879 6.184-8.646 6.119h-.185V32.04c-.433-8.486-7.226-15-15.193-14.539-7.596.46-13.525 7.04-13.71 15.132v18.224c1.543 5.329 5.681 9.342 10.807 10.526 1.359-2.171 4.138-2.763 6.238-1.25 2.038 1.447 2.594 4.408 1.173 6.645-1.358 2.17-4.138 2.763-6.237 1.25a5.956 5.956 0 0 1-1.73-2.83Z" fill="#000"/><path d="M95.542 26.45a.927.927 0 0 1-.37-.724c0-.526.432-.92.926-.92.186 0 .37.065.494.197.803.723 1.853 1.184 2.965 1.184 1.173 0 1.853-.592 1.853-1.382 0-.79-.433-1.25-2.409-1.71-2.223-.592-3.52-1.316-3.52-3.356 0-1.908 1.544-3.223 3.582-3.223 1.173 0 2.347.329 3.335 1.052.247.198.432.46.432.79 0 .526-.432.92-.865.92-.185 0-.308-.065-.432-.13-.741-.527-1.544-.79-2.409-.79-1.111 0-1.729.592-1.729 1.316 0 .855.494 1.25 2.532 1.776 2.224.592 3.397 1.447 3.397 3.224 0 2.105-1.544 3.355-3.767 3.355-1.544-.132-2.903-.658-4.015-1.58ZM112.277 26.84c-.061.527-.494.922-.988.922-.432-.066-.803-.395-.864-.921v-.46c-.494.92-1.483 1.512-2.471 1.512-1.791 0-2.841-1.316-2.841-3.223v-4.54c0-.526.433-.987.927-.987.494 0 .926.46.926.987v3.948c0 1.315.618 2.039 1.729 2.039.988 0 1.791-.79 1.791-1.842V20.13c-.061-.526.309-1.052.865-1.052.494-.066.988.328.988.92v6.843h-.062ZM114.565 20.13a.946.946 0 0 1 .803-1.052c.494-.066.927.328.988.855V20.656a3.12 3.12 0 0 1 2.718-1.578c1.853 0 3.705 1.578 3.705 4.407 0 2.83-1.791 4.408-3.705 4.408-1.05 0-2.1-.526-2.718-1.513v3.026c-.061.527-.494.922-.988.856-.432-.066-.803-.395-.803-.856V20.13Zm6.362 3.355c.123-1.381-.865-2.565-2.162-2.697h-.124c-1.296.066-2.346 1.25-2.285 2.632v.065c-.061 1.382.927 2.632 2.224 2.698h.061c1.297 0 2.286-1.053 2.286-2.434v-.264ZM124.691 20.13c0-.526.37-.986.864-.986s.927.46.927.987v.526a3.119 3.119 0 0 1 2.717-1.579c1.853 0 3.706 1.58 3.706 4.408 0 2.829-1.791 4.408-3.706 4.408-1.05 0-2.1-.526-2.717-1.513v3.026c0 .526-.433.987-.927.987a.923.923 0 0 1-.926-.921V20.13h.062Zm6.361 3.356c.123-1.382-.865-2.566-2.162-2.697h-.123c-1.297.065-2.347 1.25-2.285 2.631v.066c-.062 1.382.926 2.632 2.223 2.697h.062c1.297 0 2.285-1.052 2.285-2.434v-.263ZM134.328 23.484c.124-2.5 2.1-4.408 4.447-4.342 2.223.132 3.952 1.974 4.076 4.342 0 2.435-1.853 4.408-4.2 4.408h-.061c-2.286.066-4.138-1.842-4.2-4.276-.062 0-.062-.066-.062-.132Zm6.67 0c.062-1.447-.988-2.631-2.347-2.697h-.123c-1.297 0-2.409 1.118-2.409 2.5v.197c-.062 1.448.988 2.632 2.347 2.698h.062c1.297 0 2.408-1.119 2.408-2.5.062-.066.062-.132.062-.198ZM144.703 20.135c0-.527.371-.987.865-.987s.926.46.926.987v.855c.309-.987 1.05-1.71 2.038-1.842.433-.066.865.329.927.855v.132c0 .46-.309.855-.742.92-1.296.264-2.161 1.317-2.161 3.29v2.5c0 .527-.432.987-.926.987a.923.923 0 0 1-.927-.921v-6.776ZM151.249 25.331v-4.473h-.309c-.432 0-.741-.395-.741-.79s.371-.79.741-.79h.309v-1.447c.062-.526.494-.92.988-.855.433.066.803.395.803.855v1.448h1.421c.432 0 .741.394.741.789s-.371.79-.741.79h-1.421v4.144c-.062.527.247.987.741 1.053h.247c.124 0 .309 0 .433-.066.432 0 .741.395.741.79 0 .329-.186.657-.494.723-.433.132-.803.263-1.236.198-1.235.131-2.223-.46-2.223-2.369ZM98.755 40.99l-3.644-5.33a1.392 1.392 0 0 1-.185-.723c0-.527.432-.921.926-.921.37 0 .741.263.927.592l2.964 4.54 2.964-4.54c.186-.33.495-.592.865-.592.494 0 .865.394.926.92v.066c0 .264-.123.527-.247.724l-3.582 5.263v3.487c0 .526-.432.987-.926.987-.494 0-.926-.46-.926-.987l-.062-3.487ZM104.434 41.188c0-2.5 1.914-4.54 4.261-4.54 2.347 0 4.261 2.04 4.261 4.54 0 2.434-1.852 4.408-4.199 4.408h-.124c-2.285.066-4.138-1.842-4.199-4.276v-.132Zm6.67 0c.061-1.448-.989-2.698-2.347-2.698h-.062c-1.297 0-2.409 1.119-2.409 2.566v.132c-.061 1.447.989 2.631 2.347 2.697h.062c1.297 0 2.409-1.118 2.409-2.5v-.197ZM121.851 44.474c-.062.526-.495.92-.989.92-.432-.065-.803-.394-.864-.92v-.461c-.494.921-1.482 1.513-2.471 1.513-1.791 0-2.841-1.25-2.841-3.224v-4.54a.946.946 0 0 1 .803-1.052c.494-.066.927.33.988.856v4.144c0 1.316.618 2.04 1.73 2.04.988 0 1.791-.79 1.791-1.842v-4.145c0-.526.37-.987.926-.987.494 0 .927.46.927.987v6.71ZM124.136 37.764c0-.527.371-.987.865-.987s.926.395.926.92v.856c.309-.987 1.05-1.71 1.976-1.842.494 0 .927.395.927.921 0 .46-.309.855-.741.987-1.297.263-2.162 1.316-2.162 3.29v2.5c0 .526-.432.986-.926.986a.924.924 0 0 1-.927-.92v-6.711h.062ZM95.17 61.714l3.891-9.276c.185-.46.618-.79 1.112-.79h.062c.494 0 .926.33 1.111.79l3.953 9.276c.062.132.123.263.123.395 0 .526-.37.921-.864.921a.937.937 0 0 1-.927-.724l-.864-2.105h-5.126l-.865 2.171a.935.935 0 0 1-.864.658c-.495 0-.865-.395-.865-.921.062-.066.062-.263.123-.395Zm6.917-3.158-1.852-4.54-1.853 4.54h3.705ZM107.214 55.396a.945.945 0 0 1 .803-1.053c.494-.066.926.33.988.855v.724a3.12 3.12 0 0 1 2.717-1.579c1.853 0 3.706 1.58 3.706 4.408 0 2.829-1.791 4.408-3.706 4.408-1.111 0-2.1-.526-2.717-1.513v3.026c-.062.526-.494.921-.988.855-.433-.066-.803-.394-.803-.855v-9.276Zm6.361 3.355c.123-1.382-.865-2.566-2.162-2.697h-.123c-1.297.065-2.347 1.25-2.285 2.631v.066c-.062 1.382.926 2.632 2.223 2.697h.062c1.297 0 2.285-1.052 2.285-2.434v-.263ZM117.344 55.396c0-.526.37-.986.864-.986h.062c.494 0 .927.46.927.986v.527a3.118 3.118 0 0 1 2.717-1.58c1.853 0 3.706 1.58 3.706 4.409 0 2.829-1.792 4.407-3.706 4.407-1.112 0-2.1-.526-2.717-1.513v3.027c0 .526-.433.986-.927.986a.923.923 0 0 1-.926-.92v-9.343Zm6.361 3.356c.123-1.382-.865-2.566-2.162-2.698h-.123c-1.297.066-2.347 1.25-2.285 2.632v.066c-.062 1.381.926 2.631 2.223 2.697h.062c1.297 0 2.285-1.118 2.285-2.434v-.263Z" fill="#fff"/></g><defs><clipPath id="a"><path fill="#fff" d="M0 0h172v80H0z"/></clipPath></defs></svg>