<svg width="280" height="55" fill="none" xmlns="http://www.w3.org/2000/svg"><path d="M256.882 7.141h-9.994v28.94h9.994V7.14ZM41.898 50.896c.055-.053.11-.16.165-.213.934-1.705 9.5-17.534 11.532-21.318-.165.213-.22.373-.22.427-.384.692-9.06 16.68-11.477 21.104Zm82.205-6.129-3.35-4.423h-2.526v7.94h2.581v-4.37l3.295 4.37h2.581v-7.94h-2.581v4.423Zm-13.069-4.423-3.295 7.94-1.318-2.29a1.941 1.941 0 0 0-.385-.48c-.164-.214-.329-.373-.439-.427a2.975 2.975 0 0 0-.714-.32c.385-.106.714-.213.934-.32.384-.213.659-.479.878-.799.22-.32.33-.693.33-1.119 0-.48-.11-.96-.384-1.279-.275-.373-.659-.586-1.099-.746a8.255 8.255 0 0 0-1.922-.213h-4.557v7.94h2.745v-3.25h.22c.274 0 .494.053.659.16.165.106.329.32.494.639l1.483 2.452h5.875l.44-1.333h3.13l.439 1.333h2.855l-3.349-7.941h-3.02v.053Zm-6.974 2.878c-.11.16-.275.213-.44.266-.384.054-.604.107-.714.107h-1.153v-1.599h1.208c.495 0 .824.053 1.044.213.164.16.274.32.274.586-.055.16-.11.267-.219.427Zm7.413 2.078.988-2.877.989 2.877h-1.977ZM43.93 22.81a422.844 422.844 0 0 1 3.02-5.543c-.055.054-.11.16-.164.214-.275.533-1.373 2.611-2.856 5.33Zm23.393-8.314H51.288c-.384.053-1.208.16-1.976.533l-.33.16c-.549.32-1.098.8-1.483 1.492-.329.586-1.757 3.251-3.514 6.502l-.604-1.226 3.68-6.768v-.107c0-.053.054-.106.109-.213.494-.373 1.153-.746 2.142-.746h1.592c.44-.053.714-.053.714-.053h12.74l-.33-.693h.989L62.38 7.62 58.92 0h-15.76s-.659 0-1.427.213H.659l.33.746H0l5.491 11.938.165.32h16.803c.275.053 1.977.266 2.691 1.759.165.32.604 1.225 1.153 2.505l1.922 4.21-1.428 2.665c.11-.16.165-.267.165-.267v-.053l1.812-3.358.11.267-1.922 3.57s-.823 1.706-2.855 1.76H9.006l.33.745h-.99l5.931 12.95.22.427h2.965l-.055-.053h13.564c.878-.16 2.196-.586 3.075-1.865.33-.32.714-.693.933-1.173.055-.053.11-.16.165-.266l.494 1.012-.439.853c.11-.16.165-.266.165-.32v-.053l.824-1.546.11.267-.22.426-.714 1.28s-.714 1.545-2.526 1.705H17.407l.33.746h-.989l5.931 12.95.22.48h15.705c.33 0 2.58-.053 3.953-1.972.33-.32.66-.693.934-1.172.44-.746 1.977-3.624 3.844-7.035.33-.64.659-1.28 1.043-1.919 1.153-2.131 2.361-4.317 3.405-6.342.22-.426.439-.852.659-1.226.055-.053.055-.106.11-.16.22-.373.439-.799.604-1.119 1.372-2.558 2.36-4.317 2.36-4.317v-.053s.056-.106.166-.266c.494-.373 1.153-.746 2.141-.746H72.87l-.33-.747h.99l-6.206-13.27ZM33.881 36.187c-.11.16-.165.32-.22.426-.933 1.653-2.8 1.6-2.8 1.6H16.144l-4.722-10.34h.22l.329.746h11.477c2.141 0 3.35-1.279 3.953-2.025.714-.64 1.044-1.332 1.044-1.332.274-.533 4.997-9.167 8.456-15.562.989-1.812 1.867-3.465 2.526-4.69.22-.427.44-.746.604-1.066 0-.213.055-.32.11-.48.11-.266.22-.426.275-.533.878-.64 2.032-.64 2.032-.64h14.716l4.173 9.114h.989l.22.426h-12.63c-1.703 0-2.856.8-3.515 1.493v.053c-.165.16-.274.32-.384.426-.11.16-.22.267-.275.373-.055.054-.055.107-.11.16-.054.107-.054.16-.11.16-.329.746-9.829 18.387-11.64 21.691Zm27.676-9.806h-3.185c-.769 0-1.373.16-1.922.373-.11.053-.274.106-.384.213a5.872 5.872 0 0 0-1.593 1.386c-.054.053-.11.16-.164.213-.165.266-.275.48-.33.533-.164.32-2.087 3.89-4.393 8.1-.714 1.333-1.483 2.772-2.251 4.158a410.478 410.478 0 0 0-2.361 4.316c-.22.373-.385.747-.604 1.066-.22.373-.385.693-.55 1.066-.384.746-.768 1.386-1.043 1.919-.384.693-.659 1.226-.824 1.439-.494.96-1.318 1.332-1.922 1.492-.22.053-.384.053-.549.107H24.436l-4.722-10.34h.22l.329.747H31.74c2.141 0 3.35-1.28 3.953-2.026.714-.64 1.044-1.332 1.044-1.332.164-.373 2.36-4.317 4.777-8.794.55-.959 1.043-1.971 1.592-2.93.44-.854.88-1.653 1.318-2.452.495-.96.989-1.812 1.483-2.665 1.483-2.718 2.636-4.85 2.965-5.436.879-.64 2.032-.64 2.032-.64h14.717l4.173 9.114h.989l.22.426-9.446-.053ZM33.497 36.4a.4.4 0 0 0 .11-.214c.933-1.652 9.5-17.48 11.531-21.318-.164.213-.22.373-.22.427-.384.692-9.005 16.68-11.421 21.104Zm57.823-.32h9.994V12.896h5.821V36.08h9.994V23.023c1.373 0 2.196.16 2.526.533.329.373.494 1.333.494 2.878v9.593h18.78l.549-5.17h3.679l.55 5.17h17.846v-13.11l5.162 13.163h8.731V7.141h-8.347V20.2L161.443 7.14h-8.346v25.422L148.1 7.141h-14.442l-4.284 24.09v-2.772c0-2.345-.109-3.784-.274-4.263-.165-.533-.604-1.066-1.263-1.706-.659-.64-2.032-1.119-4.009-1.492 2.197-.16 3.624-.64 4.393-1.386.769-.799 1.098-2.291 1.098-4.53 0-2.451-.549-4.263-1.592-5.382-1.043-1.12-2.416-1.812-4.064-2.079-1.647-.266-4.832-.426-9.554-.426H85.39v5.756h5.875v23.13h.055Zm49.97-22.544c.55 4.85 1.099 8.953 1.538 12.258h-3.405c.275-2.612.879-6.662 1.867-12.258Zm-24.216-1.44c1.153 0 1.922.16 2.361.427.439.267.659.906.659 1.812v1.6c0 1.278-.22 2.024-.659 2.237-.439.214-1.208.374-2.361.374v-6.45ZM89.398 42.317h2.8v6.022h2.746v-6.022h2.8v-1.972h-8.291v1.972h-.055Zm142.938-18.44h3.02v12.151h9.994V7.141h-9.994v10.34h-3.02V7.14h-9.939v28.94h9.994V23.875h-.055Zm-75.615 24.462h2.746v-7.994h-2.746v7.994Zm77.592-3.144-1.373-4.85h-3.57v7.94h2.252v-6.021l1.702 6.075h2.032l1.757-6.075v6.075h2.252v-7.994h-3.57l-1.482 4.85Zm10.927-4.957c-1.427 0-2.581.373-3.349 1.066-.824.746-1.209 1.759-1.209 3.038 0 .906.22 1.706.605 2.345.384.64.933 1.066 1.592 1.332.659.267 1.483.427 2.471.427s1.812-.16 2.471-.48c.659-.32 1.153-.8 1.483-1.386.329-.586.549-1.332.549-2.291 0-1.28-.384-2.292-1.208-2.985-.824-.746-1.922-1.066-3.405-1.066Zm1.373 5.863c-.329.32-.769.533-1.373.533-.549 0-1.043-.16-1.373-.533-.329-.373-.494-.906-.494-1.759 0-.8.165-1.386.494-1.759.33-.373.769-.533 1.318-.533s1.044.16 1.373.533c.33.32.494.906.494 1.652.055.907-.109 1.493-.439 1.866Zm-24.162.16c.165-.267.275-.48.385-.693.11-.213.165-.426.274-.746l-1.922-.373c-.109.266-.219.48-.329.693a8.675 8.675 0 0 1-1.318-1.066c.494-.32.879-.533 1.098-.693.22-.16.385-.373.495-.587.164-.266.219-.532.219-.799 0-.48-.219-.906-.714-1.226-.494-.32-1.208-.533-2.196-.533-.989 0-1.702.16-2.197.533-.494.373-.714.853-.714 1.386 0 .267.055.533.165.8.11.266.33.586.659.905-.769.267-1.318.64-1.647 1.013-.33.426-.494.853-.494 1.28 0 .639.274 1.172.878 1.598.549.426 1.428.64 2.636.64.769 0 1.428-.054 2.032-.214.439-.106.878-.32 1.263-.533.219.107.439.213.714.373.274.16.494.267.768.427l1.318-1.386c-.164-.106-.329-.16-.439-.213l-.934-.586Zm-4.502-4.637c.164-.106.384-.213.604-.213.274 0 .439.053.604.16a.481.481 0 0 1 .219.426c0 .16-.109.32-.274.533-.165.16-.44.373-.714.533-.439-.426-.659-.746-.659-.96 0-.212.11-.372.22-.479Zm.109 5.383c-.384 0-.713-.107-.988-.32-.275-.213-.384-.426-.384-.693 0-.16.055-.32.164-.48.11-.16.33-.32.659-.532.824.692 1.483 1.225 2.032 1.599-.549.32-1.043.426-1.483.426Zm2.691-13.803c.659-.96.989-2.505.989-4.53 0-2.825-.604-4.904-1.758-6.183-1.153-1.279-3.953-2.93-8.401-4.903-1.538-.693-2.526-1.279-2.856-1.758-.329-.48-.549-1.226-.549-2.186 0-.746.165-1.279.439-1.652.33-.373.769-.533 1.373-.533.549 0 .934.16 1.208.427.22.266.385.906.385 1.918v2.132h9.28v-1.12c0-2.29-.275-3.89-.879-4.849-.604-.96-1.812-1.759-3.624-2.398-1.812-.64-4.063-.96-6.644-.96-2.362 0-4.393.267-6.096.853-1.702.586-2.91 1.386-3.679 2.399-.769 1.012-1.153 2.664-1.153 4.85 0 1.545.275 2.77.824 3.783.549 1.013 1.208 1.759 2.032 2.345.823.586 2.471 1.44 4.942 2.718 2.471 1.226 4.063 2.079 4.667 2.612.604.533.934 1.652.934 3.357 0 .8-.165 1.333-.494 1.759-.33.373-.824.586-1.483.586-.659 0-1.153-.16-1.428-.48-.274-.32-.384-1.012-.384-2.078v-3.517h-9.28v1.865c0 2.185.274 3.837.878 5.01.604 1.172 1.812 2.131 3.734 2.93 1.922.747 4.174 1.12 6.864 1.12 2.416 0 4.558-.32 6.425-1.013 1.867-.693 3.075-1.545 3.734-2.505Zm37.56 12.31c-.164-.213-.329-.372-.439-.426a2.975 2.975 0 0 0-.714-.32c.385-.106.714-.213.934-.32.384-.213.659-.479.878-.799.22-.32.33-.693.33-1.119 0-.48-.11-.96-.384-1.279-.275-.373-.659-.586-1.099-.746a8.255 8.255 0 0 0-1.922-.213h-4.557v7.94h2.745v-3.25h.22c.274 0 .494.053.659.16.165.106.329.32.494.639l1.483 2.452h3.075l-1.318-2.292c-.055-.053-.165-.213-.385-.426Zm-1.921-2.291c-.11.16-.275.213-.44.266-.384.054-.604.107-.714.107h-1.153v-1.599h1.208c.494 0 .824.053 1.044.213.164.16.274.32.274.586-.055.16-.11.267-.219.427Zm23.228-32.03a4.628 4.628 0 0 0-1.483-2.185c-.714-.586-1.812-1.066-3.295-1.386-1.482-.32-3.569-.48-6.26-.48h-10.049v28.94h9.994V24.408h2.691c2.196 0 3.954-.213 5.326-.693 1.373-.426 2.307-1.12 2.801-1.972.494-.852.769-2.185.769-4.05v-2.505c-.11-1.759-.275-3.144-.494-3.997Zm-7.963 5.65c0 1.065-.164 1.758-.549 2.13-.329.32-.988.534-1.922.534h-.714v-7.408c1.318 0 2.142.16 2.581.426.385.32.604.96.604 1.919v2.398Zm-71.057 25.474h2.801v6.022h2.745v-6.022h2.801v-1.972h-8.292v1.972h-.055Zm63.04 2.611h4.228v-1.599h-4.228V42.05h4.558v-1.705h-7.304v7.94h7.469v-1.811h-4.723v-1.546Zm-120.149-1.279c-.494-.213-1.373-.48-2.581-.693-.494-.106-.769-.213-.933-.32-.11-.106-.22-.212-.22-.32 0-.159.055-.319.22-.425.164-.107.384-.16.713-.16.385 0 .714.106.934.266.22.16.384.426.439.8l2.581-.16c-.11-.8-.439-1.44-1.043-1.812-.604-.373-1.483-.587-2.581-.587-.934 0-1.648.107-2.197.32-.549.213-.933.48-1.208.853a1.883 1.883 0 0 0-.384 1.172c0 .64.274 1.12.769 1.546.494.426 1.372.746 2.581.96.713.16 1.208.319 1.372.479.22.16.275.373.275.533 0 .213-.11.426-.33.586-.219.16-.494.267-.878.267-.549 0-.934-.16-1.208-.48-.165-.213-.275-.48-.33-.853l-2.581.16c.055.8.385 1.492.989 1.972.604.533 1.647.8 3.13.8.878 0 1.592-.107 2.141-.32.55-.214.989-.533 1.318-.96.33-.426.495-.906.495-1.385 0-.427-.11-.853-.33-1.173-.274-.533-.659-.8-1.153-1.066Zm8.566-.533h-2.965v-2.771h-2.746v7.94h2.746v-3.197h2.965v3.198h2.746v-7.941h-2.746v2.771Zm-17.517.533c-.494-.213-1.373-.48-2.581-.693-.494-.106-.768-.213-.933-.32-.11-.106-.22-.212-.22-.32 0-.159.055-.319.22-.425.165-.107.384-.16.714-.16.384 0 .714.106.933.266.22.16.385.426.439.8l2.581-.16c-.109-.8-.439-1.44-1.043-1.812-.604-.373-1.483-.587-2.581-.587-.933 0-1.647.107-2.196.32-.55.213-.934.48-1.208.853a1.878 1.878 0 0 0-.385 1.172c0 .64.275 1.12.769 1.546.494.426 1.373.746 2.581.96.714.16 1.208.319 1.373.479.219.16.274.373.274.533 0 .213-.11.426-.329.586-.22.16-.495.267-.879.267-.549 0-.933-.16-1.208-.48-.165-.213-.275-.48-.329-.853l-2.581.16c.055.8.384 1.492.988 1.972.604.533 1.647.8 3.13.8.879 0 1.593-.107 2.142-.32a2.996 2.996 0 0 0 1.318-.96 2.26 2.26 0 0 0 .494-1.385c0-.427-.11-.853-.33-1.173-.274-.533-.659-.8-1.153-1.066Zm31.41-3.304h-4.557v7.94h2.745v-2.93h1.483c1.098 0 1.922-.213 2.471-.693.549-.427.824-1.066.824-1.866 0-.799-.275-1.385-.714-1.812-.549-.426-1.263-.639-2.252-.639Zm0 3.144c-.219.16-.604.267-1.098.267h-.659v-1.759h.769c.494 0 .878.107 1.043.267a.87.87 0 0 1 .275.64c-.055.212-.11.425-.33.585Zm28.39-7.834c1.867-.64 3.075-1.492 3.734-2.452.659-.959.989-2.504.989-4.53 0-2.824-.604-4.903-1.758-6.182-1.153-1.279-3.953-2.93-8.401-4.903-1.538-.693-2.526-1.279-2.856-1.758-.329-.48-.549-1.226-.549-2.186 0-.746.165-1.279.494-1.652.33-.373.769-.533 1.373-.533.549 0 .934.16 1.208.427.22.266.385.906.385 1.918v2.132h9.28v-1.12c0-2.29-.275-3.89-.879-4.849-.604-.96-1.812-1.759-3.624-2.398-1.812-.64-4.063-.96-6.644-.96-2.362 0-4.393.267-6.096.853-1.702.586-2.91 1.386-3.624 2.399-.769 1.012-1.153 2.664-1.153 4.85 0 1.545.275 2.77.824 3.783.549 1.013 1.208 1.759 2.031 2.345.824.586 2.471 1.44 4.943 2.718 2.471 1.226 4.063 2.079 4.667 2.612.604.533.934 1.652.934 3.357 0 .8-.165 1.333-.495 1.759-.329.373-.823.586-1.482.586s-1.153-.16-1.428-.48c-.275-.32-.384-1.012-.384-2.078v-3.517h-9.281v1.865c0 2.185.275 3.837.879 5.01.604 1.172 1.812 2.131 3.734 2.93 1.922.747 4.173 1.12 6.864 1.12 2.361-.053 4.503-.373 6.315-1.066Zm-9.61 9.273h4.229v-1.599h-4.229V42.05h4.558v-1.705h-7.303v7.94h7.468v-1.811h-4.723v-1.546Zm12.081-.16-3.349-4.423h-2.526v7.94h2.58v-4.37l3.295 4.37h2.581v-7.94h-2.581v4.423Zm-21.526.427-1.372-4.85h-3.57v7.94h2.252v-6.021l1.702 6.075h2.032l1.757-6.075v6.075h2.251v-7.994h-3.569l-1.483 4.85Z" fill="#606060"/></svg>