<svg width="258" height="70" fill="none" xmlns="http://www.w3.org/2000/svg"><path d="M32.96 69.624c18.203 0 32.96-14.622 32.96-32.66 0-18.039-14.757-32.661-32.96-32.661C14.757 4.303 0 18.925 0 36.963c0 18.038 14.757 32.661 32.96 32.661Z" fill="#005FA3"/><path d="M45.502 35.35c-1.181-2.397-3.319-5.462-6.862-7.97-6.694-4.682-8.38-10.032-8.38-10.032-9.169 6.8-10.406 14.045-10.069 18.56-5.568.278-10.743 2.285-14.736 5.016-.057-.446-.057-.948-.057-1.505v.167C5.398 52.405 15.41 63.05 28.515 65c-9.674-1.56-17.66-8.137-21.148-17 10.687-6.576 25.648-1.17 25.648-1.17 12.543-5.684 21.88-.947 25.648 1.673-3.206 7.914-10.405 13.933-19.01 16.051 11.53-2.73 20.191-12.206 20.754-23.743-5.85-3.623-10.855-5.127-14.905-5.462Zm-12.543 3.121a27.622 27.622 0 0 0-5.906-2.062c.563-4.793 3.431-11.481 3.431-11.481s1.012 2.786 4.05 6.298c1.294 1.505 1.687 3.511 1.743 5.294-2.193.948-3.318 1.951-3.318 1.951Z" fill="#fff" stroke="#fff" stroke-miterlimit="10"/><path d="M32.96 46.886s-14.905-5.406-25.648 1.17c3.994 10.145 13.95 17.334 25.649 17.334 11.474 0 21.654-6.967 25.648-16.832-3.712-2.62-13.05-7.357-25.648-1.672Z" fill="#85C3E8" stroke="#fff" stroke-miterlimit="10"/><path d="M37.235.96S12.037 5.867 6.412 31.338a26.814 26.814 0 0 0-.844 5.239c0 .167-.056.278-.056.446-.112 1.449-.169 2.786-.056 3.957 3.993-2.731 9.168-4.738 14.736-5.016-.337-4.515.9-11.76 10.068-18.56 0 0 1.744 5.295 8.38 10.032 3.544 2.508 5.626 5.574 6.863 7.97 4.05.39 9.056 1.84 14.961 5.574.057-.892.057-1.784.057-2.731C59.789 19.91 40.103 14.95 38.078 6.2c-1.237-5.183-.843-5.24-.843-5.24Z" fill="#FF1537" stroke="#fff" stroke-miterlimit="10"/><path d="M34.48 31.28c-3.037-3.51-4.049-6.298-4.049-6.298S27.619 31.671 27 36.464a27.622 27.622 0 0 1 5.906 2.062s1.125-1.003 3.318-1.895c0-1.84-.393-3.846-1.743-5.35Z" fill="#FF1537" stroke="#fff" stroke-miterlimit="10"/><path d="M79.867 18.961h-1.294v3.177h-1.8v-7.859h1.8v3.177h1.294l2.081-3.177h1.969l-2.588 3.79 2.7 4.069h-2.08l-2.082-3.177ZM86.391 21.747c-.675-.334-1.18-.836-1.575-1.45-.393-.612-.562-1.337-.562-2.061 0-.78.169-1.45.562-2.063.394-.613.9-1.114 1.575-1.449.675-.334 1.406-.501 2.25-.501.844 0 1.575.167 2.25.501.675.335 1.181.836 1.575 1.45.394.613.562 1.337.562 2.062 0 .78-.169 1.449-.562 2.062-.394.613-.9 1.115-1.575 1.449-.675.334-1.406.502-2.25.502-.844.055-1.575-.168-2.25-.502Zm3.544-1.338c.394-.223.675-.501.9-.892a2.57 2.57 0 0 0 .337-1.281c0-.502-.112-.948-.337-1.282a2.297 2.297 0 0 0-.9-.892 2.483 2.483 0 0 0-1.294-.335c-.45 0-.9.112-1.294.335a2.297 2.297 0 0 0-.9.892 2.57 2.57 0 0 0-.337 1.282c0 .501.112.947.338 1.281.225.39.506.67.9.892.393.223.787.335 1.293.335.45 0 .9-.112 1.294-.335ZM101.691 14.28v7.858h-1.856v-3.233h-3.6v3.233h-1.856v-7.859h1.856v3.122h3.6v-3.122h1.856ZM112.039 20.633v3.177h-1.687v-1.672h-6.637v-7.859h1.8v6.41h3.543v-6.41h1.8v6.41h1.181v-.056ZM119.408 20.689v1.449h-6.131v-7.859h5.962v1.45h-4.162v1.727h3.712v1.394h-3.712v1.839h4.331ZM126.158 14.614c.506.223.9.557 1.181 1.003.282.446.394.947.394 1.505 0 .557-.112 1.059-.394 1.505-.281.446-.675.78-1.181 1.003-.506.223-1.125.334-1.856.334h-1.575v2.174h-1.856v-7.859h3.431c.731 0 1.294.112 1.856.335Zm-.675 3.511c.281-.223.45-.557.45-1.003 0-.446-.169-.78-.45-1.003-.281-.223-.731-.335-1.237-.335h-1.519v2.731h1.519c.506-.056.956-.167 1.237-.39ZM136.285 14.28v7.858h-1.856v-3.233h-3.6v3.233h-1.856v-7.859h1.856v3.122h3.6v-3.122h1.856ZM89.77 40.866V32.84l-3.994 6.577H84.37l-3.937-6.41v7.859h-2.925V27.434h2.587l5.062 8.304 5.006-8.304h2.587V40.81h-2.98v.056ZM96.066 27.434h3.094V40.81h-3.094V27.434ZM105.178 40.198c-1.125-.613-1.969-1.393-2.644-2.452a6.917 6.917 0 0 1-.956-3.567c0-1.338.338-2.508.956-3.567a6.223 6.223 0 0 1 2.644-2.453c1.125-.613 2.362-.891 3.768-.891 1.181 0 2.25.223 3.15.613a5.765 5.765 0 0 1 2.362 1.783l-2.024 1.84c-.9-1.06-2.025-1.561-3.375-1.561-.844 0-1.575.167-2.25.557s-1.181.892-1.519 1.505c-.393.669-.562 1.393-.562 2.23 0 .836.169 1.56.562 2.229.394.669.9 1.17 1.519 1.505.675.39 1.406.557 2.25.557 1.35 0 2.475-.502 3.375-1.56l2.024 1.839c-.618.78-1.462 1.393-2.418 1.783a8.418 8.418 0 0 1-3.206.613 10.178 10.178 0 0 1-3.656-1.003ZM126.888 32.951c.9.725 1.294 1.784 1.294 3.233 0 1.505-.506 2.675-1.462 3.456-.957.78-2.363 1.17-4.106 1.17h-6.075V27.434h3.094v4.403h3.431c1.687 0 2.924.39 3.824 1.114Zm-2.531 5.017c.45-.39.675-.948.675-1.728 0-1.394-.843-2.063-2.587-2.063h-2.812v4.404h2.812c.844-.056 1.462-.223 1.912-.614ZM135.664 35.46h-2.137v5.406h-3.093V27.434h3.093v5.406h2.25l3.543-5.406h3.319l-4.443 6.465 4.555 6.911h-3.543l-3.544-5.35ZM144.215 27.434h3.093V40.81h-3.093V27.434ZM87.8 48.664h-4.332v10.869h-3.037V48.664h-4.275v-2.508h11.7v2.508h-.057ZM100.231 57.025v2.508H89.769V46.156H99.95v2.508h-7.087v2.899h6.243v2.396h-6.243v3.121h7.368v-.055ZM115.078 46.156v13.377h-3.094V48.664h-6.074v10.869h-3.094V46.156h12.262ZM130.376 46.156v13.377h-3.093V48.664h-4.612l-.113 2.787c-.056 1.895-.225 3.456-.45 4.626-.225 1.17-.675 2.062-1.237 2.731-.563.613-1.35.948-2.419.948-.45 0-.956-.056-1.518-.223l.168-2.62c.169.056.338.056.563.056.731 0 1.293-.446 1.575-1.282.281-.892.506-2.23.562-4.124l.169-5.407h10.405ZM136.397 58.864c-1.125-.613-2.025-1.449-2.644-2.452a6.907 6.907 0 0 1-.956-3.567c0-1.338.337-2.508.956-3.567a6.222 6.222 0 0 1 2.644-2.453c1.125-.613 2.362-.891 3.768-.891 1.406 0 2.644.278 3.769.891 1.124.613 2.024 1.45 2.643 2.453a6.907 6.907 0 0 1 .956 3.567 6.907 6.907 0 0 1-.956 3.567 6.225 6.225 0 0 1-2.643 2.452c-1.125.613-2.363.892-3.769.892-1.35 0-2.643-.279-3.768-.892Zm5.962-2.285a4.868 4.868 0 0 0 1.518-1.505c.394-.669.563-1.393.563-2.23 0-.835-.169-1.56-.563-2.229-.393-.669-.843-1.17-1.518-1.505-.619-.39-1.35-.557-2.138-.557-.787 0-1.518.167-2.137.558a4.871 4.871 0 0 0-1.519 1.504c-.393.67-.562 1.394-.562 2.23 0 .836.169 1.56.562 2.23.394.668.844 1.17 1.519 1.504.619.39 1.35.557 2.137.557.788 0 1.519-.167 2.138-.557ZM161.255 53.736c.45.558.675 1.226.675 2.007 0 1.17-.45 2.118-1.35 2.786-.899.67-2.193 1.004-3.88 1.004h-6.638V46.156h6.3c1.575 0 2.812.279 3.656.892.9.613 1.294 1.45 1.294 2.564 0 .669-.169 1.226-.507 1.728a3.234 3.234 0 0 1-1.406 1.17c.788.279 1.406.669 1.856 1.226Zm-8.155-2.062h2.925c.675 0 1.181-.111 1.518-.39.338-.279.506-.669.506-1.226 0-.502-.168-.948-.506-1.227-.337-.278-.843-.445-1.518-.445H153.1v3.288Zm5.624 3.846c0-1.115-.731-1.672-2.193-1.672H153.1v3.4h3.431c1.462 0 2.193-.558 2.193-1.728ZM164.352 46.156h3.093v13.377h-3.093V46.156ZM188.591 59.538v-8.026l-3.993 6.577h-1.406l-3.994-6.466v7.859h-2.925V46.105h2.588l5.062 8.305 5.006-8.304h2.587v13.376h-2.925v.056ZM205.352 57.025v2.508h-10.461V46.156h10.18v2.508h-7.087v2.899h6.243v2.396h-6.243v3.121h7.368v-.055ZM216.826 46.774c.9.39 1.575.948 2.025 1.672.45.725.731 1.56.731 2.564 0 1.003-.225 1.84-.731 2.564-.45.724-1.181 1.282-2.025 1.672-.9.39-1.912.557-3.094.557h-2.699v3.679h-3.15V46.105h5.849c1.182.056 2.194.223 3.094.67Zm-1.125 5.964c.506-.39.731-.948.731-1.728 0-.724-.225-1.337-.731-1.728-.506-.39-1.181-.613-2.137-.613h-2.531v4.626h2.531c.9.056 1.631-.167 2.137-.557ZM232.071 57.025v2.508h-10.462V46.156h10.181v2.508h-7.087v2.899h6.243v2.396h-6.243v3.121h7.368v-.055ZM246.751 54.131h-1.968v5.407h-3.094V54.13h-2.025l-3.037 5.407h-3.6l4.05-7.023-3.825-6.41h3.319l3.037 5.407h2.081v-5.407h3.094v5.407h2.025l3.037-5.407h3.318l-3.824 6.41 4.049 7.023h-3.599l-3.038-5.407ZM254.906 46.156H258v13.377h-3.094V46.156Z" fill="#005FA3"/></svg>