<svg width="280" height="55" fill="none" xmlns="http://www.w3.org/2000/svg"><path d="M0 53.584V1.11h14.32c10.528 0 15.793 4.506 15.793 13.587 0 6.585-3.79 10.745-11.372 12.478 2.738.97 4.704 2.426 5.897 4.297 1.474 2.634 2.737 6.794 3.79 12.547l.842 3.813c.562 2.911.983 4.783 1.194 5.615h-6.809c-.491-2.496-1.123-6.516-2.036-12.062-1.403-7.833-4.632-11.854-9.827-12.061H6.177v24.053H0v.208Zm6.177-29.669h5.756c7.861 0 11.862-3.05 11.862-9.219 0-5.338-3.51-8.041-10.458-8.041h-7.16v17.26ZM50.962.14c10.107 0 15.161 9.012 15.161 26.966S61 54.071 50.681 54.071c-10.319 0-15.443-8.942-15.443-26.757C35.238 9.222 40.503.14 50.962.14Zm-.422 5.823c-5.966 0-8.984 7.071-8.984 21.143 0 14.002 3.018 21.004 9.125 21.004s9.125-6.932 9.125-20.865c0-14.142-3.089-21.282-9.266-21.282ZM71.316 53.1V1.11H83.11c6.528 0 10.88 1.04 13.126 3.188 1.334 1.179 2.457 2.634 3.159 4.298.702 1.664 1.123 3.397 1.053 5.199 0 6.03-2.949 10.12-8.775 12.27 6.739 1.802 10.108 6.238 10.108 13.1 0 4.09-1.404 7.487-4.282 10.26-2.597 2.496-6.598 3.743-12.073 3.743L71.316 53.1Zm6.177-29.808h5.756c7.3 0 11.02-3.05 11.02-9.081 0-2.912-.912-4.922-2.737-6.1-1.474-.902-4.001-1.387-7.651-1.387h-6.317l-.07 16.568Zm0 24.123h6.88c7.44 0 11.23-2.98 11.23-8.942 0-6.378-4-9.566-11.933-9.566h-6.177v18.508ZM122.275.14c10.108 0 15.161 9.012 15.161 26.966s-5.124 26.965-15.442 26.965c-10.318 0-15.443-8.942-15.443-26.757C106.481 9.222 111.746.14 122.275.14Zm-.421 5.823c-5.967 0-8.985 7.071-8.985 21.143 0 14.002 3.018 21.004 9.125 21.004s9.125-6.932 9.125-20.865c-.07-14.142-3.088-21.282-9.265-21.282ZM172.183 15.32h-6.598c-.702-6.308-3.018-9.428-6.879-9.428-6.808 0-10.178 7.279-10.178 21.836 0 13.587 3.229 20.45 9.757 20.45 4.212 0 6.949-3.536 8.283-10.537h6.598C171.271 48.524 166.498 54 158.847 54c-11.091 0-16.636-8.873-16.636-26.688 0-8.041 1.334-14.627 4.071-19.687C148.949 2.495 153.161 0 158.776 0c7.792.07 12.284 5.13 13.407 15.32ZM193.52.14c10.108 0 15.162 9.012 15.162 26.966s-5.124 26.965-15.443 26.965c-10.318 0-15.442-8.942-15.442-26.757C177.797 9.222 183.061.14 193.52.14Zm-.421 5.823c-5.966 0-8.985 7.071-8.985 21.143 0 14.002 3.019 21.004 9.125 21.004 6.107 0 9.125-6.932 9.125-20.865 0-14.142-3.088-21.282-9.265-21.282ZM213.879 53.1V1.11h10.388c13.407 0 20.146 8.664 20.146 25.994 0 8.527-1.825 15.25-5.475 20.172-2.878 3.882-7.441 5.823-13.618 5.823h-11.441Zm6.177-5.824h4.703c4.633 0 8.002-1.594 10.108-4.783 2.105-3.189 3.158-8.388 3.158-15.527 0-13.31-4.422-19.964-13.336-19.964h-4.563v40.274h-.07ZM249.465 53.1V1.11h30.464v5.822h-24.287V23.57h20.426v5.823h-20.426v17.815h24.287v5.823l-30.464.07Z" fill="#1457FE"/></svg>