<svg width="260" height="63" fill="none" xmlns="http://www.w3.org/2000/svg"><path d="M5.865 1.841c.107-.535.642-.964 1.178-.964h10.28c6.532 0 10.869 3.376 9.798 10.342-.91 5.733-5.033 9.27-10.709 9.27h-4.658l-1.713 7.501c-.107.536-.643.965-1.178.965H1.206c-.803 0-1.338-.75-1.178-1.5L5.865 1.84Zm7.495 11.575h1.018c1.767 0 3.748-.322 4.122-2.572.375-2.09-1.392-2.305-3.051-2.305h-.964l-1.124 4.877ZM57.747 1.84c.108-.536.643-.965 1.178-.965h10.013c6.371-.16 11.725 2.787 10.601 9.86-.696 4.233-3.48 5.894-7.442 7.126 1.178.59 2.998 6.591 3.801 9.538a1.22 1.22 0 0 1-1.178 1.554h-7.389c-.589 0-1.07-.375-1.178-.964-.535-2.304-1.82-7.984-2.088-7.984h-.16l-1.82 8.037c-.108.536-.643.965-1.179.965H53.09c-.803 0-1.338-.75-1.178-1.5L57.747 1.84Zm7.55 11.413h.696c1.98.107 4.016-.375 4.444-2.465.375-2.143-1.017-2.465-3.16-2.465h-.856l-1.124 4.93ZM30.012 28.955h-7.388c-.91 0-1.5-.965-1.071-1.768L34.724 1.52a1.178 1.178 0 0 1 1.07-.643h8.568c.589 0 1.124.429 1.231 1.072l3.587 25.666c.108.75-.481 1.393-1.231 1.393H40.56c-.642 0-1.178-.482-1.231-1.178l-.107-2.358h-6.96l-1.125 2.733c-.214.482-.643.75-1.125.75Zm8.835-10.181s-.16-4.448-.428-7.609h-.161l-3.213 7.609h3.802ZM85.482.877h7.656c.803 0 1.339.75 1.178 1.5l-5.89 25.667c-.107.536-.642.964-1.177.964h-7.71c-.804 0-1.34-.75-1.178-1.5l5.89-25.667c.16-.589.642-.964 1.23-.964Z" fill="#000"/><path d="M99.027 1.841 93.19 27.508c-.161.75.428 1.5 1.178 1.5h46.581c.589 0 1.071-.375 1.178-.964l5.836-25.667c.161-.75-.428-1.5-1.178-1.5h-46.581c-.59 0-1.071.375-1.178.964Z" fill="url(#a)"/><path d="m67.011 34.525-5.836 25.667c-.16.75.428 1.5 1.178 1.5h46.581c.589 0 1.071-.375 1.178-.965l5.837-25.666c.16-.75-.429-1.5-1.178-1.5H68.189c-.589 0-1.07.375-1.178.964Z" fill="url(#b)"/><path d="M158.782 61.638h-7.389c-.91 0-1.499-.964-1.071-1.768l13.172-25.666a1.177 1.177 0 0 1 1.07-.644h8.567c.589 0 1.125.43 1.232 1.072L177.95 60.3c.107.75-.482 1.393-1.232 1.393h-7.442c-.642 0-1.178-.482-1.231-1.179l-.107-2.358h-6.961l-1.178 2.787c-.053.428-.535.696-1.017.696Zm8.888-10.18s-.161-4.448-.428-7.61h-.161l-3.213 7.61h3.802ZM121.783 33.56h8.835c.642 0 1.177.483 1.231 1.18l.696 13.61h.214c.536-1.233 5.622-11.36 6.961-14.093.214-.428.642-.697 1.07-.697h10.441c.803 0 1.339.75 1.178 1.5l-5.729 25.667c-.107.536-.642.965-1.178.965h-6.318c-.803 0-1.338-.75-1.178-1.5l3.106-13.932h-.214c-.268.804-5.89 11.895-7.282 14.735a1.178 1.178 0 0 1-1.071.643h-4.176a1.228 1.228 0 0 1-1.232-1.125c-.214-3.43-.749-13.289-.642-14.253l-3.213 14.467c-.107.536-.642.965-1.178.965h-6.05c-.803 0-1.338-.75-1.178-1.5l5.783-25.667c.107-.59.589-.965 1.124-.965ZM181.431 33.56h20.988c.803 0 1.339.75 1.178 1.5l-1.446 6.484c-.107.536-.642.965-1.178.965h-5.461l-4.176 18.218c-.107.536-.643.965-1.178.965h-7.71c-.803 0-1.392-.75-1.178-1.5l4.069-17.683h-5.301c-.803 0-1.338-.75-1.177-1.5l1.445-6.484c.054-.59.536-.965 1.125-.965ZM234.596 33.56h7.657c.803 0 1.338.697 1.177 1.5l-1.766 7.985h6.264l1.981-8.52c.107-.536.643-.965 1.178-.965h7.71c.803 0 1.339.75 1.178 1.5l-5.89 25.667c-.107.536-.642.965-1.178.965h-7.71c-.803 0-1.338-.75-1.178-1.5l1.874-8.252h-6.318l-1.981 8.787c-.107.536-.642.965-1.178.965h-7.71c-.803 0-1.338-.75-1.178-1.5l5.837-25.667c.16-.59.642-.965 1.231-.965ZM220.248 43.368c-.428 0-.803-.214-1.017-.589-.321-.482-.91-.804-1.981-.804-2.731 0-4.765 4.877-4.979 6.538-.268 1.929-.161 4.286 2.034 4.715.964.16 2.302-.429 3.052-1.554a1.218 1.218 0 0 1 1.017-.536h7.925c.803 0 1.338.75 1.178 1.5-.643 3.001-3.159 9.378-12.904 9.592-9.691.214-13.867-5.733-13.011-13.717 1.017-9.27 7.175-16.022 17.401-15.593 9.638.375 10.655 6.537 10.602 9.163 0 .642-.536 1.232-1.232 1.232h-8.085v.053Z" fill="#000"/><defs><linearGradient id="a" x1="93.161" y1="14.923" x2="147.995" y2="14.923" gradientUnits="userSpaceOnUse"><stop stop-color="#FDD900"/><stop offset="1" stop-color="#FBAF17"/></linearGradient><linearGradient id="b" x1="61.141" y1="47.594" x2="115.975" y2="47.594" gradientUnits="userSpaceOnUse"><stop stop-color="#FDD900"/><stop offset="1" stop-color="#FBAF17"/></linearGradient></defs></svg>