<svg width="510" height="510" fill="none" xmlns="http://www.w3.org/2000/svg"><path d="M459.176 277.75c-43.134 33.949 19.082 115.8-5.585 165.845-33.212 67.37-236.33 102.309-357.695 8.38C-5.743 373.313-25.046 223.626 30.67 171.406c16.68-15.623 35.19-17.94 61.097-33.176 24.101-14.173 27.13-18.197 29.096-20.955 19.377-27.21-9.989-57.135-.129-81.365C136.32-2.358 243.126-9.91 328.386 14.874c22.989 6.709 139.139 43.282 171.454 136.375 2.5 7.206 25.981 76.689-8.896 109.084-12.091 11.212-20.268 8.368-31.768 17.417Z" fill="#CCEDFB"/><path d="M27.187 317.42a.925.925 0 0 1-.885-.67c-14.781-51.305-2.74-92.466-2.617-92.872a.924.924 0 0 1 1.16-.663.908.908 0 0 1 .557.466.922.922 0 0 1 .046.726c-.122.405-11.998 41.075 2.624 91.833a.922.922 0 0 1-.615 1.143.854.854 0 0 1-.27.037Z" fill="#353535"/><path d="M11.908 284.044a.917.917 0 0 1-.897-.731c-.03-.123-2.642-12.742-1.966-30.491.615-16.385 4.252-40.652 17.995-63.204a.913.913 0 0 1 .938-.463.932.932 0 0 1 .615.376.914.914 0 0 1 .157.704.922.922 0 0 1-.138.341c-25.9 42.507-15.905 91.864-15.8 92.356a.92.92 0 0 1-.904 1.112ZM492.1 155.952a.925.925 0 0 1-.899-.718.928.928 0 0 1 .125-.695l2.543-4.03a.92.92 0 0 1 .936-.418.924.924 0 0 1 .625 1.401l-2.55 4.03a.905.905 0 0 1-.334.316.906.906 0 0 1-.446.114ZM486.196 165.344a.904.904 0 0 1-.492-.148.93.93 0 0 1-.408-.576.913.913 0 0 1 .12-.696l2.549-4.024a.922.922 0 1 1 1.554.983l-2.543 4.03a.928.928 0 0 1-.78.431ZM487.757 156.935a.903.903 0 0 1-.492-.141l-4.03-2.544a.917.917 0 0 1-.417-.936.913.913 0 0 1 .376-.597.927.927 0 0 1 1.024-.027l4.03 2.549a.916.916 0 0 1-.491 1.696ZM497.138 162.87a.969.969 0 0 1-.492-.141l-4.024-2.55a.912.912 0 0 1-.452-.577.925.925 0 0 1 .719-1.137.911.911 0 0 1 .716.16l4.03 2.544c.17.106.3.265.371.453a.92.92 0 0 1-.868 1.248ZM105.86 17.818a.934.934 0 0 1-.614-.258.92.92 0 0 1 0-1.303l2.881-3.035a.923.923 0 0 1 1.334 1.272l-2.9 3.035a.955.955 0 0 1-.701.289ZM95.712 28.422a.929.929 0 0 1-.67-1.56l2.9-3.03a.92.92 0 1 1 1.333 1.272l-2.9 3.035a.935.935 0 0 1-.663.283ZM98.557 17.97a.909.909 0 0 1-.614-.263L95 14.807a.921.921 0 0 1 1.29-1.315l2.943 2.906a.921.921 0 0 1-.676 1.573ZM108.858 28.126a.904.904 0 0 1-.646-.264l-2.942-2.9a.92.92 0 0 1 .009-1.28.924.924 0 0 1 1.281-.034l2.943 2.9a.924.924 0 0 1-.132 1.421.923.923 0 0 1-.513.157ZM475.728 134.506a6.59 6.59 0 0 1-6.027-4 6.757 6.757 0 0 1 3.354-8.803 6.396 6.396 0 0 1 4.995-.135 6.574 6.574 0 0 1 3.686 3.563 6.756 6.756 0 0 1-3.36 8.797 6.438 6.438 0 0 1-2.648.578Zm0-11.538a4.67 4.67 0 0 0-1.898.412 4.91 4.91 0 0 0-2.421 6.395 4.734 4.734 0 0 0 2.648 2.568 4.533 4.533 0 0 0 3.563-.092 4.915 4.915 0 0 0 2.458-6.395 4.752 4.752 0 0 0-2.648-2.568 4.637 4.637 0 0 0-1.702-.32Z" fill="#353535"/><path d="m437.469 500.963-12.017.891-224.939-.891a18.391 18.391 0 0 1-13.047-5.384 18.381 18.381 0 0 1-5.384-13.047l1.702-461.429a18.559 18.559 0 0 1 18.559-18.43L427.093 0c25.803 0 30.674 10.893 30.637 21.085l-1.707 461.429a18.546 18.546 0 0 1-18.554 18.449Z" fill="#95DBFA"/><path d="M423.211 500.963H186.255a18.426 18.426 0 0 1-13.059-5.424 18.44 18.44 0 0 1-5.372-13.08l1.524-462.904a18.572 18.572 0 0 1 18.553-18.51h236.957a18.427 18.427 0 0 1 13.061 5.426 18.43 18.43 0 0 1 5.369 13.084l-1.523 462.904a18.566 18.566 0 0 1-18.554 18.504Z" fill="#fff"/><path d="m181.406 483.101 1.456-441.997a4.299 4.299 0 0 1 4.301-4.3h238.209a4.256 4.256 0 0 1 3.948 2.657c.211.522.316 1.08.31 1.643l-1.425 441.997a4.3 4.3 0 0 1-4.301 4.27h-238.24a4.244 4.244 0 0 1-3.939-2.636 4.255 4.255 0 0 1-.319-1.634Z" fill="#95DBFA"/><path d="M311.928 21.7c2.246-3.107 1.556-7.44-1.541-9.678-3.097-2.238-7.427-1.532-9.673 1.576-2.245 3.107-1.555 7.44 1.542 9.678 3.096 2.238 7.427 1.532 9.672-1.576Z" fill="#CCEDFB"/><path d="M442.551 242.123a.925.925 0 0 1-.921-.927l.706-221.647a17.5 17.5 0 0 0-17.478-17.583H187.901a17.67 17.67 0 0 0-17.626 17.59l-.614 177.253a.92.92 0 0 1-.921.915.925.925 0 0 1-.916-.922l.615-177.253A19.515 19.515 0 0 1 187.901.123h236.957a19.335 19.335 0 0 1 17.877 12.007 19.33 19.33 0 0 1 1.444 7.425l-.731 221.647a.924.924 0 0 1-.897.921ZM423.213 501.892l-186.807-.879a.923.923 0 0 1-.652-1.573.923.923 0 0 1 .652-.27l186.807.878a.925.925 0 0 1 .921.922.923.923 0 0 1-.921.922Z" fill="#353535"/><path d="M219.272 154.772h.553l-.393-37.654h-.553a18.55 18.55 0 0 0-17.244 11.586 18.536 18.536 0 0 0-1.352 7.177v.122a19.044 19.044 0 0 0 18.989 18.769Z" fill="#fff"/><path d="M219.821 155.693h-.552a19.97 19.97 0 0 1-19.924-19.659v-.117a19.471 19.471 0 0 1 19.53-19.696h.553a.923.923 0 0 1 .922.909l.393 37.654a.895.895 0 0 1-.264.657.922.922 0 0 1-.658.252Zm-1.302-37.654a17.624 17.624 0 0 0-17.331 17.817v.116a18.13 18.13 0 0 0 17.706 17.853l-.375-35.786Z" fill="#353535"/><path d="M390.731 154.772h-.553l-.393-37.654h.553a19.047 19.047 0 0 1 19.002 18.763v.122a18.549 18.549 0 0 1-18.609 18.769Z" fill="#fff"/><path d="M390.73 155.693h-.553a.927.927 0 0 1-.922-.915l-.368-37.654a.905.905 0 0 1 .266-.657.923.923 0 0 1 .655-.271h.553a19.971 19.971 0 0 1 13.984 5.754 19.971 19.971 0 0 1 5.94 13.906v.116a19.487 19.487 0 0 1-5.645 13.959 19.472 19.472 0 0 1-13.91 5.762Zm0-37.654.375 35.805a17.628 17.628 0 0 0 17.331-17.816v-.117a18.124 18.124 0 0 0-17.706-17.872Z" fill="#353535"/><path d="M396.077 134.385c-.424-40.461-41.727-82.323-92.153-82.323-50.426 0-90.845 41.85-90.421 82.323.424 40.474 41.537 64.206 91.951 64.206 50.414 0 91.047-23.745 90.623-64.206Z" fill="#fff"/><path d="M305.465 199.509c-25.397 0-48.534-6.07-65.226-17.085-17.884-11.814-27.443-28.427-27.646-48.031-.202-19.094 8.656-39.11 24.292-54.91 17.816-18.007 42.255-28.335 67.05-28.335 24.022 0 47.263 9.314 65.441 26.227 17.344 16.14 27.413 36.911 27.646 56.994.16 14.984-5.381 28.58-16.016 39.319-16.256 16.415-43.779 25.821-75.541 25.821Zm-1.53-146.517c-24.303 0-48.263 10.124-65.735 27.787-15.292 15.45-23.96 34.987-23.758 53.59.197 18.971 9.474 35.055 26.817 46.519 16.366 10.819 39.171 16.778 64.212 16.778 31.271 0 58.315-9.216 74.208-25.262 10.444-10.543 15.635-23.346 15.482-38.011-.406-38.427-39.503-81.401-91.226-81.401Z" fill="#353535"/><path d="M282.728 210.724h45.733a36.705 36.705 0 0 1 36.664 36.247 202.115 202.115 0 0 1-3.44 39.361l-6.23 33.225a48.995 48.995 0 0 1-48.306 39.933A50.301 50.301 0 0 1 258 319.557l-6.911-33.237a202.96 202.96 0 0 1-4.27-39.349 35.795 35.795 0 0 1 10.364-25.643 35.79 35.79 0 0 1 25.545-10.604Z" fill="#fff"/><path d="M307.18 360.43a51.324 51.324 0 0 1-50.039-40.695l-6.924-33.224a204.297 204.297 0 0 1-4.3-39.54 36.709 36.709 0 0 1 10.642-26.279 36.727 36.727 0 0 1 26.188-10.865h45.733a37.674 37.674 0 0 1 37.567 37.144 203.564 203.564 0 0 1-3.458 39.54l-6.224 33.224a50.028 50.028 0 0 1-49.185 40.695Zm-24.451-148.76a34.888 34.888 0 0 0-24.885 10.326 34.871 34.871 0 0 0-10.103 24.975 202.541 202.541 0 0 0 4.251 39.178l6.918 33.23a49.479 49.479 0 0 0 48.27 39.208 48.178 48.178 0 0 0 30.773-11.055 48.178 48.178 0 0 0 16.63-28.153l6.224-33.23a201.246 201.246 0 0 0 3.397-39.178 35.825 35.825 0 0 0-35.743-35.301h-45.732Z" fill="#353535"/><path d="M330.489 211.67h-49.763a.919.919 0 0 1-.921-.921.921.921 0 0 1 .921-.922h49.763a.923.923 0 0 1 .652 1.573.923.923 0 0 1-.652.27ZM243.285 122.254h87.914c9.129 0 16.587 7.987 16.722 17.779l.117 11.605c.08 7.477-3.84 15.402-10.757 16.692-24.31 4.571-74.73 4.571-99.139 0-6.923-1.296-11.009-9.215-11.089-16.716l-.123-11.605c-.086-9.811 7.238-17.755 16.355-17.755Z" fill="#353535"/><path d="M308.149 145.604c.031 3.293 2.543 5.96 5.603 5.96 3.059 0 5.529-2.667 5.474-5.96-.056-3.292-2.544-5.953-5.603-5.953-3.06 0-5.511 2.648-5.474 5.953ZM249.215 145.604c.031 3.293 2.544 5.96 5.597 5.96 3.053 0 5.529-2.667 5.48-5.96-.049-3.292-2.543-5.953-5.603-5.953-3.059 0-5.511 2.648-5.474 5.953ZM303.364 300.176a16.421 16.421 0 0 1-16.36-16.237l-.307-29.76a16.016 16.016 0 0 1 4.612-11.466 16.02 16.02 0 0 1 11.404-4.765 16.415 16.415 0 0 1 16.36 16.231l.307 29.76a16.008 16.008 0 0 1-4.608 11.472 16.004 16.004 0 0 1-11.408 4.765Z" fill="#007BB3"/><path d="M305.951 308.173h-3.287a23.397 23.397 0 0 1-23.265-23.112l-.301-29.034a.927.927 0 0 1 .265-.654.923.923 0 0 1 .65-.274.922.922 0 0 1 .922.909l.301 29.028a21.555 21.555 0 0 0 6.367 15.033 21.556 21.556 0 0 0 15.08 6.255h3.268a19.657 19.657 0 0 0 18.239-12.319 19.65 19.65 0 0 0 1.42-7.605l-.294-30.828a.915.915 0 0 1 .557-.859.926.926 0 0 1 .352-.075.913.913 0 0 1 .663.258.91.91 0 0 1 .271.658l.319 30.859a21.505 21.505 0 0 1-21.502 21.785l-.025-.025ZM321.131 322.263h-34.625a2.966 2.966 0 0 1-2.955-2.93 2.887 2.887 0 0 1 2.894-2.931h34.625a2.968 2.968 0 0 1 2.955 2.931 2.892 2.892 0 0 1-1.778 2.707 2.91 2.91 0 0 1-1.116.223Z" fill="#007BB3"/><path d="M305.84 322.048h-4.497l-.245-23.677h4.497l.245 23.677ZM393.458 244.512a3.307 3.307 0 0 0-3.209 1.962c-.18.408-.275.848-.28 1.294l.037 43.239a3.588 3.588 0 0 0 3.495 3.489 3.306 3.306 0 0 0 2.444-.879 3.291 3.291 0 0 0 1.046-2.377l-.037-43.238a3.58 3.58 0 0 0-3.496-3.49ZM409.228 230.605a3.287 3.287 0 0 0-3.209 1.956c-.18.407-.276.848-.281 1.293l.068 72.095a3.574 3.574 0 0 0 3.496 3.489 3.277 3.277 0 0 0 2.438-.877 3.275 3.275 0 0 0 1.045-2.372l-.062-72.12a3.574 3.574 0 0 0-3.495-3.464ZM425.022 244.044a3.3 3.3 0 0 0-2.439.881 3.287 3.287 0 0 0-1.044 2.375l.037 46.304a3.581 3.581 0 0 0 3.496 3.489 3.306 3.306 0 0 0 2.441-.881 3.307 3.307 0 0 0 1.048-2.375l-.043-46.304a3.58 3.58 0 0 0-3.496-3.489ZM440.814 249.426a3.301 3.301 0 0 0-3.49 3.256l.037 36.622a3.58 3.58 0 0 0 3.496 3.49 3.299 3.299 0 0 0 3.205-1.962c.179-.408.274-.849.278-1.294v-36.622a3.584 3.584 0 0 0-3.526-3.49ZM378.885 254.954c-1.929-.068-3.483 1.13-3.471 2.672l.258 30.343c0 1.542 1.585 2.845 3.514 2.912 1.929.068 3.477-1.13 3.465-2.672l-.252-30.343c-.012-1.573-1.585-2.881-3.514-2.912ZM484.958 252.595a3.28 3.28 0 0 0-2.441.877 3.293 3.293 0 0 0-1.048 2.373l.037 36.621a3.572 3.572 0 0 0 3.489 3.49 3.29 3.29 0 0 0 3.49-3.25v-36.622a3.578 3.578 0 0 0-3.527-3.489ZM498.858 260.938c-1.923-.123-3.496.718-3.502 1.886l-.141 22.848c0 1.167 1.554 2.205 3.477 2.328 1.923.123 3.49-.719 3.502-1.886l.135-22.879c.012-1.136-1.548-2.174-3.471-2.297ZM456.607 256.833a3.288 3.288 0 0 0-3.49 3.25v22.867a3.579 3.579 0 0 0 3.496 3.483 3.28 3.28 0 0 0 2.441-.877 3.296 3.296 0 0 0 1.048-2.373v-22.86a3.572 3.572 0 0 0-3.495-3.49ZM471.15 243.287a3.3 3.3 0 0 0-3.49 3.256l.043 51.034a3.583 3.583 0 0 0 3.496 3.49 3.28 3.28 0 0 0 3.21-1.961c.18-.408.275-.849.279-1.295l-.043-51.035a3.588 3.588 0 0 0-3.495-3.489ZM217.636 244.629a3.242 3.242 0 0 0-3.171 1.909 3.232 3.232 0 0 0-.281 1.274l.571 49.455a3.533 3.533 0 0 0 3.526 3.354 3.251 3.251 0 0 0 3.17-1.909c.179-.401.276-.834.283-1.273l-.571-49.455a3.534 3.534 0 0 0-3.527-3.355ZM186.15 250.826a3.257 3.257 0 0 0-1.291.179 3.253 3.253 0 0 0-1.875 1.731 3.248 3.248 0 0 0-.281 1.272l.406 35.492a3.537 3.537 0 0 0 3.526 3.354 3.242 3.242 0 0 0 3.171-1.909 3.25 3.25 0 0 0 .282-1.273l-.406-35.492a3.543 3.543 0 0 0-3.532-3.354ZM170.464 257.106a3.242 3.242 0 0 0-3.171 1.909 3.232 3.232 0 0 0-.281 1.273l.258 22.154a3.53 3.53 0 0 0 3.52 3.354 3.242 3.242 0 0 0 3.171-1.909 3.25 3.25 0 0 0 .282-1.273l-.252-22.129a3.533 3.533 0 0 0-3.527-3.379ZM201.8 255.88a3.242 3.242 0 0 0-3.171 1.909 3.232 3.232 0 0 0-.281 1.274l.258 22.153a3.528 3.528 0 0 0 1.091 2.379 3.529 3.529 0 0 0 2.429.976 3.25 3.25 0 0 0 2.41-.85 3.235 3.235 0 0 0 1.043-2.333l-.252-22.129a3.54 3.54 0 0 0-1.085-2.397 3.538 3.538 0 0 0-2.442-.982ZM232.356 250.985c-1.923-.043-3.483 1.874-3.477 4.301l.061 29.611c0 2.409 1.573 4.405 3.502 4.448 1.929.043 3.484-1.843 3.484-4.3l-.068-29.612c-.006-2.408-1.573-4.399-3.502-4.448Z" fill="#007BB3"/><path d="M154.535 243.066a3.247 3.247 0 0 0-2.41.85 3.233 3.233 0 0 0-1.043 2.332l.571 49.456a3.531 3.531 0 0 0 3.527 3.354 3.237 3.237 0 0 0 3.452-3.176l-.571-49.462a3.539 3.539 0 0 0-3.526-3.354ZM138.843 249.213a3.233 3.233 0 0 0-2.407.848 3.245 3.245 0 0 0-1.045 2.328l.424 36.389a3.54 3.54 0 0 0 3.526 3.354 3.25 3.25 0 0 0 3.453-3.182l-.424-36.382a3.534 3.534 0 0 0-3.527-3.355ZM135.879 51.922l-113.656.221a9.923 9.923 0 0 0-9.934 9.94l.086 47.054a9.927 9.927 0 0 0 9.94 9.903l85.119-.166 24.845 19.008-.037-19.045h3.747a9.914 9.914 0 0 0 9.155-6.142 9.915 9.915 0 0 0 .749-3.798l-.092-47.053a9.922 9.922 0 0 0-9.922-9.922Z" fill="#95DBFA"/><path d="M132.02 140.475a.937.937 0 0 1-.584-.202l-24.088-19.469-34.159-.836a.922.922 0 0 1 .044-1.843l34.471.848c.203.004.4.076.559.203l22.879 18.486.423-17.202a.931.931 0 0 1 .593-.837.907.907 0 0 1 .354-.06l3.741.092h.227a9.012 9.012 0 0 0 8.994-8.785l1.162-46.98a9.001 9.001 0 0 0-8.78-9.215L24.201 51.873a9.012 9.012 0 0 0-9.215 8.78l-1.155 47.034a9.001 9.001 0 0 0 8.773 9.216l13.681.337a.916.916 0 0 1 .836.592.925.925 0 0 1-.53 1.191.913.913 0 0 1-.355.06l-13.675-.337a10.851 10.851 0 0 1-10.573-11.108l1.155-47.035A10.857 10.857 0 0 1 24.262 50l113.655 2.802a10.837 10.837 0 0 1 10.554 11.089l-1.155 47.035a10.863 10.863 0 0 1-10.837 10.579h-.27l-2.826-.068-.442 18.13a.925.925 0 0 1-.535.811.947.947 0 0 1-.387.098Z" fill="#353535"/><path d="M63.063 119.8h-.03l-10.814-.344a.922.922 0 0 1-.89-.952.91.91 0 0 1 .946-.891l10.825.32a.924.924 0 0 1 .921.921.924.924 0 0 1-.921.922l-.037.024Z" fill="#353535"/><path d="m74.576 75.691-44.197-1.087a.928.928 0 0 1-.89-.946.904.904 0 0 1 .946-.897l44.196 1.087a.922.922 0 0 1 0 1.843h-.055ZM129.72 77.058l-46.826-1.155a.922.922 0 0 1 0-1.843l46.826 1.155a.921.921 0 1 1 0 1.843ZM95.135 98.258l-64.753-1.665a.922.922 0 0 1 0-1.843l64.76 1.665a.922.922 0 0 1 0 1.843h-.007ZM129.717 99.05l-26.27-.572a.922.922 0 0 1 .043-1.843l26.264.571a.92.92 0 0 1 .921.922.92.92 0 0 1-.921.921h-.037ZM57.295 86.139l-26.915-.54a.922.922 0 1 1 .037-1.844l26.915.54a.922.922 0 0 1 0 1.844h-.037ZM129.721 88.057h-.031l-64.101-1.702a.921.921 0 1 1 .049-1.843l64.102 1.696a.921.921 0 0 1 0 1.843l-.019.006ZM168.077 460.716s-26.159-57.319-11.15-131.631c0 0 40.547 33.961 25.92 131.631h-14.77Z" fill="#007BB3"/><path d="M174.477 455.659h-.049a.93.93 0 0 1-.873-.971c2.003-36.628-14.517-114.829-14.683-115.615a.922.922 0 0 1 1.8-.387c.172.792 16.741 79.251 14.745 116.112a.924.924 0 0 1-.94.861Z" fill="#fff"/><path d="M194.39 367.526s-33.698 60.871-13.43 87.239h10.843s21.668-47.613 2.587-87.239Z" fill="#CCEDFB"/><path d="M186.021 457.279a.923.923 0 0 1-.639-.261.923.923 0 0 1-.282-.63c-.977-25.108 8.281-88.387 8.373-89.001a.933.933 0 0 1 1.396-.669.926.926 0 0 1 .447.933c-.092.614-9.326 63.69-8.355 88.663a.921.921 0 0 1-.885.953l-.055.012Z" fill="#fff"/><path d="M130.059 390.216s28.702 9.793 39.091 67.769h-11.261s-23.585-31.836-27.83-67.769Z" fill="#95DBFA"/><path d="M162.982 457.275a.929.929 0 0 1-.909-.775c-4.264-25.802-22.731-51.753-22.916-52.011a.923.923 0 0 1 1.499-1.075c.185.264 18.898 26.583 23.235 52.785a.923.923 0 0 1-.158.686.9.9 0 0 1-.262.245.895.895 0 0 1-.336.126l-.153.019Z" fill="#CCEDFB"/><path d="M141.13 453.396h70.823l1.591 33.494a14.402 14.402 0 0 1-14.388 15.082h-40.449a17.594 17.594 0 0 1-17.602-17.613l.025-30.963Z" fill="#fff"/><path d="M199.143 502.878h-40.437a18.516 18.516 0 0 1-17.116-11.443 18.52 18.52 0 0 1-1.406-7.092V453.38a.921.921 0 0 1 .921-.922h70.847a.92.92 0 0 1 .922.879l1.591 33.494a15.331 15.331 0 0 1-4.219 11.302 15.328 15.328 0 0 1-11.091 4.745h-.012Zm-57.092-48.577v30.042a16.688 16.688 0 0 0 4.879 11.804 16.665 16.665 0 0 0 11.801 4.888h40.437a13.48 13.48 0 0 0 9.763-4.178 13.465 13.465 0 0 0 3.703-9.952l-1.548-32.616-69.035.012Z" fill="#007BB3"/><path d="M480.144 462.963H312.456a7.897 7.897 0 0 1-7.87-7.87v-66.068a7.896 7.896 0 0 1 7.87-7.87h39.417a.974.974 0 0 0 .977-.94l5.584-21.355 20.802 22.068a.98.98 0 0 0 .614.227h100.294a7.896 7.896 0 0 1 7.87 7.87v66.068a7.893 7.893 0 0 1-7.87 7.87Z" fill="#CCEDFB"/><path d="M469.225 409.062h-40.178a.921.921 0 1 1 0-1.843h40.178a.921.921 0 1 1 0 1.843ZM411.828 409.062h-88.559a.919.919 0 0 1-.921-.922.919.919 0 0 1 .921-.921h88.559a.921.921 0 1 1 0 1.843ZM469.228 426.863h-91.846a.92.92 0 0 1 0-1.843h91.846a.924.924 0 0 1 .922.921.923.923 0 0 1-.922.922ZM359.584 426.863h-36.315a.919.919 0 0 1-.921-.922.923.923 0 0 1 .921-.921h36.315a.924.924 0 0 1 .921.921.923.923 0 0 1-.921.922ZM469.225 442.334h-56.182a.921.921 0 1 1 0-1.843h56.182a.921.921 0 1 1 0 1.843ZM395.137 442.334h-71.88a.92.92 0 0 1 0-1.843h71.88a.923.923 0 0 1 .652 1.573.923.923 0 0 1-.652.27Z" fill="#007BB3"/><path d="M480.424 465.181h-.061l-169.635-1.382a7.836 7.836 0 0 1-7.747-7.876l.553-68.028a7.818 7.818 0 0 1 7.808-7.747h.068l35.546.295 5.308.32 5.271-22.117a.924.924 0 0 1 1.155-.671c.16.047.305.137.418.259l20.728 22.473 31.996.264a.919.919 0 0 1 .909.928.886.886 0 0 1-.066.356.888.888 0 0 1-.505.499.905.905 0 0 1-.357.061l-32.394-.265a.922.922 0 0 1-.67-.301l-19.819-21.502-5.062 21.195a.929.929 0 0 1-.953.707l-6.027-.369-35.503-.289a5.98 5.98 0 0 0-4.235 1.715 5.967 5.967 0 0 0-1.78 4.208l-.552 68.027a5.976 5.976 0 0 0 5.916 6.015l169.635 1.382h.055a5.978 5.978 0 0 0 5.972-5.916l.553-68.028a5.98 5.98 0 0 0-1.703-4.244 5.971 5.971 0 0 0-4.207-1.795l-61.178-.504a.908.908 0 0 1-.649-.274.912.912 0 0 1-.266-.653.948.948 0 0 1 .928-.916l61.165.504a7.816 7.816 0 0 1 7.747 7.87l-.553 68.027a7.818 7.818 0 0 1-2.304 5.494 7.818 7.818 0 0 1-5.505 2.278Z" fill="#353535"/><path d="m64.95 469.186 1.461 13.927 9.418 1.1v-16.514l-10.88 1.487Z" fill="#fff"/><path d="M75.831 485.139h-.104l-9.418-1.105a.925.925 0 0 1-.811-.824l-1.463-13.927a.929.929 0 0 1 .793-1.008l10.88-1.48a.928.928 0 0 1 .731.215.933.933 0 0 1 .314.694v16.52a.93.93 0 0 1-.308.688.942.942 0 0 1-.614.227Zm-8.6-2.856 7.654.897v-14.432l-8.945 1.229 1.29 12.306Z" fill="#353535"/><path d="M77.318 508.464a65.82 65.82 0 0 1-17.921 0 4.21 4.21 0 0 1-3.547-3.435 4.212 4.212 0 0 1 .057-1.744c1.665-6.758 4.534-19.586 9.45-25.533l1.228 3.226 1.69-3.035a1.474 1.474 0 0 1 1.117-.756l3.687-.473a1.507 1.507 0 0 1 1.652 1.18l.615 2.795 1.29-3.686 4.3 26.736a4.195 4.195 0 0 1-3.618 4.725Z" fill="#007BB3"/><path d="M68.409 509.997a66.781 66.781 0 0 1-9.135-.615 5.18 5.18 0 0 1-3.557-2.211 5.121 5.121 0 0 1-.732-4.098l.357-1.456c1.702-7.01 4.558-18.738 9.276-24.439a.92.92 0 0 1 1.573.258l.516 1.37.725-1.303a2.457 2.457 0 0 1 1.806-1.228l3.686-.467a2.419 2.419 0 0 1 2.556 1.523l.221-.614a.919.919 0 0 1 .952-.624.914.914 0 0 1 .824.784l4.3 26.73a5.138 5.138 0 0 1-4.35 5.775 65.403 65.403 0 0 1-9.018.615Zm-3.348-30.35c-3.89 5.763-6.39 16.054-7.932 22.394l-.356 1.462a3.25 3.25 0 0 0 .467 2.623 3.315 3.315 0 0 0 2.285 1.419c5.86.806 11.803.806 17.663 0a3.287 3.287 0 0 0 2.783-3.686l-3.723-23.124-.086.246a.924.924 0 0 1-.928.614.915.915 0 0 1-.842-.731l-.614-2.795a.578.578 0 0 0-.614-.455l-3.686.473a.575.575 0 0 0-.43.289l-1.69 3.035a.922.922 0 0 1-.872.473.93.93 0 0 1-.792-.615l-.633-1.622Z" fill="#353535"/><path d="M66.402 505.517a36.413 36.413 0 0 1-7.986-.848.925.925 0 0 1-.694-1.106.934.934 0 0 1 1.105-.694c9.136 2.089 18.701-.614 18.794-.614a.912.912 0 0 1 .72.058.913.913 0 0 1 .458.56.925.925 0 0 1-.334.994.907.907 0 0 1-.335.157 46.454 46.454 0 0 1-11.728 1.493ZM64.16 495.172a.922.922 0 1 1-.031-1.843l8.828-.289a.9.9 0 0 1 .669.249.898.898 0 0 1 .283.654.927.927 0 0 1-.89.952l-8.829.289-.03-.012Z" fill="#353535"/><path d="m109.062 461.766 1.414 20.329h11.334l.523-20.329h-13.271Z" fill="#fff"/><path d="M121.809 483.016h-11.334a.927.927 0 0 1-.922-.86l-1.425-20.323a.907.907 0 0 1 .245-.694.934.934 0 0 1 .67-.295h13.27a.924.924 0 0 1 .859.586.92.92 0 0 1 .063.36l-.523 20.329a.92.92 0 0 1-.903.897Zm-10.474-1.843h9.577l.48-18.486h-11.341l1.284 18.486Z" fill="#353535"/><path d="M107.512 493.571a4.084 4.084 0 0 0 3.158 4.042c6.518 1.518 21.195 4.915 25.379 5.529 5.431.811 12.109-.854 14.984-4.03s-6.432-10.769-10.843-13.515c-6.555-4.104-12.859-12.208-15.494-12.576-2.636-.369-7.575 7.298-7.575 7.298l-8.061-3.385a100.243 100.243 0 0 0-1.548 16.637Z" fill="#007BB3"/><path d="M138.878 504.258c-.991.002-1.98-.068-2.961-.209-4.085-.614-17.699-3.729-25.453-5.529a5.06 5.06 0 0 1-3.87-4.958c.059-5.645.583-11.275 1.567-16.833a.928.928 0 0 1 1.228-.664l7.372 3.072c1.598-2.384 5.339-7.434 8.049-7.065 1.542.209 3.495 2.003 6.807 5.148 2.746 2.605 5.861 5.56 9.049 7.557 2.863 1.787 11.157 7.888 11.777 12.336a3.071 3.071 0 0 1-.737 2.586c-2.482 2.777-7.735 4.559-12.828 4.559Zm-30.441-10.671a3.191 3.191 0 0 0 2.457 3.133c6.224 1.45 21.14 4.915 25.306 5.529 5.24.78 11.593-.897 14.161-3.741a1.235 1.235 0 0 0 .282-1.094c-.418-2.998-6.616-8.337-10.929-11.058-3.348-2.095-6.531-5.118-9.338-7.778-2.341-2.224-4.762-4.522-5.794-4.663-1.228-.191-4.442 3.422-6.672 6.881a.92.92 0 0 1-.499.386.92.92 0 0 1-.631-.03l-6.998-2.943a105.224 105.224 0 0 0-1.345 15.378Z" fill="#353535"/><path d="M138.783 500.512c-11.9 0-27.762-6.407-28.659-6.758a.908.908 0 0 1-.502-.497.93.93 0 0 1 .197-1.007.921.921 0 0 1 1.005-.203c.289.116 28.758 11.623 37.027 4.159a.922.922 0 0 1 1.015-.15.927.927 0 0 1 .22 1.52c-2.384 2.138-6.094 2.936-10.303 2.936ZM126.221 488.218a.92.92 0 0 1-.891-1.135.923.923 0 0 1 .276-.469l5.763-5.197a.912.912 0 0 1 .682-.295.927.927 0 0 1 .869.633.93.93 0 0 1-.072.74.94.94 0 0 1-.25.286l-5.763 5.203a.904.904 0 0 1-.614.234ZM61.739 329.294s-3.508 63.543-5.351 85.475c-1.843 21.933 4.3 57.197 4.3 57.197l17.491-.922s1.198-42.869 2.5-54.776c0 0 7.373-16.139 9.578-30.533 2.206-14.394 9.652-37.132 9.652-37.132s6.057 113.484 6.641 122.398c0 0 13.712.615 18.633-2.457 0 0 8.712-41.383 7.465-63.893-1.247-22.51.123-78.447.123-78.447l-71.032 3.09Z" fill="#353535"/><path d="M77.46 417.143H72.11a.92.92 0 1 1 0-1.843h5.351a.92.92 0 1 1 0 1.843ZM115.544 450.163a.931.931 0 0 1-.903-.94c.196-10.592 11.758-29.489 12.287-30.288a.92.92 0 0 1 1.566.965c-.116.196-11.795 19.266-11.98 29.353a.915.915 0 0 1-.291.662.92.92 0 0 1-.679.248ZM138.304 227.64c1.272-.098 7.52 12.705 27.081 12.164 19.561-.541 35.258-22.424 35.258-22.424s6.758-11.39 11.881-15.506c5.124-4.116 5.929-4.663 5.929-4.663a4.174 4.174 0 0 1 0 4.663c-1.604 2.519-6.045 7.231-6.045 7.231a6.502 6.502 0 0 1 2.684 8.275c-2.537 6.432-9.682 5.916-9.682 5.916s-14.499 64.225-74.441 33.698l7.335-29.354Z" fill="#fff"/><path d="M160.699 266.137c-9.166 0-19.248-2.777-30.146-8.33a.916.916 0 0 1-.473-1.045l7.329-29.348a.915.915 0 0 1 .823-.718c.713-.062 1.229.479 2.261 1.665 2.93 3.262 9.793 10.91 24.869 10.493 18.56-.51 33.845-21.091 34.508-22.006.504-.848 6.979-11.624 12.078-15.722 5.1-4.098 5.96-4.687 5.99-4.706a.923.923 0 0 1 1.229.209 5.067 5.067 0 0 1 .043 5.708 63.34 63.34 0 0 1-5.412 6.61c1.843 1.481 3.815 4.522 2.144 8.767-2.23 5.658-7.766 6.414-9.83 6.494-1.192 4.497-8.472 28.874-28.352 38.218a39.686 39.686 0 0 1-17.061 3.711Zm-28.654-9.639c17.356 8.681 32.475 10.118 44.947 4.264 21.023-9.873 27.461-37.396 27.523-37.673a.916.916 0 0 1 .964-.718c.264 0 6.506.374 8.761-5.333a5.578 5.578 0 0 0-2.273-7.133.9.9 0 0 1-.467-.663.925.925 0 0 1 .24-.774c.043-.043 4.398-4.675 5.94-7.096a3.263 3.263 0 0 0 .437-2.758c-.799.614-2.292 1.787-5.014 3.974-4.914 3.969-11.599 15.144-11.672 15.261l-.043.068c-.652.909-16.189 22.264-35.977 22.804-15.973.443-23.198-7.654-26.294-11.107l-.283-.313-6.789 27.197Z" fill="#353535"/><path d="M41.355 256.992s5.874-37.887 26.614-47.213c20.74-9.326 48.792-8.023 56.521-3.367 7.728 4.657 27.904 25.699 27.904 25.699l-17.816 24.881s4.067 66.965.847 84.646c0 0-19.819 2.31-28.229-1.002-8.41-3.311-36.05-7.949-49.265-1.879l2.402-84.781-18.977 3.016Z" fill="#03A9F4"/><path d="M121.46 343.35c-5.314 0-10.942-.417-14.597-1.843-8.663-3.415-35.99-7.673-48.534-1.904a.912.912 0 0 1-.897-.068.932.932 0 0 1-.412-.792l2.372-83.675-17.884 2.844a.923.923 0 0 1-1.019-.623.93.93 0 0 1-.038-.427c.246-1.567 6.187-38.49 27.142-47.92 20.544-9.215 48.977-8.386 57.387-3.324 7.753 4.669 27.265 24.992 28.088 25.859a.918.918 0 0 1 .086 1.173l-17.632 24.611c.344 5.658 3.944 67.401.824 84.535a.94.94 0 0 1-.799.756c-4.679.508-9.381.774-14.087.798Zm-45.567-8.472c12.6 0 26.196 2.753 31.645 4.915 7.231 2.851 23.561 1.383 27.106 1.014 2.943-18.345-.946-83.085-.983-83.743a.93.93 0 0 1 .172-.614l17.368-24.224c-3.232-3.348-20.329-20.888-27.179-25.004-7.219-4.344-35.019-5.855-55.68 3.422-17.963 8.066-24.61 38.637-25.851 45.229l17.718-2.808a.91.91 0 0 1 .99.54c.055.124.081.258.079.394l-2.384 83.355c4.663-1.787 10.708-2.476 17-2.476Z" fill="#353535"/><path d="M76.18 322.206a.927.927 0 0 1-.9-.495.918.918 0 0 1 .113-1.021.925.925 0 0 1 .628-.327c31.332-5.529 40.424-27.154 40.517-27.375a.92.92 0 0 1 1.201-.507.922.922 0 0 1 .506 1.201c-.092.227-9.571 22.78-41.905 28.5l-.16.024ZM133.077 283.468h-40.35l12.637-45.075h40.357l-12.644 45.075Z" fill="#353535"/><path d="m44.917 257.134 20.421-9.129s-2.875 34.6 38.447 18.627a29.493 29.493 0 0 1-1.309-9.639c.215-5.198 3.324-.172 3.76 4.055.436 4.226 10.137 2.506 15.973.841 5.837-1.665 13.479-.571 0 6.863-13.479 7.433-16.44 4.122-16.44 4.122s-17.202 24.089-38.643 18.971c-26.356-6.297-22.209-34.711-22.209-34.711Z" fill="#fff"/><path d="M73.11 293.469a26.418 26.418 0 0 1-6.186-.731c-26.86-6.413-22.952-35.448-22.91-35.737a.93.93 0 0 1 .535-.706l20.427-9.129a.912.912 0 0 1 1.212.45.931.931 0 0 1 .085.465c0 .123-.922 12.484 7.132 18.504 6.205 4.633 16.047 4.461 29.262-.51a30.49 30.49 0 0 1-1.1-9.129c0-.749.129-3.072 1.72-3.072h.043c2.034 0 3.576 4.608 3.834 7.096.018.219.087.431.202.618.116.186.274.343.462.457 2.162 1.462 8.656.541 14.13-1.02 2.537-.725 7.587-1.48 8.545.848.787 1.905-1.634 4.301-7.845 7.704-10.376 5.726-14.904 5.265-16.649 4.528-2.746 3.483-16.065 19.364-32.899 19.364Zm-27.338-35.706a39.474 39.474 0 0 0 1.271 14.167c2.906 10.094 9.738 16.496 20.274 19.014 1.891.456 3.83.685 5.775.682 17.871 0 31.75-19.081 31.903-19.296a.92.92 0 0 1 .701-.381.902.902 0 0 1 .737.307s3.029 2.457 15.303-4.301c7.139-3.938 7.035-5.388 7.029-5.4-.277-.454-2.968-.731-6.328.227-2.777.793-12.109 3.189-15.672.775a3.255 3.255 0 0 1-1.469-2.409 11.672 11.672 0 0 0-1.806-5.154 6.205 6.205 0 0 0-.11 1.044 28.449 28.449 0 0 0 1.228 9.308.92.92 0 0 1-.54 1.155c-14.253 5.529-24.968 5.701-31.836.565-7.188-5.382-7.92-14.898-7.913-18.609l-18.547 8.306ZM99.429 192.512c-1.745 1.622-5.21 3.588-7.888 2.237-2.01-1.008-3.127-3.631-3.072-6.635a4.028 4.028 0 0 1-3.023-.762c-1.34-1.18-1.087-3.361-1.038-4.792.246-6.61-3.594-7.63-2.654-12.115.737-3.526 3.508-5.628 4.024-6.021 2.611-1.978 4.386-1.339 8.78-2.494 7.371-1.935 7.636-5.124 12.507-5.136.283 0 6.912.068 9.167 4.651 1.843 3.729-.308 8.257-2.519 10.634-2.863 3.072-4.915 1.561-7.79 4.147-5.056 4.522-1.254 11.488-6.494 16.286Z" fill="#353535"/><path d="m114.19 180.715-.289-.252c-1.462-1.265-2.985-2.727-3.379-4.62-1.652-8.048-9.018-10.972-9.362-3.581-.086 1.843-6.893 1.769-6.089 3.729 2.108 5.099 2.157 3.729-.817 5.609-.342.011-.678.09-.989.233-1.523.713-2.064 2.783-1.228 4.626a3.92 3.92 0 0 0 2.42 2.163v8.066a7.432 7.432 0 0 1-4.626 6.887l-2.722 1.112s12.693 8.282 25.576-.811l-1.72-.774a8.681 8.681 0 0 1-5.118-7.642v-1.573a6.75 6.75 0 0 0 2.458-.209c3.606-1.05 4.804-5.197 4.189-10.364l1.469-.786a1.106 1.106 0 0 0 .227-1.813Z" fill="#fff"/><path d="M99.693 209.034a26.422 26.422 0 0 1-13.067-3.569.927.927 0 0 1 .153-1.628l2.722-1.112a6.498 6.498 0 0 0 4.054-6.033v-7.428a4.99 4.99 0 0 1-2.334-2.414c-1.07-2.298-.332-4.915 1.653-5.849a3.422 3.422 0 0 1 1.08-.301c.468-.289.849-.492 1.168-.664.184-.098.387-.202.51-.282-.175-.53-.38-1.049-.614-1.554-.215-.504-.48-1.112-.787-1.843a1.601 1.601 0 0 1 0-1.352c.486-1.001 1.88-1.395 3.49-1.843.792-.221 2.248-.614 2.506-.971.221-4.46 2.796-5.013 3.582-5.074 2.758-.215 6.457 2.992 7.6 8.558.337 1.628 1.763 2.973 3.071 4.103l.289.252a2.03 2.03 0 0 1-.362 3.324l-.922.498c.535 5.762-1.229 9.657-4.915 10.726a7.08 7.08 0 0 1-1.806.277v.614a7.782 7.782 0 0 0 4.577 6.807l1.72.774a.933.933 0 0 1 .541.75.927.927 0 0 1-.387.841 23.08 23.08 0 0 1-13.522 4.393Zm-10.444-4.221c3.545 1.733 12.287 4.86 21.539-.78l-.19-.086a9.664 9.664 0 0 1-5.665-8.453v-1.598a.904.904 0 0 1 .295-.682.937.937 0 0 1 .707-.245 5.916 5.916 0 0 0 2.144-.172c4.048-1.18 3.815-6.943 3.526-9.369a.924.924 0 0 1 .099-.534.923.923 0 0 1 .38-.388l1.469-.786a.179.179 0 0 0 .098-.141.2.2 0 0 0-.015-.091.18.18 0 0 0-.053-.075l-.288-.252c-1.542-1.327-3.226-2.931-3.686-5.13-.977-4.774-3.963-7.231-5.653-7.09-1.566.123-1.843 2.396-1.886 3.367-.073 1.56-1.99 2.095-3.845 2.617a9.62 9.62 0 0 0-2.267.817c.282.688.528 1.229.73 1.72 1.008 2.323 1.352 3.103-.706 4.203-.332.178-.743.399-1.229.712a.932.932 0 0 1-.454.148 1.539 1.539 0 0 0-.615.147c-1.062.492-1.406 2.021-.761 3.397a3.035 3.035 0 0 0 1.843 1.671.922.922 0 0 1 .67.885v8.067a8.328 8.328 0 0 1-5.198 7.74l-.99.381Z" fill="#353535"/><path d="M105.859 194.815h-.141a11.49 11.49 0 0 1-7.907-5.118.92.92 0 0 1 1.037-1.351.92.92 0 0 1 .56.43 9.827 9.827 0 0 0 6.586 4.22.928.928 0 0 1 .854.989.921.921 0 0 1-.989.854v-.024Z" fill="#353535"/></svg>