<svg width="70" height="70" fill="none" xmlns="http://www.w3.org/2000/svg"><g clip-path="url(#a)"><mask id="b" style="mask-type:luminance" maskUnits="userSpaceOnUse" x="0" y="0" width="70" height="70"><path d="M0 0h70v70H0V0Z" fill="#fff"/></mask><g mask="url(#b)" stroke="#03A9F4" stroke-width="2" stroke-miterlimit="10" stroke-linecap="round" stroke-linejoin="round"><path d="M39.714 14.284h-9.428a1.915 1.915 0 0 1-1.915-1.915V2.941c0-1.058.858-1.915 1.915-1.915h9.428c1.058 0 1.915.857 1.915 1.915v9.428a1.915 1.915 0 0 1-1.915 1.915ZM39.714 68.974h-9.428a1.915 1.915 0 0 1-1.915-1.915v-9.428c0-1.058.858-1.915 1.915-1.915h9.428c1.058 0 1.915.857 1.915 1.915v9.428a1.915 1.915 0 0 1-1.915 1.915ZM68.973 35a6.629 6.629 0 1 1-13.258 0 6.629 6.629 0 0 1 13.258 0ZM34.998 38.315a3.315 3.315 0 1 1 0-6.63 3.315 3.315 0 0 1 0 6.63Zm10.773-5.525h-2.212a8.785 8.785 0 0 0-.947-2.279l1.566-1.566a1.105 1.105 0 0 0 0-1.562l-1.563-1.563a1.105 1.105 0 0 0-1.562 0l-1.566 1.566a8.784 8.784 0 0 0-2.28-.946v-2.212c0-.61-.494-1.105-1.104-1.105h-2.21c-.61 0-1.104.495-1.104 1.105v2.212a8.784 8.784 0 0 0-2.28.946l-1.566-1.566a1.105 1.105 0 0 0-1.562 0l-1.562 1.563a1.105 1.105 0 0 0 0 1.562l1.566 1.566a8.785 8.785 0 0 0-.947 2.28h-2.212c-.61 0-1.105.494-1.105 1.104v2.21c0 .61.495 1.105 1.105 1.105h2.212c.209.81.531 1.575.947 2.279l-1.566 1.566a1.105 1.105 0 0 0 0 1.562l1.562 1.563a1.105 1.105 0 0 0 1.563 0l1.566-1.566a8.777 8.777 0 0 0 2.279.946v2.212c0 .61.494 1.105 1.104 1.105h2.21c.61 0 1.105-.495 1.105-1.105V43.56a8.777 8.777 0 0 0 2.279-.946l1.566 1.566c.431.431 1.13.431 1.562 0l1.563-1.563a1.105 1.105 0 0 0 0-1.562l-1.566-1.566a8.787 8.787 0 0 0 .947-2.28h2.212c.61 0 1.104-.494 1.104-1.104v-2.21c0-.61-.494-1.105-1.104-1.105ZM14.282 35a6.629 6.629 0 1 1-13.258 0 6.629 6.629 0 0 1 13.258 0ZM64.553 14.492v8.355c0 .61-.495 1.105-1.105 1.105H61.24c-.61 0-1.105-.495-1.105-1.105V9.864l-6.703.002 1.075 1.073a1.073 1.073 0 0 1 0 1.516l-1.517 1.515c-.418.42-1.096.42-1.514 0l-4.8-4.799a2.139 2.139 0 0 1-.628-1.516c0-.548.21-1.098.627-1.516l4.8-4.8a1.069 1.069 0 0 1 1.516 0l1.516 1.516a1.073 1.073 0 0 1 0 1.516L53.43 5.446h8.36a2.761 2.761 0 0 1 2.762 2.761v6.285ZM16.104 5.446h6.742c.61 0 1.104.494 1.104 1.104v2.21c0 .61-.495 1.104-1.104 1.104H9.863l.001 6.704 1.073-1.075a1.073 1.073 0 0 1 1.517 0l1.514 1.516c.42.419.42 1.097 0 1.515l-4.799 4.8a2.139 2.139 0 0 1-1.516.628c-.548 0-1.098-.21-1.516-.628l-4.799-4.8a1.069 1.069 0 0 1 0-1.515l1.515-1.516a1.073 1.073 0 0 1 1.516 0l1.075 1.075v-8.36a2.761 2.761 0 0 1 2.762-2.762h7.898ZM5.445 50.947v10.846a2.761 2.761 0 0 0 2.762 2.762h8.36l-1.074 1.074a1.073 1.073 0 0 0 0 1.516l1.516 1.515c.418.42 1.096.42 1.515 0l4.8-4.799c.418-.418.628-.968.628-1.516s-.21-1.098-.628-1.516l-4.8-4.799a1.069 1.069 0 0 0-1.515 0l-1.516 1.515a1.073 1.073 0 0 0 0 1.516l1.074 1.073-6.703.002V47.153c0-.61-.495-1.105-1.105-1.105H6.55c-.61 0-1.105.495-1.105 1.105v3.794ZM64.553 53.432l1.075 1.075a1.072 1.072 0 0 0 1.515 0l1.516-1.516a1.072 1.072 0 0 0 0-1.516l-4.799-4.799a2.137 2.137 0 0 0-1.517-.628c-.548 0-1.097.21-1.516.628l-4.8 4.8a1.072 1.072 0 0 0 0 1.515l1.517 1.516a1.072 1.072 0 0 0 1.515 0l1.074-1.075v6.703H47.153c-.61 0-1.105.495-1.105 1.105v2.21c0 .61.495 1.105 1.105 1.105h14.64a2.762 2.762 0 0 0 2.761-2.762v-8.36Z"/></g></g><defs><clipPath id="a"><path fill="#fff" d="M0 0h70v70H0z"/></clipPath></defs></svg>