<svg width="80" height="80" fill="none" xmlns="http://www.w3.org/2000/svg"><path d="M18.774 28.213c-1.273-1.591-2.122-3.712-2.122-5.94 0-5.197 4.243-9.44 9.44-9.44.636 0 1.166.107 1.803.213" stroke="#03A9F4" stroke-width="2" stroke-miterlimit="10" stroke-linecap="round" stroke-linejoin="round"/><path d="M13.256 35.848c-1.91-1.591-3.182-3.925-3.182-6.682a8.546 8.546 0 0 1 6.682-8.379M16.651 54.834C11.348 54.834 7 50.486 7 45.183s4.348-9.652 9.651-9.652" stroke="#03A9F4" stroke-width="2" stroke-miterlimit="10" stroke-linecap="round" stroke-linejoin="round"/><path d="M22.38 66.5c-.848.213-1.697.425-2.651.425a8.781 8.781 0 0 1-8.803-8.803c0-1.591.424-3.076 1.166-4.349M36.272 48.469v16.757a6.88 6.88 0 0 1-6.894 6.894 6.88 6.88 0 0 1-6.894-6.894c0-.53 0-.954.106-1.379M25.668 12.303c0-2.97 2.333-5.303 5.303-5.303 2.97 0 5.303 2.333 5.303 5.303v18.348M60.984 28.213c1.273-1.591 2.122-3.712 2.122-5.94 0-5.197-4.243-9.44-9.44-9.44-.636 0-1.166.107-1.803.213" stroke="#03A9F4" stroke-width="2" stroke-miterlimit="10" stroke-linecap="round" stroke-linejoin="round"/><path d="M66.5 35.848c1.91-1.591 3.182-3.925 3.182-6.682A8.546 8.546 0 0 0 63 20.787M63.105 54.834c5.304 0 9.652-4.348 9.652-9.651s-4.349-9.652-9.652-9.652" stroke="#03A9F4" stroke-width="2" stroke-miterlimit="10" stroke-linecap="round" stroke-linejoin="round"/><path d="M57.379 66.5c.848.213 1.697.425 2.651.425a8.781 8.781 0 0 0 8.803-8.803c0-1.591-.424-3.076-1.166-4.349M43.484 48.469v16.757a6.88 6.88 0 0 0 6.894 6.894 6.88 6.88 0 0 0 6.894-6.894c0-.53 0-.954-.106-1.379M54.09 12.303C54.09 9.333 51.757 7 48.787 7c-2.97 0-5.303 2.333-5.303 5.303v18.348" stroke="#03A9F4" stroke-width="2" stroke-miterlimit="10" stroke-linecap="round" stroke-linejoin="round"/><path d="m23.332 39.56 2.97-2.969a19.14 19.14 0 0 1 27.151 0l2.97 2.97-2.97 2.97a19.14 19.14 0 0 1-27.151 0l-2.97-2.97Z" stroke="#03A9F4" stroke-width="2" stroke-miterlimit="10" stroke-linecap="round" stroke-linejoin="round"/><path d="M39.88 44.757a5.197 5.197 0 1 0 0-10.394 5.197 5.197 0 0 0 0 10.394ZM39.879 25.666v2.121M39.879 51.332v2.121M28.953 28.637l1.591 1.59M49.21 48.895l1.592 1.59M50.802 28.637l-1.591 1.59M30.544 48.895l-1.59 1.59M24.29 24.182c0-1.379 1.166-2.545 2.544-2.545 1.38 0 2.546 1.166 2.546 2.545M26.729 21.636c-1.379 0-2.545-1.167-2.545-2.546 0-1.378 1.166-2.545 2.545-2.545M30.759 55.895a2.852 2.852 0 0 1-2.864 2.863 2.852 2.852 0 0 1-2.864-2.864" stroke="#03A9F4" stroke-width="2" stroke-miterlimit="10" stroke-linecap="round" stroke-linejoin="round"/><path d="M27.79 58.758a2.852 2.852 0 0 1 2.863 2.863 2.852 2.852 0 0 1-2.864 2.864M17.288 48.682a3.915 3.915 0 0 1-3.925-3.924 3.915 3.915 0 0 1 3.925-3.924M56.848 25.031c0-1.379-1.06-2.44-2.44-2.44-1.378 0-2.545 1.167-2.545 2.546M54.41 22.59c1.379 0 2.546-1.166 2.546-2.545 0-1.378-1.167-2.545-2.546-2.545" stroke="#03A9F4" stroke-width="2" stroke-miterlimit="10" stroke-linecap="round" stroke-linejoin="round"/><path d="M56.848 25.031c0-1.379-1.06-2.44-2.44-2.44-1.378 0-2.545 1.167-2.545 2.546M54.41 22.59c1.379 0 2.546-1.166 2.546-2.545 0-1.378-1.167-2.545-2.546-2.545M48.895 56.955a2.852 2.852 0 0 0 2.863 2.864 2.852 2.852 0 0 0 2.864-2.864" stroke="#03A9F4" stroke-width="2" stroke-miterlimit="10" stroke-linecap="round" stroke-linejoin="round"/><path d="M51.758 59.818a2.852 2.852 0 0 0-2.864 2.864 2.852 2.852 0 0 0 2.864 2.864M62.258 48.682a3.915 3.915 0 0 0 3.924-3.924 3.915 3.915 0 0 0-3.924-3.924" stroke="#03A9F4" stroke-width="2" stroke-miterlimit="10" stroke-linecap="round" stroke-linejoin="round"/></svg>