<svg width="74" height="74" fill="none" xmlns="http://www.w3.org/2000/svg"><g clip-path="url(#a)"><path d="m49.109 49.466-9.306 5.804c-.27.169-.545.31-.827.421.066-.172.121-.353.166-.542.46-1.953-.748-3.94-2.75-4.523a1.112 1.112 0 0 0-.145-.031c-2.716-.406-5.421-1.292-7.595-2.004-.76-.25-1.479-.485-2.09-.663-2.545-.74-4.77.326-6.61 1.467l-6.706 4.16-.567-.937a2.492 2.492 0 0 0-3.42-.837l-2.612 1.585a2.492 2.492 0 0 0-.837 3.42l8.232 13.569a2.49 2.49 0 0 0 3.42.837l2.611-1.585a2.492 2.492 0 0 0 .837-3.42l-.718-1.184 1.276-.79 12.128 2.86a7.932 7.932 0 0 0 2.066.215 7.378 7.378 0 0 0 3.87-1.24l16.87-11.106c1.646-1.084 2.105-3.697.961-5.481-.552-.862-2.78-3.41-8.254.005Zm-30.17 18.27-2.612 1.585a.306.306 0 0 1-.415-.1L7.68 55.65a.306.306 0 0 1 .102-.414l2.612-1.585a.305.305 0 0 1 .414.101l8.232 13.57c.085.14.038.329-.101.414Zm36.26-14.621L38.328 64.22c-1.278.84-2.7 1.084-4.23.723l-12.57-2.963a1.094 1.094 0 0 0-.826.135l-1.646 1.017-4.676-7.708 6.724-4.171c1.503-.932 3.13-1.725 4.845-1.225.577.168 1.246.387 2.021.64 2.23.732 5.001 1.64 7.871 2.077.861.281 1.363 1.087 1.17 1.901-.203.865-.834 1.259-1.874 1.172-1.389-.242-2.716-.578-4.12-.933-.673-.17-1.369-.347-2.084-.515a1.094 1.094 0 0 0-.502 2.129c.698.164 1.385.338 2.048.506 1.463.37 2.845.72 4.334.978l.022.002.022.004 1.184.156c1.83.236 3.44-.097 4.919-1.02l9.305-5.804c2.508-1.565 4.522-1.825 5.255-.68.495.772.33 2.043-.323 2.473Zm-44.084 2.964a.95.95 0 1 1-1.87.331.95.95 0 0 1 1.87-.331Zm9.866-35.207c.178.328.34.62.483.881.578 1.048.868 1.573.962 2.024.093.45.037 1.048-.076 2.239-.028.297-.06.629-.093 1a4.483 4.483 0 0 0 2.847 4.603c.348.137.658.256.937.364l.223.087-4.103 9.56a1.094 1.094 0 0 0 1.226 1.502l4.814-.992 2.598 4.173a1.094 1.094 0 0 0 1.934-.147l4.041-9.415-.123-.053c.792-.267 1.25-.404 1.63-.415.46-.014 1.04.145 2.193.463l.414.114 3.354 7.182a1.094 1.094 0 0 0 1.938.085l2.464-4.254 4.843.84a1.094 1.094 0 0 0 1.178-1.54l-3.828-8.197.316-.146a4.483 4.483 0 0 0 2.563-4.767l-.153-.993c-.185-1.182-.278-1.776-.212-2.23.067-.456.324-.998.838-2.079l.43-.909a4.483 4.483 0 0 0-1.102-5.298c-.28-.248-.53-.466-.756-.663-.9-.786-1.353-1.181-1.595-1.572-.242-.392-.393-.973-.694-2.13l-.256-.973a4.483 4.483 0 0 0-4.248-3.351c-.374-.01-.707-.016-1.006-.022-1.196-.023-1.796-.035-2.233-.179-.437-.144-.926-.492-1.9-1.185-.244-.173-.516-.366-.822-.58a4.484 4.484 0 0 0-5.408.163c-.292.233-.552.442-.784.63-.931.75-1.399 1.127-1.826 1.298-.427.17-1.026.218-2.218.314-.298.023-.63.05-1.002.082a4.483 4.483 0 0 0-4.038 3.602c-.075.367-.139.693-.196.987-.23 1.173-.347 1.763-.564 2.168-.218.405-.646.826-1.498 1.666-.212.21-.45.443-.714.707a4.484 4.484 0 0 0-.778 5.356Zm10.568 22.506-1.893-3.041a1.094 1.094 0 0 0-1.15-.494l-3.508.723 3.228-7.52c.313.299.646.783 1.233 1.633.17.246.358.52.572.827a4.478 4.478 0 0 0 4.074 1.918l-2.556 5.954Zm16.718-5.79a1.094 1.094 0 0 0-1.134.53l-1.796 3.1-1.922-4.117a4.485 4.485 0 0 0 3.055-2.093l.521-.86c.619-1.024.929-1.538 1.272-1.845.15-.133.339-.256.595-.394l2.939 6.291-3.53-.612ZM23.303 17.066c.261-.261.495-.492.706-.699 2.024-1.995 2.124-2.181 2.672-4.97.057-.29.12-.612.193-.974a2.283 2.283 0 0 1 2.082-1.857c.368-.032.695-.058.99-.082 2.833-.227 3.029-.305 5.242-2.09l.774-.621a2.283 2.283 0 0 1 2.788-.084c.302.212.57.402.81.573 2.317 1.647 2.517 1.713 5.36 1.769.294.005.623.012.992.021a2.283 2.283 0 0 1 2.19 1.728c.095.356.178.674.252.96.716 2.75.827 2.93 2.969 4.8.222.194.47.41.746.654.793.7 1.016 1.773.568 2.731l-.425.898c-1.22 2.567-1.25 2.776-.81 5.584.045.292.096.617.15.982a2.283 2.283 0 0 1-1.32 2.457l-.903.415c-2.584 1.183-2.742 1.323-4.21 3.757-.153.252-.323.533-.516.848a2.283 2.283 0 0 1-2.591 1.033c-.356-.096-.673-.183-.957-.261-1.37-.378-2.108-.566-2.84-.543-.731.022-1.457.254-2.801.714l-.94.319a2.283 2.283 0 0 1-2.65-.874l-.565-.817c-1.613-2.34-1.78-2.47-4.43-3.494-.276-.107-.583-.225-.926-.36a2.282 2.282 0 0 1-1.467-2.372c.032-.368.063-.695.091-.989.268-2.83.225-3.036-1.148-5.525-.142-.258-.301-.546-.477-.87a2.284 2.284 0 0 1 .401-2.761Zm14.814 13.786c5.88-.178 10.52-5.107 10.342-10.988-.178-5.88-5.108-10.52-10.988-10.341-5.88.178-10.52 5.107-10.342 10.988.179 5.88 5.108 10.52 10.988 10.341Zm-.58-19.143c4.675-.141 8.594 3.547 8.735 8.222.142 4.674-3.546 8.593-8.221 8.735-4.675.141-8.593-3.547-8.735-8.222-.142-4.674 3.546-8.593 8.221-8.735Zm-4.984 9.68a1.094 1.094 0 0 1 1.499-1.594l1.945 1.831 5.45-5.255a1.094 1.094 0 1 1 1.518 1.575l-6.2 5.978a1.09 1.09 0 0 1-1.508.01l-2.704-2.546ZM67.91 9.06l-5.618-6.224a1.484 1.484 0 0 0-2.267.068l-5.23 6.553a1.474 1.474 0 0 0-.169 1.594c.263.525.79.84 1.377.822l1.433-.044.379 12.522a1.884 1.884 0 0 0 1.938 1.825l4.22-.128a1.884 1.884 0 0 0 1.824-1.939l-.38-12.521 1.434-.044a1.474 1.474 0 0 0 1.324-.903c.23-.54.129-1.145-.265-1.58Zm-6.175-4.79-.002.001.002-.002Zm2.523 5.164a1.094 1.094 0 0 0-1.06 1.127l.404 13.31-3.61.11-.403-13.31a1.094 1.094 0 0 0-1.127-1.061l-1.015.03 3.774-4.727 4.053 4.49-1.016.031ZM8.268 13.32l1.432-.043.38 12.522a1.884 1.884 0 0 0 1.938 1.824l4.22-.128a1.884 1.884 0 0 0 1.824-1.938l-.38-12.522 1.434-.043a1.474 1.474 0 0 0 1.324-.904c.23-.54.128-1.145-.265-1.58l-5.618-6.225a1.485 1.485 0 0 0-2.267.069l-5.23 6.553a1.474 1.474 0 0 0-.169 1.594c.262.524.79.84 1.376.821Zm5.731-7.603-.002.002.002-.002Zm-.513.644 4.053 4.49-1.016.03a1.094 1.094 0 0 0-1.06 1.127l.403 13.31-3.61.11-.402-13.31a1.094 1.094 0 0 0-1.127-1.06l-1.015.03 3.774-4.727Z" fill="#03A9F4"/></g><defs><clipPath id="a"><path fill="#fff" transform="rotate(-1.736 102.017 -30.052)" d="M0 0h70v70H0z"/></clipPath></defs></svg>