<svg width="70" height="70" fill="none" xmlns="http://www.w3.org/2000/svg"><path d="M53.401 46.506c-3.784 0-6.864 3.08-6.864 6.874a6.872 6.872 0 0 0 6.864 6.864c3.795 0 6.874-3.08 6.874-6.864 0-3.795-3.09-6.874-6.874-6.874Zm0 11.847a4.983 4.983 0 0 1-4.973-4.973c0-2.749 2.235-4.983 4.973-4.983a4.987 4.987 0 0 1 4.983 4.983c0 2.738-2.234 4.973-4.983 4.973Z" fill="#03A9F4" stroke="#03A9F4" stroke-width=".3"/><mask id="a" maskUnits="userSpaceOnUse" x=".324" y=".336" width="69" height="69" fill="#000"><path fill="#fff" d="M.324.336h69v69h-69z"/><path d="m67.983 49.944-2.259-.318a12.23 12.23 0 0 0-.954-2.302l1.368-1.824a.804.804 0 0 0-.074-1.04l-3.755-3.754a.804.804 0 0 0-1.04-.074L59.446 42c-.72-.382-1.495-.7-2.301-.955l-.318-2.259a.798.798 0 0 0-.785-.689h-2.62V6.374a5.042 5.042 0 0 0-5.038-5.038H6.363a5.042 5.042 0 0 0-5.039 5.038v42.032a5.042 5.042 0 0 0 5.038 5.038h31.765v2.577a.79.79 0 0 0 .679.785l2.26.318c.243.796.561 1.56.954 2.302L40.65 61.25a.804.804 0 0 0 .075 1.04l3.754 3.754a.804.804 0 0 0 1.04.074l1.824-1.368c.732.392 1.506.71 2.301.955l.319 2.259a.789.789 0 0 0 .785.678h5.302a.79.79 0 0 0 .785-.689l.319-2.26c.795-.243 1.559-.561 2.301-.954l1.824 1.369a.805.805 0 0 0 1.04-.075l3.754-3.754a.804.804 0 0 0 .075-1.04l-1.369-1.824c.382-.721.7-1.485.944-2.301l2.26-.319a.79.79 0 0 0 .678-.784v-5.303c.01-.372-.286-.711-.679-.764ZM2.915 6.384a3.454 3.454 0 0 1 3.447-3.446h42.032a3.454 3.454 0 0 1 3.447 3.447v3.457H2.915V6.385Zm3.447 45.48a3.454 3.454 0 0 1-3.447-3.447V11.433h48.926v26.675h-1.093a.789.789 0 0 0-.784.678l-.319 2.26c-.148.042-.297.105-.445.159V14.88a.801.801 0 0 0-.796-.795H6.362a.801.801 0 0 0-.795.795v33.537c0 .434.36.795.795.795h34.852c-.043.138-.106.276-.149.414l-2.259.318a.79.79 0 0 0-.679.785v1.135H6.362Zm34.29-6.364 1.368 1.824c-.053.096-.096.202-.138.297H7.158V15.676h40.44v26.197c-.084.042-.18.074-.265.127l-1.824-1.368a.804.804 0 0 0-1.04.074l-3.754 3.755a.791.791 0 0 0-.064 1.039Zm26.43 9.842-2.09.297a.796.796 0 0 0-.657.584 11.158 11.158 0 0 1-1.188 2.874.785.785 0 0 0 .042.88l1.262 1.687-2.778 2.778-1.687-1.262a.805.805 0 0 0-.88-.053c-.901.53-1.877.934-2.874 1.188a.795.795 0 0 0-.584.658l-.297 2.079h-3.924l-.297-2.09a.795.795 0 0 0-.583-.657 11.578 11.578 0 0 1-2.874-1.188.805.805 0 0 0-.88.053l-1.687 1.262-2.779-2.779 1.262-1.686a.805.805 0 0 0 .053-.88 11.346 11.346 0 0 1-1.188-2.875.795.795 0 0 0-.657-.583l-2.09-.297v-3.924l2.09-.297a.795.795 0 0 0 .658-.584 11.28 11.28 0 0 1 1.187-2.874.805.805 0 0 0-.053-.88l-1.262-1.687 2.779-2.778 1.686 1.262c.255.19.605.212.88.042.86-.509 1.825-.912 2.875-1.188a.795.795 0 0 0 .583-.657l.297-2.09h3.925l.297 2.08a.795.795 0 0 0 .583.657c1.029.265 1.994.668 2.874 1.188.276.159.626.148.88-.043l1.687-1.262 2.778 2.779-1.262 1.686a.785.785 0 0 0-.042.88c.52.87.923 1.835 1.188 2.864.085.308.34.541.657.583l2.09.297v3.956Z"/></mask><path d="m67.983 49.944-2.259-.318a12.23 12.23 0 0 0-.954-2.302l1.368-1.824a.804.804 0 0 0-.074-1.04l-3.755-3.754a.804.804 0 0 0-1.04-.074L59.446 42c-.72-.382-1.495-.7-2.301-.955l-.318-2.259a.798.798 0 0 0-.785-.689h-2.62V6.374a5.042 5.042 0 0 0-5.038-5.038H6.363a5.042 5.042 0 0 0-5.039 5.038v42.032a5.042 5.042 0 0 0 5.038 5.038h31.765v2.577a.79.79 0 0 0 .679.785l2.26.318c.243.796.561 1.56.954 2.302L40.65 61.25a.804.804 0 0 0 .075 1.04l3.754 3.754a.804.804 0 0 0 1.04.074l1.824-1.368c.732.392 1.506.71 2.301.955l.319 2.259a.789.789 0 0 0 .785.678h5.302a.79.79 0 0 0 .785-.689l.319-2.26c.795-.243 1.559-.561 2.301-.954l1.824 1.369a.805.805 0 0 0 1.04-.075l3.754-3.754a.804.804 0 0 0 .075-1.04l-1.369-1.824c.382-.721.7-1.485.944-2.301l2.26-.319a.79.79 0 0 0 .678-.784v-5.303c.01-.372-.286-.711-.679-.764ZM2.915 6.384a3.454 3.454 0 0 1 3.447-3.446h42.032a3.454 3.454 0 0 1 3.447 3.447v3.457H2.915V6.385Zm3.447 45.48a3.454 3.454 0 0 1-3.447-3.447V11.433h48.926v26.675h-1.093a.789.789 0 0 0-.784.678l-.319 2.26c-.148.042-.297.105-.445.159V14.88a.801.801 0 0 0-.796-.795H6.362a.801.801 0 0 0-.795.795v33.537c0 .434.36.795.795.795h34.852c-.043.138-.106.276-.149.414l-2.259.318a.79.79 0 0 0-.679.785v1.135H6.362Zm34.29-6.364 1.368 1.824c-.053.096-.096.202-.138.297H7.158V15.676h40.44v26.197c-.084.042-.18.074-.265.127l-1.824-1.368a.804.804 0 0 0-1.04.074l-3.754 3.755a.791.791 0 0 0-.064 1.039Zm26.43 9.842-2.09.297a.796.796 0 0 0-.657.584 11.158 11.158 0 0 1-1.188 2.874.785.785 0 0 0 .042.88l1.262 1.687-2.778 2.778-1.687-1.262a.805.805 0 0 0-.88-.053c-.901.53-1.877.934-2.874 1.188a.795.795 0 0 0-.584.658l-.297 2.079h-3.924l-.297-2.09a.795.795 0 0 0-.583-.657 11.578 11.578 0 0 1-2.874-1.188.805.805 0 0 0-.88.053l-1.687 1.262-2.779-2.779 1.262-1.686a.805.805 0 0 0 .053-.88 11.346 11.346 0 0 1-1.188-2.875.795.795 0 0 0-.657-.583l-2.09-.297v-3.924l2.09-.297a.795.795 0 0 0 .658-.584 11.28 11.28 0 0 1 1.187-2.874.805.805 0 0 0-.053-.88l-1.262-1.687 2.779-2.778 1.686 1.262c.255.19.605.212.88.042.86-.509 1.825-.912 2.875-1.188a.795.795 0 0 0 .583-.657l.297-2.09h3.925l.297 2.08a.795.795 0 0 0 .583.657c1.029.265 1.994.668 2.874 1.188.276.159.626.148.88-.043l1.687-1.262 2.778 2.779-1.262 1.686a.785.785 0 0 0-.042.88c.52.87.923 1.835 1.188 2.864.085.308.34.541.657.583l2.09.297v3.956Z" fill="#03A9F4"/><path d="m67.983 49.944-2.259-.318a12.23 12.23 0 0 0-.954-2.302l1.368-1.824a.804.804 0 0 0-.074-1.04l-3.755-3.754a.804.804 0 0 0-1.04-.074L59.446 42c-.72-.382-1.495-.7-2.301-.955l-.318-2.259a.798.798 0 0 0-.785-.689h-2.62V6.374a5.042 5.042 0 0 0-5.038-5.038H6.363a5.042 5.042 0 0 0-5.039 5.038v42.032a5.042 5.042 0 0 0 5.038 5.038h31.765v2.577a.79.79 0 0 0 .679.785l2.26.318c.243.796.561 1.56.954 2.302L40.65 61.25a.804.804 0 0 0 .075 1.04l3.754 3.754a.804.804 0 0 0 1.04.074l1.824-1.368c.732.392 1.506.71 2.301.955l.319 2.259a.789.789 0 0 0 .785.678h5.302a.79.79 0 0 0 .785-.689l.319-2.26c.795-.243 1.559-.561 2.301-.954l1.824 1.369a.805.805 0 0 0 1.04-.075l3.754-3.754a.804.804 0 0 0 .075-1.04l-1.369-1.824c.382-.721.7-1.485.944-2.301l2.26-.319a.79.79 0 0 0 .678-.784v-5.303c.01-.372-.286-.711-.679-.764ZM2.915 6.384a3.454 3.454 0 0 1 3.447-3.446h42.032a3.454 3.454 0 0 1 3.447 3.447v3.457H2.915V6.385Zm3.447 45.48a3.454 3.454 0 0 1-3.447-3.447V11.433h48.926v26.675h-1.093a.789.789 0 0 0-.784.678l-.319 2.26c-.148.042-.297.105-.445.159V14.88a.801.801 0 0 0-.796-.795H6.362a.801.801 0 0 0-.795.795v33.537c0 .434.36.795.795.795h34.852c-.043.138-.106.276-.149.414l-2.259.318a.79.79 0 0 0-.679.785v1.135H6.362Zm34.29-6.364 1.368 1.824c-.053.096-.096.202-.138.297H7.158V15.676h40.44v26.197c-.084.042-.18.074-.265.127l-1.824-1.368a.804.804 0 0 0-1.04.074l-3.754 3.755a.791.791 0 0 0-.064 1.039Zm26.43 9.842-2.09.297a.796.796 0 0 0-.657.584 11.158 11.158 0 0 1-1.188 2.874.785.785 0 0 0 .042.88l1.262 1.687-2.778 2.778-1.687-1.262a.805.805 0 0 0-.88-.053c-.901.53-1.877.934-2.874 1.188a.795.795 0 0 0-.584.658l-.297 2.079h-3.924l-.297-2.09a.795.795 0 0 0-.583-.657 11.578 11.578 0 0 1-2.874-1.188.805.805 0 0 0-.88.053l-1.687 1.262-2.779-2.779 1.262-1.686a.805.805 0 0 0 .053-.88 11.346 11.346 0 0 1-1.188-2.875.795.795 0 0 0-.657-.583l-2.09-.297v-3.924l2.09-.297a.795.795 0 0 0 .658-.584 11.28 11.28 0 0 1 1.187-2.874.805.805 0 0 0-.053-.88l-1.262-1.687 2.779-2.778 1.686 1.262c.255.19.605.212.88.042.86-.509 1.825-.912 2.875-1.188a.795.795 0 0 0 .583-.657l.297-2.09h3.925l.297 2.08a.795.795 0 0 0 .583.657c1.029.265 1.994.668 2.874 1.188.276.159.626.148.88-.043l1.687-1.262 2.778 2.779-1.262 1.686a.785.785 0 0 0-.042.88c.52.87.923 1.835 1.188 2.864.085.308.34.541.657.583l2.09.297v3.956Z" stroke="#03A9F4" stroke-width=".6" mask="url(#a)"/><path d="M7.424 7.445a1.06 1.06 0 1 0 0-2.12 1.06 1.06 0 0 0 0 2.12ZM11.271 7.445a1.06 1.06 0 1 0 0-2.12 1.06 1.06 0 0 0 0 2.12ZM15.123 7.445a1.06 1.06 0 1 0 0-2.12 1.06 1.06 0 0 0 0 2.12Z" fill="#03A9F4"/><path d="M10.807 36.02h7.01a.951.951 0 0 0 .946-.946.951.951 0 0 0-.945-.945h-7.01a.951.951 0 0 0-.946.945c0 .518.428.946.945.946ZM22.06 38.52H10.807a.951.951 0 0 0-.945.945c0 .518.428.946.945.946H22.06a.951.951 0 0 0 .946-.946.951.951 0 0 0-.946-.945ZM22.06 42.921H10.807a.951.951 0 0 0-.945.946c0 .517.428.945.945.945H22.06a.951.951 0 0 0 .946-.945.951.951 0 0 0-.946-.946Z" fill="#03A9F4" stroke="#03A9F4" stroke-width=".3"/><path d="M57.758 31.648c.159.16.36.234.562.234a.787.787 0 0 0 .562-.234.8.8 0 0 0 0-1.124l-1.071-1.071a11.979 11.979 0 0 1 9.344 7.074.798.798 0 0 0 .731.477.852.852 0 0 0 .319-.063.806.806 0 0 0 .413-1.05 13.555 13.555 0 0 0-10.998-8.06l1.273-1.273a.8.8 0 0 0 0-1.125.8.8 0 0 0-1.125 0l-2.545 2.546a.8.8 0 0 0 0 1.124l2.535 2.545ZM35.816 60.815a.8.8 0 0 0-1.124 0 .8.8 0 0 0 0 1.124l1.072 1.072c-4.307-.605-8.04-3.532-9.578-7.68a.793.793 0 0 0-1.018-.466.785.785 0 0 0-.467 1.018c1.803 4.826 6.226 8.199 11.285 8.75l-1.272 1.273a.8.8 0 0 0 0 1.124c.159.16.36.234.562.234a.787.787 0 0 0 .562-.234l2.545-2.545a.8.8 0 0 0 0-1.124l-2.567-2.546Z" fill="#03A9F4"/><path d="M40.984 33.002c.084.35-.176 1.541-.422 1.766 0 0-.825 1.264-2.563 2.541-1.739 1.277-4.347.47-5.268.06-1.6-.714-3.742-2.275-5.368-3.926-1.626-1.652-2.937-3.6-3.639-5.224-.847-1.96-1.077-4.719 0-5.824l2.502-2.088c.22-.25 1.194-.481 1.904-.12 1 .507 1.524 1.4 2.001 2.032.434.575.997 1.689 1.146 2.275.108.426-.779 1.39-.912 1.514 0 0-.453.551-.792.894-.054.055 0 .509.5 1.017l1.501 1.525 1.397 1.283s.756.68.944.75c.188.071 1.064-1.016 1.565-1.525.5-.508 1.731 0 1.731 0s1.706 1.085 2.272 1.525c.623.486 1.344.873 1.5 1.525Zm-2.125.918c-.069-.185-.407-.65-1.221-1.278-.697-.537-1.275-.837-1.536-.929-.37.409-.854.944-1.191 1.288-.227.231-.652.465-1.392.265-.912-.248-2.2-1.15-3.446-2.416s-2.135-2.574-2.378-3.501c-.198-.752.032-1.184.26-1.414a51.81 51.81 0 0 1 1.268-1.21c-.09-.265-.386-.852-.914-1.56-.618-.827-.946-1.223-.946-1.223l-2.03 1.932c-.814.924-.422 2.42.05 3.514.654 1.511 1.861 3.206 3.402 4.77 1.54 1.565 3.208 2.792 4.696 3.456 1.076.48 2.55.878 3.46.05l1.918-1.744Z" fill="#00AEEF"/></svg>