<svg width="70" height="70" fill="none" xmlns="http://www.w3.org/2000/svg"><g clip-path="url(#a)" fill="#03A9F4"><path d="M22.663 40.994c-.46.305-.574.923-.377 1.44.194.508.295 1.048.295 1.598a4.52 4.52 0 0 1-4.516 4.516c-.55 0-1.09-.1-1.599-.294-.516-.198-1.135-.084-1.44.377l-.142.215c-.305.46-.18 1.089.32 1.323.893.419 1.866.638 2.86.638a6.781 6.781 0 0 0 6.775-6.775c0-.994-.218-1.967-.637-2.862-.235-.5-.864-.624-1.324-.319l-.215.143ZM18.063 39.516c.55 0 1.09.1 1.598.294.516.197 1.135.084 1.44-.377l.142-.214c.306-.46.182-1.09-.318-1.324a6.727 6.727 0 0 0-2.862-.637 6.78 6.78 0 0 0-6.774 6.774c0 .995.219 1.968.638 2.863.234.5.863.624 1.323.319l.215-.143c.46-.304.575-.923.377-1.438a4.474 4.474 0 0 1-.295-1.6 4.52 4.52 0 0 1 4.516-4.517ZM41.645 47.42a1 1 0 0 0-1 1v4.774a1 1 0 0 0 1 1h2.516a1 1 0 0 0 1-1v-.259a1 1 0 0 0-1-1h-1.258V48.42a1 1 0 0 0-1-1h-.258Z"/><path d="M41.773 40.645a12.45 12.45 0 0 0-7.06 2.203c-.454.314-.515.948-.165 1.376l.164.2c.35.427.978.485 1.438.18a10.205 10.205 0 0 1 4.494-1.63v1.187a1 1 0 0 0 1 1h.258a1 1 0 0 0 1-1V42.97a10.175 10.175 0 0 1 8.966 8.965h-1.192a1 1 0 0 0-1 1v.258a1 1 0 0 0 1 1h1.187a10.207 10.207 0 0 1-1.63 4.496c-.305.46-.247 1.088.18 1.437l.2.164c.428.35 1.061.289 1.375-.166a12.448 12.448 0 0 0 2.205-7.06c0-6.847-5.572-12.419-12.42-12.419ZM42.904 63.155v-1.187a1 1 0 0 0-1-1h-.258a1 1 0 0 0-1 1v1.191c-4.703-.523-8.443-4.264-8.966-8.965h1.192a1 1 0 0 0 1-1v-.259a1 1 0 0 0-1-1h-1.187c.18-1.604.738-3.15 1.63-4.495.305-.46.247-1.088-.18-1.437l-.2-.164c-.428-.35-1.061-.289-1.375.166a12.448 12.448 0 0 0-2.204 7.06c0 6.847 5.571 12.419 12.419 12.419a12.45 12.45 0 0 0 7.06-2.203c.454-.314.515-.948.165-1.375l-.164-.201c-.35-.427-.978-.485-1.438-.18a10.2 10.2 0 0 1-4.494 1.63Z"/><path d="M63.226 51.935h-2.258V22.323a2 2 0 0 0-2-2h-2.774a2 2 0 0 0-2 2v19.266a17.025 17.025 0 0 0-2.259-2.041v-11.58a2 2 0 0 0-2-2h-2.774a2 2 0 0 0-2 2v8.502a16.982 16.982 0 0 0-2.258-.285v-2.572a2 2 0 0 0-2-2H38.13a2 2 0 0 0-2 2v3.504a16.851 16.851 0 0 0-3.225 1.548 15.616 15.616 0 0 0-.78-1.836l.8-1.121a2 2 0 0 0-.213-2.577l-3.745-3.747a2 2 0 0 0-2.577-.213l-1.122.801a15.71 15.71 0 0 0-2.353-.97l-.227-1.362a2 2 0 0 0-1.973-1.672h-5.298a2 2 0 0 0-1.973 1.672L13.217 29c-.814.261-1.6.586-2.353.971l-1.122-.801a2 2 0 0 0-2.577.213l-3.746 3.747a2 2 0 0 0-.213 2.577l.8 1.121a15.512 15.512 0 0 0-.971 2.353l-1.364.228A2 2 0 0 0 0 41.383v5.299a2 2 0 0 0 1.671 1.972l1.363.227c.26.815.587 1.601.972 2.353l-.801 1.121a2 2 0 0 0 .213 2.577l3.745 3.747a2 2 0 0 0 2.577.214l1.123-.802c.753.385 1.54.71 2.352.971l.227 1.363a2 2 0 0 0 1.973 1.672h5.298a2 2 0 0 0 1.973-1.672l.227-1.362c.813-.26 1.6-.586 2.352-.97l.452.322C27.965 65.136 34.307 70 41.774 70c8.958 0 16.293-6.994 16.878-15.806H69a1 1 0 0 0 1-1V13.29a2 2 0 0 0-2-2h-2.774a2 2 0 0 0-2 2v38.645Zm-6.774-29.354h2.258v29.354h-.058a16.806 16.806 0 0 0-2.2-7.283V22.58Zm-9.033 5.645h2.258v9.872a16.795 16.795 0 0 0-2.258-.98v-8.892Zm-9.032 5.645h2.258v2.315a16.9 16.9 0 0 0-2.258.285v-2.6ZM24.788 55.783a13.437 13.437 0 0 1-3.168 1.309 1.13 1.13 0 0 0-.819.904l-.307 1.843h-4.86l-.308-1.843a1.13 1.13 0 0 0-.818-.904 13.457 13.457 0 0 1-3.168-1.309 1.13 1.13 0 0 0-1.219.062l-1.515 1.083-3.438-3.437 1.083-1.517c.257-.36.28-.836.061-1.22a13.415 13.415 0 0 1-1.308-3.166 1.127 1.127 0 0 0-.903-.818l-1.843-.307v-4.861l1.843-.307c.435-.073.789-.392.904-.818a13.45 13.45 0 0 1 1.308-3.167 1.13 1.13 0 0 0-.06-1.22l-1.084-1.517 3.438-3.436 1.515 1.083c.36.257.836.28 1.219.061a13.433 13.433 0 0 1 3.168-1.308 1.13 1.13 0 0 0 .819-.904l.307-1.843h4.86l.308 1.843c.072.435.392.788.818.904 1.116.303 2.181.742 3.168 1.308.383.22.86.196 1.219-.061l1.515-1.083 3.438 3.436-1.083 1.518a1.13 1.13 0 0 0-.061 1.219c.487.849.862 1.769 1.157 2.722a17.129 17.129 0 0 0-1.837 1.797c-1.029-5.174-5.601-9.087-11.073-9.087-6.225 0-11.29 5.065-11.29 11.29 0 6.226 5.065 11.29 11.29 11.29 2.466 0 4.839-.834 6.776-2.288l-.001.03c0 .875.087 1.728.215 2.567l-.266.152Zm2.28-11.086a16.846 16.846 0 0 0-1.854 4.84 9.065 9.065 0 0 1-7.15 3.528c-4.98 0-9.032-4.052-9.032-9.033 0-4.98 4.052-9.032 9.032-9.032s9.033 4.052 9.033 9.032c0 .225-.013.445-.028.665Zm14.706 23.045c-8.093 0-14.677-6.585-14.677-14.678 0-8.092 6.584-14.677 14.677-14.677s14.678 6.585 14.678 14.678c0 8.092-6.585 14.677-14.678 14.677Zm23.71-54.194h2.258v38.387h-2.258V13.548Z"/><path d="M64.226 0a1 1 0 0 0-1 1v.258a1 1 0 0 0 1 1h1.426l-7.988 6.39-2.056-2.056a2 2 0 0 0-2.829 0L48.87 10.5a3.332 3.332 0 0 0-1.45-.34 3.392 3.392 0 0 0-3.388 3.387c0 .584.163 1.126.424 1.606l-5.902 6.557c-.4-.166-.836-.26-1.296-.26-.021 0-.04.006-.062.007l-4.54-12.107a3.364 3.364 0 0 0 1.215-2.577 3.392 3.392 0 0 0-3.387-3.387 3.392 3.392 0 0 0-3.387 3.387c0 .244.028.48.077.711L17.92 13.18a3.352 3.352 0 0 0-2.113-.76c-1.47 0-2.711.947-3.179 2.257h-6.06a3.383 3.383 0 0 0-3.18-2.258A3.392 3.392 0 0 0 0 15.806a3.392 3.392 0 0 0 3.387 3.388c1.47 0 2.712-.948 3.18-2.258h6.061a3.383 3.383 0 0 0 3.18 2.258 3.392 3.392 0 0 0 3.387-3.387c0-.244-.029-.481-.078-.712l9.255-5.694c.58.468 1.31.76 2.112.76.021 0 .04-.005.062-.006l4.54 12.106a3.368 3.368 0 0 0-1.215 2.578 3.392 3.392 0 0 0 3.387 3.387 3.392 3.392 0 0 0 3.387-3.387c0-.584-.161-1.126-.423-1.606l5.901-6.557c.4.166.837.26 1.296.26a3.392 3.392 0 0 0 3.388-3.388c0-.521-.128-1.009-.34-1.45l3.727-3.727 2.037 2.037a2 2 0 0 0 2.664.148l8.847-7.077v2.295a1 1 0 0 0 1 1H69a1 1 0 0 0 1-1V1a1 1 0 0 0-1-1h-4.774ZM3.387 16.936a1.13 1.13 0 0 1-1.129-1.13 1.13 1.13 0 0 1 2.258 0 1.13 1.13 0 0 1-1.129 1.13Zm12.42 0a1.13 1.13 0 0 1-1.13-1.13 1.13 1.13 0 0 1 2.258 0 1.13 1.13 0 0 1-1.129 1.13ZM29.355 6.774a1.13 1.13 0 0 1 1.129-1.129 1.13 1.13 0 0 1 1.129 1.13 1.13 1.13 0 0 1-1.13 1.128 1.13 1.13 0 0 1-1.128-1.129Zm7.903 19.194a1.13 1.13 0 0 1-1.129-1.13 1.13 1.13 0 0 1 1.13-1.128 1.13 1.13 0 0 1 1.128 1.129 1.13 1.13 0 0 1-1.129 1.129Zm10.161-11.29a1.13 1.13 0 0 1-1.129-1.13 1.13 1.13 0 0 1 1.13-1.129 1.13 1.13 0 0 1 1.128 1.13 1.13 1.13 0 0 1-1.129 1.128Z"/></g><defs><clipPath id="a"><path fill="#fff" d="M0 0h70v70H0z"/></clipPath></defs></svg>