<svg width="507" height="181" fill="none" xmlns="http://www.w3.org/2000/svg"><path d="M2 1a1 1 0 0 0-2 0h2Zm497.707 120.293a.999.999 0 0 0-1.414 0l-6.364 6.364a.999.999 0 1 0 1.414 1.414l5.657-5.657 5.657 5.657a.999.999 0 1 0 1.414-1.414l-6.364-6.364ZM0 1v168.984h2V1H0Zm11 179.984h122v-2H11v2Zm133-11v-147h-2v147h2Zm9-156h171v-2H153v2Zm180 9v147h2v-147h-2Zm11 158h145v-2H344v2Zm156-11V122h-2v47.984h2Zm-11 11c6.075 0 11-4.924 11-11h-2a9 9 0 0 1-9 9v2Zm-156-11c0 6.076 4.925 11 11 11v-2a9 9 0 0 1-9-9h-2Zm-9-156a9 9 0 0 1 9 9h2c0-6.075-4.925-11-11-11v2Zm-180 9a9 9 0 0 1 9-9v-2c-6.075 0-11 4.925-11 11h2Zm-11 158c6.075 0 11-4.924 11-11h-2a9 9 0 0 1-9 9v2Zm-133-11c0 6.076 4.925 11 11 11v-2a9 9 0 0 1-9-9H0Z" fill="#03A9F4"/></svg>