<svg width="76" height="71" fill="none" xmlns="http://www.w3.org/2000/svg"><path d="M70.059 27.462v21.972H5.707V10.328h64.352v17.134ZM47.005 69.999h11.562l-1.685-3.38a2.22 2.22 0 0 0-1.986-1.228H20.87c-.84 0-1.61.475-1.985 1.228l-1.686 3.38h24.97" stroke="#03A9F4" stroke-width="2" stroke-miterlimit="10" stroke-linecap="round" stroke-linejoin="round"/><path d="M44.778 65.393h-13.79l2.298-6.768h9.193l2.299 6.768ZM33.285 54.023h9.193" stroke="#03A9F4" stroke-width="2" stroke-miterlimit="10" stroke-linecap="round" stroke-linejoin="round"/><path d="M16.901 5.766h55.533a2.22 2.22 0 0 1 2.22 2.22v48.42a2.22 2.22 0 0 1-2.22 2.22H3.329a2.22 2.22 0 0 1-2.22-2.22V7.986a2.22 2.22 0 0 1 2.22-2.22h13.572Z" stroke="#03A9F4" stroke-width="2" stroke-miterlimit="10" stroke-linecap="round" stroke-linejoin="round"/><path d="m14.781 26.43 1.344 6.79c.049.14.246.139.294-.001l2.097-6.777M18.516 26.43l2.092 6.79c.05.14.246.139.294-.001l1.348-6.777M27.078 26.43l1.344 6.79c.049.14.246.139.293-.001l2.098-6.777M30.813 26.43l2.092 6.79c.049.14.246.139.294-.001l1.348-6.777M39.375 26.43l1.343 6.79c.05.14.247.139.294-.001l2.098-6.777M43.11 26.43l2.092 6.79c.049.14.246.139.294-.001l1.348-6.777M5.707 14.898h64.35" stroke="#03A9F4" stroke-width="2" stroke-miterlimit="10" stroke-linecap="round" stroke-linejoin="round"/><path d="M65.287 21.836H10.129v16.088h55.158V21.836ZM19.32 42.484h36.772M19.32 10.305v4.594" stroke="#03A9F4" stroke-width="2" stroke-miterlimit="10" stroke-linecap="round" stroke-linejoin="round"/></svg>