<svg width="65" height="71" fill="none" xmlns="http://www.w3.org/2000/svg"><g clip-path="url(#a)"><path d="m60.303 52.094-12.174-2.82a1.09 1.09 0 0 0-.186-.568l-1.622-2.397a2.317 2.317 0 0 0-1.636-.997c-.046-.005-.09-.006-.136-.009v-2.196l.43-.318a8.11 8.11 0 0 0 3.166-5.005 7.864 7.864 0 0 0 1.152-1.532h.033l.072.001c.923 0 1.792-.349 2.453-.987a3.403 3.403 0 0 0 1.052-2.467v-4.65c0-.924-.366-1.793-1.031-2.446a3.49 3.49 0 0 0-1.261-.79l1.093-10.765c.004-.037.006-.073.006-.11v-1.176C51.714 5.77 45.854 0 38.654 0h-11.94c-7.202 0-13.06 5.77-13.06 12.862v1.176c0 .037.002.073.005.11l1.093 10.76c-.468.17-.897.438-1.261.795a3.405 3.405 0 0 0-1.031 2.447v4.649c0 .935.373 1.811 1.052 2.466a3.507 3.507 0 0 0 2.524.987l1.029-.02.018.401a8.096 8.096 0 0 0 3.306 6.156l.429.318v2.196c-.045.003-.09.004-.136.01a2.317 2.317 0 0 0-1.636.996l-1.622 2.397a1.087 1.087 0 0 0-.185.567L5.065 52.094C2.389 52.714.52 55.04.52 57.746v9.21c0 1.905 1.573 3.455 3.507 3.455h57.314c1.934 0 3.507-1.55 3.507-3.454v-9.21c0-2.708-1.87-5.032-4.545-5.653ZM45.735 49.42l-4.87 10.552a.392.392 0 0 1-.274.22.424.424 0 0 1-.367-.086 46.672 46.672 0 0 0-5.633-3.94l9.755-8.647c.007-.006.026-.022.06-.018a.07.07 0 0 1 .052.032l1.277 1.887Zm4.933-21.27v4.65c0 .338-.134.655-.38.892a1.27 1.27 0 0 1-.914.357l-.97-.019.151-3.28.178-3.847.663-.002h.004c.338 0 .656.13.895.365.24.236.373.55.373.885Zm-34.676 5.899a1.266 1.266 0 0 1-.913-.357 1.23 1.23 0 0 1-.38-.893V28.15c0-.335.132-.65.372-.885a1.27 1.27 0 0 1 .896-.365h.005l.662.002.091 1.969.238 5.159-.97.018Zm.988-9.353-1.088-10.712v-1.12c0-5.877 4.855-10.658 10.821-10.658h11.94c5.967 0 10.822 4.78 10.822 10.657v1.121l-1.088 10.712h-.477l-2.193-9.72a1.106 1.106 0 0 0-.64-.77 1.135 1.135 0 0 0-1.008.052c-8 4.502-23.173 4.558-23.326 4.558-.457 0-.87.275-1.039.694l-2.107 5.186h-.617Zm2.34 11.838-.068-1.47v-.003l-.293-6.329-.1-2.166c.339-.22.61-.541.768-.932l1.877-4.622c3.098-.061 14.704-.534 22.344-4.153l1.91 8.463c.108.481.38.886.752 1.166l-.2 4.345-.196 4.228v.001l-.067 1.472c-.003.068-.01.136-.016.204-1.475 1.269-4.12 2.481-8.85 2.714a2.911 2.911 0 0 0-2.707-1.82H33.28c-1.604 0-2.91 1.286-2.91 2.866s1.306 2.867 2.91 2.867h1.194c1.184 0 2.203-.7 2.657-1.702 3.208-.144 5.622-.719 7.438-1.493-.277.314-.589.601-.934.856l-4.937 3.647a6.144 6.144 0 0 1-3.627 1.19h-4.776c-1.3 0-2.587-.422-3.627-1.19l-4.937-3.647a5.908 5.908 0 0 1-2.411-4.492Zm15.826 3.964a.667.667 0 0 1-.672.662h-1.193a.667.667 0 0 1-.672-.662c0-.364.301-.661.672-.661h1.194c.37 0 .671.297.671.661ZM20.91 47.532a.07.07 0 0 1 .052-.032.072.072 0 0 1 .06.018l9.755 8.647a46.685 46.685 0 0 0-5.633 3.94.424.424 0 0 1-.367.086.392.392 0 0 1-.274-.22l-4.87-10.552 1.277-1.887Zm-9.643 20.674h-7.24c-.699 0-1.268-.56-1.268-1.25v-9.21c0-.403.068-.793.193-1.157l6.705 5.907a4.752 4.752 0 0 1 1.61 3.554v2.156Zm20.298 0h-18.06v-2.155a6.947 6.947 0 0 0-2.353-5.196l-6.857-6.042a3.688 3.688 0 0 1 1.283-.572l12.486-2.894 4.4 9.536a2.61 2.61 0 0 0 1.808 1.456 2.671 2.671 0 0 0 2.296-.533 45.067 45.067 0 0 1 4.997-3.53v9.93Zm-8.508-21.85V44.76l2.27 1.676a8.42 8.42 0 0 0 4.97 1.632h4.776a8.42 8.42 0 0 0 4.97-1.632l2.268-1.676v1.596l-9.627 8.533-9.627-8.533ZM51.864 66.05v2.156h-18.06v-9.93a45.084 45.084 0 0 1 4.997 3.53 2.67 2.67 0 0 0 2.296.533 2.61 2.61 0 0 0 1.807-1.456l4.401-9.536 12.485 2.894c.475.11.907.308 1.284.572l-6.859 6.043a6.947 6.947 0 0 0-2.351 5.194Zm10.746.907c0 .688-.57 1.249-1.269 1.249h-7.239v-2.155a4.75 4.75 0 0 1 1.608-3.553l6.707-5.91c.124.365.193.755.193 1.158v9.21Z" fill="#03A9F4"/></g><defs><clipPath id="a"><path fill="#fff" d="M0 0h65v71H0z"/></clipPath></defs></svg>