<svg width="305" height="119" fill="none" xmlns="http://www.w3.org/2000/svg"><path d="M1 0a1 1 0 1 0 0 2V0Zm303.707 111.707a.999.999 0 0 0 0-1.414l-6.364-6.364a.999.999 0 1 0-1.414 1.414l5.657 5.657-5.657 5.657a.999.999 0 1 0 1.414 1.414l6.364-6.364ZM1 2h19V0H1v2Zm28 9v35h2V11h-2Zm11 46h210v-2H40v2Zm219 9v35h2V66h-2Zm11 46h34v-2h-34v2Zm-11-11c0 6.075 4.925 11 11 11v-2a9 9 0 0 1-9-9h-2Zm-9-44a9 9 0 0 1 9 9h2c0-6.075-4.925-11-11-11v2ZM29 46c0 6.075 4.925 11 11 11v-2a9 9 0 0 1-9-9h-2ZM20 2a9 9 0 0 1 9 9h2c0-6.075-4.925-11-11-11v2Z" fill="#03A9F4"/></svg>