<svg width="305" height="119" fill="none" xmlns="http://www.w3.org/2000/svg"><path d="M1 117a1 1 0 0 0 0 2v-2ZM304.707 8.707a1 1 0 0 0 0-1.414L298.343.929a1 1 0 1 0-1.414 1.414L302.586 8l-5.657 5.657a1 1 0 1 0 1.414 1.414l6.364-6.364ZM1 119h19v-2H1v2Zm30-11V73h-2v35h2Zm9-44h210v-2H40v2Zm221-11V18h-2v35h2Zm9-44h34V7h-34v2Zm-9 9a9 9 0 0 1 9-9V7c-6.075 0-11 4.925-11 11h2Zm-11 46c6.075 0 11-4.925 11-11h-2a9 9 0 0 1-9 9v2ZM31 73a9 9 0 0 1 9-9v-2c-6.075 0-11 4.925-11 11h2Zm-11 46c6.075 0 11-4.925 11-11h-2a9 9 0 0 1-9 9v2Z" fill="#03A9F4"/></svg>