<svg width="82" height="80" fill="none" xmlns="http://www.w3.org/2000/svg"><path d="M76.27 10H5.37C2.409 10 0 12.416 0 15.385v49.23C0 67.585 2.409 70 5.369 70H76.27c2.96 0 5.368-2.416 5.368-5.385v-49.23c0-2.97-2.408-5.385-5.368-5.385ZM19.09 67.436H5.369a2.82 2.82 0 0 1-2.813-2.82V15.384a2.82 2.82 0 0 1 2.813-2.821h13.72v54.872Zm59.994-2.82a2.82 2.82 0 0 1-2.812 2.82H21.646V12.564H76.27a2.82 2.82 0 0 1 2.812 2.82v49.232Z" fill="#03A9F4"/><path d="M31.275 15.47h-5.454a1.28 1.28 0 0 0-1.278 1.282 1.28 1.28 0 0 0 1.278 1.282h5.454a1.28 1.28 0 0 0 1.279-1.282 1.28 1.28 0 0 0-1.279-1.282ZM14.913 15.47h-8.18a1.28 1.28 0 0 0-1.28 1.282 1.28 1.28 0 0 0 1.28 1.282h8.18a1.28 1.28 0 0 0 1.279-1.282 1.28 1.28 0 0 0-1.279-1.282ZM14.913 29.145h-8.18a1.28 1.28 0 0 0-1.28 1.282 1.28 1.28 0 0 0 1.28 1.282h8.18a1.28 1.28 0 0 0 1.279-1.282 1.28 1.28 0 0 0-1.279-1.282ZM14.913 40.086h-8.18a1.28 1.28 0 0 0-1.28 1.282 1.28 1.28 0 0 0 1.28 1.282h8.18a1.28 1.28 0 0 0 1.279-1.282 1.28 1.28 0 0 0-1.279-1.282ZM14.913 51.026h-8.18a1.28 1.28 0 0 0-1.28 1.282 1.28 1.28 0 0 0 1.28 1.282h8.18a1.28 1.28 0 0 0 1.279-1.282 1.28 1.28 0 0 0-1.279-1.282ZM14.913 34.615h-8.18a1.28 1.28 0 0 0-1.28 1.283 1.28 1.28 0 0 0 1.28 1.282h8.18a1.28 1.28 0 0 0 1.279-1.282 1.28 1.28 0 0 0-1.279-1.283ZM14.913 45.556h-8.18a1.28 1.28 0 0 0-1.28 1.282 1.28 1.28 0 0 0 1.28 1.282h8.18a1.28 1.28 0 0 0 1.279-1.282 1.28 1.28 0 0 0-1.279-1.282ZM12.186 59.231H6.732a1.28 1.28 0 0 0-1.278 1.282 1.28 1.28 0 0 0 1.278 1.282h5.454a1.28 1.28 0 0 0 1.279-1.282 1.28 1.28 0 0 0-1.279-1.282ZM12.186 20.94H6.732a1.28 1.28 0 0 0-1.278 1.282 1.28 1.28 0 0 0 1.278 1.282h5.454a1.28 1.28 0 0 0 1.279-1.282 1.28 1.28 0 0 0-1.279-1.282ZM42.183 15.47H36.73a1.28 1.28 0 0 0-1.278 1.282 1.28 1.28 0 0 0 1.278 1.282h5.454a1.28 1.28 0 0 0 1.279-1.282 1.28 1.28 0 0 0-1.279-1.282ZM53.091 15.47h-5.454a1.28 1.28 0 0 0-1.278 1.282 1.28 1.28 0 0 0 1.278 1.282h5.454a1.28 1.28 0 0 0 1.278-1.282 1.28 1.28 0 0 0-1.278-1.282ZM64 15.47h-5.455a1.28 1.28 0 0 0-1.278 1.282 1.28 1.28 0 0 0 1.278 1.282H64a1.28 1.28 0 0 0 1.279-1.282 1.28 1.28 0 0 0-1.279-1.282ZM74.907 15.47h-5.454a1.28 1.28 0 0 0-1.278 1.282 1.28 1.28 0 0 0 1.278 1.282h5.454a1.28 1.28 0 0 0 1.278-1.282 1.28 1.28 0 0 0-1.278-1.282ZM40.224 44.446a1.276 1.276 0 0 0-1.79.255 5.493 5.493 0 0 1-4.432 2.222c-3.054 0-5.54-2.492-5.54-5.555 0-3.064 2.486-5.556 5.54-5.556 1.76 0 3.377.812 4.434 2.226a1.276 1.276 0 0 0 1.79.256 1.285 1.285 0 0 0 .255-1.795 8.025 8.025 0 0 0-6.479-3.25c-4.464 0-8.096 3.642-8.096 8.119s3.632 8.12 8.096 8.12c2.57 0 4.93-1.184 6.476-3.248.425-.566.31-1.37-.254-1.794ZM52.834 43.902a5.39 5.39 0 0 0 4.262-5.27c0-2.969-2.408-5.384-5.368-5.384H44.91a1.28 1.28 0 0 0-1.278 1.282v13.675a1.28 1.28 0 0 0 1.278 1.282 1.28 1.28 0 0 0 1.279-1.282v-4.188h3.536l3.707 4.957a1.276 1.276 0 0 0 1.79.257c.564-.425.68-1.229.255-1.795l-2.643-3.534Zm-6.646-8.09h5.54a2.82 2.82 0 0 1 2.812 2.82 2.82 2.82 0 0 1-2.812 2.821h-5.54v-5.64ZM74.816 48.078l-1.364-13.675a1.278 1.278 0 0 0-2.459-.349l-4.267 10.7-4.267-10.7a1.279 1.279 0 0 0-2.459.349l-1.363 13.675a1.281 1.281 0 0 0 1.145 1.403 1.28 1.28 0 0 0 1.399-1.148l.844-8.465 3.515 8.813a1.278 1.278 0 0 0 2.373 0l3.515-8.813.844 8.465a1.28 1.28 0 0 0 1.4 1.148 1.28 1.28 0 0 0 1.144-1.404Z" fill="#03A9F4"/></svg>