<svg width="81" height="80" fill="none" xmlns="http://www.w3.org/2000/svg"><path d="M61.5 33c7.72 0 14-6.28 14-14s-6.28-14-14-14c-5.606 0-10.44 3.32-12.673 8.09l-3.75-1.384c.045-.287.09-.574.09-.873A5.84 5.84 0 0 0 39.333 5a5.84 5.84 0 0 0-5.833 5.833 5.84 5.84 0 0 0 5.833 5.834c2.09 0 3.912-1.115 4.942-2.77l3.743 1.381A13.916 13.916 0 0 0 47.5 19c0 1.528.254 2.996.71 4.374l-12.832 5.438c-2.35-4.442-7.012-7.479-12.378-7.479-1.739 0-3.398.334-4.935.915l-3.227-6.782c1.406-1.066 2.329-2.737 2.329-4.633A5.84 5.84 0 0 0 11.333 5 5.84 5.84 0 0 0 5.5 10.833a5.84 5.84 0 0 0 5.833 5.834c.486 0 .951-.077 1.403-.19l3.223 6.774C11.804 25.683 9 30.181 9 35.333c0 4.84 2.469 9.11 6.212 11.626l-2.134 3.836c-.556-.175-1.133-.295-1.745-.295A5.84 5.84 0 0 0 5.5 56.333a5.84 5.84 0 0 0 5.833 5.834 5.84 5.84 0 0 0 5.834-5.834c0-1.766-.806-3.333-2.05-4.403l2.139-3.844A13.891 13.891 0 0 0 23 49.333a13.91 13.91 0 0 0 8.507-2.907l4.592 5.051c-2.328 2.502-3.766 5.844-3.766 9.523 0 .714.072 1.41.174 2.094l-5.403 1.282C26.174 62.388 24.17 61 21.834 61A5.84 5.84 0 0 0 16 66.833a5.84 5.84 0 0 0 5.833 5.834 5.84 5.84 0 0 0 5.834-5.834c0-.064-.018-.124-.02-.189l5.393-1.278C34.88 70.953 40.138 75 46.333 75c7.72 0 14-6.28 14-14 0-2.394-.605-4.648-1.67-6.62l6.854-4.455a5.816 5.816 0 0 0 4.15 1.742 5.84 5.84 0 0 0 5.833-5.834A5.84 5.84 0 0 0 69.667 40a5.84 5.84 0 0 0-5.834 5.833c0 .754.155 1.47.417 2.132l-6.87 4.466a14.079 14.079 0 0 0-5.213-4.142l5.694-15.786A13.95 13.95 0 0 0 61.5 33ZM39.333 14.333c-1.93 0-3.5-1.57-3.5-3.5s1.57-3.5 3.5-3.5 3.5 1.57 3.5 3.5-1.57 3.5-3.5 3.5Zm-31.5-3.5c0-1.93 1.57-3.5 3.5-3.5s3.5 1.57 3.5 3.5-1.57 3.5-3.5 3.5-3.5-1.57-3.5-3.5Zm3.5 49c-1.93 0-3.5-1.57-3.5-3.5s1.57-3.5 3.5-3.5 3.5 1.57 3.5 3.5-1.57 3.5-3.5 3.5Zm10.5 10.5c-1.93 0-3.5-1.57-3.5-3.5s1.57-3.5 3.5-3.5 3.5 1.57 3.5 3.5-1.57 3.5-3.5 3.5Zm47.834-28c1.93 0 3.5 1.57 3.5 3.5s-1.57 3.5-3.5 3.5-3.5-1.57-3.5-3.5 1.57-3.5 3.5-3.5ZM54.629 28.408c.521-2.699 2.9-4.741 5.704-4.741h2.334c2.804 0 5.183 2.042 5.704 4.741a11.593 11.593 0 0 1-6.871 2.259c-2.57 0-4.94-.846-6.87-2.259Zm6.871-7.075c-1.93 0-3.5-1.57-3.5-3.5s1.57-3.5 3.5-3.5 3.5 1.57 3.5 3.5-1.57 3.5-3.5 3.5Zm0-14c6.433 0 11.667 5.234 11.667 11.667 0 2.917-1.084 5.581-2.861 7.629a8.264 8.264 0 0 0-4.646-4.72 5.804 5.804 0 0 0 1.673-4.076A5.84 5.84 0 0 0 61.5 12a5.84 5.84 0 0 0-5.833 5.833c0 1.587.64 3.024 1.673 4.077a8.264 8.264 0 0 0-4.646 4.719A11.605 11.605 0 0 1 49.834 19c0-6.433 5.233-11.667 11.666-11.667Zm-50.167 28c0-6.433 5.234-11.666 11.667-11.666S34.667 28.9 34.667 35.333c0 2.926-1.091 5.598-2.877 7.648a8.265 8.265 0 0 0-4.652-4.738 5.808 5.808 0 0 0 1.672-4.076 5.84 5.84 0 0 0-5.833-5.834 5.84 5.84 0 0 0-5.834 5.834c0 1.586.64 3.023 1.673 4.076a8.262 8.262 0 0 0-4.64 4.7 11.605 11.605 0 0 1-2.843-7.61Zm8.144-1.166c0-1.93 1.57-3.5 3.5-3.5s3.5 1.57 3.5 3.5-1.57 3.5-3.5 3.5-3.5-1.57-3.5-3.5ZM16.11 44.726C16.636 42.035 19.01 40 21.81 40h2.333c2.81 0 5.193 2.05 5.707 4.757A11.587 11.587 0 0 1 23 47c-2.58 0-4.957-.852-6.89-2.274Zm23.333 25.667c.526-2.692 2.902-4.726 5.7-4.726h2.334c2.81 0 5.193 2.05 5.706 4.756a11.587 11.587 0 0 1-6.85 2.244c-2.58 0-4.957-.852-6.89-2.274Zm6.867-7.06c-1.93 0-3.5-1.57-3.5-3.5s1.57-3.5 3.5-3.5 3.5 1.57 3.5 3.5-1.57 3.5-3.5 3.5ZM58 61c0 2.926-1.09 5.597-2.877 7.648a8.265 8.265 0 0 0-4.652-4.738 5.808 5.808 0 0 0 1.672-4.077A5.84 5.84 0 0 0 46.31 54a5.84 5.84 0 0 0-5.833 5.833c0 1.587.64 3.024 1.673 4.077a8.263 8.263 0 0 0-4.64 4.7A11.605 11.605 0 0 1 34.667 61c0-6.433 5.233-11.667 11.666-11.667C52.767 49.333 58 54.567 58 61Zm-8.028-13.503A13.95 13.95 0 0 0 46.333 47a13.91 13.91 0 0 0-8.507 2.908l-4.592-5.052C35.563 42.354 37 39.013 37 35.333c0-1.528-.254-2.995-.71-4.373l12.832-5.439a14.076 14.076 0 0 0 6.546 6.19l-5.696 15.786Z" fill="#03A9F4"/></svg>