<svg width="76" height="76" fill="none" xmlns="http://www.w3.org/2000/svg"><path d="M18.602 12.665A24.641 24.641 0 0 0 11.24 29.11a3.834 3.834 0 0 0-2.964 3.729v9.867A3.833 3.833 0 0 0 12.1 46.54h2.803a1.187 1.187 0 0 0 1.187-1.187V37.35a1.187 1.187 0 0 0-2.375 0v6.815H12.1a1.456 1.456 0 0 1-1.448-1.46v-9.867a1.456 1.456 0 0 1 1.448-1.46h1.615v6.833c0 .156 2.375-.211 2.375-.211v-7.81a1.187 1.187 0 0 0-1.188-1.188h-1.281a22.299 22.299 0 0 1 6.655-14.653 1.188 1.188 0 0 0-1.674-1.684ZM64.948 29.172c-.33-13.705-13.193-24.716-26.854-24.416a27.751 27.751 0 0 0-15.552 4.678 1.187 1.187 0 0 0 1.325 1.971 25.38 25.38 0 0 1 14.227-4.274c12.324-.268 24.013 9.52 24.47 21.874h-1.473a1.188 1.188 0 0 0-1.187 1.188v15.155a1.187 1.187 0 0 0 1.187 1.188h1.535A17.967 17.967 0 0 1 45.71 65.985v-.65a1.187 1.187 0 0 0-1.187-1.187h-5.626a3.55 3.55 0 1 0 0 7.102h5.626a1.187 1.187 0 0 0 1.187-1.187V68.36A20.374 20.374 0 0 0 65 46.352a3.821 3.821 0 0 0 2.722-3.646v-9.871a3.823 3.823 0 0 0-2.774-3.663ZM43.337 68.875h-4.439a1.176 1.176 0 0 1 0-2.352h4.439v2.352Zm22.01-26.17a1.457 1.457 0 0 1-1.455 1.456h-1.613V31.38h1.613a1.457 1.457 0 0 1 1.455 1.455v9.87Z" fill="#03A9F4"/><g clip-path="url(#a)" fill="#00AEEF"><path d="M53.854 37.375c-.287-.392-7.122-9.609-15.852-9.609s-15.566 9.217-15.853 9.609a1.06 1.06 0 0 0 0 1.25c.287.392 7.122 9.609 15.852 9.609s15.566-9.217 15.853-9.61a1.058 1.058 0 0 0 0-1.249Zm-15.852 8.741c-6.431 0-12-6.117-13.65-8.117 1.647-2.001 7.205-8.115 13.65-8.115 6.43 0 12 6.116 13.648 8.117-1.646 2.001-7.204 8.115-13.648 8.115Z"/><path d="M38 31.648A6.36 6.36 0 0 0 31.648 38 6.36 6.36 0 0 0 38 44.352 6.36 6.36 0 0 0 44.352 38 6.36 6.36 0 0 0 38 31.648Zm0 10.587A4.24 4.24 0 0 1 33.766 38 4.24 4.24 0 0 1 38 33.765 4.24 4.24 0 0 1 42.235 38 4.24 4.24 0 0 1 38 42.235Z"/></g><defs><clipPath id="a"><path fill="#fff" transform="translate(21.945 21.944)" d="M0 0h32.113v32.113H0z"/></clipPath></defs></svg>