<svg width="71" height="70" fill="none" xmlns="http://www.w3.org/2000/svg"><g clip-path="url(#a)" fill="#00AEEF"><path d="M8.665 4.667H7.5a1.167 1.167 0 1 0 0 2.333h1.166a1.167 1.167 0 1 0 0-2.333ZM14.501 4.667h-1.166a1.167 1.167 0 1 0 0 2.333H14.5a1.167 1.167 0 1 0 0-2.333ZM20.333 4.667h-1.166a1.167 1.167 0 1 0 0 2.333h1.166a1.167 1.167 0 1 0 0-2.333ZM56.499 4.667h-31.5a1.167 1.167 0 1 0 0 2.333h31.5a1.167 1.167 0 1 0 0-2.333Z"/><path d="M68.167 42H67v-5.833a12.773 12.773 0 0 0-3.5-8.78V5.832A5.84 5.84 0 0 0 57.667 0H6.333A5.84 5.84 0 0 0 .5 5.833V52.5a5.84 5.84 0 0 0 5.833 5.833h31.5v3.5A8.176 8.176 0 0 0 46 70h16.333a8.176 8.176 0 0 0 8.167-8.167v-17.5A2.333 2.333 0 0 0 68.167 42Zm-3.5-5.833V42h-21v-5.833c0-5.8 4.7-10.5 10.5-10.5 5.798 0 10.5 4.7 10.5 10.5ZM2.833 5.833a3.5 3.5 0 0 1 3.5-3.5h51.334a3.5 3.5 0 0 1 3.5 3.5v3.5H2.833v-3.5Zm35 38.5V56h-31.5a3.5 3.5 0 0 1-3.5-3.5V11.667h58.334v13.757a12.817 12.817 0 0 0-19.834 10.743V42h-1.166a2.333 2.333 0 0 0-2.334 2.333Zm30.334 2.334h-3.5a1.167 1.167 0 1 0 0 2.333h3.5v2.333h-3.5a1.167 1.167 0 0 0 0 2.334h3.5V56h-3.5a1.167 1.167 0 1 0 0 2.333h3.5v2.334h-3.5a1.167 1.167 0 0 0 0 2.333h3.383a5.844 5.844 0 0 1-5.717 4.666H46A5.844 5.844 0 0 1 40.283 63h3.384a1.167 1.167 0 0 0 0-2.333h-3.5v-2.334h3.5a1.167 1.167 0 1 0 0-2.333h-3.5v-2.333h3.5a1.167 1.167 0 1 0 0-2.334h-3.5V49h3.5a1.167 1.167 0 1 0 0-2.333h-3.5v-2.334h28v2.334Z"/><path d="M53 56.952V59.5a1.167 1.167 0 1 0 2.333 0v-2.548a3.492 3.492 0 0 0-1.166-6.785A3.492 3.492 0 0 0 53 56.952Zm1.167-4.452a1.167 1.167 0 1 1 0 2.333 1.167 1.167 0 0 1 0-2.333ZM20.333 23.333c-.644 0-1.166.523-1.166 1.167V28H9.833v-9.333H14.5a1.166 1.166 0 1 0 0-2.334H9.833A2.333 2.333 0 0 0 7.5 18.667V28a2.333 2.333 0 0 0 2.333 2.333h9.334A2.333 2.333 0 0 0 21.5 28v-3.5c0-.644-.522-1.167-1.167-1.167Z"/><path d="M12.993 21.342a1.167 1.167 0 0 0-1.65 1.65l2.334 2.333c.218.219.515.342.824.342h.053c.327-.015.633-.167.843-.418l5.834-7a1.167 1.167 0 0 0-1.792-1.496l-5.017 6.02-1.43-1.431ZM20.333 43.167c-.644 0-1.166.522-1.166 1.166v3.5H9.833V38.5H14.5a1.167 1.167 0 1 0 0-2.333H9.833A2.333 2.333 0 0 0 7.5 38.5v9.334a2.333 2.333 0 0 0 2.333 2.333h9.334a2.333 2.333 0 0 0 2.333-2.334v-3.5c0-.644-.522-1.166-1.167-1.166Z"/><path d="M12.993 41.175a1.166 1.166 0 0 0-1.65 1.65l2.334 2.333c.218.219.515.342.824.342h.053c.327-.015.633-.166.843-.418l5.834-7a1.167 1.167 0 1 0-1.792-1.495l-5.017 6.02-1.43-1.432ZM26.167 19.833H35.5a1.167 1.167 0 1 0 0-2.333h-9.333a1.167 1.167 0 1 0 0 2.333ZM42.5 24.5c0-.644-.522-1.167-1.167-1.167H26.167a1.167 1.167 0 1 0 0 2.334h15.166c.645 0 1.167-.523 1.167-1.167ZM35.5 37.333h-9.333a1.167 1.167 0 0 0 0 2.334H35.5a1.166 1.166 0 1 0 0-2.334ZM34.333 43.167h-8.166a1.167 1.167 0 1 0 0 2.333h8.166a1.167 1.167 0 1 0 0-2.333Z"/></g><defs><clipPath id="a"><path fill="#fff" transform="translate(.5)" d="M0 0h70v70H0z"/></clipPath></defs></svg>