<svg width="71" height="70" fill="none" xmlns="http://www.w3.org/2000/svg"><g clip-path="url(#a)"><path fill-rule="evenodd" clip-rule="evenodd" d="M4.875 61.25H3.781A3.28 3.28 0 0 0 .5 64.53 5.47 5.47 0 0 0 5.969 70h21.875a5.47 5.47 0 0 0 5.468-5.47 3.28 3.28 0 0 0-3.28-3.28h-1.095v-9.844a5.47 5.47 0 0 0-5.468-5.469H10.344a5.47 5.47 0 0 0-5.469 5.469v9.843Zm37.188 0h-1.094a3.28 3.28 0 0 0-3.282 3.28 5.47 5.47 0 0 0 5.47 5.47H65.03a5.47 5.47 0 0 0 5.469-5.47 3.28 3.28 0 0 0-3.281-3.28h-1.094v-9.844a5.47 5.47 0 0 0-5.469-5.469H47.531a5.47 5.47 0 0 0-5.468 5.469v9.843ZM27.84 63.436h2.191c.605 0 1.094.489 1.094 1.094a3.281 3.281 0 0 1-3.281 3.281H5.969a3.281 3.281 0 0 1-3.282-3.281c0-.605.49-1.094 1.094-1.094h8.99c.168.366.42.707.751 1.007.766.697 1.99 1.18 3.384 1.18 1.395 0 2.619-.483 3.384-1.18.33-.3.583-.64.75-1.007h6.8Zm37.188 0h2.19c.605 0 1.094.489 1.094 1.094a3.281 3.281 0 0 1-3.28 3.281H43.155a3.281 3.281 0 0 1-3.281-3.281c0-.605.489-1.094 1.094-1.094h8.99c.168.366.42.707.75 1.007.766.697 1.99 1.18 3.385 1.18 1.394 0 2.618-.483 3.384-1.18.33-.3.583-.64.75-1.007h6.8Zm-1.09-2.188v-9.843a3.281 3.281 0 0 0-3.282-3.282H47.531a3.281 3.281 0 0 0-3.281 3.282v9.843h6.563c.603 0 1.093.49 1.093 1.094 0 .264.216.465.474.637.437.292 1.047.457 1.714.457s1.276-.165 1.714-.457c.258-.172.473-.373.473-.637 0-.604.49-1.094 1.094-1.094h6.563Zm-37.188 0v-9.843a3.281 3.281 0 0 0-3.281-3.282H10.344a3.281 3.281 0 0 0-3.281 3.282v9.843h6.562c.604 0 1.094.49 1.094 1.094 0 .264.215.465.473.637.438.292 1.047.457 1.714.457s1.277-.165 1.714-.457c.258-.172.474-.373.474-.637 0-.604.49-1.094 1.093-1.094h6.563Zm-16.406-3.28h2.187a1.094 1.094 0 0 0 0-2.188h-2.187a1.094 1.094 0 0 0 0 2.187Zm40.468-2.188h-3.28a1.094 1.094 0 0 0 0 2.187h3.28a1.094 1.094 0 0 0 0-2.187Zm9.844 0h-5.468a1.094 1.094 0 0 0 0 2.187h5.468a1.094 1.094 0 0 0 0-2.187Zm-43.75 2.187h6.563a1.094 1.094 0 0 0 0-2.187h-6.563a1.094 1.094 0 0 0 0 2.187Zm43.75-6.562H58.47a1.094 1.094 0 0 0 0 2.187h2.187a1.094 1.094 0 0 0 0-2.187Zm-40.468 2.187h3.28a1.094 1.094 0 0 0 0-2.187h-3.28a1.094 1.094 0 0 0 0 2.187Zm-9.844 0h5.469a1.094 1.094 0 0 0 0-2.187h-5.47a1.094 1.094 0 0 0 0 2.187Zm43.75-2.187H47.53a1.094 1.094 0 0 0 0 2.187h6.563a1.094 1.094 0 0 0 0-2.187ZM53 36.28a3.282 3.282 0 1 0 4.375 3.094 3.284 3.284 0 0 0-2.188-3.094v-6.75a3.28 3.28 0 0 0-3.28-3.28H44.25a1.094 1.094 0 0 0 0 2.187h7.656c.605 0 1.094.489 1.094 1.094v6.75Zm-37.188 0a3.282 3.282 0 1 0 4.375 3.094A3.284 3.284 0 0 0 18 36.28v-6.75c0-.604.489-1.093 1.094-1.093h7.656a1.094 1.094 0 0 0 0-2.188h-7.656a3.28 3.28 0 0 0-3.282 3.282v6.75Zm38.282 2a1.094 1.094 0 1 1-.001 2.19 1.094 1.094 0 0 1 0-2.19Zm-37.188 0a1.094 1.094 0 1 1 0 2.19 1.094 1.094 0 0 1 0-2.19Zm23.445-8.802a23.51 23.51 0 0 1-3.29 2.274l-1.561.894-1.56-.894a23.548 23.548 0 0 1-3.272-2.258 1.095 1.095 0 0 0-1.391 1.688 25.78 25.78 0 0 0 3.576 2.469l2.105 1.204c.336.193.75.193 1.086 0l2.103-1.204a25.766 25.766 0 0 0 3.596-2.485 1.094 1.094 0 0 0-1.392-1.688Zm-5.398.334c.338.196.756.196 1.094 0 6.548-3.782 10.46-10.643 10.39-17.917a1.093 1.093 0 0 0-.543-.933L36.05 5.216c-.34-.2-.762-.2-1.102 0l-9.843 5.746a1.093 1.093 0 0 0-.542.933c-.072 7.274 3.84 14.135 10.39 17.917Zm.547-2.223c-5.342-3.326-8.594-8.994-8.744-15.057L35.5 7.426l8.745 5.106c-.151 6.063-3.403 11.731-8.745 15.057Zm-10.282-4.617a22.262 22.262 0 0 1-2.74-13.008c0-.002 13.022-7.604 13.022-7.604l13.022 7.602a22.267 22.267 0 0 1-2.791 13.101 1.094 1.094 0 0 0 1.905 1.075 24.44 24.44 0 0 0 3-14.973c-.041-.34-.24-.64-.534-.814L36.052.148a1.1 1.1 0 0 0-1.103 0l-14.05 8.203a1.093 1.093 0 0 0-.534.814 24.442 24.442 0 0 0 2.942 14.873 1.095 1.095 0 0 0 1.91-1.067Zm9.188-4.566v2.327a1.094 1.094 0 0 0 2.188 0v-2.327a3.282 3.282 0 1 0-4.375-3.094c0 1.427.913 2.644 2.187 3.094Zm1.118-2a1.095 1.095 0 0 0-.024-2.188 1.094 1.094 0 0 0-.024 2.188l.024-.001h.024Z" fill="#00AEEF"/></g><defs><clipPath id="a"><path fill="#fff" transform="translate(.5)" d="M0 0h70v70H0z"/></clipPath></defs></svg>