<svg width="80" height="81" fill="none" xmlns="http://www.w3.org/2000/svg"><g clip-path="url(#a)"><path d="M0 20.838v8.758h12.507L0 20.838Zm10.364 48.758H28.89V56.624L10.364 69.596Zm40.747-12.97v12.97h18.522l-18.522-12.97ZM0 51.819v8.758l12.511-8.758H0Zm69.638-40H51.11v12.971l18.527-12.971ZM80 60.578v-8.76H67.487L80 60.578Zm0-30.982v-8.758l-12.509 8.758H80ZM28.889 11.818H10.364L28.89 24.789V11.818Z" fill="#00247D"/><path d="M55.865 51.818 77.448 66.93a8.838 8.838 0 0 0 2.2-3.886L63.614 51.818h-7.749Zm-26.977 0H24.13L2.55 66.929a8.869 8.869 0 0 0 4.307 2.411l22.03-15.427v-2.095ZM51.11 29.596h4.758l21.58-15.111a8.862 8.862 0 0 0-4.305-2.412L51.11 27.5v2.096Zm-26.98 0L2.55 14.485A8.875 8.875 0 0 0 .348 18.37L16.38 29.596h7.749Z" fill="#CF1B2B"/><path d="M80 47.373H46.667v22.223h4.444v-12.97l18.522 12.97h1.478a8.867 8.867 0 0 0 6.338-2.665L55.867 51.818h7.749l16.033 11.227c.207-.75.351-1.525.351-2.338v-.13l-12.513-8.76H80v-4.444Zm-80 0v4.445h12.511L0 60.576v.13c0 2.425.976 4.618 2.551 6.223l21.58-15.111h4.758v2.095L6.858 69.338a8.734 8.734 0 0 0 2.03.258h1.476L28.89 56.624v12.972h4.444V47.373H0Zm80-26.666a8.85 8.85 0 0 0-2.551-6.223l-21.58 15.112H51.11V27.5l22.033-15.427a8.893 8.893 0 0 0-2.033-.255h-1.473L51.11 24.789V11.818h-4.444V34.04H80v-4.444H67.491L80 20.838v-.131Zm-51.111-8.89V24.79L10.364 11.818H8.89a8.855 8.855 0 0 0-6.338 2.667l21.58 15.11h-7.749L.35 18.372A8.818 8.818 0 0 0 0 20.707v.13l12.507 8.759H0v4.444h33.333V11.818H28.89Z" fill="#EEE"/><path d="M46.667 34.04V11.818H33.333V34.04H0v13.333h33.333v22.223h13.334V47.373H80V34.04H46.667Z" fill="#CF1B2B"/></g><defs><clipPath id="a"><path fill="#fff" transform="translate(0 .707)" d="M0 0h80v80H0z"/></clipPath></defs></svg>