<svg width="600" height="600" fill="none" xmlns="http://www.w3.org/2000/svg"><path d="M362.077 17.797c13.07 4.078 71.046 23.003 128.942 73.237 14.024 12.166 70.713 61.359 94.93 127.482 41.227 112.568-8.103 283.807-150.188 352.619C270.219 651.297 61.195 552.636 13.513 420.6c-21.152-58.554-22.1-155.675 31.17-219.708 42.876-51.543 116.199-76.027 113.358-124.779-1.367-23.472-19.085-29.964-14.169-44.754C155.525-3.71 269.727-10.988 362.077 17.797Z" fill="#E1F6FF"/><path d="m124.838 318.969 6.55-23.921 27.043 1.229a102.034 102.034 0 0 1 8.675-14.935l-14.321-22.952 17.624-17.443 22.808 14.602a104.063 104.063 0 0 1 14.978-8.544l-.933-27.087 23.971-6.289 12.449 24.022c5.75-.441 11.527-.397 17.27.13l12.737-23.914 23.906 6.55-1.229 27.058a103.152 103.152 0 0 1 14.921 8.674l22.937-14.327 17.429 17.696-14.588 22.822a104.159 104.159 0 0 1 8.544 15l27.058-.954 6.282 23.992-24.007 12.434c.439 5.753.398 11.532-.123 17.277l23.899 12.73-6.542 23.928-27.044-1.229a102.769 102.769 0 0 1-8.674 14.935l14.313 22.952-17.617 17.443-22.814-14.602a103.765 103.765 0 0 1-14.986 8.552l.94 27.079-23.979 6.289-12.441-24.021c-5.749.443-11.526.402-17.269-.123l-12.723 23.906-23.899-6.55 1.229-27.065a102.697 102.697 0 0 1-14.928-8.674l-22.937 14.327-17.429-17.631 14.595-22.829a104.132 104.132 0 0 1-8.545-14.993l-27.065.933-6.296-24 24.007-12.456a102.34 102.34 0 0 1 .123-17.277l-23.899-12.744Zm110.104 83.508a63.842 63.842 0 0 0 67.313-22.411 63.842 63.842 0 0 0-21.861-96.26 63.842 63.842 0 0 0-90.141 40.23 63.792 63.792 0 0 0 22.405 67.306 63.785 63.785 0 0 0 22.284 11.135Z" fill="#40BDF6"/><path d="m404.358 333.722 3.492-12.759 14.414.651a54.567 54.567 0 0 1 4.627-7.952l-7.612-12.217 9.397-9.296 12.138 7.778a55.479 55.479 0 0 1 7.951-4.561l-.498-14.458 12.809-3.318 6.636 12.795a55.214 55.214 0 0 1 9.21.065l6.774-12.744 12.737 3.498-.658 14.422a54.223 54.223 0 0 1 7.952 4.641l12.224-7.641 9.289 9.398-7.771 12.166a55.613 55.613 0 0 1 4.554 7.995l14.458-.499 3.347 12.788-12.795 6.636a54.473 54.473 0 0 1-.065 9.21l12.701 6.788-3.491 12.752-14.408-.658a54.407 54.407 0 0 1-4.633 7.952l7.633 12.238-9.397 9.297-12.152-7.786a55.88 55.88 0 0 1-7.988 4.554l.499 14.458-12.781 3.354-6.629-12.802a55.226 55.226 0 0 1-9.202-.072l-6.781 12.744-12.745-3.484.658-14.458a54.791 54.791 0 0 1-7.952-4.634l-12.224 7.641-9.289-9.397 7.771-12.181a55.58 55.58 0 0 1-4.554-7.988l-14.458.499-3.311-12.752 12.795-6.636a54.534 54.534 0 0 1 .08-9.268l-12.752-6.759Zm58.677 44.509a34.025 34.025 0 1 0-23.819-41.805 33.984 33.984 0 0 0 3.235 25.845 33.982 33.982 0 0 0 20.584 15.96Z" fill="#95DBFA"/><path d="M100.16 521.661h234.622c7.091 0 11.161-5.783 9.101-12.846l-45.181-155.082c-2.06-7.091-9.484-12.838-16.576-12.838H47.504c-7.091 0-11.168 5.747-9.1 12.838l45.18 155.082c2.06 7.092 9.484 12.846 16.576 12.846Z" fill="#fff"/><path d="M100.157 522.746h234.622c3.679 0 6.773-1.446 8.718-4.012 2.046-2.726 2.545-6.355 1.446-10.222l-45.181-155.075c-2.169-7.518-10.12-13.626-17.617-13.626H47.502c-3.68 0-6.781 1.445-8.718 4.012-2.046 2.725-2.552 6.354-1.446 10.214l45.18 155.082c2.205 7.511 10.114 13.627 17.639 13.627Zm181.967-180.767c6.628 0 13.597 5.415 15.534 12.058l45.181 155.082c.926 3.195.55 6.145-1.077 8.313-1.525 2.024-4.005 3.145-6.983 3.145H100.157c-6.629 0-13.597-5.415-15.535-12.065l-45.18-155.075c-.926-3.195-.55-6.145 1.077-8.313 1.525-2.024 3.997-3.145 6.983-3.145h234.622Z" fill="#353535"/><path d="M334.779 512.284h.26a4.188 4.188 0 0 0-.159-.838l-45.173-155.06c-.897-3.073-4.656-6.087-7.584-6.087H47.241c.025.284.078.565.16.838l45.173 155.061c.896 3.072 4.655 6.086 7.583 6.086h234.622Z" fill="#95DBFA"/><path d="M228.703 317.473h80.111c4.771 0 9.759 3.86 11.147 8.624l14.74 50.53c1.388 4.764-1.344 8.624-6.108 8.624h-80.147c-4.764 0-9.752-3.86-11.14-8.624l-14.718-50.523c-1.381-4.771 1.352-8.631 6.115-8.631Z" fill="#fff"/><path d="M288.529 378.543h45.542a7.415 7.415 0 0 0 6.145-2.841 8.114 8.114 0 0 0 1.012-7.178l-1.699-5.819a1.088 1.088 0 0 0-1.345-.738 1.086 1.086 0 0 0-.737 1.345l1.699 5.819c.31.869.412 1.799.297 2.714a5.895 5.895 0 0 1-.962 2.556 5.318 5.318 0 0 1-4.41 1.973h-45.542a1.085 1.085 0 0 0 0 2.169ZM331.021 338.429c.103 0 .205-.015.304-.043a1.077 1.077 0 0 0 .722-1.345l-1.221-4.207a1.093 1.093 0 0 0-1.345-.723 1.092 1.092 0 0 0-.641.522 1.08 1.08 0 0 0-.082.823l1.222 4.207a1.08 1.08 0 0 0 1.041.766ZM231.798 332.06c.103 0 .205-.015.304-.043a1.082 1.082 0 0 0 .722-1.345l-3.686-12.665a5.857 5.857 0 0 1 .665-5.27 5.31 5.31 0 0 1 4.409-1.974h80.126c4.337 0 8.841 3.521 10.12 7.851l2.632 9.022a1.076 1.076 0 0 0 .519.647 1.085 1.085 0 0 0 1.562-1.254l-2.631-9.022c-1.511-5.19-6.976-9.398-12.181-9.398H234.22a7.446 7.446 0 0 0-6.145 2.841c-1.446 1.923-1.8 4.468-1.012 7.179l3.687 12.657a1.082 1.082 0 0 0 1.048.774ZM237.732 352.439a.862.862 0 0 0 .303-.043 1.077 1.077 0 0 0 .723-1.345l-3.462-11.891a1.09 1.09 0 0 0-.923-.775 1.093 1.093 0 0 0-.797.233 1.074 1.074 0 0 0-.399.727c-.016.142-.003.285.037.422l3.462 11.891a1.088 1.088 0 0 0 1.056.781Z" fill="#353535"/><path d="m248.605 414.621 13.244-1.93 5.92-12a3.489 3.489 0 0 1 1.282-1.411 3.485 3.485 0 0 1 3.667 0c.551.342.995.831 1.282 1.411l5.921 12 13.243 1.93a3.475 3.475 0 0 1 2.803 2.363 3.464 3.464 0 0 1-.88 3.558l-9.585 9.34 2.262 13.192a3.469 3.469 0 0 1-5.06 3.658l-11.848-6.231-11.82 6.246a3.471 3.471 0 0 1-5.06-3.658l2.263-13.193-9.586-9.34a3.463 3.463 0 0 1-.885-3.579 3.471 3.471 0 0 1 2.837-2.356ZM187.455 414.621l13.243-1.93 5.928-12a3.467 3.467 0 0 1 3.112-1.935 3.468 3.468 0 0 1 3.112 1.935l5.92 12 13.244 1.93a3.48 3.48 0 0 1 2.799 2.362 3.472 3.472 0 0 1-.869 3.559l-9.586 9.339 2.263 13.193a3.469 3.469 0 0 1-5.06 3.658l-11.848-6.231-11.82 6.246a3.465 3.465 0 0 1-3.675-.245 3.466 3.466 0 0 1-1.385-3.413l2.263-13.193-9.586-9.34a3.47 3.47 0 0 1 1.945-5.935ZM126.313 414.621l13.207-1.93 5.921-12a3.467 3.467 0 0 1 3.112-1.935 3.468 3.468 0 0 1 3.112 1.935l5.928 12 13.243 1.93a3.469 3.469 0 0 1 1.923 5.921l-9.586 9.339 2.263 13.193a3.469 3.469 0 0 1-5.06 3.658l-11.841-6.231-11.791 6.246a3.466 3.466 0 0 1-4.858-1.753 3.465 3.465 0 0 1-.202-1.905l2.263-13.193-9.586-9.34a3.463 3.463 0 0 1-.885-3.579 3.466 3.466 0 0 1 2.837-2.356ZM65.164 414.621l13.243-1.93 5.92-12a3.482 3.482 0 0 1 4.95-1.411c.55.342.994.831 1.282 1.411l5.92 12 13.244 1.93a3.472 3.472 0 0 1 1.923 5.921l-9.586 9.34 2.263 13.192a3.469 3.469 0 0 1-5.06 3.658l-11.79-6.231-11.878 6.246a3.476 3.476 0 0 1-3.676-.244 3.477 3.477 0 0 1-1.384-3.414l2.263-13.193-9.579-9.34a3.465 3.465 0 0 1-.887-3.576 3.468 3.468 0 0 1 2.832-2.359Z" fill="#007BB3"/><path d="m4.015 414.621 13.244-1.93 5.927-12a3.469 3.469 0 0 1 6.224 0l5.921 12 13.243 1.93a3.475 3.475 0 0 1 2.803 2.362 3.47 3.47 0 0 1-.88 3.559l-9.578 9.339 2.263 13.193a3.47 3.47 0 0 1-5.06 3.658l-11.849-6.231-11.812 6.246a3.466 3.466 0 0 1-3.676-.245 3.465 3.465 0 0 1-1.384-3.413l2.263-13.193-9.586-9.34a3.468 3.468 0 0 1 1.937-5.935Z" fill="#95DBFA"/><path d="m60.727 259.606 28.915 9.311 24.058-18.499a7.876 7.876 0 0 1 8.274-.825 7.866 7.866 0 0 1 4.399 7.056l.043 30.362 25.034 17.176a7.872 7.872 0 0 1-2.01 13.973l-28.851 9.398-8.588 29.111a7.874 7.874 0 0 1-6.209 5.531 7.877 7.877 0 0 1-7.706-3.124l-17.877-24.521-30.326.868a7.884 7.884 0 0 1-8.066-8.429 7.88 7.88 0 0 1 1.474-4.063l17.797-24.578-10.12-28.598a7.872 7.872 0 0 1 9.759-10.149Z" fill="#007BB3"/><path d="M99.191 358.685a9.514 9.514 0 0 0 1.554-.13 8.912 8.912 0 0 0 7.063-6.289l8.429-28.562 28.308-9.246a8.96 8.96 0 0 0 6.079-7.242 8.975 8.975 0 0 0-.662-4.872 8.97 8.97 0 0 0-3.132-3.789l-24.579-16.844-.05-29.776a8.959 8.959 0 0 0-14.415-7.084l-23.61 18.152-28.33-9.159a8.964 8.964 0 0 0-9.177 2.278 8.957 8.957 0 0 0-2.02 9.238l9.99 28.062-17.465 24.123a8.958 8.958 0 0 0 7.496 14.205l29.79-.81 17.538 24.065a8.912 8.912 0 0 0 7.193 3.68Zm14.046-113.545a6.872 6.872 0 0 1 3.021.723 6.656 6.656 0 0 1 3.796 6.08l.05 30.361a1.077 1.077 0 0 0 .47.889l25.027 17.169a6.788 6.788 0 0 1-1.743 12.029l-28.85 9.398a1.076 1.076 0 0 0-.723.722l-8.595 29.111a6.782 6.782 0 0 1-5.352 4.763 6.787 6.787 0 0 1-6.641-2.688L75.82 329.169a1.095 1.095 0 0 0-.91-.441l-30.363.824a6.78 6.78 0 0 1-6.127-3.645 6.787 6.787 0 0 1 .51-7.111l17.798-24.579a1.063 1.063 0 0 0 .145-.997l-10.12-28.598a6.79 6.79 0 0 1 8.443-8.718l28.88 9.333a1.104 1.104 0 0 0 .997-.174l24.087-18.499a6.747 6.747 0 0 1 4.077-1.424Z" fill="#353535"/><path d="M16.34 406.988a1.087 1.087 0 0 0 .998-1.504 138.43 138.43 0 0 1-3.087-8.038 1.083 1.083 0 0 0-2.001-.107c-.124.26-.14.558-.044.83.94 2.696 1.995 5.436 3.13 8.161a1.092 1.092 0 0 0 1.004.658Zm-5.696-16.374c.098 0 .195-.015.29-.043a1.077 1.077 0 0 0 .722-1.33c-.766-2.798-1.446-5.61-1.966-8.364a1.103 1.103 0 0 0-1.294-.875 1.105 1.105 0 0 0-.875 1.294c.55 2.805 1.222 5.668 2.01 8.516a1.075 1.075 0 0 0 1.113.817v-.015Zm-3.29-17.017h.117a1.089 1.089 0 0 0 .968-1.192 91.112 91.112 0 0 1-.535-8.552 1.083 1.083 0 0 0-1.084-1.07 1.085 1.085 0 0 0-.76.328 1.078 1.078 0 0 0-.303.771c.044 2.891.224 5.819.543 8.754a1.09 1.09 0 0 0 1.055.976v-.015Zm-.238-17.349a1.084 1.084 0 0 0 1.078-.998c.242-2.84.633-5.665 1.17-8.465a1.083 1.083 0 0 0-1.282-1.328 1.095 1.095 0 0 0-.698.502 1.087 1.087 0 0 0-.145.414 84.206 84.206 0 0 0-1.207 8.675 1.087 1.087 0 0 0 .584 1.054c.126.066.264.105.406.117l.094.029Zm3.29-16.988a1.095 1.095 0 0 0 1.04-.766 79.15 79.15 0 0 1 2.972-8.017 1.085 1.085 0 1 0-1.988-.86 80.444 80.444 0 0 0-3.03 8.284 1.093 1.093 0 0 0 1.006 1.41v-.051Zm6.903-15.904a1.082 1.082 0 0 0 .94-.542 82.828 82.828 0 0 1 4.626-7.229 1.083 1.083 0 0 0-1.058-1.703 1.085 1.085 0 0 0-.705.438 84.78 84.78 0 0 0-4.743 7.396 1.077 1.077 0 0 0-.105.825 1.093 1.093 0 0 0 .51.656c.154.125.34.205.535.232v-.073Zm10.084-14.081a1.115 1.115 0 0 0 .817-.369 88.664 88.664 0 0 1 5.964-6.159 1.088 1.088 0 0 0 .43-1.232 1.08 1.08 0 0 0-.61-.668 1.08 1.08 0 0 0-1.266.317c-2.168 2.002-4.192 4.12-6.115 6.303a1.092 1.092 0 0 0 .817 1.808h-.037Zm12.651-11.863c.241-.003.475-.084.665-.231a61.26 61.26 0 0 1 7.056-4.793 1.091 1.091 0 0 0 .546-.647 1.077 1.077 0 0 0-.085-.841 1.076 1.076 0 0 0-.664-.525 1.08 1.08 0 0 0-.838.112 62.418 62.418 0 0 0-7.338 4.98 1.085 1.085 0 0 0-.202 1.518 1.104 1.104 0 0 0 .86.499v-.072Z" fill="#95DBFA"/><path d="M365.785 283.258c-.528-6.289-.723-19.655 6.708-33.253 8.032-14.66 26.66-32.696 49.995-29.53 13.931 1.887 31.215 11.566 35.878 29.639 4.496 17.407-5.509 31.807-7.121 34.048 8.798.361 11.79 3.383 12.947 5.205 5.284 8.291-5.248 26.233-18.275 34.698-18.643 12.087-47.841 8.241-65.017-8.935-11.544-11.573-14.32-25.763-15.115-31.872Z" fill="#353535"/><path d="M461.863 276.868c-.296-5.35-.686-24.383 12.716-37.591 3.311-3.26 13.496-13.294 23.798-9.925 6.455 2.111 9.694 8.415 10.843 10.923 1.265-1.778 4.612-5.942 9.802-6.701 8.415-1.236 15.694 7.315 18.275 14.053 4.164 10.843 0 27.072-10.308 29.523-9.101 2.168-17.783-7.706-18.239-8.234.159.723 1.851 9.145-3.318 13.858-5.414 4.937-14.183 1.988-15.904 1.402-6.947-2.335-7.771-6.6-14.053-8.429-5.306-1.518-10.315-.166-13.612 1.121Z" fill="#353535"/><path d="M367.875 261.145s11.248 7.113 13.359 29.638c1.402 15.007 23.132 7.822 23.132 7.822s11.978-5.95 11.154 6.896c-.824 12.846-15.708 6.622-15.708 6.622l37.59 67.359-44.479 23.812-15.138-69.933a36.589 36.589 0 0 1-10.713 2.285 12.084 12.084 0 0 1-11.971-8.212c-11.487-33.47 12.774-66.289 12.774-66.289Z" fill="#fff"/><path d="M392.98 404.349c.179.001.356-.044.513-.13l44.48-23.812a1.09 1.09 0 0 0 .563-1.076 1.08 1.08 0 0 0-.13-.406l-36.274-64.945c2.819.723 7.228 1.367 10.525-.665 2.407-1.489 3.744-4.106 3.976-7.771.267-4.12-.723-6.94-2.892-8.393-3.614-2.385-9.014.058-9.759.412-.947.297-12.079 3.68-18.022-.209-2.168-1.446-3.368-3.615-3.657-6.701-2.133-22.764-13.381-30.123-13.858-30.42a1.084 1.084 0 0 0-1.446.268c-.246.332-24.463 33.665-12.868 67.229a13.249 13.249 0 0 0 13.049 8.942 37.006 37.006 0 0 0 9.867-1.945l14.877 68.733a1.09 1.09 0 0 0 .608.759c.138.076.291.12.448.13Zm42.997-25.301-42.238 22.612-14.834-68.53a1.073 1.073 0 0 0-.986-.859 1.076 1.076 0 0 0-.46.071 35.829 35.829 0 0 1-10.402 2.219 11.037 11.037 0 0 1-10.887-7.482c-10.171-29.458 8.227-58.872 11.928-64.337 2.566 2.168 10.344 10.12 12.036 28.192.354 3.738 1.908 6.506 4.634 8.314 7.055 4.612 19.424.607 19.951.433l.138-.057c1.366-.673 5.414-2.097 7.677-.586 1.489.99 2.132 3.159 1.923 6.448-.188 2.892-1.186 4.967-2.95 6.065-4.106 2.552-11.197-.347-11.262-.376a1.087 1.087 0 0 0-1.495.879c-.025.224.02.45.129.647l37.098 66.347Z" fill="#353535"/><path d="M204.131 473.567s3.571-26.747-9.29-36.022c-9.744-7.034-23.92-11.415-29.421-13.012-1.598-.477-4.569-.138-5.256 1.381 0 0-1.236 2.891 2.892 4.828l11.884 4.938a1.631 1.631 0 0 1 .938 1.309 1.648 1.648 0 0 1-.634 1.481c-2.993 2.321-8.444 8.769-9.318 12.289-1.446 5.856 1.662 11.061 7.229 15.846 5.566 4.786 7.055 5.704 7.315 6.976.261 1.272 9.543 12.116 9.543 12.116l14.118-12.13Z" fill="#fff"/><path d="M190.042 486.766c.264.003.521-.09.723-.26l14.089-12.116c.201-.174.332-.416.368-.68.145-1.12 3.506-27.47-9.73-37.041-6.838-4.937-16.843-9.397-29.747-13.207-2.038-.607-5.602-.137-6.556 1.974-.579 1.351-.593 4.337 3.412 6.253l11.942 4.988a.516.516 0 0 1 .275.426.542.542 0 0 1-.217.513c-3.167 2.451-8.762 9.08-9.709 12.861-1.446 5.783 1.041 11.313 7.598 16.937a387.985 387.985 0 0 0 3.275 2.769c2.522 2.118 3.563 2.992 3.686 3.614.268 1.272 5.473 7.554 9.781 12.593.183.215.442.352.723.383l.087-.007Zm13.062-13.735-12.939 11.132c-4.056-4.763-8.205-9.91-8.61-10.843-.296-1.316-1.272-2.169-4.41-4.771a166.728 166.728 0 0 1-3.253-2.754c-5.877-5.061-8.132-9.861-6.911-14.762.803-3.202 6.058-9.448 8.935-11.674a2.728 2.728 0 0 0 .553-3.753 2.731 2.731 0 0 0-1.066-.881l-11.935-4.988c-3.094-1.446-2.342-3.318-2.306-3.398.333-.723 2.559-1.185 3.947-.773 12.672 3.759 22.46 8.096 29.097 12.889 11.349 8.169 9.267 31.229 8.927 34.561l-.029.015Z" fill="#353535"/><path d="M558.183 549.521c-.723-2.892 43.077-33.521 39.434-65.545-3.644-32.024-69.984-103.894-113.545-112.692-43.561-8.797 6.831 144.579 6.831 144.579l67.28 33.658Z" fill="#007BB3"/><path d="M585.398 599.197H407.531l-48.904-176.689s29.032-54.101 71.942-59.19a126.164 126.164 0 0 1 38.104 1.171 54.767 54.767 0 0 1 41.154 34.547l75.571 200.161Z" fill="#007BB3"/><path d="m404.395 513.717-71.025 42.65c-38.082 25.302-88.192 30.962-113.385-.816-12.846-16.208-26.024-39.087-36.694-69.839l24.368-22.2 46.894 40.482a18.072 18.072 0 0 0 25.085-1.374c25.706-27.679 85.12-91.807 97.185-105.874 15.492-18.102 27.572 116.971 27.572 116.971Z" fill="#007BB3"/><path d="M559.882 532.685a.99.99 0 0 0 .405-.08 1.08 1.08 0 0 0 .6-1.409l-38.118-93.68a1.09 1.09 0 0 0-.584-.591 1.086 1.086 0 0 0-1.426 1.408l38.118 93.716a1.077 1.077 0 0 0 1.005.636ZM453.467 574.511c.105 0 .209-.015.31-.043a1.086 1.086 0 0 0 .723-1.352c-.108-.369-11.523-37.677-53.877-58.432a1.09 1.09 0 0 0-.826-.049 1.09 1.09 0 0 0-.674 1.376 1.059 1.059 0 0 0 .553.618c41.509 20.342 52.648 56.74 52.771 57.108a1.099 1.099 0 0 0 1.02.774Z" fill="#353535"/><path d="M220.483 569.336H56.198a10.96 10.96 0 0 0 0 21.911h164.285a10.96 10.96 0 0 0 0-21.911ZM111.769 534.455h-90.73a10.174 10.174 0 0 0-7.367 17.455 10.186 10.186 0 0 0 7.366 2.88h90.731a10.173 10.173 0 0 0 9.642-14.123 10.182 10.182 0 0 0-5.667-5.518 10.19 10.19 0 0 0-3.975-.694ZM140.608 554.556c-5.467-1.291-8.853-6.769-7.563-12.236 1.29-5.467 6.768-8.853 12.236-7.563 5.467 1.291 8.853 6.769 7.562 12.236-1.29 5.467-6.768 8.853-12.235 7.563Z" fill="#00AEEF"/><path d="m94.601 229.157 88.743.809c10.937.094 22.677 6.542 30.058 16.504l37.496 50.602 13.995-51.947c2.393-8.877 10.222-14.327 20.422-14.241l81.622.723c15.462.138 24.448-12.289 20.067-27.694L337.956 31.012c-4.381-15.434-20.458-28.056-35.921-28.193L29.7.347C14.238.209 5.252 12.636 9.625 28.04l49.049 172.923c4.38 15.426 20.465 28.048 35.927 28.193Z" fill="#95DBFA"/><path d="M144.473 81.621c4.135-6.585 11.393-10.214 20.437-10.214 6.759 0 13.576 2.169 20.241 6.354a57.919 57.919 0 0 1 9.715 7.771 24.578 24.578 0 0 1 5.162-7.778c4.214-4.222 9.773-6.361 16.532-6.361 9.044 0 18.427 3.614 26.415 10.2a51.56 51.56 0 0 1 16.626 25.012c2.892 9.911 1.873 18.99-3.246 28.561-4.583 8.559-12.224 17.256-21.072 27.318-3.022 3.441-6.441 7.338-9.969 11.487a5.175 5.175 0 0 1-4.026 1.706 8.939 8.939 0 0 1-5.06-1.706c-5.957-4.142-11.668-8.039-16.706-11.48-14.747-10.055-27.47-18.744-37.077-27.303-10.728-9.564-17.075-18.636-19.981-28.547-2.769-9.63-2.075-18.514 2.009-25.02ZM307.767 92.697c-4.959 0-7.8 4.012-6.347 8.971l18.072 61.728c1.446 4.952 6.636 8.971 11.566 8.971h170.184c4.959 0 7.8-4.019 6.347-8.971l-18.073-61.728c-1.445-4.959-6.636-8.97-11.566-8.97H307.767Z" fill="#fff"/><path d="M494.662 120.288a1.077 1.077 0 0 0 .676-.24 1.077 1.077 0 0 0 .35-1.148l-5.132-17.537c-1.569-5.378-7.229-9.752-12.637-9.752h-33.564a1.083 1.083 0 0 0 0 2.169h33.579c4.503 0 9.238 3.672 10.561 8.19l5.126 17.538a1.072 1.072 0 0 0 1.041.78ZM494.662 173.45h6.579a7.673 7.673 0 0 0 6.354-2.935c1.489-1.988 1.858-4.619 1.034-7.424l-5.256-17.978a1.084 1.084 0 1 0-2.082.607l5.256 17.978a6.14 6.14 0 0 1-.687 5.523 5.565 5.565 0 0 1-4.619 2.06h-6.579a1.085 1.085 0 0 0 0 2.169ZM478.875 173.45h9.752c.287 0 .563-.114.766-.318a1.08 1.08 0 0 0 0-1.533 1.08 1.08 0 0 0-.766-.318h-9.752a1.085 1.085 0 0 0 0 2.169ZM399.849 173.45h23.364c.287 0 .563-.114.766-.318a1.08 1.08 0 0 0 0-1.533 1.08 1.08 0 0 0-.766-.318h-23.364a1.085 1.085 0 0 0 0 2.169ZM331.086 173.45h28.193a1.083 1.083 0 0 0 .767-1.851 1.087 1.087 0 0 0-.767-.318h-28.193c-4.503 0-9.238-3.672-10.554-8.19l-.831-2.834a1.095 1.095 0 0 0-.52-.647 1.085 1.085 0 0 0-1.562 1.255l.831 2.833c1.554 5.379 7.222 9.752 12.636 9.752ZM332.228 123.167h135.246a1.085 1.085 0 0 0 0-2.169H332.228a1.08 1.08 0 0 0-.766.318 1.08 1.08 0 0 0 0 1.533c.203.203.479.318.766.318ZM337.514 141.239h28.273a1.085 1.085 0 0 0 0-2.169h-28.28a1.085 1.085 0 0 0 0 2.169h.007ZM383.859 141.239h88.916a1.083 1.083 0 0 0 .767-1.851 1.087 1.087 0 0 0-.767-.318h-88.916a1.085 1.085 0 0 0 0 2.169Z" fill="#353535"/><path d="M553.614 399.326a1.094 1.094 0 0 0 1.027-.723l.217-.651a1.092 1.092 0 0 0-2.061-.723l-.216.644a1.088 1.088 0 0 0 .686 1.373.97.97 0 0 0 .347.08Zm2.892-8.906a1.083 1.083 0 0 0 1.005-.781 377.686 377.686 0 0 0 2.465-8.342 1.095 1.095 0 0 0-.06-.858 1.084 1.084 0 0 0-2.022.265 385.518 385.518 0 0 1-2.458 8.299 1.07 1.07 0 0 0 .079.827 1.076 1.076 0 0 0 .644.525.985.985 0 0 0 .318.065h.029Zm4.691-16.685a1.09 1.09 0 0 0 1.056-.817c.723-2.819 1.446-5.66 2.06-8.45a1.077 1.077 0 0 0-1.628-1.161 1.093 1.093 0 0 0-.483.676 360.444 360.444 0 0 1-2.053 8.401 1.067 1.067 0 0 0 .116.82 1.089 1.089 0 0 0 .932.531Zm3.904-16.901a1.09 1.09 0 0 0 1.063-.867 314.8 314.8 0 0 0 1.619-8.552 1.087 1.087 0 0 0-.011-.429 1.096 1.096 0 0 0-1.315-.833 1.106 1.106 0 0 0-.843.886 307.421 307.421 0 0 1-1.612 8.494 1.095 1.095 0 0 0 .158.815 1.095 1.095 0 0 0 .688.464c.084.015.168.02.253.015v.007Zm2.993-17.075a1.081 1.081 0 0 0 1.07-.925c.419-2.891.802-5.783 1.135-8.631a1.108 1.108 0 0 0-.034-.425 1.106 1.106 0 0 0-.924-.786 1.088 1.088 0 0 0-1.211.958c-.325 2.826-.723 5.711-1.121 8.566a1.103 1.103 0 0 0 .204.814 1.09 1.09 0 0 0 .722.429h.159Zm1.988-17.233c.271.001.533-.101.732-.285.2-.183.323-.435.345-.706.246-2.891.448-5.826.593-8.674a1.084 1.084 0 0 0-1.03-1.139 1.087 1.087 0 0 0-1.139 1.03c-.152 2.841-.347 5.74-.586 8.617a1.085 1.085 0 0 0 .984 1.171l.101-.014Zm.896-17.35a1.081 1.081 0 0 0 1.084-1.062v-8.711a1.051 1.051 0 0 0-.326-.77 1.06 1.06 0 0 0-.78-.3 1.089 1.089 0 0 0-1.062 1.106v8.638a1.075 1.075 0 0 0 1.062 1.099h.022Zm-.311-17.349h.065a1.076 1.076 0 0 0 .962-.723c.047-.135.066-.277.058-.419a227.406 227.406 0 0 0-.629-8.675 1.097 1.097 0 0 0-.763-.939 1.081 1.081 0 0 0-.83.077 1.085 1.085 0 0 0-.576 1.064c.26 2.834.47 5.733.629 8.61a1.071 1.071 0 0 0 1.084 1.019v-.014Zm-1.59-17.263h.145a1.09 1.09 0 0 0 .932-1.222 217.357 217.357 0 0 0-1.323-8.616 1.107 1.107 0 0 0-.45-.712 1.094 1.094 0 0 0-.822-.185 1.091 1.091 0 0 0-.712.451 1.106 1.106 0 0 0-.185.821c.485 2.805.926 5.668 1.302 8.531a1.091 1.091 0 0 0 1.113.947v-.015Zm-2.978-17.082c.076.01.154.01.231 0a1.062 1.062 0 0 0 .682-.47 1.062 1.062 0 0 0 .142-.817 189.072 189.072 0 0 0-2.046-8.479 1.087 1.087 0 0 0-1.326-.77 1.084 1.084 0 0 0-.77 1.327c.723 2.754 1.446 5.573 2.024 8.385a1.091 1.091 0 0 0 1.063.839v-.015Zm-4.446-16.764a1.104 1.104 0 0 0 .97-.579 1.098 1.098 0 0 0 .078-.83 177.13 177.13 0 0 0-2.819-8.256 1.106 1.106 0 0 0-.194-.408 1.076 1.076 0 0 0-1.225-.362 1.084 1.084 0 0 0-.613 1.493 194.114 194.114 0 0 1 2.784 8.162 1.082 1.082 0 0 0 1.019.795v-.015Zm-5.993-16.236a1.086 1.086 0 0 0 .969-1.532 172.77 172.77 0 0 0-3.615-7.952 1.087 1.087 0 0 0-1.449-.503 1.084 1.084 0 0 0-.503 1.45 216.464 216.464 0 0 1 3.615 7.843 1.086 1.086 0 0 0 .983.694Zm-7.619-15.585a1.062 1.062 0 0 0 1.029-.776c.078-.27.049-.559-.082-.807a147.575 147.575 0 0 0-4.489-7.504 1.084 1.084 0 0 0-1.975.353c-.062.281-.01.575.146.818a140.843 140.843 0 0 1 4.424 7.388 1.094 1.094 0 0 0 .947.506v.022Zm-9.398-14.588a1.088 1.088 0 0 0 .868-1.735 67.382 67.382 0 0 0-5.646-6.803 1.085 1.085 0 0 0-1.54 1.526 69.998 69.998 0 0 1 5.451 6.578 1.076 1.076 0 0 0 .874.412l-.007.022ZM539.78 389.639a1.085 1.085 0 0 0 .998-.651c.91-2.103 1.785-4.25 2.609-6.383a1.085 1.085 0 1 0-2.024-.781 160.713 160.713 0 0 1-2.581 6.304 1.1 1.1 0 0 0-.022.842 1.08 1.08 0 0 0 .586.604c.139.049.287.071.434.065Zm5.494-14.516a1.093 1.093 0 0 0 1.034-.723 167.437 167.437 0 0 0 2.479-8.378 1.086 1.086 0 0 0-.77-1.327 1.083 1.083 0 0 0-1.326.77 149.735 149.735 0 0 1-2.451 8.263 1.105 1.105 0 0 0 .078.833 1.092 1.092 0 0 0 .645.533c.101.028.206.04.311.036v-.007Zm4.475-16.756a1.086 1.086 0 0 0 1.062-.861 162.752 162.752 0 0 0 1.547-8.595 1.11 1.11 0 0 0-.519-1.102 1.11 1.11 0 0 0-.83-.125 1.103 1.103 0 0 0-.819.902c-.42 2.812-.94 5.66-1.526 8.479a1.072 1.072 0 0 0 .839 1.28c.081.018.163.028.246.029v-.007Zm2.588-17.162a1.078 1.078 0 0 0 1.077-.983c.274-2.928.448-5.87.535-8.725a1.082 1.082 0 0 0-1.828-.823c-.21.198-.332.47-.341.758-.079 2.812-.26 5.703-.528 8.595a1.094 1.094 0 0 0 .983 1.178h.102Zm.491-17.349h.044a1.091 1.091 0 0 0 1.041-1.128 73.807 73.807 0 0 0-.781-8.783 1.088 1.088 0 0 0-.448-.713 1.109 1.109 0 0 0-.821-.187 1.101 1.101 0 0 0-.9 1.269c.408 2.817.649 5.655.723 8.501a1.083 1.083 0 0 0 .34.785 1.096 1.096 0 0 0 .802.299v-.043Z" fill="#95DBFA"/><path d="M210.689 302.819a1.086 1.086 0 0 0 1.084-1.084v-5.61a1.084 1.084 0 1 0-2.168 0v5.61a1.086 1.086 0 0 0 1.084 1.084ZM210.689 315.903a1.086 1.086 0 0 0 1.084-1.084v-5.61a1.084 1.084 0 1 0-2.168 0v5.61a1.086 1.086 0 0 0 1.084 1.084ZM214.419 306.542h5.602a1.085 1.085 0 0 0 0-2.169h-5.602a1.085 1.085 0 1 0 0 2.169ZM201.349 306.542h5.61a1.085 1.085 0 0 0 0-2.169h-5.61a1.083 1.083 0 0 0-.767 1.851c.204.203.479.318.767.318Z" fill="#353535"/><path d="M378.949 67.598a9.129 9.129 0 0 0 6.465-15.583 9.126 9.126 0 0 0-9.95-1.983 9.126 9.126 0 0 0-2.965 14.887 9.14 9.14 0 0 0 6.45 2.68Zm0-16.091a6.96 6.96 0 0 1 6.835 8.315 6.957 6.957 0 0 1-5.467 5.473 6.965 6.965 0 0 1-7.149-2.959 6.963 6.963 0 0 1-1.174-3.868 6.968 6.968 0 0 1 6.955-6.961ZM512.684 194.892a5.134 5.134 0 0 0 8.762 3.63 5.135 5.135 0 0 0-.778-7.897 5.13 5.13 0 0 0-4.817-.476 5.115 5.115 0 0 0-2.778 2.778 5.116 5.116 0 0 0-.389 1.965Z" fill="#fff"/></svg>