<svg width="70" height="70" fill="none" xmlns="http://www.w3.org/2000/svg"><g clip-path="url(#a)" fill="#00AEEF"><path d="M67.94 48.312a3.806 3.806 0 0 0-3.979.287c-.015.013-2.532 1.844-5.5 4.007a3.616 3.616 0 0 0-3.122-2.665l-20.023-2.08a5.615 5.615 0 0 0-3.25.663l-.04.021-2.093 1.255c-.443.242-.94.367-1.445.367h-3.145A2.325 2.325 0 0 0 23.334 49H19.51a2.326 2.326 0 0 0-2.009-1.167H2.333A2.333 2.333 0 0 0 0 50.167V64.24a2.341 2.341 0 0 0 2.178 2.334l14.663.976h.183a2.8 2.8 0 0 0 2.745-2.218h3.564a2.327 2.327 0 0 0 2.008-1.166H28c.403 0 .804.07 1.183.206l14.854 5.199a7.198 7.198 0 0 0 2.471.428 8.166 8.166 0 0 0 5.045-1.75l17.091-13.741a3.72 3.72 0 0 0-.7-6.2l-.003.003ZM17.5 64.167v.583a.473.473 0 0 1-.15.35.417.417 0 0 1-.16.104c-.061.022-.126.03-.19.022l-14.667-.985V50.167H17.5v14Zm5.833-12.834V63h-3.5V51.333h3.5Zm43.835 1.369L50.09 66.435a5.698 5.698 0 0 1-5.267.94l-14.862-5.201a5.804 5.804 0 0 0-1.961-.34h-2.333V52.5h2.82a5.396 5.396 0 0 0 2.605-.678l2.113-1.265a3.216 3.216 0 0 1 1.877-.378l20.014 2.088a1.29 1.29 0 0 1-.135 2.566H38.5a1.167 1.167 0 1 0 0 2.334h4.234l4.924 4.165a2.169 2.169 0 0 0 2.66.094l15.015-10.94a1.495 1.495 0 0 1 1.552-.095 1.375 1.375 0 0 1 .782 1.23 1.407 1.407 0 0 1-.499 1.084v-.003ZM52.2 57.167l-3.144 2.291-2.706-2.291h5.85Z"/><path d="M46.665 0A23.333 23.333 0 1 0 70 23.333 23.36 23.36 0 0 0 46.665 0Zm0 44.333a21 21 0 1 1 21-21 21.025 21.025 0 0 1-21 21Z"/><path d="M46.667 4.667a18.667 18.667 0 1 0 18.666 18.667A18.689 18.689 0 0 0 46.667 4.667Zm0 35A16.333 16.333 0 1 1 63 23.334a16.35 16.35 0 0 1-16.333 16.333Z"/><path d="M46.667 12.833a1.167 1.167 0 0 0 1.166-1.167V10.5a1.167 1.167 0 1 0-2.333 0v1.166a1.167 1.167 0 0 0 1.167 1.167ZM38.419 13.434a1.167 1.167 0 0 0-1.65 1.65l.825.824a1.166 1.166 0 0 0 1.65-1.65l-.825-.824ZM35.001 22.167h-1.166a1.167 1.167 0 1 0 0 2.333H35a1.167 1.167 0 1 0 0-2.333ZM37.591 30.758l-.825.824a1.165 1.165 0 1 0 1.65 1.65l.825-.825a1.167 1.167 0 1 0-1.65-1.65ZM46.667 33.833A1.167 1.167 0 0 0 45.5 35v1.166a1.167 1.167 0 1 0 2.333 0V35a1.167 1.167 0 0 0-1.166-1.167ZM55.74 30.758a1.165 1.165 0 0 0-1.91 1.27c.06.143.15.272.26.38l.825.824a1.166 1.166 0 0 0 1.65-1.65l-.825-.825ZM57.168 23.334a1.167 1.167 0 0 0 1.167 1.166H59.5a1.167 1.167 0 1 0 0-2.333h-1.166a1.167 1.167 0 0 0-1.167 1.167ZM54.915 13.434l-.825.825a1.165 1.165 0 1 0 1.65 1.65l.825-.825a1.166 1.166 0 0 0-1.65-1.65ZM50.535 23.393l-2.702-.9v-6.16a1.167 1.167 0 1 0-2.333 0v7a1.167 1.167 0 0 0 .798 1.108l3.5 1.167a1.168 1.168 0 1 0 .737-2.217v.002Z"/></g><defs><clipPath id="a"><path fill="#fff" d="M0 0h70v70H0z"/></clipPath></defs></svg>