<svg width="70" height="70" fill="none" xmlns="http://www.w3.org/2000/svg"><path d="M22.687 27.891a14.22 14.22 0 1 0 5.205-19.423 14.228 14.228 0 0 0-5.205 19.423Zm6.298-17.528a12.031 12.031 0 1 1-4.403 16.434 11.956 11.956 0 0 1 4.403-16.434Z" fill="#03A9F4"/><path d="M66.719 56.875h-2.216a5.412 5.412 0 0 0 1.122-3.281V20.781a5.475 5.475 0 0 0-5.469-5.468h-7.399a18.559 18.559 0 0 0-35.498 0H9.844a5.476 5.476 0 0 0-5.469 5.469v32.812a5.412 5.412 0 0 0 1.122 3.281H3.281a1.094 1.094 0 0 0-1.094 1.094v4.375a5.475 5.475 0 0 0 5.47 5.469h54.687a5.476 5.476 0 0 0 5.468-5.469v-4.375a1.093 1.093 0 0 0-1.093-1.094ZM60.156 17.5a3.281 3.281 0 0 1 3.282 3.282v32.812a3.274 3.274 0 0 1-2.978 3.25 5.45 5.45 0 0 0 .024-2.222 1.082 1.082 0 0 0 .766-1.028V20.781a1.093 1.093 0 0 0-1.094-1.093H53.54a18.544 18.544 0 0 0-.26-2.188h6.876ZM16.46 21.875a18.52 18.52 0 0 0 13.727 16.867c1.58.424 3.207.64 4.842.64a18.376 18.376 0 0 0 6.279-1.112l2.88 4.991-.947.547a1.094 1.094 0 0 0-.4 1.494l4.157 7.198h-36.06V21.875h5.522ZM45.217 36.29l2.761 4.783-1.894 1.093-2.752-4.766c.328-.163.648-.328.965-.515.317-.187.615-.395.92-.595Zm.066 8.866 2.844-1.64 1.895-1.095.945-.547 7.01 12.141v.006a3.283 3.283 0 0 1-5.687 3.28l-7.007-12.145Zm7.031-5.324a1.094 1.094 0 0 0-1.494-.4l-.947.547-2.889-5.002a18.62 18.62 0 0 0 6.563-13.102h5.516v29.647l-6.749-11.69ZM26.797 6.574a16.306 16.306 0 0 1 12.449-1.64 16.406 16.406 0 0 1 3.957 30.055A16.405 16.405 0 0 1 21.94 10.784a16.407 16.407 0 0 1 4.858-4.21ZM6.562 20.782A3.281 3.281 0 0 1 9.845 17.5h6.872c-.13.724-.219 1.454-.264 2.188H9.844a1.094 1.094 0 0 0-1.094 1.094v32.812a1.094 1.094 0 0 0 1.094 1.094H48.26l1.263 2.187H9.844a3.282 3.282 0 0 1-3.281-3.281V20.781Zm32.813 38.28v1.095a1.093 1.093 0 0 1-1.094 1.093H31.72a1.094 1.094 0 0 1-1.094-1.093v-1.094h8.75Zm26.25 3.282a3.281 3.281 0 0 1-3.281 3.281H7.656a3.282 3.282 0 0 1-3.281-3.281v-3.281h24.063v1.093a3.281 3.281 0 0 0 3.28 3.282h6.563a3.281 3.281 0 0 0 3.282-3.282v-1.093h9.296a5.437 5.437 0 0 0 8.555 0h6.211v3.281Z" fill="#03A9F4"/><path d="M39.375 27.344h3.281a1.094 1.094 0 0 0 1.094-1.094V15.312a1.093 1.093 0 0 0-1.094-1.093h-3.281a1.094 1.094 0 0 0-1.094 1.094V26.25a1.094 1.094 0 0 0 1.094 1.094Zm1.094-10.938h1.093v8.75H40.47v-8.75ZM32.813 27.344h3.28a1.094 1.094 0 0 0 1.094-1.094v-7.656a1.093 1.093 0 0 0-1.093-1.094h-3.282a1.093 1.093 0 0 0-1.093 1.094v7.656a1.094 1.094 0 0 0 1.093 1.094Zm1.093-7.657H35v5.47h-1.094v-5.47ZM26.25 27.344h3.281a1.094 1.094 0 0 0 1.094-1.094v-4.375a1.093 1.093 0 0 0-1.094-1.094H26.25a1.094 1.094 0 0 0-1.094 1.094v4.375a1.094 1.094 0 0 0 1.094 1.094Zm1.094-4.375h1.093v2.187h-1.093V22.97ZM16.406 45.938h2.188a1.093 1.093 0 1 0 0-2.188h-2.188a1.093 1.093 0 1 0 0 2.188ZM22.969 45.938h16.406a1.093 1.093 0 1 0 0-2.188H22.969a1.093 1.093 0 1 0 0 2.188ZM16.406 41.563h2.188a1.093 1.093 0 1 0 0-2.188h-2.188a1.093 1.093 0 1 0 0 2.188ZM22.969 41.563h4.375a1.093 1.093 0 1 0 0-2.188h-4.375a1.093 1.093 0 1 0 0 2.188ZM16.406 50.313h2.188a1.093 1.093 0 1 0 0-2.188h-2.188a1.093 1.093 0 1 0 0 2.188ZM22.969 50.313h16.406a1.093 1.093 0 1 0 0-2.188H22.969a1.093 1.093 0 1 0 0 2.188Z" fill="#03A9F4"/></svg>