<svg width="80" height="80" fill="none" xmlns="http://www.w3.org/2000/svg"><mask id="a" style="mask-type:luminance" maskUnits="userSpaceOnUse" x="0" y="0" width="80" height="80"><path d="M80 0H0v80h80V0Z" fill="#fff"/></mask><g mask="url(#a)"><mask id="b" style="mask-type:luminance" maskUnits="userSpaceOnUse" x="0" y="0" width="80" height="80"><path d="M0 0h80v80H0V0Z" fill="#fff"/></mask><g mask="url(#b)" stroke="#03A9F4" stroke-width="2" stroke-miterlimit="10" stroke-linecap="round" stroke-linejoin="round"><path d="M19.62 16.472a.59.59 0 0 0-.589.59V73.14c0 .325.264.59.59.59h40.762a.59.59 0 0 0 .59-.59V24.159l-7.687-7.687H19.621Z"/><path d="M53.875 24.158h7.096l-7.686-7.686v7.097c0 .325.264.59.59.59ZM47.663 5.976H32.338a.928.928 0 0 0-.928.928V11.7c0 .512.416.928.928.928h15.325a.928.928 0 0 0 .928-.928V6.904a.928.928 0 0 0-.928-.928ZM33.8 12.629v6.29c0 .7.57 1.27 1.271 1.27h9.861a1.27 1.27 0 0 0 1.27-1.27v-6.29H33.801ZM42.152 5.976c.456-.511.734-1.183.734-1.918a2.893 2.893 0 0 0-2.884-2.884 2.893 2.893 0 0 0-2.885 2.884c0 .735.279 1.407.735 1.918h4.3ZM53.833 36.466a2.513 2.513 0 0 0-3.555 0L40.052 46.692a.68.68 0 0 1-.962 0l-4.733-4.733a2.513 2.513 0 1 0-3.554 3.555l6.99 6.991a2.513 2.513 0 0 0 3.556 0l12.484-12.484a2.513 2.513 0 0 0 0-3.555Z"/><path d="M41.489 58.712c5.764-1.253 10.083-6.382 10.083-12.522 0-1.191-.166-2.343-.47-3.437l-9.753 9.752a2.513 2.513 0 0 1-3.555 0l-6.99-6.991a2.514 2.514 0 1 1 3.554-3.555l4.733 4.733a.68.68 0 0 0 .962 0l8.62-8.62a12.79 12.79 0 0 0-9.919-4.699c-7.078 0-12.816 5.738-12.816 12.817 0 6.14 4.318 11.269 10.082 12.522"/><path d="M66.067 41.751V10.355a1.52 1.52 0 0 0-1.516-1.516H48.59v2.862a.928.928 0 0 1-.928.928H31.032a.928.928 0 0 1-.928-.928V8.839H15.45a1.52 1.52 0 0 0-1.516 1.516v66.954a1.52 1.52 0 0 0 1.516 1.516h49.1a1.52 1.52 0 0 0 1.517-1.516V41.233"/></g></g></svg>