<svg width="70" height="70" fill="none" xmlns="http://www.w3.org/2000/svg"><path d="M58.607 43.17a1.04 1.04 0 0 0-2.025.47c.405 1.752.647 3.525.718 5.27a1.04 1.04 0 1 0 2.078-.084 30.728 30.728 0 0 0-.77-5.655ZM56.352 36.653c-2.364-5.067-5.888-9.407-10.189-12.553-2.555-1.87-5.306-3.246-8.155-4.098a3.341 3.341 0 0 0-.019-4.608 3.34 3.34 0 0 0 .93-2.315c0-1.37-.825-2.549-2.003-3.07.181-.292.452-.63.802-1.055 1.26-1.536 2.984-3.639 2.984-7.914A1.04 1.04 0 0 0 39.662 0H22.564a1.04 1.04 0 0 0-1.04 1.04c0 4.276 1.726 6.378 2.985 7.914.35.426.62.762.802 1.056a3.358 3.358 0 0 0-2.004 3.07c0 .896.355 1.711.93 2.313A3.34 3.34 0 0 0 24.215 20a25.81 25.81 0 0 0-4.175 1.664c-3.331 1.672-6.351 4.036-8.976 7.027-5.237 5.965-8.24 13.738-8.24 21.326 0 7.362 2.86 12.75 8.5 16.015C15.936 68.702 22.409 70 31.113 70c7.014 0 12.52-.833 16.833-2.545a1.04 1.04 0 0 0-.768-1.933c-4.064 1.614-9.319 2.399-16.065 2.399-17.881 0-26.21-5.69-26.21-17.904 0-7.09 2.815-14.364 7.723-19.955 5.095-5.803 11.66-9 18.487-9 9.518 0 18.686 6.465 23.355 16.47a1.04 1.04 0 1 0 1.884-.88ZM23.646 2.079H38.58c-.243 2.84-1.466 4.332-2.47 5.556-.556.677-1.088 1.328-1.357 2.09h-7.28c-.27-.762-.802-1.413-1.357-2.09-1.004-1.224-2.228-2.716-2.47-5.556Zm11.92 16.904H26.66a1.276 1.276 0 0 1-1.275-1.275c0-.703.572-1.275 1.275-1.275h8.904c.703 0 1.275.572 1.275 1.275s-.572 1.275-1.275 1.275Zm0-4.63H26.66a1.276 1.276 0 0 1-1.275-1.274c0-.703.572-1.275 1.275-1.275h8.904c.703 0 1.275.572 1.275 1.275s-.572 1.275-1.275 1.275Z" fill="#03A9F4"/><path d="M32.152 44.934v-4.398c1.075.324 1.84 1.13 1.84 2.075a1.04 1.04 0 0 0 2.08 0c0-2.065-1.683-3.794-3.92-4.21v-.363a1.04 1.04 0 0 0-2.08 0v.363c-2.237.416-3.92 2.145-3.92 4.21s1.683 3.794 3.92 4.21v4.398c-1.075-.323-1.84-1.13-1.84-2.074a1.04 1.04 0 0 0-2.08 0c0 2.065 1.683 3.794 3.92 4.21v.363a1.04 1.04 0 0 0 2.08 0v-.363c2.237-.416 3.92-2.145 3.92-4.21s-1.683-3.795-3.92-4.21Zm-2.08-.248c-1.075-.323-1.84-1.13-1.84-2.075 0-.944.765-1.75 1.84-2.074v4.15Zm2.08 6.533V47.07c1.075.323 1.84 1.13 1.84 2.075 0 .944-.765 1.751-1.84 2.074Z" fill="#03A9F4"/><path d="M31.113 32.058c-7.62 0-13.82 6.2-13.82 13.82 0 1.401.21 2.784.622 4.11a1.04 1.04 0 1 0 1.985-.618c-.35-1.126-.528-2.3-.528-3.492 0-6.474 5.267-11.741 11.741-11.741 6.474 0 11.742 5.267 11.742 11.741 0 6.474-5.267 11.742-11.742 11.742a11.739 11.739 0 0 1-9.736-5.178 1.04 1.04 0 0 0-1.723 1.164 13.815 13.815 0 0 0 11.46 6.093c7.62 0 13.82-6.2 13.82-13.82 0-7.621-6.2-13.821-13.82-13.821ZM66.001 60.498c.574 0 1.176.317 1.176-.258V52a1.04 1.04 0 0 0-1.04-1.04h-.883v-4.937a7.025 7.025 0 0 0-7.017-7.017 7.025 7.025 0 0 0-7.017 7.017v4.938h-.883a1.04 1.04 0 0 0-1.04 1.04v13.41c0 .574.465 1.04 1.04 1.04h15.8a1.04 1.04 0 0 0 1.04-1.04v-5.677a1.04 1.04 0 0 0-2.079 0v4.637H51.376v-11.33H65.098v7.2c0 .574.329.257.903.257Zm-2.826-9.537h-9.876v-4.938a4.944 4.944 0 0 1 4.938-4.938 4.943 4.943 0 0 1 4.938 4.938v4.938Z" fill="#03A9F4"/><path d="M58.237 55.547a2.607 2.607 0 0 0-2.604 2.604c0 1.066.645 1.984 1.564 2.386v.999a1.04 1.04 0 0 0 2.08 0v-.999a2.607 2.607 0 0 0 1.564-2.386 2.607 2.607 0 0 0-2.604-2.604Zm0 3.13a.526.526 0 1 1 .001-1.052.526.526 0 0 1-.001 1.051Z" fill="#03A9F4"/></svg>