<svg width="70" height="71" fill="none" xmlns="http://www.w3.org/2000/svg"><g clip-path="url(#a)"><mask id="b" maskUnits="userSpaceOnUse" x="-1" y="2.035" width="67" height="67" fill="#000"><path fill="#fff" d="M-1 2.035h67v67H-1z"/><path fill-rule="evenodd" clip-rule="evenodd" d="M38.44 67.964a.765.765 0 0 1-.706-.473l-2.525-6.102a26.152 26.152 0 0 1-5.49 0l-2.524 6.102a.764.764 0 0 1-.905.446l-4.698-1.257a.765.765 0 0 1-.56-.84l.865-6.54a25.885 25.885 0 0 1-4.76-2.749l-5.232 4.02a.766.766 0 0 1-1.007-.065l-3.44-3.44a.765.765 0 0 1-.065-1.007l4.02-5.234a26 26 0 0 1-2.748-4.757l-6.542.864a.764.764 0 0 1-.839-.56L.027 41.674c-.1-.371.09-.758.445-.904l6.103-2.526a26.13 26.13 0 0 1 0-5.489L.473 30.23a.763.763 0 0 1-.446-.904l1.257-4.7c.1-.369.457-.61.84-.558l6.54.862a25.94 25.94 0 0 1 2.749-4.756l-4.02-5.233a.764.764 0 0 1 .065-1.006l3.44-3.44a.765.765 0 0 1 1.007-.066l5.234 4.02a26.018 26.018 0 0 1 4.757-2.748l-.864-6.542a.764.764 0 0 1 .56-.839l4.698-1.259a.765.765 0 0 1 .904.447l2.525 6.103a26.13 26.13 0 0 1 5.49 0l2.525-6.103a.765.765 0 0 1 .904-.447l4.698 1.26c.37.1.611.458.56.838l-.864 6.542a25.997 25.997 0 0 1 4.756 2.748l5.235-4.02a.764.764 0 0 1 1.006.065l3.44 3.44c.272.271.3.701.066 1.007l-4.02 5.233A25.896 25.896 0 0 1 56.295 25c.17.385-.408.14-.795.308-.385.17-.434.693-.605.306a24.323 24.323 0 0 0-2.945-4.983.764.764 0 0 1 0-.93l3.965-5.16-2.492-2.492-5.163 3.964a.768.768 0 0 1-.93.001 24.307 24.307 0 0 0-5.425-3.136.765.765 0 0 1-.464-.806l.853-6.449-3.405-.912-2.488 6.016a.763.763 0 0 1-.804.467 24.711 24.711 0 0 0-6.266 0 .765.765 0 0 1-.803-.467L26.04 4.712l-3.404.912.851 6.45a.763.763 0 0 1-.463.805 24.316 24.316 0 0 0-5.425 3.136.765.765 0 0 1-.93-.001l-5.163-3.964-2.491 2.491 3.964 5.161c.21.274.21.655 0 .93A24.364 24.364 0 0 0 9.84 26.06a.763.763 0 0 1-.804.463l-6.449-.851-.912 3.403 6.017 2.489a.767.767 0 0 1 .466.804 24.743 24.743 0 0 0 0 6.266.76.76 0 0 1-.467.802l-6.016 2.49.912 3.404 6.451-.852a.763.763 0 0 1 .806.464 24.304 24.304 0 0 0 3.134 5.425.764.764 0 0 1-.002.93l-3.963 5.163 2.491 2.491 5.161-3.964a.765.765 0 0 1 .93 0 24.334 24.334 0 0 0 5.427 3.135.766.766 0 0 1 .463.805l-.85 6.45 3.403.912 2.488-6.016a.767.767 0 0 1 .804-.467 24.72 24.72 0 0 0 6.266 0 .766.766 0 0 1 .804.467l2.488 6.016 3.405-.912-.852-6.45a.765.765 0 0 1 .462-.805 24.33 24.33 0 0 0 5.428-3.135.764.764 0 0 1 .93 0l5.16 3.964 2.493-2.491-3.964-5.163a.763.763 0 0 1-.002-.93 24.344 24.344 0 0 0 3.136-5.425.761.761 0 0 1 .805-.464l6.45.852.912-3.404-6.016-2.49a.76.76 0 0 1-.467-.802 24.71 24.71 0 0 0 0-6.266.767.767 0 0 1 .467-.804l6.016-2.489-.912-3.403-2.245.296c-.42.056.056.067 0-.352s-.014-1.063.405-1.119l2.305-.428c.38-.051.738.19.839.558l1.26 4.7a.766.766 0 0 1-.449.904l-6.102 2.525a26.135 26.135 0 0 1 0 5.49l6.102 2.524a.765.765 0 0 1 .448.905l-1.26 4.698a.766.766 0 0 1-.839.56l-6.54-.864a25.999 25.999 0 0 1-2.749 4.757l4.02 5.234a.765.765 0 0 1-.066 1.006l-3.44 3.44a.766.766 0 0 1-1.006.066l-5.233-4.02a25.932 25.932 0 0 1-4.757 2.75l.863 6.54c.051.38-.19.738-.56.839l-4.698 1.257a.766.766 0 0 1-.197.027Z"/></mask><path fill-rule="evenodd" clip-rule="evenodd" d="M38.44 67.964a.765.765 0 0 1-.706-.473l-2.525-6.102a26.152 26.152 0 0 1-5.49 0l-2.524 6.102a.764.764 0 0 1-.905.446l-4.698-1.257a.765.765 0 0 1-.56-.84l.865-6.54a25.885 25.885 0 0 1-4.76-2.749l-5.232 4.02a.766.766 0 0 1-1.007-.065l-3.44-3.44a.765.765 0 0 1-.065-1.007l4.02-5.234a26 26 0 0 1-2.748-4.757l-6.542.864a.764.764 0 0 1-.839-.56L.027 41.674c-.1-.371.09-.758.445-.904l6.103-2.526a26.13 26.13 0 0 1 0-5.489L.473 30.23a.763.763 0 0 1-.446-.904l1.257-4.7c.1-.369.457-.61.84-.558l6.54.862a25.94 25.94 0 0 1 2.749-4.756l-4.02-5.233a.764.764 0 0 1 .065-1.006l3.44-3.44a.765.765 0 0 1 1.007-.066l5.234 4.02a26.018 26.018 0 0 1 4.757-2.748l-.864-6.542a.764.764 0 0 1 .56-.839l4.698-1.259a.765.765 0 0 1 .904.447l2.525 6.103a26.13 26.13 0 0 1 5.49 0l2.525-6.103a.765.765 0 0 1 .904-.447l4.698 1.26c.37.1.611.458.56.838l-.864 6.542a25.997 25.997 0 0 1 4.756 2.748l5.235-4.02a.764.764 0 0 1 1.006.065l3.44 3.44c.272.271.3.701.066 1.007l-4.02 5.233A25.896 25.896 0 0 1 56.295 25c.17.385-.408.14-.795.308-.385.17-.434.693-.605.306a24.323 24.323 0 0 0-2.945-4.983.764.764 0 0 1 0-.93l3.965-5.16-2.492-2.492-5.163 3.964a.768.768 0 0 1-.93.001 24.307 24.307 0 0 0-5.425-3.136.765.765 0 0 1-.464-.806l.853-6.449-3.405-.912-2.488 6.016a.763.763 0 0 1-.804.467 24.711 24.711 0 0 0-6.266 0 .765.765 0 0 1-.803-.467L26.04 4.712l-3.404.912.851 6.45a.763.763 0 0 1-.463.805 24.316 24.316 0 0 0-5.425 3.136.765.765 0 0 1-.93-.001l-5.163-3.964-2.491 2.491 3.964 5.161c.21.274.21.655 0 .93A24.364 24.364 0 0 0 9.84 26.06a.763.763 0 0 1-.804.463l-6.449-.851-.912 3.403 6.017 2.489a.767.767 0 0 1 .466.804 24.743 24.743 0 0 0 0 6.266.76.76 0 0 1-.467.802l-6.016 2.49.912 3.404 6.451-.852a.763.763 0 0 1 .806.464 24.304 24.304 0 0 0 3.134 5.425.764.764 0 0 1-.002.93l-3.963 5.163 2.491 2.491 5.161-3.964a.765.765 0 0 1 .93 0 24.334 24.334 0 0 0 5.427 3.135.766.766 0 0 1 .463.805l-.85 6.45 3.403.912 2.488-6.016a.767.767 0 0 1 .804-.467 24.72 24.72 0 0 0 6.266 0 .766.766 0 0 1 .804.467l2.488 6.016 3.405-.912-.852-6.45a.765.765 0 0 1 .462-.805 24.33 24.33 0 0 0 5.428-3.135.764.764 0 0 1 .93 0l5.16 3.964 2.493-2.491-3.964-5.163a.763.763 0 0 1-.002-.93 24.344 24.344 0 0 0 3.136-5.425.761.761 0 0 1 .805-.464l6.45.852.912-3.404-6.016-2.49a.76.76 0 0 1-.467-.802 24.71 24.71 0 0 0 0-6.266.767.767 0 0 1 .467-.804l6.016-2.489-.912-3.403-2.245.296c-.42.056.056.067 0-.352s-.014-1.063.405-1.119l2.305-.428c.38-.051.738.19.839.558l1.26 4.7a.766.766 0 0 1-.449.904l-6.102 2.525a26.135 26.135 0 0 1 0 5.49l6.102 2.524a.765.765 0 0 1 .448.905l-1.26 4.698a.766.766 0 0 1-.839.56l-6.54-.864a25.999 25.999 0 0 1-2.749 4.757l4.02 5.234a.765.765 0 0 1-.066 1.006l-3.44 3.44a.766.766 0 0 1-1.006.066l-5.233-4.02a25.932 25.932 0 0 1-4.757 2.75l.863 6.54c.051.38-.19.738-.56.839l-4.698 1.257a.766.766 0 0 1-.197.027Z" fill="#00AEEF"/><path clip-rule="evenodd" d="M38.44 67.964a.765.765 0 0 1-.706-.473l-2.525-6.102a26.152 26.152 0 0 1-5.49 0l-2.524 6.102a.764.764 0 0 1-.905.446l-4.698-1.257a.765.765 0 0 1-.56-.84l.865-6.54a25.885 25.885 0 0 1-4.76-2.749l-5.232 4.02a.766.766 0 0 1-1.007-.065l-3.44-3.44a.765.765 0 0 1-.065-1.007l4.02-5.234a26 26 0 0 1-2.748-4.757l-6.542.864a.764.764 0 0 1-.839-.56L.027 41.674c-.1-.371.09-.758.445-.904l6.103-2.526a26.13 26.13 0 0 1 0-5.489L.473 30.23a.763.763 0 0 1-.446-.904l1.257-4.7c.1-.369.457-.61.84-.558l6.54.862a25.94 25.94 0 0 1 2.749-4.756l-4.02-5.233a.764.764 0 0 1 .065-1.006l3.44-3.44a.765.765 0 0 1 1.007-.066l5.234 4.02a26.018 26.018 0 0 1 4.757-2.748l-.864-6.542a.764.764 0 0 1 .56-.839l4.698-1.259a.765.765 0 0 1 .904.447l2.525 6.103a26.13 26.13 0 0 1 5.49 0l2.525-6.103a.765.765 0 0 1 .904-.447l4.698 1.26c.37.1.611.458.56.838l-.864 6.542a25.997 25.997 0 0 1 4.756 2.748l5.235-4.02a.764.764 0 0 1 1.006.065l3.44 3.44c.272.271.3.701.066 1.007l-4.02 5.233A25.896 25.896 0 0 1 56.295 25c.17.385-.408.14-.795.308-.385.17-.434.693-.605.306a24.323 24.323 0 0 0-2.945-4.983.764.764 0 0 1 0-.93l3.965-5.16-2.492-2.492-5.163 3.964a.768.768 0 0 1-.93.001 24.307 24.307 0 0 0-5.425-3.136.765.765 0 0 1-.464-.806l.853-6.449-3.405-.912-2.488 6.016a.763.763 0 0 1-.804.467 24.711 24.711 0 0 0-6.266 0 .765.765 0 0 1-.803-.467L26.04 4.712l-3.404.912.851 6.45a.763.763 0 0 1-.463.805 24.316 24.316 0 0 0-5.425 3.136.765.765 0 0 1-.93-.001l-5.163-3.964-2.491 2.491 3.964 5.161c.21.274.21.655 0 .93A24.364 24.364 0 0 0 9.84 26.06a.763.763 0 0 1-.804.463l-6.449-.851-.912 3.403 6.017 2.489a.767.767 0 0 1 .466.804 24.743 24.743 0 0 0 0 6.266.76.76 0 0 1-.467.802l-6.016 2.49.912 3.404 6.451-.852a.763.763 0 0 1 .806.464 24.304 24.304 0 0 0 3.134 5.425.764.764 0 0 1-.002.93l-3.963 5.163 2.491 2.491 5.161-3.964a.765.765 0 0 1 .93 0 24.334 24.334 0 0 0 5.427 3.135.766.766 0 0 1 .463.805l-.85 6.45 3.403.912 2.488-6.016a.767.767 0 0 1 .804-.467 24.72 24.72 0 0 0 6.266 0 .766.766 0 0 1 .804.467l2.488 6.016 3.405-.912-.852-6.45a.765.765 0 0 1 .462-.805 24.33 24.33 0 0 0 5.428-3.135.764.764 0 0 1 .93 0l5.16 3.964 2.493-2.491-3.964-5.163a.763.763 0 0 1-.002-.93 24.344 24.344 0 0 0 3.136-5.425.761.761 0 0 1 .805-.464l6.45.852.912-3.404-6.016-2.49a.76.76 0 0 1-.467-.802 24.71 24.71 0 0 0 0-6.266.767.767 0 0 1 .467-.804l6.016-2.489-.912-3.403-2.245.296c-.42.056.056.067 0-.352s-.014-1.063.405-1.119l2.305-.428c.38-.051.738.19.839.558l1.26 4.7a.766.766 0 0 1-.449.904l-6.102 2.525a26.135 26.135 0 0 1 0 5.49l6.102 2.524a.765.765 0 0 1 .448.905l-1.26 4.698a.766.766 0 0 1-.839.56l-6.54-.864a25.999 25.999 0 0 1-2.749 4.757l4.02 5.234a.765.765 0 0 1-.066 1.006l-3.44 3.44a.766.766 0 0 1-1.006.066l-5.233-4.02a25.932 25.932 0 0 1-4.757 2.75l.863 6.54c.051.38-.19.738-.56.839l-4.698 1.257a.766.766 0 0 1-.197.027Z" stroke="#00AEEF" stroke-width=".4" mask="url(#b)"/><path d="M18.336 49.627a19.853 19.853 0 0 1-5.85-14.127 19.849 19.849 0 0 1 5.85-14.126c7.79-7.79 20.464-7.79 28.253 0 .68.68 1.318 1.419 1.897 2.193.076.102.102.21.051.307-.044.085-.133.132-.205.16a1.07 1.07 0 0 1-.277.06 3.273 3.273 0 0 1-.299.373.953.953 0 0 1-.304.226.322.322 0 0 1-.184.02.279.279 0 0 1-.168-.11 18.495 18.495 0 0 0-1.734-2.007c-7.115-7.116-18.693-7.115-25.808 0m-1.222 27.03 1.151-1.15c-7.154-7.155-7.154-18.796 0-25.95l.071.07m-1.222 27.03a19.926 19.926 0 0 0 14.127 5.84c5.115 0 10.232-1.946 14.126-5.84a19.872 19.872 0 0 0 5.528-10.537l-.099-.018M18.336 49.627l.07-.07a19.826 19.826 0 0 0 14.057 5.81c5.09 0 10.18-1.937 14.055-5.81a19.773 19.773 0 0 0 5.5-10.486m-32.46-16.475c-7.115 7.115-7.115 18.693 0 25.808 7.116 7.114 18.693 7.114 25.808 0 5.332-5.332 6.84-13.246 3.845-20.163a.308.308 0 0 1-.033-.158.138.138 0 0 1 .128-.121.358.358 0 0 1 .13.017c.042.011.09.028.138.045l.009.003c.097.035.202.072.305.092.107.02.198.02.268-.01m-30.598-5.513 30.598 5.513m1.862 10.962.099.018c.71-3.91.37-7.397-1.027-10.63-.089-.206-.208-.351-.377-.412-.166-.06-.354-.026-.557.062m1.862 10.962L50.156 28.11m0 0 .04.092-.04-.092Z" fill="#00AEEF" stroke="#00AEEF" stroke-width=".2"/><path d="M44.846 45.25H20.082a.663.663 0 0 1-.663-.664V26.415a.663.663 0 1 1 1.327 0v17.507H44.845a.664.664 0 0 1 0 1.328Z" fill="#00AEEF" stroke="#00AEEF" stroke-width=".2"/><path d="M36.834 36.377c0-.477.387-.864.864-.864h3.488c.48 0 .864.388.864.864v7.207a.864.864 0 0 1-.864.864l-4.352-8.07Zm0 0c0 .478.387.864.864.864h2.624v6.343c0 .478.387.864.864.864l-4.352-8.07Z" fill="#00AEEF" stroke="#00AEEF" stroke-width=".2"/><path d="M33.345 32.917c.001-.477.387-.864.864-.864h3.489c.477 0 .864.387.864.864v10.666a.865.865 0 0 1-.864.864l-4.353-11.53Zm0 0c0 .477.387.864.865.864h2.623v9.802c0 .477.388.864.865.864l-4.353-11.53Z" fill="#00AEEF" stroke="#00AEEF" stroke-width=".2"/><path d="M30.717 44.451a.865.865 0 0 1-.864-.864V29.174h.098l.766 15.277Zm0 0a.865.865 0 0 0 .865-.864v-13.55h1.762l-.001 13.55c0 .477.387.864.864.864h-3.49Zm3.49 0a.865.865 0 0 0 .865-.864V29.174a.863.863 0 0 0-.865-.864h-3.49l3.49 16.14ZM24.605 37.242v6.342a.865.865 0 0 1-.864.864l.864-7.206Zm0 0h2.624a.864.864 0 0 0 .864-.865m-3.488.864 3.488-.864m0 0a.864.864 0 0 0-.864-.864h-3.488a.864.864 0 0 0-.864.864v7.207m5.216-7.207-5.216 7.207m0 0c0 .478.387.864.864.864l-.864-.864Z" fill="#00AEEF" stroke="#00AEEF" stroke-width=".2"/><path d="M28.098 33.78v9.803a.865.865 0 0 1-.865.864l.864-10.666Zm0 0h2.623a.864.864 0 0 0 .864-.863l-3.488.864Zm-1.73 9.803c0 .477.388.864.865.864V32.053a.864.864 0 0 0-.864.864v10.666ZM40.913 31.905l.066-.066 8.094-8.093.07-.07.071.07 3.97 3.971c.259.259.68.26.94 0l9.518-9.51a.664.664 0 0 0 0-.94l-1.675-1.677-.144-.144.202-.026 6.315-.811.128-.017-.017.128-.811 6.314-.026.202-.144-.144-1.678-1.676a.662.662 0 0 0-.94 0L53.725 30.535l-.07.07-.072-.07-3.97-3.97-8.7 5.34Zm0 0 .061.07m-.061-.07.061.07m0 0 .998 1.139.07.08m-1.068-1.219 1.069 1.219m0 0 .075-.076m-.076.076.076-.076m0 0 6.554-6.554m-6.554 6.554 6.554-6.554m0 0a.666.666 0 0 1 .94 0h-.94ZM59.928 15.43a.663.663 0 0 1 .385-1.127l8.839-1.139a.663.663 0 0 1 .742.745l-1.136 8.838a.665.665 0 0 1-1.13.385l-2.236-2.237-.07-.07-.072.07-11.127 11.119a.664.664 0 0 1-.94 0l-3.969-3.97-.07-.072-.071.071-6.591 6.59v.001a.672.672 0 0 1-.471.196H41.987a.676.676 0 0 1-.477-.226l-2.008-2.29a.665.665 0 0 1 .03-.907l9.14-9.141a.663.663 0 0 1 .47-.194c.176 0 .344.07.469.194l3.97 3.972.071.07.07-.07 8.44-8.431.07-.071-.07-.07-2.235-2.236Z" fill="#00AEEF" stroke="#00AEEF" stroke-width=".2"/></g><defs><clipPath id="a"><path fill="#fff" transform="translate(0 .5)" d="M0 0h70v70H0z"/></clipPath></defs></svg>