<svg width="525" height="520" fill="none" xmlns="http://www.w3.org/2000/svg"><path d="M172.534 166.916c48.158-48.609 34.362-79.07 67.311-101.59 50.75-34.617 145.424-4.822 201.281 42.835 68.412 58.31 103.708 164.833 63.511 261.198-42.834 102.613-155.493 155.9-256.025 139.845-89.774-14.335-178.023-85.262-186.868-170.324-.957-9.223-5.19-59.06 24.477-102.034 24.565-35.513 48.096-31.396 86.313-69.93Z" fill="#CCEDFB"/><path d="M329.63 380.531c78.942-51.206 101.143-157.147 49.589-236.624-51.554-79.478-157.342-102.396-236.283-51.19-78.941 51.207-101.143 157.147-49.589 236.625 51.554 79.477 157.342 102.395 236.283 51.189Z" fill="#fff"/><path d="M123.82 123.402c-.027 1.252 3.611 3.037 7.082.784 3.471-2.253 4.834-3.96 8.734-1.112 3.899 2.848 10.196 16.978 15.242 20.327 5.045 3.348 10.414 4.005 11.315-.306.901-4.312-3.894-11.126-1.875-14.926 2.019-3.799 9.09-18.307 5.891-24.51-3.198-6.202-10.085-7.943-20.972-2.542-10.886 5.402-25.233 13.062-25.417 22.285Z" fill="#CCEDFB"/><path d="M161.227 282.74a4.83 4.83 0 0 0 .106 5.296c3.399 4.739 9.24 18.246 7.443 24.938-2.286 8.517 5.524 16.132 7.788 19.787 4.573 7.426 7.471 10.175 18.469 7.999 10.998-2.175 14.552-4.188 19.731 2.387 5.179 6.575 23.709 32.921 30.835 38.233 7.126 5.313 19.988 13.107 24.605 13.841 4.617.734 12.349-2.225 1.719-9.396-10.631-7.17-16.244-10.158-14.981-18.836 1.263-8.678 1.035-26.746-1.53-32.12-2.564-5.373-1.541-10.174.668-12.433 2.208-2.258 6.575-7.576 7.059-10.374.484-2.798-5.963-5.652-9.768-9.39-3.805-3.739-5.508-6.364.317-15.104 5.824-8.739-4.49-16.132-17.19-11.615-12.7 4.517-23.08 3.382-25.377-2.987-2.298-6.37-10.653-.128-17.529.606-6.876.734-9.396-3.482-16.427-1.708-9.518 2.398-13.968 7.51-15.938 10.876ZM337.841 167.311c-4.829-2.097-8.305-8.127-7.382-20.06.723-9.373-10.213-11.181-14.942-11.526a.957.957 0 0 1-.836-.674.958.958 0 0 1 .308-1.028c3.638-2.993 13.606-7.571 30.846 10.23 22.296 23.024 18.457 12.438 19.208 7.593.751-4.845-8.094-7.232-6.809-16.51.812-5.836-1.112-12.35-3.132-17.34a171.635 171.635 0 0 0-138.103-45.204c3.037 4.556 12.316 21.278-10.57 26.758 0 0-15.164 1.986 2.109 22.607 17.272 20.622 11.198-9.457 12.427-11.548 1.23-2.092 5.313-6.498 12.934 9.918 0 0 3.076 5.418-6.965 10.625s-8.901 10.998-7.298 13.451c1.602 2.453 6.675 8.306 4.489 16.266-2.186 7.961 7.092 18.942 11.515 10.408 4.422-8.533 1.113-24.282 6.742-29.655 5.63-5.374 16.767-.852 21.473-6.954 4.706-6.102-4.812-14.758-1.764-16.733 3.049-1.975 13.429 0 15.498 5.201 2.07 5.201-5.98 13.473.039 17.417 6.019 3.945 10.014-1.262 13.908 1.43 3.894 2.693-2.448 12.906-12.751 13.062-10.302.156-7.142 7.688-12.794 6.987-5.652-.701-10.136-6.937-13.907-1.43-3.772 5.507-4.05 11.782-8.762 19.197-4.711 7.416-7.615 14.965-4.828 19.265 2.787 4.3 8.21 7.315 11.37 14.858 3.16 7.543 12.973 27.33 32.526 9.418 19.554-17.912 24.176-4.784 24.972-3.56.795 1.224 10.842 17.384 14.764 18.758 3.922 1.374 13.957 6.191 13.729 21.172-.228 14.981 17.629 36.52 22.04 29.3 4.411-7.221 3.048-23.364 6.987-34.613 3.938-11.248-2.398-45.092-12.344-50.41-9.946-5.318-3.338-19.187-5.413-25.695-2.075-6.509-4.461-8.878-9.284-10.981ZM68.512 202.173c3.443 5.006 7.415 12.16 7.515 19.503.3 22.151 5.724 29.806 14.97 46.172 9.245 16.366 49.025 29.945 56.346 29.333 7.321-.612 3.66-8.083.072-13.618s-10.219-10.664-17.567-15.02c-7.349-4.356-10.013-8.416-10.742-11.682-.729-3.265 2.525-6.603 6.781-5.635s11.905-.695 13.796-4.25c2.32-4.367-4.206-11.332-4.628-14.786-.423-3.455 5.468-9.752 4.756-17.156-.712-7.404 2.559-12.834 6.609-19.186 4.049-6.353 8.427-10.803 8.249-13.145-.178-2.342-4.094-5.619-5.524-11.315-1.429-5.697-1.184-13.718-4.289-15.02-3.104-1.302-10.358-1.969-15.52 9.657-5.162 11.627-7.404 13.078-12.795 10.364-5.39-2.715-7.326-17.607 3.856-24.838 11.181-7.232 11.125-12.2 9.762-15.02-1.363-2.82-6.781-3.46-10.992-1.558-4.211 1.903-3.527 4.339-15.721 20.505-8.132 10.803-19.47 15.048-25.183 17.289a184.832 184.832 0 0 0-9.751 29.406ZM389.302 174.191c-2.475.918 1.452 5.925-.801 8.756-2.253 2.832-2.509 5.062 1.669 9.908 4.178 4.845 7.51 12.633 6.358 17.161-1.151 4.528-3.983 9.101 0 15.776 3.983 6.676 2.07 16.856-.122 21.362-2.192 4.506-5.513 11.47-1.908 17.028 2.32 3.577 5.196 8.211 8.3 11.192a171.612 171.612 0 0 0-5.524-94.897c-2.904-3.187-6.559-6.809-7.972-6.286ZM241.235 422.963a.837.837 0 0 1-.848-.821.837.837 0 0 1 .82-.848 189.028 189.028 0 0 0 45.16-7.176.833.833 0 0 1 1.032.575.84.84 0 0 1-.576 1.032 191.123 191.123 0 0 1-45.554 7.232l-.034.006ZM315.729 404.784a.835.835 0 0 1-.356-1.586 192.802 192.802 0 0 0 22.252-12.422 188.929 188.929 0 0 0 53.959-52.808.844.844 0 0 1 .536-.385.832.832 0 0 1 1.003.679.832.832 0 0 1-.159.641 190.645 190.645 0 0 1-54.427 53.275 194.918 194.918 0 0 1-22.435 12.528.813.813 0 0 1-.373.078Z" fill="#007BB3"/><path d="M237.573 408.66c-2.559 0-5.122-.055-7.688-.167a.828.828 0 0 1-.579-.27.831.831 0 0 1 .051-1.18.834.834 0 0 1 .6-.218 168.717 168.717 0 0 0 155.977-88.583.835.835 0 0 1 1.538.153.838.838 0 0 1-.063.636 170.435 170.435 0 0 1-149.836 89.629ZM101.772 342.045a.835.835 0 0 1-.662-.322 178.716 178.716 0 0 1-8.461-11.933c-25.055-38.611-33.666-84.627-24.254-129.536 9.412-44.909 35.719-83.354 74.103-108.226a170.45 170.45 0 0 1 143.583-19.726.835.835 0 0 1-.495 1.596 168.795 168.795 0 0 0-142.193 19.515C64.957 144.286 42.828 249.92 94.051 328.884a168.965 168.965 0 0 0 8.394 11.804.844.844 0 0 1-.15 1.174.829.829 0 0 1-.523.183Z" fill="#007BB3"/><path d="M161.966 384.879s-16.861-42.383-6.926-51.328c.518-.468 7.232-1.152 14.108 5.134 6.486 5.941 13.173 18.858 13.173 18.858l2.225 29.261-22.58-1.925Z" fill="#00AEEF"/><path d="M230.345 302.12a196.913 196.913 0 0 1-2.159-6.675c4.64 1.669 9.429 1.747 12.183.067 3.393-2.07 3.855-5.863 5.051-10.436.501-1.908.935-4.128 2.809-6.119a10.198 10.198 0 0 1 3.243-2.292 2.968 2.968 0 0 0 1.575-3.588l-.406-.868a56.194 56.194 0 0 1-5.43-21.083l-.829-14.436c-8.027-2.781-10.875-2.103-11.893-.807-.373.479-.946.813-.812 3.032.623 10.725-9.073 10.069-17.245 8.467-8.172-1.602-4.639 13.24-4.639 13.24s-5.313-6.242-10.626-.362c-3.805 4.211 4.273 10.447 9.151 13.646l-1.757 31.152a21.51 21.51 0 0 1-13.146 18.607l-11.442 4.807s47.167 1.335 79.877-17.306h-20.833a13.398 13.398 0 0 1-12.672-9.046Z" fill="#fff"/><path d="M410.47 102.208a.817.817 0 0 1-.501-.172c-36.715-27.965-80.289-43.73-122.756-44.397a.836.836 0 0 1-.59-1.425.836.836 0 0 1 .59-.244 197.422 197.422 0 0 1 64.307 12.06 224.377 224.377 0 0 1 59.456 32.682.835.835 0 0 1 .161 1.168.845.845 0 0 1-.667.328Z" fill="#353535"/><path d="M396.523 110.146a.824.824 0 0 1-.517-.183c-26.146-20.716-56.185-34.49-86.876-39.769a.846.846 0 0 1 .284-1.669c30.991 5.352 61.292 19.22 87.626 40.108a.842.842 0 0 1 .139 1.174.84.84 0 0 1-.656.339ZM91.161 397.062a5.56 5.56 0 0 1-5.107-3.399 5.711 5.711 0 0 1 2.854-7.465 5.463 5.463 0 0 1 4.24-.111 5.56 5.56 0 0 1 3.114 3.02 5.72 5.72 0 0 1-2.853 7.471 5.461 5.461 0 0 1-2.248.484Zm0-9.679a3.747 3.747 0 0 0-1.563.339 4.046 4.046 0 0 0-2.008 5.285 3.94 3.94 0 0 0 2.186 2.125 3.803 3.803 0 0 0 2.954-.078 4.043 4.043 0 0 0 2.008-5.285 3.892 3.892 0 0 0-3.582-2.386h.005ZM437.01 139.986a.834.834 0 0 1-.834-.835v-4.317c0-.221.088-.433.244-.59a.837.837 0 0 1 1.18 0 .834.834 0 0 1 .245.59v4.317a.83.83 0 0 1-.245.59.83.83 0 0 1-.59.245ZM437.01 150.038a.834.834 0 0 1-.834-.835v-4.316a.834.834 0 1 1 1.669 0v4.316a.83.83 0 0 1-.245.59.83.83 0 0 1-.59.245ZM434.14 142.85h-4.306a.833.833 0 1 1 0-1.668h4.317a.834.834 0 1 1 0 1.668h-.011ZM444.193 142.85h-4.312a.833.833 0 1 1 0-1.668h4.312c.221 0 .433.088.59.244a.837.837 0 0 1 0 1.18.833.833 0 0 1-.59.244ZM108.831 411.019a.835.835 0 0 1-.835-.835v-4.316a.834.834 0 1 1 1.669 0v4.316a.834.834 0 0 1-.834.835ZM108.831 421.071a.836.836 0 0 1-.823-.834v-4.317a.836.836 0 0 1 1.669 0v4.317a.83.83 0 0 1-.523.774.83.83 0 0 1-.323.06ZM105.964 413.89h-4.317a.832.832 0 0 1-.835-.835.834.834 0 0 1 .835-.834h4.317c.221 0 .433.088.59.244a.837.837 0 0 1 0 1.18.834.834 0 0 1-.59.245ZM116.018 413.89h-4.316a.832.832 0 1 1 0-1.669h4.316a.834.834 0 1 1 0 1.669ZM377.245 353.101c10.423 0 17.204-10.896 12.543-20.157a806.675 806.675 0 0 0-3.233-6.336c-8.006-15.517-30.924-12.129-33.781 5.073-.048.303-.685.606-.727.915-1.482 10.855 7.245 20.505 18.299 20.505h6.899Z" fill="#353535"/><path d="M328.634 308.36a.92.92 0 0 1-.431-.104.877.877 0 0 1-.325-.291l-15.239-23.076a.831.831 0 0 1 .024-.954.887.887 0 0 1 .579-.352.932.932 0 0 1 .668.144.881.881 0 0 1 .241.242l15.233 23.099a.83.83 0 0 1-.295 1.197.913.913 0 0 1-.455.117v-.022ZM335.358 308.359a.913.913 0 0 1-.632-.251.839.839 0 0 1-.261-.606v-23.099c0-.227.094-.445.261-.606a.918.918 0 0 1 1.263 0 .84.84 0 0 1 .262.606v23.099a.824.824 0 0 1-.262.606.923.923 0 0 1-.631.251ZM324.603 317.53a.906.906 0 0 1-.595-.206l-22.406-18.334a.853.853 0 0 1-.31-.585.832.832 0 0 1 .211-.624.91.91 0 0 1 .61-.297.924.924 0 0 1 .649.203l22.401 18.334a.854.854 0 0 1 .284.439.822.822 0 0 1-.03.516.863.863 0 0 1-.333.406.932.932 0 0 1-.517.148h.036ZM97.408 503.235l-10.31-31.886s-9.054-1.063-12.233-1.383c-55.682-5.673-27.74-112.552 18.602-137.565 28.466-15.351 62.546-17.437 95.732-16.071 23.353.954 46.021.285 67.063 12.369 29.889 17.14 55.51 46.741 71.356 92.11l14.388 82.426H97.408Z" fill="#fff"/><path d="M342.008 504.087H97.41a.91.91 0 0 1-.523-.153.845.845 0 0 1-.328-.419l-10.12-31.354c-2.041-.24-8.97-1.046-11.643-1.314-16.073-1.64-26.532-11.616-30.234-28.853-3.62-16.877-.19-39.993 9.173-61.806 9.68-22.573 24.013-40.25 39.288-48.5 30.746-16.569 67.569-17.363 96.214-16.186 2.601.108 5.197.194 7.78.28 20.984.697 40.806 1.359 59.7 12.209 32.704 18.785 56.849 49.929 71.748 92.556a.717.717 0 0 1 0 .131l14.388 82.426a.818.818 0 0 1-.199.694.883.883 0 0 1-.306.223.914.914 0 0 1-.376.077l.036-.011Zm-243.943-1.714h242.871l-14.161-81.358c-14.781-42.21-38.651-73.022-70.969-91.561-18.495-10.621-38.097-11.273-58.848-11.964a1089.92 1089.92 0 0 1-7.792-.28c-28.407-1.143-64.885-.406-95.244 15.963-30.877 16.654-55.36 72.405-47.622 108.467 2.482 11.438 9.423 25.504 28.674 27.47 3.15.32 12.156 1.377 12.251 1.388a.921.921 0 0 1 .457.183c.132.101.231.236.287.388l10.096 31.304ZM165.413 268.189c-6.727 3.257-11.793 3.725-15.477 3.52-13.204-.726-21.674-10.941-23.371-12.987-8.75-10.558-12.971-27.898-5.548-38.079 5.358-7.336 12.066-4.571 18.216-12.769 6.982-9.307-.173-16.9 6.268-25.047 7.417-9.382 23.763-8.667 26.698-8.536 10.119.44 11.31 5.245 20.834 4.993 9.733-.251 11.019-4.942 19.954-4.993 7.096-.04 17.441 2.857 22.073 10.735 5.815 9.89-.131 22.911-7.037 29.789-8.286 8.25-14.125 3.823-25.733 10.547-20.108 11.644-15.299 32.395-36.877 42.827Z" fill="#353535"/><path d="m202.886 312.148-5.447-32.532c1.191-.126 11.233-1.805 12.376-2.354 9.292-4.439 6.709-26.818 6.709-26.818l5.167-5.925-15.406-33.086c-16.358 13.084-22.198.235-38.389 6.673-16.192 6.439-7.405 23.745-7.405 23.745s-13.233-5.599-10.406 6.685c2.137 9.278 9.179 9.861 13.816 9.484l-8.631 55.779s-27.781 7.576-33.157 8.941c6.995-.32 55.331 19.86 110.161-2.194l-29.388-8.398Z" fill="#fff"/><path d="M177.983 331.739c-20.954 0-37.979-4.131-47.694-6.49-4.018-.977-6.929-1.686-8.137-1.623a.934.934 0 0 1-.604-.196.867.867 0 0 1-.319-.529.828.828 0 0 1 .136-.601.894.894 0 0 1 .519-.359c4.881-1.24 28.633-7.713 32.579-8.787l8.388-54.185c-7.435.262-12.019-3.171-13.644-10.216-.863-3.759-.375-6.393 1.459-7.838 2.268-1.783 5.952-1.143 8.226-.492-1.119-2.948-2.809-8.97-.595-14.494 1.518-3.851 4.643-6.742 9.286-8.57 7.215-2.857 12.59-2.006 17.335-1.246 6.351 1.017 11.834 1.897 20.834-5.296a.915.915 0 0 1 .774-.171c.134.03.259.09.365.174a.869.869 0 0 1 .248.311l15.406 33.086a.833.833 0 0 1-.131.903l-4.923 5.639c.309 3.068 1.935 22.933-7.239 27.315-1.149.571-8.929 1.88-11.75 2.285l5.214 31.143 28.811 8.239c.177.05.333.15.447.288a.828.828 0 0 1 .055.986.886.886 0 0 1-.412.337c-17.306 6.93-35.883 10.462-54.634 10.387Zm-51.646-9.193c1.244.275 2.708.635 4.393 1.04 16.816 4.085 55.789 13.546 98.857-2.856l-26.96-7.713a.895.895 0 0 1-.416-.256.84.84 0 0 1-.209-.43l-5.447-32.583a.83.83 0 0 1 .167-.651.909.909 0 0 1 .595-.337c1.447-.155 11.144-1.829 12.084-2.286 8.626-4.125 6.245-25.744 6.215-25.961a.862.862 0 0 1 .202-.646l4.81-5.507-14.697-31.561c-9.102 6.925-15.055 5.965-21.353 4.959-4.72-.759-9.607-1.542-16.358 1.143-4.167 1.657-6.959 4.217-8.298 7.605-2.703 6.856 1.316 14.888 1.351 14.968a.828.828 0 0 1-.174.952.915.915 0 0 1-.987.191c-1.607-.68-6.232-2.068-8.333-.423-1.268 1-1.554 3.068-.846 6.142 1.5 6.508 5.703 9.393 12.87 8.816a.902.902 0 0 1 .725.266.848.848 0 0 1 .234.711l-8.632 55.779a.845.845 0 0 1-.207.43.892.892 0 0 1-.412.261c-.238.086-19.823 5.428-29.174 7.919v.028Z" fill="#353535"/><path d="M193.762 280.719a24.97 24.97 0 0 1-11.379-2.712c-3.503-1.788-6.493-4.377-8.705-7.538a.826.826 0 0 1-.094-.65.861.861 0 0 1 .412-.524.93.93 0 0 1 .678-.09.89.89 0 0 1 .545.396c.28.463 7.054 11.141 22.097 9.17a.923.923 0 0 1 .667.168.877.877 0 0 1 .348.572.834.834 0 0 1-.175.64.907.907 0 0 1-.596.334 29.574 29.574 0 0 1-3.798.234Z" fill="#353535"/><path d="M173.297 275.748a20.199 20.199 0 0 1-10.435-2.896c-3.124-1.891-5.627-4.59-7.221-7.788l-3.828-7.644a.828.828 0 0 1-.013-.637.866.866 0 0 1 .448-.47.923.923 0 0 1 .662-.043.884.884 0 0 1 .51.407l3.834 7.645c1.82 3.659 4.939 6.578 8.797 8.232a18.483 18.483 0 0 0 12.258.795l18.781-5.228a.924.924 0 0 1 .658.092.864.864 0 0 1 .41.504.823.823 0 0 1-.068.635.88.88 0 0 1-.506.414l-18.775 5.228a20.428 20.428 0 0 1-5.512.754Z" fill="#007BB3"/><path d="M149.174 242.697a.922.922 0 0 1-.479-.133.87.87 0 0 1-.331-.358c-.422-.869-10.268-21.443-3.922-37.491 2.595-6.571 7.583-11.427 14.81-14.432a.924.924 0 0 1 .977.168.869.869 0 0 1 .199.275.82.82 0 0 1 .013.656.886.886 0 0 1-.475.472c-6.774 2.817-11.435 7.347-13.858 13.472-6.077 15.375 3.774 35.948 3.876 36.154a.823.823 0 0 1 .03.658.844.844 0 0 1-.182.287.876.876 0 0 1-.658.272Z" fill="#CCEDFB"/><path d="M204.45 268.892a4.825 4.825 0 0 0-.46-2.879 5.088 5.088 0 0 0-2.054-2.144 5.388 5.388 0 0 0-2.951-.681 5.34 5.34 0 0 0-2.845 1.012 5.013 5.013 0 0 0-1.775 2.363 4.808 4.808 0 0 0-.101 2.911 4.973 4.973 0 0 0 1.607 2.471 5.3 5.3 0 0 0 2.769 1.192 5.329 5.329 0 0 0 3.82-.968 4.926 4.926 0 0 0 1.99-3.277ZM166.823 249.375c.994-7.547-4.042-14.374-11.25-15.248a45.55 45.55 0 0 0-4.495-.12c-6.256.405-9.477 5.479-10.363 12.198-.959 7.25 1.922 14.02 8.673 15.305.279.058 2.28.212 2.565.212 7.906.023 13.876-4.799 14.87-12.347Z" fill="#007BB3"/><path d="M163.709 249.138c.841-7.565-4.337-14.298-11.565-15.038-7.228-.74-13.769 4.793-14.61 12.357-.841 7.565 4.337 14.297 11.565 15.037 7.228.741 13.769-4.792 14.61-12.356Z" fill="#00AEEF"/><path d="M137.825 258.471a.24.24 0 0 1-.168-.067.223.223 0 0 1 0-.324.244.244 0 0 1 .168-.066c5.685-1.069 20.073-4.428 17.138-10.604-1.077-2.286-12.935-.657-17.769-.046-4.833.611-19.846 13.015-23.12 22.739-2.506 7.461-3.572 19.425-5.655 26.995 0 0-76.79 97.075-68.266 136.183 10.637 48.729 60.539 30.915 69.855 8.193 8.233-20.128 11.394-112.193 11.989-132.915 1-2.531 3.572-8.747 5.887-11.049 2.905-2.931 17.954-9.142 18.454-15.426.369-4.777-7.924-10.199-11.942-12.535a.727.727 0 0 1-.309-.349.694.694 0 0 1-.028-.458.717.717 0 0 1 .267-.381.764.764 0 0 1 .451-.149c3.344-.021 6.64.765 9.584 2.285 5.923 3.177 12.251 1.463 10.459-2.479-1.619-3.548-10.203-8.782-16.995-9.547Z" fill="#fff"/><path d="M72.635 465.151c-.964 0-1.917-.04-2.863-.115-8.977-.748-24.877-5.799-30.514-31.6-3.572-16.437 6.858-44.49 31.038-83.374 17.262-27.733 35.716-51.346 37.282-53.368.875-3.263 1.565-7.279 2.297-11.53.935-5.456 1.905-11.101 3.334-15.346 3.399-10.112 18.864-22.693 23.847-23.327l.595-.075c10.631-1.359 16.995-1.714 18.096.617.323.623.486 1.311.477 2.006a4.24 4.24 0 0 1-.53 1.994c-1.941 3.616-9.078 5.902-14.656 7.176 6.482 1.714 13.096 6.221 14.578 9.444.354.651.473 1.397.34 2.12a3.301 3.301 0 0 1-1.078 1.879c-2.208 1.92-6.929 1.714-10.977-.44a19.536 19.536 0 0 0-8.625-2.188c4.821 2.857 12.31 8.113 11.905 13.072-.375 4.788-7.637 9.09-13.477 12.569-2.381 1.4-4.393 2.606-5.214 3.428-2.185 2.2-4.804 8.525-5.644 10.627-.559 19.008-3.726 112.729-12.06 133.063-2.631 6.422-8.512 12.644-16.132 17.083-6.982 4.096-14.715 6.285-22.019 6.285Zm77.255-218.06c-.596 0-1.191 0-1.953.051-3.476.16-7.423.663-10.03.994l-.596.08c-4.53.571-19.227 12.746-22.388 22.151-1.387 4.125-2.345 9.712-3.268 15.1-.75 4.359-1.458 8.478-2.381 11.849l-.042.166-.107.137c-.774.983-76.469 97.206-68.081 135.486 3.994 18.282 14.287 29.035 28.906 30.223 15.555 1.257 33.889-9.101 39.247-22.168 8.214-20.122 11.363-113.992 11.911-132.628v-.143l.054-.132c1.274-3.239 3.756-9.015 6.072-11.341.982-.982 2.976-2.182 5.565-3.702 5.203-3.085 12.334-7.307 12.638-11.221.232-3.022-4.072-7.427-11.519-11.735a1.6 1.6 0 0 1-.683-.767 1.525 1.525 0 0 1-.058-1.008c.096-.333.303-.626.59-.835.287-.209.637-.322.997-.321 3.497-.019 6.944.81 10.018 2.411 3.697 1.983 7.501 1.891 8.929.663.596-.514.691-1.188.298-2.051-1.476-3.245-9.786-8.302-16.269-9.027a1.154 1.154 0 0 1-.711-.336 1.057 1.057 0 0 1-.059-1.423c.171-.204.412-.343.681-.389 8.899-1.674 15.06-4.257 16.483-6.914a2.602 2.602 0 0 0 0-2.491s-.381-.679-4.244-.679Z" fill="#353535"/><path d="M82.597 472.36a51.431 51.431 0 0 1-5.31-.234.902.902 0 0 1-.6-.322.85.85 0 0 1-.189-.635.841.841 0 0 1 .108-.32.883.883 0 0 1 .54-.41.937.937 0 0 1 .35-.027 69.7 69.7 0 0 0 25.673-2.857c17.525-5.587 27.978-17.791 31.169-36.273a.863.863 0 0 1 .362-.566.933.933 0 0 1 1.263.194.84.84 0 0 1 .161.646c-4.084 23.899-19.888 33.663-32.425 37.645a70.9 70.9 0 0 1-21.102 3.159Z" fill="#00AEEF"/><path d="M366.466 408.817H263.002a4.51 4.51 0 0 1-2.213-.575 4.302 4.302 0 0 1-1.606-1.571 4.069 4.069 0 0 1-.557-2.135 4.072 4.072 0 0 1 .644-2.112l64.111-100.628a7.388 7.388 0 0 1 2.745-2.519 7.767 7.767 0 0 1 3.678-.909h102.601a5.03 5.03 0 0 1 2.464.633 4.759 4.759 0 0 1 1.79 1.744 4.513 4.513 0 0 1-.087 4.724l-63.683 99.892a7.397 7.397 0 0 1-2.74 2.534 7.77 7.77 0 0 1-3.683.922Z" fill="#fff"/><path d="M366.468 409.674H263.003a5.44 5.44 0 0 1-2.663-.693 5.161 5.161 0 0 1-1.933-1.891 4.895 4.895 0 0 1-.672-2.569 4.908 4.908 0 0 1 .774-2.543l64.099-100.628a8.312 8.312 0 0 1 3.07-2.846 8.738 8.738 0 0 1 4.127-1.045h102.601c1.023 0 2.026.262 2.909.758a5.635 5.635 0 0 1 2.11 2.064c.5.856.754 1.824.735 2.805a5.36 5.36 0 0 1-.843 2.777l-63.694 99.926a8.33 8.33 0 0 1-3.054 2.831 8.762 8.762 0 0 1-4.101 1.054Zm-36.663-110.501a6.89 6.89 0 0 0-3.243.817 6.56 6.56 0 0 0-2.418 2.228L260.033 402.87a3.246 3.246 0 0 0-.514 1.683 3.244 3.244 0 0 0 .445 1.701c.304.518.746.95 1.281 1.25a3.59 3.59 0 0 0 1.764.456h103.459a6.89 6.89 0 0 0 3.243-.817 6.56 6.56 0 0 0 2.418-2.228l63.664-99.926a3.684 3.684 0 0 0 .096-3.868 3.896 3.896 0 0 0-1.464-1.43 4.09 4.09 0 0 0-2.019-.518H329.805Z" fill="#353535"/><path d="M390.814 344.656h-72.689l4.244-6.673h72.683l-4.238 6.673ZM399.111 331.595h-72.689l12.965-20.396h72.683l-12.959 20.396Z" fill="#00AEEF"/><path d="M364.234 492.853H250.305l84.463-124.705a14.316 14.316 0 0 1 5.26-4.624 14.996 14.996 0 0 1 6.919-1.66h92.458c5.875 0 9.441 6.033 6.304 10.661l-81.475 120.328Z" fill="#353535"/><path d="M381.73 411.918c6.751-4.211 10.312-10.448 7.955-13.929-2.358-3.482-9.742-2.891-16.493 1.32-6.751 4.211-10.312 10.447-7.954 13.929 2.357 3.482 9.741 2.891 16.492-1.32Z" fill="#CCEDFB"/><path d="M151.418 491.928h213.227v.702c0 2.811-1.164 5.507-3.234 7.495-2.071 1.987-4.88 3.104-7.809 3.104H162.478c-2.928 0-5.737-1.117-7.808-3.104-2.071-1.988-3.234-4.684-3.234-7.495v-.702h-.018Z" fill="#353535"/><path d="M358.324 493.791h-97.857a.913.913 0 0 1-.631-.251.84.84 0 0 1-.262-.606c0-.228.094-.446.262-.606a.909.909 0 0 1 .631-.251h97.857c.237 0 .464.09.631.251.168.16.262.378.262.606a.84.84 0 0 1-.262.606.913.913 0 0 1-.631.251Z" fill="#fff"/><path d="M524.999 500.641H30.922v19.065h494.077v-19.065Z" fill="#00AEEF"/><path d="M390.409 515.902a.914.914 0 0 1-.632-.252.838.838 0 0 1-.261-.605v-9.742c0-.227.094-.445.261-.606a.918.918 0 0 1 1.263 0 .842.842 0 0 1 .261.606v9.742a.838.838 0 0 1-.261.605.913.913 0 0 1-.631.252Z" fill="#353535"/><path d="M37.08 335.737a.854.854 0 0 1-.215 0 .871.871 0 0 1-.553-.389.84.84 0 0 1-.102-.65c.125-.492 12.971-49.369 44.425-70.274a.91.91 0 0 1 .682-.17.892.892 0 0 1 .598.358.835.835 0 0 1 .142.663.843.843 0 0 1-.404.554c-30.9 20.517-43.586 68.766-43.71 69.263a.855.855 0 0 1-.317.464.913.913 0 0 1-.547.181Z" fill="#fff"/><path d="M51.073 319.168a.905.905 0 0 1-.345-.068.884.884 0 0 1-.493-.474.821.821 0 0 1 .017-.669c5.119-11.626 11.06-21.773 17.667-30.16a.917.917 0 0 1 1.23-.142.832.832 0 0 1 .192 1.176c-6.511 8.273-12.387 18.282-17.446 29.795a.862.862 0 0 1-.325.391.91.91 0 0 1-.497.151ZM252.366 281.872a7.65 7.65 0 0 1-3.415-.812 7.316 7.316 0 0 1-2.638-2.234 6.934 6.934 0 0 1-1.264-3.151 6.822 6.822 0 0 1 .394-3.355 6.723 6.723 0 0 1 1.487-2.274 7.058 7.058 0 0 1 2.293-1.537 7.433 7.433 0 0 1 2.795-.586 7.446 7.446 0 0 1 2.812.506c1.789.683 3.23 2.009 4.016 3.696a6.834 6.834 0 0 1 .193 5.337 6.728 6.728 0 0 1-1.487 2.273 7.043 7.043 0 0 1-2.293 1.537 7.43 7.43 0 0 1-2.893.6Zm-.262-12.243a5.612 5.612 0 0 0-2.173.434 5.275 5.275 0 0 0-1.714 1.154 5.05 5.05 0 0 0-1.113 1.703 5.184 5.184 0 0 0 .148 4.053 5.521 5.521 0 0 0 3.054 2.803 5.65 5.65 0 0 0 4.233-.058 5.275 5.275 0 0 0 1.714-1.154 5.035 5.035 0 0 0 1.113-1.702 5.179 5.179 0 0 0-.164-4.04 5.508 5.508 0 0 0-3.05-2.788 5.745 5.745 0 0 0-2.042-.405h-.006ZM231.459 288.826a5.177 5.177 0 0 1-1.869-.348 5 5 0 0 1-2.771-2.554 4.7 4.7 0 0 1-.122-3.685 4.63 4.63 0 0 1 1.023-1.567 4.875 4.875 0 0 1 1.578-1.061 5.125 5.125 0 0 1 3.863-.052 5 5 0 0 1 2.772 2.55 4.7 4.7 0 0 1 .127 3.683 4.668 4.668 0 0 1-1.028 1.569 4.895 4.895 0 0 1-1.579 1.065 5.234 5.234 0 0 1-1.994.4Zm-.167-7.901a3.255 3.255 0 0 0-1.274.257c-.378.157-.72.385-1.004.672a2.933 2.933 0 0 0-.651.996 3.05 3.05 0 0 0 .086 2.387c.353.754 1 1.345 1.801 1.647a3.304 3.304 0 0 0 2.483-.029 3.103 3.103 0 0 0 1.003-.676c.285-.288.506-.627.652-.998.181-.478.24-.992.171-1.496a3.092 3.092 0 0 0-.566-1.404 3.266 3.266 0 0 0-1.178-.995 3.41 3.41 0 0 0-1.523-.361Z" fill="#fff"/></svg>