<svg width="60" height="60" fill="none" xmlns="http://www.w3.org/2000/svg"><path d="M18.667 5H9.564A4.564 4.564 0 0 0 5 9.554v29.651a.729.729 0 0 0 1.459 0V9.554a3.105 3.105 0 0 1 3.105-3.099h9.103a3.105 3.105 0 0 1 3.105 3.099v39.892a3.105 3.105 0 0 1-3.105 3.099H9.564a3.105 3.105 0 0 1-3.105-3.099v-7.815a.729.729 0 0 0-1.459 0v7.815A4.564 4.564 0 0 0 9.564 54h9.103a4.564 4.564 0 0 0 4.564-4.554V9.554A4.564 4.564 0 0 0 18.667 5ZM49.675 7.596H24.73a.728.728 0 1 0 0 1.456h24.945a2.867 2.867 0 0 1 2.866 2.86v35.176a2.867 2.867 0 0 1-2.866 2.86H24.73a.728.728 0 1 0 0 1.456h24.945A4.326 4.326 0 0 0 54 47.087V11.912c0-2.38-1.94-4.316-4.325-4.316Z" fill="#03A9F4"/><path d="M47.661 12.378h-1.532a.729.729 0 1 0 0 1.456h1.532c.55 0 .996.446.996.994v4.852a.996.996 0 0 1-.996.994h-19.94a.996.996 0 0 1-.996-.994v-4.852c0-.548.447-.994.996-.994H43.7a.728.728 0 1 0 0-1.456H27.72a2.455 2.455 0 0 0-2.454 2.45v4.852c0 1.35 1.1 2.45 2.454 2.45h19.94a2.455 2.455 0 0 0 2.455-2.45v-4.852c0-1.35-1.101-2.45-2.455-2.45ZM30.718 24.41H27.6a2.334 2.334 0 0 0-2.334 2.328 2.334 2.334 0 0 0 2.334 2.329h3.118a2.334 2.334 0 0 0 2.334-2.329 2.334 2.334 0 0 0-2.334-2.329Zm0 3.201H27.6a.875.875 0 0 1-.875-.873c0-.482.393-.873.875-.873h3.118c.483 0 .875.392.875.873a.875.875 0 0 1-.875.873ZM39.25 24.41h-3.118a2.334 2.334 0 0 0-2.333 2.328 2.334 2.334 0 0 0 2.333 2.329h3.118a2.334 2.334 0 0 0 2.334-2.329 2.334 2.334 0 0 0-2.334-2.328Zm0 3.201h-3.118a.875.875 0 0 1-.875-.873c0-.482.393-.873.875-.873h3.118c.483 0 .875.391.875.873a.875.875 0 0 1-.875.873ZM47.782 24.41h-3.118a2.334 2.334 0 0 0-2.333 2.328 2.334 2.334 0 0 0 2.333 2.329h3.118a2.334 2.334 0 0 0 2.334-2.329 2.334 2.334 0 0 0-2.334-2.328Zm0 3.201h-3.118a.875.875 0 0 1-.875-.873c0-.482.393-.873.875-.873h3.118c.483 0 .875.391.875.873a.875.875 0 0 1-.875.873ZM30.718 30.376H27.6a2.334 2.334 0 0 0-2.334 2.33 2.334 2.334 0 0 0 2.334 2.328h3.118a2.334 2.334 0 0 0 2.334-2.329 2.334 2.334 0 0 0-2.334-2.329Zm0 3.202H27.6a.875.875 0 0 1-.875-.873c0-.481.393-.873.875-.873h3.118c.483 0 .875.392.875.873a.875.875 0 0 1-.875.873ZM39.25 30.376h-3.118a2.334 2.334 0 0 0-2.333 2.33 2.334 2.334 0 0 0 2.333 2.328h3.118a2.334 2.334 0 0 0 2.334-2.329 2.334 2.334 0 0 0-2.334-2.329Zm0 3.202h-3.118a.875.875 0 0 1-.875-.873c0-.481.393-.873.875-.873h3.118c.483 0 .875.392.875.873a.875.875 0 0 1-.875.873ZM47.782 30.376h-3.118a2.334 2.334 0 0 0-2.333 2.33 2.334 2.334 0 0 0 2.333 2.328h3.118a2.334 2.334 0 0 0 2.334-2.329 2.334 2.334 0 0 0-2.334-2.329Zm0 3.202h-3.118a.875.875 0 0 1-.875-.873c0-.481.393-.873.875-.873h3.118c.483 0 .875.392.875.873a.875.875 0 0 1-.875.873ZM30.718 36.343H27.6a2.334 2.334 0 0 0-2.334 2.33A2.334 2.334 0 0 0 27.6 41h3.118a2.334 2.334 0 0 0 2.334-2.329 2.334 2.334 0 0 0-2.334-2.329Zm0 3.202H27.6a.875.875 0 0 1-.875-.873c0-.481.393-.873.875-.873h3.118c.483 0 .875.392.875.873a.875.875 0 0 1-.875.873ZM39.25 36.343h-3.118a2.334 2.334 0 0 0-2.333 2.33A2.334 2.334 0 0 0 36.132 41h3.118a2.334 2.334 0 0 0 2.334-2.329 2.334 2.334 0 0 0-2.334-2.328Zm0 3.202h-3.118a.875.875 0 0 1-.875-.873c0-.481.393-.873.875-.873h3.118c.483 0 .875.392.875.873a.875.875 0 0 1-.875.873ZM47.782 36.343h-3.118a2.334 2.334 0 0 0-2.333 2.33A2.334 2.334 0 0 0 44.664 41h3.118a2.334 2.334 0 0 0 2.334-2.329 2.334 2.334 0 0 0-2.334-2.328Zm0 3.202h-3.118a.875.875 0 0 1-.875-.873c0-.481.393-.873.875-.873h3.118c.483 0 .875.392.875.873a.875.875 0 0 1-.875.873ZM30.718 42.31H27.6a2.334 2.334 0 0 0-2.334 2.33 2.334 2.334 0 0 0 2.334 2.328h3.118a2.334 2.334 0 0 0 2.334-2.329 2.334 2.334 0 0 0-2.334-2.329Zm0 3.202H27.6a.875.875 0 0 1-.875-.873c0-.481.393-.873.875-.873h3.118c.483 0 .875.392.875.873a.875.875 0 0 1-.875.873ZM39.25 42.31h-3.118a2.334 2.334 0 0 0-2.333 2.33 2.334 2.334 0 0 0 2.333 2.328h3.118a2.334 2.334 0 0 0 2.334-2.329 2.334 2.334 0 0 0-2.334-2.329Zm0 3.202h-3.118a.875.875 0 0 1-.875-.873c0-.481.393-.873.875-.873h3.118c.483 0 .875.392.875.873a.875.875 0 0 1-.875.873ZM47.782 42.31h-3.118a2.334 2.334 0 0 0-2.333 2.33 2.334 2.334 0 0 0 2.333 2.328h3.118a2.334 2.334 0 0 0 2.334-2.329 2.334 2.334 0 0 0-2.334-2.329Zm0 3.202h-3.118a.875.875 0 0 1-.875-.873c0-.481.393-.873.875-.873h3.118c.483 0 .875.392.875.873a.875.875 0 0 1-.875.873Z" fill="#03A9F4"/></svg>