<svg width="60" height="60" fill="none" xmlns="http://www.w3.org/2000/svg"><path d="M30 28.756a8.673 8.673 0 0 0 5.325-1.799.73.73 0 0 0 .282-.484.714.714 0 0 0-.15-.538.736.736 0 0 0-.494-.274.752.752 0 0 0-.546.15A7.193 7.193 0 0 1 30 27.304a7.273 7.273 0 0 1-3.993-1.19 7.095 7.095 0 0 1-2.648-3.173 6.96 6.96 0 0 1-.409-4.085 7.034 7.034 0 0 1 1.968-3.62 7.225 7.225 0 0 1 3.68-1.934 7.3 7.3 0 0 1 4.153.402 7.164 7.164 0 0 1 3.225 2.604 6.986 6.986 0 0 1 1.212 3.927c0 1.329-.115 2.107-.343 2.314-.2.182-.912.128-1.738.065l-.438-.032.054-.656a1.076 1.076 0 0 0-.249-.786 1.112 1.112 0 0 0-.736-.389 6.441 6.441 0 0 1-1.802-.466 1.121 1.121 0 0 0-1.165.179c-.097.083-.343.315-.737.687-.31.293-.697.657-.796.742a.728.728 0 0 0-.185.239 5.976 5.976 0 0 1-.963-.942.73.73 0 0 0 .143-.125c.085-.097.478-.499.794-.822.404-.412.656-.67.74-.766a1.078 1.078 0 0 0 .182-1.146 6.167 6.167 0 0 1-.474-1.772 1.083 1.083 0 0 0-.395-.724 1.119 1.119 0 0 0-.799-.245l-1.96.155c-.263.02-.51.132-.696.314a1.081 1.081 0 0 0-.323.683 7.334 7.334 0 0 0 .362 3.066c.337.985.88 1.89 1.594 2.658a7.574 7.574 0 0 0 2.552 1.794 7.684 7.684 0 0 0 3.073.624c.222 0 .445-.01.669-.028.231-.02.45-.11.627-.257.177-.149.302-.348.357-.57l.457.034c1.267.095 2.183.165 2.856-.448.682-.622.816-1.71.816-3.38a8.422 8.422 0 0 0-1.46-4.734 8.636 8.636 0 0 0-3.89-3.138 8.8 8.8 0 0 0-5.005-.485 8.71 8.71 0 0 0-4.437 2.332 8.48 8.48 0 0 0-2.37 4.363 8.391 8.391 0 0 0 .492 4.923 8.554 8.554 0 0 0 3.191 3.825A8.769 8.769 0 0 0 30 28.756Zm-2.701-8.838a6.035 6.035 0 0 1-.544-2.75l1.3-.104c.088.554.238 1.097.446 1.619-.142.148-.355.365-.538.552-.293.3-.515.527-.664.683Zm5.82 3.508a6.32 6.32 0 0 1-2.801-.537c.153-.14.404-.376.738-.691l.52-.49a7.922 7.922 0 0 0 1.648.44l-.105 1.278ZM50.42 34.578V9.255c0-.332-.135-.652-.374-.887A1.29 1.29 0 0 0 49.144 8H10.856a1.29 1.29 0 0 0-.902.368c-.239.235-.374.555-.374.887V34.58l-6.436 14.94a1.759 1.759 0 0 0 .158 1.682c.165.245.39.447.654.587.264.139.56.212.86.212h50.37c.299 0 .594-.073.858-.212.264-.14.489-.342.654-.587a1.766 1.766 0 0 0 .158-1.682l-6.436-14.94Zm-39.364-2.11h37.888v1.44H11.056v-1.44ZM48.944 9.453v21.565H11.056V9.451h37.888ZM55.467 50.4a.311.311 0 0 1-.282.149H4.815a.344.344 0 0 1-.282-.15.329.329 0 0 1-.03-.313l6.344-14.726.02.001h38.286l6.344 14.725a.303.303 0 0 1-.03.314Zm-17.944-7.087a.722.722 0 0 0-.249-.44.745.745 0 0 0-.48-.176H23.206a.745.745 0 0 0-.481.175.723.723 0 0 0-.25.441l-.713 4.607a.714.714 0 0 0 .17.582.736.736 0 0 0 .56.253h15.014a.748.748 0 0 0 .56-.253.723.723 0 0 0 .17-.582l-.714-4.606Zm-14.17 3.99.488-3.154H36.16l.489 3.154H23.352Z" fill="#03A9F4"/></svg>