<svg width="586" height="332" fill="none" xmlns="http://www.w3.org/2000/svg"><g clip-path="url(#a)"><path d="M126.945 230.745c-1.282.646-3.847.646-7.694 1.293-3.206.646-7.052.646-10.258.646-3.206 0-6.411 0-8.976-.646-2.564-.647-4.488-1.293-6.411-2.586-1.924-1.293-3.206-3.232-3.847-5.171-.641-2.585-1.282-5.17-1.282-9.048V98.891c1.282 0 3.846-.646 7.693-1.293 3.206-.646 7.053-.646 10.258-.646 3.206 0 6.412 0 8.976.647 2.565.646 4.488 1.292 6.412 2.585 1.923 1.293 3.205 3.232 3.847 5.171.641 2.585 1.282 5.17 1.282 9.048v116.342ZM183.367 230.745c-1.283.646-3.847.646-7.694 1.292-3.206.647-6.411.647-10.258.647-3.206 0-6.412 0-8.976-.647-2.565-.646-4.488-1.292-6.411-2.585-1.924-1.293-3.206-3.232-3.847-5.171-.641-2.585-1.283-5.171-1.283-9.049V111.818c0-3.232.642-5.171 2.565-7.11s3.847-3.232 7.053-3.878c5.129-1.94 10.258-3.232 16.669-3.878 6.411-.647 12.823-1.293 19.234-1.293 19.876 0 35.263 4.525 46.162 12.927 10.899 8.402 16.029 20.037 16.029 34.902 0 7.11-1.283 13.574-3.206 19.391-2.565 5.817-5.77 10.987-10.258 14.866-4.488 3.878-10.259 7.109-16.67 9.695-7.052 2.585-14.746 3.231-23.081 3.231h-15.387v40.074h-.641Zm11.54-70.452c6.412 0 10.9-1.292 14.105-4.524 3.206-2.585 5.129-7.11 5.129-12.927 0-5.817-1.923-9.695-5.129-12.927-3.205-3.231-8.335-4.524-14.746-4.524h-5.77c-1.282 0-3.206 0-4.488.646v34.256h10.899Z" fill="#007BB3"/><path d="M389.812 192.61c0 3.878 1.282 6.463 3.847 8.402 2.564 1.939 5.77 2.585 10.258 2.585 2.565 0 4.488 0 7.053-.646 2.564-.646 4.488-.646 6.411-1.293 1.282 1.939 2.564 3.232 3.206 5.817 1.282 1.939 1.282 4.525 1.282 7.11 0 5.817-1.923 10.342-6.411 14.22-4.488 3.878-11.541 5.17-22.44 5.17-13.464 0-23.081-3.231-30.775-9.048-7.052-5.817-10.899-16.159-10.899-29.732V98.244c1.923-.647 3.847-.647 7.052-1.293 3.206-.646 6.412-.646 9.617-.646 6.412 0 11.541 1.292 15.388 3.231 3.846 2.586 5.77 7.11 5.77 14.866v14.22h29.492c.641 1.939 1.924 3.878 2.565 6.463.641 2.586 1.282 5.171 1.282 8.403 0 5.17-1.282 9.048-3.206 11.634-2.564 2.585-5.129 3.231-9.617 3.231h-20.516v34.257h.641ZM489.828 233.976c-8.976 0-17.311-1.293-24.364-3.878-7.693-2.585-14.105-6.463-19.875-10.988-5.77-5.17-10.258-10.988-13.464-18.744-3.205-7.756-5.129-16.158-5.129-26.5 0-9.695 1.924-18.744 5.129-25.853 3.206-7.11 7.694-12.927 12.823-17.452 5.129-4.524 11.54-7.756 17.952-10.341 7.052-1.939 13.464-3.232 20.516-3.232 7.694 0 15.388 1.293 21.799 3.878 6.411 2.586 12.182 5.817 16.67 9.695 4.487 4.525 8.334 9.049 10.899 14.866 2.564 5.817 3.847 12.281 3.847 19.391 0 5.17-1.283 9.048-4.488 11.634-2.565 2.585-7.053 4.524-12.182 5.17l-55.779 8.403c1.924 5.171 5.129 9.049 10.258 10.988 5.129 2.585 10.9 3.878 17.311 3.878s12.182-.647 17.311-2.586c5.77-1.292 9.617-3.231 13.464-5.817 2.564 1.293 4.488 3.878 5.77 6.464 1.923 2.585 2.564 5.817 2.564 8.402 0 7.11-3.205 11.634-9.617 15.512-3.205 3.232-8.334 5.171-14.746 5.817-5.77.647-11.54 1.293-16.669 1.293Zm-6.412-89.195c-3.847 0-6.411.646-9.617 1.939-2.564 1.293-4.488 2.585-6.411 4.524-1.924 1.939-3.206 3.878-3.847 6.464-.641 2.585-1.282 4.524-1.282 7.11l38.468-6.464c-.641-3.232-1.923-5.817-5.129-9.049-2.565-2.585-6.412-4.524-12.182-4.524ZM585.999 230.098c-1.924 0-3.847.646-7.053 1.293-3.206.646-6.411.646-9.617.646-3.206 0-6.411 0-8.976-.646-2.565-.647-5.129-1.293-6.411-2.586-1.924-1.293-3.206-3.232-3.847-5.817-1.282-2.585-1.283-5.171-1.283-9.049V82.732c1.924 0 3.847-.646 7.053-1.293 3.206-.646 6.411-.646 9.617-.646 3.206 0 6.411 0 8.976.646 2.565.647 5.129 1.293 6.411 2.586 1.924 1.292 3.206 3.231 3.847 5.817 1.282 2.585 1.283 5.17 1.283 9.049v131.207Z" fill="#58595B"/><path d="M163.491 38.134c-10.258 0-18.593-8.402-18.593-18.744 0-10.341 8.335-18.744 18.593-18.744 10.259 0 18.593 8.403 18.593 18.744 0 9.695-8.334 18.744-18.593 18.744ZM159.644 318c-10.258 0-18.593-8.402-18.593-18.743 0-10.342 8.335-18.744 18.593-18.744s18.593 8.402 18.593 18.744c.641 10.341-7.694 18.743-18.593 18.743ZM92.965 56.878c-6.412 0-12.823-3.878-16.029-9.695-5.129-9.049-1.923-20.683 7.053-25.854 2.564-1.939 6.411-2.585 9.617-2.585 6.411 0 12.822 3.878 16.028 9.695 2.565 4.525 3.206 9.695 1.924 14.22-1.924 5.17-4.488 9.049-8.976 11.634-3.206 1.939-6.412 2.585-9.617 2.585ZM37.828 105.354c-3.206 0-6.412-.646-9.617-2.585-4.488-2.586-7.694-6.464-8.976-11.635-1.282-5.17-.641-9.695 1.923-14.22 3.206-5.816 9.617-9.694 16.029-9.694 3.205 0 6.411.646 9.617 2.585 8.976 5.17 12.181 16.805 7.052 25.854-3.205 5.817-9.617 9.695-16.028 9.695ZM18.593 176.452C8.335 176.452 0 168.049 0 157.061c0-10.341 8.335-18.744 18.593-18.744s18.593 8.403 18.593 18.744c.641 10.988-8.335 19.391-18.593 19.391ZM300.695 176.452c-10.259 0-18.593-8.403-18.593-18.744 0-10.342 8.334-18.744 18.593-18.744 10.258 0 18.593 8.402 18.593 18.744.641 10.341-8.335 18.744-18.593 18.744ZM37.827 247.549c-6.411 0-12.822-3.878-16.028-9.695-2.565-4.524-3.206-9.695-1.924-14.219 1.283-5.171 4.488-9.049 8.976-11.635 2.565-1.939 6.412-2.585 9.617-2.585 6.412 0 12.823 3.878 16.029 9.695 5.13 9.049 1.923 20.683-7.053 25.854-3.205 1.293-6.41 2.585-9.617 2.585ZM285.948 109.232c-6.411 0-12.822-3.878-16.028-9.695-2.565-4.525-3.206-9.695-1.923-14.22 1.282-5.17 4.488-9.049 8.976-11.634 2.564-1.939 6.411-2.585 9.617-2.585 6.411 0 12.822 3.878 16.028 9.695 2.565 4.524 3.206 9.695 1.923 14.22-1.282 5.17-4.488 9.048-8.975 11.633-3.206 1.293-6.412 2.586-9.618 2.586ZM89.117 299.256c-3.205 0-6.41-.646-9.617-2.585-8.976-5.171-12.181-16.805-7.052-25.854 3.206-5.817 9.617-9.695 16.028-9.695 3.206 0 6.412.646 9.617 2.585 4.488 2.586 7.694 6.464 8.976 11.635 1.283 5.17.641 9.695-1.923 14.219-3.206 6.463-8.976 9.695-16.029 9.695ZM234.015 56.878c-3.205 0-6.411-.646-9.617-2.585-4.488-2.585-7.693-6.463-8.976-11.634-1.282-5.171-.641-9.695 1.924-14.22 3.206-5.817 9.617-9.695 16.028-9.695 3.206 0 6.412.646 9.617 2.585 8.976 5.171 12.182 16.805 7.053 25.854-3.206 5.817-8.976 9.695-16.029 9.695ZM294.281 275.988l-18.593 18.097c-3.206 3.232-8.976 2.586-12.182-1.292l-35.903-48.476c-1.924-2.585-1.283-5.171.641-7.11l9.617-9.048c1.923-1.939 5.129-1.939 7.052-.647l48.086 36.195c3.847 2.586 4.488 8.403 1.282 12.281Z" fill="#00AEEF"/></g><path d="M366.609 294.242c-1.161 0-2.161-.263-3-.789-.833-.531-1.474-1.263-1.921-2.195-.448-.932-.672-2-.672-3.203 0-1.219.229-2.295.687-3.227.458-.937 1.104-1.669 1.938-2.195.833-.526 1.815-.789 2.945-.789.911 0 1.724.169 2.437.508.714.333 1.29.802 1.727 1.406.443.604.706 1.31.789 2.117h-2.273a2.722 2.722 0 0 0-.86-1.453c-.442-.406-1.036-.61-1.781-.61-.651 0-1.221.172-1.711.516-.484.339-.862.823-1.133 1.453-.271.625-.406 1.365-.406 2.219 0 .875.133 1.63.398 2.266.266.635.641 1.127 1.125 1.476.49.349 1.066.524 1.727.524.443 0 .844-.081 1.203-.243a2.44 2.44 0 0 0 .914-.711c.25-.307.425-.677.524-1.109h2.273a4.41 4.41 0 0 1-.758 2.078 4.36 4.36 0 0 1-1.695 1.438c-.703.349-1.529.523-2.477.523Zm8.905 4.258a4.89 4.89 0 0 1-.953-.086 2.965 2.965 0 0 1-.641-.172l.562-1.914c.428.115.808.164 1.141.149a1.37 1.37 0 0 0 .883-.375c.26-.235.489-.618.687-1.149l.289-.797-4.39-12.156h2.5l3.039 9.312h.125l3.039-9.312h2.508l-4.946 13.602c-.229.625-.52 1.153-.875 1.586a3.405 3.405 0 0 1-1.265.984c-.49.219-1.057.328-1.703.328Zm20.273-16.5v12h-2.281v-12h2.281Zm-.992 5.57v2.016c-.359.146-.74.276-1.141.391a10.25 10.25 0 0 1-1.265.257 9.819 9.819 0 0 1-1.383.094c-1.485 0-2.664-.362-3.539-1.086-.875-.729-1.313-1.844-1.313-3.344v-3.921h2.274v3.921c0 .568.104 1.029.312 1.383.209.354.505.615.891.781.385.167.844.25 1.375.25.703 0 1.351-.065 1.945-.195a15.176 15.176 0 0 0 1.844-.547Zm7.592 6.696c-.761 0-1.448-.141-2.063-.422a3.49 3.49 0 0 1-1.461-1.242c-.354-.542-.531-1.206-.531-1.993 0-.677.13-1.234.391-1.672.26-.437.612-.783 1.054-1.039a5.548 5.548 0 0 1 1.485-.578c.547-.13 1.104-.229 1.672-.297l1.75-.203c.448-.057.773-.148.976-.273.203-.125.305-.328.305-.61v-.054c0-.682-.193-1.211-.578-1.586-.38-.375-.948-.563-1.703-.563-.787 0-1.407.175-1.86.524-.448.344-.758.726-.929 1.148l-2.196-.5c.261-.729.641-1.317 1.141-1.765a4.614 4.614 0 0 1 1.742-.985 6.808 6.808 0 0 1 2.07-.312c.48 0 .987.057 1.524.172a4.445 4.445 0 0 1 1.515.609c.474.297.862.721 1.164 1.273.303.547.454 1.258.454 2.133V294h-2.282v-1.641h-.093a3.334 3.334 0 0 1-.68.891c-.302.292-.69.534-1.164.727-.474.192-1.042.289-1.703.289Zm.508-1.875c.645 0 1.197-.128 1.656-.383a2.68 2.68 0 0 0 1.054-1c.245-.417.368-.862.368-1.336v-1.547c-.084.083-.245.161-.485.234a7.408 7.408 0 0 1-.804.18c-.302.047-.597.091-.883.133-.287.036-.526.068-.719.094a5.74 5.74 0 0 0-1.242.289c-.37.135-.667.33-.891.586-.219.25-.328.583-.328 1 0 .578.214 1.015.641 1.312.427.292.971.438 1.633.438Zm13.58 1.851c-1.162 0-2.162-.263-3-.789-.834-.531-1.474-1.263-1.922-2.195-.448-.932-.672-2-.672-3.203 0-1.219.229-2.295.687-3.227.459-.937 1.105-1.669 1.938-2.195.833-.526 1.815-.789 2.945-.789.912 0 1.724.169 2.438.508a4.368 4.368 0 0 1 1.726 1.406c.443.604.706 1.31.789 2.117h-2.273a2.722 2.722 0 0 0-.86-1.453c-.442-.406-1.036-.61-1.781-.61-.651 0-1.221.172-1.711.516-.484.339-.862.823-1.133 1.453-.27.625-.406 1.365-.406 2.219 0 .875.133 1.63.399 2.266.265.635.64 1.127 1.125 1.476.489.349 1.065.524 1.726.524.443 0 .844-.081 1.203-.243.365-.166.67-.403.914-.711.25-.307.425-.677.524-1.109h2.273a4.41 4.41 0 0 1-.758 2.078 4.345 4.345 0 0 1-1.695 1.438c-.703.349-1.528.523-2.476.523Zm15.56-7.25v2.024h-6.5v-2.024h6.5ZM426.191 282v12h-2.289v-12h2.289Zm7.477 0v12h-2.281v-12h2.281Zm6.617 12.266c-.76 0-1.448-.141-2.062-.422a3.478 3.478 0 0 1-1.461-1.242c-.354-.542-.532-1.206-.532-1.993 0-.677.131-1.234.391-1.672a2.896 2.896 0 0 1 1.055-1.039 5.528 5.528 0 0 1 1.484-.578c.547-.13 1.104-.229 1.672-.297l1.75-.203c.448-.057.773-.148.977-.273.203-.125.304-.328.304-.61v-.054c0-.682-.192-1.211-.578-1.586-.38-.375-.948-.563-1.703-.563-.786 0-1.406.175-1.859.524-.448.344-.758.726-.93 1.148l-2.195-.5c.26-.729.64-1.317 1.14-1.765a4.614 4.614 0 0 1 1.742-.985 6.82 6.82 0 0 1 2.071-.312c.479 0 .987.057 1.523.172a4.45 4.45 0 0 1 1.516.609c.474.297.862.721 1.164 1.273.302.547.453 1.258.453 2.133V294h-2.281v-1.641h-.094a3.334 3.334 0 0 1-.68.891c-.302.292-.69.534-1.164.727-.474.192-1.041.289-1.703.289Zm.508-1.875c.646 0 1.198-.128 1.656-.383a2.683 2.683 0 0 0 1.055-1c.245-.417.367-.862.367-1.336v-1.547c-.083.083-.245.161-.484.234a7.484 7.484 0 0 1-.805.18c-.302.047-.596.091-.883.133-.286.036-.526.068-.719.094a5.74 5.74 0 0 0-1.242.289c-.37.135-.666.33-.89.586-.219.25-.328.583-.328 1 0 .578.213 1.015.64 1.312.427.292.972.438 1.633.438Zm13.676-8.375V282h10.125v2.016h-3.914V294h-2.282v-9.984h-3.929Zm17.209 10.226c-1.183 0-2.201-.252-3.055-.758-.849-.51-1.505-1.226-1.969-2.148-.458-.927-.687-2.013-.687-3.258 0-1.229.229-2.312.687-3.25.464-.937 1.11-1.669 1.938-2.195.833-.526 1.807-.789 2.922-.789.677 0 1.333.112 1.968.336a4.763 4.763 0 0 1 1.711 1.054c.506.48.904 1.102 1.196 1.868.291.76.437 1.684.437 2.773v.828h-9.539v-1.75h7.25c0-.614-.125-1.159-.375-1.633a2.838 2.838 0 0 0-1.055-1.133c-.447-.276-.974-.414-1.578-.414-.656 0-1.229.162-1.718.485a3.24 3.24 0 0 0-1.125 1.25 3.6 3.6 0 0 0-.391 1.664v1.367c0 .802.141 1.484.422 2.047.286.562.685.992 1.195 1.289.511.292 1.107.437 1.789.437.443 0 .847-.062 1.211-.187.365-.13.68-.323.945-.578a2.51 2.51 0 0 0 .61-.945l2.211.398a4.009 4.009 0 0 1-.953 1.711c-.454.484-1.024.862-1.711 1.133-.683.265-1.461.398-2.336.398Zm6.795-.242-.008-2.023h.43c.333 0 .612-.071.835-.211.23-.146.417-.391.563-.735.146-.344.258-.817.336-1.422.078-.609.135-1.375.172-2.297l.211-5.312h8.375v12h-2.289v-9.984h-3.922l-.188 4.078c-.047.989-.148 1.854-.304 2.593-.151.74-.373 1.357-.664 1.852-.292.49-.667.857-1.125 1.102-.459.239-1.016.359-1.672.359h-.75Zm19.201.242c-1.182 0-2.201-.252-3.055-.758-.849-.51-1.505-1.226-1.969-2.148-.458-.927-.687-2.013-.687-3.258 0-1.229.229-2.312.687-3.25.464-.937 1.11-1.669 1.938-2.195.833-.526 1.807-.789 2.922-.789.677 0 1.333.112 1.969.336a4.768 4.768 0 0 1 1.71 1.054c.506.48.904 1.102 1.196 1.868.291.76.437 1.684.437 2.773v.828h-9.539v-1.75h7.25c0-.614-.125-1.159-.375-1.633a2.842 2.842 0 0 0-1.054-1.133c-.448-.276-.974-.414-1.579-.414-.656 0-1.229.162-1.718.485a3.24 3.24 0 0 0-1.125 1.25 3.6 3.6 0 0 0-.391 1.664v1.367c0 .802.141 1.484.422 2.047.286.562.685.992 1.195 1.289.511.292 1.107.437 1.789.437.443 0 .847-.062 1.211-.187.365-.13.68-.323.946-.578a2.52 2.52 0 0 0 .609-.945l2.211.398a4.009 4.009 0 0 1-.953 1.711c-.453.484-1.024.862-1.711 1.133-.683.265-1.461.398-2.336.398Zm12.904 3.844V278h2.336v20.086h-2.336Zm0-3.844c-.849 0-1.622-.146-2.32-.437a5.195 5.195 0 0 1-1.805-1.266 5.734 5.734 0 0 1-1.172-1.961c-.271-.76-.406-1.601-.406-2.523 0-.933.135-1.779.406-2.539a5.734 5.734 0 0 1 1.172-1.961 5.195 5.195 0 0 1 1.805-1.266c.698-.297 1.471-.445 2.32-.445h.578v12.398h-.578Zm0-1.969h.328v-8.461h-.328c-.562 0-1.052.115-1.469.344a2.967 2.967 0 0 0-1.039.93 4.307 4.307 0 0 0-.625 1.352 6.295 6.295 0 0 0-.203 1.617c0 .76.123 1.461.367 2.101a3.526 3.526 0 0 0 1.11 1.539c.495.386 1.114.578 1.859.578Zm2.336 1.969h-.586v-12.398h.586c.849 0 1.622.148 2.32.445a5.118 5.118 0 0 1 1.797 1.266 5.64 5.64 0 0 1 1.164 1.961c.276.76.414 1.606.414 2.539 0 .922-.138 1.763-.414 2.523a5.64 5.64 0 0 1-1.164 1.961c-.5.547-1.099.969-1.797 1.266-.698.291-1.471.437-2.32.437Zm0-1.969c.563 0 1.052-.109 1.469-.328a2.994 2.994 0 0 0 1.039-.922c.276-.395.482-.846.617-1.351.135-.511.203-1.05.203-1.617 0-.756-.122-1.453-.367-2.094-.24-.646-.607-1.164-1.102-1.555-.494-.396-1.114-.594-1.859-.594h-.336v8.461h.336Zm13.346 1.969c-1.125 0-2.107-.258-2.946-.773-.838-.516-1.489-1.237-1.953-2.164-.463-.927-.695-2.011-.695-3.25 0-1.245.232-2.334.695-3.266.464-.932 1.115-1.656 1.953-2.172.839-.515 1.821-.773 2.946-.773 1.125 0 2.107.258 2.945.773.839.516 1.49 1.24 1.953 2.172.464.932.696 2.021.696 3.266 0 1.239-.232 2.323-.696 3.25-.463.927-1.114 1.648-1.953 2.164-.838.515-1.82.773-2.945.773Zm.008-1.961c.729 0 1.333-.192 1.812-.578.479-.385.833-.898 1.063-1.539a6.13 6.13 0 0 0 .351-2.117 6.11 6.11 0 0 0-.351-2.11c-.23-.645-.584-1.164-1.063-1.554-.479-.391-1.083-.586-1.812-.586-.735 0-1.344.195-1.829.586-.479.39-.835.909-1.07 1.554a6.23 6.23 0 0 0-.344 2.11c0 .771.115 1.476.344 2.117.235.641.591 1.154 1.07 1.539.485.386 1.094.578 1.829.578Zm16.326-5.289v2.024h-6.5v-2.024h6.5ZM536.75 282v12h-2.289v-12h2.289Zm7.477 0v12h-2.282v-12h2.282Zm3.125 12v-12h2.336v12h-2.336Zm1.179-13.852c-.406 0-.755-.135-1.047-.406a1.321 1.321 0 0 1-.429-.984c0-.386.143-.714.429-.985a1.471 1.471 0 0 1 1.047-.414c.407 0 .753.138 1.039.414.292.271.438.599.438.985 0 .38-.146.708-.438.984a1.455 1.455 0 0 1-1.039.406ZM559.986 294v-10.008h-2.875c-.682 0-1.213.159-1.593.477-.381.317-.571.734-.571 1.25 0 .51.175.922.524 1.234.354.307.849.461 1.484.461h3.711v1.891h-3.711c-.885 0-1.651-.146-2.297-.438-.64-.297-1.135-.716-1.484-1.258-.344-.541-.516-1.182-.516-1.921 0-.756.177-1.407.531-1.954.36-.552.873-.979 1.54-1.281.671-.302 1.466-.453 2.382-.453h5.071v12h-2.196Zm-7.875 0 3.383-6.063h2.391L554.502 294h-2.391Zm-207.648 34.461v-5.484h.976c.25-.23.461-.503.633-.821.177-.317.326-.695.446-1.133.125-.437.229-.947.312-1.531.083-.588.156-1.26.219-2.015l.375-4.477h8.156v9.977h1.844v5.484h-2.281V325h-8.368v3.461h-2.312Zm3.476-5.484h5.36V315h-3.781l-.25 2.477a33.688 33.688 0 0 1-.454 3.281c-.182.922-.474 1.661-.875 2.219ZM358.762 325l-.008-2.023h.43c.333 0 .612-.071.836-.211.229-.146.416-.391.562-.735.146-.344.258-.817.336-1.422.078-.609.135-1.375.172-2.297l.211-5.312h8.375v12h-2.289v-9.984h-3.922l-.188 4.078c-.047.989-.148 1.854-.304 2.593-.151.74-.373 1.357-.664 1.852-.292.49-.667.857-1.125 1.102-.459.239-1.016.359-1.672.359h-.75Zm21.185 0v-10.008h-2.875c-.682 0-1.213.159-1.593.477-.381.317-.571.734-.571 1.25 0 .51.175.922.524 1.234.354.307.849.461 1.484.461h3.711v1.891h-3.711c-.885 0-1.651-.146-2.297-.438-.64-.297-1.135-.716-1.484-1.258-.344-.541-.516-1.182-.516-1.921 0-.756.177-1.407.531-1.954.36-.552.873-.979 1.539-1.281.672-.302 1.467-.453 2.383-.453h5.071v12h-2.196Zm-7.875 0 3.383-6.063h2.391L374.463 325h-2.391Zm20.479 4.5a4.89 4.89 0 0 1-.953-.086 2.965 2.965 0 0 1-.641-.172l.563-1.914c.427.115.807.164 1.14.149a1.37 1.37 0 0 0 .883-.375c.26-.235.49-.618.687-1.149l.29-.797L390.129 313h2.5l3.039 9.312h.125l3.039-9.312h2.508l-4.945 13.602c-.23.625-.521 1.153-.875 1.586a3.416 3.416 0 0 1-1.266.984c-.49.219-1.057.328-1.703.328Zm15.631-4.258c-1.162 0-2.162-.263-3-.789-.834-.531-1.474-1.263-1.922-2.195-.448-.932-.672-2-.672-3.203 0-1.219.229-2.295.687-3.227.459-.937 1.105-1.669 1.938-2.195.833-.526 1.815-.789 2.945-.789.912 0 1.724.169 2.438.508a4.368 4.368 0 0 1 1.726 1.406c.443.604.706 1.31.789 2.117h-2.273a2.726 2.726 0 0 0-.859-1.453c-.443-.406-1.037-.61-1.782-.61-.651 0-1.221.172-1.711.516-.484.339-.862.823-1.132 1.453-.271.625-.407 1.365-.407 2.219 0 .875.133 1.63.399 2.266.265.635.64 1.127 1.125 1.476.489.349 1.065.524 1.726.524.443 0 .844-.081 1.203-.243.365-.166.67-.403.914-.711.25-.307.425-.677.524-1.109h2.273a4.42 4.42 0 0 1-.757 2.078 4.355 4.355 0 0 1-1.696 1.438c-.703.349-1.528.523-2.476.523Zm7.427-.242v-12h9.789v12h-2.289v-9.984h-5.226V325h-2.274Zm12.912 0v-12h2.336v12h-2.336Zm1.18-13.852c-.406 0-.755-.135-1.047-.406a1.321 1.321 0 0 1-.429-.984c0-.386.143-.714.429-.985a1.471 1.471 0 0 1 1.047-.414c.406 0 .753.138 1.039.414.292.271.438.599.438.985 0 .38-.146.708-.438.984a1.456 1.456 0 0 1-1.039.406ZM434 313h2.289v9.977h4.149V313h2.289v9.977h4.148V313h2.289v12H434v-12Zm26.416 4.992v2.024h-6.5v-2.024h6.5ZM454.572 313v12h-2.289v-12h2.289Zm7.477 0v12h-2.281v-12h2.281Zm8.18 12.242c-1.125 0-2.107-.258-2.946-.773-.838-.516-1.489-1.237-1.953-2.164-.463-.927-.695-2.011-.695-3.25 0-1.245.232-2.334.695-3.266.464-.932 1.115-1.656 1.953-2.172.839-.515 1.821-.773 2.946-.773 1.125 0 2.106.258 2.945.773.838.516 1.489 1.24 1.953 2.172.463.932.695 2.021.695 3.266 0 1.239-.232 2.323-.695 3.25-.464.927-1.115 1.648-1.953 2.164-.839.515-1.82.773-2.945.773Zm.007-1.961c.729 0 1.334-.192 1.813-.578.479-.385.833-.898 1.062-1.539a6.106 6.106 0 0 0 .352-2.117c0-.766-.117-1.469-.352-2.11-.229-.645-.583-1.164-1.062-1.554-.479-.391-1.084-.586-1.813-.586-.734 0-1.343.195-1.828.586-.479.39-.836.909-1.07 1.554a6.23 6.23 0 0 0-.344 2.11c0 .771.115 1.476.344 2.117.234.641.591 1.154 1.07 1.539.485.386 1.094.578 1.828.578ZM486.102 313v2.016h-5.368V325h-2.304v-12h7.672Zm6.964 12.242c-1.125 0-2.106-.258-2.945-.773-.838-.516-1.489-1.237-1.953-2.164-.464-.927-.695-2.011-.695-3.25 0-1.245.231-2.334.695-3.266.464-.932 1.115-1.656 1.953-2.172.839-.515 1.82-.773 2.945-.773 1.125 0 2.107.258 2.946.773.838.516 1.489 1.24 1.953 2.172.463.932.695 2.021.695 3.266 0 1.239-.232 2.323-.695 3.25-.464.927-1.115 1.648-1.953 2.164-.839.515-1.821.773-2.946.773Zm.008-1.961c.729 0 1.334-.192 1.813-.578.479-.385.833-.898 1.062-1.539a6.106 6.106 0 0 0 .352-2.117c0-.766-.117-1.469-.352-2.11-.229-.645-.583-1.164-1.062-1.554-.479-.391-1.084-.586-1.813-.586-.734 0-1.344.195-1.828.586-.479.39-.836.909-1.07 1.554a6.23 6.23 0 0 0-.344 2.11c0 .771.115 1.476.344 2.117.234.641.591 1.154 1.07 1.539.484.386 1.094.578 1.828.578Zm23.274-14.75.968 1.477a3.188 3.188 0 0 1-1.226.703 7.066 7.066 0 0 1-1.57.258c-.594.031-1.274.06-2.04.086-.864.026-1.575.213-2.132.562-.558.344-.987.854-1.289 1.531-.297.672-.49 1.516-.579 2.532h.149c.391-.745.932-1.302 1.625-1.672.698-.37 1.482-.555 2.351-.555.969 0 1.831.221 2.586.664.756.443 1.349 1.091 1.782 1.945.437.849.656 1.889.656 3.118 0 1.244-.229 2.32-.688 3.226-.453.906-1.093 1.607-1.921 2.102-.823.489-1.795.734-2.915.734-1.119 0-2.096-.252-2.929-.758-.828-.51-1.472-1.265-1.93-2.265-.453-1-.68-2.235-.68-3.703v-1.188c0-2.745.49-4.81 1.469-6.195.979-1.386 2.443-2.097 4.391-2.133.63-.016 1.192-.018 1.687-.008.495.005.927-.018 1.297-.07.375-.057.688-.188.938-.391Zm-4.235 14.75c.651 0 1.211-.164 1.68-.492.474-.333.839-.805 1.094-1.414.255-.609.383-1.328.383-2.156 0-.813-.128-1.503-.383-2.071-.255-.567-.62-1-1.094-1.296-.474-.303-1.042-.454-1.703-.454-.49 0-.927.086-1.313.258a2.67 2.67 0 0 0-.992.742c-.271.329-.482.73-.633 1.204a5.791 5.791 0 0 0-.234 1.617c0 1.239.284 2.226.852 2.961.572.734 1.354 1.101 2.343 1.101Zm8.125 1.719v-12h2.336v12h-2.336Zm1.18-13.852c-.406 0-.755-.135-1.047-.406a1.322 1.322 0 0 1-.43-.984c0-.386.144-.714.43-.985a1.471 1.471 0 0 1 1.047-.414c.406 0 .753.138 1.039.414.292.271.438.599.438.985 0 .38-.146.708-.438.984a1.456 1.456 0 0 1-1.039.406Zm3.588 10.68h2.39c.032.49.253.867.665 1.133.416.266.955.398 1.617.398.672 0 1.245-.143 1.718-.429.474-.292.711-.743.711-1.352a1.67 1.67 0 0 0-.273-.953 1.737 1.737 0 0 0-.758-.641c-.323-.151-.706-.226-1.148-.226h-1.953v-1.836h1.953c.661 0 1.156-.151 1.484-.453.328-.302.492-.68.492-1.133 0-.49-.177-.883-.531-1.18-.349-.302-.836-.453-1.461-.453-.635 0-1.164.143-1.586.43-.422.281-.643.646-.664 1.094h-2.359a2.914 2.914 0 0 1 .609-1.766c.396-.51.927-.906 1.594-1.188.672-.286 1.435-.429 2.289-.429.891 0 1.661.143 2.312.429.651.287 1.154.683 1.508 1.188.36.505.539 1.086.539 1.742 0 .662-.198 1.203-.593 1.625-.391.417-.901.716-1.532.899v.125a2.4 2.4 0 0 1 1.235.421c.359.25.64.581.843.993.204.411.305.877.305 1.398 0 .734-.203 1.37-.609 1.906-.401.537-.959.951-1.672 1.242-.708.287-1.518.43-2.43.43-.885 0-1.68-.138-2.383-.414-.698-.281-1.252-.677-1.664-1.187-.406-.511-.622-1.115-.648-1.813Zm19.951-3.836v2.024h-6.5v-2.024h6.5ZM539.113 313v12h-2.289v-12h2.289Zm7.477 0v12h-2.281v-12h2.281Zm8.297 12.242c-1.183 0-2.201-.252-3.055-.758-.849-.51-1.505-1.226-1.969-2.148-.458-.927-.687-2.013-.687-3.258 0-1.229.229-2.312.687-3.25.464-.937 1.11-1.669 1.938-2.195.833-.526 1.807-.789 2.922-.789.677 0 1.333.112 1.968.336a4.763 4.763 0 0 1 1.711 1.054c.506.48.904 1.102 1.196 1.868.291.76.437 1.684.437 2.773v.828h-9.539v-1.75h7.25c0-.614-.125-1.159-.375-1.633a2.838 2.838 0 0 0-1.055-1.133c-.448-.276-.974-.414-1.578-.414-.656 0-1.229.162-1.718.485a3.24 3.24 0 0 0-1.125 1.25 3.6 3.6 0 0 0-.391 1.664v1.367c0 .802.141 1.484.422 2.047.286.562.685.992 1.195 1.289.511.292 1.107.437 1.789.437.443 0 .847-.062 1.211-.187.365-.13.68-.323.945-.578a2.51 2.51 0 0 0 .61-.945l2.211.398a4.009 4.009 0 0 1-.953 1.711c-.454.484-1.024.862-1.711 1.133-.683.265-1.461.398-2.336.398Zm12.795 0c-1.162 0-2.162-.263-3-.789-.834-.531-1.474-1.263-1.922-2.195-.448-.932-.672-2-.672-3.203 0-1.219.229-2.295.687-3.227.459-.937 1.105-1.669 1.938-2.195.833-.526 1.815-.789 2.945-.789.912 0 1.724.169 2.438.508a4.368 4.368 0 0 1 1.726 1.406c.443.604.706 1.31.789 2.117h-2.273a2.726 2.726 0 0 0-.859-1.453c-.443-.406-1.037-.61-1.782-.61-.651 0-1.221.172-1.711.516-.484.339-.862.823-1.132 1.453-.271.625-.407 1.365-.407 2.219 0 .875.133 1.63.399 2.266.265.635.64 1.127 1.125 1.476.489.349 1.065.524 1.726.524.443 0 .844-.081 1.203-.243.365-.166.67-.403.914-.711.25-.307.425-.677.524-1.109h2.273a4.42 4.42 0 0 1-.757 2.078 4.355 4.355 0 0 1-1.696 1.438c-.703.349-1.528.523-2.476.523Zm8.904 4.258a4.89 4.89 0 0 1-.953-.086 2.965 2.965 0 0 1-.641-.172l.563-1.914c.427.115.807.164 1.14.149.334-.016.628-.141.883-.375.261-.235.49-.618.688-1.149l.289-.797L574.164 313h2.5l3.039 9.312h.125l3.039-9.312h2.508l-4.945 13.602c-.229.625-.521 1.153-.875 1.586a3.4 3.4 0 0 1-1.266.984c-.49.219-1.057.328-1.703.328Z" fill="#58595B"/><defs><clipPath id="a"><path fill="#fff" d="M0 0h586v318H0z"/></clipPath></defs></svg>