<svg width="719" height="241" fill="none" xmlns="http://www.w3.org/2000/svg"><g clip-path="url(#a)"><path d="M89.685 162.536c-.906.455-2.718.455-5.435.91-2.265.456-4.983.456-7.248.456-2.264 0-4.53 0-6.341-.456-1.812-.455-3.17-.91-4.53-1.821-1.358-.91-2.264-2.276-2.717-3.642-.453-1.821-.906-3.642-.906-6.374V69.658c.906 0 2.717-.455 5.435-.91 2.265-.456 4.983-.456 7.248-.456 2.264 0 4.53 0 6.34.455 1.813.456 3.172.91 4.53 1.821 1.36.911 2.265 2.277 2.718 3.643.453 1.82.906 3.642.906 6.374v81.951ZM129.544 162.536c-.905.456-2.717.456-5.435.911-2.265.455-4.53.455-7.247.455-2.265 0-4.53 0-6.342-.455-1.811-.455-3.17-.911-4.529-1.821-1.359-.911-2.265-2.277-2.718-3.643-.453-1.821-.906-3.642-.906-6.374V78.764c0-2.276.453-3.642 1.812-5.008s2.718-2.277 4.982-2.732c3.624-1.366 7.248-2.276 11.777-2.732 4.53-.455 9.059-.91 13.589-.91 14.042 0 24.912 3.187 32.613 9.105 7.7 5.92 11.323 14.114 11.323 24.586 0 5.008-.905 9.561-2.264 13.658-1.812 4.098-4.077 7.74-7.248 10.472-3.17 2.732-7.247 5.008-11.776 6.829-4.983 1.821-10.418 2.277-16.307 2.277h-10.871v28.227h-.453Zm8.154-49.626c4.529 0 7.7-.91 9.965-3.187 2.264-1.821 3.623-5.008 3.623-9.105 0-4.098-1.359-6.83-3.623-9.106-2.265-2.276-5.889-3.187-10.418-3.187h-4.077c-.906 0-2.265 0-3.171.455v24.13h7.701Z" fill="#007BB3"/><path d="M275.396 135.674c0 2.732.906 4.553 2.718 5.919 1.812 1.366 4.076 1.821 7.247 1.821 1.812 0 3.171 0 4.982-.455 1.812-.455 3.171-.455 4.53-.911.906 1.366 1.812 2.277 2.265 4.098.906 1.366.906 3.187.906 5.008 0 4.098-1.359 7.285-4.53 10.016-3.171 2.732-8.153 3.643-15.853 3.643-9.512 0-16.307-2.277-21.742-6.374-4.983-4.098-7.7-11.383-7.7-20.944V69.203c1.359-.456 2.717-.456 4.982-.91 2.265-.456 4.53-.456 6.795-.456 4.529 0 8.153.91 10.87 2.276 2.718 1.822 4.077 5.008 4.077 10.472V90.6h20.836c.453 1.366 1.359 2.732 1.812 4.553.453 1.821.906 3.642.906 5.919 0 3.642-.906 6.374-2.265 8.195-1.812 1.821-3.624 2.276-6.794 2.276h-14.495v24.13h.453ZM346.057 164.813c-6.341 0-12.229-.911-17.212-2.732-5.435-1.821-9.965-4.553-14.041-7.74-4.077-3.642-7.248-7.74-9.512-13.203-2.265-5.463-3.624-11.382-3.624-18.667 0-6.829 1.359-13.203 3.624-18.211 2.264-5.008 5.435-9.106 9.059-12.293 3.623-3.187 8.153-5.463 12.682-7.284 4.983-1.366 9.512-2.277 14.495-2.277 5.435 0 10.871.91 15.4 2.732 4.53 1.821 8.606 4.097 11.777 6.83 3.171 3.186 5.889 6.373 7.7 10.471 1.812 4.097 2.718 8.65 2.718 13.658 0 3.643-.906 6.374-3.171 8.195-1.811 1.822-4.982 3.187-8.606 3.643l-39.407 5.918c1.359 3.643 3.624 6.374 7.248 7.74 3.623 1.821 7.7 2.732 12.229 2.732 4.53 0 8.606-.455 12.23-1.821 4.077-.911 6.794-2.277 9.512-4.098 1.812.911 3.171 2.732 4.077 4.553 1.359 1.821 1.812 4.098 1.812 5.919 0 5.008-2.265 8.195-6.795 10.927-2.265 2.276-5.888 3.642-10.418 4.097-4.076.455-8.153.911-11.777.911Zm-4.529-62.83c-2.718 0-4.53.456-6.794 1.366-1.812.911-3.171 1.821-4.53 3.187-1.359 1.366-2.265 2.732-2.718 4.553-.453 1.821-.906 3.187-.906 5.008l27.178-4.553c-.453-2.276-1.359-4.097-3.624-6.374-1.812-1.821-4.529-3.187-8.606-3.187ZM414.002 162.081c-1.359 0-2.718.455-4.983.91-2.264.456-4.529.456-6.794.456-2.265 0-4.53 0-6.341-.456-1.812-.455-3.624-.91-4.53-1.821-1.359-.91-2.265-2.276-2.718-4.097-.906-1.821-.906-3.643-.906-6.374V58.276c1.359 0 2.718-.455 4.983-.91 2.265-.456 4.529-.456 6.794-.456 2.265 0 4.53 0 6.342.455 1.811.456 3.623.911 4.529 1.822 1.359.91 2.265 2.276 2.718 4.097.906 1.821.906 3.642.906 6.374v92.423Z" fill="#58595B"/><path d="M115.503 26.862c-7.247 0-13.136-5.92-13.136-13.204 0-7.284 5.889-13.203 13.136-13.203 7.247 0 13.136 5.919 13.136 13.203 0 6.83-5.889 13.204-13.136 13.204ZM112.784 224c-7.247 0-13.136-5.918-13.136-13.203 0-7.285 5.889-13.203 13.136-13.203 7.247 0 13.136 5.918 13.136 13.203.453 7.285-5.436 13.203-13.136 13.203ZM65.678 40.065c-4.53 0-9.059-2.732-11.324-6.83-3.623-6.373-1.358-14.569 4.983-18.21 1.812-1.367 4.53-1.822 6.794-1.822 4.53 0 9.06 2.732 11.324 6.83 1.812 3.186 2.265 6.829 1.359 10.016-1.359 3.642-3.17 6.374-6.341 8.195-2.265 1.366-4.53 1.82-6.795 1.82ZM26.725 74.211c-2.264 0-4.53-.455-6.794-1.82-3.17-1.822-5.435-4.554-6.341-8.196-.906-3.642-.453-6.83 1.358-10.016 2.265-4.098 6.795-6.83 11.324-6.83 2.265 0 4.53.456 6.795 1.822 6.341 3.642 8.606 11.837 4.982 18.211-2.265 4.098-6.794 6.83-11.324 6.83ZM13.136 124.292C5.888 124.292 0 118.374 0 110.634c0-7.285 5.888-13.203 13.136-13.203 7.247 0 13.135 5.918 13.135 13.203.453 7.74-5.888 13.658-13.135 13.658ZM212.436 124.292c-7.247 0-13.135-5.918-13.135-13.203 0-7.285 5.888-13.203 13.135-13.203 7.248 0 13.136 5.918 13.136 13.203.453 7.285-5.888 13.203-13.136 13.203ZM26.726 174.373c-4.53 0-9.06-2.731-11.324-6.829-1.812-3.187-2.265-6.829-1.36-10.016.907-3.642 3.171-6.374 6.342-8.195 1.812-1.366 4.53-1.821 6.794-1.821 4.53 0 9.06 2.731 11.324 6.829 3.624 6.374 1.36 14.569-4.982 18.211-2.265.911-4.53 1.821-6.795 1.821ZM202.018 76.943c-4.529 0-9.059-2.732-11.323-6.83-1.812-3.186-2.265-6.829-1.359-10.016.906-3.642 3.17-6.374 6.341-8.195 1.812-1.366 4.53-1.82 6.794-1.82 4.53 0 9.06 2.73 11.324 6.828 1.812 3.187 2.265 6.83 1.359 10.017-.906 3.642-3.171 6.374-6.341 8.195-2.265.91-4.53 1.82-6.795 1.82ZM62.96 210.796c-2.266 0-4.53-.455-6.795-1.821-6.341-3.642-8.606-11.837-4.983-18.211 2.265-4.098 6.795-6.829 11.324-6.829 2.265 0 4.53.455 6.795 1.821 3.17 1.821 5.435 4.553 6.341 8.195.906 3.642.453 6.829-1.359 10.016-2.265 4.553-6.341 6.829-11.324 6.829ZM165.327 40.065c-2.265 0-4.53-.455-6.794-1.821-3.171-1.821-5.436-4.553-6.342-8.195-.906-3.643-.453-6.83 1.359-10.017 2.265-4.097 6.794-6.829 11.324-6.829 2.265 0 4.53.455 6.794 1.821 6.342 3.643 8.606 11.838 4.983 18.212-2.265 4.097-6.342 6.829-11.324 6.829ZM207.904 194.406l-13.135 12.748c-2.265 2.276-6.342 1.821-8.607-.911l-25.365-34.146c-1.359-1.821-.906-3.642.453-5.008l6.794-6.374c1.359-1.366 3.624-1.366 4.983-.455l33.971 25.496c2.718 1.821 3.171 5.918.906 8.65Z" fill="#00AEEF"/></g><path d="M280.193 232h-9.068l11.778-34.909h11.233L305.915 232h-9.068l-8.199-26.114h-.273L280.193 232Zm-1.21-13.739h18.955v6.409h-18.955v-6.409ZM309.673 232v-34.909h14.557c2.614 0 4.801.369 6.563 1.108 1.772.738 3.102 1.773 3.988 3.102.898 1.33 1.347 2.869 1.347 4.619 0 1.33-.279 2.518-.835 3.563a7.35 7.35 0 0 1-2.302 2.574c-.977.682-2.107 1.159-3.392 1.432v.341a8.458 8.458 0 0 1 3.904 1.142c1.204.693 2.17 1.659 2.898 2.897.727 1.228 1.09 2.682 1.09 4.364 0 1.875-.477 3.551-1.431 5.028-.955 1.466-2.336 2.625-4.142 3.478-1.807.841-4 1.261-6.58 1.261h-15.665Zm8.438-6.801h5.216c1.829 0 3.176-.347 4.039-1.04.875-.693 1.313-1.659 1.313-2.898 0-.897-.21-1.67-.631-2.318-.42-.659-1.017-1.165-1.789-1.517-.773-.364-1.699-.545-2.779-.545h-5.369v8.318Zm0-13.756h4.67c.921 0 1.739-.153 2.455-.46.716-.307 1.273-.75 1.67-1.33.409-.579.614-1.278.614-2.096 0-1.171-.415-2.091-1.244-2.762-.83-.67-1.949-1.005-3.358-1.005h-4.807v7.653Zm22.295-7.5v-6.852h29.506v6.852h-10.585V232h-8.318v-28.057h-10.603Zm64.982 10.602c0 3.841-.739 7.097-2.216 9.767-1.477 2.671-3.477 4.699-6 6.086-2.511 1.386-5.33 2.079-8.455 2.079-3.136 0-5.96-.699-8.471-2.096-2.512-1.398-4.506-3.426-5.983-6.086-1.466-2.67-2.199-5.92-2.199-9.75 0-3.84.733-7.096 2.199-9.767 1.477-2.67 3.471-4.698 5.983-6.085 2.511-1.386 5.335-2.079 8.471-2.079 3.125 0 5.944.693 8.455 2.079 2.523 1.387 4.523 3.415 6 6.085 1.477 2.671 2.216 5.927 2.216 9.767Zm-8.625 0c0-2.272-.324-4.193-.972-5.761-.636-1.568-1.557-2.756-2.761-3.562-1.193-.807-2.631-1.211-4.313-1.211-1.67 0-3.108.404-4.312 1.211-1.205.806-2.131 1.994-2.779 3.562-.636 1.568-.954 3.489-.954 5.761 0 2.273.318 4.194.954 5.762.648 1.568 1.574 2.755 2.779 3.562 1.204.807 2.642 1.211 4.312 1.211 1.682 0 3.12-.404 4.313-1.211 1.204-.807 2.125-1.994 2.761-3.562.648-1.568.972-3.489.972-5.762Zm46.5 0c0 3.841-.739 7.097-2.216 9.767-1.477 2.671-3.477 4.699-6 6.086-2.511 1.386-5.33 2.079-8.455 2.079-3.136 0-5.96-.699-8.471-2.096-2.512-1.398-4.506-3.426-5.983-6.086-1.466-2.67-2.199-5.92-2.199-9.75 0-3.84.733-7.096 2.199-9.767 1.477-2.67 3.471-4.698 5.983-6.085 2.511-1.386 5.335-2.079 8.471-2.079 3.125 0 5.944.693 8.455 2.079 2.523 1.387 4.523 3.415 6 6.085 1.477 2.671 2.216 5.927 2.216 9.767Zm-8.625 0c0-2.272-.324-4.193-.972-5.761-.636-1.568-1.557-2.756-2.761-3.562-1.193-.807-2.631-1.211-4.313-1.211-1.67 0-3.108.404-4.312 1.211-1.205.806-2.131 1.994-2.779 3.562-.636 1.568-.954 3.489-.954 5.761 0 2.273.318 4.194.954 5.762.648 1.568 1.574 2.755 2.779 3.562 1.204.807 2.642 1.211 4.312 1.211 1.682 0 3.12-.404 4.313-1.211 1.204-.807 2.125-1.994 2.761-3.562.648-1.568.972-3.489.972-5.762ZM448.189 232v-34.909h23.847v6.852h-15.41v5.455h4.603c2.841 0 5.312.46 7.414 1.38 2.114.921 3.745 2.216 4.893 3.887 1.159 1.67 1.738 3.636 1.738 5.897 0 2.262-.579 4.25-1.738 5.966-1.148 1.716-2.779 3.057-4.893 4.023-2.102.966-4.573 1.449-7.414 1.449h-13.04Zm8.437-6.682h4.603c1.227 0 2.261-.21 3.102-.63.852-.432 1.494-1.012 1.926-1.739a4.684 4.684 0 0 0 .665-2.455c0-1.295-.489-2.375-1.466-3.238-.977-.875-2.386-1.313-4.227-1.313h-4.603v9.375Zm21.171 15.085V225.42h2.403c.807-.545 1.546-1.306 2.216-2.284.671-.988 1.245-2.375 1.722-4.159.477-1.795.818-4.165 1.023-7.108l1.09-14.778h23.881v28.329h3.75v14.966h-8.114V232h-19.857v8.403h-8.114Zm12.085-14.983h12.136v-21.477h-8.198l-.546 7.926c-.148 2.216-.386 4.171-.716 5.864-.329 1.693-.721 3.17-1.176 4.432-.454 1.25-.954 2.335-1.5 3.255Zm41.08 7.057c-2.659 0-5.017-.454-7.074-1.363-2.046-.921-3.659-2.188-4.841-3.802-1.182-1.613-1.784-3.471-1.807-5.573h8.489c.034.761.278 1.437.733 2.028.454.58 1.074 1.034 1.858 1.364.784.329 1.676.494 2.676.494 1 0 1.88-.176 2.642-.528.773-.364 1.375-.858 1.807-1.483.431-.637.642-1.364.63-2.182a3.449 3.449 0 0 0-.699-2.182c-.477-.636-1.153-1.131-2.028-1.483-.864-.352-1.886-.528-3.068-.528h-3.392v-6h3.392c1.034 0 1.943-.171 2.727-.512.796-.341 1.415-.818 1.858-1.432.443-.625.659-1.34.648-2.147.011-.784-.176-1.472-.563-2.063-.375-.602-.903-1.068-1.585-1.397-.67-.33-1.449-.495-2.335-.495-.932 0-1.779.165-2.54.495-.75.329-1.347.795-1.79 1.397-.443.602-.676 1.301-.699 2.097h-8.062c.023-2.08.602-3.909 1.739-5.489 1.136-1.591 2.681-2.835 4.636-3.733 1.966-.898 4.204-1.346 6.716-1.346 2.5 0 4.699.437 6.596 1.312 1.898.875 3.375 2.068 4.432 3.58 1.057 1.5 1.585 3.199 1.585 5.096.012 1.966-.63 3.585-1.926 4.858-1.284 1.273-2.937 2.057-4.96 2.352v.273c2.705.318 4.744 1.193 6.119 2.625 1.387 1.432 2.074 3.222 2.063 5.37 0 2.022-.597 3.818-1.79 5.386-1.182 1.557-2.829 2.784-4.943 3.682-2.102.886-4.517 1.329-7.244 1.329Zm18.805-.477v-34.909h14.557c2.614 0 4.801.369 6.562 1.108 1.773.738 3.103 1.773 3.989 3.102.898 1.33 1.347 2.869 1.347 4.619 0 1.33-.279 2.518-.836 3.563a7.338 7.338 0 0 1-2.301 2.574c-.977.682-2.108 1.159-3.392 1.432v.341a8.465 8.465 0 0 1 3.904 1.142c1.204.693 2.17 1.659 2.897 2.897.728 1.228 1.091 2.682 1.091 4.364 0 1.875-.477 3.551-1.432 5.028-.954 1.466-2.335 2.625-4.142 3.478-1.806.841-4 1.261-6.579 1.261h-15.665Zm8.438-6.801h5.215c1.83 0 3.177-.347 4.04-1.04.875-.693 1.313-1.659 1.313-2.898 0-.897-.21-1.67-.631-2.318-.42-.659-1.017-1.165-1.79-1.517-.772-.364-1.699-.545-2.778-.545h-5.369v8.318Zm0-13.756h4.67c.92 0 1.739-.153 2.455-.46.715-.307 1.272-.75 1.67-1.33.409-.579.614-1.278.614-2.096 0-1.171-.415-2.091-1.245-2.762-.829-.67-1.949-1.005-3.358-1.005h-4.806v7.653Zm31.875-14.352V232h-8.438v-34.909h8.438ZM595.376 232v-34.909h8.438v14.011h13.756v-14.011h8.42V232h-8.42v-14.028h-13.756V232h-8.438Z" fill="#007BB3"/><defs><clipPath id="a"><path fill="#fff" d="M0 0h414v224H0z"/></clipPath></defs></svg>