<svg width="159" height="108" fill="none" xmlns="http://www.w3.org/2000/svg"><path d="M139.684 47.209c.063-.909.101-1.817.101-2.738C139.785 19.948 119.961 0 95.606 0 78.023 0 62.188 10.552 55.19 26.587a21.073 21.073 0 0 0-6.917-1.175c-11.278 0-20.613 8.55-21.906 19.802C11.698 48.117.938 61.007.938 76.235.938 93.75 15.094 108 32.493 108h94.669c17.393 0 31.556-14.25 31.556-31.765 0-12.654-7.555-24.026-19.035-29.026Z" fill="#03A9F4"/><mask id="b" style="mask-type:alpha" maskUnits="userSpaceOnUse" x="35" y="42" width="90" height="50"><mask id="a" style="mask-type:luminance" maskUnits="userSpaceOnUse" x="35" y="42" width="90" height="50"><path d="M124.273 42.75H35.438v48.28h88.835V42.75Z" fill="#fff"/></mask><g mask="url(#a)" fill="#fff"><path d="M54.648 77.737c-.375.09-.754.157-1.136.202-.508.064-1.02.096-1.531.095a6.906 6.906 0 0 1-1.336-.113 2.415 2.415 0 0 1-.971-.415 1.782 1.782 0 0 1-.59-.832 4.161 4.161 0 0 1-.2-1.401V57.716c.242-.047.63-.107 1.178-.183.503-.077 1.01-.116 1.519-.12a6.86 6.86 0 0 1 1.336.12c.35.062.683.204.971.415.273.213.478.502.59.832.142.45.209.922.194 1.395l-.024 17.562ZM63.218 77.737c-.376.09-.755.157-1.137.202-.508.064-1.019.096-1.53.096a6.912 6.912 0 0 1-1.337-.113 2.415 2.415 0 0 1-.97-.416 1.779 1.779 0 0 1-.59-.831 4.159 4.159 0 0 1-.2-1.402V59.61a1.467 1.467 0 0 1 .353-1.08 2.67 2.67 0 0 1 1.037-.594 12.394 12.394 0 0 1 2.554-.594c.957-.121 1.92-.183 2.885-.185 3.033 0 5.353.656 6.957 1.966a6.465 6.465 0 0 1 1.838 2.382c.419.93.614 1.944.57 2.963a8.069 8.069 0 0 1-.512 2.97 6.097 6.097 0 0 1-1.519 2.257 6.74 6.74 0 0 1-2.536 1.467c-1.143.36-2.336.532-3.533.51h-2.354l.023 6.064Zm1.718-10.69a3.131 3.131 0 0 0 2.125-.647 2.494 2.494 0 0 0 .754-1.966 2.468 2.468 0 0 0-.777-1.948 3.328 3.328 0 0 0-2.255-.683h-.877a5.896 5.896 0 0 0-.706.083v5.155l1.736.006ZM94.517 71.96a1.435 1.435 0 0 0 .589 1.27c.47.28 1.009.42 1.554.404.355 0 .71-.027 1.06-.083.323-.048.642-.124.953-.226.207.26.385.543.53.844.154.35.229.732.218 1.116a2.666 2.666 0 0 1-.995 2.103c-.647.554-1.788.829-3.42.825-2.002 0-3.542-.457-4.621-1.372-1.08-.915-1.62-2.405-1.62-4.472V57.658c.254-.072.59-.143 1.078-.226.489-.08.983-.12 1.478-.119a4.328 4.328 0 0 1 2.354.535c.554.35.837 1.105.837 2.25v2.198h4.462c.155.304.286.62.394.945.127.407.189.832.182 1.258a2.39 2.39 0 0 1-.524 1.735 1.918 1.918 0 0 1-1.418.535H94.51l.006 5.19ZM109.668 78.248a11.796 11.796 0 0 1-3.732-.594 8.332 8.332 0 0 1-2.996-1.645 7.848 7.848 0 0 1-2.013-2.857 10.152 10.152 0 0 1-.736-4.05 9.504 9.504 0 0 1 .729-3.902 7.572 7.572 0 0 1 1.868-2.627 7.492 7.492 0 0 1 2.783-1.602c1.013-.331 2.072-.5 3.138-.498a9.33 9.33 0 0 1 3.284.552 7.879 7.879 0 0 1 2.555 1.514 6.75 6.75 0 0 1 1.672 2.298 7.19 7.19 0 0 1 .589 2.923 2.323 2.323 0 0 1-.648 1.782 3.217 3.217 0 0 1-1.801.795l-8.418 1.271c.123.375.324.72.587 1.013.264.292.585.526.944.686.829.401 1.74.605 2.66.593a9.316 9.316 0 0 0 2.637-.362 8.504 8.504 0 0 0 2.031-.843c.377.238.695.559.93.939.186.301.306.64.353.992a2.523 2.523 0 0 1-.577 1.977c-.228.271-.511.49-.829.642a7.522 7.522 0 0 1-2.455.79 17.24 17.24 0 0 1-2.555.213Zm-.953-13.523a3.453 3.453 0 0 0-1.419.273 2.933 2.933 0 0 0-.971.707 2.909 2.909 0 0 0-.589.962 4.116 4.116 0 0 0-.224 1.08l5.828-.962a2.577 2.577 0 0 0-.748-1.371 2.509 2.509 0 0 0-1.877-.69ZM124.275 77.66c-.248.048-.589.113-1.107.19-.49.083-.986.125-1.483.125a7.768 7.768 0 0 1-1.349-.107 2.274 2.274 0 0 1-1-.41 1.943 1.943 0 0 1-.63-.855 3.695 3.695 0 0 1-.224-1.39V55.282l1.107-.19a9.47 9.47 0 0 1 1.484-.12 8.36 8.36 0 0 1 1.347.102c.362.056.705.198 1.001.415.283.218.501.51.63.844.163.444.239.916.224 1.39V77.66ZM79.995 84.573l-2.76 2.762a1.216 1.216 0 0 1-.969.316 1.211 1.211 0 0 1-.868-.536l-5.463-7.387A.836.836 0 0 1 70 78.646l1.412-1.401a.827.827 0 0 1 1.078-.048l7.317 5.524a1.232 1.232 0 0 1 .512.883 1.247 1.247 0 0 1-.324.97ZM59.68 91.03a2.828 2.828 0 0 1-1.585-.48 2.87 2.87 0 0 1-1.055-1.287 2.901 2.901 0 0 1 .61-3.137 2.825 2.825 0 0 1 3.106-.628 2.85 2.85 0 0 1 1.282 1.059 2.892 2.892 0 0 1-.35 3.626 2.834 2.834 0 0 1-2.007.846ZM48.977 88.16a2.824 2.824 0 0 1-1.733-.58 2.89 2.89 0 0 1-.92-3.364 2.86 2.86 0 0 1 1.195-1.396 2.822 2.822 0 0 1 3.433.425 2.891 2.891 0 0 1 .486 3.455 2.892 2.892 0 0 1-1.038 1.06 2.86 2.86 0 0 1-1.423.4ZM41.15 80.268a2.85 2.85 0 0 1-2.466-1.438 2.906 2.906 0 0 1-.282-2.18 2.88 2.88 0 0 1 1.324-1.745 2.827 2.827 0 0 1 3.59.567 2.886 2.886 0 0 1 .66 2.47 2.886 2.886 0 0 1-.543 1.195c-.269.35-.616.633-1.012.827-.396.193-.83.291-1.27.286v.018ZM38.283 69.477a2.828 2.828 0 0 1-1.584-.485A2.869 2.869 0 0 1 35.65 67.7a2.896 2.896 0 0 1 .62-3.134 2.836 2.836 0 0 1 3.107-.62c.52.22.965.589 1.278 1.063a2.892 2.892 0 0 1-.36 3.627 2.837 2.837 0 0 1-2.012.84ZM41.145 58.702a2.857 2.857 0 0 1-1.419-.386 2.878 2.878 0 0 1-1.324-1.745 2.906 2.906 0 0 1 .282-2.18c.25-.437.61-.8 1.044-1.053a2.83 2.83 0 0 1 3.892 1.055 2.9 2.9 0 0 1-.004 2.877c-.25.437-.611.799-1.045 1.05a2.828 2.828 0 0 1-1.426.382ZM49.566 51.386a2.83 2.83 0 0 1-1.874-.712 2.892 2.892 0 0 1-.49-3.75 2.846 2.846 0 0 1 1.627-1.177 2.821 2.821 0 0 1 1.993.196 2.861 2.861 0 0 1 1.37 1.474c.264.642.288 1.36.067 2.02a2.842 2.842 0 0 1-2.694 1.95ZM60.226 48.493a2.83 2.83 0 0 1-1.575-.499 2.872 2.872 0 0 1-1.036-1.296 2.897 2.897 0 0 1 .636-3.122 2.825 2.825 0 0 1 3.101-.61c.52.218.963.587 1.274 1.059a2.893 2.893 0 0 1-.366 3.637 2.848 2.848 0 0 1-2.034.831ZM70.91 51.386A2.853 2.853 0 0 1 69.493 51a2.877 2.877 0 0 1-1.324-1.746 2.9 2.9 0 0 1 .282-2.18c.25-.437.61-.8 1.043-1.053a2.831 2.831 0 0 1 3.893 1.056 2.891 2.891 0 0 1-1.05 3.927 2.83 2.83 0 0 1-1.425.382ZM78.74 59.278c-.5 0-.99-.134-1.423-.386a2.873 2.873 0 0 1-1.043-1.05 2.903 2.903 0 0 1-.282-2.18 2.878 2.878 0 0 1 1.323-1.747 2.83 2.83 0 0 1 3.591.568 2.901 2.901 0 0 1 .117 3.665 2.83 2.83 0 0 1-2.283 1.113v.017ZM81.033 69.477a2.832 2.832 0 0 1-1.584-.485 2.869 2.869 0 0 1-1.05-1.291 2.9 2.9 0 0 1 .621-3.134 2.836 2.836 0 0 1 3.107-.62c.52.22.965.589 1.278 1.063a2.892 2.892 0 0 1-.36 3.627 2.838 2.838 0 0 1-2.012.84Z"/></g></mask><g mask="url(#b)"><path d="M140.53 34.606H19.18V101.5h121.35V34.606Z" fill="#fff"/></g></svg>