<svg width="60" height="60" fill="none" xmlns="http://www.w3.org/2000/svg"><path d="M19.28 50a.642.642 0 0 1-.274-.06.603.603 0 0 1-.215-.169.554.554 0 0 1-.097-.504l8.57-27.324a.56.56 0 0 1 .11-.197.603.603 0 0 1 .182-.143.64.64 0 0 1 .674.056.58.58 0 0 1 .153.172.547.547 0 0 1 .05.434l-8.57 27.325a.573.573 0 0 1-.219.296.636.636 0 0 1-.365.114ZM40.716 50a.636.636 0 0 1-.365-.114.573.573 0 0 1-.22-.296l-8.568-27.324a.54.54 0 0 1 .05-.435.603.603 0 0 1 .363-.274.645.645 0 0 1 .464.046.58.58 0 0 1 .292.34l8.57 27.324a.537.537 0 0 1-.098.504.601.601 0 0 1-.215.169.642.642 0 0 1-.273.06Z" fill="#03A9F4"/><path d="M29.998 23.392c-.794 0-1.57-.22-2.23-.634a3.826 3.826 0 0 1-1.477-1.69 3.546 3.546 0 0 1-.229-2.173c.155-.73.537-1.4 1.099-1.927a4.1 4.1 0 0 1 2.054-1.03 4.26 4.26 0 0 1 2.318.215c.733.284 1.36.767 1.8 1.386.442.618.677 1.346.677 2.09a3.652 3.652 0 0 1-1.176 2.66 4.156 4.156 0 0 1-2.836 1.103Zm0-6.383c-.553 0-1.093.154-1.552.442-.46.287-.818.697-1.03 1.175a2.47 2.47 0 0 0-.158 1.514c.108.508.374.975.764 1.342.391.366.889.616 1.43.717.543.1 1.104.049 1.615-.15.51-.198.947-.534 1.254-.965.307-.43.47-.937.47-1.455 0-.695-.295-1.36-.819-1.852a2.893 2.893 0 0 0-1.974-.768ZM38.049 41.503a.634.634 0 0 1-.298-.074l-8.011-4.214a.541.541 0 0 1-.053-.025l-5.763-3.033a.603.603 0 0 1-.181-.145.56.56 0 0 1-.127-.422.547.547 0 0 1 .074-.212.583.583 0 0 1 .155-.17.627.627 0 0 1 .45-.117c.079.009.156.032.226.07l5.716 3.01a.58.58 0 0 1 .053.025l8.055 4.237c.118.062.21.159.263.275a.538.538 0 0 1 .029.368.57.57 0 0 1-.218.308.637.637 0 0 1-.372.119h.002Z" fill="#03A9F4"/><path d="M24.336 33.881a.637.637 0 0 1-.353-.105.575.575 0 0 1-.223-.278.538.538 0 0 1-.01-.348.572.572 0 0 1 .208-.288l9.186-6.818a.639.639 0 0 1 .856.094.547.547 0 0 1-.1.803l-9.186 6.817a.629.629 0 0 1-.378.123ZM20.237 46.944a.634.634 0 0 1-.398-.139.542.542 0 0 1-.118-.738.605.605 0 0 1 .337-.241l17.893-5.186a.646.646 0 0 1 .465.04c.143.071.25.193.297.337a.54.54 0 0 1-.043.436.602.602 0 0 1-.359.28l-17.893 5.185a.654.654 0 0 1-.18.026Z" fill="#03A9F4"/><path d="M39.758 46.95a.656.656 0 0 1-.183-.027l-17.89-5.185a.623.623 0 0 1-.21-.106.579.579 0 0 1-.15-.173.54.54 0 0 1-.043-.436.581.581 0 0 1 .297-.336.646.646 0 0 1 .465-.041l17.893 5.185c.14.04.26.127.337.242a.542.542 0 0 1-.118.738.634.634 0 0 1-.398.138Z" fill="#03A9F4"/><path d="M21.947 41.491a.636.636 0 0 1-.373-.119.57.57 0 0 1-.217-.308.538.538 0 0 1 .029-.368.585.585 0 0 1 .262-.275l8.039-4.228a.76.76 0 0 1 .054-.026l5.728-3.02a.635.635 0 0 1 .467-.059c.079.02.152.054.216.101a.582.582 0 0 1 .157.171.547.547 0 0 1-.243.784l-5.775 3.045a.9.9 0 0 1-.056.026l-7.99 4.203a.634.634 0 0 1-.298.073Z" fill="#03A9F4"/><path d="M35.664 33.9a.635.635 0 0 1-.377-.124l-9.201-6.83a.585.585 0 0 1-.157-.169.547.547 0 0 1 .05-.637.602.602 0 0 1 .183-.146.64.64 0 0 1 .68.056l9.2 6.83a.571.571 0 0 1 .206.289.537.537 0 0 1-.01.347.576.576 0 0 1-.222.278.637.637 0 0 1-.353.105h.001ZM45.53 15.458a.638.638 0 0 1-.347-.102.579.579 0 0 1-.224-.268 11.53 11.53 0 0 0-2.84-4.114.553.553 0 0 1-.171-.402.554.554 0 0 1 .178-.4.63.63 0 0 1 .426-.167.631.631 0 0 1 .428.16 12.658 12.658 0 0 1 3.12 4.515.54.54 0 0 1-.07.527.598.598 0 0 1-.218.181.64.64 0 0 1-.283.066v.004ZM42.55 28.543a.638.638 0 0 1-.338-.096.58.58 0 0 1-.225-.256.539.539 0 0 1-.035-.33.561.561 0 0 1 .166-.292 11.723 11.723 0 0 0 2.457-3.269.598.598 0 0 1 .346-.286.647.647 0 0 1 .46.022.587.587 0 0 1 .312.318c.056.14.05.295-.015.432a12.854 12.854 0 0 1-2.696 3.589.611.611 0 0 1-.432.168ZM46.322 21.115h-.064a.638.638 0 0 1-.41-.209.561.561 0 0 1-.133-.42 11.01 11.01 0 0 0 .06-1.58.54.54 0 0 1 .166-.41.61.61 0 0 1 .425-.18.638.638 0 0 1 .439.153.533.533 0 0 1 .189.401c.018.579-.005 1.158-.07 1.734a.56.56 0 0 1-.197.363.633.633 0 0 1-.405.148ZM39.546 25.73a.638.638 0 0 1-.338-.096.581.581 0 0 1-.224-.257.539.539 0 0 1-.035-.33.561.561 0 0 1 .166-.292c1.548-1.456 2.417-3.427 2.417-5.482 0-2.056-.869-4.027-2.416-5.482a.553.553 0 0 1-.172-.402.554.554 0 0 1 .179-.4.63.63 0 0 1 .425-.167.632.632 0 0 1 .43.16c1.775 1.67 2.772 3.932 2.772 6.29 0 2.359-.997 4.621-2.773 6.29a.63.63 0 0 1-.43.168ZM36.545 22.915a.638.638 0 0 1-.339-.097.58.58 0 0 1-.224-.256.539.539 0 0 1-.035-.33.561.561 0 0 1 .167-.293 3.66 3.66 0 0 0 1.176-2.667c0-1-.423-1.959-1.176-2.666a.553.553 0 0 1-.171-.402.555.555 0 0 1 .178-.4.63.63 0 0 1 .426-.167.631.631 0 0 1 .429.16c.98.923 1.532 2.173 1.532 3.475 0 1.303-.551 2.553-1.532 3.475a.63.63 0 0 1-.431.168ZM17.446 28.545a.63.63 0 0 1-.43-.168C14.443 25.961 13 22.687 13 19.273c0-3.414 1.444-6.688 4.015-9.105a.631.631 0 0 1 .431-.168.63.63 0 0 1 .432.167.554.554 0 0 1 .179.404.554.554 0 0 1-.178.405c-2.343 2.202-3.66 5.186-3.66 8.297 0 3.11 1.317 6.094 3.66 8.296.085.08.143.182.166.293a.539.539 0 0 1-.034.33.58.58 0 0 1-.225.256.639.639 0 0 1-.338.097h-.002Z" fill="#03A9F4"/><path d="M20.45 25.73a.63.63 0 0 1-.431-.167c-1.776-1.67-2.774-3.932-2.774-6.29 0-2.359.997-4.62 2.773-6.29a.631.631 0 0 1 .43-.16.63.63 0 0 1 .425.167c.113.106.177.249.178.399a.553.553 0 0 1-.171.402c-1.548 1.455-2.417 3.426-2.417 5.482 0 2.055.87 4.026 2.417 5.482a.539.539 0 0 1 .132.623.582.582 0 0 1-.224.256.638.638 0 0 1-.339.096ZM23.45 22.915a.63.63 0 0 1-.43-.168c-.981-.922-1.532-2.172-1.532-3.475 0-1.302.55-2.552 1.532-3.474a.632.632 0 0 1 .428-.16.63.63 0 0 1 .426.167c.113.106.177.249.178.399a.553.553 0 0 1-.17.402 3.66 3.66 0 0 0-1.176 2.666c0 1 .422 1.96 1.175 2.667.086.08.144.182.167.293a.539.539 0 0 1-.034.33.581.581 0 0 1-.225.256.638.638 0 0 1-.338.097Z" fill="#03A9F4"/></svg>