<svg width="60" height="60" fill="none" xmlns="http://www.w3.org/2000/svg"><path d="M18.93 37.101a.635.635 0 0 0-.847.301l-.907 1.908a.634.634 0 1 0 1.147.545l.907-1.908a.635.635 0 0 0-.3-.846ZM30.5 32.984a7.892 7.892 0 1 0 7.892 7.894 7.901 7.901 0 0 0-7.892-7.894Zm0 14.515a6.623 6.623 0 1 1 6.622-6.621 6.63 6.63 0 0 1-6.622 6.62Z" fill="#03A9F4"/><path d="M30.5 35.16a5.715 5.715 0 1 0 5.715 5.718 5.722 5.722 0 0 0-5.715-5.717Zm0 10.161a4.446 4.446 0 1 1 0-8.89 4.446 4.446 0 0 1 0 8.89Z" fill="#03A9F4"/><path d="M49.608 17.331a34.009 34.009 0 0 0-2.144-1.18v-1.98a5.17 5.17 0 0 0-10.192-1.228 45.19 45.19 0 0 0-6.786-.488c-7.47.004-13.537 1.553-19.093 4.876a4.976 4.976 0 0 0-1.87 6.476l1.58 3.157a1.728 1.728 0 0 0 2.107.858l4.544-1.581a1.733 1.733 0 0 0 1.156-1.71l-.124-2.623c3.409-1.602 8.404-2.442 11.727-2.446 3.296.004 8.29.844 11.698 2.446l-.123 2.624a1.733 1.733 0 0 0 1.155 1.708l2.95 1.027v2.62a11.906 11.906 0 0 1-1.6 5.974l-2.434-5.125a1.732 1.732 0 0 0-1.557-.984h-2.246v-1.527a.635.635 0 0 0-.635-.635h-4.354a.635.635 0 0 0-.636.635v1.527h-4.463v-1.527a.636.636 0 0 0-.635-.635H23.28a.635.635 0 0 0-.635.635v1.527h-2.246a1.732 1.732 0 0 0-1.557.984l-6.36 13.381a2.83 2.83 0 0 0-.271 1.208v4.951A1.726 1.726 0 0 0 13.933 52h33.133a1.726 1.726 0 0 0 1.724-1.724v-4.951c0-.418-.094-.83-.272-1.208l-3.278-6.895a13.172 13.172 0 0 0 2.224-7.335v-2.178l.325.113a1.727 1.727 0 0 0 2.108-.857l1.579-3.157a4.977 4.977 0 0 0-1.868-6.475v-.002ZM34.002 28.86h3.084v.892h-3.084v-.892Zm-10.088 0h3.084v.892h-3.084v-.892Zm23.605 16.465v4.951a.454.454 0 0 1-.454.454H13.933a.454.454 0 0 1-.453-.454v-4.951c0-.23.05-.456.149-.663l6.36-13.38a.457.457 0 0 1 .409-.26h20.204a.456.456 0 0 1 .41.26l6.358 13.38c.098.207.149.433.149.663ZM42.293 10.27a3.901 3.901 0 0 1 3.901 3.9v1.377a33.337 33.337 0 0 0-7.666-2.393 3.896 3.896 0 0 1 3.765-2.884Zm8.047 12.97-1.58 3.156a.454.454 0 0 1-.554.225l-4.544-1.581a.455.455 0 0 1-.304-.45l.143-3.041a.636.636 0 0 0-.348-.597c-3.585-1.807-9.072-2.756-12.668-2.76-3.567.004-9.053.953-12.638 2.76a.636.636 0 0 0-.348.597l.143 3.041a.45.45 0 0 1-.304.45l-4.546 1.582a.454.454 0 0 1-.555-.225l-1.579-3.157a3.706 3.706 0 0 1 1.384-4.818c5.351-3.2 11.213-4.692 18.47-4.696 7.231.004 13.091 1.496 18.442 4.696a3.706 3.706 0 0 1 1.384 4.818h.002Z" fill="#03A9F4"/></svg>