<svg width="70" height="70" fill="none" xmlns="http://www.w3.org/2000/svg"><path d="M8.167 10.492H10.5a1.167 1.167 0 0 0 0-2.334H8.167a1.167 1.167 0 1 0 0 2.334ZM15.167 10.492H17.5a1.167 1.167 0 0 0 0-2.334h-2.333a1.167 1.167 0 1 0 0 2.334ZM22.166 10.492h4.667a1.167 1.167 0 1 0 0-2.334h-4.667a1.167 1.167 0 0 0 0 2.334ZM31.498 10.492h25.667a1.167 1.167 0 1 0 0-2.334H31.498a1.167 1.167 0 0 0 0 2.334Z" fill="#03A9F4"/><path d="M66.5 25.658h-2.334v-17.5a5.84 5.84 0 0 0-5.832-5.834h-52.5A5.84 5.84 0 0 0 0 8.158v43.166a5.84 5.84 0 0 0 5.834 5.834H28v7a3.5 3.5 0 0 0 3.5 3.5h35a3.5 3.5 0 0 0 3.5-3.5v-35a3.5 3.5 0 0 0-3.5-3.5ZM5.834 54.824a3.5 3.5 0 0 1-3.5-3.5V8.158a3.5 3.5 0 0 1 3.5-3.5h52.5a3.5 3.5 0 0 1 3.5 3.5v17.5h-3.5v-9.334A2.333 2.333 0 0 0 56 13.991H8.167a2.286 2.286 0 0 0-2.333 2.228v32.877a2.285 2.285 0 0 0 2.333 2.228H28v3.5H5.834ZM31.5 25.658a3.5 3.5 0 0 0-3.285 2.333h-9.548v-4.667H56v2.334H31.5ZM8.167 48.982v-4.658h8.166v4.667l-8.166-.01ZM56 16.324v4.667H18.667v-4.667H56Zm-39.667 4.667H8.167v-4.667h8.166v4.667ZM8.167 37.324h8.166v4.667H8.167v-4.667Zm10.5 0H28v4.667h-9.333v-4.667ZM28 34.991h-9.333v-4.667H28v4.667Zm-11.667 0H8.167v-4.667h8.166v4.667Zm-8.166-7v-4.667h8.166v4.667H8.167Zm10.5 16.333H28v4.667h-9.333v-4.667Zm49 19.833c0 .645-.523 1.167-1.167 1.167h-35a1.167 1.167 0 0 1-1.167-1.167v-35c0-.644.523-1.166 1.167-1.166h35c.644 0 1.167.522 1.167 1.166v35Z" fill="#03A9F4"/><path d="M57.383 32.658H39.454a2.1 2.1 0 0 0-1.906 1.216 2.16 2.16 0 0 0 .275 2.312c.04.049.083.094.13.135l10.646 9.465a1.167 1.167 0 0 1 0 1.744l-10.646 9.465c-.047.041-.09.087-.13.135a2.159 2.159 0 0 0-.275 2.312 2.1 2.1 0 0 0 1.906 1.216h17.93a2.139 2.139 0 0 0 2.117-2.154v-2.962a1.166 1.166 0 0 0-2.333 0v2.783H39.969l10.18-9.051a3.5 3.5 0 0 0 0-5.231l-10.18-9.051h17.199v2.782a1.167 1.167 0 1 0 2.333 0v-2.962a2.138 2.138 0 0 0-2.117-2.154Z" fill="#03A9F4"/></svg>