<svg width="56" height="70" fill="none" xmlns="http://www.w3.org/2000/svg"><path d="m51.023 44.757-10.301-2.423a.945.945 0 0 0-.157-.488l-1.372-2.06a1.956 1.956 0 0 0-1.385-.856c-.038-.005-.076-.005-.115-.008v-1.887l.364-.272a6.98 6.98 0 0 0 2.679-4.3c.427-.453.742-.904.975-1.317h.028l.06.001c.782 0 1.517-.3 2.076-.848.574-.563.89-1.316.89-2.12v-3.994c0-.794-.31-1.541-.872-2.102a2.947 2.947 0 0 0-1.067-.68l.925-9.248a.9.9 0 0 0 .005-.094v-1.01C43.755 4.957 38.797 0 32.704 0H22.602C16.508 0 11.55 4.957 11.55 11.05v1.01c0 .032.002.064.005.095l.924 9.245c-.396.146-.759.376-1.067.683a2.948 2.948 0 0 0-.872 2.102v3.994c0 .804.316 1.557.89 2.12a2.944 2.944 0 0 0 2.136.847l.87-.016.016.344a6.985 6.985 0 0 0 2.797 5.289l.363.272v1.887c-.038.003-.076.003-.115.008a1.957 1.957 0 0 0-1.384.856l-1.373 2.06a.945.945 0 0 0-.156.487L4.283 44.757a4.97 4.97 0 0 0-3.846 4.856v7.913a2.971 2.971 0 0 0 2.968 2.968h48.496a2.971 2.971 0 0 0 2.968-2.968v-7.913a4.97 4.97 0 0 0-3.846-4.856Zm-12.326-2.299-4.12 9.066a.332.332 0 0 1-.233.19.354.354 0 0 1-.31-.075 39.49 39.49 0 0 0-4.767-3.384l8.255-7.43c.006-.005.021-.019.05-.015.028.003.04.02.044.027l1.081 1.621Zm4.174-18.273v3.994c0 .291-.114.563-.322.767a1.066 1.066 0 0 1-.773.306l-.821-.015.128-2.818.15-3.306.561-.002h.004c.286 0 .555.112.757.314.204.203.316.473.316.76ZM13.53 29.252a1.062 1.062 0 0 1-.773-.306 1.065 1.065 0 0 1-.322-.767v-3.994c0-.287.112-.557.316-.76.202-.203.471-.314.758-.314h.003l.561.002.077 1.692.201 4.432-.821.015Zm.836-8.035-.92-9.203v-.963c0-5.05 4.107-9.157 9.156-9.157h10.103c5.049 0 9.156 4.108 9.156 9.156v.964l-.92 9.203h-.404l-1.856-8.351a.947.947 0 0 0-1.394-.617c-6.77 3.868-19.608 3.916-19.737 3.916a.947.947 0 0 0-.88.596l-1.782 4.456h-.522Zm1.98 10.17-.058-1.263v-.002l-.247-5.437-.085-1.861c.286-.19.515-.466.65-.801l1.588-3.971c2.621-.053 12.442-.46 18.906-3.568l1.615 7.271c.092.413.323.76.638 1.001l-.17 3.733-.165 3.633v.001l-.058 1.264c-.002.06-.008.117-.013.176-1.248 1.09-3.486 2.131-7.488 2.332a2.464 2.464 0 0 0-2.29-1.564h-1.01a2.465 2.465 0 0 0-2.463 2.462 2.465 2.465 0 0 0 2.462 2.463h1.01a2.465 2.465 0 0 0 2.248-1.462c2.715-.124 4.758-.617 6.294-1.282-.235.269-.498.516-.79.735l-4.178 3.133a5.146 5.146 0 0 1-3.068 1.023h-4.042c-1.1 0-2.19-.363-3.069-1.023l-4.177-3.133a5.098 5.098 0 0 1-2.04-3.86Zm13.391 3.406a.569.569 0 0 1-.568.569h-1.01a.569.569 0 0 1 0-1.137h1.01c.313 0 .568.255.568.568ZM17.69 40.837a.059.059 0 0 1 .044-.027.06.06 0 0 1 .05.015l8.255 7.43a39.501 39.501 0 0 0-4.767 3.384.354.354 0 0 1-.31.074.332.332 0 0 1-.232-.189l-4.12-9.066 1.08-1.62ZM9.53 58.6H3.405a1.075 1.075 0 0 1-1.074-1.073v-7.913c0-.347.058-.681.164-.995l5.673 5.076a4.11 4.11 0 0 1 1.362 3.054V58.6Zm17.176 0H11.425v-1.851c0-1.7-.726-3.327-1.992-4.464l-5.802-5.191c.32-.227.684-.397 1.086-.492l10.565-2.486 3.724 8.193c.29.637.847 1.093 1.53 1.25a2.239 2.239 0 0 0 1.943-.458 38.148 38.148 0 0 1 4.227-3.031v8.53Zm-7.199-18.772v-1.371l1.92 1.44a7.054 7.054 0 0 0 4.205 1.401h4.042c1.506 0 3-.497 4.205-1.401l1.92-1.44v1.371l-8.146 7.332-8.146-7.332Zm24.375 16.92V58.6H28.6v-8.53a38.138 38.138 0 0 1 4.228 3.032 2.239 2.239 0 0 0 1.943.458 2.216 2.216 0 0 0 1.53-1.251l3.723-8.193 10.565 2.486a3.1 3.1 0 0 1 1.086.492l-5.803 5.192a6.009 6.009 0 0 0-1.99 4.463Zm9.093.779c0 .592-.482 1.073-1.074 1.073h-6.125v-1.851a4.11 4.11 0 0 1 1.36-3.052l5.675-5.078c.106.314.164.648.164.995v7.913Z" fill="#03A9F4"/><path d="M27.531 68.704c4.229 0 7.657-3.386 7.657-7.562S31.76 53.58 27.53 53.58c-4.228 0-7.656 3.386-7.656 7.562s3.428 7.562 7.656 7.562Z" fill="#fff" stroke="#00AEEF" stroke-width="2" stroke-miterlimit="10" stroke-linecap="round" stroke-linejoin="round"/><path d="M26.592 62.566v-.13c.003-.443.041-.797.116-1.061.076-.264.188-.477.334-.64.146-.162.321-.309.527-.44.153-.102.29-.208.412-.317.121-.109.217-.23.29-.361a.938.938 0 0 0 .107-.45.824.824 0 0 0-.453-.765.964.964 0 0 0-.453-.106.987.987 0 0 0-.456.11.879.879 0 0 0-.353.32.998.998 0 0 0-.148.521H25c.012-.507.131-.926.356-1.255.225-.333.524-.58.895-.743.371-.165.78-.247 1.229-.247.492 0 .928.084 1.306.251.379.165.676.405.891.72.215.314.323.693.323 1.137a1.932 1.932 0 0 1-.542 1.4c-.17.176-.372.335-.605.477-.196.119-.356.243-.483.373a1.27 1.27 0 0 0-.278.449c-.06.17-.09.38-.093.628v.13h-1.407Zm.735 2.436a.86.86 0 0 1-.634-.266.887.887 0 0 1-.257-.648.87.87 0 0 1 .257-.639.86.86 0 0 1 .634-.266c.235 0 .442.089.62.266a.884.884 0 0 1 .141 1.1.973.973 0 0 1-.323.331.828.828 0 0 1-.438.122Z" fill="#03A9F4"/></svg>