<svg width="746" height="510" fill="none" xmlns="http://www.w3.org/2000/svg"><g clip-path="url(#a)"><path fill="#fff" d="M0 0h745.631v510H0z"/><path d="M429.934 440.385c0 7.469 6.046 13.516 13.513 13.516.558 0 1.115-.056 1.644-.111a54.492 54.492 0 0 0 6.298 15.188c-.418.335-.836.697-1.226 1.087-5.267 5.267-5.267 13.823 0 19.118 5.266 5.267 13.82 5.267 19.114 0 .39-.39.752-.808 1.087-1.226a54.824 54.824 0 0 0 15.185 6.298c-.055.53-.111 1.087-.111 1.644 0 7.469 6.046 13.517 13.514 13.517 7.467 0 13.514-6.048 13.514-13.517 0-.557-.056-1.114-.112-1.644a54.468 54.468 0 0 0 15.186-6.298c.334.418.697.836 1.087 1.226 5.266 5.267 13.82 5.267 19.114 0 5.266-5.267 5.266-13.823 0-19.118-.39-.39-.808-.752-1.226-1.087a54.84 54.84 0 0 0 6.297-15.188c.53.055 1.087.111 1.644.111 7.468 0 13.514-6.047 13.514-13.516s-6.046-13.517-13.514-13.517c-.557 0-1.114.056-1.644.112a54.484 54.484 0 0 0-6.297-15.189c.418-.334.836-.697 1.226-1.087 5.266-5.267 5.266-13.823 0-19.118-5.266-5.267-13.82-5.267-19.114 0-.39.39-.753.808-1.087 1.227a54.82 54.82 0 0 0-15.186-6.299c.056-.529.112-1.087.112-1.644 0-7.469-6.047-13.516-13.514-13.516-7.468 0-13.514 6.047-13.514 13.516 0 .557.056 1.115.111 1.644a54.476 54.476 0 0 0-15.185 6.299 14.84 14.84 0 0 0-1.087-1.227c-5.266-5.267-13.82-5.267-19.114 0-5.267 5.268-5.267 13.823 0 19.118.39.39.808.753 1.226 1.087a54.836 54.836 0 0 0-6.298 15.189 15.657 15.657 0 0 0-1.644-.112c-7.467 0-13.513 6.048-13.513 13.517Zm43.913 0c0-13.851 11.229-25.11 25.105-25.11 13.848 0 25.105 11.231 25.105 25.11 0 13.85-11.229 25.11-25.105 25.11-13.876-.028-25.105-11.26-25.105-25.11Z" fill="#fff"/><path d="M498.924 510c-7.802 0-14.127-6.326-14.127-14.129 0-.362.028-.753.056-1.171a55.542 55.542 0 0 1-14.378-5.964c-.279.335-.529.614-.78.864-5.517 5.518-14.462 5.518-19.979 0-5.517-5.518-5.517-14.464 0-19.982.251-.25.558-.529.864-.78a56.045 56.045 0 0 1-5.963-14.38c-.417.028-.808.055-1.17.055-7.802 0-14.127-6.326-14.127-14.129s6.325-14.13 14.127-14.13c.362 0 .753.028 1.17.056a56.045 56.045 0 0 1 5.963-14.38c-.334-.279-.613-.53-.864-.78-5.517-5.518-5.517-14.464 0-19.982 5.517-5.518 14.462-5.518 19.979 0 .251.25.529.557.78.863a55.981 55.981 0 0 1 14.378-5.963c-.028-.418-.056-.809-.056-1.171 0-7.803 6.325-14.129 14.127-14.129 7.801 0 14.127 6.326 14.127 14.129 0 .362-.028.753-.056 1.171a55.582 55.582 0 0 1 14.377 5.963c.279-.334.53-.613.781-.863 5.517-5.518 14.461-5.518 19.978 0 2.675 2.675 4.124 6.214 4.124 9.977 0 3.762-1.477 7.329-4.124 9.977-.251.25-.557.529-.864.78a56.045 56.045 0 0 1 5.963 14.38c.418-.028.808-.055 1.17-.055 7.802 0 14.127 6.326 14.127 14.129s-6.325 14.13-14.127 14.13c-.362 0-.752-.028-1.17-.056a55.636 55.636 0 0 1-5.963 14.38c.334.279.613.53.864.781 2.675 2.675 4.124 6.214 4.124 9.977 0 3.762-1.477 7.329-4.124 9.977-5.517 5.518-14.461 5.518-19.978 0-.251-.251-.53-.558-.781-.864a56.027 56.027 0 0 1-14.377 5.964c.028.418.056.808.056 1.17 0 7.859-6.326 14.185-14.127 14.185Zm-28.588-22.685a.56.56 0 0 1 .306.084 54.483 54.483 0 0 0 15.019 6.214.633.633 0 0 1 .473.669 10.886 10.886 0 0 0-.111 1.561c0 7.107 5.795 12.903 12.901 12.903 7.105 0 12.901-5.796 12.901-12.903 0-.474-.028-.975-.112-1.561a.633.633 0 0 1 .474-.669 54.137 54.137 0 0 0 15.018-6.214.606.606 0 0 1 .808.139c.363.474.697.836 1.031 1.171 5.044 5.044 13.208 5.044 18.251 0a12.87 12.87 0 0 0 3.789-9.114c0-3.427-1.337-6.688-3.789-9.113a15.449 15.449 0 0 0-1.17-1.031.606.606 0 0 1-.14-.808 54.508 54.508 0 0 0 6.214-15.021.632.632 0 0 1 .669-.474c.585.084 1.086.111 1.56.111 7.105 0 12.901-5.796 12.901-12.903 0-7.106-5.796-12.903-12.901-12.903-.474 0-.975.028-1.56.111a.633.633 0 0 1-.669-.473 54.149 54.149 0 0 0-6.214-15.022.637.637 0 0 1 .14-.808c.445-.362.836-.697 1.17-1.031a12.869 12.869 0 0 0 3.789-9.113c0-3.456-1.337-6.689-3.789-9.113-5.043-5.045-13.207-5.045-18.251 0-.334.334-.668.724-1.031 1.17a.605.605 0 0 1-.808.139 54.52 54.52 0 0 0-15.018-6.214.633.633 0 0 1-.474-.669c.084-.585.112-1.087.112-1.561 0-7.106-5.796-12.903-12.901-12.903-7.106 0-12.901 5.797-12.901 12.903 0 .474.028.976.111 1.561a.633.633 0 0 1-.473.669 54.16 54.16 0 0 0-15.019 6.214.61.61 0 0 1-.808-.139 15.256 15.256 0 0 0-1.031-1.17c-5.043-5.045-13.207-5.045-18.251 0-5.043 5.044-5.043 13.209 0 18.254.335.334.725.669 1.171 1.031.25.195.306.529.139.808a54.538 54.538 0 0 0-6.214 15.021.631.631 0 0 1-.668.474 10.877 10.877 0 0 0-1.561-.111c-7.105 0-12.901 5.796-12.901 12.903s5.796 12.903 12.901 12.903c.474 0 .976-.028 1.561-.111a.631.631 0 0 1 .668.474 54.185 54.185 0 0 0 6.214 15.021.637.637 0 0 1-.139.808c-.474.362-.836.697-1.171 1.031-5.043 5.044-5.043 13.21 0 18.254 5.044 5.045 13.208 5.045 18.251 0 .334-.334.669-.724 1.031-1.17.139-.195.307-.279.502-.279Zm28.588-21.236c-14.183 0-25.718-11.538-25.718-25.723 0-14.185 11.535-25.723 25.718-25.723 14.182 0 25.718 11.538 25.718 25.723 0 14.185-11.536 25.723-25.718 25.723Zm0-50.192c-13.486 0-24.492 10.981-24.492 24.497 0 13.488 10.978 24.497 24.492 24.497 13.514 0 24.492-10.981 24.492-24.497s-10.978-24.497-24.492-24.497Z" fill="#353535"/><path d="M376.188 479.93c0 3.177 2.591 5.769 5.767 5.769.251 0 .474-.028.697-.056a24.19 24.19 0 0 0 2.675 6.494c-.195.139-.362.306-.53.473a5.77 5.77 0 0 0 0 8.166 5.768 5.768 0 0 0 8.164 0c.168-.167.307-.334.474-.53a22.964 22.964 0 0 0 6.492 2.676 5.843 5.843 0 0 0-.055.697 5.779 5.779 0 0 0 5.767 5.768 5.779 5.779 0 0 0 5.768-5.768c0-.251-.028-.474-.056-.697a24.153 24.153 0 0 0 6.493-2.676c.139.196.306.363.473.53a5.768 5.768 0 0 0 8.164 0 5.77 5.77 0 0 0 0-8.166c-.167-.167-.334-.306-.529-.473a22.974 22.974 0 0 0 2.675-6.494c.223.028.474.056.696.056a5.78 5.78 0 0 0 5.768-5.769 5.78 5.78 0 0 0-5.768-5.769c-.25 0-.473.028-.696.056a24.19 24.19 0 0 0-2.675-6.494c.195-.139.362-.306.529-.473a5.77 5.77 0 0 0 0-8.166 5.768 5.768 0 0 0-8.164 0c-.167.167-.306.335-.473.53a22.97 22.97 0 0 0-6.493-2.676c.028-.223.056-.474.056-.697a5.779 5.779 0 0 0-5.768-5.768 5.779 5.779 0 0 0-5.767 5.768c0 .251.027.474.055.697a24.147 24.147 0 0 0-6.492 2.676 4.191 4.191 0 0 0-.474-.53 5.768 5.768 0 0 0-8.164 0 5.77 5.77 0 0 0 0 8.166c.168.167.335.306.53.473a22.974 22.974 0 0 0-2.675 6.494 5.845 5.845 0 0 0-.697-.056 5.762 5.762 0 0 0-5.767 5.769Zm18.724 0c0-5.908 4.792-10.702 10.7-10.702 5.907 0 10.699 4.794 10.699 10.702s-4.792 10.702-10.699 10.702c-5.908 0-10.7-4.794-10.7-10.702Z" fill="#fff"/><path d="M405.639 510c-3.511 0-6.381-2.87-6.381-6.382v-.223a23.117 23.117 0 0 1-5.684-2.368l-.167.167c-2.48 2.48-6.548 2.48-9.028 0-2.48-2.481-2.48-6.549 0-9.03l.167-.167c-1.031-1.784-1.811-3.706-2.368-5.685h-.223c-3.511 0-6.381-2.871-6.381-6.382 0-3.512 2.87-6.382 6.381-6.382h.223a23.108 23.108 0 0 1 2.368-5.685 26.373 26.373 0 0 0-.167-.168c-2.48-2.48-2.48-6.549 0-9.029 2.48-2.48 6.548-2.48 9.028 0l.167.167c1.783-1.031 3.706-1.811 5.684-2.369v-.223c0-3.511 2.87-6.382 6.381-6.382s6.381 2.871 6.381 6.382v.223a23.159 23.159 0 0 1 5.684 2.369l.167-.167c2.48-2.48 6.548-2.48 9.028 0 2.48 2.48 2.48 6.549 0 9.029l-.167.168c1.031 1.783 1.811 3.706 2.368 5.685h.223c3.511 0 6.381 2.87 6.381 6.382 0 3.511-2.87 6.382-6.381 6.382h-.223a23.14 23.14 0 0 1-2.368 5.685l.167.167c2.48 2.481 2.48 6.549 0 9.03-2.48 2.48-6.548 2.48-9.028 0a13.147 13.147 0 0 0-.167-.167c-1.783 1.031-3.706 1.811-5.684 2.368v.223c0 3.512-2.87 6.382-6.381 6.382Zm-12.204-10.367c.111 0 .223.028.306.084a23.347 23.347 0 0 0 6.325 2.619.633.633 0 0 1 .474.669c-.028.223-.056.446-.056.613a5.162 5.162 0 0 0 5.155 5.156 5.162 5.162 0 0 0 5.155-5.156c0-.195 0-.39-.056-.613a.633.633 0 0 1 .474-.669 22.826 22.826 0 0 0 6.325-2.619c.251-.167.613-.084.808.139.139.195.279.335.418.474 2.006 2.006 5.266 2.006 7.3 0 2.006-2.007 2.006-5.267 0-7.302a3.666 3.666 0 0 0-.474-.418.607.607 0 0 1-.139-.808 23.354 23.354 0 0 0 2.619-6.326.633.633 0 0 1 .669-.474c.251.028.446.056.613.056a5.162 5.162 0 0 0 5.155-5.156 5.162 5.162 0 0 0-5.155-5.156c-.195 0-.39 0-.613.056-.306.056-.585-.167-.669-.474a22.845 22.845 0 0 0-2.619-6.326.638.638 0 0 1 .139-.808c.195-.14.335-.279.474-.418 2.006-2.007 2.006-5.267 0-7.302-2.006-2.034-5.266-2.006-7.3 0-.139.139-.279.279-.418.474a.606.606 0 0 1-.808.139 23.347 23.347 0 0 0-6.325-2.619.633.633 0 0 1-.474-.669c.028-.223.056-.446.056-.613a5.162 5.162 0 0 0-5.155-5.156 5.162 5.162 0 0 0-5.155 5.156c0 .195 0 .39.056.613a.633.633 0 0 1-.474.669 22.839 22.839 0 0 0-6.325 2.619.61.61 0 0 1-.808-.139 3.522 3.522 0 0 0-.418-.474c-2.006-2.006-5.266-2.006-7.3 0-2.034 2.007-2.006 5.267 0 7.302.139.139.279.251.474.418a.606.606 0 0 1 .139.808 23.728 23.728 0 0 0-2.619 6.326.632.632 0 0 1-.669.474c-.223-.028-.446-.056-.613-.056a5.162 5.162 0 0 0-5.155 5.156 5.162 5.162 0 0 0 5.155 5.156c.195 0 .39 0 .613-.056.307-.056.585.167.669.474a22.845 22.845 0 0 0 2.619 6.326.637.637 0 0 1-.139.808c-.195.14-.335.279-.474.418-2.006 2.007-2.006 5.267 0 7.302 2.006 2.006 5.266 2.006 7.3 0 .14-.139.279-.279.418-.474a.607.607 0 0 1 .502-.223Zm12.204-8.388c-6.241 0-11.313-5.073-11.313-11.315 0-6.243 5.072-11.315 11.313-11.315 6.242 0 11.313 5.072 11.313 11.315 0 6.242-5.071 11.315-11.313 11.315Zm0-21.404c-5.573 0-10.087 4.543-10.087 10.089 0 5.574 4.542 10.088 10.087 10.088 5.573 0 10.087-4.542 10.087-10.088 0-5.574-4.542-10.089-10.087-10.089Z" fill="#353535"/><path d="M357 188H30c-5.523 0-10 4.477-10 10v228c0 5.523 4.477 10 10 10h327c5.523 0 10-4.477 10-10V198c0-5.523-4.477-10-10-10Z" fill="#CCEDFB"/><path d="M118 430.687s111.427-.39 108.891-36.09c-.111-1.421.028-2.843.334-4.208 6.66-29.597 15.409-67.304-5.349-114.318-.892-2.007-2.202-3.818-3.846-5.24l-3.399-2.954c-3.761-3.288-8.582-5.1-13.569-5.156-13.124-.139-39.65.307-55.421 5.658-2.954 1.003-5.489 2.982-7.245 5.546-2.981 4.347-7.384 11.76-7.718 18.059C130.149 301.487 118 430.687 118 430.687Z" fill="#007BB3"/><path d="M.556 448.578c.501-32.551 17.024-74.103 31.597-104.564 13.263-27.701 38.452-47.823 68.405-54.511 35.22-7.859 76.792-8.835 108.808-14.91 65.953-12.513 91.253 26.559 91.253 26.559l35.136-43.615 47.898 38.431-51.576 122.763-133.606 1.7s-69.631 50.191-111.037 76.667C46.03 523.601-.336 507.075.556 448.578Z" fill="#007BB3"/><path d="M90.304 403.571c-.056 0-.111 0-.167-.028a.58.58 0 0 1-.418-.753 167.106 167.106 0 0 1 13.653-34.669.606.606 0 0 1 .836-.25.607.607 0 0 1 .251.836c-5.768 10.924-10.338 22.49-13.542 34.418a.628.628 0 0 1-.613.446Z" fill="#fff"/><path d="M45.334 431.299a.622.622 0 0 1-.501-.278.59.59 0 0 1 .167-.836 642.735 642.735 0 0 1 95.684-51.502.612.612 0 0 1 .501 1.115 641.754 641.754 0 0 0-95.516 51.39.532.532 0 0 1-.335.111ZM288.638 424.779s-24.994-59.5-51.576-67.47c-20.647-6.187-90.222 19.703-90.222 19.703s.947 25.305 30.315 57.326c0 0 112.486 1.449 111.483-9.559Z" fill="#fff"/><path d="M263.616 415.109a.642.642 0 0 1-.558-.362c-5.266-11.203-13.068-21.292-22.569-29.207-.251-.223-.307-.613-.084-.864.223-.25.613-.306.864-.083 9.641 8.026 17.554 18.282 22.904 29.624a.613.613 0 0 1-.307.809c-.055.083-.139.083-.25.083ZM241.046 420.711a.568.568 0 0 1-.557-.391c-3.846-9.559-9.641-18.56-16.774-26.001-.223-.251-.223-.641.027-.864.251-.223.641-.223.864.028 7.217 7.552 13.124 16.693 17.025 26.392.139.306-.028.668-.334.808-.084.028-.168.028-.251.028Z" fill="#353535"/><path d="M459.385 233.404s3.678-3.93 2.508-7.525-4.653-4.096-10.254-1.477c0 0 3.177-4.96-2.535-6.242s-13.375 6.465-25.691 9.029c-12.315 2.564-16.662 3.372-16.662 3.372s2.563-5.1 9.724-9.531c7.161-4.431 6.186-10.562 2.815-12.847-2.87-1.951-8.081.195-12.539 3.678-5.879 4.571-20.563 8.305-32.433 13.684-9.028 4.069-24.52 19.313-38.591 34.557 5.712 11.148 18.111 26.504 44.749 35.895a308.793 308.793 0 0 0 8.052-16.024s5.629-4.961 19.672-6.912c14.015-1.95 32.489-3.372 43.189-12.011 10.699-8.639 11.758-15.328 8.47-19.341.028-.028 3.873-4.236-.474-8.305Z" fill="#fff"/><path d="M380.503 296.582a.467.467 0 0 1-.278-.084.607.607 0 0 1-.251-.836c2.981-5.545 5.768-11.091 8.025-15.996a.48.48 0 0 1 .139-.195c.223-.195 5.935-5.1 19.978-7.051 1.672-.223 3.399-.446 5.155-.697 13.347-1.728 28.449-3.707 37.755-11.203 6.046-4.877 9.446-9.531 9.864-13.461.195-1.895-.307-3.567-1.477-4.988a.601.601 0 0 1 .028-.809c.139-.167 3.371-3.846-.446-7.441-.251-.223-.251-.613-.028-.864.028-.027 3.427-3.706 2.396-6.911-.39-1.198-1.03-1.979-1.978-2.369-1.644-.697-4.124-.279-7.439 1.282a.64.64 0 0 1-.725-.139.631.631 0 0 1-.056-.725c0-.028 1.226-1.979.613-3.511-.362-.864-1.281-1.477-2.758-1.812-2.731-.613-6.102 1.087-10.393 3.233-4.013 2.034-9.028 4.543-15.047 5.797-12.176 2.536-16.606 3.372-16.662 3.372-.223.056-.474-.056-.613-.223-.139-.195-.167-.446-.056-.641.112-.223 2.731-5.323 9.948-9.782 3.232-2.007 5.043-4.571 5.099-7.218.027-1.867-.808-3.595-2.285-4.598-2.313-1.561-6.966-.14-11.842 3.65-3.623 2.815-10.561 5.323-17.889 7.999-4.904 1.783-10.003 3.623-14.684 5.741-7.439 3.344-20.703 15.272-38.396 34.418-.223.251-.613.251-.864.028s-.251-.613-.028-.864c18.056-19.564 31.096-31.241 38.787-34.725 4.736-2.146 9.835-3.985 14.767-5.797 7.245-2.619 14.071-5.127 17.554-7.803 4.208-3.261 9.92-5.964 13.263-3.706 1.812 1.226 2.87 3.344 2.843 5.629-.028 1.784-.836 5.239-5.685 8.249-4.904 3.038-7.634 6.41-8.805 8.138 2.118-.418 6.827-1.366 15.27-3.121 5.879-1.227 10.588-3.595 14.74-5.686 4.486-2.257 8.024-4.041 11.201-3.316 1.895.418 3.121 1.282 3.622 2.564.446 1.087.279 2.229 0 3.093 2.926-1.17 5.266-1.393 6.966-.641 1.254.558 2.145 1.589 2.647 3.122 1.031 3.177-1.31 6.493-2.257 7.664 3.316 3.539 1.282 7.134.418 8.332 1.142 1.589 1.644 3.484 1.449 5.518-.446 4.32-3.901 9.141-10.31 14.297-9.557 7.72-24.854 9.699-38.368 11.454a232.04 232.04 0 0 0-5.155.697c-12.678 1.756-18.473 6.048-19.253 6.689-2.257 4.904-5.016 10.395-7.997 15.94-.084.196-.307.307-.502.307Z" fill="#353535"/><path d="M421.353 254.055c-1.337 0-2.675-.056-4.012-.167a.623.623 0 0 1-.558-.669.622.622 0 0 1 .669-.558c9.112.836 18.474-1.282 26.359-5.964.836-.501 1.672-1.031 2.48-1.532 1.421-.92 2.898-1.868 4.458-2.648 2.898-1.477 5.629-2.09 8.081-1.839a.621.621 0 0 1 .557.669.621.621 0 0 1-.669.557c-2.229-.223-4.709.362-7.412 1.728-1.504.752-2.953 1.672-4.346 2.564a75.41 75.41 0 0 1-2.508 1.56c-6.966 4.125-15.019 6.299-23.099 6.299ZM416.307 245.609a.63.63 0 0 1-.613-.557.62.62 0 0 1 .557-.669c8.025-.697 15.743-2.815 22.987-6.354.948-.474 1.867-.948 2.815-1.422 2.061-1.059 4.179-2.173 6.408-3.009 3.817-1.45 7.3-1.812 10.338-1.087a.598.598 0 0 1 .445.724.597.597 0 0 1-.724.446c-2.786-.669-6.046-.306-9.613 1.031-2.146.809-4.263 1.895-6.269 2.954-.948.502-1.895.976-2.842 1.45a65.934 65.934 0 0 1-23.406 6.493h-.083ZM414.914 239.786a.627.627 0 0 1-.612-.502.601.601 0 0 1 .501-.696c12.483-2.035 24.687-6.745 35.275-13.628a.589.589 0 0 1 .836.167.589.589 0 0 1-.167.836c-10.755 6.967-23.099 11.761-35.749 13.823h-.084Z" fill="#353535"/><path d="M278.913 334.066c-.112 0-.251-.028-.335-.112a.622.622 0 0 1-.167-.864c2.257-3.344 4.458-6.855 6.576-10.228 3.929-6.27 7.969-12.736 12.901-18.978.223-.279.585-.307.863-.112.279.223.307.586.112.864-4.876 6.187-8.916 12.625-12.817 18.867-2.118 3.4-4.319 6.912-6.604 10.284a.636.636 0 0 1-.529.279Z" fill="#fff"/><path d="M404.689 437.096H189.414v-6.493c0-5.713 4.625-10.339 10.337-10.339h220.095l-1.755 6.577c-1.672 6.047-7.133 10.255-13.402 10.255Z" fill="#353535"/><path d="M410.818 429.461H280.946c-5.545 0-9.613-5.211-8.276-10.59l24.548-99.129c.947-3.819 4.375-6.494 8.276-6.494h129.872c5.545 0 9.613 5.212 8.276 10.59l-24.548 99.13c-.92 3.818-4.347 6.493-8.276 6.493Z" fill="#353535"/><path d="m162.859 225.404-6.687 48.715 41.377 22.295 6.688-56.629-41.378-14.381Z" fill="#fff"/><path d="M157.51 265.061h-.084a.645.645 0 0 1-.529-.697l5.35-39.044a.69.69 0 0 1 .278-.446.706.706 0 0 1 .53-.056l41.377 14.38a.606.606 0 0 1 .418.641l-2.563 21.877a.582.582 0 0 1-.669.53.582.582 0 0 1-.529-.669l2.507-21.375-40.207-13.99-5.266 38.291c-.056.335-.307.558-.613.558Z" fill="#353535"/><path d="M209.309 303.354a.467.467 0 0 1-.278-.084l-53.136-28.621a.607.607 0 0 1-.251-.836.607.607 0 0 1 .836-.251l53.136 28.621c.306.168.418.53.251.836-.14.223-.335.335-.558.335Z" fill="#fff"/><path d="M217.306 174.711c-7.273-10.117-19.477-15.802-31.765-17.781-8.888-1.421-18.501-.975-26.136 3.763-7.635 4.765-12.455 14.714-9.223 23.131-6.576-2.982-15.241.223-18.334 6.772-3.065 6.549 0 15.272 6.492 18.449-3.065 7.302-.251 16.08 5.183 21.793 9.668 10.173 25.969 11.594 39.176 6.912 13.152-4.654 28.114-15.467 36.251-26.949 7.105-10.005 5.182-26.615-1.644-36.09Z" fill="#353535"/><path d="M205.239 198.399c-4.848-1.421-9.25-4.097-14.071-5.629-4.82-1.505-10.532-1.7-14.489 1.477-2.758 2.229-4.207 5.768-4.597 9.308-.391 3.539.111 7.106.64 10.618-4.346 1.393-3.789.362-6.798-2.23-2.062-1.783-4.821-2.703-7.523-2.034-3.929 1.003-6.771 4.961-6.911 9.029-.139 4.069 2.174 7.999 5.517 10.284 3.372 2.285 7.635 3.01 11.647 2.48 4.124 10.869 17.371 17.405 29.842 21.298 6.743 2.105 7 .5 13.5-2 12-11 7.454-46.358 7.593-54.58-3.734 3.373-9.501 3.4-14.35 1.979Z" fill="#fff"/><path d="M191.121 251.432c-12.5-6-16.5-8.5-21.84-16.763-.307-.808-.585-1.589-.892-2.369-4.291.474-8.387-.474-11.591-2.648-3.65-2.48-5.935-6.744-5.796-10.813.139-4.431 3.316-8.555 7.356-9.587 2.731-.696 5.74.112 8.081 2.146.668.586 1.142 1.087 1.56 1.477 1.31 1.31 1.56 1.589 4.152.781-.502-3.345-.948-6.8-.558-10.256.474-4.152 2.174-7.58 4.821-9.726 3.594-2.899 9.083-3.456 15.046-1.589 2.369.753 4.653 1.756 6.855 2.759 2.34 1.031 4.736 2.118 7.216 2.843 5.517 1.644 10.672.947 13.793-1.839a.653.653 0 0 1 .669-.112.642.642 0 0 1 .362.557c-.028 1.617.111 4.487.278 8.11.725 15.746.363 34.599-6.512 45.099-.39.595-1.201 2.54-7.5 4.43-5 1.5-12-1-15.5-2.5Zm-22.342-20.414c.251 0 .474.167.585.39.362.92.697 1.867 1.059 2.843 6.698 12.181 27.698 18.681 29.698 18.681 6 1 12.193-1.5 13.875-5.43 6.5-12.833 6.08-28.495 5.411-42.959-.139-2.843-.25-5.24-.278-6.912-3.455 2.397-8.554 2.899-13.932 1.31-2.536-.752-4.988-1.839-7.356-2.898-2.173-.976-4.43-1.979-6.715-2.704-2.647-.836-9.279-2.368-13.904 1.366-2.396 1.923-3.957 5.072-4.375 8.89-.39 3.484.14 7.023.641 10.451a.592.592 0 0 1-.418.669c-3.622 1.17-4.263.724-5.907-.948-.39-.418-.864-.864-1.477-1.421-2.034-1.784-4.653-2.48-6.994-1.895-3.538.892-6.325 4.542-6.436 8.444-.111 3.679 1.95 7.497 5.266 9.754 3.009 2.062 7.105 2.926 11.229 2.369h.028Z" fill="#353535"/><path d="M167.985 226.212a.596.596 0 0 1-.529-.306c-1.533-2.815-4.152-5.072-7.133-6.215a.622.622 0 0 1-.363-.78.623.623 0 0 1 .781-.363c3.26 1.254 6.074 3.707 7.774 6.745a.608.608 0 0 1-.251.836.476.476 0 0 1-.279.083ZM194.566 227.746c-2.313 0-4.486-.948-6.214-2.704-1.783-1.839-2.842-4.347-2.981-7.05-.251-5.602 3.622-10.368 8.638-10.591 2.452-.111 4.792.836 6.603 2.704 1.784 1.839 2.842 4.347 2.982 7.05.25 5.602-3.623 10.368-8.638 10.591h-.39Zm-.195-19.146h-.335c-4.346.195-7.69 4.375-7.467 9.308.111 2.397 1.031 4.626 2.619 6.243 1.561 1.616 3.567 2.452 5.657 2.341 4.346-.196 7.69-4.376 7.467-9.309-.111-2.396-1.031-4.626-2.619-6.242-1.449-1.505-3.344-2.341-5.322-2.341ZM218.863 226.63c-2.313 0-4.486-.947-6.214-2.703-1.783-1.839-2.842-4.347-2.981-7.051-.251-5.601 3.622-10.367 8.638-10.59 2.451-.111 4.792.836 6.603 2.703 1.783 1.84 2.842 4.348 2.982 7.051.25 5.602-3.623 10.367-8.638 10.59h-.39Zm-.167-19.145h-.335c-4.346.195-7.69 4.375-7.467 9.308.111 2.396 1.031 4.626 2.619 6.242 1.56 1.617 3.567 2.453 5.656 2.341 4.347-.195 7.691-4.375 7.468-9.308-.112-2.397-1.031-4.626-2.619-6.242-1.477-1.505-3.344-2.341-5.322-2.341Z" fill="#353535"/><path d="M202.953 217.796c-.167 0-.334-.084-.474-.195a.615.615 0 0 1 .056-.864c1.505-1.31 5.127-3.094 8.136-.335a.59.59 0 0 1 .028.864.59.59 0 0 1-.864.028c-2.953-2.703-6.353.223-6.492.334-.084.112-.251.168-.39.168ZM185.986 218.577c-.056 0-.084 0-.14-.028l-18-4.013a.626.626 0 0 1-.473-.725.624.624 0 0 1 .724-.473l18 4.041c.334.083.53.39.474.724a.597.597 0 0 1-.585.474Z" fill="#353535"/><path d="M599.598 400.475a.618.618 0 0 1-.613-.613c0-.334.278-.613.613-.613 11.73 0 21.287-9.559 21.287-21.292V18.518c0-11.733-5.557-17.292-17.287-17.292H100.795c-11.73 0-17.288 5.56-17.288 17.292v263.264a.619.619 0 0 1-.613.613.619.619 0 0 1-.613-.613V18.518C82.31 6.088 88.396 0 100.795 0h502.803c12.399 0 18.513 6.089 18.513 18.518v359.439c0 12.43-10.114 22.518-22.513 22.518Z" fill="#353535"/><path d="M606.286 52.812H98.109a.618.618 0 0 1-.613-.613c0-.334.279-.613.613-.613h508.177c.334 0 .613.279.613.613a.619.619 0 0 1-.613.613Z" fill="#353535"/><path d="M107.694 37.205c5.294 0 9.586-4.317 9.586-9.642 0-5.326-4.292-9.643-9.586-9.643-5.293 0-9.585 4.317-9.585 9.642 0 5.326 4.292 9.643 9.585 9.643Z" fill="#CCEDFB"/><path d="M135.698 37.205c5.294 0 9.585-4.317 9.585-9.642 0-5.326-4.291-9.643-9.585-9.643-5.293 0-9.585 4.317-9.585 9.642 0 5.326 4.292 9.643 9.585 9.643Z" fill="#007BB3"/><path d="M163.671 37.205c5.294 0 9.585-4.317 9.585-9.642 0-5.326-4.291-9.643-9.585-9.643-5.294 0-9.585 4.317-9.585 9.642 0 5.326 4.291 9.643 9.585 9.643Z" fill="#03A9F4"/><path d="M358.075 93.947H107.609a.619.619 0 0 1-.613-.613c0-.335.279-.613.613-.613h250.466c.335 0 .613.278.613.613a.618.618 0 0 1-.613.613Z" fill="#353535"/><path d="M322.897 101.173a8.195 8.195 0 0 0-4.748-15.684 8.193 8.193 0 0 0-5.466 10.216 8.192 8.192 0 0 0 10.214 5.468Z" fill="#fff"/><path d="M320.516 102.111c-4.848 0-8.805-3.957-8.805-8.806 0-4.85 3.957-8.807 8.805-8.807s8.805 3.957 8.805 8.807a8.789 8.789 0 0 1-8.805 8.806Zm0-16.359c-4.18 0-7.579 3.4-7.579 7.58s3.399 7.581 7.579 7.581c4.179 0 7.579-3.4 7.579-7.58s-3.4-7.58-7.579-7.58ZM358.075 120.142H107.609a.618.618 0 0 1-.613-.613c0-.334.279-.613.613-.613h250.466c.335 0 .613.279.613.613a.618.618 0 0 1-.613.613Z" fill="#353535"/><path d="M188.272 125.319a8.194 8.194 0 0 0 0-11.587 8.19 8.19 0 0 0-11.585 0 8.194 8.194 0 0 0 0 11.587 8.19 8.19 0 0 0 11.585 0Z" fill="#fff"/><path d="M182.477 128.308c-4.848 0-8.805-3.957-8.805-8.806 0-4.849 3.957-8.807 8.805-8.807s8.805 3.958 8.805 8.807-3.957 8.806-8.805 8.806Zm0-16.359c-4.18 0-7.579 3.4-7.579 7.581 0 4.18 3.399 7.58 7.579 7.58 4.179 0 7.579-3.4 7.579-7.58 0-4.181-3.4-7.581-7.579-7.581ZM358.075 146.34H107.609a.62.62 0 0 1-.613-.614c0-.334.279-.613.613-.613h250.466c.335 0 .613.279.613.613a.618.618 0 0 1-.613.614Z" fill="#353535"/><path d="M255.339 153.293a8.194 8.194 0 0 0-6.27-15.14 8.195 8.195 0 0 0-4.434 10.706 8.191 8.191 0 0 0 10.704 4.434Z" fill="#fff"/><path d="M252.192 154.506c-4.849 0-8.805-3.958-8.805-8.807s3.956-8.806 8.805-8.806c4.848 0 8.805 3.957 8.805 8.806 0 4.877-3.957 8.807-8.805 8.807Zm0-16.359c-4.18 0-7.579 3.4-7.579 7.58s3.399 7.58 7.579 7.58c4.179 0 7.579-3.4 7.579-7.58s-3.4-7.58-7.579-7.58Z" fill="#353535"/><rect x="395.5" y="30.496" width="349" height="131" rx="9.5" fill="#CCEDFB" stroke="#353535"/><rect x="493.5" y="188.496" width="251" height="249" rx="9.5" fill="#fff" stroke="#353535"/><path fill="#fff" d="M433 76.004h27v63h-27zM515.5 92.004h27v47h-27zM599 58.004h25v81h-25z"/><path d="M459.636 139.651h-26.164a.619.619 0 0 1-.613-.613V76.472c0-.334.279-.613.613-.613h26.164c.335 0 .613.28.613.614v62.565a.618.618 0 0 1-.613.613Zm-25.551-1.226h24.938v-61.34h-24.938v61.34Z" fill="#353535"/><path d="M500.82 105.428h-26.164v33.61h26.164v-33.61Z" fill="#007BB3"/><path d="M501.433 139.651h-27.39v-34.837h27.39v34.837Zm-26.164-1.227h24.938v-32.383h-24.938v32.383Z" fill="#007BB3"/><path d="M542 139.651h-26.164a.618.618 0 0 1-.613-.613V92.33c0-.334.278-.613.613-.613H542c.334 0 .613.279.613.613v46.68a.625.625 0 0 1-.613.641Zm-25.551-1.226h24.938V92.943h-24.938v45.482Z" fill="#353535"/><path d="M583.184 71.873H557.02v67.164h26.164V71.873Z" fill="#03A9F4"/><path d="M583.769 139.65h-27.39V71.26h27.39v68.39Zm-26.136-1.226h24.938V72.486h-24.938v65.938Z" fill="#007BB3"/><path d="M623.698 139.651h-24.855a.619.619 0 0 1-.613-.613v-81.21c0-.335.279-.613.613-.613h24.855c.334 0 .613.278.613.613v81.21a.619.619 0 0 1-.613.613Zm-24.242-1.226h23.629V58.441h-23.629v79.984Z" fill="#353535"/><path d="M665.519 53.508h-26.164v85.501h26.164V53.508Z" fill="#007BB3"/><path d="M666.132 139.65h-27.39V52.894h27.39v86.756Zm-26.164-1.226h24.938V54.121h-24.938v84.303Z" fill="#007BB3"/><path d="M706.703 64.182h-26.164v74.855h26.164V64.182Z" fill="#03A9F4"/><path d="M707.316 139.65h-27.39V63.568h27.39v76.082Zm-26.164-1.226h24.938v-73.63h-24.938v73.63ZM532.484 216.804a4.848 4.848 0 1 0-9.436-2.228 4.848 4.848 0 1 0 9.436 2.228Z" fill="#007BB3"/><path d="M715.456 216.263H540.5a.618.618 0 0 1-.613-.613c0-.334.278-.613.613-.613h174.956c.334 0 .612.279.612.613a.6.6 0 0 1-.612.613Z" fill="#353535"/><path d="M532.244 234.501a4.848 4.848 0 1 0-6.335 2.624 4.848 4.848 0 0 0 6.335-2.624Z" fill="#007BB3"/><path d="M715.456 233.263H540.5a.618.618 0 0 1-.613-.613c0-.334.278-.613.613-.613h174.956c.334 0 .612.279.612.613a.6.6 0 0 1-.612.613Z" fill="#353535"/><path d="M619.185 325.788v-69.784c38.284 0 69.352 31.241 69.352 69.784 0 38.542-31.04 69.783-69.352 69.783-38.285 0-69.353-31.241-69.353-69.783 0-11.65 2.842-22.63 7.858-32.3l61.495 32.3Z" fill="#fff"/><path d="m557.69 293.515 61.495-37.511c38.284 0 69.352 31.241 69.352 69.784 0 38.542-31.04 69.783-69.352 69.783-38.285 0-69.353-31.241-69.353-69.783 0-11.65 2.842-22.63 7.858-32.273Z" fill="#fff"/><path d="M619.184 396.212c-38.563 0-69.965-31.575-69.965-70.397 0-11.315 2.73-22.574 7.913-32.578a.648.648 0 0 1 .223-.251l61.495-37.512a.56.56 0 0 1 .306-.083c38.564 0 69.966 31.575 69.966 70.396 0 38.822-31.374 70.425-69.938 70.425Zm-61.021-102.251a69.797 69.797 0 0 0-7.718 31.854c0 38.153 30.845 69.171 68.739 69.171 37.895 0 68.74-31.018 68.74-69.171 0-38.097-30.734-69.087-68.545-69.17l-61.216 37.316Z" fill="#353535"/><path d="M557.691 293.515c11.592-22.295 34.774-37.511 61.495-37.511v69.784l-61.495-32.273Z" fill="#03A9F4"/><path d="m619.799 326.818-62.916-33.052.278-.53c12.121-23.326 35.889-37.818 62.025-37.818h.613v71.4Zm-61.272-33.554 60.046 31.52v-68.168c-25.245.223-48.148 14.213-60.046 36.648Z" fill="#007BB3"/><path d="M642.707 349.334c13.003-13.006 13.003-34.092 0-47.098-13.003-13.005-34.085-13.005-47.088 0-13.004 13.006-13.004 34.092 0 47.098 13.003 13.006 34.085 13.006 47.088 0Z" fill="#fff"/><path d="M619.183 359.733c-18.696 0-33.91-15.216-33.91-33.916 0-18.7 15.214-33.917 33.91-33.917 18.697 0 33.91 15.217 33.91 33.917 0 18.7-15.213 33.916-33.91 33.916Zm0-66.634c-18.027 0-32.684 14.659-32.684 32.69s14.657 32.69 32.684 32.69c18.028 0 32.685-14.659 32.685-32.69 0-18.003-14.685-32.69-32.685-32.69Z" fill="#353535"/><mask id="b" fill="#fff"><path d="M189 456h160c5.523 0 10 4.477 10 10v22H199c-5.523 0-10-4.477-10-10v-22Z"/></mask><path d="M189 456h170-170Zm170 33H199c-6.075 0-11-4.925-11-11h2a9 9 0 0 0 9 9h160v2Zm-160 0c-6.075 0-11-4.925-11-11v-22h2v22a9 9 0 0 0 9 9v2Zm160-33v32-32Z" fill="#353535" mask="url(#b)"/></g><defs><clipPath id="a"><path fill="#fff" d="M0 0h745.631v510H0z"/></clipPath></defs></svg>