<svg width="352" height="306" fill="none" xmlns="http://www.w3.org/2000/svg"><path d="M133.513 234.088c8.517 0 15.447-6.966 15.447-15.529 0-8.562-6.93-15.528-15.447-15.528-8.518 0-15.448 6.966-15.448 15.528 0 8.563 6.93 15.529 15.448 15.529Zm0-20.705c2.839 0 5.149 2.322 5.149 5.176s-2.31 5.177-5.149 5.177c-2.84 0-5.15-2.323-5.15-5.177 0-2.854 2.31-5.176 5.15-5.176ZM175.754 234.088c8.518 0 15.447-6.966 15.447-15.529 0-8.562-6.929-15.528-15.447-15.528-8.518 0-15.447 6.966-15.447 15.528 0 8.563 6.929 15.529 15.447 15.529Zm0-20.705c2.839 0 5.149 2.322 5.149 5.176s-2.31 5.177-5.149 5.177c-2.84 0-5.149-2.323-5.149-5.177 0-2.854 2.309-5.176 5.149-5.176ZM217.995 234.088c8.518 0 15.447-6.966 15.447-15.529 0-8.562-6.929-15.528-15.447-15.528-8.518 0-15.447 6.966-15.447 15.528 0 8.563 6.929 15.529 15.447 15.529Zm0-20.705c2.84 0 5.149 2.322 5.149 5.176s-2.309 5.177-5.149 5.177c-2.839 0-5.149-2.323-5.149-5.177 0-2.854 2.31-5.176 5.149-5.176ZM184.399 102.863h-13.95c-5.662 0-10.268 4.631-10.268 10.322v8.145c0 5.691 4.606 10.321 10.268 10.321h30.842c13.016 0 23.605-10.645 23.605-23.73v-.904h2.386c6.918 0 12.545-5.658 12.545-12.612V73.75c0-6.954-5.627-12.611-12.545-12.611h-11.938c-.474-21.548-18.045-38.933-39.591-38.933s-39.117 17.385-39.59 38.933h-11.939c-6.917 0-12.545 5.657-12.545 12.611v20.656c0 6.954 5.628 12.612 12.545 12.612h17.066c2.843 0 5.149-2.318 5.149-5.177V62.027c0-16.25 13.15-29.47 29.315-29.47 16.164 0 29.315 13.22 29.315 29.47v39.813c0 2.859 2.305 5.177 5.149 5.177h4.381v.904c0 7.377-5.97 13.378-13.307 13.378h-6.625v-8.114c-.001-5.691-4.607-10.322-10.268-10.322Zm-48.258-6.199h-11.916a2.255 2.255 0 0 1-2.247-2.259V73.75a2.255 2.255 0 0 1 2.247-2.259h11.916v25.174ZM229.53 73.75v20.656a2.255 2.255 0 0 1-2.247 2.26h-11.916V71.49h11.916a2.256 2.256 0 0 1 2.247 2.26Zm-59.081 39.467 13.919-.031v8.114h-.133c-.059 0-.117.007-.176.009l-13.58.022-.03-8.114Z" fill="#95DBFA"/><path d="M343.601 251.213H330.43V64.66c0-9.79-7.923-17.755-17.662-17.755h-46.603a77.704 77.704 0 0 0-4.584-8.936 5.133 5.133 0 0 0-7.066-1.766c-2.437 1.473-3.223 4.654-1.758 7.104 6.297 10.52 9.624 22.607 9.624 34.955v3.861c0 37.446-30.304 67.91-67.553 67.91a9.602 9.602 0 0 0-8.301 4.818l-10.773 18.762-10.775-18.762a9.603 9.603 0 0 0-8.301-4.818c-37.248 0-67.552-30.464-67.552-67.91v-3.86c0-37.446 30.304-67.91 67.552-67.91h38.153c17.708 0 34.444 6.838 47.126 19.255a5.13 5.13 0 0 0 7.281-.097 5.196 5.196 0 0 0-.096-7.32C234.526 7.88 215.237 0 194.831 0h-38.153c-31.84 0-59.272 19.319-71.32 46.905h-46.62c-9.739 0-17.661 7.965-17.661 17.755v186.554H7.907C3.546 251.213 0 254.779 0 259.162v19.743C0 293.845 12.09 306 26.952 306l78.099-.001c2.844 0 39.449-5.499 39.449-5.499s-35.656-4.853-38.5-4.853l-79.048.001c-9.183-.001-16.654-7.512-16.654-16.743v-17.339h90.446l4.307 13.722c1.531 4.874 5.975 8.149 11.06 8.149h119.286c5.084 0 9.529-3.275 11.059-8.15l4.308-13.722h90.446v20.79c0 9.8-8.603 13.292-16.655 13.292H87.337c-2.843 0-5.149 2.317-5.149 5.176s2.306 5.176 5.15 5.176h237.217c16.121 0 26.953-9.501 26.953-23.644v-23.194c0-4.382-3.547-7.948-7.907-7.948ZM312.769 57.258c4.06 0 7.363 3.32 7.363 7.402v186.554h-13.731V84.324c0-7.314-5.918-13.263-13.191-13.263h-20.867a78.783 78.783 0 0 0-2.509-13.803h42.935ZM156.266 160.385l12.576 21.899a7.998 7.998 0 0 0 6.912 4.011 7.996 7.996 0 0 0 6.911-4.011l12.576-21.899c42.74-.222 77.439-35.244 77.439-78.261v-.71h20.528a2.905 2.905 0 0 1 2.894 2.91v166.89H55.404V84.324a2.905 2.905 0 0 1 2.894-2.91h20.528v.71c0 43.016 34.699 78.039 77.44 78.261ZM31.376 64.66c0-4.082 3.302-7.402 7.363-7.402h42.94a78.177 78.177 0 0 0-2.52 13.803H58.3c-7.275 0-13.193 5.95-13.193 13.262v166.891h-13.73V64.66Zm205.259 207.512a1.294 1.294 0 0 1-1.238.913H116.111c-.57 0-1.068-.367-1.239-.912l-3.329-10.607h128.422l-3.33 10.606Z" fill="#95DBFA"/></svg>