<svg width="70" height="70" fill="none" xmlns="http://www.w3.org/2000/svg"><path fill-rule="evenodd" clip-rule="evenodd" d="M20.744 22.252a7.298 7.298 0 0 0-7.295 7.295 7.298 7.298 0 0 0 7.295 7.296 7.298 7.298 0 0 0 7.296-7.296 7.298 7.298 0 0 0-7.296-7.295Zm0 2.918a4.379 4.379 0 0 1 4.378 4.377 4.379 4.379 0 0 1-4.378 4.378 4.379 4.379 0 0 1-4.377-4.378 4.379 4.379 0 0 1 4.377-4.377ZM31.564 46.654l-1.668-5.835a3.645 3.645 0 0 0-3.506-2.645H15.1a3.645 3.645 0 0 0-3.506 2.645l-1.668 5.835a3.645 3.645 0 0 0 3.508 4.648h14.622a3.645 3.645 0 0 0 3.508-4.648ZM27.09 41.62l1.668 5.836a.728.728 0 0 1-.702.93H13.434a.73.73 0 0 1-.702-.93L14.4 41.62a.728.728 0 0 1 .7-.53h11.29c.325 0 .611.217.7.53ZM38.252 29.545H57.22a1.46 1.46 0 0 0 0-2.918H38.252a1.46 1.46 0 0 0 0 2.918ZM38.252 35.38H57.22a1.46 1.46 0 0 0 0-2.92H38.252a1.46 1.46 0 0 0 0 2.92ZM38.252 41.211H57.22a1.46 1.46 0 0 0 0-2.918H38.252a1.46 1.46 0 0 0 0 2.918ZM38.252 47.045H57.22a1.46 1.46 0 0 0 0-2.918H38.252a1.46 1.46 0 0 0 0 2.918Z" fill="#03A9F4"/><path fill-rule="evenodd" clip-rule="evenodd" d="M28.038 16.416H6.882a3.647 3.647 0 0 0-3.648 3.648v33.558a3.647 3.647 0 0 0 3.648 3.648h56.904a3.647 3.647 0 0 0 3.647-3.648V20.064a3.647 3.647 0 0 0-3.648-3.648H42.63v-2.188a3.648 3.648 0 0 0-3.648-3.648h-7.295a3.647 3.647 0 0 0-3.648 3.648v2.188Zm35.748 2.918H6.881a.729.729 0 0 0-.73.73v33.558c0 .403.327.73.73.73h56.904a.73.73 0 0 0 .729-.73V20.064a.729.729 0 0 0-.73-.73ZM39.71 16.416v-2.188a.729.729 0 0 0-.73-.73h-7.295a.729.729 0 0 0-.73.73v2.188h8.755Z" fill="#03A9F4"/></svg>