<svg width="70" height="70" fill="none" xmlns="http://www.w3.org/2000/svg"><path d="M61.25 10.478h-.1V11.772H65.438c.849 0 1.54.691 1.54 1.54V52.5c0 .85-.691 1.54-1.54 1.54H4.562c-.849 0-1.54-.69-1.54-1.54V13.312c0-.849.691-1.54 1.54-1.54H8.85V10.478H4.562a2.838 2.838 0 0 0-2.834 2.835V52.5a2.838 2.838 0 0 0 2.835 2.834h60.874a2.838 2.838 0 0 0 2.835-2.834V13.312a2.838 2.838 0 0 0-2.835-2.834H61.25Z" fill="#03A9F4" stroke="#03A9F4" stroke-width=".2"/><path d="M61.25 14.666h-.1V15.959H62.344c.246 0 .447.202.447.447v30.625c0 .246-.2.447-.447.447H7.656a.448.448 0 0 1-.447-.447V16.406c0-.245.2-.447.447-.447H8.85V14.666H7.656c-.96 0-1.74.78-1.74 1.74v30.625c0 .96.78 1.74 1.74 1.74h54.688c.96 0 1.74-.78 1.74-1.74V16.406c0-.96-.78-1.74-1.74-1.74H61.25Z" fill="#03A9F4" stroke="#03A9F4" stroke-width=".2"/><path d="M10.29 5.469v37.187c0 .96.782 1.74 1.741 1.74H57.97c.96 0 1.74-.78 1.74-1.74V5.47c0-.96-.78-1.74-1.74-1.74H12.03c-.96 0-1.74.78-1.74 1.74Zm48.126 37.187c0 .246-.2.447-.447.447H12.03a.448.448 0 0 1-.447-.447V11.584h46.832v31.072Zm0-37.187v4.822H11.584V5.469c0-.246.2-.447.447-.447H57.97c.246 0 .447.201.447.447Z" fill="#03A9F4" stroke="#03A9F4" stroke-width=".2"/><path d="M55.781 9.397c.96 0 1.74-.781 1.74-1.74 0-.96-.78-1.741-1.74-1.741s-1.74.78-1.74 1.74.78 1.74 1.74 1.74Zm0-2.188a.448.448 0 0 1 0 .894.448.448 0 0 1 0-.894ZM51.406 9.397c.96 0 1.74-.781 1.74-1.74 0-.96-.78-1.741-1.74-1.741s-1.74.78-1.74 1.74.78 1.74 1.74 1.74Zm0-2.188a.448.448 0 0 1 0 .894.448.448 0 0 1 0-.894ZM47.031 9.397c.96 0 1.74-.781 1.74-1.74 0-.96-.78-1.741-1.74-1.741s-1.74.78-1.74 1.74.78 1.74 1.74 1.74Zm0-2.188a.448.448 0 0 1 0 .894.448.448 0 0 1 0-.894ZM13.125 7.01h-.1V8.302H30.725V7.01h-17.6ZM40.203 56.98l.597 3.624H29.202l.606-3.62.017-.1-.099-.016-1.078-.181-.099-.017-.017.099-.642 3.835h-3.828a2.837 2.837 0 0 0-2.834 2.834v1.094c0 .96.781 1.74 1.74 1.74h24.063c.96 0 1.74-.78 1.74-1.74v-1.094a2.837 2.837 0 0 0-2.834-2.834h-3.826l-.633-3.833-.016-.099-.098.017-1.079.177-.098.016.016.099Zm7.275 7.552c0 .246-.2.447-.447.447H22.97a.448.448 0 0 1-.447-.447v-1.094c0-.849.691-1.54 1.54-1.54h21.875c.85 0 1.541.691 1.541 1.54v1.094ZM62.344 49.666h-4.375c-.96 0-1.74.78-1.74 1.74s.78 1.74 1.74 1.74h4.375c.96 0 1.74-.78 1.74-1.74s-.78-1.74-1.74-1.74Zm0 2.187h-4.375a.448.448 0 0 1 0-.894h4.375a.448.448 0 0 1 0 .894ZM51.853 51.406c0 .96.781 1.74 1.74 1.74.96 0 1.741-.78 1.741-1.74s-.78-1.74-1.74-1.74-1.74.78-1.74 1.74Zm2.188 0a.448.448 0 0 1-.894 0 .448.448 0 0 1 .894 0ZM47.843 38.064a.647.647 0 0 0-.61-.43H38.08a.647.647 0 0 0-.61.43A2.637 2.637 0 0 1 35 39.822a2.635 2.635 0 0 1-2.47-1.758.647.647 0 0 0-.609-.43h-9.154a.647.647 0 0 0-.609.43 2.637 2.637 0 0 1-2.47 1.758 2.638 2.638 0 0 1-2.635-2.635 2.638 2.638 0 0 1 2.634-2.634c1.102 0 2.096.706 2.471 1.758.092.258.335.43.61.43h9.152a.647.647 0 0 0 .61-.43A2.637 2.637 0 0 1 35 34.553c1.101 0 2.095.706 2.47 1.758.093.258.336.43.61.43h9.153a.647.647 0 0 0 .609-.43 2.637 2.637 0 0 1 2.47-1.758 2.638 2.638 0 0 1 2.635 2.635 2.638 2.638 0 0 1-2.635 2.634 2.635 2.635 0 0 1-2.469-1.758Zm2.47-4.805a3.93 3.93 0 0 0-3.507 2.188h-8.3A3.93 3.93 0 0 0 35 33.259a3.93 3.93 0 0 0-3.507 2.188h-8.299a3.93 3.93 0 0 0-3.506-2.188 3.932 3.932 0 0 0-3.929 3.928 3.932 3.932 0 0 0 3.928 3.929 3.93 3.93 0 0 0 3.507-2.188h8.3A3.927 3.927 0 0 0 35 41.116a3.93 3.93 0 0 0 3.507-2.188h8.3a3.927 3.927 0 0 0 3.505 2.188 3.932 3.932 0 0 0 3.929-3.928 3.932 3.932 0 0 0-3.928-3.929Z" fill="#03A9F4" stroke="#03A9F4" stroke-width=".2"/><path d="M50.313 35.447c-.96 0-1.741.78-1.741 1.74s.78 1.741 1.74 1.741 1.741-.78 1.741-1.74-.78-1.741-1.74-1.741Zm0 2.187a.448.448 0 0 1 0-.893.448.448 0 0 1 0 .893ZM35.986 26.608a.647.647 0 0 0-.54.637v1.192a.448.448 0 0 1-.893 0v-1.192a.647.647 0 0 0-.54-.637 5.89 5.89 0 0 1-4.929-5.827A5.923 5.923 0 0 1 35 14.866a5.923 5.923 0 0 1 5.916 5.915 5.89 5.89 0 0 1-4.93 5.827Zm-8.195-5.827a7.18 7.18 0 0 0 5.468 6.99v.666c0 .96.781 1.741 1.741 1.741.96 0 1.74-.78 1.74-1.74v-.667a7.18 7.18 0 0 0 5.47-6.99c0-3.975-3.235-7.21-7.21-7.21s-7.21 3.235-7.21 7.21ZM20.674 26.608a.647.647 0 0 0-.54.637v1.192a.448.448 0 0 1-.893 0v-1.192a.647.647 0 0 0-.54-.637 5.89 5.89 0 0 1-4.93-5.827 5.923 5.923 0 0 1 5.916-5.915 5.923 5.923 0 0 1 5.916 5.915 5.89 5.89 0 0 1-4.93 5.827Zm-8.196-5.827a7.18 7.18 0 0 0 5.469 6.99v.666c0 .96.78 1.741 1.74 1.741s1.741-.78 1.741-1.74v-.667a7.18 7.18 0 0 0 5.469-6.99c0-3.975-3.234-7.21-7.21-7.21-3.975 0-7.209 3.235-7.209 7.21ZM51.299 26.608a.647.647 0 0 0-.54.637v1.192a.448.448 0 0 1-.893 0v-1.192a.647.647 0 0 0-.54-.637 5.89 5.89 0 0 1-4.93-5.827 5.923 5.923 0 0 1 5.916-5.915 5.923 5.923 0 0 1 5.916 5.915 5.89 5.89 0 0 1-4.93 5.827Zm-8.196-5.827a7.18 7.18 0 0 0 5.469 6.99v.666c0 .96.78 1.741 1.74 1.741s1.741-.78 1.741-1.74v-.667a7.18 7.18 0 0 0 5.469-6.99c0-3.975-3.234-7.21-7.21-7.21-3.975 0-7.209 3.235-7.209 7.21Z" fill="#03A9F4" stroke="#03A9F4" stroke-width=".2"/><path d="M47.031 21.975a1.194 1.194 0 1 0 0-2.388 1.194 1.194 0 0 0 0 2.388ZM50.313 21.975a1.194 1.194 0 1 0 0-2.387 1.194 1.194 0 0 0 0 2.387ZM53.594 21.975a1.194 1.194 0 1 0 0-2.388 1.194 1.194 0 0 0 0 2.388ZM35 35.447c-.96 0-1.74.78-1.74 1.74s.78 1.741 1.74 1.741 1.74-.78 1.74-1.74-.78-1.741-1.74-1.741Zm0 2.187a.448.448 0 0 1 0-.893.448.448 0 0 1 0 .893ZM19.688 35.447c-.96 0-1.741.78-1.741 1.74s.78 1.741 1.74 1.741 1.741-.78 1.741-1.74-.78-1.741-1.74-1.741Zm0 2.187a.448.448 0 0 1 0-.893.448.448 0 0 1 0 .893ZM19.05 23.426h.001l4.375-4.375.07-.07-.07-.071-.773-.774-.071-.07-.07.07-3.919 3.917-1.73-1.73-.07-.07-.07.07-.774.774-.07.07.07.071 2.187 2.188a.647.647 0 0 0 .915 0ZM34.363 23.426l4.376-4.375.07-.07-.07-.071-.774-.774-.07-.07-.071.07-3.918 3.917-1.73-1.73-.07-.07-.071.07-.774.774-.07.07.07.071 2.188 2.188a.647.647 0 0 0 .914 0Z" fill="#03A9F4" stroke="#03A9F4" stroke-width=".2"/></svg>