<svg width="70" height="70" fill="none" xmlns="http://www.w3.org/2000/svg"><g clip-path="url(#a)" fill="#03A9F4"><path d="m68.515 22.847-9.015-6.36v-8.32a3.5 3.5 0 0 0-3.5-3.5H42.72L36.996.63a3.46 3.46 0 0 0-3.998 0L27.28 4.667h-7.645a3.5 3.5 0 0 0-2.482 1.03l-5.623 5.62a3.523 3.523 0 0 0-.713 1.023c-.21.459-.319.957-.317 1.462v2.683l-9.022 6.368A3.536 3.536 0 0 0 0 25.713V66.5A3.5 3.5 0 0 0 3.5 70h63a3.5 3.5 0 0 0 3.5-3.5V25.714a3.541 3.541 0 0 0-1.485-2.867ZM67.667 66.5c0 .027-.014.05-.016.076l-28.235-19.91 28.25-19.921V66.5Zm-65.334 0V26.745l28.252 19.922L2.35 66.577c-.002-.027-.016-.05-.016-.077Zm32.004-19.622a1.142 1.142 0 0 1 1.321 0l29.49 20.789H4.852l29.485-20.789ZM66.806 24.5 59.5 29.65V19.344l7.306 5.156Zm-9.64-16.333v23.127L37.392 45.24l-.395-.276a3.461 3.461 0 0 0-3.997 0l-.39.274-19.776-13.944V14H17.5a2.334 2.334 0 0 0 2.333-2.333V7H56a1.167 1.167 0 0 1 1.167 1.167ZM34.338 2.545a1.146 1.146 0 0 1 1.32 0l3.015 2.122h-7.343l3.008-2.122ZM17.5 8.65v3.017h-3.017L17.5 8.65Zm-7 21L3.194 24.5l7.306-5.156V29.65Z"/><path d="M35.001 9.334a9.333 9.333 0 1 0 0 18.667h8.167a1.167 1.167 0 0 0 0-2.334h-8.167a7 7 0 1 1 7-7v1.167a1.166 1.166 0 1 1-2.333 0v-3.5a1.167 1.167 0 0 0-1.167-1.167c-.122.005-.243.03-.358.073a4.666 4.666 0 1 0 .026 6.834 3.484 3.484 0 0 0 6.166-2.24v-1.167A9.344 9.344 0 0 0 35 9.334Zm0 11.667a2.333 2.333 0 1 1 0-4.667 2.333 2.333 0 0 1 0 4.667ZM19.832 31.5a1.167 1.167 0 0 0 1.167 1.167h28a1.167 1.167 0 1 0 0-2.333h-28a1.167 1.167 0 0 0-1.167 1.167ZM43.168 35H26.835a1.167 1.167 0 1 0 0 2.333h16.333a1.167 1.167 0 1 0 0-2.333ZM38.499 39.666h-7a1.167 1.167 0 1 0 0 2.333h7a1.167 1.167 0 1 0 0-2.333Z"/></g><defs><clipPath id="a"><path fill="#fff" d="M0 0h70v70H0z"/></clipPath></defs></svg>