<svg width="64" height="70" fill="none" xmlns="http://www.w3.org/2000/svg"><path d="M47.992 24.352h-26.13a1.025 1.025 0 0 0 0 2.05h26.13a1.025 1.025 0 1 0 0-2.05ZM47.992 28.754h-26.13a1.025 1.025 0 0 0 0 2.05h26.13a1.025 1.025 0 0 0 0-2.05ZM17.151 15.419c0 .566.46 1.025 1.025 1.025h15.73a2.05 2.05 0 0 0 2.05-2.048v-3.66a2.05 2.05 0 0 0-2.05-2.049h-23.87a2.05 2.05 0 0 0-2.048 2.049v3.66a2.05 2.05 0 0 0 2.049 2.048h3.342a1.025 1.025 0 0 0 0-2.05l-3.34.002-.002-3.658 23.867-.002.003 3.657h-15.73c-.567 0-1.026.46-1.026 1.026Z" fill="#03A9F4"/><path d="M55.25 45.535c-.567 0-1.026.46-1.026 1.026v16.194a5.2 5.2 0 0 1-5.194 5.194H7.975a5.2 5.2 0 0 1-5.194-5.194V7.245a5.2 5.2 0 0 1 5.194-5.194c33.043.028 31.214-.068 31.857.074v9.96a4.362 4.362 0 0 0 4.357 4.358h9.96c.048.216.075.438.075.664v8.77a1.025 1.025 0 0 0 2.05 0v-8.77a5.07 5.07 0 0 0-1.494-3.61L42.777 1.496A5.07 5.07 0 0 0 39.167 0H7.976C3.981 0 .73 3.25.73 7.245v55.51C.73 66.75 3.98 70 7.975 70H49.03c3.995 0 7.245-3.25 7.245-7.245V46.56c0-.566-.46-1.025-1.026-1.025Zm-2.476-31.143H44.19a2.309 2.309 0 0 1-2.306-2.306V3.5l10.891 10.891Z" fill="#03A9F4"/><path d="M61.904 29.527a4.68 4.68 0 0 0-6.612 0l-7.583 7.584H21.86a1.025 1.025 0 0 0 0 2.05h23.797l-2.352 2.352H21.861a1.025 1.025 0 0 0 0 2.051h19.395l-6.307 6.306H21.861a1.025 1.025 0 0 0 0 2.051h11.037l-2.351 2.352H21.86a1.025 1.025 0 0 0 0 2.05h6.665a8.164 8.164 0 0 0-1.47 2.432l-2.162 5.61a1.682 1.682 0 0 0 2.173 2.172l5.609-2.161a8.26 8.26 0 0 0 2.833-1.842l6.21-6.21h6.273a1.025 1.025 0 0 0 0-2.051H43.77l2.351-2.352h1.871a1.025 1.025 0 0 0 .166-2.036l13.746-13.746a4.68 4.68 0 0 0 0-6.612ZM31.938 62.463l-4.831 1.861 1.862-4.831a5.98 5.98 0 0 1 .247-.556l3.279 3.278a6.026 6.026 0 0 1-.556.248Zm2.223-1.482L30.45 57.27l20.184-20.184 3.711 3.711-20.184 20.184Zm21.634-21.634-3.71-3.711 1.69-1.691 3.712 3.71-1.692 1.692Zm4.659-4.658-1.517 1.517-3.712-3.712 1.517-1.517a2.628 2.628 0 0 1 3.712 0 2.627 2.627 0 0 1 0 3.712Z" fill="#03A9F4"/></svg>