<svg width="80" height="80" fill="none" xmlns="http://www.w3.org/2000/svg"><mask id="a" maskUnits="userSpaceOnUse" x="6" y="6" width="68" height="68" fill="#000"><path fill="#fff" d="M6 6h68v68H6z"/><path d="M43.383 39.116c.217 0 .433-.031.66-.083l12.784-3.422a2.458 2.458 0 0 0 1.763-1.773 2.468 2.468 0 0 0-.65-2.412l-.824-.835 5.384-5.384c.402-.402.015-1.08-.387-1.482-.402-.402-.834-.204-1.236.198l-5.947 5.946a1.026 1.026 0 0 0 0 1.454l1.557 1.556c.154.155.134.33.113.423a.4.4 0 0 1-.31.31l-12.783 3.421a.403.403 0 0 1-.423-.113.416.416 0 0 1-.113-.422l3.423-12.773a.45.45 0 0 1 .309-.32.434.434 0 0 1 .423.114l1.556 1.557a1.027 1.027 0 0 0 1.454 0l8.825-8.825a1.026 1.026 0 0 0 0-1.453l-1.557-1.557a.434.434 0 0 1-.113-.422.4.4 0 0 1 .31-.31l12.783-3.422a.396.396 0 0 1 .423.113.44.44 0 0 1 .113.423l-3.423 12.783a.4.4 0 0 1-.309.309.433.433 0 0 1-.423-.113l-1.556-1.557a1.027 1.027 0 0 0-1.454 0l-3.32 3.32a1.027 1.027 0 1 0 1.454 1.453l2.588-2.588.835.825c.639.64 1.546.876 2.412.65a2.461 2.461 0 0 0 1.763-1.763l3.423-12.773c.237-.876 0-1.783-.64-2.422a2.44 2.44 0 0 0-2.412-.64L57.085 10.52a2.493 2.493 0 0 0-1.774 1.763c-.237.866.01 1.773.65 2.412l.835.835-7.371 7.37-.825-.834a2.462 2.462 0 0 0-2.413-.65 2.488 2.488 0 0 0-1.773 1.773l-3.423 12.772c-.237.877.01 1.773.65 2.413a2.403 2.403 0 0 0 1.742.742Z"/><path d="M58.652 48.486a3.487 3.487 0 0 0-2.97-1 3.48 3.48 0 0 0-2.587 1.763l-2.34 4.175a4.283 4.283 0 0 1-3.176 2.175 4.313 4.313 0 0 1-3.66-1.226L25.63 36.095a4.318 4.318 0 0 1-1.237-3.66 4.264 4.264 0 0 1 2.175-3.174l4.176-2.34a3.47 3.47 0 0 0 1.763-2.588 3.487 3.487 0 0 0-1-2.968l-13.3-13.33a3.546 3.546 0 0 0-2.69-1.03 3.49 3.49 0 0 0-2.547 1.299c-8.64 10.68-7.815 26.07 1.907 35.79l5.114 5.114a1.027 1.027 0 1 0 1.453-1.454l-5.113-5.113a24.668 24.668 0 0 1-3.856-29.987l14.186 14.184-1.093.619a6.36 6.36 0 0 0-3.216 4.69 6.341 6.341 0 0 0 1.814 5.402l18.28 18.277a6.343 6.343 0 0 0 5.401 1.814 6.323 6.323 0 0 0 4.691-3.216l.619-1.103 14.186 14.184a24.674 24.674 0 0 1-29.99-3.855L26.63 52.93a1.027 1.027 0 1 0-1.453 1.453l10.732 10.731C41.136 70.34 47.992 73 54.879 73a26.67 26.67 0 0 0 16.825-5.969 3.479 3.479 0 0 0 1.288-2.546c.052-1-.32-1.99-1.03-2.69l-13.31-13.309ZM13.63 10.881c.31-.433.608-.866.938-1.279.258-.32.629-.505 1.052-.525.412-.031.835.134 1.123.433l13.31 13.318c.33.33.474.774.412 1.237a1.45 1.45 0 0 1-.732 1.072l-1.196.67L13.63 10.882Zm56.785 54.552c-.412.34-.856.64-1.278.939L54.219 51.465l.67-1.195a1.45 1.45 0 0 1 1.072-.732c.454-.062.907.082 1.237.412l13.32 13.319c.3.299.454.7.433 1.123-.03.413-.216.784-.536 1.041Z"/></mask><path d="M43.383 39.116c.217 0 .433-.031.66-.083l12.784-3.422a2.458 2.458 0 0 0 1.763-1.773 2.468 2.468 0 0 0-.65-2.412l-.824-.835 5.384-5.384c.402-.402.015-1.08-.387-1.482-.402-.402-.834-.204-1.236.198l-5.947 5.946a1.026 1.026 0 0 0 0 1.454l1.557 1.556c.154.155.134.33.113.423a.4.4 0 0 1-.31.31l-12.783 3.421a.403.403 0 0 1-.423-.113.416.416 0 0 1-.113-.422l3.423-12.773a.45.45 0 0 1 .309-.32.434.434 0 0 1 .423.114l1.556 1.557a1.027 1.027 0 0 0 1.454 0l8.825-8.825a1.026 1.026 0 0 0 0-1.453l-1.557-1.557a.434.434 0 0 1-.113-.422.4.4 0 0 1 .31-.31l12.783-3.422a.396.396 0 0 1 .423.113.44.44 0 0 1 .113.423l-3.423 12.783a.4.4 0 0 1-.309.309.433.433 0 0 1-.423-.113l-1.556-1.557a1.027 1.027 0 0 0-1.454 0l-3.32 3.32a1.027 1.027 0 1 0 1.454 1.453l2.588-2.588.835.825c.639.64 1.546.876 2.412.65a2.461 2.461 0 0 0 1.763-1.763l3.423-12.773c.237-.876 0-1.783-.64-2.422a2.44 2.44 0 0 0-2.412-.64L57.085 10.52a2.493 2.493 0 0 0-1.774 1.763c-.237.866.01 1.773.65 2.412l.835.835-7.371 7.37-.825-.834a2.462 2.462 0 0 0-2.413-.65 2.488 2.488 0 0 0-1.773 1.773l-3.423 12.772c-.237.877.01 1.773.65 2.413a2.403 2.403 0 0 0 1.742.742Z" fill="#03A9F4"/><path d="M58.652 48.486a3.487 3.487 0 0 0-2.97-1 3.48 3.48 0 0 0-2.587 1.763l-2.34 4.175a4.283 4.283 0 0 1-3.176 2.175 4.313 4.313 0 0 1-3.66-1.226L25.63 36.095a4.318 4.318 0 0 1-1.237-3.66 4.264 4.264 0 0 1 2.175-3.174l4.176-2.34a3.47 3.47 0 0 0 1.763-2.588 3.487 3.487 0 0 0-1-2.968l-13.3-13.33a3.546 3.546 0 0 0-2.69-1.03 3.49 3.49 0 0 0-2.547 1.299c-8.64 10.68-7.815 26.07 1.907 35.79l5.114 5.114a1.027 1.027 0 1 0 1.453-1.454l-5.113-5.113a24.668 24.668 0 0 1-3.856-29.987l14.186 14.184-1.093.619a6.36 6.36 0 0 0-3.216 4.69 6.341 6.341 0 0 0 1.814 5.402l18.28 18.277a6.343 6.343 0 0 0 5.401 1.814 6.323 6.323 0 0 0 4.691-3.216l.619-1.103 14.186 14.184a24.674 24.674 0 0 1-29.99-3.855L26.63 52.93a1.027 1.027 0 1 0-1.453 1.453l10.732 10.731C41.136 70.34 47.992 73 54.879 73a26.67 26.67 0 0 0 16.825-5.969 3.479 3.479 0 0 0 1.288-2.546c.052-1-.32-1.99-1.03-2.69l-13.31-13.309ZM13.63 10.881c.31-.433.608-.866.938-1.279.258-.32.629-.505 1.052-.525.412-.031.835.134 1.123.433l13.31 13.318c.33.33.474.774.412 1.237a1.45 1.45 0 0 1-.732 1.072l-1.196.67L13.63 10.882Zm56.785 54.552c-.412.34-.856.64-1.278.939L54.219 51.465l.67-1.195a1.45 1.45 0 0 1 1.072-.732c.454-.062.907.082 1.237.412l13.32 13.319c.3.299.454.7.433 1.123-.03.413-.216.784-.536 1.041Z" fill="#03A9F4"/><path d="M43.383 39.116c.217 0 .433-.031.66-.083l12.784-3.422a2.458 2.458 0 0 0 1.763-1.773 2.468 2.468 0 0 0-.65-2.412l-.824-.835 5.384-5.384c.402-.402.015-1.08-.387-1.482-.402-.402-.834-.204-1.236.198l-5.947 5.946a1.026 1.026 0 0 0 0 1.454l1.557 1.556c.154.155.134.33.113.423a.4.4 0 0 1-.31.31l-12.783 3.421a.403.403 0 0 1-.423-.113.416.416 0 0 1-.113-.422l3.423-12.773a.45.45 0 0 1 .309-.32.434.434 0 0 1 .423.114l1.556 1.557a1.027 1.027 0 0 0 1.454 0l8.825-8.825a1.026 1.026 0 0 0 0-1.453l-1.557-1.557a.434.434 0 0 1-.113-.422.4.4 0 0 1 .31-.31l12.783-3.422a.396.396 0 0 1 .423.113.44.44 0 0 1 .113.423l-3.423 12.783a.4.4 0 0 1-.309.309.433.433 0 0 1-.423-.113l-1.556-1.557a1.027 1.027 0 0 0-1.454 0l-3.32 3.32a1.027 1.027 0 1 0 1.454 1.453l2.588-2.588.835.825c.639.64 1.546.876 2.412.65a2.461 2.461 0 0 0 1.763-1.763l3.423-12.773c.237-.876 0-1.783-.64-2.422a2.44 2.44 0 0 0-2.412-.64L57.085 10.52a2.493 2.493 0 0 0-1.774 1.763c-.237.866.01 1.773.65 2.412l.835.835-7.371 7.37-.825-.834a2.462 2.462 0 0 0-2.413-.65 2.488 2.488 0 0 0-1.773 1.773l-3.423 12.772c-.237.877.01 1.773.65 2.413a2.403 2.403 0 0 0 1.742.742Z" stroke="#03A9F4" stroke-width=".4" mask="url(#a)"/><path d="M58.652 48.486a3.487 3.487 0 0 0-2.97-1 3.48 3.48 0 0 0-2.587 1.763l-2.34 4.175a4.283 4.283 0 0 1-3.176 2.175 4.313 4.313 0 0 1-3.66-1.226L25.63 36.095a4.318 4.318 0 0 1-1.237-3.66 4.264 4.264 0 0 1 2.175-3.174l4.176-2.34a3.47 3.47 0 0 0 1.763-2.588 3.487 3.487 0 0 0-1-2.968l-13.3-13.33a3.546 3.546 0 0 0-2.69-1.03 3.49 3.49 0 0 0-2.547 1.299c-8.64 10.68-7.815 26.07 1.907 35.79l5.114 5.114a1.027 1.027 0 1 0 1.453-1.454l-5.113-5.113a24.668 24.668 0 0 1-3.856-29.987l14.186 14.184-1.093.619a6.36 6.36 0 0 0-3.216 4.69 6.341 6.341 0 0 0 1.814 5.402l18.28 18.277a6.343 6.343 0 0 0 5.401 1.814 6.323 6.323 0 0 0 4.691-3.216l.619-1.103 14.186 14.184a24.674 24.674 0 0 1-29.99-3.855L26.63 52.93a1.027 1.027 0 1 0-1.453 1.453l10.732 10.731C41.136 70.34 47.992 73 54.879 73a26.67 26.67 0 0 0 16.825-5.969 3.479 3.479 0 0 0 1.288-2.546c.052-1-.32-1.99-1.03-2.69l-13.31-13.309ZM13.63 10.881c.31-.433.608-.866.938-1.279.258-.32.629-.505 1.052-.525.412-.031.835.134 1.123.433l13.31 13.318c.33.33.474.774.412 1.237a1.45 1.45 0 0 1-.732 1.072l-1.196.67L13.63 10.882Zm56.785 54.552c-.412.34-.856.64-1.278.939L54.219 51.465l.67-1.195a1.45 1.45 0 0 1 1.072-.732c.454-.062.907.082 1.237.412l13.32 13.319c.3.299.454.7.433 1.123-.03.413-.216.784-.536 1.041Z" stroke="#03A9F4" stroke-width=".4" mask="url(#a)"/></svg>