<svg width="70" height="70" fill="none" xmlns="http://www.w3.org/2000/svg"><g clip-path="url(#a)" fill="#03A9F4"><path d="M68 27.097a2 2 0 0 0 2-2v-8.162a5.652 5.652 0 0 0-5.645-5.645H32.328a15.73 15.73 0 0 0-.63-1.203l.667-1.334a2 2 0 0 0-.375-2.308l-2.304-2.306a2 2 0 0 0-2.31-.375l-1.333.667a15.623 15.623 0 0 0-3.98-1.655l-.47-1.41A2 2 0 0 0 19.696 0h-3.261a2 2 0 0 0-1.898 1.367l-.47 1.41a15.581 15.581 0 0 0-3.979 1.654l-1.336-.667a2 2 0 0 0-2.308.375L4.139 6.443a2 2 0 0 0-.375 2.31l.667 1.333a15.621 15.621 0 0 0-1.655 3.98l-1.41.47A2 2 0 0 0 0 16.433v3.261a2 2 0 0 0 1.367 1.898l1.41.47a15.583 15.583 0 0 0 1.654 3.98l-.667 1.335a2 2 0 0 0 .375 2.308l2.306 2.306a2 2 0 0 0 2.308.375l1.334-.667a15.646 15.646 0 0 0 4.195 1.71l1.524 2.047V58.71H4.258a2 2 0 0 0-2 2v3.645A5.652 5.652 0 0 0 7.903 70h47.42a5.652 5.652 0 0 0 5.645-5.645v-7.903H68a2 2 0 0 0 2-2V31.355a2 2 0 0 0-2-2h-7.032v-2.258H68Zm-.258-10.162v6.904a1 1 0 0 1-1 1h-5.774v-7.903a3.392 3.392 0 0 1 3.387-3.388 3.392 3.392 0 0 1 3.387 3.388ZM15.593 31.389l-.412-.09c-1.57-.341-3.06-.96-4.427-1.84l-.54-.348-1.66.83a1 1 0 0 1-1.155-.187L6.376 28.73a1 1 0 0 1-.187-1.154l.83-1.66-.348-.54a13.448 13.448 0 0 1-1.84-4.428l-.136-.628-1.753-.584a1 1 0 0 1-.684-.948V17.34a1 1 0 0 1 .684-.948l1.753-.585.136-.629c.341-1.57.96-3.06 1.84-4.426l.348-.541-.83-1.657a1 1 0 0 1 .187-1.155L7.4 6.376a1 1 0 0 1 1.154-.187l1.66.83.54-.348a13.449 13.449 0 0 1 4.428-1.84l.628-.136.584-1.753a1 1 0 0 1 .948-.684h1.448a1 1 0 0 1 .948.684l.586 1.753.628.136c1.57.341 3.06.96 4.426 1.84l.541.348 1.66-.83a1 1 0 0 1 1.154.187l1.023 1.023a1 1 0 0 1 .188 1.154l-.83 1.66.348.54c.15.233-.033.538-.309.538h-1.58c-.314 0-.608-.149-.808-.391a11.262 11.262 0 0 0-8.7-4.126c-6.225 0-11.29 5.065-11.29 11.29 0 5.237 3.563 9.696 8.504 10.944a.69.69 0 0 1 .528.661v1.649a.118.118 0 0 1-.213.07Zm.213-14.453v5.033a4.529 4.529 0 0 1-2.258-3.904c0-2.046 1.378-3.76 3.249-4.312a5.606 5.606 0 0 0-.99 3.184Zm4.046-5.385a6.762 6.762 0 0 0-1.788-.26 6.781 6.781 0 0 0-6.774 6.774c0 2.89 1.855 5.426 4.517 6.37v2.37a9.012 9.012 0 0 1-6.775-8.74c0-4.98 4.052-9.032 9.032-9.032 2.227 0 4.338.821 5.97 2.258h-2.582c-.56 0-1.09.108-1.6.26ZM7.903 67.742a3.392 3.392 0 0 1-3.387-3.387v-2.387a1 1 0 0 1 1-1h43.161a1 1 0 0 1 1 1v2.387c0 1.27.422 2.443 1.132 3.387H7.903ZM37.13 54.194a1 1 0 0 1-1-1V36.129h31.613v17.065a1 1 0 0 1-1 1H37.129ZM67.742 33.87H36.129v-1.258a1 1 0 0 1 1-1h29.613a1 1 0 0 1 1 1v1.258ZM35.87 29.355a2 2 0 0 0-2 2v23.097a2 2 0 0 0 2 2H58.71v7.903a3.392 3.392 0 0 1-3.387 3.387 3.392 3.392 0 0 1-3.388-3.387V60.71a2 2 0 0 0-2-2h-31.87V16.936a3.392 3.392 0 0 1 3.387-3.388h38.416a5.589 5.589 0 0 0-1.158 3.388v12.419H35.87Z"/><path d="m47.752 39.848-5.315 5.314 5.315 5.314 1.596-1.596-3.718-3.718 3.718-3.718-1.596-1.596ZM54.523 41.444l3.718 3.718-3.718 3.718 1.597 1.596 5.314-5.314-5.314-5.314-1.597 1.596ZM49.695 51.754l2.255-13.549 2.227.37-2.254 13.55-2.228-.371ZM20.324 18.805a1 1 0 0 1 1-1h.258a1 1 0 0 1 1 1v.258a1 1 0 0 1-1 1h-.258a1 1 0 0 1-1-1v-.258ZM24.84 18.805a1 1 0 0 1 1-1h29.613a1 1 0 0 1 1 1v.258a1 1 0 0 1-1 1H25.84a1 1 0 0 1-1-1v-.258ZM20.324 24.063a1 1 0 0 1 1-1h34.13a1 1 0 0 1 1 1v.258a1 1 0 0 1-1 1h-34.13a1 1 0 0 1-1-1v-.259ZM20.324 29.32a1 1 0 0 1 1-1h9.29a1 1 0 0 1 1 1v.258a1 1 0 0 1-1 1h-9.29a1 1 0 0 1-1-1v-.258ZM20.324 34.578a1 1 0 0 1 1-1h9.29a1 1 0 0 1 1 1v.258a1 1 0 0 1-1 1h-9.29a1 1 0 0 1-1-1v-.258Z"/></g><defs><clipPath id="a"><path fill="#fff" d="M0 0h70v70H0z"/></clipPath></defs></svg>