<svg width="525" height="526" fill="none" xmlns="http://www.w3.org/2000/svg"><path d="M44.142 267.21C84.321 226.298 8.62 150.097 27.443 95.035 52.783 20.908 258.95-42.65 397.665 38.05c116.196 67.586 156.546 219.704 105.778 281.186-15.18 18.407-34.093 23.296-58.926 42.544-23.1 17.901-25.7 22.474-27.364 25.586-16.446 30.741 18.122 57.725 11.171 84.127-10.987 41.659-120.852 63.886-212.727 49.787-24.777-3.795-150.328-25.934-196.503-117.778-3.574-7.109-37.383-75.765-5.566-113.963 11.031-13.271 19.906-11.417 30.614-22.329Z" fill="#CCEDFB"/><path d="M493.507 64.698H78.971c-9.273 0-17.446 7.515-18.255 16.788L29.159 443.655c-.81 9.273 6.053 16.787 15.326 16.787h414.537c9.273 0 17.445-7.514 18.255-16.787l31.557-362.17c.803-9.272-6.054-16.787-15.327-16.787Z" fill="#95DBFA"/><path d="M485.314 64.698H70.777c-9.273 0-17.446 7.515-18.249 16.788L20.971 443.655c-.81 9.273 6.053 16.787 15.326 16.787h414.537c9.273 0 17.445-7.514 18.249-16.787l31.557-362.17c.809-9.272-6.053-16.787-15.326-16.787Z" fill="#fff"/><path d="M40.478 220.713h-.082a.93.93 0 0 1-.646-.335.94.94 0 0 1-.214-.696L51.554 81.404C52.4 71.669 61.042 63.75 70.75 63.75H91.79a.95.95 0 0 1 0 1.898H70.776c-8.792-.013-16.54 7.14-17.306 15.92L41.42 219.846a.94.94 0 0 1-.942.867ZM235.3 65.635H102.918a.949.949 0 1 1 0-1.898H235.3a.949.949 0 1 1 0 1.898ZM36.297 461.392a16.105 16.105 0 0 1-12.155-5.239 16.096 16.096 0 0 1-4.12-12.579l8.02-92.034a.952.952 0 1 1 1.898.165l-8.027 92.033a14.203 14.203 0 0 0 8.507 14.605 14.193 14.193 0 0 0 5.877 1.151.949.949 0 0 1 0 1.898Z" fill="#353535"/><path d="M473.804 132.816H70.589a.949.949 0 0 1 0-1.898h403.215a.948.948 0 1 1 0 1.898Z" fill="#95DBFA"/><path d="M244.156 430.606h-.089a.942.942 0 0 1-.86-1.025l30.045-344.97a.955.955 0 0 1 1.031-.867.951.951 0 0 1 .867 1.03l-30.039 344.94a.95.95 0 0 1-.955.892ZM345.993 430.606h-.082a.937.937 0 0 1-.821-.657.936.936 0 0 1-.039-.368l30.07-344.97a.955.955 0 0 1 1.031-.867.951.951 0 0 1 .867 1.03l-30.058 344.94a.955.955 0 0 1-.968.892ZM142.316 430.606h-.082a.945.945 0 0 1-.867-1.025l30.045-344.97a.95.95 0 0 1 1.031-.867.95.95 0 0 1 .867 1.03l-30.052 344.94a.944.944 0 0 1-.942.892Z" fill="#95DBFA"/><path d="M258.123 120.311h-75.904l2.359-27.053h75.898l-2.353 27.053Z" fill="#03A9F4"/><path d="M360.588 120.311h-75.904l2.359-27.053h75.904l-2.359 27.053Z" fill="#0888C2"/><path d="M155.658 120.311H79.754l2.36-27.053h75.897l-2.353 27.053ZM463.05 120.311h-75.898l2.353-27.053h75.904l-2.359 27.053ZM437.792 410.15h-75.897l8.792-100.921h75.904l-8.799 100.921ZM341.402 340.47h-75.898l8.792-100.927h75.898l-8.792 100.927ZM144.792 218.859h-73.62l5.516-63.336h73.626l-5.522 63.336Z" fill="#03A9F4"/><path d="M101.126 182.22c4.085-3.911 4.491-10.117.906-13.862-3.585-3.745-9.803-3.61-13.888.301-4.086 3.911-4.492 10.117-.907 13.862 3.585 3.745 9.803 3.61 13.889-.301Z" fill="#fff"/><path d="M134.159 209.353H81.867l1.404-16.111h52.292l-1.404 16.111Z" fill="#CCEDFB"/><path d="M452.189 218.859h-73.627l5.523-63.336h73.62l-5.516 63.336Z" fill="#03A9F4"/><path d="M408.52 182.229c4.086-3.911 4.492-10.118.907-13.862-3.585-3.745-9.803-3.611-13.889.3-4.085 3.911-4.491 10.118-.906 13.863 3.585 3.745 9.803 3.61 13.888-.301Z" fill="#fff"/><path d="M441.557 209.353h-52.291l1.404-16.111h52.285l-1.398 16.111Z" fill="#CCEDFB"/><path d="M241.177 314.783h-75.904l13.878-159.26h75.904l-13.878 159.26Z" fill="#0888C2"/><path d="M239.948 209.118h-55.03l3.618-41.532h55.03l-3.618 41.532ZM238.55 225.147h-55.03l.936-10.759h55.03l-.936 10.759Z" fill="#CCEDFB"/><path d="M197.821 248.389c4.086-3.911 4.491-10.117.907-13.862-3.585-3.745-9.804-3.61-13.889.301-4.086 3.911-4.491 10.117-.907 13.862 3.585 3.745 9.804 3.61 13.889-.301Z" fill="#fff"/><path d="M231.669 304.106h-55.587l3.618-41.539h55.587l-3.618 41.539Z" fill="#CCEDFB"/><path d="M349.725 218.859h-73.627l5.515-63.336h73.627l-5.515 63.336Z" fill="#03A9F4"/><path d="M296.216 209.024h-11.544l3.77-43.221h11.537l-3.763 43.221ZM311.76 209.024h-11.537l3.763-43.221h11.538l-3.764 43.221ZM327.315 209.024h-11.538l3.764-43.221h11.537l-3.763 43.221ZM342.862 209.024h-11.538l3.77-43.221h11.538l-3.77 43.221Z" fill="#CCEDFB"/><path d="M296.216 209.024h-11.544l.67-7.698h11.544l-.67 7.698ZM311.76 209.024h-11.537l1.005-11.538h11.538l-1.006 11.538ZM327.315 209.024h-11.538l3.15-36.162h11.538l-3.15 36.162ZM342.862 209.024h-11.538l2.518-28.888h11.537l-2.517 28.888Z" fill="#fff"/><path d="M76.314 309.887c-6.28 4.889-15.572 12.113-28.767 11.841-2.094-.044-19.134-.633-26.971-13.385-1.031-1.676-5.731-9.31-3.1-16.414 2.802-7.59 11.418-7.774 11.829-12.65.544-6.503-14.466-8.04-17.218-17.319-2.98-10.038 9.419-25.422 23.296-32.727 16.756-8.799 32.342-4.074 35.922-12.778 2.074-5.06-2.568-8.077-.253-14.959 2.473-7.331 11.518-15.08 19.513-12.385 5.06 1.72 9.147 7.47 8.672 12.695-.563 6.401-7.52 7.369-11.461 13.011-10.02 14.384 16.332 35.182 11.386 62.374-3.157 17.42-17.509 28.546-22.848 32.696Z" fill="#353535"/><path d="M103.915 234.85s7.996 2.846 17.838 15.598 32.012 13.46 39.179 4.7c7.167-8.761 6.382-11.177 6.382-11.177l2.619 7.508s-2.1 37.825-36.232 32c-7.021-1.202-17.078-3.435-21.24-7.072-15.971-14.055-8.546-41.557-8.546-41.557Z" fill="#0888C2"/><path d="M118.581 292.492c-7.666-31.253 2.05-44.422-8.944-54.081-10.057-8.856-27.483-5.978-35.023-4.738-8.552 1.404-15.636 2.568-20.456 7.995a14.928 14.928 0 0 0-2.809 4.555c-9.21 17.331-1.746 35.232 2.86 43.499.758 33.145-12.367 43.107-3.726 55.384 9.355 13.284 32.486 12.651 44.631 9.982 4.263-.93 28.148-6.68 33.607-23.891 3.573-11.284-4.504-15.712-10.14-38.705Z" fill="#0888C2"/><path d="M109.054 282.195s19.697-7.18 25.852-20.311l12.682-11.816s-.183 5.693-3.947 8.097c0 0 3.232 6.509-1.537 11 0 0-3.58 2.846-5.693 2.897 0 0-6.243 20.513-23.106 26.623a29.997 29.997 0 0 1-4.251-16.49Z" fill="#fff"/><path d="M113.284 299.634a.933.933 0 0 1-.791-.43 30.63 30.63 0 0 1-4.39-17.078.954.954 0 0 1 .633-.842c.196-.069 19.412-7.204 25.301-19.823a.966.966 0 0 1 .215-.291l12.682-11.816a.951.951 0 0 1 1.45.192.948.948 0 0 1 .144.529c0 .24-.221 5.598-3.732 8.406.728 1.974 2.17 7.382-2.049 11.386l-.063.051c-.355.278-3.264 2.53-5.579 3.017-1.189 3.51-7.806 20.962-23.505 26.648a.922.922 0 0 1-.316.051Zm-3.309-16.775a29.384 29.384 0 0 0 3.72 14.656c15.661-6.192 21.727-25.529 21.79-25.731a.96.96 0 0 1 .886-.671c1.309-.031 3.795-1.638 5.111-2.663 4.149-3.947 1.423-9.627 1.309-9.867a.953.953 0 0 1 .342-1.221c1.739-1.101 2.619-3.081 3.061-4.706l-10.512 9.798c-5.782 12.088-22.291 19.071-25.707 20.405ZM91.299 305.567c-16.56 0-26.086-8.223-26.212-8.337a.947.947 0 0 1-.076-1.341.952.952 0 0 1 1.34-.075c.165.145 16.788 14.415 44.474 4.143a.944.944 0 0 1 .673.089.946.946 0 0 1-.04 1.688 57.82 57.82 0 0 1-20.16 3.833ZM101.36 283.353c-14.46 0-22.879-8.223-27.49-15.491a50.825 50.825 0 0 1-6.863-17.647.96.96 0 1 1 1.898-.291 49.772 49.772 0 0 0 6.616 16.971c6.901 10.835 16.927 15.667 29.786 14.358a.956.956 0 0 1 1.044.854.956.956 0 0 1-.854 1.044 44.172 44.172 0 0 1-4.137.202Z" fill="#353535"/><path d="m160.478 234.091-16.111 57.358 18.888-5.459 17.742-56.516-20.519 4.617Z" fill="#fff"/><path d="M144.365 292.398a.95.95 0 0 1-.911-1.208l16.105-57.358a.96.96 0 0 1 .708-.671l20.519-4.617a.97.97 0 0 1 .911.284.937.937 0 0 1 .203.924l-17.743 56.523a.947.947 0 0 1-.632.632l-18.888 5.459a.96.96 0 0 1-.272.032Zm16.87-57.51-15.497 55.176 16.762-4.845 17.078-54.461-18.343 4.13Z" fill="#353535"/><path d="M170.711 262.479s4.851-5.104 5.971-9.153c1.12-4.048-5.971-12.954-5.971-12.954v22.107Z" fill="#fff"/><path d="M170.714 263.428a.98.98 0 0 1-.347-.07.954.954 0 0 1-.601-.879v-22.107a.955.955 0 0 1 1.695-.595c.753.949 7.356 9.419 6.142 13.808-1.177 4.226-5.997 9.33-6.199 9.545a.947.947 0 0 1-.69.298Zm.949-20.178v16.686c1.461-1.79 3.467-4.542 4.112-6.863.575-2.106-1.797-6.458-4.112-9.823ZM112.461 273.011h-.139a.955.955 0 0 1-.803-1.082c2.53-17.458-5.396-27.249-5.472-27.344a.954.954 0 0 1 1.48-1.208c.355.423 8.571 10.544 5.896 28.837a.951.951 0 0 1-.962.797ZM112.72 425.147c0 3.72-8.647.222-19.52 2.625-15.814 3.492-23.79-3.048-23.79-6.761s11.885-2.594 23.062-2.594c11.177 0 20.248 3.011 20.248 6.73Z" fill="#353535"/><path d="M103.34 415.273 55.438 478.9l-7.641-6.762s19.874-51.539 37.32-56.536l12.998-7.925 5.225 7.596Z" fill="#fff"/><path d="M55.44 479.849a.929.929 0 0 1-.633-.241l-7.634-6.755a.967.967 0 0 1-.26-1.057c.816-2.112 20.134-51.798 37.845-57.067l12.89-7.862a.94.94 0 0 1 1.265.272l5.207 7.59a.964.964 0 0 1 0 1.107l-47.921 63.633a.947.947 0 0 1-.633.373l-.126.007Zm-6.515-7.977 6.376 5.636 46.87-62.26-4.307-6.325-12.233 7.457a.908.908 0 0 1-.228.101c-15.826 4.555-34.17 49.585-36.478 55.391Z" fill="#353535"/><path d="M87.055 408.12s-8.502 18.014-6.123 37.762c2.378 19.748 12.24 54.17 12.24 54.17h12.239l-2.878-94.247-15.478 2.315Z" fill="#fff"/><path d="M105.409 501.001h-12.24a.95.95 0 0 1-.91-.684c-.095-.348-9.905-34.726-12.271-54.322-2.385-19.792 6.123-38.097 6.205-38.28a.962.962 0 0 1 .721-.538l15.478-2.296a.918.918 0 0 1 .747.209.929.929 0 0 1 .341.695l2.878 94.248a.964.964 0 0 1-.265.689.956.956 0 0 1-.684.279Zm-11.518-1.898h10.544l-2.821-92.192-13.916 2.069c-1.265 2.909-7.938 19.267-5.831 36.788 2.17 17.919 10.626 48.382 12.024 53.335Z" fill="#353535"/><path d="M131.241 510.622c-3.194-4.719-15.18-12.309-26.054-17.958H99.45a2.585 2.585 0 0 0-1.958.918 2.588 2.588 0 0 0-.572 2.087l.411 2.441-3.947-3.618a2.06 2.06 0 0 0-2.843.038c-.25.245-.434.55-.534.886-.918 3.048-2.1 7.913-2.006 12.555a3.47 3.47 0 0 0 2.075 3.106c4.194 1.847 21.013 6.496 38.047 5.769a3.971 3.971 0 0 0 1.992-.638 3.99 3.99 0 0 0 1.809-3.609 3.984 3.984 0 0 0-.683-1.977Z" fill="#353535"/><path d="M126.503 514.151c-22.872 0-36.902-6.718-37.509-7.015a.96.96 0 0 1-.547-.536.947.947 0 0 1 .61-1.262.956.956 0 0 1 .76.096c.151.07 15.3 7.306 39.172 6.794a.948.948 0 1 1 .038 1.897c-.86.019-1.702.026-2.524.026ZM109.201 505.581a.956.956 0 0 1-.911-1.215c.069-.228 1.682-5.693 5.769-7.445a.936.936 0 0 1 .726-.008.939.939 0 0 1 .52.508.943.943 0 0 1 .008.726.96.96 0 0 1-.508.52c-3.27 1.398-4.675 6.18-4.687 6.224a.953.953 0 0 1-.917.69ZM116.283 508.224h-.12a.942.942 0 0 1-.822-1.062c.632-5.061 4.029-6.731 4.174-6.8a.95.95 0 0 1 1.311 1.165.951.951 0 0 1-.482.543c-.12.063-2.625 1.366-3.125 5.332a.941.941 0 0 1-.936.822Z" fill="#fff"/><path d="m60.213 473.942-3.992-2.979a2.426 2.426 0 0 0-2-.423 2.44 2.44 0 0 0-1.617 1.251l-.956 1.828-.847-4.655a1.894 1.894 0 0 0-2.101-1.53c-.318.04-.62.159-.879.347a38.31 38.31 0 0 0-8.134 7.862 3.1 3.1 0 0 0-.183 3.34c2.005 3.574 11.53 15.946 24.105 24.593a3.567 3.567 0 0 0 5.58-2.777c.259-5.085-4.22-16.952-8.976-26.857Z" fill="#353535"/><path d="M66.219 502.38a.944.944 0 0 1-.55-.177c-17.711-12.746-24.631-26.016-24.916-26.567a.949.949 0 1 1 1.689-.866c.07.133 7.002 13.435 24.333 25.896a.947.947 0 0 1-.556 1.72v-.006ZM56.655 485.637a.93.93 0 0 1-.76-.373.957.957 0 0 1 .184-1.335c.177-.127 4.308-3.201 8.223-2.239a.952.952 0 0 1 .623.418.94.94 0 0 1 .126.74.95.95 0 0 1-1.198.682c-3.043-.746-6.585 1.898-6.623 1.898a.958.958 0 0 1-.575.209ZM60.289 491.33a.942.942 0 0 1-.633-.266.95.95 0 0 1 0-1.341c3.207-3.302 6.598-2.676 6.743-2.644a.95.95 0 0 1-.367 1.86c-.114 0-2.568-.418-5.01 2.106a.968.968 0 0 1-.733.285ZM70.514 421.289c2.966-20.279-1.898-53.006-6.737-85.67 0 0 21.21-25.365 40.217-23.898 12.284.943 11.487 23.898 11.487 23.898l-3.524 89.528s-15.813-7.445-41.443-3.858Z" fill="#fff"/><path d="M111.956 426.097a1.029 1.029 0 0 1-.405-.089c-.152-.076-15.889-7.28-40.88-3.795a.94.94 0 0 1-.804-.272.933.933 0 0 1-.265-.803c2.928-20.033-1.949-52.994-6.66-84.867l-.077-.532a.962.962 0 0 1 .209-.746c.88-1.056 21.74-25.751 41.013-24.239 13.049 1.006 12.398 23.904 12.366 24.878l-3.548 89.535a.945.945 0 0 1-.456.771.925.925 0 0 1-.493.159Zm-27.54-6.743c13.991 0 23.346 3.093 26.648 4.39l3.492-88.163c0-.215.632-22.05-10.614-22.917-17.16-1.328-36.611 20.336-39.135 23.246v.101c4.636 31.368 9.431 63.779 6.825 84.178a99.324 99.324 0 0 1 12.758-.835h.026Z" fill="#353535"/><path d="M58.95 351.767a.956.956 0 0 1-.898-.632c-.107-.329-2.65-8.135 5.06-16.162a.949.949 0 0 1 1.345-.028.95.95 0 0 1 .028 1.344c-6.907 7.198-4.636 14.163-4.617 14.232a.952.952 0 0 1-.268 1.022.95.95 0 0 1-.32.186c-.107.03-.218.043-.33.038Z" fill="#353535"/><path d="M97.41 214.28c-2.575-2.663-7.515-11.082-7.508-10.797.063 2.783-5.693 3.567-9.615 6.123-3.922 2.555 1.442 7.331 1.442 7.331s-3.858-3.068-4.497 1.037c-.373 2.378 2.435 3.106 4.687 3.283-.076.721-.164 1.6-.266 2.568a11.787 11.787 0 0 1-7.97 9.962l19.824 8.173 1.544-7.641-2.025-.835a4.434 4.434 0 0 1-2.694-3.441l-.48-5.459c.993.29 2.02.458 3.054.5a3.59 3.59 0 0 0 3.555-3.005 13.197 13.197 0 0 0-.26-6.585l1.209-1.214Z" fill="#fff"/><path d="M93.53 242.895a1.01 1.01 0 0 1-.361-.069l-19.798-8.172a.956.956 0 0 1-.59-.909.952.952 0 0 1 .647-.869 10.854 10.854 0 0 0 7.33-9.159l.165-1.632c-1.898-.272-3.232-.885-3.978-1.828a3.05 3.05 0 0 1-.633-2.441c.221-1.449.835-2.379 1.822-2.765.23-.089.474-.144.72-.164a5.581 5.581 0 0 1-.91-3.163 3.748 3.748 0 0 1 1.84-2.897 29.139 29.139 0 0 1 4.808-2.359c2.264-.943 4.428-1.834 4.377-2.954a.971.971 0 0 1 .677-.936c.733-.222.79-.133 2.252 2.182 1.568 2.48 4.49 7.091 6.211 8.856a.947.947 0 0 1 0 1.328l-.803.816c.53 2.129.568 4.35.114 6.496a4.524 4.524 0 0 1-4.479 3.795 10.105 10.105 0 0 1-1.999-.228l.361 4.156a3.487 3.487 0 0 0 2.113 2.644l2.024.835a.954.954 0 0 1 .569 1.063l-1.55 7.59a.957.957 0 0 1-.48.633.948.948 0 0 1-.45.151Zm-17.408-9.146 16.705 6.882 1.158-5.75-1.297-.531a5.395 5.395 0 0 1-3.27-4.175l-.487-5.522a.95.95 0 0 1 .335-.809.961.961 0 0 1 .854-.19c.908.275 1.848.433 2.796.468a2.645 2.645 0 0 0 2.638-2.233 12.226 12.226 0 0 0-.228-6.11.947.947 0 0 1 .228-.968l.575-.582a90.452 90.452 0 0 1-5.832-8.482l-.177-.285c-1 1.151-2.859 1.898-4.794 2.726a27.677 27.677 0 0 0-4.491 2.202 1.858 1.858 0 0 0-.993 1.454c-.12 1.601 1.847 3.745 2.53 4.371a.95.95 0 0 1-1.221 1.449c-.601-.468-1.765-1.069-2.334-.842-.405.159-.576.873-.633 1.266a1.178 1.178 0 0 0 .215.974c.506.632 1.816 1.081 3.612 1.22a.945.945 0 0 1 .848 1.044l-.26 2.568a12.793 12.793 0 0 1-6.477 9.855Z" fill="#353535"/><path d="M89.876 225.52a1.01 1.01 0 0 1-.303-.05l-1.449-.494a.935.935 0 0 1-.542-.486.95.95 0 0 1 .447-1.271.956.956 0 0 1 .728-.039l1.448.493a.953.953 0 0 1 .63 1.056.947.947 0 0 1-.94.791h-.019Z" fill="#353535"/><path d="m412.31 484.827 1.72 18.413a.878.878 0 0 1-.155.668.89.89 0 0 1-.585.357l-9.102.563a.776.776 0 0 1-.784-.74l-1.689-16.737 10.595-2.524Z" fill="#fff"/><path d="M404.142 505.776a1.726 1.726 0 0 1-1.682-1.569l-1.689-16.755a.94.94 0 0 1 .721-1.019l10.595-2.53a.944.944 0 0 1 .403-.01.948.948 0 0 1 .369.162.946.946 0 0 1 .392.683l1.727 18.413a1.932 1.932 0 0 1-.437 1.442 1.666 1.666 0 0 1-1.195.633l-9.096.569-.108-.019Zm-1.404-17.711 1.594 15.814 8.748-.544-1.619-17.319-8.723 2.049Z" fill="#353535"/><path d="M415.464 498.471c.633 2.176 1.898 8.305 2.41 12.018a4.616 4.616 0 0 1-3.346 5.111c-6.325 1.714-21.342 1.638-33.872 2.195-.86.038-2.442-.386-3.163-2.473-2.384-7.085 10.753-9.28 23.802-16.484a.74.74 0 0 1 .804.038l.563.385c2.264 1.449 6.028 1.449 8.33.057l2.6-1.568a1.257 1.257 0 0 1 1.114-.101 1.267 1.267 0 0 1 .758.822Z" fill="#0888C2"/><path d="M380.548 518.718a4.2 4.2 0 0 1-3.934-3.119c-1.942-5.762 4.598-8.608 12.872-12.214 3.498-1.518 7.457-3.245 11.385-5.408a1.72 1.72 0 0 1 1.822.101c.139.101.31.222.519.354a7.702 7.702 0 0 0 7.325.051l2.599-1.569a2.16 2.16 0 0 1 1.948-.164 2.22 2.22 0 0 1 1.316 1.467c.633 2.271 1.898 8.426 2.435 12.113a5.564 5.564 0 0 1-4.035 6.161c-4.795 1.303-14.2 1.582-24.163 1.898-3.302.101-6.717.202-9.918.348l-.171-.019Zm21.108-19.021c-3.954 2.176-7.919 3.903-11.424 5.434-8.438 3.669-13.15 5.939-11.834 9.861.632 1.803 1.897 1.841 2.201 1.828 3.219-.145 6.641-.247 9.956-.348 9.406-.278 19.14-.569 23.714-1.815a3.666 3.666 0 0 0 2.656-4.055c-.512-3.529-1.777-9.677-2.384-11.879a.302.302 0 0 0-.19-.208.293.293 0 0 0-.266 0l-2.593 1.575c-2.613 1.575-6.8 1.543-9.33-.076-.184-.101-.348-.215-.506-.317Z" fill="#353535"/><path d="M418.255 512.134v.132c.335 2.315-1.854 3.732-3.941 4.719-6.205 2.929-31.253 1.265-32.221 1.183h-.044c-.31 0-3.492 0-4.428-1.98a3.467 3.467 0 0 1-.228-.923 4.692 4.692 0 0 1 .082-1.594.753.753 0 0 1 .341-.49.752.752 0 0 1 .589-.092c4.649 1.195 15.51 1.587 26.358.392 7.211-.803 10.342-2.385 12.018-3.384a.754.754 0 0 1 .706-.04.756.756 0 0 1 .433.558c.126.437.227.956.335 1.519Z" fill="#fff"/><path d="M397.824 519.66c-7.337 0-14.377-.449-15.769-.543-.633 0-4.118-.057-5.256-2.531a4.214 4.214 0 0 1-.31-1.189 5.527 5.527 0 0 1 .101-1.897 1.735 1.735 0 0 1 .778-1.101c.193-.121.409-.201.634-.235a1.67 1.67 0 0 1 .675.033c4.282 1.1 14.858 1.606 26.016.366 6.838-.752 9.912-2.213 11.633-3.251a1.712 1.712 0 0 1 2.192.423c.168.213.284.462.338.728l.303 1.525v.164c.494 3.384-3.118 5.061-4.472 5.693-2.966 1.423-10.044 1.815-16.863 1.815Zm-15.775-2.441h.145c8.856.601 26.971 1.145 31.728-1.094 2.53-1.209 3.605-2.36 3.409-3.732l-.265-1.354c-1.898 1.113-5.257 2.606-12.177 3.378-11.221 1.265-21.936.74-26.496-.367-.057.36-.057.727 0 1.088.021.216.07.429.145.632.538 1.164 2.53 1.449 3.53 1.43l-.019.019ZM400.423 505.486a.93.93 0 0 1-.576-.196l-3.795-2.91a.951.951 0 0 1-.4-.633.942.942 0 0 1 .184-.725.95.95 0 0 1 1.032-.331.956.956 0 0 1 .335.184l3.796 2.909a.956.956 0 0 1 .321 1.057.946.946 0 0 1-.897.645ZM395.374 507.567a.967.967 0 0 1-.575-.19l-3.321-2.53a.941.941 0 0 1-.42-.631.952.952 0 0 1 .467-.993.945.945 0 0 1 .754-.078c.124.04.239.104.337.19l3.327 2.53a.952.952 0 0 1 .331 1.059.944.944 0 0 1-.9.649v-.006Z" fill="#353535"/><path d="M479.838 464.244c-20.241-47.035-28.578-105.677-30.836-119.922-2.429-15.3-9.652-29.817-9.652-29.817l-31.703 2.644s-.443-1.151.576 5.554l-20.026 1.48c-16.585 52.259 6.958 154.23 9.779 165.508a2.057 2.057 0 0 0 1.619 1.518c4.295.804 10.576.139 14.061-.354a2.534 2.534 0 0 0 2.176-2.872c-2.245-17.495.304-68.864 5.225-99.535 16.566 60.869 44.91 84.696 44.91 84.696a17.92 17.92 0 0 0 2.682 1.948c1.961.955 2.903 1.765 5.168 1.265 5.642-1.233 8.317-6.78 6.021-12.113Z" fill="#0888C2"/><path d="M404.432 492.532a27.645 27.645 0 0 1-5.016-.392 3.018 3.018 0 0 1-2.365-2.214c-.279-1.1-27.402-110.44-9.76-166.027a.941.941 0 0 1 .835-.632l18.976-1.405c-.791-5.243-.684-5.439.208-5.693.184-.053.379-.053.563 0l31.399-2.58a.943.943 0 0 1 .924.525c.076.145 7.318 14.826 9.741 30.089l.449 2.904c2.789 17.951 11.278 72.583 30.323 116.797a10.021 10.021 0 0 1-.12 8.539 9.405 9.405 0 0 1-2.721 3.185 9.41 9.41 0 0 1-3.832 1.692c-2.239.493-3.485-.158-4.934-.911a20.461 20.461 0 0 0-.854-.43 17.971 17.971 0 0 1-2.884-2.087c-.266-.222-27.433-23.556-44.031-80.914-4.345 30.134-6.723 78.086-4.56 94.918a3.528 3.528 0 0 1-2.986 3.934 70.39 70.39 0 0 1-9.355.702Zm-15.522-167.45c-17.079 55.271 9.709 163.295 9.981 164.383a1.097 1.097 0 0 0 .879.809c4.182.791 10.412.114 13.752-.354a1.606 1.606 0 0 0 1.366-1.815c-2.328-18.148.361-69.446 5.231-99.808a.944.944 0 0 1 .886-.797.976.976 0 0 1 .967.696c16.282 59.831 44.341 83.988 44.626 84.222a16.325 16.325 0 0 0 2.485 1.834c.323.158.633.31.892.456 1.392.721 2.094 1.088 3.656.74a7.597 7.597 0 0 0 5.269-3.89 8.104 8.104 0 0 0 .064-6.958c-19.116-44.41-27.655-99.219-30.451-117.234-.17-1.107-.322-2.075-.455-2.897-2.106-13.283-7.938-26.13-9.279-28.964l-30.229 2.53c.063.703.228 2.037.633 4.536a.941.941 0 0 1-.199.735.955.955 0 0 1-.674.353l-19.4 1.423Z" fill="#353535"/><path d="M421.228 393.154h-.057a.95.95 0 0 1-.892-1.006 70.687 70.687 0 0 1 5.415-21.291 44.791 44.791 0 0 0 2.979-11.557.956.956 0 0 1 1.897.253 46.706 46.706 0 0 1-3.112 12.05 69.833 69.833 0 0 0-5.237 20.659.952.952 0 0 1-.993.892Z" fill="#353535"/><path d="M410.194 364.449a7.717 7.717 0 0 1-3.163-.676l-7.54-3.378a7.093 7.093 0 0 1-4.162-6.73l.475-14.903a2.719 2.719 0 0 1 .933-1.975 2.731 2.731 0 0 1 2.084-.656c7.152.679 14.36.497 21.468-.544a2.696 2.696 0 0 1 2.227.683 2.718 2.718 0 0 1 .892 2.17l-.88 15.63a7.093 7.093 0 0 1-2.922 5.382l-4.877 3.543a7.727 7.727 0 0 1-4.535 1.454Zm-11.702-26.439a.82.82 0 0 0-.544.208.836.836 0 0 0-.291.601l-.43 14.903a5.19 5.19 0 0 0 3.061 4.927l7.534 3.39a5.856 5.856 0 0 0 5.838-.632l4.877-3.549a5.195 5.195 0 0 0 2.094-3.915l.835-15.605a.837.837 0 0 0-.949-.872 91.5 91.5 0 0 1-21.943.55l-.082-.006ZM446.567 360.933c-.44 0-.874-.106-1.265-.31l-8.299-4.238a2.769 2.769 0 0 1-1.499-2.182l-1.897-17.357a2.774 2.774 0 0 1 2.334-3.049l7.837-1.265a.97.97 0 0 1 .968.448.953.953 0 0 1 .114.727.96.96 0 0 1-.785.723l-7.837 1.265a.881.881 0 0 0-.74.974l1.898 17.357a.877.877 0 0 0 .48.695l8.293 4.238a.875.875 0 0 0 .904-.063l1.98-1.347a.951.951 0 0 1 1.086-.044.942.942 0 0 1 .421.621.95.95 0 0 1-.444.991l-1.961 1.335a2.702 2.702 0 0 1-1.588.481Z" fill="#95DBFA"/><path d="M473.871 485.295c-1.107-5.56-1.588-6.705-4.238-10.987-1.973-3.163 2.821-7.989 5.263-8.356 4.073-.841 3.422.456 8.077 6.452l3.644 4.51s-11.778 13.233-12.746 8.381Z" fill="#fff"/><path d="M474.94 487.3a1.92 1.92 0 0 1-.512-.063 2.08 2.08 0 0 1-1.487-1.759c-1.1-5.528-1.587-6.584-4.117-10.671-.804-1.265-.81-2.884 0-4.585 1.144-2.467 3.921-4.903 5.952-5.206 3.624-.753 4.364.322 6.325 3.2a61.695 61.695 0 0 0 2.619 3.606l3.637 4.497a.956.956 0 0 1 0 1.227c-2.132 2.398-8.988 9.754-12.417 9.754Zm1.727-20.64a8.693 8.693 0 0 0-1.581.234c-1.316.203-3.618 2.082-4.567 4.137-.513 1.107-.538 2.05-.082 2.79 2.77 4.465 3.257 5.737 4.364 11.297a.63.63 0 0 0 .114.297c.904.462 5.497-3.061 10.456-8.52l-3.163-3.878a72.065 72.065 0 0 1-2.688-3.713c-1.373-2.011-1.803-2.644-2.853-2.644Z" fill="#353535"/><path d="M474.941 487.3a1.928 1.928 0 0 1-.513-.063 2.074 2.074 0 0 1-1.486-1.759c-.974-4.883-1.265-6.161-3.22-9.425a.952.952 0 0 1 .34-1.285.952.952 0 0 1 1.292.318c2.1 3.517 2.448 4.978 3.447 10.019a.64.64 0 0 0 .114.297c.905.462 5.497-3.061 10.456-8.52l-2.948-3.612a38.481 38.481 0 0 1-2.922-4.333.943.943 0 0 1 .019-1.084.949.949 0 0 1 1.607.11 37.84 37.84 0 0 0 2.783 4.124l3.447 4.226a.955.955 0 0 1 0 1.265c-2.132 2.365-8.988 9.722-12.416 9.722Z" fill="#353535"/><path d="m473.229 483.208 4.719-7.147a6.33 6.33 0 0 1 4.621-2.825 6.317 6.317 0 0 1 5.113 1.787l5.396 4.554s1.031 3.125.708 5.149a42.947 42.947 0 0 1-2.897 10.121c-2.53 5.693-9.437 17.198-11.91 21.234-.513.841-1.809 1.676-2.708 1.265a12.569 12.569 0 0 1-3.251-2.353c-1.657-1.562-1.1-8.855-.512-13.96.386-3.258.101-11.582-.038-15.01a4.67 4.67 0 0 1 .759-2.815Z" fill="#0888C2"/><path d="M476.775 518.383a2.237 2.237 0 0 1-.911-.196 13.23 13.23 0 0 1-3.51-2.53c-.974-.918-2.119-3.448-.804-14.757.374-3.163.095-11.462-.044-14.865a5.626 5.626 0 0 1 .93-3.352l4.719-7.148a7.264 7.264 0 0 1 8.452-2.885 7.278 7.278 0 0 1 2.706 1.67l5.579 4.7.082.26c.044.132 1.1 3.371.74 5.597a44.06 44.06 0 0 1-2.967 10.317c-2.492 5.693-9.197 16.819-11.967 21.348a3.911 3.911 0 0 1-3.005 1.841Zm6.477-44.227h-.563a5.375 5.375 0 0 0-3.934 2.397l-4.731 7.186a3.722 3.722 0 0 0-.633 2.233c.139 3.447.424 11.834.032 15.181-1.265 10.822-.152 12.802.221 13.156a11.68 11.68 0 0 0 2.986 2.182c.303.133 1.151-.322 1.511-.91 2.145-3.505 9.337-15.384 11.848-21.114a42.003 42.003 0 0 0 2.834-9.862c.215-1.334-.298-3.472-.595-4.427l-5.237-4.428a5.364 5.364 0 0 0-3.739-1.594Z" fill="#353535"/><path d="M472.662 492.31a.946.946 0 0 1-.95-.821.945.945 0 0 1 .697-1.045l5.06-1.404a.95.95 0 1 1 .506 1.834l-5.06 1.398a.867.867 0 0 1-.253.038ZM473.046 496.858a.954.954 0 0 1-.617-.238.954.954 0 0 1-.166-1.228.95.95 0 0 1 .53-.394l5.06-1.404a.951.951 0 0 1 1.221 1.03.954.954 0 0 1-.715.798l-5.06 1.404a.87.87 0 0 1-.253.032Z" fill="#353535"/><path d="M478.191 517.7a4.418 4.418 0 0 1-1.455-.24c-1.511-.525-5.307-1.658-4.883-7.123.443-5.661 4.725-8.545 7.85-12.258 2.391-2.834 2.15-14.688 2.903-17.009 1.341-4.162 7.388-4.788 10.431-1.493 1.897 2.081 2.15 6.604 1.961 9.925-.323 6.255-3.966 18.621-8.584 24.599-2.226 2.922-5.693 3.599-8.223 3.599Z" fill="#fff"/><path d="M478.191 518.649c-.6 0-1.196-.098-1.765-.291l-.132-.045c-1.601-.55-5.851-2.011-5.383-8.045.36-4.694 3.162-7.591 5.819-10.361.765-.791 1.55-1.607 2.252-2.442 1.373-1.632 1.815-7.59 2.113-11.518.061-1.74.272-3.471.632-5.174a6.115 6.115 0 0 1 4.693-4.074 7.847 7.847 0 0 1 7.344 2.233c2.303 2.53 2.372 7.729 2.208 10.626-.336 6.022-3.935 18.812-8.792 25.125-2.663 3.447-6.75 3.966-8.989 3.966Zm9.887-40.236c-.426 0-.85.046-1.265.139a4.276 4.276 0 0 0-3.302 2.809 32.306 32.306 0 0 0-.519 4.725c-.348 4.681-.784 10.5-2.53 12.606-.74.879-1.55 1.721-2.334 2.53-2.53 2.663-4.984 5.174-5.294 9.191-.355 4.573 2.53 5.566 4.111 6.104l.133.044a3.43 3.43 0 0 0 1.145.19c1.897 0 5.307-.424 7.464-3.226 4.636-6.028 8.071-18.286 8.4-24.074.246-4.428-.38-7.787-1.714-9.235a5.854 5.854 0 0 0-4.27-1.803h-.025Z" fill="#353535"/><path d="M478.194 518.648a4.904 4.904 0 0 1-3.719-1.587 4.124 4.124 0 0 1-.955-3.346c.822-6.003 4.054-9.115 7.47-12.417 2.53-2.41 3.163-11.189 3.511-15.415.038-.937.138-1.871.297-2.796.519-1.897 2.853-3.618 5.307-3.883a5.056 5.056 0 0 1 5.262 2.827.946.946 0 0 1-.375 1.319.932.932 0 0 1-.365.106.933.933 0 0 1-.707-.235.96.96 0 0 1-.229-.304 3.192 3.192 0 0 0-1.387-1.479 3.192 3.192 0 0 0-1.997-.349c-1.821.196-3.403 1.473-3.681 2.53-.063.24-.152 1.36-.234 2.441-.373 4.801-1.063 13.726-4.086 16.636-3.308 3.194-6.174 5.958-6.908 11.31a2.226 2.226 0 0 0 .513 1.84 2.981 2.981 0 0 0 2.283.936c.544 0 1.087-.036 1.626-.107a.953.953 0 0 1 .953.472.965.965 0 0 1 .094.726.952.952 0 0 1-.447.58.967.967 0 0 1-.353.12c-.622.063-1.248.089-1.873.075Z" fill="#353535"/><path d="M397.527 229.461s3.207-1.506 2.441-6.718a.182.182 0 0 1 0-.057l-2.062-11.98 12.714-3.289 2.442 13.169a9.96 9.96 0 0 0 6.072 7.515 19.6 19.6 0 0 0 2.777.828c1.088.241 1.619 1.266.354 2.227-6.749 5.123-18.343 3.131-24.365 1.265-1.708-.544-1.936-2.138-.373-2.96Z" fill="#fff"/><path d="M410.512 235.331a46.917 46.917 0 0 1-12.891-2.012 2.738 2.738 0 0 1-2.119-2.239 2.595 2.595 0 0 1 1.55-2.486h.038c.12-.063 2.53-1.353 1.898-5.724a.825.825 0 0 1 0-.222l-2.031-11.796a.942.942 0 0 1 .702-1.076l12.708-3.289a.914.914 0 0 1 .746.12.928.928 0 0 1 .424.633l2.442 13.169a9.053 9.053 0 0 0 5.49 6.8c.857.326 1.737.59 2.631.791.422.067.816.255 1.134.54.318.285.548.655.663 1.066.082.386.145 1.379-1.069 2.296-3.46 2.619-7.983 3.429-12.316 3.429Zm-12.574-5.061c-.348.19-.563.437-.544.633.019.196.265.449.784.632 2.619.81 16.041 4.536 23.511-1.132.279-.215.354-.367.361-.405a.987.987 0 0 0-.348-.145 19.557 19.557 0 0 1-2.91-.873 10.96 10.96 0 0 1-6.667-8.223l-2.245-12.17-10.886 2.809 1.898 11.126a.902.902 0 0 1 0 .284c.765 5.428-2.524 7.287-2.929 7.464h-.025Z" fill="#353535"/><path d="M399.638 181.641c5.06.69 5.763 6.446 11.829 7.123 2.776.31 4.174-.728 6.635.461 1.632.785 4.004 2.682 4.244 5.187.31 3.195-3.163 3.884-6.736 10.032-2.499 4.32-2.651 7.211-4.637 7.521-1.986.31-2.91-2.473-5.13-2.296-2.878.234-3.251 5.06-6.287 6.496-1.898.905-5.914.715-11.569-3.536a2.389 2.389 0 0 1-.702-2.973c.632-1.322 1.486-2.979 2.416-4.503 4.428-7.249 7.559-8.476 6.958-10.696-.949-3.41-7.167-2.777-7.647-5.523-.513-2.846 5.42-8.007 10.626-7.293Z" fill="#353535"/><path d="m407.876 196.449-1.348-.708s-4.377 9.184-6.085 11.537c-1.707 2.353-9.361-2.429-9.361-2.429l-.19-1.695-.917-.633a1.11 1.11 0 0 1-.5-.828 1.116 1.116 0 0 1 .323-.911c1.847-1.841 5.762-6.009 7.666-10.07a12.32 12.32 0 0 1 10.412 5.737Z" fill="#fff"/><path d="M408.615 197.088c-.405.015-.811 0-1.214-.044a4.34 4.34 0 0 1-1.266-.436l1.329-.443a289.28 289.28 0 0 1-2.53 5.256 87.762 87.762 0 0 1-2.777 5.187c-.266.436-.513.848-.86 1.322-.253.33-.586.59-.968.753a3.201 3.201 0 0 1-1.025.24 8.173 8.173 0 0 1-3.257-.582 29.778 29.778 0 0 1-5.402-2.676.93.93 0 0 1-.437-.702c-.05-.569-.133-1.132-.158-1.701l.411.677c-.259-.203-.499-.437-.74-.665l-.101-.094a1.747 1.747 0 0 1-.152-.146 2.137 2.137 0 0 1-.253-.316 2.114 2.114 0 0 1-.291-.734 1.818 1.818 0 0 1 .342-1.48l.133-.145.088-.095.171-.177.335-.348a38.788 38.788 0 0 0 2.568-2.942 37.106 37.106 0 0 0 2.271-3.162 24.596 24.596 0 0 0 1.86-3.315.924.924 0 0 1 .797-.544c.577-.019 1.154.009 1.727.082.551.072 1.098.175 1.638.31a12.875 12.875 0 0 1 5.8 3.163c.403.383.779.793 1.126 1.227.183.209.342.437.506.633l.063.082a2.117 2.117 0 0 1 .342.734c.06.361.034.732-.076 1.081Zm-1.411-1.265a.552.552 0 0 0-.461.386.358.358 0 0 0 0 .215v.038l-.051-.069c-.152-.184-.291-.38-.449-.557a11.652 11.652 0 0 0-3.289-2.701 11.94 11.94 0 0 0-2.644-1.056 10.723 10.723 0 0 0-1.398-.285 8.794 8.794 0 0 0-1.366-.095l.803-.544a30.85 30.85 0 0 1-4.693 6.623 90.942 90.942 0 0 1-2.746 2.916l-.632.632a.433.433 0 0 0-.089.38.271.271 0 0 0 .108.164.217.217 0 0 0 .088.038h.045c.037.01.073.025.107.045.311.121.615.258.911.411a.781.781 0 0 1 .392.544v.132c.095.563.139 1.126.215 1.696l-.443-.709a28.613 28.613 0 0 0 5.061 2.423c.773.301 1.598.45 2.429.436a.752.752 0 0 0 .556-.215c.222-.31.487-.727.721-1.119.956-1.626 1.847-3.346 2.727-5.061a263.284 263.284 0 0 0 2.593-5.18.96.96 0 0 1 1.265-.443c.095.051.082.101.057.272-.021.234.033.468.152.671l.031.012Z" fill="#353535"/><path d="M404.996 203.166s3.523-4.333 5.143-2.302c1.619 2.03-2.372 6.692-5.143 2.302ZM480.575 386.209l38.218-20.653-22.657-36.427-38.218 20.658 22.657 36.422Z" fill="#fff"/><path d="M480.576 387.157a.93.93 0 0 1-.804-.449l-22.663-36.434a.957.957 0 0 1 .063-1.087.922.922 0 0 1 .291-.247l38.217-20.659a.955.955 0 0 1 1.266.335l22.657 36.421a.957.957 0 0 1 .114.747.975.975 0 0 1-.468.594l-38.218 20.653a.946.946 0 0 1-.455.126Zm-21.323-37.016 21.658 34.79 36.541-19.754-21.651-34.79-36.548 19.754Z" fill="#353535"/><path d="m472.083 355.968 22.443-12.132a3.29 3.29 0 0 0 1.668-3.395 3.247 3.247 0 0 0-4.749-2.361l-22.442 12.132a3.286 3.286 0 0 0-1.611 2.06 3.266 3.266 0 0 0 .415 2.582 3.244 3.244 0 0 0 4.276 1.114ZM478.7 366.721l22.443-12.132a3.29 3.29 0 0 0 1.668-3.395 3.247 3.247 0 0 0-4.749-2.361l-22.442 12.132a3.257 3.257 0 0 0-1.61 2.06 3.25 3.25 0 0 0-.062 1.335c.071.444.233.869.477 1.247a3.244 3.244 0 0 0 4.275 1.114Z" fill="#95DBFA"/><path d="M502.512 362.558a3.316 3.316 0 0 0 2.058 3.059 3.325 3.325 0 0 0 4.52-2.428 3.32 3.32 0 0 0-3.257-3.964 3.31 3.31 0 0 0-2.351.979 3.315 3.315 0 0 0-.97 2.354ZM491.215 368.504a3.314 3.314 0 0 0 2.059 3.059 3.313 3.313 0 0 0 3.614-.728 3.32 3.32 0 1 0-5.673-2.331Z" fill="#CCEDFB"/><path d="M467.58 325.447s6.534-1.708 8.223-.24c.436.385-.981 8.944-.513 9.374 2.233 2.049 5.693 4.699 6.452 6.622 1.145 2.973.316 7.799-.386 11.658a2.033 2.033 0 0 1-1.771 1.684 2.042 2.042 0 0 1-2.113-1.229c-.208-.512-1.41-5.294-1.619-6.414a2 2 0 0 0-.765-1.227c-.943-.702-2.954-2.669-4.339-2.72-.121 0-2.929 1.487-2.929 1.487s-1.898-4.826-.304-8.742a5.963 5.963 0 0 0 .323-2.46l-.259-7.793Z" fill="#fff"/><path d="M479.3 355.506a2.88 2.88 0 0 1-2.707-1.835c-.26-.632-1.487-5.604-1.677-6.591a1.007 1.007 0 0 0-.398-.632 12.883 12.883 0 0 1-.759-.633c-.74-.632-2.075-1.72-2.872-1.897-.449.215-1.6.809-2.625 1.353a.95.95 0 0 1-1.112-.162.944.944 0 0 1-.216-.331c-.082-.215-1.993-5.225-.297-9.444a5.073 5.073 0 0 0 .253-2.075l-.26-7.792a.951.951 0 0 1 .709-.949c1.644-.43 7.166-1.708 9.089-.038.532.468.538.968.063 5.364-.151 1.417-.373 3.504-.347 4.219.449.404.948.835 1.454 1.265 2.151 1.897 4.371 3.795 5.061 5.509 1.17 3.055.506 7.502-.342 12.17a2.993 2.993 0 0 1-2.663 2.454l-.354.045Zm-8.584-13.499h.064c1.417.045 3.017 1.379 4.193 2.347.26.221.494.411.677.55.594.44.999 1.089 1.132 1.816.222 1.176 1.398 5.787 1.575 6.236a1.007 1.007 0 0 0 1.076.633 1.09 1.09 0 0 0 .986-.905c.633-3.327 1.519-8.343.437-11.157-.487-1.266-2.714-3.195-4.504-4.751-.632-.525-1.183-1.037-1.701-1.511-.519-.475-.532-1.114-.044-5.624.145-1.353.335-3.162.335-3.871-1.019-.436-3.859-.177-6.389.405l.234 7.021a7.102 7.102 0 0 1-.386 2.847c-1.005 2.492-.442 5.484 0 7.021 1.847-.968 2.088-1.057 2.315-1.057Z" fill="#353535"/><path d="M332.943 222.06a.177.177 0 0 0 0-.24l-2.884-2.954c-2.239-2.024-2.961-6.325-2.961-6.325a7.457 7.457 0 0 0-2.53-4.15l-12.391-10.316a1.597 1.597 0 0 0-1.657-.246 1.597 1.597 0 0 0-.962 1.371c-.044.968.31 2.151 1.626 3.41l3.245 2.871a1.796 1.796 0 0 1 .348 2.271c-1.095 1.708-1.487 3.773-1.095 5.763 1.265 5.471 7.66 7.527 9.254 7.957.203.057 3.467 5.301 4.118 6.357a.168.168 0 0 0 .133.063.168.168 0 0 0 .133-.063l5.623-5.769Z" fill="#fff"/><path d="M327.212 228.873h-.12a1.092 1.092 0 0 1-.828-.519c-1.86-2.998-3.372-5.357-3.853-6.021-2.251-.633-8.311-2.929-9.639-8.578a8.714 8.714 0 0 1 1.201-6.464.838.838 0 0 0-.164-1.075l-3.239-2.872c-1.372-1.309-2.017-2.707-1.948-4.168a2.536 2.536 0 0 1 1.506-2.183 2.535 2.535 0 0 1 2.669.373l12.391 10.317a8.441 8.441 0 0 1 2.834 4.675c0 .082.708 4.029 2.676 5.8l2.922 3.004a1.116 1.116 0 0 1 0 1.563l-5.611 5.806a1.095 1.095 0 0 1-.797.342Zm-16.009-30.197a.735.735 0 0 0-.278.057.634.634 0 0 0-.374.531 3.556 3.556 0 0 0 1.285 2.682l3.213 2.84a2.752 2.752 0 0 1 .531 3.479 6.846 6.846 0 0 0-.974 5.06c1.189 5.004 7.35 6.92 8.615 7.281.437.12.569.158 4.15 5.92l4.389-4.548-2.353-2.422c-2.41-2.17-3.162-6.623-3.219-6.806a6.518 6.518 0 0 0-2.189-3.58l-12.391-10.311a.63.63 0 0 0-.405-.183Z" fill="#353535"/><path d="m327.307 227.955 7.135-7.186c.333-.175.714-.237 1.086-.175.371.061.712.243.97.517 16.224 15.737 27.079 13.081 40.065 9.804 0 0 13.333-3.131 17.034-3.479 2.783-.265 10.19-2.157 27.54-.202a52.478 52.478 0 0 1 19.248 6.079l.892.487s49.072 27.686 37.073 94.456a1.615 1.615 0 0 1-1.531 1.341h-9.855a1.61 1.61 0 0 1-1.55-1.518c-.442-6.92-3.124-33.569-16.932-50.141a3 3 0 0 0-5.175.98c-1.1 3.53-1.378 11.038 1.519 26.851.088.481 3.738 19.134 3.738 19.134s-38.401 6.617-51.786 4.2c-10.582-1.897-13.776-4.529-14.649-5.541a1.064 1.064 0 0 1-.253-.835l1.55-13.599c.556-4.927 1.897-14.137.303-25.877-2.207-16.142-11.803-15.839-11.803-15.839-12.233-.79-32.683 2.752-45.378-37.534a1.663 1.663 0 0 1 .759-1.923ZM306.276 479.476H162.558a6.03 6.03 0 0 1-6.104-6.686l8.957-102.805a7.44 7.44 0 0 1 7.268-6.686h143.717a6.034 6.034 0 0 1 4.564 1.963 6.017 6.017 0 0 1 1.54 4.723l-8.956 102.805a7.436 7.436 0 0 1-7.268 6.686Z" fill="#353535"/><path d="M306.277 480.424H162.559a6.949 6.949 0 0 1-5.272-2.262 6.961 6.961 0 0 1-1.78-5.455l8.981-102.824a8.42 8.42 0 0 1 8.223-7.553h143.687a6.966 6.966 0 0 1 5.272 2.263 6.953 6.953 0 0 1 1.78 5.454l-8.956 102.825a8.419 8.419 0 0 1-8.217 7.552ZM172.68 364.247a6.494 6.494 0 0 0-6.326 5.819l-8.937 102.806a5.057 5.057 0 0 0 3.045 5.253 5.07 5.07 0 0 0 2.116.402h143.699a6.486 6.486 0 0 0 6.325-5.82l8.957-102.824a5.056 5.056 0 0 0-3.045-5.253 5.039 5.039 0 0 0-2.116-.402l-143.718.019Z" fill="#353535"/><path d="M298.628 479.476H154.929a6.033 6.033 0 0 1-4.564-1.962 6.032 6.032 0 0 1-1.54-4.724l8.957-102.805a7.44 7.44 0 0 1 7.268-6.686h143.698a6.034 6.034 0 0 1 4.564 1.963 6.026 6.026 0 0 1 1.54 4.723l-8.956 102.805a7.436 7.436 0 0 1-7.268 6.686Z" fill="#0888C2"/><path d="M298.629 480.424H154.93a6.949 6.949 0 0 1-5.272-2.262 6.961 6.961 0 0 1-1.78-5.455l8.988-102.824a8.424 8.424 0 0 1 8.223-7.553H308.75a6.966 6.966 0 0 1 5.272 2.263 6.953 6.953 0 0 1 1.78 5.454l-8.963 102.825a8.405 8.405 0 0 1-8.21 7.552ZM165.051 364.247a6.49 6.49 0 0 0-6.325 5.819l-8.957 102.806a5.057 5.057 0 0 0 3.045 5.253 5.07 5.07 0 0 0 2.116.402h143.699a6.487 6.487 0 0 0 6.326-5.82l8.956-102.824a5.056 5.056 0 0 0-3.045-5.253 5.039 5.039 0 0 0-2.116-.402l-143.699.019Z" fill="#353535"/><path d="M191.093 398.987c5.029-4.814 5.529-12.455 1.115-17.065-4.413-4.611-12.068-4.445-17.098.369-5.029 4.815-5.528 12.455-1.115 17.066 4.414 4.61 12.069 4.445 17.098-.37Z" fill="#fff"/><path d="M231.782 432.384h-64.38l1.727-19.83h64.379l-1.726 19.83ZM229.45 459.115h-64.38l1.733-19.837h64.38l-1.733 19.837Z" fill="#CCEDFB"/><path d="M292.033 459.114h-50.135l4.061-46.56h50.135l-4.061 46.56Z" fill="#fff"/><path d="m424.426 100.139-1.367-5.003-5.654.259a21.223 21.223 0 0 0-1.822-3.118l2.998-4.801-3.643-3.644-4.77 3.05a21.889 21.889 0 0 0-3.162-1.785l.196-5.692-5.01-1.316-2.606 5.022a21.546 21.546 0 0 0-3.612 0l-2.656-4.997-5.004 1.436.26 5.693a20.94 20.94 0 0 0-3.125 1.815l-4.795-2.998-3.668 3.643 3.049 4.77a21.912 21.912 0 0 0-1.784 3.162l-5.661-.196-1.297 4.985 5.022 2.599a21.567 21.567 0 0 0 0 3.612l-4.997 2.657 1.367 5.003 5.654-.259a21.561 21.561 0 0 0 1.822 3.124l-2.998 4.795 3.688 3.643 4.8-3.036c1.002.684 2.06 1.28 3.163 1.784l-.196 5.661 5.016 1.316 2.6-5.022c1.202.101 2.41.101 3.612 0l2.656 4.997 5.003-1.367-.259-5.655a21.566 21.566 0 0 0 3.125-1.821l4.794 2.998 3.644-3.688-3.049-4.769a21.426 21.426 0 0 0 1.784-3.163l5.661.196 1.316-5.009-5.023-2.606c.101-1.202.101-2.41 0-3.612l4.928-2.663Zm-23.024 17.452a13.347 13.347 0 1 1 8.076-6.267 13.346 13.346 0 0 1-8.057 6.267h-.019Z" fill="#0888C2"/><path d="M391.392 131.001a.812.812 0 0 1-.24-.032l-5.016-1.315a.944.944 0 0 1-.702-.949l.17-5.06a22.37 22.37 0 0 1-2.176-1.266l-4.244 2.72a.946.946 0 0 1-1.183-.126l-3.681-3.644a.948.948 0 0 1-.139-1.176l2.669-4.27a21.63 21.63 0 0 1-1.265-2.169l-5.06.227a.957.957 0 0 1-.962-.695l-1.366-5.004a.952.952 0 0 1 .468-1.088l4.428-2.365a20.937 20.937 0 0 1 0-2.53l-4.472-2.316a.947.947 0 0 1-.481-1.081l1.316-5.016a.93.93 0 0 1 .949-.709l5.06.178a22.3 22.3 0 0 1 1.265-2.176l-2.72-4.251a.95.95 0 0 1 .127-1.177l3.643-3.687a.948.948 0 0 1 1.176-.133l4.276 2.663a22.162 22.162 0 0 1 2.164-1.265l-.228-5.06a.953.953 0 0 1 .696-.962l5.003-1.366a.944.944 0 0 1 1.088.468l2.366 4.428a23.777 23.777 0 0 1 2.53 0l2.315-4.466a.935.935 0 0 1 1.082-.48l5.016 1.309a.959.959 0 0 1 .708.955l-.177 5.06c.748.38 1.475.803 2.176 1.265l4.25-2.713a.937.937 0 0 1 1.177.126l3.688 3.644a.947.947 0 0 1 .139 1.176l-2.67 4.27c.464.698.886 1.422 1.265 2.17l5.061-.228a.943.943 0 0 1 .955.695l1.366 4.997a.94.94 0 0 1-.468 1.088l-4.428 2.372c.045.843.045 1.688 0 2.53l4.472 2.322a.955.955 0 0 1 .481 1.081l-1.36 5.035a.961.961 0 0 1-.949.702l-5.06-.17a23.829 23.829 0 0 1-1.265 2.176l2.714 4.244a.957.957 0 0 1-.121 1.183l-3.649 3.687a.947.947 0 0 1-1.177.133l-4.269-2.663a22.27 22.27 0 0 1-2.17 1.265l.228 5.061a.953.953 0 0 1-.696.961l-4.997 1.366a.939.939 0 0 1-1.088-.468l-2.372-4.428c-.843.052-1.688.052-2.53 0l-2.322 4.472a.947.947 0 0 1-.784.475Zm-4.036-2.986 3.543.93 2.251-4.352a.958.958 0 0 1 .918-.506c1.149.098 2.304.098 3.453 0a.946.946 0 0 1 .924.5l2.302 4.327 3.536-.968-.221-4.896a.945.945 0 0 1 .537-.905 20.374 20.374 0 0 0 2.986-1.733.95.95 0 0 1 1.05-.031l4.149 2.593 2.581-2.606-2.644-4.13a.963.963 0 0 1 0-1.05 20.34 20.34 0 0 0 1.708-2.992.91.91 0 0 1 .892-.551l4.902.171.93-3.548-4.314-2.277a.96.96 0 0 1-.513-.918 20.314 20.314 0 0 0 0-3.453.955.955 0 0 1 .5-.924l4.327-2.302-.968-3.536-4.896.221a.935.935 0 0 1-.898-.537 20.745 20.745 0 0 0-1.74-2.986.968.968 0 0 1 0-1.05l2.594-4.15-2.613-2.58-4.13 2.644a.948.948 0 0 1-1.044 0 21.26 21.26 0 0 0-2.998-1.708.94.94 0 0 1-.55-.892l.171-4.902-3.549-.93-2.252 4.346a.953.953 0 0 1-.917.512 20.223 20.223 0 0 0-3.447 0 .948.948 0 0 1-.924-.5l-2.308-4.326-3.574.974.221 4.896a.942.942 0 0 1-.131.531.942.942 0 0 1-.406.367 21.407 21.407 0 0 0-2.986 1.74.936.936 0 0 1-1.044 0l-4.181-2.55-2.574 2.606 2.638 4.13a.94.94 0 0 1 0 1.045 20.584 20.584 0 0 0-1.708 2.998.917.917 0 0 1-.899.55l-4.902-.17-.929 3.548 4.351 2.252a.947.947 0 0 1 .506.917 21.176 21.176 0 0 0 0 3.453.938.938 0 0 1-.499.924l-4.327 2.302.968 3.536 4.896-.221a.932.932 0 0 1 .904.537 20.701 20.701 0 0 0 1.733 2.986.935.935 0 0 1 .032 1.044l-2.593 4.155 2.606 2.581 4.13-2.644a.952.952 0 0 1 1.05 0c.95.654 1.953 1.228 2.998 1.714a.949.949 0 0 1 .544.892l-.152 4.902Zm8.331-10.266a14.281 14.281 0 0 1-1.861-28.44 14.285 14.285 0 0 1 15.886 11.323 14.285 14.285 0 0 1-10.23 16.611 14.31 14.31 0 0 1-3.795.506Zm0-26.686a12.396 12.396 0 0 0-11.851 16.024 12.403 12.403 0 0 0 11.495 8.766 12.402 12.402 0 0 0 11.985-8.084 12.4 12.4 0 0 0 .332-7.585 12.433 12.433 0 0 0-11.967-9.121h.006Z" fill="#353535"/><path d="m508.916 49.245-2.347-8.551-9.678.436a36.93 36.93 0 0 0-3.105-5.339l5.123-8.222-6.325-6.237-8.166 5.224a36.55 36.55 0 0 0-5.364-3.055l.335-9.69-8.577-2.246-4.428 8.59a36.692 36.692 0 0 0-6.18.044l-4.554-8.551-8.552 2.34.437 9.678a36.6 36.6 0 0 0-5.339 3.112l-8.223-5.124-6.236 6.326 5.218 8.166a37.652 37.652 0 0 0-3.055 5.357l-9.684-.335-2.239 8.577 8.589 4.428a36.028 36.028 0 0 0 .045 6.18l-8.552 4.554 2.34 8.552 9.678-.437a36.853 36.853 0 0 0 3.112 5.339l-5.124 8.223 6.326 6.243 8.159-5.225a37.518 37.518 0 0 0 5.364 3.062l-.335 9.684 8.584 2.245 4.427-8.59a36.69 36.69 0 0 0 6.18-.044l4.548 8.552 8.558-2.34-.443-9.678a36.899 36.899 0 0 0 5.345-3.112l8.223 5.123 6.237-6.325-5.231-8.14a37.03 37.03 0 0 0 3.055-5.358l9.684.335 2.252-8.584-8.59-4.427a37.396 37.396 0 0 0-.044-6.18l8.552-4.58Zm-39.401 29.869a22.834 22.834 0 1 1-12.08-44.041 22.834 22.834 0 0 1 12.08 44.04Z" fill="#0888C2"/><path d="M452.349 101.385c-.08.009-.161.009-.241 0l-8.577-2.252a.946.946 0 0 1-.708-.949l.31-9.064a39.355 39.355 0 0 1-4.428-2.53l-7.641 4.883a.948.948 0 0 1-1.176-.12l-6.326-6.243a.95.95 0 0 1-.139-1.176l4.795-7.68a37.355 37.355 0 0 1-2.53-4.39l-9.052.412a.957.957 0 0 1-.961-.696l-2.341-8.552a.953.953 0 0 1 .468-1.094l8.002-4.257a37.811 37.811 0 0 1-.038-5.06l-8.04-4.169a.945.945 0 0 1-.48-1.081l2.251-8.577a.94.94 0 0 1 .949-.709l9.064.31a36.944 36.944 0 0 1 2.531-4.428l-4.877-7.64a.956.956 0 0 1 .126-1.177l6.199-6.32a.948.948 0 0 1 1.177-.138l7.679 4.807a38.57 38.57 0 0 1 4.389-2.53l-.386-9.096a.959.959 0 0 1 .703-.961l8.577-2.322a.94.94 0 0 1 1.088.468l4.257 8.002a37.94 37.94 0 0 1 5.06-.038l4.143-8.04a.947.947 0 0 1 1.082-.48l8.583 2.251a.946.946 0 0 1 .709.95l-.317 9.063a37.481 37.481 0 0 1 4.428 2.53l7.654-4.908a.947.947 0 0 1 1.176.127l6.325 6.236a.955.955 0 0 1 .14 1.177l-4.795 7.679a38.882 38.882 0 0 1 2.53 4.39l9.052-.412a.96.96 0 0 1 .961.702l2.322 8.552a.944.944 0 0 1-.469 1.088l-8.001 4.257c.125 1.684.138 3.375.038 5.06l8.039 4.163a.954.954 0 0 1 .481 1.081l-2.252 8.584a.948.948 0 0 1-.917.708l-9.064-.316a38.985 38.985 0 0 1-2.53 4.428l4.883 7.634a.951.951 0 0 1-.12 1.183l-6.243 6.326a.95.95 0 0 1-1.177.139l-7.679-4.795a38 38 0 0 1-4.39 2.53l.412 9.052a.95.95 0 0 1-.696.961l-8.552 2.341a.945.945 0 0 1-1.088-.469l-4.263-7.957a37.855 37.855 0 0 1-5.061.038l-4.162 8.033a.95.95 0 0 1-.866.481Zm-7.591-3.922 7.11 1.898 4.105-7.92a.955.955 0 0 1 .917-.505c2.005.152 4.02.137 6.022-.045a.956.956 0 0 1 .924.5l4.193 7.881 7.091-1.942-.405-8.918a.942.942 0 0 1 .538-.898 36.749 36.749 0 0 0 5.206-3.03.947.947 0 0 1 1.05-.032l7.59 4.725 5.168-5.23-4.852-7.56a.96.96 0 0 1 0-1.05 36.695 36.695 0 0 0 2.979-5.224.924.924 0 0 1 .892-.55l8.925.31 1.898-7.117-7.932-4.08a.949.949 0 0 1-.506-.917c.153-2.005.138-4.019-.044-6.022a.954.954 0 0 1 .499-.923l7.882-4.194-1.942-7.09-8.919.404a.925.925 0 0 1-.898-.543 36.658 36.658 0 0 0-3.03-5.2.95.95 0 0 1 0-1.05l4.725-7.59-5.231-5.168-7.521 4.807a.947.947 0 0 1-1.05 0 36.222 36.222 0 0 0-5.224-2.98.947.947 0 0 1-.551-.891l.31-8.931-7.116-1.86-4.099 7.913a.956.956 0 0 1-.917.512 36.17 36.17 0 0 0-6.022.045.95.95 0 0 1-.923-.5l-4.225-7.894-7.091 1.942.405 8.919a.953.953 0 0 1-.544.898 35.448 35.448 0 0 0-5.168 3.042.946.946 0 0 1-1.05.032l-7.59-4.725-5.168 5.23 4.807 7.522a.952.952 0 0 1 0 1.05 36.415 36.415 0 0 0-3.017 5.224.959.959 0 0 1-.86.55l-8.932-.303-1.859 7.11 7.913 4.105a.947.947 0 0 1 .512.917 36.144 36.144 0 0 0 .044 6.022.969.969 0 0 1-.112.536.968.968 0 0 1-.387.387l-7.894 4.188 1.941 7.09 8.919-.404a.935.935 0 0 1 .898.537 35.835 35.835 0 0 0 3.03 5.206.944.944 0 0 1 0 1.05l-4.725 7.59 5.231 5.168 7.521-4.813a.962.962 0 0 1 1.05 0 36.732 36.732 0 0 0 5.225 2.979.946.946 0 0 1 .55.892l-.266 8.918Zm14.953-18.748a23.78 23.78 0 0 1-23.588-20.612 23.785 23.785 0 0 1 17.301-26.113 23.783 23.783 0 1 1 12.562 45.877c-2.049.561-4.163.846-6.287.848h.012Zm0-45.675a21.888 21.888 0 0 0-20.887 15.595 21.876 21.876 0 0 0 8.85 24.52 21.886 21.886 0 1 0 12.037-40.115ZM110.741 44.009a.958.958 0 0 1-.867-.557.947.947 0 0 1 .468-1.265c.297-.14 30.21-13.663 75.695-21.31a370.62 370.62 0 0 1 79.624-4.788 329.64 329.64 0 0 1 94.247 18.482.941.941 0 0 1 .59.476.952.952 0 0 1-.465 1.31.944.944 0 0 1-.758-.002c-67.225-23.935-131.111-20.608-172.858-13.6-45.264 7.59-74.987 21.032-75.272 21.165a.861.861 0 0 1-.404.089Z" fill="#353535"/><path d="M323.818 39.258a.966.966 0 0 1-.323-.057c-37.768-13.568-79.408-12.84-107.688-9.849-30.684 3.251-52.703 9.798-52.924 9.868a.951.951 0 0 1-.544-1.822c.221-.063 22.379-6.66 53.227-9.93 28.464-3.018 70.452-3.745 108.568 9.949a.947.947 0 0 1 .291 1.615.95.95 0 0 1-.607.226ZM368.131 44.584a4.743 4.743 0 1 1-.001-9.486 4.743 4.743 0 0 1 .001 9.486Zm0-7.59a2.848 2.848 0 0 0-2.013 4.858 2.845 2.845 0 1 0 4.024-4.023 2.855 2.855 0 0 0-2.011-.836Z" fill="#353535"/></svg>