<svg width="69" height="69" fill="none" xmlns="http://www.w3.org/2000/svg"><path d="M2.578 22.563h17.25c.596 0 1.078-.482 1.078-1.079V2.078c0-.596-.482-1.078-1.078-1.078H2.578C1.982 1 1.5 1.482 1.5 2.078v19.406c0 .597.482 1.078 1.078 1.078Zm12.938-2.157-4.313-7.984c1.795 0 4.313 2.036 4.313 3.672v4.312Zm-4.313-9.703a2.158 2.158 0 0 1-2.156-2.156c0-1.19.967-2.156 2.156-2.156 1.19 0 2.156.967 2.156 2.156s-.967 2.156-2.156 2.156Zm0 1.719 4.313 7.984H6.89v-4.312c0-1.636 2.312-3.672 4.312-3.672ZM3.656 3.156H18.75v17.25h-1.078v-4.312c0-2.157-1.28-4.008-3.115-4.87a4.27 4.27 0 0 0 .959-2.677 4.317 4.317 0 0 0-4.313-4.313 4.317 4.317 0 0 0-4.312 4.313c0 1.017.367 1.94.958 2.678-1.834.861-3.115 2.713-3.115 4.869v4.312H3.656V3.156ZM2.578 45.563h17.25c.596 0 1.078-.482 1.078-1.079V25.078c0-.596-.482-1.078-1.078-1.078H2.578c-.596 0-1.078.482-1.078 1.078v19.406c0 .597.482 1.078 1.078 1.078Zm12.938-2.157-4.313-7.984c1.795 0 4.313 2.036 4.313 3.672v4.312Zm-4.313-9.703a2.158 2.158 0 0 1-2.156-2.156c0-1.19.967-2.156 2.156-2.156 1.19 0 2.156.967 2.156 2.156s-.967 2.156-2.156 2.156Zm0 1.719 4.313 7.984H6.89v-4.312c0-1.636 2.312-3.672 4.312-3.672Zm-7.547-9.266H18.75v17.25h-1.078v-4.312c0-2.157-1.28-4.008-3.115-4.87a4.27 4.27 0 0 0 .959-2.677 4.317 4.317 0 0 0-4.313-4.313 4.317 4.317 0 0 0-4.312 4.313c0 1.016.367 1.94.958 2.678-1.834.861-3.115 2.712-3.115 4.869v4.312H3.656v-17.25ZM2.578 68.563h17.25c.596 0 1.078-.482 1.078-1.079V48.078c0-.596-.482-1.078-1.078-1.078H2.578c-.596 0-1.078.482-1.078 1.078v19.406c0 .597.482 1.079 1.078 1.079Zm12.938-2.157-4.313-7.984c1.795 0 4.313 2.036 4.313 3.672v4.312Zm-4.313-9.703a2.158 2.158 0 0 1-2.156-2.156c0-1.19.967-2.156 2.156-2.156 1.19 0 2.156.967 2.156 2.156s-.967 2.156-2.156 2.156Zm0 1.719 4.313 7.984H6.89v-4.312c0-1.636 2.312-3.672 4.312-3.672Zm-7.547-9.266H18.75v17.25h-1.078v-4.312c0-2.157-1.28-4.008-3.115-4.87a4.27 4.27 0 0 0 .959-2.677 4.317 4.317 0 0 0-4.313-4.313 4.317 4.317 0 0 0-4.312 4.313c0 1.017.367 1.94.958 2.678-1.834.861-3.115 2.712-3.115 4.869v4.312H3.656v-17.25ZM57.14 1.078c-5.944 0-10.78 4.837-10.78 10.781 0 5.945 4.836 10.782 10.78 10.782 5.945 0 10.782-4.837 10.782-10.782 0-5.944-4.837-10.78-10.781-10.78Zm0 19.406c-4.755 0-8.624-3.869-8.624-8.625 0-4.755 3.869-8.625 8.625-8.625 4.755 0 8.625 3.87 8.625 8.625 0 4.756-3.87 8.625-8.625 8.625Z" fill="#00AEEF"/><path d="m55.462 14.046-2.41-2.41-1.525 1.524 3.235 3.235c.201.202.476.316.762.316.014 0 .027 0 .04-.002.3-.011.583-.147.778-.376l6.469-7.547-1.637-1.401-5.712 6.662ZM57.14 23.719c-5.944 0-10.78 4.836-10.78 10.781s4.836 10.781 10.78 10.781c5.945 0 10.782-4.836 10.782-10.781S63.085 23.719 57.14 23.719Zm0 19.406c-4.755 0-8.624-3.87-8.624-8.625 0-4.756 3.869-8.625 8.625-8.625 4.755 0 8.625 3.87 8.625 8.625 0 4.756-3.87 8.625-8.625 8.625Z" fill="#00AEEF"/><path d="m55.462 36.687-2.41-2.41-1.525 1.524 3.235 3.234c.201.203.476.316.762.316h.04c.3-.013.583-.148.778-.377l6.469-7.547-1.637-1.403-5.712 6.663ZM57.14 46.36c-5.944 0-10.78 4.836-10.78 10.78 0 5.945 4.836 10.782 10.78 10.782 5.945 0 10.782-4.837 10.782-10.781 0-5.945-4.837-10.782-10.781-10.782Zm0 19.406c-4.755 0-8.624-3.87-8.624-8.625 0-4.756 3.869-8.625 8.625-8.625 4.755 0 8.625 3.869 8.625 8.625 0 4.755-3.87 8.625-8.625 8.625Z" fill="#00AEEF"/><path d="m60.573 52.725-3.43 3.43-3.431-3.43-1.525 1.524 3.431 3.43-3.43 3.431 1.524 1.525 3.43-3.43 3.431 3.43 1.525-1.525-3.431-3.43 3.43-3.43-1.524-1.525ZM37.203 16.032a1.074 1.074 0 0 0 1.087-.014l5.39-3.234a1.078 1.078 0 0 0 0-1.848L38.29 7.7a1.077 1.077 0 0 0-1.633.924v2.156H22.64v2.157h14.015v2.156c0 .388.208.746.547.938Zm1.61-5.502 2.217 1.33-2.218 1.329V10.53ZM22.64 35.578h14.016v2.156a1.077 1.077 0 0 0 1.634.924l5.39-3.234a1.077 1.077 0 0 0 0-1.848l-5.39-3.235a1.08 1.08 0 0 0-1.634.924v2.157H22.641v2.156Zm16.172-2.408 2.218 1.33-2.218 1.329V33.17ZM22.64 58.218h14.016v2.157a1.077 1.077 0 0 0 1.634.924l5.39-3.235a1.078 1.078 0 0 0 0-1.848l-5.39-3.234a1.079 1.079 0 0 0-1.634.924v2.156H22.641v2.156Zm16.172-2.407 2.218 1.33-2.218 1.329V55.81Z" fill="#00AEEF"/></svg>