<svg width="46" height="58" fill="none" xmlns="http://www.w3.org/2000/svg"><path d="M34.688 1.727H21.061C20.397.687 19.268 0 17.99 0h-4.623c-1.597 0-2.956 1.074-3.472 2.57l-.193.14c-1.453 1.057-2.32 2.807-2.32 4.68v15.064h-.858a.861.861 0 0 0-.859.864v1.21C2.487 24.878 0 27.757 0 31.245 0 34.97 2.836 38 6.321 38h4.93c2.325 0 4.41-1.348 5.511-3.455h1.206a.861.861 0 0 0 .859-.863v-.392a3.652 3.652 0 0 0 1.786-1.048h14.075c2.93 0 5.312-2.54 5.312-5.661V7.39c0-3.122-2.383-5.663-5.312-5.663ZM9.098 7.39c0-.765.208-1.494.573-2.118v23.582c-.368-.63-.572-1.402-.572-2.274V7.39Zm2.153 28.883H6.32c-2.539 0-4.604-2.256-4.604-5.027 0-2.529 1.72-4.621 3.948-4.97v1.073a.86.86 0 0 0 .859.863h1.058c.364 1.454 1.215 2.653 2.432 3.348l.346.198c.671.988 1.768 1.636 3.007 1.636h.31v.288c0 .477.384.863.858.863h.172c-.855 1.07-2.097 1.728-3.456 1.728Zm6.739-4.606h-4.623c-1.091 0-1.98-.971-1.98-2.164V3.892c0-1.193.889-2.164 1.98-2.164h4.623c1.092 0 1.981.971 1.981 2.164v25.612c0 1.193-.889 2.164-1.981 2.164Zm20.293-5.086c0 2.17-1.612 3.934-3.595 3.934h-13.13c.082-.323.13-.661.13-1.012V3.892c0-.148-.01-.293-.024-.436h13.024c1.983 0 3.595 1.765 3.595 3.935V26.58Z" fill="#03A9F4"/><path d="M35.708 6.333H24.263a.86.86 0 0 0-.858.864v4.606c0 .477.384.864.858.864h11.445a.861.861 0 0 0 .858-.864V7.197a.86.86 0 0 0-.858-.864Zm-.858 4.606h-9.728V8.061h9.728v2.878ZM25.807 14.394h-1.941c-.254 0-.461.249-.461.554v1.77c0 .307.207.555.46.555h1.942c.254 0 .46-.248.46-.554v-1.771c0-.305-.206-.554-.46-.554ZM30.957 14.394h-1.942c-.253 0-.46.249-.46.554v1.77c0 .307.207.555.46.555h1.942c.253 0 .46-.248.46-.554v-1.771c0-.305-.207-.554-.46-.554ZM36.106 14.394h-1.94c-.254 0-.46.249-.46.554v1.77c0 .307.206.555.46.555h1.94c.255 0 .46-.248.46-.554v-1.771c0-.305-.206-.554-.46-.554ZM25.807 19h-1.941c-.254 0-.461.248-.461.556v1.767c0 .308.207.556.46.556h1.942c.254 0 .46-.248.46-.556v-1.767c0-.308-.206-.556-.46-.556ZM30.957 19h-1.942c-.253 0-.46.248-.46.556v1.767c0 .308.207.556.46.556h1.942c.253 0 .46-.248.46-.556v-1.767c0-.308-.207-.556-.46-.556ZM36.106 19h-1.94c-.254 0-.46.248-.46.556v1.767c0 .308.206.556.46.556h1.94c.255 0 .46-.248.46-.556v-1.767c0-.308-.206-.556-.46-.556ZM25.807 23.606h-1.941c-.254 0-.461.25-.461.555v1.77c0 .305.207.554.46.554h1.942c.254 0 .46-.249.46-.555v-1.769c0-.306-.206-.555-.46-.555ZM30.957 23.606h-1.942c-.253 0-.46.25-.46.555v1.77c0 .305.207.554.46.554h1.942c.253 0 .46-.249.46-.555v-1.769c0-.306-.207-.555-.46-.555ZM36.106 23.606h-1.94c-.254 0-.46.25-.46.555v1.77c0 .305.206.554.46.554h1.94c.255 0 .46-.249.46-.555v-1.769c0-.306-.206-.555-.46-.555ZM20.686 49.338H6.623a.693.693 0 1 0 0 1.387h14.063a.693.693 0 1 0 0-1.387ZM38.265 52.14a2.109 2.109 0 1 0 0-4.218 2.109 2.109 0 0 0 0 4.217Z" fill="#03A9F4"/><path d="M43.188 43H3.812A2.812 2.812 0 0 0 1 45.813v8.437a2.812 2.812 0 0 0 2.813 2.813h39.374A2.813 2.813 0 0 0 46 54.25v-8.438A2.813 2.813 0 0 0 43.187 43Zm1.406 11.25c0 .775-.631 1.406-1.407 1.406H3.813c-.776 0-1.407-.63-1.407-1.406v-8.438c0-.775.631-1.406 1.406-1.406h39.376c.775 0 1.406.631 1.406 1.407v8.437Z" fill="#03A9F4"/></svg>