<svg width="60" height="60" fill="none" xmlns="http://www.w3.org/2000/svg"><path d="M40.615 10.71a9.63 9.63 0 0 0-8.903 5.954 9.653 9.653 0 0 0 2.09 10.511 9.634 9.634 0 0 0 10.5 2.09 9.65 9.65 0 0 0 5.949-8.91 9.66 9.66 0 0 0-2.825-6.817 9.643 9.643 0 0 0-6.81-2.828Zm7.666 6.89a9.827 9.827 0 0 0-2.176-.948 10.937 10.937 0 0 0-1.42-3.359A8.193 8.193 0 0 1 48.28 17.6Zm-1.862 4.772c.168-1.34.168-2.695 0-4.034 1.469.567 2.35 1.313 2.35 2.017s-.881 1.45-2.35 2.017Zm-13.958-2.017c0-.704.882-1.45 2.35-2.017a16.212 16.212 0 0 0 0 4.034c-1.468-.567-2.35-1.313-2.35-2.017Zm3.707 0c-.001-.838.073-1.673.222-2.497a17.9 17.9 0 0 1 3.484-.455v5.904a17.892 17.892 0 0 1-3.484-.455 13.989 13.989 0 0 1-.222-2.497Zm5.188-8.033c1.293.418 2.413 1.899 3.073 3.918a20.195 20.195 0 0 0-3.073-.32v-3.598Zm-1.482 0v3.598c-1.03.028-2.058.135-3.073.32.66-2.02 1.78-3.5 3.073-3.918Zm0 12.468v3.598c-1.293-.418-2.412-1.899-3.073-3.918 1.015.185 2.042.292 3.073.32Zm1.482 3.598V24.79a20.195 20.195 0 0 0 3.073-.32c-.66 2.02-1.78 3.5-3.073 3.918Zm0-5.081v-5.904a17.9 17.9 0 0 1 3.484.455 14 14 0 0 1 0 4.994c-1.143.266-2.31.418-3.484.455Zm-4.81-10.016a10.935 10.935 0 0 0-1.42 3.359 9.821 9.821 0 0 0-2.176.947 8.193 8.193 0 0 1 3.596-4.304v-.002Zm-3.596 9.82c.684.402 1.415.72 2.175.947a10.934 10.934 0 0 0 1.42 3.359 8.193 8.193 0 0 1-3.595-4.307Zm11.735 4.303a10.937 10.937 0 0 0 1.42-3.36 9.827 9.827 0 0 0 2.176-.946 8.194 8.194 0 0 1-3.596 4.309v-.003Z" fill="#03A9F4"/><path d="M40.615 7a13.267 13.267 0 0 0-3.418.46 3.675 3.675 0 0 0-1.77-.46h-23.72A3.709 3.709 0 0 0 8 10.71v38.58A3.716 3.716 0 0 0 11.706 53h23.72a3.71 3.71 0 0 0 3.707-3.71V33.622a13.33 13.33 0 0 0 10.123-3.055 13.352 13.352 0 0 0 4.723-9.469 13.364 13.364 0 0 0-3.642-9.935A13.343 13.343 0 0 0 40.614 7ZM37.65 49.29a2.227 2.227 0 0 1-2.224 2.226h-23.72a2.223 2.223 0 0 1-2.223-2.226V10.71a2.227 2.227 0 0 1 2.223-2.226h22.825c-.81.416-1.574.913-2.283 1.484H26.53a.74.74 0 0 0-.663.41l-.536 1.074h-3.531l-.532-1.074a.742.742 0 0 0-.668-.41H13.93a2.964 2.964 0 0 0-2.965 2.967v34.13a2.969 2.969 0 0 0 2.965 2.967h19.273a2.964 2.964 0 0 0 2.965-2.967V32.93c.485.174.98.319 1.482.434V49.29ZM30.7 11.452a13.308 13.308 0 0 0-3.19 11.417 13.31 13.31 0 0 0 7.176 9.431v14.765a1.485 1.485 0 0 1-1.482 1.483H13.93a1.482 1.482 0 0 1-1.482-1.483v-34.13a1.485 1.485 0 0 1 1.482-1.483h6.213l.536 1.073a.741.741 0 0 0 .664.41h4.447a.74.74 0 0 0 .663-.41l.537-1.073h3.709Zm9.916 20.774c-2.346 0-4.639-.696-6.589-2a11.869 11.869 0 0 1-5.043-12.187 11.874 11.874 0 0 1 3.246-6.078 11.856 11.856 0 0 1 12.925-2.573c2.167.898 4.02 2.42 5.322 4.372a11.879 11.879 0 0 1 2 6.595 11.89 11.89 0 0 1-3.478 8.39 11.869 11.869 0 0 1-8.383 3.48Z" fill="#03A9F4"/><path d="m20.908 31.484 1.7-1.701a.742.742 0 0 0 0-1.05l-3.706-3.71a.742.742 0 0 0-1.103.062L16.108 27.2a6.565 6.565 0 0 0 .483 8.734l4.88 4.884a6.108 6.108 0 0 0 8.64 0l2.133-2.136a.743.743 0 0 0-.06-1.104l-3.707-2.968a.741.741 0 0 0-.987.055l-1.7 1.704-4.882-4.886Zm7.16 4.704 2.54 2.035-1.548 1.55a4.626 4.626 0 0 1-6.544 0l-4.88-4.884a5.079 5.079 0 0 1-.37-6.76l1.173-1.47 2.595 2.597-1.7 1.701a.742.742 0 0 0 0 1.05l5.93 5.935a.74.74 0 0 0 1.048 0l1.757-1.754Z" fill="#03A9F4"/></svg>