<svg width="71" height="70" fill="none" xmlns="http://www.w3.org/2000/svg"><g clip-path="url(#a)" fill="#03A9F4"><path d="m18.008 19.012 8.31 4.758a1.561 1.561 0 0 0 1.976-.356 7.528 7.528 0 0 1 2.368-1.89 1.568 1.568 0 0 0 .8-1.801l-2.518-9.268a1.561 1.561 0 0 0-2.064-1.05 20.13 20.13 0 0 0-9.38 7.362 1.562 1.562 0 0 0 .509 2.245h-.001Zm9.007-7.298 2.202 8.102a9.687 9.687 0 0 0-2.255 1.797l-7.257-4.156a17.927 17.927 0 0 1 7.31-5.743Z"/><path d="M33.745 21.652a1.57 1.57 0 0 0 1.601 1.148 7.65 7.65 0 0 1 5.755 2.144 1.096 1.096 0 0 0 1.526-1.574 9.87 9.87 0 0 0-6.898-2.774l-2.202-8.103a18.068 18.068 0 1 1-4.185 34.809l4.19-7.317a9.825 9.825 0 0 0 11.731-12.14 1.096 1.096 0 0 0-2.115.574 7.634 7.634 0 0 1-9.485 9.334 1.557 1.557 0 0 0-1.792.722l-4.79 8.362a1.562 1.562 0 0 0 .74 2.212 20.08 20.08 0 0 0 7.93 1.64 20.35 20.35 0 0 0 5.345-.72 20.06 20.06 0 0 0 8.079-4.343 20.262 20.262 0 0 0-16.7-35.193 1.56 1.56 0 0 0-1.249 1.95l2.519 9.269Z"/><path d="M24.13 46.99a1.096 1.096 0 1 0 1.26-1.793 18.09 18.09 0 0 1-7.038-10.038 17.864 17.864 0 0 1 .553-11.18l7.317 4.191a9.831 9.831 0 0 0 3.115 9.662 1.096 1.096 0 0 0 1.437-1.654 7.637 7.637 0 0 1-2.32-7.877 1.557 1.557 0 0 0-.722-1.791l-8.363-4.79a1.562 1.562 0 0 0-2.212.74 20.048 20.048 0 0 0-.92 13.274 20.286 20.286 0 0 0 7.892 11.256ZM4.536 53.156h.001a1.096 1.096 0 0 0 1.096-1.093l.042-30.11a3.033 3.033 0 0 1 3.029-3.025h5.538a1.096 1.096 0 0 0 0-2.192H8.704a5.228 5.228 0 0 0-5.22 5.213L3.44 52.06a1.096 1.096 0 0 0 1.095 1.097ZM54.3 18.928h7.233a3.032 3.032 0 0 1 3.029 3.029v30.108a1.097 1.097 0 0 0 1.875.782 1.097 1.097 0 0 0 .317-.782V21.957a5.226 5.226 0 0 0-5.221-5.22H54.3a1.095 1.095 0 1 0 0 2.191ZM41.667 54.478a1.097 1.097 0 0 0-1.094 1.169 1.121 1.121 0 0 0 1.131 1.023h25.99a2.937 2.937 0 0 1-2.72 1.836H5.222a2.937 2.937 0 0 1-2.72-1.836h26.036a1.121 1.121 0 0 0 1.13-1.023 1.095 1.095 0 0 0-1.093-1.169H1.193a1.096 1.096 0 0 0-1.095 1.096 5.124 5.124 0 0 0 5.124 5.124h59.752a5.124 5.124 0 0 0 5.124-5.124 1.095 1.095 0 0 0-1.096-1.096H41.667Z"/><path d="M33.104 54.478a1.095 1.095 0 1 0 0 2.192h3.984a1.097 1.097 0 1 0 0-2.192h-3.984Z"/></g><defs><clipPath id="a"><path fill="#fff" transform="translate(.098)" d="M0 0h70v70H0z"/></clipPath></defs></svg>