<svg width="71" height="70" fill="none" xmlns="http://www.w3.org/2000/svg"><g clip-path="url(#a)" fill="#03A9F4"><path d="M8.265 10.491h2.333a1.167 1.167 0 0 0 0-2.333H8.265a1.167 1.167 0 1 0 0 2.333ZM15.265 10.491h2.333a1.167 1.167 0 0 0 0-2.333h-2.333a1.167 1.167 0 1 0 0 2.333ZM22.264 10.491h4.667a1.167 1.167 0 1 0 0-2.333h-4.667a1.166 1.166 0 0 0 0 2.333ZM31.596 10.491h25.667a1.167 1.167 0 1 0 0-2.333H31.596a1.167 1.167 0 0 0 0 2.333Z"/><path d="M66.597 25.658h-2.333v-17.5a5.84 5.84 0 0 0-5.833-5.834h-52.5A5.84 5.84 0 0 0 .098 8.158v43.166a5.84 5.84 0 0 0 5.833 5.834h22.167v7a3.5 3.5 0 0 0 3.5 3.5h35a3.5 3.5 0 0 0 3.5-3.5v-35a3.5 3.5 0 0 0-3.5-3.5ZM5.931 54.824a3.5 3.5 0 0 1-3.5-3.5V8.158a3.5 3.5 0 0 1 3.5-3.5h52.5a3.5 3.5 0 0 1 3.5 3.5v17.5h-3.5v-9.334a2.333 2.333 0 0 0-2.333-2.333H8.264a2.286 2.286 0 0 0-2.333 2.228v32.877a2.285 2.285 0 0 0 2.333 2.228h19.834v3.5H5.93Zm25.666-29.166a3.5 3.5 0 0 0-3.285 2.333h-9.547v-4.667h37.333v2.334h-24.5ZM8.264 48.982v-4.658h8.167v4.667l-8.167-.01Zm47.834-32.658v4.667H18.765v-4.667h37.333ZM16.43 20.991H8.264v-4.667h8.167v4.667ZM8.264 37.324h8.167v4.667H8.264v-4.667Zm10.5 0h9.334v4.667h-9.333v-4.667Zm9.334-2.333h-9.333v-4.667h9.333v4.667Zm-11.667 0H8.264v-4.667h8.167v4.667Zm-8.167-7v-4.667h8.167v4.667H8.264Zm10.5 16.333h9.334v4.667h-9.333v-4.667Zm49 19.833c0 .645-.522 1.167-1.167 1.167h-35a1.167 1.167 0 0 1-1.166-1.167v-35c0-.644.522-1.166 1.166-1.166h35c.645 0 1.167.522 1.167 1.166v35Z"/><path d="M57.481 32.658h-17.93a2.1 2.1 0 0 0-1.905 1.215 2.16 2.16 0 0 0 .275 2.313c.04.048.083.093.13.135l10.645 9.465a1.168 1.168 0 0 1 0 1.743l-10.645 9.465c-.047.042-.09.087-.13.136a2.158 2.158 0 0 0-.275 2.312 2.1 2.1 0 0 0 1.906 1.216h17.93a2.138 2.138 0 0 0 2.117-2.154v-2.962a1.166 1.166 0 0 0-2.334 0v2.782H40.067l10.179-9.05a3.5 3.5 0 0 0 0-5.232l-10.18-9.051h17.2v2.782a1.167 1.167 0 1 0 2.333 0v-2.961a2.138 2.138 0 0 0-2.118-2.154Z"/></g><defs><clipPath id="a"><path fill="#fff" transform="translate(.098)" d="M0 0h70v70H0z"/></clipPath></defs></svg>