<svg width="49" height="48" fill="none" xmlns="http://www.w3.org/2000/svg"><g clip-path="url(#a)"><path d="m25.527 21.11-.353-13.686a1.5 1.5 0 0 1 2.999-.078l.263 10.195 15.8-15.801a1.5 1.5 0 1 1 2.122 2.121l-15.8 15.8 10.194.264a1.5 1.5 0 0 1-.078 2.999l-13.686-.353a1.5 1.5 0 0 1-1.46-1.461Zm21.678 19.409-5.927 5.306C39.658 47.275 37.604 48 35.185 48c-2.208 0-4.718-.604-7.476-1.815-4.79-2.103-10.111-5.944-14.982-10.814C7.857 30.5 4.016 25.179 1.913 20.388-.624 14.608-.5 9.917 2.273 6.82L7.58.892C8.241.153 9.213-.126 10.247.126c1.923.468 4.033 2.792 5.464 4.659 1.298 1.693 2.972 4.284 3.417 6.014.324 1.255-.083 1.956-.482 2.322 0 0-3.15 2.894-4.168 3.905-.16.16-.16.658.004 1.268.59 2.212 3.022 5.651 6.346 8.975 3.325 3.325 6.764 5.757 8.976 6.347.61.163 1.107.164 1.267.003 1.011-1.017 3.906-4.168 3.906-4.168.366-.398 1.066-.805 2.322-.482 1.73.446 4.32 2.12 6.014 3.418 1.867 1.431 4.19 3.54 4.659 5.463.252 1.034-.027 2.007-.767 2.669Zm-2.18-2.075c-.206-.544-1.218-1.919-3.658-3.768-2.088-1.583-3.819-2.469-4.6-2.739-1.107 1.205-2.56 2.783-3.568 3.797-.678.683-1.952 1.372-4.169.78-2.733-.729-6.592-3.392-10.323-7.123-3.732-3.731-6.395-7.59-7.124-10.323-.591-2.217.098-3.49.78-4.17 1.015-1.008 2.592-2.46 3.798-3.568-.27-.78-1.156-2.511-2.739-4.599-1.85-2.44-3.224-3.453-3.768-3.658L4.508 8.82c-2.438 2.724-1.263 7.139.152 10.362 1.957 4.458 5.575 9.454 10.188 14.067 4.614 4.614 9.61 8.232 14.067 10.189 3.224 1.415 7.639 2.59 10.362.151l5.748-5.145Z" fill="#00AEEF"/></g><defs><clipPath id="a"><path fill="#fff" transform="translate(.098)" d="M0 0h48v48H0z"/></clipPath></defs></svg>