<svg width="49" height="48" fill="none" xmlns="http://www.w3.org/2000/svg"><g clip-path="url(#a)"><path d="m48.097 40.974-.373-6.739c-.14-2.522-1.652-6.054-8.067-8.555-4.162-1.622-9.687-2.516-15.558-2.516-5.87 0-11.396.893-15.557 2.516C2.126 28.18.614 31.713.474 34.235l-.372 6.738c-.052.927.404 1.754 1.249 2.268 1.491.907 4.206.78 6.22.514 1.816-.24 4.41-.8 5.744-1.588 1.044-.616 1.237-1.367 1.215-1.887 0 0-.153-3.62-.157-4.836.024-.129.566-.766 2.64-1.322 1.884-.506 4.4-.784 7.086-.784s5.202.279 7.087.784c2.073.556 2.616 1.193 2.64 1.324-.004 1.214-.158 4.834-.158 4.834-.022.52.171 1.27 1.216 1.887 1.334.788 3.928 1.348 5.743 1.587 1.915.253 4.482.544 6.22-.513.846-.514 1.301-1.34 1.25-2.267Zm-7.26-.218c-1.995-.28-3.471-.733-4.143-1.027.058-1.368.128-3.1.131-4.274.003-.877-.367-2.138-2.146-3.167-2.11-1.22-6.065-1.95-10.58-1.95s-8.47.73-10.58 1.95c-1.778 1.03-2.148 2.29-2.146 3.167.004 1.173.073 2.906.131 4.274-.671.294-2.148.747-4.143 1.026-2.309.324-3.701.18-4.244.011l.352-6.365c.165-2.976 3.442-4.865 6.163-5.926 3.822-1.49 8.96-2.311 14.467-2.311s10.645.82 14.468 2.31c2.72 1.062 5.997 2.95 6.162 5.927l.352 6.365c-.542.17-1.935.313-4.243-.01ZM7.68 12.849l.185-7.153a1.5 1.5 0 0 1 1.46-1.461l7.154-.185a1.5 1.5 0 1 1 .078 3l-3.567.091 9.722 10.272L34.123 6.606a1.5 1.5 0 0 1 2.063 2.179L24.768 19.59a2.986 2.986 0 0 1-2.059.819 2.988 2.988 0 0 1-2.176-.935L10.776 9.166l-.097 3.76a1.5 1.5 0 0 1-2.999-.077Z" fill="#03A9F4"/></g><defs><clipPath id="a"><path fill="#fff" transform="translate(.098)" d="M0 0h48v48H0z"/></clipPath></defs></svg>