<svg width="525" height="560" fill="none" xmlns="http://www.w3.org/2000/svg"><path d="M127.141 133.234c54.916-55.27 39.217-89.908 76.77-115.5 57.8-39.375 165.709-5.497 229.373 48.692 77.978 66.302 118.207 187.424 72.38 296.997-48.805 116.676-177.221 177.266-291.804 159.011C111.536 506.134 10.945 425.487.87 328.767c-1.095-10.487-5.927-67.156 27.906-116.018 27.958-40.381 54.809-35.7 98.365-79.515Z" fill="#CCEDFB"/><path d="m134.186 473.698-2.612-5.44-6.427 1.474a24.61 24.61 0 0 0-2.732-3.194l2.429-6.123-4.985-3.403-4.826 4.491a25.168 25.168 0 0 0-3.966-1.391l-.955-6.528-6.021-.462-1.936 6.325a24.774 24.774 0 0 0-4.13.785l-4.093-5.174-5.44 2.612 1.474 6.426a25.161 25.161 0 0 0-3.162 2.733L80.68 464.4l-3.441 4.946 4.497 4.833a25.168 25.168 0 0 0-1.398 3.96l-6.521.961-.443 6.06 6.325 1.935c.147 1.396.409 2.778.785 4.131l-5.212 4.054 2.612 5.446 6.426-1.48a25.195 25.195 0 0 0 2.733 3.201l-2.435 6.116 4.984 3.409 4.826-4.49a25.286 25.286 0 0 0 3.966 1.391l.962 6.528 6.015.455 1.935-6.293a24.779 24.779 0 0 0 4.131-.785l4.092 5.168 5.44-2.612-1.474-6.427a24.558 24.558 0 0 0 3.163-2.732l6.123 2.429 3.409-4.985-4.491-4.826a25.656 25.656 0 0 0 1.392-3.966l6.521-.955.462-6.022-6.294-1.929a25.515 25.515 0 0 0-.784-4.137l5.199-4.086Zm-22.733 24.808a15.537 15.537 0 0 1-17.096-2.436 15.547 15.547 0 0 1-4.29-16.728 15.54 15.54 0 0 1 22.576-8.222 15.546 15.546 0 0 1 6.747 18.528 15.538 15.538 0 0 1-7.937 8.858ZM220.342 401.242l-4.472-9.311-10.999 2.53a42.406 42.406 0 0 0-4.675-5.446l4.156-10.475-8.527-5.825-8.267 7.685a43.593 43.593 0 0 0-6.78-2.385l-1.639-11.164-10.304-.784-3.308 10.753a42.482 42.482 0 0 0-7.071 1.341l-6.996-8.856-9.317 4.472 2.53 10.994a42.843 42.843 0 0 0-5.465 4.68l-10.475-4.155-5.832 8.526 7.685 8.261a43.74 43.74 0 0 0-2.384 6.781l-11.183 1.657-.785 10.298 10.753 3.308c.249 2.39.698 4.756 1.341 7.071l-8.855 7.002 4.504 9.292 10.999-2.53a42.259 42.259 0 0 0 4.675 5.471l-4.156 10.475 8.526 5.832 8.267-7.692a43.537 43.537 0 0 0 6.781 2.385l1.638 11.164 10.304.785 3.308-10.753a42.494 42.494 0 0 0 7.072-1.341l6.996 8.855 9.317-4.472-2.53-10.993a42.77 42.77 0 0 0 5.465-4.681l10.487 4.168 5.832-8.558-7.685-8.261a43.838 43.838 0 0 0 2.385-6.78l11.164-1.645.784-10.297-10.753-3.308a43.01 43.01 0 0 0-1.341-7.072l8.83-7.002Zm-38.907 42.442a26.568 26.568 0 0 1-27.424-45.205 26.572 26.572 0 0 1 29.464-1.629 26.562 26.562 0 0 1 13.013 21.406 26.568 26.568 0 0 1-15.053 25.428Z" fill="#fff"/><path d="M193.435 556.414c5.863 1.031 44.909 7.634 64.922-3.163 2.79-1.499 7.116-3.795 9.975-8.716 5.693-9.76-1.859-17.04 2.202-24.719 5.357-10.121 21.411-2.904 39.931-16.446 4.428-3.245 11.354-8.292 13.656-16.895 2.562-9.608-3.27-13.764-1.663-23.062 2.005-11.594 12.328-12.397 20.437-24.523 8.539-12.771 12.733-35.257 1.334-49.033-9.943-12.018-27.964-12.853-39.615-9.918-17.211 4.332-29.096 19.051-33.227 32.834-5.926 19.817 4.498 36.687-1.866 40.412-5.933 3.479-15.224-10.987-26.983-7.849-8.223 2.194-14.706 12.188-15.13 21.196-.588 12.473 10.753 17.438 8.324 25.301-2.53 8.223-16.161 6.584-26.75 14.181-8.729 6.294-16.648 19.748-15.547 50.4Z" fill="#95DBFA"/><path d="M198.155 556.888a.946.946 0 0 1-.925-.761.946.946 0 0 1 .558-1.06c46.263-19.609 74.917-56.548 90.806-84.057 17.242-29.843 23.599-55.372 23.662-55.663a.96.96 0 0 1 .432-.586.963.963 0 0 1 .72-.109.958.958 0 0 1 .586.431.946.946 0 0 1 .109.72c-.063.253-6.477 26.003-23.84 56.073a223.028 223.028 0 0 1-35.465 46.643c-16.68 16.623-35.612 29.495-56.295 38.262a.966.966 0 0 1-.348.107Z" fill="#fff"/><path d="M217.668 530.436c65.106 14.63 90.635 6.053 101.47-5.927 3.239-3.58 8.982-11.632 20.399-18.071 14.801-8.35 24.757-5.87 37.8-8.963 25.497-6.054 46.44-29.571 54.233-52.646 5.446-16.116 9.14-45.807-7.755-60.305-7.147-6.129-19.893-11.195-27.439-6.401-10.797 6.863.082 28.464-13.511 42.436-7.413 7.629-12.745 3.422-20.551 11.588-12.302 12.866-4.781 29.299-14.238 34.707-9.159 5.231-18.64-8.988-30.798-4.333-13.865 5.313-11.689 26.826-25.345 30.431-8.134 2.151-10.582-5.06-20.241-3.58-11.74 1.771-14.548 13.378-29.906 26.636-8.615 7.432-17.356 11.531-24.118 14.428Z" fill="#03A9F4"/><path d="M223.918 530.86a.953.953 0 0 1-1.006-.892.95.95 0 0 1 .892-1.006c51.81-6.281 104.436-25.092 140.781-50.324 47.883-33.252 56.441-70.21 56.523-70.609a.95.95 0 0 1 1.853.405c-.082.386-2.156 9.633-10.265 23.169-7.464 12.455-21.684 30.994-47.029 48.591-16.49 11.449-37.281 22.044-60.122 30.646a351.89 351.89 0 0 1-81.514 20.007l-.113.013Z" fill="#CCEDFB"/><path d="m286.5 1.763 191.428-.557a6.542 6.542 0 0 1 4.832 2.117 6.553 6.553 0 0 1 1.702 4.993l-13.403 150.459a6.549 6.549 0 0 1-6.528 5.959l-235.8-.038c-3.852 0-6.914-3.631-6.572-7.452l13.403-149.53c.304-3.37 3.024-6.325 6.42-6.325l44.518.367v.007Z" fill="#353535"/><path d="M275.488 1.206H468.63a6.609 6.609 0 0 1 6.585 7.198l-13.467 151.269a6.62 6.62 0 0 1-6.578 6.06H217.219a6.615 6.615 0 0 1-4.89-2.159 6.621 6.621 0 0 1-1.694-5.071L224.088 7.234a6.615 6.615 0 0 1 6.585-6.028h44.815Z" fill="#95DBFA"/><path d="M443.764 155.796H228.521a6.396 6.396 0 0 1-4.714-2.077 6.386 6.386 0 0 1-1.649-4.881l.576-5.787a6.387 6.387 0 0 1 6.363-5.82H444.34a6.4 6.4 0 0 1 4.689 2.091 6.396 6.396 0 0 1 1.636 4.867l-.575 5.788a6.395 6.395 0 0 1-6.326 5.819ZM295.423 65.483h-56.478a6.388 6.388 0 0 1-6.357-6.958l3.523-38.204a6.385 6.385 0 0 1 6.357-5.82h56.478a6.386 6.386 0 0 1 6.357 6.958l-3.523 38.205a6.382 6.382 0 0 1-6.357 5.82Z" fill="#fff"/><path d="M273.97 29.139h-7.268a.818.818 0 0 1-.816-.892l.456-4.915a.814.814 0 0 1 .816-.746h7.261a.816.816 0 0 1 .816.892l-.449 4.915a.814.814 0 0 1-.816.746ZM285.615 29.139h-7.268a.815.815 0 0 1-.816-.892l.455-4.915a.816.816 0 0 1 .816-.746h7.262a.82.82 0 0 1 .777.556.83.83 0 0 1 .039.336l-.449 4.915a.82.82 0 0 1-.816.746Z" fill="#CCEDFB"/><path d="M249.813 38.525h-7.261a.826.826 0 0 1-.781-.555.815.815 0 0 1-.041-.336l.455-4.915a.814.814 0 0 1 .816-.747h7.268a.813.813 0 0 1 .806.549c.038.11.052.227.041.343l-.455 4.915a.817.817 0 0 1-.848.746Z" fill="#95DBFA"/><path d="M261.458 38.525h-7.262a.818.818 0 0 1-.607-.265.815.815 0 0 1-.215-.627l.455-4.914a.82.82 0 0 1 .816-.747h7.268a.815.815 0 0 1 .816.892l-.455 4.915a.816.816 0 0 1-.816.746Z" fill="#CCEDFB"/><path d="M273.102 38.525h-7.262a.829.829 0 0 1-.822-.892l.455-4.914a.821.821 0 0 1 .823-.747h7.267a.816.816 0 0 1 .816.892l-.455 4.915a.816.816 0 0 1-.822.746Z" fill="#007BB3"/><path d="M284.746 38.525h-7.261a.834.834 0 0 1-.605-.267.812.812 0 0 1-.217-.625l.455-4.914a.814.814 0 0 1 .816-.747h7.268a.818.818 0 0 1 .816.892l-.456 4.915a.814.814 0 0 1-.816.746ZM248.954 47.918h-7.267a.829.829 0 0 1-.606-.27.814.814 0 0 1-.21-.628l.455-4.915a.819.819 0 0 1 .816-.746h7.262a.813.813 0 0 1 .815.892l-.449 4.915a.82.82 0 0 1-.816.752ZM260.605 47.918h-7.274a.82.82 0 0 1-.816-.898l.456-4.915a.814.814 0 0 1 .816-.746h7.261a.819.819 0 0 1 .783.555c.037.108.05.223.039.337l-.449 4.915a.82.82 0 0 1-.816.752ZM272.243 47.918h-7.267a.829.829 0 0 1-.606-.27.814.814 0 0 1-.21-.628l.455-4.915a.819.819 0 0 1 .816-.746h7.262a.829.829 0 0 1 .822.892l-.456 4.915a.82.82 0 0 1-.816.752ZM283.887 47.918h-7.267a.826.826 0 0 1-.795-.557.822.822 0 0 1-.04-.341l.455-4.915a.818.818 0 0 1 .81-.746h7.261a.83.83 0 0 1 .823.892l-.456 4.915a.826.826 0 0 1-.791.752Z" fill="#CCEDFB"/><path d="M297.321 29.139h-7.261a.826.826 0 0 1-.781-.556.834.834 0 0 1-.042-.336l.456-4.915a.814.814 0 0 1 .816-.746h7.267a.816.816 0 0 1 .816.892l-.455 4.915a.814.814 0 0 1-.816.746ZM296.462 38.525h-7.267a.816.816 0 0 1-.816-.892l.455-4.914a.814.814 0 0 1 .816-.747h7.261a.815.815 0 0 1 .816.892l-.436 4.915a.817.817 0 0 1-.829.746Z" fill="#95DBFA"/><path d="M295.594 47.918h-7.261a.832.832 0 0 1-.781-.561.82.82 0 0 1-.041-.337l.455-4.915a.819.819 0 0 1 .816-.746h7.243a.813.813 0 0 1 .777.556.83.83 0 0 1 .039.336l-.456 4.915a.826.826 0 0 1-.791.752Z" fill="#007BB3"/><path d="M247.952 57.488h-7.287a.826.826 0 0 1-.781-.555.816.816 0 0 1-.041-.337l.455-4.914a.819.819 0 0 1 .816-.747h7.268a.819.819 0 0 1 .795.552c.037.11.051.225.04.34l-.456 4.915a.817.817 0 0 1-.809.746ZM259.571 57.489h-7.261a.824.824 0 0 1-.823-.892l.456-4.915a.814.814 0 0 1 .816-.746h7.267a.815.815 0 0 1 .816.891l-.455 4.915a.814.814 0 0 1-.816.747Z" fill="#CCEDFB"/><path d="M271.219 57.489h-7.261a.83.83 0 0 1-.823-.892l.456-4.915a.813.813 0 0 1 .809-.746h7.274a.815.815 0 0 1 .816.891l-.455 4.915a.819.819 0 0 1-.816.747Z" fill="#95DBFA"/><path d="M282.862 57.489h-7.261a.815.815 0 0 1-.816-.892l.449-4.915a.814.814 0 0 1 .816-.746h7.268a.813.813 0 0 1 .777.556.83.83 0 0 1 .039.335l-.456 4.915a.814.814 0 0 1-.816.747Z" fill="#CCEDFB"/><path d="M450.147 65.483H316.531a6.386 6.386 0 0 1-4.712-2.077 6.381 6.381 0 0 1-1.645-4.88l3.524-38.205a6.38 6.38 0 0 1 6.363-5.813H453.67a6.383 6.383 0 0 1 6.325 6.958l-3.523 38.204a6.38 6.38 0 0 1-6.325 5.813Z" fill="#fff"/><path d="M339.576 29.139h-18.084a.817.817 0 0 1-.797-.892l.455-4.915a.818.818 0 0 1 .81-.746h18.084a.816.816 0 0 1 .816.892l-.455 4.915a.817.817 0 0 1-.829.746ZM363.075 38.525h-42.443a.815.815 0 0 1-.816-.892l.449-4.914a.823.823 0 0 1 .822-.747h42.424a.818.818 0 0 1 .829.892l-.449 4.915a.82.82 0 0 1-.816.746ZM390.557 47.918h-70.792a.82.82 0 0 1-.816-.898l.455-4.915a.815.815 0 0 1 .816-.746h70.786a.815.815 0 0 1 .816.892l-.449 4.915a.82.82 0 0 1-.816.752Z" fill="#95DBFA"/><path d="M445.674 126.01H312.059a6.375 6.375 0 0 1-4.713-2.077 6.387 6.387 0 0 1-1.644-4.881l3.523-38.204a6.38 6.38 0 0 1 6.357-5.813h133.615a6.39 6.39 0 0 1 6.363 6.958l-3.523 38.198a6.387 6.387 0 0 1-6.363 5.819Z" fill="#fff"/><path d="M323.501 119.723h-7.236a.817.817 0 0 1-.777-.556.814.814 0 0 1-.039-.336l1.265-14.51a.813.813 0 0 1 .816-.746h7.261a.826.826 0 0 1 .608.265.819.819 0 0 1 .215.627l-1.265 14.51a.817.817 0 0 1-.848.746ZM335.154 119.723h-7.268a.817.817 0 0 1-.777-.556.814.814 0 0 1-.039-.336l1.79-20.146a.823.823 0 0 1 .822-.746h7.262a.818.818 0 0 1 .816.892l-1.79 20.171a.818.818 0 0 1-.816.721ZM358.45 119.723h-7.261a.822.822 0 0 1-.823-.892l2.859-30.633a.825.825 0 0 1 .816-.753h7.262a.822.822 0 0 1 .816.899l-2.84 30.633a.82.82 0 0 1-.829.746ZM370.097 119.723h-7.262a.822.822 0 0 1-.777-.556.833.833 0 0 1-.039-.336l2.53-26.345a.825.825 0 0 1 .816-.753h7.262a.82.82 0 0 1 .816.899l-2.53 26.344a.822.822 0 0 1-.816.747Z" fill="#CCEDFB"/><path d="M346.939 119.723h-7.268a.82.82 0 0 1-.605-.265.81.81 0 0 1-.211-.627l3.213-34.498a.816.816 0 0 1 .816-.746h7.262a.818.818 0 0 1 .607.265.815.815 0 0 1 .215.627l-3.22 34.498a.816.816 0 0 1-.809.746ZM381.919 119.723h-7.267a.818.818 0 0 1-.816-.892l.632-7.287a.822.822 0 0 1 .816-.752h7.274a.82.82 0 0 1 .816.898l-.632 7.286a.819.819 0 0 1-.823.747Z" fill="#95DBFA"/><path d="M429.288 119.944h-7.261a.817.817 0 0 1-.778-.556.813.813 0 0 1-.038-.336l1.265-14.51a.813.813 0 0 1 .816-.746h7.267a.817.817 0 0 1 .777.556c.037.108.05.222.039.336l-1.265 14.51a.822.822 0 0 1-.822.746ZM393.561 119.723H386.3a.817.817 0 0 1-.777-.556.814.814 0 0 1-.039-.336l1.79-20.146a.819.819 0 0 1 .816-.746h7.242a.82.82 0 0 1 .781.556.834.834 0 0 1 .042.336l-1.797 20.171a.813.813 0 0 1-.797.721ZM417.087 119.816h-7.268a.824.824 0 0 1-.815-.898l1.79-20.165a.824.824 0 0 1 .822-.753h7.261a.829.829 0 0 1 .606.27.815.815 0 0 1 .21.628l-1.79 20.165a.82.82 0 0 1-.816.753Z" fill="#CCEDFB"/><path d="M405.353 119.723h-7.268a.822.822 0 0 1-.777-.557.828.828 0 0 1-.039-.335l2.53-26.687a.823.823 0 0 1 .823-.746h7.236a.818.818 0 0 1 .816.892l-2.53 26.686a.818.818 0 0 1-.791.747Z" fill="#95DBFA"/><path d="M385.889 421.419c-29.388 2.493-57.016-6.584-77.801-25.56l-45.062-40.943-46.256 49.969a8.072 8.072 0 0 1-.31.329c-20.589 21.506-47.649 34.663-76.201 37.085-60.672 5.155-110.06-39.925-110.06-100.489 0-60.565 49.337-114.033 110.06-119.188 31.298-2.663 61.14 8.141 82.007 29.647l40.735 37.003 46.94-50.716c.152-.165.304-.329.462-.487 20.487-21.038 47.294-33.942 75.473-36.333 60.691-5.155 110.028 39.9 110.028 100.49 0 60.59-49.337 114.038-110.015 119.193Zm-89.864-102.146 44.967 40.855c12.018 10.974 27.945 16.211 44.909 14.769 34.973-2.973 63.424-33.796 63.424-68.711 0-34.916-28.464-60.9-63.424-57.927-16.142 1.372-31.506 8.722-43.29 20.715l-46.586 50.299Zm-155.766-50.147c-34.972 2.973-63.43 33.796-63.43 68.711 0 34.916 28.464 60.906 63.43 57.933 16.389-1.397 31.93-8.931 43.777-21.227l45.96-49.635-41.115-37.319a22.602 22.602 0 0 1-1.037-1.018c-12.043-12.638-29.387-19.001-47.585-17.445Z" fill="#353535"/><path d="M393.201 407.042c-29.394 2.53-57.023-6.578-77.801-25.56l-45.061-40.937-46.257 49.969c-.101.114-.209.222-.31.329-20.589 21.506-47.655 34.663-76.207 37.085-60.666 5.156-110.022-39.925-110.022-100.489 0-60.565 49.337-114.039 110.022-119.194 31.304-2.663 61.172 8.128 82.045 29.634l40.735 37.009 46.946-50.703.462-.487c20.494-21.038 47.3-33.942 75.479-36.333 60.666-5.155 110.022 39.926 110.022 100.49 0 60.565-49.388 114.032-110.053 119.187Zm-89.857-102.153 44.966 40.855c12.018 10.981 27.945 16.212 44.91 14.776 34.972-2.973 63.423-33.796 63.423-68.712 0-34.915-28.463-60.899-63.423-57.933-16.149 1.373-31.507 8.729-43.291 20.722l-46.585 50.292Zm-155.779-50.134c-34.973 2.973-63.436 33.796-63.436 68.711 0 34.916 28.463 60.9 63.436 57.959 16.395-1.392 31.936-8.925 43.783-21.221l45.96-49.635-41.114-37.319a19.55 19.55 0 0 1-1.038-1.018c-12.043-12.67-29.393-19.02-47.591-17.477Z" fill="#95DBFA"/><path d="M226.536 378.262a21.5 21.5 0 0 1-16.503-5.44c-9.083-8.324-9.064-23.055.051-32.891l82.146-88.737c9.109-9.843 23.859-11.076 32.949-2.746 9.089 8.331 9.057 23.056-.057 32.892l-82.166 88.744a25.484 25.484 0 0 1-16.42 8.178ZM430.243 395.638c-8.729.74-17.078-3.466-21.082-11.531-5.497-11.145-.525-25.434 11.107-31.917 22.088-12.303 36.358-35.997 36.358-60.375s-14.27-45.65-36.358-54.195c-11.632-4.504-16.604-17.951-11.101-30.032 5.503-12.082 19.387-18.224 30.994-13.72a97.486 97.486 0 0 1 45.472 35.928c11.494 16.774 17.566 36.851 17.566 58.059a116.875 116.875 0 0 1-17.566 61.052 124.604 124.604 0 0 1-45.472 43.644 24.787 24.787 0 0 1-9.918 3.087ZM73.324 392.393c-7.888.671-15.579-2.676-19.956-9.532-10.355-16.212-15.813-35.377-15.813-55.435 0-60.564 49.337-114.038 110.022-119.193 31.569-2.682 61.652 8.33 82.544 30.203 8.514 8.912 7.591 23.688-2.062 33.005-9.652 9.317-24.377 9.646-32.891.734-12.05-12.613-29.4-18.976-47.598-17.42-34.979 2.973-63.442 33.796-63.442 68.711a59.137 59.137 0 0 0 9.102 31.93c6.654 10.425 3.162 25.03-7.882 32.614a25.054 25.054 0 0 1-12.024 4.383Z" fill="#fff"/><path d="M196.838 306.914c-2.366-10.582-3.954-20.873-3.954-20.873l-86.96 27.388c-3.46 9.874-1.486 40.482-.493 53.342.348 4.509 1.151 11.385 2.189 19.406a259.614 259.614 0 0 0 39.159.727c.336-7.369.266-13.46.481-16.345.715-9.551 3.681-21.075 3.681-21.075 2.644 5.281 5.162 21.189 6.958 36.617a308.095 308.095 0 0 0 42.595-6.895c-.102-1.626.74-52.645-3.656-72.292Z" fill="#353535"/><path d="M185.123 312.816c-5.933 0-10.709-2.796-13.321-8.116a.95.95 0 0 1 .412-1.311.951.951 0 0 1 1.29.476c3.478 7.085 11.132 8.989 20.475 5.061a.942.942 0 0 1 .726-.003.942.942 0 0 1 .516.512.949.949 0 0 1-.509 1.243 25.104 25.104 0 0 1-9.589 2.138ZM147.81 329.268a.945.945 0 0 1-.778-.405c-3.226-4.604-2.935-11.6-2.916-11.897a.95.95 0 0 1 1.898.094c0 .064-.272 6.648 2.581 10.715a.953.953 0 0 1-.286 1.356.95.95 0 0 1-.492.137h-.007Z" fill="#CCEDFB"/><path d="m241.906 92.29-11.031-7.337a3.692 3.692 0 0 0-5.212 1.19c-26.68 44.554-70.735 62.512-84.815 67.25a14.664 14.664 0 0 1-8.647.234l-5.275-1.474-19.021 5.269-2.903 3.947a37.102 37.102 0 0 1-13.789 11.322l-3.093 1.474s-13.233 8.191-20.285 18.273c-6.104 8.729-14.093 52.5 4.137 75.904a13.717 13.717 0 0 0 15.718 4.427c6.205-2.365 10.905-4.427 15.048-10.651.442-.633.221 51.317.221 51.317 37.598 14.548 93.494-28.647 93.494-28.647-13.017-33.113-18.438-58.332-20.608-74.936a34.787 34.787 0 0 1 14.51-33.069c39.477-27.616 50.843-70.052 53.133-80.666a3.673 3.673 0 0 0-1.582-3.827Z" fill="#03A9F4"/><path d="M119.886 190.642a.95.95 0 0 1-.948-.956V176.1a.945.945 0 0 1 1.619-.665.948.948 0 0 1 .278.671v13.587a.95.95 0 0 1-.949.949ZM125.167 174.822c.884 0 1.6-.713 1.6-1.594 0-.88-.716-1.594-1.6-1.594-.884 0-1.601.714-1.601 1.594 0 .881.717 1.594 1.601 1.594Z" fill="#353535"/><path d="M230.484 87.166a2.438 2.438 0 0 1 0-2.416c.576-.987 1.543-2.663 2.941-5.123 2.461-4.346 4.731-12.094 7.945-15.301 3.213-3.207 15.345-13.6 17.97-13.226 2.625.373 2.46 3.403-.184 6.047-2.644 2.644-6.243 5.692-6.243 5.692s2.265-.948 4.915 1.133c2.65 2.08.633 3.99 2.119 4.965 1.898 1.265 2.189 3.352 1.474 4.573-1.626 2.783-5.794-.133-6.471 4.63-.474 3.315-3.27 6.326-9.772 10.12a16.25 16.25 0 0 0-4.536 3.929 2.288 2.288 0 0 1-2.176.803 11.279 11.279 0 0 1-7.982-5.826Z" fill="#fff"/><path d="M238.872 93.967a2.748 2.748 0 0 1-.556-.051 12.198 12.198 0 0 1-8.66-6.287 3.419 3.419 0 0 1 0-3.359c.576-.987 1.544-2.657 2.935-5.11a60.527 60.527 0 0 0 2.612-5.605c1.632-3.795 3.315-7.73 5.491-9.9 1.442-1.441 15.18-13.984 18.78-13.49a2.94 2.94 0 0 1 2.53 1.954c.537 1.619-.31 3.795-2.208 5.692-1.372 1.38-3.017 2.866-4.282 3.979a7.114 7.114 0 0 1 2.878 1.404 4.425 4.425 0 0 1 1.866 4.017c0 .708 0 .79.19.904 2.308 1.53 2.713 4.226 1.771 5.845-.943 1.619-2.461 1.784-3.688 1.948-1.531.202-2.378.31-2.669 2.334-.531 3.72-3.593 6.958-10.234 10.797a15.324 15.324 0 0 0-4.27 3.7 3.259 3.259 0 0 1-2.486 1.228Zm20.279-41.93c-2.132 0-12.954 8.855-17.078 12.96-1.898 1.897-3.53 5.693-5.06 9.304a59.591 59.591 0 0 1-2.708 5.788 400.52 400.52 0 0 1-2.947 5.142 1.48 1.48 0 0 0 0 1.48 10.35 10.35 0 0 0 7.337 5.34 1.323 1.323 0 0 0 1.265-.494 17.2 17.2 0 0 1 4.795-4.15c6.085-3.53 8.855-6.325 9.31-9.424.494-3.448 2.695-3.739 4.302-3.954 1.17-.151 1.859-.278 2.296-1.024.436-.747.284-2.334-1.183-3.302-1.05-.702-1.044-1.74-1.037-2.53a2.61 2.61 0 0 0-1.139-2.53c-2.144-1.683-3.909-1.025-3.985-1a.95.95 0 0 1-.961-1.606c.038 0 3.592-3.03 6.186-5.61 1.543-1.544 1.98-3.03 1.739-3.758-.044-.14-.19-.557-1.018-.677l-.114.044Z" fill="#353535"/><path d="m141.821 261.448-35.422 10.513a2.803 2.803 0 0 1-2.973-.928 2.797 2.797 0 0 1-.506-.97l-14.004-47.035a2.794 2.794 0 0 1 1.898-3.479l35.421-10.512a2.802 2.802 0 0 1 3.479 1.897l14.004 47.035a2.789 2.789 0 0 1-1.897 3.479Z" fill="#fff"/><path d="m113.178 256.292-3.669 1.089a1.012 1.012 0 0 0-.682 1.258l1.038 3.499c.159.536.723.841 1.259.682l3.668-1.089a1.01 1.01 0 0 0 .682-1.258l-1.038-3.499a1.012 1.012 0 0 0-1.258-.682ZM123.262 259.089l-3.662 1.088a.998.998 0 0 1-.775-.073.997.997 0 0 1-.49-.604l-3.498-11.74a1.013 1.013 0 0 1 .683-1.265l3.662-1.088a1.015 1.015 0 0 1 1.265.684l3.53 11.746a1.008 1.008 0 0 1-.715 1.252ZM131.769 256.59l-3.662 1.088a.998.998 0 0 1-.775-.073 1.008 1.008 0 0 1-.49-.604l-9.937-33.372a1 1 0 0 1 .33-1.082 1 1 0 0 1 .353-.183l3.662-1.088a1.012 1.012 0 0 1 1.265.677l9.937 33.372a1.002 1.002 0 0 1-.683 1.265Z" fill="#007BB3"/><path d="M87.602 233.054c1.974-2.29 3.46-2.562 3.46-2.562l1.265 3.992s11.898-13.745 17.951-5.314c3.795 5.244-8.963 15.023-12.55 20.76-2.01 3.213-5.06 7.932-9.79 7.59-3.309-.253-4.783-1.385-5.65-3.972-1.131-3.397 2.088-6.622 1.898-11.031-.202-5.263.962-6.616 3.416-9.463Z" fill="#fff"/><path d="M88.466 258.469h-.595c-3.599-.272-5.471-1.613-6.477-4.611-.708-2.132 0-4.175.74-6.142.588-1.62 1.196-3.289 1.114-5.149-.235-5.63 1.138-7.217 3.63-10.121 2.132-2.466 3.827-2.84 4.01-2.871a.94.94 0 0 1 1.075.632l.779 2.442c2.334-2.397 7.83-7.375 12.891-7.16a6.88 6.88 0 0 1 5.427 3.124c3.061 4.27-2.53 10.399-7.502 15.814-2.037 2.232-3.966 4.332-5.016 6.015-1.904 3.023-5.035 8.027-10.076 8.027Zm-.152-24.795c-2.385 2.77-3.371 3.915-3.163 8.785a15.005 15.005 0 0 1-1.227 5.877c-.632 1.815-1.227 3.39-.72 4.895.752 2.265 1.973 3.106 4.82 3.321h.417c4.022 0 6.806-4.428 8.494-7.141 1.139-1.828 3.125-3.998 5.225-6.287 4.244-4.637 9.526-10.406 7.356-13.423a5.01 5.01 0 0 0-3.972-2.334c-5.528-.253-12.423 7.635-12.492 7.717a.948.948 0 0 1-.911.31.94.94 0 0 1-.709-.632l-.98-2.98a9.186 9.186 0 0 0-2.157 1.898l.02-.006Z" fill="#353535"/><path d="M128.682 201.947a.897.897 0 0 1-.335-.063.95.95 0 0 1-.557-1.221l3.96-10.538a.947.947 0 0 1 1.224-.554.949.949 0 0 1 .553 1.224l-3.959 10.538a.952.952 0 0 1-.886.614ZM132.972 206.216a.951.951 0 0 1-.702-.31.944.944 0 0 1 .057-1.341l16.819-15.427a.952.952 0 0 1 .707-.338.949.949 0 0 1 .558 1.729l-16.819 15.478a.927.927 0 0 1-.62.209ZM123.075 167.118l-3.125.999c-.455.146.285 8.609-.17 8.679-3.637.531-15.074.594-12.069-10.184a16.51 16.51 0 0 0-.196-9.488l-4.339-13.53 19.311-6.167 6.091 18.976a8.488 8.488 0 0 1-.519 6.504 8.467 8.467 0 0 1-4.984 4.211Z" fill="#fff"/><path d="M117.022 177.922c-2.746 0-6.743-.506-9.065-3.163-1.777-2.018-2.175-4.851-1.176-8.425a15.494 15.494 0 0 0-.19-8.912l-4.339-13.53a.96.96 0 0 1 .633-1.196l19.304-6.167a.949.949 0 0 1 1.196.633l6.091 18.976a9.437 9.437 0 0 1-6.129 11.885l-2.606.828c-.038.785 0 2.436.057 3.599.139 4.346.171 5.124-.898 5.282-.954.13-1.916.193-2.878.19Zm-12.651-33.695 4.048 12.651a17.399 17.399 0 0 1 .209 10.006c-.816 2.91-.55 5.155.778 6.661 2.17 2.467 6.882 2.682 9.576 2.41 0-.81 0-2.334-.063-3.422-.145-4.346-.164-5.01.747-5.301l3.124-.999a7.512 7.512 0 0 0 4.416-3.728 7.516 7.516 0 0 0 .467-5.76l-5.8-18.103-17.502 5.585Z" fill="#353535"/><path d="m126.275 144.297-20.727 6.622-5.782-18.02a13.917 13.917 0 0 1 9.033-17.484l8.855-2.821a4.67 4.67 0 0 1 3.557.294 4.67 4.67 0 0 1 2.307 2.724l6.704 21.025a6.097 6.097 0 0 1-.386 4.648 6.088 6.088 0 0 1-3.561 3.012Z" fill="#fff"/><path d="M105.546 151.868a.937.937 0 0 1-.904-.632l-5.781-18.021a14.844 14.844 0 0 1 9.633-18.717l8.824-2.821a5.616 5.616 0 0 1 7.059 3.631l6.742 21.032a7 7 0 0 1 .316 2.731 7.011 7.011 0 0 1-2.469 4.795 7.027 7.027 0 0 1-2.407 1.329l-7.495 2.391a18.986 18.986 0 0 1-7.926.791.954.954 0 0 1-.487-1.696.95.95 0 0 1 .702-.202 17.04 17.04 0 0 0 7.135-.702l7.495-2.397a5.146 5.146 0 0 0 3.334-6.458l-6.749-21.038a3.719 3.719 0 0 0-3.235-2.565 3.739 3.739 0 0 0-1.44.167l-8.817 2.815a12.969 12.969 0 0 0-8.977 11.267 12.956 12.956 0 0 0 .571 5.027l5.781 18.021a.952.952 0 0 1-.465 1.162.958.958 0 0 1-.44.103v-.013Z" fill="#353535"/><path d="m103.314 143.424-5.06-4.801a14.994 14.994 0 0 1-3.795-5.762l-.038-.102a26.034 26.034 0 0 1-1.6-10.158c.594-10.968 8.127-15.276 15.673-15.13h.057a8.554 8.554 0 0 0 6.958-3.378l1.778-2.34a3.155 3.155 0 0 1 2.456-1.279 3.167 3.167 0 0 1 2.522 1.146c1.663 2.018 3.263 5.092 2.365 8.912l-1.176 3.334-17.047 5.149a3.093 3.093 0 0 0-2.169 3.346l.974 7.641a.865.865 0 0 1-.582.929l-1.714.57-3.214-.399 3.612 12.322Z" fill="#353535"/><path d="m102.917 131.5-1.512-.872a2.532 2.532 0 0 0-2.88.197 2.543 2.543 0 0 0-.65.783 2.53 2.53 0 0 0 .19 2.745l1.044 1.411a7.305 7.305 0 0 0 3.485 2.574l1.664.588-1.341-7.426Z" fill="#fff"/><path d="M417.324 348.034s15.263 5.693 21.247.898c5.984-4.794-9.279-12.872-12.866-12.271-3.586.601-8.381 11.373-8.381 11.373Z" fill="#353535"/><path d="m346.184 463.723 13.321 23.296 7.21-9.981-11.651-22.746-8.88 9.431Z" fill="#fff"/><path d="M359.499 487.968h-.05a.954.954 0 0 1-.772-.475l-13.283-23.302a.952.952 0 0 1 .133-1.12l8.855-9.431a.95.95 0 0 1 1.537.216l11.651 22.771a.944.944 0 0 1-.069.942l-7.211 9.988a.965.965 0 0 1-.791.411Zm-12.138-24.106 12.233 21.411 6.009-8.337-10.753-21.031-7.489 7.957Z" fill="#353535"/><path d="M354.896 483.465c3.51 7.242 12.398 24.795 20.962 33.214a3.794 3.794 0 0 0 5.39-.015c.47-.477.806-1.07.973-1.719 2.682-10.12 4.466-31.253-5.522-47.895 0 0-4.744-.556-13.624 1.107l1.979 8.324-1.094-.778a4.373 4.373 0 0 0-5.395.234l-2.53 2.195a4.461 4.461 0 0 0-1.139 5.333Z" fill="#353535"/><path d="M377.255 514.598a1.062 1.062 0 0 1-.335-.057.954.954 0 0 1-.55-1.227c7.539-19.931-2.651-43.43-2.758-43.645a.95.95 0 1 1 1.739-.765c.437.987 10.608 24.447 2.79 45.105a.947.947 0 0 1-.886.589ZM361.588 493.515a.947.947 0 0 1-.519-1.739l5.13-3.334a.954.954 0 0 1 1.446.999.935.935 0 0 1-.415.595l-5.13 3.346a.898.898 0 0 1-.512.133ZM363.384 500.422a.95.95 0 0 1-.896-.645.946.946 0 0 1 .321-1.056l6.104-4.687a.949.949 0 1 1 1.157 1.505l-6.104 4.687a.963.963 0 0 1-.582.196ZM304.028 464.286c0 .557-12.208 27.199-12.208 27.199l13.872 1.107 9.431-22.771-11.095-5.535Z" fill="#fff"/><path d="M305.693 493.515h-.076l-13.872-1.107a.946.946 0 0 1-.74-.471.957.957 0 0 1-.044-.876c4.674-10.197 11.721-25.706 12.138-26.971a.951.951 0 0 1 1.354-.664l11.094 5.547a.953.953 0 0 1 .449 1.214l-9.431 22.771a.94.94 0 0 1-.872.557Zm-12.442-2.891 11.828.943 8.855-21.291-9.386-4.693c-.93 2.157-3.543 8.102-11.297 25.041Z" fill="#353535"/><path d="M304.578 485.912s-2.77-6.661-9.981-3.327c0 0-13.239 19.121-18.16 34.909a5.45 5.45 0 0 0 1.61 5.684 5.455 5.455 0 0 0 5.841.882c9.982-4.504 25.618-13.96 34.562-31.494 0 0-2.777-7.211-7.211-10.538l-6.661 3.884Z" fill="#353535"/><path d="M280.484 520.196a7.447 7.447 0 0 1-1.012-.057.948.948 0 0 1-.352-.126.95.95 0 0 1-.439-.588.97.97 0 0 1 .358-1.004.967.967 0 0 1 .711-.18c.171 0 14.77 1.639 34.6-25.693a.939.939 0 0 1 .988-.366.948.948 0 0 1 .549 1.479c-17.875 24.663-31.639 26.535-35.403 26.535ZM291.819 505.166a.943.943 0 0 1-.481-.127l-6.654-3.884a.95.95 0 0 1-.313-1.279.948.948 0 0 1 1.268-.359l6.66 3.884a.946.946 0 0 1 .094 1.569.955.955 0 0 1-.574.196ZM295.146 500.176a.962.962 0 0 1-.449-.114l-7.211-3.883a.95.95 0 0 1 .191-1.721.947.947 0 0 1 .707.051l7.211 3.883a.953.953 0 0 1 .47 1.067.952.952 0 0 1-.919.717Z" fill="#fff"/><path d="M375.034 330.019s-36.155 6.458-62.215 33.777a26.298 26.298 0 0 0-6.079 25.934c5.788 18.678 18.388 52.784 39.444 78.433l16.092-13.865s-3.884-32.183-14.422-52.152 51.039-63.253 51.039-63.253l-23.859-8.874Z" fill="#353535"/><path d="m299.586 469.27 18.862 5.548s34.397-72.678 44.384-83.222c9.988-10.544 29.4-27.736 49.932-33.84 20.532-6.104 20.519-21.633 20.519-21.633l-34.953-9.987s-48.819 21.082-64.91 44.909c-16.092 23.828-33.834 98.225-33.834 98.225Z" fill="#353535"/><path d="M317.759 407.358a.946.946 0 0 1-.855-.532.955.955 0 0 1-.043-.726c5.75-16.585 11.057-28.546 15.782-35.548 11.638-17.256 39.918-32.955 55.738-40.779a.95.95 0 0 1 1.271.43.948.948 0 0 1-.43 1.271c-15.649 7.742-43.644 23.245-55.03 40.14-4.624 6.863-9.861 18.673-15.56 35.106a.94.94 0 0 1-.873.638Z" fill="#CCEDFB"/><path d="M388.807 331.562a.945.945 0 0 1-.867-1.356.949.949 0 0 1 .443-.446c5.731-2.834 9.545-4.479 9.583-4.497a.949.949 0 0 1 1.071.161.96.96 0 0 1 .296.687.946.946 0 0 1-.614.891c-.038 0-3.796 1.651-9.488 4.428a.91.91 0 0 1-.424.132ZM335.876 440.129a.947.947 0 0 1-.805-.455.941.941 0 0 1-.14-.456.947.947 0 0 1 .098-.468c13.675-27.16 22.771-43.245 27.116-47.806a.954.954 0 0 1 1.344-.035.95.95 0 0 1 .035 1.344c-4.136 4.352-13.403 20.735-26.8 47.364a.944.944 0 0 1-.848.512Z" fill="#CCEDFB"/><path d="M465.114 270.733c-10.178-20.349-26.934-23.341-26.934-23.341l-28.723-2.391c-8.981-.632-18.533 4.941-22.081 13.214l-26.396 61.602s5.39 14.365 29.324 16.762c23.935 2.397 40.4.898 48.18 10.468 5.124 6.325 4.965-35.788 2.012-69.085l24.618-7.229Z" fill="#03A9F4"/><path d="m388.508 324.605 13.15-5.983 10.171 4.193s54.581-6.92 30.178-45.966c-.108-.17 19.178-4.067 19.178-4.067s22.259 53.025-48.141 54.246c0 0-3.593 1.195-8.381-1.196-4.789-2.391-13.125 2.366-16.155-1.227Z" fill="#fff"/><path d="M410.653 328.248a14.267 14.267 0 0 1-6.407-1.594c-1.974-.986-4.826-.562-7.591-.151-3.415.506-6.957 1.037-8.855-1.265a.936.936 0 0 1-.192-.386.937.937 0 0 1 .187-.818.945.945 0 0 1 .34-.264l13.169-5.984a.925.925 0 0 1 .753 0l9.937 4.087c2.695-.393 26.826-4.295 33.6-18.578 3.39-7.147 1.898-15.857-4.358-25.933a.946.946 0 0 1-.063-.88c.265-.632.284-.632 19.861-4.617a.95.95 0 0 1 1.063.563c.354.847 8.634 21.044-1.822 37.06-7.729 11.834-23.562 18.052-47.066 18.469a9.533 9.533 0 0 1-2.556.291Zm-9.532-4.098a8.77 8.77 0 0 1 3.972.803c4.39 2.195 7.622 1.158 7.654 1.151a.89.89 0 0 1 .285-.05c22.903-.393 38.261-6.326 45.636-17.616 8.856-13.543 3.296-30.849 1.936-34.568-5.996 1.215-14.131 2.891-17.078 3.568 6.072 10.183 7.343 19.133 3.795 26.635-7.59 15.997-34.157 19.539-35.32 19.678a.89.89 0 0 1-.481-.063l-9.792-4.029-11.278 5.123c1.48.513 3.669.184 5.965-.158a33.159 33.159 0 0 1 4.706-.474Z" fill="#353535"/><path d="m439.407 280.625 26.769-7.552-1.063-2.341s-3.042-2.321-3.618-2.321c-.576 0-15.693-.582-15.693-.582l-9.298 2.903 2.903 9.893Z" fill="#03A9F4"/><path d="M338.1 328.533h51.911l-38.483-59.179a6.59 6.59 0 0 0-5.547-2.973h-42.126a3.3 3.3 0 0 0-2.878 5.06l37.123 57.092Z" fill="#353535"/><path d="M327.761 287.134c1.682 2.593 5.313 4.699 8.096 4.699 2.783 0 3.681-2.106 1.999-4.699-1.683-2.594-5.313-4.7-8.103-4.7-2.789 0-3.681 2.106-1.992 4.7Z" fill="#fff"/><path d="M335.876 292.782c-3.118 0-7.027-2.258-8.893-5.13-1.063-1.631-1.265-3.257-.633-4.459.595-1.1 1.816-1.708 3.429-1.708 3.118 0 7.027 2.258 8.893 5.13 1.062 1.632 1.265 3.258.632 4.459-.613 1.101-1.828 1.708-3.428 1.708Zm-6.123-9.399c-.512 0-1.423.095-1.758.715-.335.62-.101 1.505.556 2.53 1.506 2.315 4.852 4.269 7.306 4.269.519 0 1.43-.095 1.765-.714.335-.62.095-1.506-.563-2.531-1.506-2.315-4.852-4.269-7.306-4.269ZM422.127 332.986h-80.888a3.317 3.317 0 0 1-3.314-3.302v-1.518h87.516v1.518a3.315 3.315 0 0 1-3.314 3.302ZM443.569 107.37c21.974-6.958 63.772 27.932 58.047 53.86-1.575 7.154-7.116 15.18-14.959 19.153-13.916 7.008-28.748-2.043-32.316 3.592-3.099 4.884 7.907 11.924 6.585 22.139-1.974 15.181-29.223 22.512-32.322 23.34-2.309.633-34.834 8.931-50.267-8.381-3.72-4.162-8.59-12.227-5.984-17.35 2.486-4.883 10.12-3.84 11.967-8.976 1.607-4.459-3.51-6.957-2.992-11.973 1-9.684 21.013-10.184 23.341-20.349 1.859-8.121-9.767-12.897-7.78-20.943 1.6-6.49 9.968-6.66 23.34-14.959 16.009-9.937 15.016-16.522 23.34-19.153Z" fill="#353535"/><path d="M419.033 243.218c-.538-.266-7.736-8.761-11.948-13.764.316-1.392.272-1.835.158-3.941 0 0 2.182-2.182 1.303-5.022-1.019-3.302-4.15-.633-4.15-.633s-1.448-2.53-6.907 1.835c-5.459 4.364-11.227-.949-11.227-.949s0 3.276 2.884 7.261c1.594 2.195 1.86 5.098 1.936 7.812l3.061-.443a12.01 12.01 0 0 0 5.244 3.928 9.049 9.049 0 0 0 3.725-1.897l3.353 7.634-3.416 1.797s-.772 4.788 8.223 5.983c8.994 1.196 16.155-5.983 16.155-5.983s-4.808-1.822-8.394-3.618Z" fill="#fff"/><path d="M413.308 253.876c-.729 0-1.458-.047-2.182-.139-3.884-.519-6.578-1.759-8.008-3.682a4.674 4.674 0 0 1-1.006-3.396.934.934 0 0 1 .494-.69l2.631-1.385-2.53-5.737a9.493 9.493 0 0 1-3.163 1.373.973.973 0 0 1-.531-.057 12.614 12.614 0 0 1-5.263-3.796l-2.53.361a.93.93 0 0 1-.746-.209.976.976 0 0 1-.342-.702c-.069-2.625-.335-5.319-1.752-7.28-3.03-4.181-3.067-7.667-3.067-7.818a.94.94 0 0 1 .569-.87.945.945 0 0 1 1.024.174c.209.196 5.244 4.706 9.988.904 2.644-2.125 4.845-3.036 6.534-2.713.371.066.725.203 1.044.405a3.924 3.924 0 0 1 3.017-.633 3.013 3.013 0 0 1 1.967 2.22 6.143 6.143 0 0 1-1.265 5.642 11.417 11.417 0 0 1-.101 3.347c9.355 11.107 11.094 12.922 11.385 13.213 3.498 1.74 8.166 3.498 8.223 3.511a.946.946 0 0 1 .335 1.562c-.234.278-6.458 6.395-14.725 6.395Zm-9.317-6.49c.12 1.031 1.069 3.624 7.388 4.466 6.319.841 11.929-2.872 14.226-4.725-1.708-.677-4.599-1.86-6.996-3.062-.298-.145-.791-.392-12.252-14.004a.933.933 0 0 1-.196-.822 9.381 9.381 0 0 0 .151-3.34v-.335a.961.961 0 0 1 .279-.721c.069-.07 1.758-1.835 1.069-4.074-.171-.55-.399-.873-.683-.961-.589-.171-1.569.436-1.955.759a.947.947 0 0 1-1.154.044.938.938 0 0 1-.275-.303 1.038 1.038 0 0 0-.582-.241c-.633-.082-2.126.114-4.915 2.347-3.707 2.973-7.774 1.992-10.462.455a15.248 15.248 0 0 0 2.302 4.561c1.512 2.087 1.936 4.693 2.075 7.28l2.011-.291a.934.934 0 0 1 .861.329 11.131 11.131 0 0 0 4.604 3.542 8.52 8.52 0 0 0 3.037-1.638.976.976 0 0 1 .828-.196.942.942 0 0 1 .633.544l3.352 7.635a.943.943 0 0 1 .028.693.943.943 0 0 1-.452.527l-2.922 1.531Z" fill="#353535"/><path d="m403.113 237.38.987-.886-.987.886Z" fill="#fff"/><path d="M403.113 238.328a.94.94 0 0 1-.894-.628.952.952 0 0 1 .038-.727.94.94 0 0 1 .224-.296l.987-.892a.95.95 0 0 1 .696-.278.944.944 0 0 1 .681.315.951.951 0 0 1-.112 1.374l-.993.892a.93.93 0 0 1-.627.24Z" fill="#353535"/><path d="M173.214 513.244a.936.936 0 0 1-.633-.253.96.96 0 0 1-.303-.66.956.956 0 0 1 .252-.681l106.328-113.988a.95.95 0 1 1 1.386 1.297L173.909 512.94a.946.946 0 0 1-.695.304Z" fill="#fff"/><path d="M207.469 447.265a.94.94 0 0 1-.943-1.108.947.947 0 0 1 .247-.486l18.78-20.127a.943.943 0 0 1 .675-.415.959.959 0 0 1 .988.572.956.956 0 0 1-.024.792.949.949 0 0 1-.254.316l-18.779 20.127a.936.936 0 0 1-.69.329ZM140.543 518.999a.94.94 0 0 1-.943-1.107.954.954 0 0 1 .247-.487l48.307-51.785a.955.955 0 0 1 .674-.414.938.938 0 0 1 .754.241.942.942 0 0 1 .309.729.94.94 0 0 1-.352.709l-48.306 51.798a.947.947 0 0 1-.69.316ZM37.542 505.128a7.852 7.852 0 0 1-7.812-7.843.948.948 0 1 1 1.898 0 5.945 5.945 0 1 0 5.946-5.946.949.949 0 0 1 0-1.898 7.844 7.844 0 0 1 0 15.687h-.032ZM272.504 146.82a.946.946 0 0 1-.696-1.594l12.745-13.65a.954.954 0 0 1 .661-.302.95.95 0 0 1 .724 1.599l-12.739 13.656a.946.946 0 0 1-.695.291ZM227.08 195.499a.969.969 0 0 1-.632-.253.937.937 0 0 1-.242-1.027.946.946 0 0 1 .197-.314l32.778-35.13a.948.948 0 0 1 .661-.303.952.952 0 0 1 .68.258.956.956 0 0 1 .044 1.341l-32.778 35.137a.942.942 0 0 1-.708.291ZM52.681 485.444a.958.958 0 0 1-.933-1.113.952.952 0 0 1 .237-.487l37.724-40.432a.95.95 0 0 1 1.538.624.95.95 0 0 1-.153.642l-37.717 40.481a.956.956 0 0 1-.696.285Z" fill="#353535"/><path d="m291.312 204.273-1.511-3.163-3.726.854a14.777 14.777 0 0 0-1.581-1.853l1.404-3.542-2.884-1.974-2.803 2.619a14.052 14.052 0 0 0-2.289-.81l-.557-3.795-3.479-.247-1.119 3.644c-.809.083-1.609.235-2.391.455l-2.372-2.992-3.163 1.512.854 3.719a14.348 14.348 0 0 0-1.847 1.582l-3.549-1.405-1.954 2.91 2.6 2.796a14.453 14.453 0 0 0-.81 2.296l-3.795.55-.266 3.485 3.644 1.12c.083.808.235 1.608.455 2.391l-2.992 2.372 1.512 3.162 3.719-.853a15.424 15.424 0 0 0 1.581 1.853l-1.404 3.542 2.885 1.974 2.795-2.606c.741.335 1.509.606 2.296.809l.551 3.795 3.485.266 1.12-3.643a14.48 14.48 0 0 0 2.397-.456l2.365 2.992 3.163-1.512-.854-3.719c.662-.492 1.28-1.04 1.847-1.638l3.542 1.404 1.974-2.884-2.6-2.796c.332-.742.6-1.51.803-2.296l3.796-.55.265-3.486-3.643-1.119a14.17 14.17 0 0 0-.456-2.391l2.992-2.372Zm-13.163 14.358a8.99 8.99 0 0 1-9.889-1.41 8.999 8.999 0 0 1-2.487-9.676 8.996 8.996 0 0 1 13.055-4.773 8.994 8.994 0 0 1-.679 15.859ZM341.189 160.306l-2.587-5.389-6.37 1.461a24.658 24.658 0 0 0-2.707-3.163l2.41-6.06-4.915-3.384-4.782 4.428a25.987 25.987 0 0 0-3.928-1.379l-.949-6.464-5.964-.456-1.898 6.237a25.618 25.618 0 0 0-4.092.778l-4.055-5.123-5.389 2.593 1.461 6.363a25.18 25.18 0 0 0-3.163 2.707l-6.059-2.403-3.378 4.934 4.428 4.788a25.216 25.216 0 0 0-1.385 3.921l-6.465.949-.449 5.965 6.237 1.898c.142 1.383.4 2.752.772 4.092l-5.118 4.055 2.587 5.389 6.364-1.461a24.638 24.638 0 0 0 2.707 3.162l-2.404 6.066 4.934 3.371 4.788-4.427a25.272 25.272 0 0 0 3.928 1.379l.949 6.464 5.958.456 1.898-6.237a24.825 24.825 0 0 0 4.092-.778l4.055 5.123 5.395-2.587-1.461-6.369a24.965 24.965 0 0 0 3.163-2.708l6.066 2.404 3.371-4.934-4.427-4.782a24.89 24.89 0 0 0 1.378-3.928l6.465-.948.455-5.965-6.236-1.898a24.315 24.315 0 0 0-.778-4.092l5.098-4.048Zm-22.525 24.573a15.394 15.394 0 0 1-21.186-18.982 15.393 15.393 0 0 1 22.362-8.149 15.395 15.395 0 0 1-1.176 27.131Z" fill="#007BB3"/></svg>