<svg width="60" height="60" fill="none" xmlns="http://www.w3.org/2000/svg"><path d="M16.955 30.789h2.297v1.532h-2.297v-1.532ZM22.315 34.618h2.297v1.532h-2.297v-1.532ZM16.955 34.618h3.829v1.532h-3.83v-1.532ZM10.829 34.618h4.594v1.532H10.83v-1.532ZM15.423 38.448h9.19v1.532h-9.19v-1.532ZM10.829 38.448h3.063v1.532h-3.063v-1.532ZM20.018 42.277h4.595v1.532h-4.595v-1.532ZM10.829 42.277h7.657v1.532H10.83v-1.532ZM15.423 46.107h4.595v1.532h-4.595v-1.532ZM10.829 46.107h3.063v1.532h-3.063v-1.532Z" fill="#03A9F4"/><path d="M51.414 28.491a.766.766 0 0 0-.766-.766h-4.594a.766.766 0 0 0-.766.766v3.83h-3.829a.766.766 0 0 0-.766.766v3.83h-3.828a.766.766 0 0 0-.766.765v3.83H32.27a.766.766 0 0 0-.766.765v4.596h-5.492a2.298 2.298 0 1 0 0 1.532h.898v2.297a.767.767 0 0 1-.766.766H9.297a.766.766 0 0 1-.765-.766V33.087h3.828a2.3 2.3 0 0 0 2.298-2.298v-3.83h11.486a.766.766 0 0 1 .766.766v.766h1.531v-.766a2.301 2.301 0 0 0-2.297-2.297H14.526a2.282 2.282 0 0 0-1.624.673l-5.23 5.23A2.283 2.283 0 0 0 7 32.954v17.747A2.3 2.3 0 0 0 9.297 53h16.847a2.3 2.3 0 0 0 2.297-2.298v-2.297h24.505v-1.532h-1.532V28.49Zm-38.288-.448v2.746a.767.767 0 0 1-.766.766H9.615l3.511-3.512Zm10.72 20.362a.765.765 0 1 1 0-1.531.765.765 0 0 1 0 1.53Zm9.19-5.362h3.063v3.83h-3.063v-3.83Zm4.594-4.595h3.063v8.425H37.63v-8.425Zm4.595-4.596h3.063v13.02h-3.063v-13.02Zm4.594 13.02V29.258h3.064v17.616h-3.064ZM9.297 26.194a2.296 2.296 0 0 0 2.073-3.288l2.298-2.298a2.294 2.294 0 0 0 3.155-1.308h3.327a2.297 2.297 0 0 0 4.43-.386l4.325-3.707a2.297 2.297 0 1 0-1.042-1.125l-3.663 3.14a2.296 2.296 0 0 0-4.05.547h-3.327a2.299 2.299 0 0 0-3.811-.838 2.299 2.299 0 0 0-.427 2.593l-2.298 2.299a2.297 2.297 0 1 0-.99 4.37Zm20.676-13.787a.766.766 0 1 1 0 1.532.766.766 0 0 1 0-1.532Zm-7.658 5.362a.766.766 0 1 1 0 1.531.766.766 0 0 1 0-1.531Zm-7.657 0a.766.766 0 1 1 0 1.531.766.766 0 0 1 0-1.531Zm-5.36 5.36a.766.766 0 1 1 0 1.533.766.766 0 0 1 0-1.532Z" fill="#03A9F4"/><path d="m37.014 24.96-5.061 5.063h-6.706a2.298 2.298 0 1 0 0 1.532h1.663V45.34h1.531V31.555h3.83c.202 0 .397-.08.54-.225l5.527-5.527a9.98 9.98 0 0 0 14.38-11.177 9.984 9.984 0 0 0-11.675-7.429 9.982 9.982 0 0 0-7.88 11.376 9.984 9.984 0 0 0 3.852 6.387Zm-13.933 6.595a.766.766 0 1 1 0-1.531.766.766 0 0 1 0 1.53Zm26.052-8.794-4.437-4.992h6.683a8.398 8.398 0 0 1-2.246 4.992Zm2.246-6.524h-7.622V8.613a8.436 8.436 0 0 1 7.622 7.624Zm-9.154-7.624v8.39c0 .187.069.368.194.508l5.57 6.269a8.42 8.42 0 0 1-12.872-3.786 8.424 8.424 0 0 1 7.108-11.381Z" fill="#03A9F4"/></svg>