<svg width="53" height="53" fill="none" xmlns="http://www.w3.org/2000/svg"><path d="m38.916 41.339-1.494-4.482a4.516 4.516 0 0 0-3.477-3.014l-4.311-.785v-.334a6.492 6.492 0 0 0 1.923-1.708h1.302a1.938 1.938 0 0 0 1.936-1.935v-7.742c0-4.625-3.763-8.387-8.387-8.387-4.625 0-8.387 3.762-8.387 8.387v4.516c0 1.244.884 2.284 2.057 2.527a6.464 6.464 0 0 0 3.104 4.342v.334l-4.312.785a4.515 4.515 0 0 0-3.477 3.014l-.258.775-2.197-2.197a.646.646 0 0 1 0-.913l2.548-2.548-4.783-4.783-2.88 2.88a4.487 4.487 0 0 0-1.322 3.193c0 1.207.47 2.34 1.322 3.193l8.72 8.72a4.487 4.487 0 0 0 3.193 1.323c1.207 0 2.34-.47 3.173-1.304l3.143-2.88-.98-.977h13.844ZM33.505 29.08c0 .356-.29.645-.646.645h-.542c.187-.427.329-.876.42-1.344.276-.058.53-.167.767-.305v1.004Zm-.646-2.115v-2.222c.384.224.645.635.645 1.11 0 .476-.26.888-.645 1.112Zm-12.903 0a1.286 1.286 0 0 1-.645-1.111c0-.476.261-.887.645-1.111v2.222Zm0-4.337v.737c-.23.06-.445.15-.645.267v-2.294c0-3.913 3.184-7.097 7.097-7.097 3.913 0 7.096 3.184 7.096 7.097v2.294a2.537 2.537 0 0 0-.645-.267v-.737h-.645a7.099 7.099 0 0 1-5.05-2.092l-.756-.756-.756.756a7.099 7.099 0 0 1-5.05 2.092h-.646Zm1.29 4.516v-3.25a8.364 8.364 0 0 0 5.162-2.293 8.36 8.36 0 0 0 5.161 2.293v3.25c0 .94-.257 1.82-.698 2.58h-4.463v1.291h3.402c-.91.8-2.098 1.29-3.402 1.29a5.167 5.167 0 0 1-5.162-5.16Zm7.097 6.154v.03l-1.935 1.936-1.936-1.935v-.03a6.443 6.443 0 0 0 3.871 0Zm-11.726 3.966a3.227 3.227 0 0 1 2.483-2.154l4.51-.82 2.798 2.799 2.797-2.798 4.51.82a3.226 3.226 0 0 1 2.482 2.154l.929 2.782H23.78l-2.513-2.513-2.792 2.526a.659.659 0 0 1-.912 0l-1.41-1.409.463-1.387Zm-5.914-8.25 2.958 2.96-.7.7L10 29.716l.702-.7Zm11.313 15.25a3.21 3.21 0 0 1-2.281.945 3.208 3.208 0 0 1-2.282-.946l-8.719-8.718a3.205 3.205 0 0 1-.944-2.28c0-.863.335-1.673.944-2.282l.355-.355 2.959 2.959-.024.023a1.939 1.939 0 0 0 0 2.737l4.627 4.627c.366.365.852.567 1.369.567a1.9 1.9 0 0 0 1.345-.545l.049-.043 2.972 2.972-.37.34Zm1.322-1.212-2.966-2.966.852-.77 2.961 2.96-.847.776ZM44.472 6.5H35.44a1.938 1.938 0 0 0-1.935 1.935v5.162c0 1.067.868 1.935 1.935 1.935h1.723l-.667 3.891 6.226-3.89h1.75a1.938 1.938 0 0 0 1.936-1.936V8.435A1.938 1.938 0 0 0 44.472 6.5Zm.645 7.097c0 .355-.29.645-.645.645h-2.12l-4.098 2.56.44-2.56H35.44a.646.646 0 0 1-.645-.645V8.435c0-.355.29-.645.645-.645h9.032c.356 0 .645.29.645.645v5.162Z" fill="#03A9F4"/><path d="M43.827 9.08h-7.742v1.291h7.742v-1.29ZM41.246 11.661h-5.16v1.29h5.16v-1.29ZM43.827 11.661h-1.29v1.29h1.29v-1.29ZM26.408 8.435c-8.43 0-15.691 5.832-17.579 13.965l-1.223-2.038-1.106.664 2.268 3.779 3.778-2.268-.663-1.107-1.749 1.05c1.829-7.441 8.52-12.754 16.274-12.754 1.695 0 3.367.251 4.97.748l.382-1.232a18.052 18.052 0 0 0-5.352-.807ZM46.094 20.785l-3.779-2.268-2.267 3.78 1.107.664 1.129-1.882c.594 1.738.898 3.557.898 5.421 0 3.837-1.33 7.588-3.741 10.561l1.002.813a18.105 18.105 0 0 0 4.03-11.374c0-1.974-.319-3.9-.939-5.746l1.896 1.138.664-1.107Z" fill="#03A9F4"/></svg>