<svg width="53" height="53" fill="none" xmlns="http://www.w3.org/2000/svg"><path d="M32.06 6.81a.968.968 0 0 0-.695-.31H15.757c-2.88 0-5.257 2.367-5.257 5.246v29.507c0 2.88 2.377 5.247 5.257 5.247h21.184c2.88 0 5.257-2.367 5.257-5.247v-23.43a1.04 1.04 0 0 0-.28-.676L32.06 6.81Zm.28 3.1 6.601 6.928h-4.29a2.301 2.301 0 0 1-2.31-2.3V9.912Zm4.6 34.658H15.758c-1.807 0-3.324-1.498-3.324-3.315V11.746c0-1.806 1.507-3.314 3.324-3.314h14.65v6.107a4.227 4.227 0 0 0 4.244 4.231h5.614v22.483c0 1.817-1.507 3.315-3.324 3.315Z" fill="#03A9F4"/><path d="M34.303 37.901H18.396a.969.969 0 0 0-.967.966.97.97 0 0 0 .966.966h15.917a.97.97 0 0 0 .967-.966.971.971 0 0 0-.976-.966ZM25.644 34.432c.183.194.435.31.705.31.27 0 .522-.116.706-.31l5.663-6.077a.963.963 0 0 0-.049-1.362.963.963 0 0 0-1.362.048l-3.991 4.28v-10.55a.97.97 0 0 0-.967-.967.97.97 0 0 0-.966.967v10.55l-3.982-4.28a.963.963 0 0 0-1.363-.048.963.963 0 0 0-.048 1.362l5.654 6.077Z" fill="#03A9F4"/></svg>