<svg width="53" height="53" fill="none" xmlns="http://www.w3.org/2000/svg"><path d="M41.167 6.5H11.833A5.34 5.34 0 0 0 6.5 11.833v29.334a5.34 5.34 0 0 0 5.333 5.333h29.334a5.34 5.34 0 0 0 5.333-5.333V11.833A5.34 5.34 0 0 0 41.167 6.5ZM11.833 7.833h29.334a4.004 4.004 0 0 1 4 4V34.5H7.833V11.833a4.004 4.004 0 0 1 4-4Zm29.334 37.334H11.833a4.004 4.004 0 0 1-4-4v-5.334h37.334v5.334a4.004 4.004 0 0 1-4 4Z" fill="#00AEEF"/><path d="m15.22 39.255-2.46-1.814a1.357 1.357 0 0 0-1.443-.125c-.51.265-.826.795-.817 1.37v3.628c-.01.575.307 1.105.817 1.37.465.24 1.026.19 1.442-.125l2.461-1.814a1.57 1.57 0 0 0 0-2.49Zm-.791 1.416-2.51 1.823a.193.193 0 0 1-.086-.18v-3.628c0-.101.046-.16.134-.171l2.46 1.814a.24.24 0 0 1 0 .342h.002ZM41.167 37.167H38.5a.667.667 0 1 0 0 1.333h2.667a.667.667 0 0 0 0-1.333ZM41.167 39.833H38.5a.667.667 0 1 0 0 1.334h2.667a.667.667 0 0 0 0-1.334ZM41.167 42.5H38.5a.667.667 0 1 0 0 1.333h2.667a.667.667 0 0 0 0-1.333ZM35.167 39.833H23.833v-.666a.667.667 0 0 0-1.333 0v.666h-4a.667.667 0 1 0 0 1.334h4v.666a.667.667 0 1 0 1.333 0v-.666h11.334a.667.667 0 0 0 0-1.334ZM17.167 32.5h20.666a.667.667 0 1 0 0-1.333h-4v-7.334a.667.667 0 1 0-1.333 0v7.334h-2V26.5a.667.667 0 0 0-1.333 0v4.667h-2v-2a.667.667 0 0 0-1.334 0v2h-2v-4a.667.667 0 1 0-1.333 0v4h-2V28.5a.667.667 0 1 0-1.333 0v2.667h-2v-3.045l5.313-4.973 3.06 2.95c.257.256.605.397.967.392.357-.004.698-.154.942-.415l7.05-7.265V20.5a.667.667 0 1 0 1.334 0v-3.333c0-.01-.005-.018-.005-.028a.652.652 0 0 0-.046-.226l-.003-.01a.662.662 0 0 0-.127-.188c-.016-.016-.033-.03-.05-.044a.651.651 0 0 0-.14-.094.663.663 0 0 0-.296-.077h-3.333a.667.667 0 0 0 0 1.333h1.756l-7.115 7.316-3.087-2.978a1.338 1.338 0 0 0-1.785.009l-4.435 4.123V10.5a.667.667 0 0 0-1.334 0v20.667c0 .736.597 1.333 1.334 1.333Z" fill="#00AEEF"/></svg>