<svg width="53" height="53" fill="none" xmlns="http://www.w3.org/2000/svg"><path d="M26.709 18.234h6.185a.978.978 0 0 0 .977-.976v-6.212a.978.978 0 0 0-.977-.977H26.71a.978.978 0 0 0-.977.977v1.47a.586.586 0 1 0 1.172 0V11.24h5.795v5.821h-5.795v-1.727a.586.586 0 1 0-1.172 0v1.923c0 .538.438.976.977.976ZM15.795 17.287h7.983a.586.586 0 1 0 0-1.172h-7.983a.586.586 0 1 0 0 1.172ZM29.154 21.655a.586.586 0 0 0-.586-.586h-8.056a.586.586 0 1 0 0 1.172h8.056a.586.586 0 0 0 .586-.586ZM15.795 14.738h7.983a.586.586 0 1 0 0-1.172h-7.983a.586.586 0 1 0 0 1.172ZM15.795 12.188h7.983a.586.586 0 1 0 0-1.172h-7.983a.586.586 0 1 0 0 1.172ZM15.795 28.724h12.021a.586.586 0 1 0 0-1.172H15.795a.586.586 0 1 0 0 1.172ZM15.795 25.446h9.507a.586.586 0 1 0 0-1.172h-9.507a.586.586 0 1 0 0 1.172ZM33.321 24.274h-5.479a.586.586 0 1 0 0 1.172h5.48a.586.586 0 1 0 0-1.172Z" fill="#03A9F4"/><path d="M45.82 42.745a.6.6 0 0 0-.022-.02l-3.606-3.21a7.643 7.643 0 0 0 .938-3.412.586.586 0 0 0-1.17-.042c-.09 3.451-3.013 6.294-6.472 6.26-3.57 0-6.476-2.915-6.476-6.497-.054-3.51 2.97-6.546 6.476-6.497a6.492 6.492 0 0 1 6.1 4.313.586.586 0 0 0 1.105-.392 7.67 7.67 0 0 0-6.282-5.036V7.477a.978.978 0 0 0-.977-.977H13.645a.978.978 0 0 0-.976.977v2.119H10.56a.978.978 0 0 0-.977.976v2.12H7.477a.978.978 0 0 0-.977.976v29.23c0 .54.438.977.977.977h18.659a.978.978 0 0 0 .977-.976v-2.12h2.544a7.625 7.625 0 0 0 9.454 1.801l3.634 3.254c.864.856 2.263.903 3.13.048.868-.83.815-2.317-.055-3.137ZM13.84 7.672H35.24V28.16a7.658 7.658 0 0 0-6.106 3.398h-2.38a.586.586 0 1 0 0 1.172h1.735a7.669 7.669 0 0 0-.617 3.782H19.72a4.222 4.222 0 0 0 1.307-3.056v-.726h3.187a.586.586 0 1 0 0-1.171H20.44a.586.586 0 0 0-.586.585v1.312a3.053 3.053 0 0 1-3.043 3.056h-2.97V7.672Zm-3.084 23.926a.586.586 0 1 0-1.172 0v8.205c0 .539.439.977.977.977h15.38v1.924H7.672v-28.84h1.912V29.12a.586.586 0 1 0 1.172 0V10.768h1.913v26.33c0 .324.262.586.586.586h14.813c.17.682.431 1.328.77 1.924H10.756v-8.01ZM45.05 45.05c-.405.404-1.093.363-1.512-.078L40.13 41.92a7.762 7.762 0 0 0 1.415-1.411l3.462 3.08c.4.386.446 1.073.043 1.461Z" fill="#03A9F4"/><path d="M35.488 30.816c-2.704-.039-5.036 2.302-4.995 5.008 0 2.762 2.24 5.008 4.995 5.008 2.754 0 4.995-2.246 4.995-5.008 0-2.761-2.24-5.008-4.995-5.008Zm0 8.844a3.834 3.834 0 0 1-3.823-3.836c-.032-2.073 1.753-3.866 3.823-3.836a3.834 3.834 0 0 1 3.823 3.836 3.834 3.834 0 0 1-3.823 3.836Z" fill="#03A9F4"/></svg>