<svg width="53" height="53" fill="none" xmlns="http://www.w3.org/2000/svg"><path d="M43.87 12H9.13a2.637 2.637 0 0 0-2.63 2.638V38.76a2.637 2.637 0 0 0 2.63 2.639h34.74c1.45 0 2.63-1.184 2.63-2.639V14.64A2.637 2.637 0 0 0 43.87 12ZM15.853 40.141H9.13c-.76 0-1.377-.62-1.377-1.382V14.64c0-.763.618-1.383 1.377-1.383h6.723v26.885Zm29.394-1.382c0 .762-.618 1.382-1.377 1.382H17.106V13.256H43.87c.76 0 1.377.62 1.377 1.382V38.76Z" fill="#03A9F4"/><path d="M21.824 14.68H19.15a.627.627 0 0 0 0 1.257h2.673a.627.627 0 0 0 0-1.257ZM13.807 14.68H9.799a.627.627 0 0 0 0 1.257h4.008a.627.627 0 0 0 0-1.257ZM13.807 21.38H9.799a.627.627 0 0 0 0 1.257h4.008a.627.627 0 0 0 0-1.257ZM13.807 26.74H9.799a.627.627 0 0 0 0 1.257h4.008a.627.627 0 0 0 0-1.256ZM13.807 32.101H9.799a.627.627 0 0 0 0 1.256h4.008a.627.627 0 0 0 0-1.256ZM13.807 24.06H9.799a.627.627 0 0 0 0 1.257h4.008a.627.627 0 0 0 0-1.256ZM13.807 29.42H9.799a.627.627 0 0 0 0 1.257h4.008a.627.627 0 0 0 0-1.256ZM12.47 36.121H9.8a.627.627 0 0 0 0 1.256h2.672a.627.627 0 0 0 0-1.256ZM12.47 17.36H9.8a.627.627 0 0 0 0 1.257h2.672a.627.627 0 0 0 0-1.257ZM27.168 14.68h-2.672a.627.627 0 0 0 0 1.257h2.672a.627.627 0 0 0 0-1.257ZM32.513 14.68H29.84a.627.627 0 0 0 0 1.257h2.673a.627.627 0 0 0 0-1.257ZM37.857 14.68h-2.672a.627.627 0 0 0 0 1.257h2.672a.627.627 0 0 0 0-1.257ZM43.202 14.68h-2.673a.627.627 0 0 0 0 1.257h2.672a.627.627 0 0 0 0-1.257ZM26.208 28.877a.625.625 0 0 0-.877.125 2.691 2.691 0 0 1-2.171 1.089 2.721 2.721 0 0 1-2.714-2.722c0-1.501 1.217-2.722 2.714-2.722a2.69 2.69 0 0 1 2.172 1.09c.208.278.6.334.877.126a.63.63 0 0 0 .125-.88 3.932 3.932 0 0 0-3.174-1.592 3.977 3.977 0 0 0-3.967 3.978 3.977 3.977 0 0 0 3.967 3.978c1.259 0 2.416-.58 3.173-1.59a.63.63 0 0 0-.125-.88ZM32.387 28.61a2.64 2.64 0 0 0 2.088-2.581 2.637 2.637 0 0 0-2.63-2.639h-3.34a.627.627 0 0 0-.627.629v6.7a.627.627 0 1 0 1.253 0v-2.052h1.732l1.817 2.429a.625.625 0 0 0 .877.125.63.63 0 0 0 .125-.879l-1.295-1.732Zm-3.256-3.963h2.713a1.382 1.382 0 0 1 0 2.764h-2.713v-2.764ZM43.157 30.656l-.668-6.7a.627.627 0 0 0-1.205-.17l-2.09 5.242-2.092-5.242a.626.626 0 0 0-1.204.17l-.668 6.7a.627.627 0 1 0 1.247.125l.413-4.147 1.722 4.318a.626.626 0 0 0 1.163 0l1.722-4.318.413 4.148a.627.627 0 1 0 1.247-.126Z" fill="#03A9F4"/></svg>