<svg width="512" height="510" fill="none" xmlns="http://www.w3.org/2000/svg"><path d="M437.917 229.353c-10.446-64.929 79.879-99.978 71.534-148.274-9.628-55.731-144.784-95.272-259.097-76.242-34.299 5.715-163.445 27.214-222.083 144.102-56.591 112.82-25.74 271.037 70.361 333.324 154.229 99.954 400.779-96.322 389.363-176.631-4.277-30.072-43.485-35.215-50.078-76.279Z" fill="#95DBFA"/><path d="M242.243 414.736 35.564 445.243 8.043 431.688v-57.605l234.2-13.026v53.679ZM376.663 222.328c-6.409 69.047-56.377 126.682-121.417 137.552v53.679c44.911-6.913 85.545-30.108 116.132-65.999 28.499-33.377 78.202-112.224 78.202-112.224l-27.521-13.555-45.396.547Z" fill="#00AEEF"/><path d="m269.762 428.288-234.2 16.953v-57.605l234.2-13.027v53.679ZM404.17 235.884c-6.397 69.047-56.389 126.646-121.404 137.552v53.679c44.91-6.912 85.55-30.108 116.132-66.005 30.01-35.159 47.559-79.203 50.662-125.803l-45.39.577Z" fill="#fff"/><path d="M91.552 192.563c7.607-75.068 64.837-132.722 133.951-137.638l27.522-40.622L225.503.743c-47.11 1.136-92.168 20.325-127.708 55.49-36.352 35.94-58.294 84.071-62.233 136.49l27.522 13.555 28.468-13.715Z" fill="#00AEEF"/><path d="M378.229 63.705C347.623 28.312 300.157 8.631 255.246 2.456v53.648l27.522 13.518 8.485-2.685c46.809 21.598 80.242 69.28 85.41 124.821l27.521 13.555 17.887-13.678c-3.115-46.558-13.832-93.232-43.842-127.93ZM225.505 361.993c-69.095-3.828-98.804-47.509-106.411-122.461L95.13 225.978l-59.528.718C39.54 279.048 61.5 326.853 97.834 362.215c35.503 34.612 80.561 53.101 127.671 53.5v-53.722Z" fill="#007BB3"/><path d="M431.845 401.014 225.48 415.951v-53.962l206.365-11.471v50.496Z" fill="#007BB3"/><path d="M413.711 420.242v-92.076l27.521 13.555 43.037 28.031-43.037 64.045-27.521-13.555Z" fill="#007BB3"/><path d="M119.07 206.115c7.607-75.068 64.843-132.723 133.951-137.638V14.294c-47.104 1.13-92.138 20.326-127.672 55.492-36.333 35.933-58.293 84.069-62.232 136.489l55.953-.16Z" fill="#fff"/><path d="M282.766 69.651c65.015 9.875 115.007 66.718 121.404 135.66l45.408-.129c-3.072-46.551-20.652-90.325-50.662-125.017-30.6-35.387-71.24-57.98-116.15-64.192V69.65ZM253.002 375.084c-69.089-3.828-126.326-60.603-133.951-135.555l-55.965.725c3.939 52.352 25.9 100.157 62.232 135.519 35.565 34.612 80.598 53.101 127.684 53.5v-54.189ZM459.369 414.565l-206.365 14.938V375.08l206.365-11.011v50.496Z" fill="#00AEEF"/><path d="M441.234 433.795v-92.076l70.558 41.586-70.558 50.49Z" fill="#00AEEF"/><path d="M279.343 15.211a.9.9 0 0 1-.411-.098L254.839 3.248a.922.922 0 0 1 .811-1.653l24.099 11.865a.921.921 0 0 1-.406 1.751ZM57.617 238.472a.992.992 0 0 1-.412-.092l-22.047-10.864a.922.922 0 1 1 .811-1.653l22.053 10.858a.922.922 0 0 1-.405 1.751ZM399.18 234.354a.91.91 0 0 1-.406-.098l-22.538-11.097a.93.93 0 0 1-.465-.531.924.924 0 0 1 1.282-1.122l22.538 11.097a.92.92 0 0 1 .167 1.555.924.924 0 0 1-.578.196ZM355.95 244.995c0-.921-51.51-9.057-54.834-18.47-4.959-14.047-11.14-30.938-11.14-30.938l-12.855 8.123 8.283 40.419 70.546.866Z" fill="#fff"/><path d="m355.95 245.917-70.571-.867a.927.927 0 0 1-.891-.737l-8.282-40.413a.921.921 0 0 1 .411-.964l12.867-8.148a.905.905 0 0 1 .786-.098.929.929 0 0 1 .572.559c.061.166 6.237 17.051 11.14 30.944 2.335 6.611 33.15 13.174 46.305 15.976 8.603 1.843 8.603 1.843 8.603 2.802a.95.95 0 0 1-.277.651.913.913 0 0 1-.663.295Zm-69.803-2.704 61.636.762c-23.349-4.971-45.193-10.489-47.54-17.143-4.191-11.865-9.309-25.912-10.747-29.857l-11.361 7.177 8.012 39.061Z" fill="#353535"/><path d="M209.024 152.161c12.289-4.013 30.999-6.882 53.372.239a21.874 21.874 0 0 1 15.017 18.28l18.219 104.931c.903 7.656-9.297 15.03-16.474 17.764-7.502 2.845-18.845 5.53-34.907 5.53-17.205 0-29.727.996-36.714-2.058-5.794-2.52-14.519-8.664-14.814-14.993l1.265-107.855a21.892 21.892 0 0 1 15.036-21.838Z" fill="#007BB3"/><path d="M295.079 197.242s-14.544-40.29-30.864-44.167l8.301 57.071 22.563-12.904ZM175.121 217.071s1.592-26.963 3.926-37.378c4.916-21.917 27.651-26.618 27.651-26.618l.676 60.248-32.253 3.748Z" fill="#007BB3"/><path d="M231.891 159.763a79.98 79.98 0 0 1-22.409-3.355.925.925 0 0 1-.558-1.151.92.92 0 0 1 1.13-.601c.215.068 21.665 6.876 38.888.492a.935.935 0 0 1 .737-.002.923.923 0 0 1 .553.911.913.913 0 0 1-.34.652.929.929 0 0 1-.335.172 51.265 51.265 0 0 1-17.666 2.882Z" fill="#353535"/><path d="M179.177 215.942s-1.598 20.56 6.575 34.367c9.727 16.486 58.803-5.721 58.803-5.721l5.708-3.232a15.871 15.871 0 0 1 12.683-1.29l9.217 2.974s-7.614-9.125-14.09-12.621c-3.035-1.634-6.968-.086-10.292 2.022a34.019 34.019 0 0 1-19.202 5.118l-19.521-.584a6.453 6.453 0 0 1-6.243-5.899l-1.487-17.008-22.151 1.874Z" fill="#fff"/><path d="M200.628 257.313c-6.987 0-12.836-1.739-15.669-6.538-8.197-13.892-6.759-34.053-6.704-34.901a.927.927 0 0 1 .265-.579.927.927 0 0 1 .577-.269l22.121-1.874a.933.933 0 0 1 1.001.836l1.481 17.008a5.531 5.531 0 0 0 5.358 5.063l19.521.578a32.992 32.992 0 0 0 18.692-4.977c4.59-2.901 8.363-3.595 11.226-2.053 6.556 3.54 14.047 12.468 14.36 12.842a.922.922 0 0 1-.989 1.469l-9.217-2.974a14.989 14.989 0 0 0-11.951 1.229l-5.703 3.232-.079.037c-1.444.651-26.533 11.871-44.29 11.871Zm-20.591-40.517c-.172 3.859-.522 21.15 6.495 33.045 2.458 4.148 7.644 5.672 13.954 5.672 17.125 0 42.49-11.232 43.627-11.749l5.671-3.207a16.811 16.811 0 0 1 13.42-1.37l5.997 1.935c-2.704-2.925-7.429-7.644-11.589-9.886-2.783-1.506-6.63.245-9.364 1.978a34.694 34.694 0 0 1-19.736 5.266l-19.522-.584a7.373 7.373 0 0 1-7.14-6.759l-1.376-16.08-20.437 1.739Z" fill="#353535"/><path d="m254.484 442.069-10.636 31.743s11.582-.989 12.694-.774c1.112.215 14.661-28.947 14.661-28.947l-16.719-2.022Z" fill="#fff"/><path d="M243.848 474.739a.932.932 0 0 1-.878-1.229l10.642-31.712a.925.925 0 0 1 .983-.614l16.72 2.021a.912.912 0 0 1 .809.881.943.943 0 0 1-.084.422c-.037.073-3.435 7.373-6.925 14.569-7.374 15.164-7.828 15.078-8.75 14.894-.799-.117-7.755.387-12.443.786l-.074-.018Zm11.269-31.663-9.948 29.703c3.251-.27 9.18-.719 11.061-.676 1.634-2.101 8.891-17.162 13.598-27.245l-14.711-1.782Z" fill="#353535"/><path d="M246.279 466.834s15.976-6.557 18.956 1.677c3.767 10.446 9.647 26.422 9.647 26.422a4.473 4.473 0 0 1-.449 3.946 4.475 4.475 0 0 1-3.409 2.038c-5.85.474-14.569.848-18.637-.571-6.409-2.237-17.051-22.538-17.051-22.538l3.281-17.273s5.801-.817 7.662 6.299Z" fill="#00AEEF"/><path d="M261.599 502.283c-3.767 0-7.282-.265-9.512-1.051-6.679-2.341-17.125-22.151-17.568-22.993a.93.93 0 0 1-.092-.615l3.281-17.272a.923.923 0 0 1 .781-.737c.061 0 6.071-.775 8.387 5.997 2.728-.996 10.655-3.503 15.589-1.309a6.547 6.547 0 0 1 3.644 3.883c3.717 10.348 9.585 26.281 9.64 26.422a5.326 5.326 0 0 1-.54 4.756 5.401 5.401 0 0 1-4.111 2.458c-2.937.27-6.31.461-9.499.461Zm-25.298-24.616c3.073 5.758 11.497 20.105 16.394 21.826 2.98 1.044 9.463 1.229 18.256.528a3.568 3.568 0 0 0 2.711-1.618 3.573 3.573 0 0 0 .361-3.138c-.055-.153-5.924-16.092-9.647-26.421a4.692 4.692 0 0 0-2.655-2.821c-5.198-2.31-14.986 1.647-15.084 1.69a.914.914 0 0 1-.762 0 .902.902 0 0 1-.48-.614c-1.302-4.965-4.602-5.604-6.003-5.641l-3.091 16.209Z" fill="#353535"/><path d="M270.782 494.95h-16.399a.921.921 0 1 1 0-1.844h16.43a.925.925 0 0 1 .922.922.921.921 0 0 1-.922.922h-.031Z" fill="#353535"/><path d="m224.32 449.87 3.613 31.933 14.538-3.994-1.118-28.769-17.033.83Z" fill="#fff"/><path d="M227.962 482.72a.92.92 0 0 1-.916-.823l-3.613-31.952a.899.899 0 0 1 .209-.7.913.913 0 0 1 .657-.326l17.039-.823a.942.942 0 0 1 .67.239.92.92 0 0 1 .295.615l1.118 28.775a.913.913 0 0 1-.676.921l-14.538 3.988a.861.861 0 0 1-.245.086Zm-2.587-31.982 3.379 29.887 12.799-3.515-1.057-27.11-15.121.738Z" fill="#353535"/><path d="M226.561 505.328h23.005a5.112 5.112 0 0 0 3.862-1.763 5.1 5.1 0 0 0 1.189-4.075c-.768-5.198-3.269-13.819-10.771-25.672a4.491 4.491 0 0 0-3.785-2.083h-6.999a2.358 2.358 0 0 0-2.341 2.114l-.528 5.045-3.073-4.025a68.615 68.615 0 0 0-5.689 25.267 5.097 5.097 0 0 0 5.13 5.192Z" fill="#00AEEF"/><path d="M249.569 506.243h-23.005a6.032 6.032 0 0 1-6.028-6.144 68.689 68.689 0 0 1 5.782-25.641.922.922 0 0 1 1.567-.16l1.635 2.163.288-2.716a3.265 3.265 0 0 1 3.257-2.937h6.999a5.373 5.373 0 0 1 4.559 2.507c7.613 12.031 10.132 20.793 10.906 26.034a5.998 5.998 0 0 1-.175 2.559 6.02 6.02 0 0 1-5.785 4.335Zm-22.219-29.561c-1.413 3.459-4.792 12.799-4.989 23.46a4.18 4.18 0 0 0 2.566 3.933 4.205 4.205 0 0 0 1.619.325h23.005a4.173 4.173 0 0 0 4.135-4.781c-.743-5.063-3.201-13.561-10.636-25.315a3.576 3.576 0 0 0-3.005-1.653h-6.98a1.435 1.435 0 0 0-1.426 1.284l-.528 5.051a.924.924 0 0 1-1.213.779.921.921 0 0 1-.44-.318l-2.108-2.765Z" fill="#353535"/><path d="M252.387 500.745h-27.54a.92.92 0 0 1-.651-1.574.92.92 0 0 1 .651-.27h27.54a.921.921 0 1 1 0 1.844ZM278.961 258.113a5.348 5.348 0 0 0-3.342-3.073 82.002 82.002 0 0 0-67.971 9.795 5.359 5.359 0 0 0-2.458 4.135c-1.094 15.362-5.162 95.56 20.209 190.537l17.094-1.229 3.49-162.395s25.316 59.535 4.726 154.284l17.807 3.263s26.016-34.213 30.673-86.491c4.099-46.244-15.65-97.594-20.228-108.826Z" fill="#353535"/><path d="M229.757 384.245h-.037c-16.018-.688-17.819-22.446-17.819-22.661a.925.925 0 0 1 1.844-.141c0 .202 1.708 20.344 16.086 20.965a.924.924 0 0 1 .838.589.912.912 0 0 1-.016.705.91.91 0 0 1-.865.549l-.031-.006ZM247.47 311.673a.91.91 0 0 1-.921-.891l-.615-20.314a.914.914 0 0 1 .387-.78l10.655-7.496a.924.924 0 1 1 1.063 1.511l-10.249 7.208.614 19.816a.915.915 0 0 1-.546.867.925.925 0 0 1-.351.079h-.037Z" fill="#fff"/><path d="M238.41 113.631c6.501-5.592 7.988-6.354 9.875-9.555 1.542-2.612 4.989-8.449 2.654-14.612-2.015-5.333-7.582-8.553-12.701-8.83-4.596-.245-7.957 1.93-9.733 3.073-.774.497-7.613 5.063-8.964 12.516-.369 2.028-.093 2.956-1.014 4.221-2.083 2.858-5.844 1.401-8.443 3.767-3.275 2.98-1.757 9.321-1.634 9.831 1.708 6.759 9.014 11.245 14.968 10.618 3.435-.368 3.066-.78 14.992-11.029Z" fill="#353535"/><path d="M220.491 147.077a10.974 10.974 0 0 0 4.916-9.408l-.357-15.631-.319-.301s-6.261.417-7.171-2.772c-.909-3.189 3.515-3.797 3.515-3.797s-4.185-8.805 6.636-8.701c2.906 0 3.945-4.786 8.713-5.868 0 0 2.353-.196 4.744 5.985l5.235 7.742-2.618 1.438c.71 3.16.889 6.416.529 9.635a2.553 2.553 0 0 1-1.745 2.132c-1 .325-2.029.55-3.073.67l.842 10.445a15.465 15.465 0 0 0 6.532 11.392l3.637 2.55s-22.12 6.999-38.096-.614c-.074.006 4.209-2.335 8.08-4.897Z" fill="#fff"/><path d="M230.348 156.488c-6.04 0-12.59-.898-18.434-3.687a.92.92 0 0 1-.4-1.292.914.914 0 0 1 .357-.349c.043 0 4.301-2.353 8.086-4.86a9.999 9.999 0 0 0 4.474-8.602l-.344-15.005c-1.844.03-6.544-.228-7.466-3.46a3.313 3.313 0 0 1 .35-2.82 5.126 5.126 0 0 1 2.814-1.893c-.448-1.413-.952-3.975.369-6.052 1.26-1.966 3.785-2.931 7.509-2.913.885 0 1.628-.737 2.74-1.96 1.309-1.444 2.943-3.244 5.764-3.883h.123c.51-.05 3.146.067 5.647 6.47l5.173 7.656a.894.894 0 0 1 .147.353.904.904 0 0 1-.466.974l-2.016 1.106c.612 3.048.747 6.172.4 9.26a3.482 3.482 0 0 1-2.378 2.907c-.781.261-1.58.467-2.39.614l.774 9.598a14.453 14.453 0 0 0 6.144 10.71l3.632 2.55a.92.92 0 0 1 .176 1.351.924.924 0 0 1-.41.283 74.687 74.687 0 0 1-20.375 2.944Zm-15.976-4.603c12.615 5.088 28.572 1.739 33.93.357l-2.04-1.432a16.29 16.29 0 0 1-6.918-12.068l-.842-10.446a.92.92 0 0 1 .811-.989 14.849 14.849 0 0 0 2.919-.614 1.62 1.62 0 0 0 1.112-1.358 28.458 28.458 0 0 0-.51-9.334.929.929 0 0 1 .454-1.008l1.733-.946-4.67-6.906a1.421 1.421 0 0 1-.098-.185c-1.843-4.713-3.496-5.315-3.816-5.382-2.169.534-3.441 1.935-4.67 3.293s-2.359 2.556-4.117 2.562c-3.041-.03-5.044.664-5.941 2.065-1.328 2.083.129 5.284.147 5.321.065.129.1.271.1.415a.923.923 0 0 1-.1.415.939.939 0 0 1-.682.479c-.547.074-2.077.467-2.636 1.327a1.495 1.495 0 0 0-.123 1.303c.578 2.021 4.793 2.206 6.225 2.107a.916.916 0 0 1 .694.252l.313.283a.932.932 0 0 1 .295.657l.357 15.632a11.833 11.833 0 0 1-5.303 10.2c-2.403 1.555-4.983 3.072-6.599 4h-.025Z" fill="#353535"/><path d="M239.443 128.198s-6.863.24-9.591-3.49l9.591 3.49Z" fill="#fff"/><path d="M239.159 129.134c-1.45 0-7.373-.234-10.052-3.878a.924.924 0 1 1 1.493-1.087c2.396 3.293 8.75 3.115 8.811 3.115a.903.903 0 0 1 .665.244.927.927 0 0 1-.603 1.6l-.314.006ZM367.378 240.923h-65.679l48.684-74.871a8.35 8.35 0 0 1 7.017-3.76h53.298a4.171 4.171 0 0 1 3.637 6.402l-46.957 72.229Z" fill="#353535"/><path d="M381.385 188.551c-2.132 3.281-6.722 5.942-10.249 5.942s-4.657-2.661-2.519-5.942 6.722-5.942 10.249-5.942 4.652 2.661 2.519 5.942Z" fill="#95DBFA"/><path d="M244.709 240.387H367.6v.786a5.996 5.996 0 0 1-5.997 5.997H250.7a5.998 5.998 0 0 1-5.997-5.997v-.786h.006Z" fill="#353535"/><path d="M363.967 241.912h-56.401a.923.923 0 0 1 0-1.844h56.401a.921.921 0 1 1 0 1.844Z" fill="#fff"/><path d="m380.46 118.818-1.757-6.415-7.257.332a27.971 27.971 0 0 0-2.335-4.007l3.841-6.144-4.726-4.676-6.144 3.914a27.936 27.936 0 0 0-4.019-2.292l.252-7.263-6.415-1.696-3.342 6.44a27.802 27.802 0 0 0-4.633.037l-3.417-6.415-6.415 1.757.332 7.257a27.468 27.468 0 0 0-4.006 2.329l-6.145-3.84-4.682 4.731 3.914 6.144a27.946 27.946 0 0 0-2.292 4.019l-7.263-.246-1.689 6.421 6.439 3.336a27.888 27.888 0 0 0 .037 4.633l-6.415 3.417 1.758 6.433 7.256-.332a27.586 27.586 0 0 0 2.335 4.007l-3.846 6.144 4.731 4.676 6.145-3.914a28.244 28.244 0 0 0 4.024 2.292l-.252 7.263 6.434 1.683 3.318-6.457c1.542.121 3.092.111 4.633-.031l3.41 6.409 6.415-1.758-.326-7.256a27.053 27.053 0 0 0 4-2.329l6.145 3.84 4.676-4.731-3.914-6.145a27.315 27.315 0 0 0 2.292-4.018l7.263.252 1.689-6.44-6.445-3.336a27.151 27.151 0 0 0 0-4.633l6.396-3.392Zm-29.549 22.397a17.132 17.132 0 0 1-18.052-6.018 17.13 17.13 0 0 1-1.348-18.98 17.123 17.123 0 0 1 31.394 3.959 17.112 17.112 0 0 1-1.638 13.005 17.105 17.105 0 0 1-10.356 8.034Z" fill="#007BB3"/><path d="M338.034 158.135a1.02 1.02 0 0 1-.233-.031l-6.434-1.689a.92.92 0 0 1-.688-.922l.234-6.661a29.143 29.143 0 0 1-3.072-1.757l-5.617 3.588a.923.923 0 0 1-1.143-.123l-4.731-4.676a.924.924 0 0 1-.135-1.143l3.527-5.646a27.492 27.492 0 0 1-1.794-3.073l-6.655.301a.916.916 0 0 1-.928-.675l-1.757-6.415a.917.917 0 0 1 .455-1.057l5.88-3.128a27.615 27.615 0 0 1 0-3.57l-5.911-3.072a.92.92 0 0 1-.467-1.051l1.69-6.433a.906.906 0 0 1 .921-.688l6.661.227a29.9 29.9 0 0 1 1.758-3.072l-3.589-5.61a.92.92 0 0 1 .123-1.143l4.615-4.756a.919.919 0 0 1 1.142-.135l5.647 3.52a28.728 28.728 0 0 1 3.073-1.788l-.302-6.654a.928.928 0 0 1 .676-.934l6.415-1.757a.928.928 0 0 1 1.057.46l3.128 5.875a28.791 28.791 0 0 1 3.564 0l3.072-5.905a.923.923 0 0 1 1.051-.467l6.433 1.683a.927.927 0 0 1 .688.928l-.227 6.655a28.986 28.986 0 0 1 3.072 1.763l5.61-3.588a.921.921 0 0 1 1.149.123l4.725 4.676a.918.918 0 0 1 .135 1.143l-3.52 5.64c.66.986 1.257 2.012 1.788 3.073l6.654-.301a.922.922 0 0 1 .934.675l1.794 6.415a.924.924 0 0 1-.46 1.057l-5.875 3.128a29.844 29.844 0 0 1 0 3.564l5.905 3.072a.928.928 0 0 1 .467 1.057l-1.683 6.433a.903.903 0 0 1-.928.688l-6.642-.245a29.583 29.583 0 0 1-1.764 3.072l3.607 5.616a.912.912 0 0 1-.123 1.143l-4.676 4.731a.924.924 0 0 1-1.143.135l-5.641-3.527a28.212 28.212 0 0 1-3.072 1.795l.307 6.654a.92.92 0 0 1-.682.928l-6.415 1.757a.915.915 0 0 1-1.056-.454l-3.128-5.881a27.523 27.523 0 0 1-3.564 0l-3.072 5.911a.936.936 0 0 1-.83.541Zm-5.487-3.287 5.008 1.309 3.005-5.789a.914.914 0 0 1 .891-.491c1.489.113 2.986.101 4.473-.037a.928.928 0 0 1 .522.107c.159.087.29.218.375.378l3.072 5.764 4.99-1.364-.295-6.526a.91.91 0 0 1 .528-.872 26.8 26.8 0 0 0 3.871-2.255.925.925 0 0 1 1.014 0l5.53 3.453 3.644-3.687-3.521-5.499a.925.925 0 0 1 0-1.014 27.623 27.623 0 0 0 2.218-3.89.902.902 0 0 1 .867-.534l6.525.227 1.315-5.008-5.788-3.004a.922.922 0 0 1-.498-.891 26.595 26.595 0 0 0 0-4.48.896.896 0 0 1 .486-.891l5.763-3.072-1.37-4.989-6.519.295a.926.926 0 0 1-.879-.529 26.429 26.429 0 0 0-2.249-3.865.917.917 0 0 1-.031-1.02l3.454-5.53-3.687-3.643-5.53 3.52a.934.934 0 0 1-1.02 0 27.679 27.679 0 0 0-3.89-2.218.92.92 0 0 1-.534-.866l.227-6.526-5.008-1.315-2.955 5.72a.933.933 0 0 1-.891.499 26.616 26.616 0 0 0-4.48 0 .901.901 0 0 1-.897-.486l-3.072-5.763-4.996 1.37.295 6.52a.916.916 0 0 1-.522.878 26.681 26.681 0 0 0-3.871 2.249.926.926 0 0 1-1.02 0l-5.53-3.453-3.638 3.686 3.515 5.5a.908.908 0 0 1 0 1.02 26.944 26.944 0 0 0-2.212 3.889.938.938 0 0 1-.873.535l-6.525-.228-1.309 5.008 5.788 2.999a.918.918 0 0 1 .492.891 26.585 26.585 0 0 0 .037 4.479.925.925 0 0 1-.486.897l-5.763 3.073 1.364 4.995 6.525-.295a.921.921 0 0 1 .873.522 26.052 26.052 0 0 0 2.255 3.871.933.933 0 0 1 0 1.02l-3.453 5.531 3.686 3.637 5.531-3.515a.91.91 0 0 1 1.013 0 27 27 0 0 0 3.89 2.213.924.924 0 0 1 .534.872l-.264 6.618Zm11.005-13.696a18.045 18.045 0 0 1-17.919-16.926 18.038 18.038 0 0 1 15.694-19.006 18.042 18.042 0 0 1 20.01 14.393 18.043 18.043 0 0 1-13.029 20.924 17.915 17.915 0 0 1-4.756.59v.025Zm0-34.256c-1.454.013-2.901.22-4.301.614a16.216 16.216 0 0 0-9.798 7.604 16.195 16.195 0 0 0-1.551 12.304 16.208 16.208 0 0 0 13.602 11.798 16.205 16.205 0 0 0 12.708-28.265 16.213 16.213 0 0 0-10.654-4.025l-.006-.03Z" fill="#353535"/><path d="m488.843 53.522-3.005-10.98-12.418.565a46.966 46.966 0 0 0-3.976-6.851l6.575-10.532-8.093-7.988-10.445 6.698a47.901 47.901 0 0 0-6.882-3.92l.43-12.43-11.079-2.907-5.714 11.023a46.9 46.9 0 0 0-7.933.062L420.49 5.287l-10.98 3.005.565 12.418a46.111 46.111 0 0 0-6.851 3.994l-10.538-6.58-7.988 8.092 6.71 10.476a47.89 47.89 0 0 0-3.92 6.882l-12.43-.43-2.882 11.011 11.023 5.715a46.905 46.905 0 0 0 .055 7.932L372.28 73.64l3.005 10.98 12.418-.564a47.067 47.067 0 0 0 3.994 6.857l-6.575 10.532 8.093 7.987 10.482-6.685a47.467 47.467 0 0 0 6.876 3.92l-.424 12.431 11.005 2.888 5.715-11.024c2.641.201 5.294.18 7.932-.061l5.844 10.974 10.974-3.004-.609-12.419a46.382 46.382 0 0 0 6.858-3.994l10.532 6.581 7.987-8.092-6.703-10.477a47.916 47.916 0 0 0 3.926-6.881l12.424.43 2.888-11.011-11.023-5.715a46.905 46.905 0 0 0-.061-7.933l11.005-5.837ZM438.291 91.84a29.296 29.296 0 0 1-33.185-42.77 29.297 29.297 0 0 1 53.708 6.775 29.292 29.292 0 0 1-20.523 35.995Z" fill="#007BB3"/><path d="M416.262 120.131a.735.735 0 0 1-.233-.03l-11.011-2.882a.924.924 0 0 1-.688-.928l.405-11.816a48.977 48.977 0 0 1-5.948-3.398l-9.966 6.372a.931.931 0 0 1-1.149-.117l-8.093-7.988a.93.93 0 0 1-.129-1.142l6.249-10.022a48.27 48.27 0 0 1-3.447-5.93l-11.816.541a.909.909 0 0 1-.928-.682l-3.01-10.974a.924.924 0 0 1 .46-1.057l10.446-5.53a48.378 48.378 0 0 1-.049-6.864l-10.495-5.45a.923.923 0 0 1-.467-1.05l2.894-11.042a.902.902 0 0 1 .928-.689l11.822.406a48.703 48.703 0 0 1 3.392-5.948l-6.384-9.942a.914.914 0 0 1 .117-1.143l7.987-8.092a.924.924 0 0 1 1.143-.135l10.022 6.255a47.42 47.42 0 0 1 5.93-3.453l-.547-11.866a.918.918 0 0 1 .682-.927l10.992-2.98a.916.916 0 0 1 1.057.454l5.53 10.446a49.176 49.176 0 0 1 6.858-.055l5.438-10.483a.919.919 0 0 1 1.05-.467l11.011 2.888a.92.92 0 0 1 .689.922l-.406 11.822a49.012 49.012 0 0 1 5.948 3.392l9.966-6.372a.912.912 0 0 1 1.143.123l8.093 7.987a.924.924 0 0 1 .135 1.143l-6.218 10.028a47.602 47.602 0 0 1 3.453 5.93l11.816-.535a.903.903 0 0 1 .928.676l3.004 10.98a.92.92 0 0 1-.454 1.057l-10.446 5.53c.181 2.284.199 4.578.055 6.864l10.489 5.48a.918.918 0 0 1 .467 1.052l-2.888 11.01a.924.924 0 0 1-.922.689l-11.822-.406a49.01 49.01 0 0 1-3.392 5.954l6.372 9.967a.917.917 0 0 1-.123 1.15l-7.987 8.091a.92.92 0 0 1-1.143.129l-10.034-6.298a49.05 49.05 0 0 1-5.93 3.453l.535 11.81a.91.91 0 0 1-.676.928l-10.981 3.011a.928.928 0 0 1-1.056-.461l-5.531-10.446a48.222 48.222 0 0 1-6.863.049l-5.432 10.483a.901.901 0 0 1-.343.388.906.906 0 0 1-.499.14Zm-10.064-4.51 9.585 2.513 5.377-10.372a.914.914 0 0 1 .884-.491 47.1 47.1 0 0 0 7.779-.055.921.921 0 0 1 .898.479l5.493 10.329 9.555-2.618-.529-11.674a.921.921 0 0 1 .522-.873 46.526 46.526 0 0 0 6.723-3.926.918.918 0 0 1 1.013 0l9.912 6.144 6.968-7.041-6.305-9.832a.923.923 0 0 1 0-1.013 47.301 47.301 0 0 0 3.847-6.76.897.897 0 0 1 .909-.546l11.675.399 2.513-9.586-10.372-5.37a.924.924 0 0 1-.498-.89 45.72 45.72 0 0 0-.055-7.78.933.933 0 0 1 .485-.897l10.323-5.493-2.611-9.555-11.675.529a.921.921 0 0 1-.872-.523 46.559 46.559 0 0 0-3.915-6.722.914.914 0 0 1 0-1.014l6.182-9.911-7.085-6.956-9.831 6.305a.935.935 0 0 1-1.02 0 47.164 47.164 0 0 0-6.759-3.847.914.914 0 0 1-.535-.866l.406-11.675-9.598-2.544-5.376 10.366a.927.927 0 0 1-.885.498 45.719 45.719 0 0 0-7.779.055.934.934 0 0 1-.897-.485L415.156 3.6l-9.554 2.617.528 11.675a.922.922 0 0 1-.522.873 46.487 46.487 0 0 0-6.722 3.914.936.936 0 0 1-1.02 0l-9.905-6.15-6.968 7.04 6.304 9.832a.933.933 0 0 1 0 1.02 46.942 46.942 0 0 0-3.877 6.753.923.923 0 0 1-.867.535l-11.674-.406-2.513 9.585 10.372 5.377a.92.92 0 0 1 .491.89 46.273 46.273 0 0 0 .062 7.774.935.935 0 0 1-.486.897l-10.323 5.493 2.612 9.555 11.674-.529a.93.93 0 0 1 .873.523 45.843 45.843 0 0 0 3.914 6.722.933.933 0 0 1 0 1.02l-6.181 9.905 7.041 6.968 9.832-6.305a.93.93 0 0 1 1.02 0 46.527 46.527 0 0 0 6.759 3.847.932.932 0 0 1 .534.866l-.362 11.73Zm19.496-24.578a30.234 30.234 0 0 1-30.173-28.214 30.236 30.236 0 1 1 55.926 13.815 30.236 30.236 0 0 1-17.765 13.324 30.282 30.282 0 0 1-7.988 1.069v.006Zm0-58.613a28.384 28.384 0 0 0-28.15 32.164 28.38 28.38 0 0 0 23.657 24.245c3.998.638 8.086.413 11.99-.66a28.385 28.385 0 0 0 20.632-31.158 28.38 28.38 0 0 0-28.135-24.597l.006.006ZM31.56 116.131a.92.92 0 0 1-.836-1.321 233.495 233.495 0 0 1 96.088-99.542.924.924 0 0 1 1.225.38.918.918 0 0 1-.34 1.236 230.255 230.255 0 0 0-95.308 98.756.93.93 0 0 1-.83.491ZM101.441 406.676a.885.885 0 0 1-.541-.178C43.627 364.37 9.131 299.558 6.243 228.619a.924.924 0 0 1 1.545-.72.92.92 0 0 1 .298.64C10.95 298.919 45.175 363.24 102 405.011a.924.924 0 0 1 .331 1.031.924.924 0 0 1-.878.634h-.012ZM459.366 305.072a.926.926 0 0 1-.86-1.253c13.26-34.834 12.547-78.036 9.616-108.145-3.177-32.664-9.579-57.371-9.647-57.617a.93.93 0 0 1 .336-.97.936.936 0 0 1 .685-.179.931.931 0 0 1 .61.358.912.912 0 0 1 .157.324 415.636 415.636 0 0 1 9.696 57.906c2.95 30.318 3.656 73.833-9.726 108.999a.928.928 0 0 1-.867.577ZM118.487 423.531a7.578 7.578 0 0 1-7.443-9.06 7.576 7.576 0 0 1 5.959-5.959 7.578 7.578 0 0 1 9.06 7.443 7.58 7.58 0 0 1-7.576 7.576Zm0-13.315a5.739 5.739 0 1 0-.013 11.477 5.739 5.739 0 0 0 .013-11.477ZM455.392 318.293a3.819 3.819 0 0 1-3.476-2.245 3.829 3.829 0 1 1 7.212-2.465c.115.489.132.995.049 1.49a3.836 3.836 0 0 1-3.785 3.22Zm0-5.813a1.978 1.978 0 0 0-1.622 3.14 1.984 1.984 0 0 0 1.683.84 1.994 1.994 0 0 0 1.929-1.86 1.992 1.992 0 0 0-1.67-2.096 3.417 3.417 0 0 0-.32-.006v-.018ZM15.361 236.025a.922.922 0 0 1-.916-.811l-.97-8.271a.92.92 0 0 1 .338-.823.9.9 0 0 1 .884-.148 96.242 96.242 0 0 1 7.263 2.919.914.914 0 0 1 .535.706.937.937 0 0 1-.307.83l-6.212 5.376a.905.905 0 0 1-.615.222Zm.117-7.81.614 5.057 3.798-3.281a116.188 116.188 0 0 0-4.418-1.776h.006ZM41.383 77.075h-.301a.922.922 0 0 1 0-1.844c2.783.044 4.62-.522 5.315-1.622.694-1.1.203-2.71-.283-4.264-.553-1.794-1.13-3.65.037-5.057 1.168-1.407 3.177-1.167 4.916-.934 1.517.197 2.95.387 3.644-.356.817-.873.393-2.728 0-4.523-.468-2.077-.953-4.221.491-5.4 1.112-.916 2.458-.505 3.687-.142 1.057.32 2.058.614 2.85.141.794-.473.904-1.34 1.113-2.875.13-1.575.573-3.109 1.303-4.51 1.603-2.802 4.915-4.67 9.788-5.53a.937.937 0 0 1 .332 1.843c-4.338.78-7.202 2.347-8.523 4.651a10.08 10.08 0 0 0-1.075 3.84c-.221 1.616-.449 3.282-1.985 4.21-1.536.927-3.072.43-4.338.043-1.001-.302-1.64-.467-1.966-.197-.565.46-.19 2.114.135 3.57.485 2.157 1.038 4.602-.442 6.188-1.34 1.437-3.404 1.16-5.23.921-1.413-.184-2.752-.362-3.28.283-.529.645-.123 1.948.307 3.336.577 1.844 1.229 3.976.074 5.8-1.027 1.617-3.19 2.428-6.57 2.428Z" fill="#353535"/><path d="M106.3 400.628a.911.911 0 0 1-.492-.141c-29.758-18.636-46.821-49.218-47.012-49.525a.92.92 0 0 1 1.385-1.188.907.907 0 0 1 .225.297c.172.307 17.039 30.477 46.385 48.874a.92.92 0 0 1-.491 1.683ZM478.549 261a.824.824 0 0 1-.172 0 .928.928 0 0 1-.737-1.075c7.416-39.467-3.945-89.969-4.062-90.473a.92.92 0 0 1 .694-1.106.923.923 0 0 1 1.106.695c.117.51 11.558 51.381 4.074 91.222a.913.913 0 0 1-.903.737Z" fill="#353535"/></svg>