<svg width="53" height="53" fill="none" xmlns="http://www.w3.org/2000/svg"><path d="M38.5 23c4.411 0 8-3.588 8-8s-3.589-8-8-8c-3.203 0-5.965 1.897-7.242 4.623l-2.142-.791c.025-.164.05-.328.05-.499A3.337 3.337 0 0 0 25.834 7a3.337 3.337 0 0 0-3.333 3.333 3.337 3.337 0 0 0 3.333 3.334 3.325 3.325 0 0 0 2.824-1.583l2.139.79A7.953 7.953 0 0 0 30.5 15c0 .873.145 1.712.405 2.5l-7.332 3.107a8.003 8.003 0 0 0-7.073-4.274c-.993 0-1.941.191-2.82.523l-1.844-3.875a3.318 3.318 0 0 0 1.33-2.648A3.337 3.337 0 0 0 9.834 7 3.337 3.337 0 0 0 6.5 10.333a3.337 3.337 0 0 0 3.333 3.334c.278 0 .544-.044.802-.11l1.842 3.872C10.102 18.82 8.5 21.39 8.5 24.333a7.997 7.997 0 0 0 3.55 6.644l-1.22 2.192A3.3 3.3 0 0 0 9.833 33 3.337 3.337 0 0 0 6.5 36.333a3.337 3.337 0 0 0 3.333 3.334 3.337 3.337 0 0 0 3.334-3.334c0-1.01-.46-1.904-1.172-2.516l1.222-2.196a7.94 7.94 0 0 0 3.283.712c1.83 0 3.512-.624 4.861-1.661l2.624 2.887A7.962 7.962 0 0 0 21.833 39c0 .408.041.805.1 1.197l-3.088.732A3.329 3.329 0 0 0 15.833 39a3.337 3.337 0 0 0-3.333 3.333 3.337 3.337 0 0 0 3.333 3.334 3.337 3.337 0 0 0 3.334-3.334c0-.036-.01-.071-.011-.108l3.081-.73C23.288 44.687 26.293 47 29.833 47c4.412 0 8-3.589 8-8a7.94 7.94 0 0 0-.954-3.783l3.916-2.546a3.324 3.324 0 0 0 2.372.996 3.337 3.337 0 0 0 3.333-3.334A3.337 3.337 0 0 0 43.167 27a3.337 3.337 0 0 0-3.334 3.333c0 .431.089.84.238 1.218l-3.925 2.552a8.044 8.044 0 0 0-2.98-2.366l3.255-9.02c.664.178 1.359.283 2.079.283ZM25.833 12.333c-1.102 0-2-.897-2-2 0-1.102.898-2 2-2 1.103 0 2 .898 2 2 0 1.103-.897 2-2 2Zm-18-2c0-1.102.898-2 2-2 1.103 0 2 .898 2 2 0 1.103-.897 2-2 2-1.102 0-2-.897-2-2Zm2 28c-1.102 0-2-.897-2-2 0-1.102.898-2 2-2 1.103 0 2 .898 2 2 0 1.103-.897 2-2 2Zm6 6c-1.102 0-2-.897-2-2 0-1.102.898-2 2-2 1.103 0 2 .898 2 2 0 1.103-.897 2-2 2Zm27.334-16c1.102 0 2 .898 2 2 0 1.103-.898 2-2 2-1.103 0-2-.897-2-2 0-1.102.897-2 2-2Zm-8.593-7.957c.297-1.542 1.657-2.71 3.26-2.71h1.333c1.602 0 2.962 1.168 3.26 2.71a6.624 6.624 0 0 1-3.927 1.29 6.624 6.624 0 0 1-3.926-1.29Zm3.926-4.043c-1.102 0-2-.897-2-2 0-1.102.898-2 2-2 1.102 0 2 .898 2 2 0 1.103-.898 2-2 2Zm0-8A6.674 6.674 0 0 1 45.167 15c0 1.667-.62 3.19-1.635 4.36a4.722 4.722 0 0 0-2.655-2.697c.59-.602.956-1.423.956-2.33A3.337 3.337 0 0 0 38.5 11a3.337 3.337 0 0 0-3.333 3.333c0 .907.366 1.728.956 2.33a4.722 4.722 0 0 0-2.655 2.696A6.631 6.631 0 0 1 31.833 15 6.674 6.674 0 0 1 38.5 8.333Zm-28.667 16a6.674 6.674 0 0 1 6.667-6.666 6.674 6.674 0 0 1 6.667 6.666 6.634 6.634 0 0 1-1.644 4.37 4.723 4.723 0 0 0-2.658-2.707 3.32 3.32 0 0 0 .955-2.33 3.337 3.337 0 0 0-3.333-3.333 3.337 3.337 0 0 0-3.334 3.334c0 .906.366 1.727.956 2.33a4.721 4.721 0 0 0-2.651 2.685 6.632 6.632 0 0 1-1.625-4.349Zm4.654-.666c0-1.103.897-2 2-2 1.102 0 2 .897 2 2 0 1.102-.898 2-2 2-1.103 0-2-.898-2-2ZM12.563 29.7C12.863 28.163 14.22 27 15.82 27h1.333c1.606 0 2.968 1.171 3.261 2.718a6.62 6.62 0 0 1-7.851-.018Zm13.333 14.666c.3-1.538 1.658-2.7 3.257-2.7h1.334c1.605 0 2.967 1.17 3.26 2.718a6.62 6.62 0 0 1-7.851-.018Zm3.924-4.034c-1.103 0-2-.897-2-2 0-1.102.897-2 2-2 1.102 0 2 .898 2 2 0 1.103-.898 2-2 2ZM36.5 39a6.633 6.633 0 0 1-1.644 4.37 4.723 4.723 0 0 0-2.658-2.707 3.32 3.32 0 0 0 .955-2.33A3.337 3.337 0 0 0 29.82 35a3.337 3.337 0 0 0-3.333 3.333c0 .907.366 1.728.956 2.33a4.721 4.721 0 0 0-2.652 2.686A6.631 6.631 0 0 1 23.167 39a6.674 6.674 0 0 1 6.666-6.667A6.674 6.674 0 0 1 36.5 39Zm-4.587-7.716a7.97 7.97 0 0 0-2.08-.284c-1.83 0-3.512.624-4.861 1.661l-2.624-2.886a7.962 7.962 0 0 0 2.152-5.442 7.95 7.95 0 0 0-.405-2.499l7.332-3.107a8.043 8.043 0 0 0 3.74 3.536l-3.254 9.02Z" fill="#03A9F4"/></svg>