<svg width="63" height="53" fill="none" xmlns="http://www.w3.org/2000/svg"><path d="M52.86 6.5H17.372c-.392 0-.71.32-.71.715 0 .395.318.715.71.715H52.86c.646 0 1.172.53 1.172 1.18v23.534H8.42V9.111c0-.651.526-1.181 1.172-1.181h4.943c.392 0 .71-.32.71-.715a.712.712 0 0 0-.71-.715H9.591A2.604 2.604 0 0 0 7 9.11v27.784c0 1.44 1.163 2.61 2.591 2.61H25.33l-.76 5.566h-2.291c-.392 0-.71.32-.71.715 0 .395.318.715.71.715h17.908c.392 0 .71-.32.71-.715a.712.712 0 0 0-.71-.715h-2.29l-.761-5.565h3.486c.392 0 .71-.32.71-.715a.712.712 0 0 0-.71-.715H9.591c-.646 0-1.172-.53-1.172-1.181v-2.82h45.612v2.82c0 .651-.526 1.18-1.172 1.18h-9.398c-.392 0-.71.32-.71.716 0 .395.318.715.71.715h9.398a2.604 2.604 0 0 0 2.592-2.611V9.111c0-1.44-1.163-2.611-2.592-2.611ZM36.462 45.07H26.002l.76-5.565h8.94l.76 5.565Z" fill="#03A9F4"/><path d="M31.824 18.61a1.15 1.15 0 0 0-.865 1.112l-.007 1.323a1.15 1.15 0 0 0 .855 1.12l2.577.679c.102.309.225.612.367.906l-1.369 2.3c-.269.453-.2 1.03.168 1.404l.925.94c.367.374.94.45 1.39.183l2.298-1.356c.29.145.59.272.896.379l.647 2.602c.127.511.581.87 1.104.872l1.313.007h.006c.52 0 .975-.353 1.107-.861l.673-2.596c.307-.104.608-.227.9-.37l2.283 1.379a1.136 1.136 0 0 0 1.393-.17l.933-.93c.372-.37.447-.947.182-1.402l-1.346-2.314a7.63 7.63 0 0 0 .376-.903l2.584-.652a1.15 1.15 0 0 0 .865-1.112l.007-1.323a1.15 1.15 0 0 0-.855-1.12l-2.577-.678a7.6 7.6 0 0 0-.367-.907l1.369-2.3c.269-.452.2-1.03-.169-1.404l-.924-.94a1.137 1.137 0 0 0-1.39-.183l-2.298 1.356a7.486 7.486 0 0 0-.896-.379l-.648-2.603a1.145 1.145 0 0 0-1.103-.872l-1.314-.006a1.142 1.142 0 0 0-1.112.861l-.673 2.596a7.473 7.473 0 0 0-.9.37l-2.283-1.379a1.137 1.137 0 0 0-1.393.17l-.933.93c-.372.371-.447.947-.183 1.402l1.346 2.314c-.144.292-.27.594-.375.903l-2.584.652Zm4.26-2.146-1.314-2.26.63-.628 2.23 1.347c.34.205.755.219 1.11.036.306-.158.628-.29.957-.393.38-.12.666-.421.767-.809l.657-2.535.885.004.633 2.542c.096.388.38.693.758.816.328.107.65.242.954.403.353.186.768.177 1.11-.025l2.244-1.325.623.634-1.337 2.247a1.155 1.155 0 0 0-.035 1.119c.156.308.287.633.39.964.118.383.418.671.802.772l2.517.662-.004.892-2.523.637a1.14 1.14 0 0 0-.81.764c-.106.33-.24.654-.4.96-.185.357-.176.775.025 1.12l1.314 2.26-.629.627-2.23-1.346a1.132 1.132 0 0 0-1.11-.036 6.04 6.04 0 0 1-.958.393c-.38.12-.666.421-.767.808l-.657 2.536-.885-.005-.632-2.541a1.141 1.141 0 0 0-.759-.816 6.057 6.057 0 0 1-.953-.403 1.132 1.132 0 0 0-1.111.025l-2.244 1.324-.623-.634 1.337-2.247c.204-.343.218-.76.036-1.118a6.147 6.147 0 0 1-.39-.964 1.14 1.14 0 0 0-.803-.773l-2.517-.662.005-.892 2.523-.637a1.14 1.14 0 0 0 .81-.764c.106-.33.24-.654.4-.96a1.155 1.155 0 0 0-.025-1.119Z" fill="#03A9F4"/><path d="M41.5 24.348h.02c1.03 0 1.999-.402 2.73-1.132a3.9 3.9 0 0 0 1.152-2.76 3.9 3.9 0 0 0-1.124-2.772 3.843 3.843 0 0 0-2.74-1.16h-.02c-1.03 0-1.999.402-2.731 1.133a3.9 3.9 0 0 0-1.15 2.76 3.9 3.9 0 0 0 1.123 2.771 3.844 3.844 0 0 0 2.74 1.16Zm-1.714-5.675a2.437 2.437 0 0 1 1.733-.719h.012a2.475 2.475 0 0 1 2.451 2.494 2.474 2.474 0 0 1-2.475 2.47 2.475 2.475 0 0 1-2.451-2.494 2.475 2.475 0 0 1 .73-1.751ZM17.74 19.298c0-.908-.734-1.647-1.635-1.647h-2.28c-.901 0-1.634.739-1.634 1.647v2.296c0 .908.733 1.647 1.634 1.647h2.28c.901 0 1.634-.739 1.634-1.647v-2.296Zm-1.42 2.296c0 .12-.097.217-.215.217h-2.28a.216.216 0 0 1-.215-.217v-2.296c0-.12.097-.217.215-.217h2.28c.118 0 .215.097.215.217v2.296ZM17.74 11.536c0-.907-.734-1.646-1.635-1.646h-2.28c-.901 0-1.634.739-1.634 1.646v2.297c0 .908.733 1.646 1.634 1.646h2.28c.901 0 1.634-.738 1.634-1.646v-2.297Zm-1.42 2.297c0 .12-.097.216-.215.216h-2.28a.216.216 0 0 1-.215-.216v-2.297c0-.119.097-.216.215-.216h2.28c.118 0 .215.097.215.216v2.297ZM20.605 11.701h8.035c.392 0 .71-.32.71-.715a.712.712 0 0 0-.71-.715h-8.035c-.392 0-.71.32-.71.715 0 .395.318.715.71.715ZM20.605 14.633h3.171c.393 0 .71-.32.71-.715a.712.712 0 0 0-.71-.715h-3.171c-.392 0-.71.32-.71.715 0 .395.318.715.71.715ZM20.605 19.462h8.035c.392 0 .71-.32.71-.715a.712.712 0 0 0-.71-.715h-8.035c-.392 0-.71.32-.71.715 0 .395.318.715.71.715ZM20.605 22.395h3.171c.393 0 .71-.32.71-.715a.712.712 0 0 0-.71-.715h-3.171c-.392 0-.71.32-.71.715 0 .394.318.715.71.715ZM16.105 25.412h-2.28c-.901 0-1.634.739-1.634 1.647v2.296c0 .908.733 1.647 1.634 1.647h2.28c.901 0 1.634-.739 1.634-1.647V27.06c0-.908-.733-1.647-1.634-1.647Zm.215 3.943c0 .12-.097.217-.215.217h-2.28a.216.216 0 0 1-.215-.217V27.06c0-.12.097-.217.215-.217h2.28c.118 0 .215.097.215.217v2.296ZM20.605 27.224h8.035c.392 0 .71-.32.71-.715a.712.712 0 0 0-.71-.715h-8.035c-.392 0-.71.32-.71.715 0 .394.318.715.71.715ZM20.605 30.156h3.171c.393 0 .71-.32.71-.715a.712.712 0 0 0-.71-.715h-3.171c-.392 0-.71.32-.71.715 0 .395.318.715.71.715Z" fill="#03A9F4"/></svg>