<svg width="53" height="53" fill="none" xmlns="http://www.w3.org/2000/svg"><path d="M15.736 32.64a.591.591 0 0 0-.786.28l-.844 1.775a.592.592 0 0 0 .849.753.59.59 0 0 0 .218-.246l.844-1.774a.59.59 0 0 0-.28-.787ZM26.5 28.81a7.341 7.341 0 1 0 7.342 7.344A7.35 7.35 0 0 0 26.5 28.81Zm0 13.503a6.16 6.16 0 1 1 6.16-6.16 6.167 6.167 0 0 1-6.16 6.16Z" fill="#03A9F4"/><path d="M26.5 30.836a5.317 5.317 0 1 0 5.316 5.318 5.322 5.322 0 0 0-5.316-5.318Zm0 9.451a4.135 4.135 0 1 1 0-8.27 4.135 4.135 0 0 1 0 8.27Z" fill="#03A9F4"/><path d="M44.275 14.25a31.6 31.6 0 0 0-1.994-1.098V11.31a4.81 4.81 0 0 0-9.481-1.142c-2.09-.31-4.2-.461-6.313-.454-6.948.004-12.592 1.445-17.76 4.536a4.629 4.629 0 0 0-1.74 6.024l1.469 2.937a1.608 1.608 0 0 0 1.96.797l4.227-1.47a1.612 1.612 0 0 0 1.075-1.59l-.114-2.44c3.17-1.49 7.817-2.272 10.908-2.276 3.066.004 7.712.786 10.882 2.275l-.114 2.441a1.612 1.612 0 0 0 1.075 1.59l2.743.954v2.437a11.077 11.077 0 0 1-1.488 5.558l-2.264-4.767a1.611 1.611 0 0 0-1.449-.915h-2.09v-1.422a.59.59 0 0 0-.59-.59h-4.05a.591.591 0 0 0-.591.59v1.422h-4.152v-1.422a.591.591 0 0 0-.59-.59h-4.052a.59.59 0 0 0-.59.59v1.422h-2.09a1.61 1.61 0 0 0-1.447.915L9.739 39.167a2.633 2.633 0 0 0-.253 1.123v4.607a1.605 1.605 0 0 0 1.603 1.603h30.822a1.605 1.605 0 0 0 1.603-1.603V40.29c0-.388-.087-.772-.253-1.123l-3.049-6.414a12.253 12.253 0 0 0 2.069-6.824v-2.025l.302.105a1.606 1.606 0 0 0 1.96-.797l1.47-2.937a4.63 4.63 0 0 0-1.738-6.023v-.002ZM29.757 24.974h2.87v.83h-2.87v-.83Zm-9.384 0h2.87v.83h-2.87v-.83ZM42.331 40.29v4.607a.422.422 0 0 1-.422.422H11.09a.423.423 0 0 1-.422-.422V40.29c0-.213.048-.423.139-.616l5.915-12.447a.425.425 0 0 1 .382-.241h18.794a.424.424 0 0 1 .381.24l5.916 12.448c.09.193.137.403.137.616Zm-4.86-32.609a3.627 3.627 0 0 1 3.628 3.629v1.28a31.01 31.01 0 0 0-7.131-2.225A3.624 3.624 0 0 1 37.47 7.68Zm7.485 12.065-1.47 2.936a.423.423 0 0 1-.515.21l-4.228-1.471a.424.424 0 0 1-.282-.418l.133-2.83a.592.592 0 0 0-.324-.555c-3.335-1.68-8.44-2.564-11.784-2.568-3.318.004-8.421.887-11.756 2.568a.59.59 0 0 0-.324.555l.133 2.83a.42.42 0 0 1-.283.418l-4.229 1.472a.422.422 0 0 1-.516-.21l-1.468-2.937a3.447 3.447 0 0 1 1.287-4.481c4.978-2.977 10.43-4.365 17.182-4.369 6.726.004 12.177 1.392 17.155 4.369a3.447 3.447 0 0 1 1.287 4.481h.002Z" fill="#03A9F4"/></svg>