<svg width="53" height="53" fill="none" xmlns="http://www.w3.org/2000/svg"><path d="m42.964 14.748-8.02-8.034a.78.78 0 0 0-.51-.214H15.253c-2.631 0-4.753 2.137-4.753 4.786v30.428c0 2.65 2.122 4.786 4.753 4.786h23.17c2.631 0 4.753-2.137 4.753-4.786v-26.41c0-.214-.085-.385-.212-.556Zm-2.334-.214h-3.99c-.805 0-1.484-.684-1.484-1.495V9.02l5.474 5.513Zm-2.207 30.428h-23.17a3.28 3.28 0 0 1-3.268-3.291V11.244c0-1.795 1.443-3.291 3.268-3.291H33.67v5.043a2.99 2.99 0 0 0 2.97 2.991h5.05v25.641c0 1.838-1.484 3.29-3.267 3.334Z" fill="#03A9F4"/><path d="M37.277 34.919H16.4a.763.763 0 0 0-.764.769c0 .427.34.77.764.77h20.92a.763.763 0 0 0 .765-.77c0-.427-.382-.77-.807-.77ZM37.277 30.303H16.4a.763.763 0 0 0-.764.77c0 .427.34.769.764.769h20.92a.763.763 0 0 0 .765-.77c0-.427-.382-.769-.807-.769ZM37.277 25.73H16.4a.763.763 0 0 0-.764.77c0 .427.34.77.764.77h20.92a.763.763 0 0 0 .765-.77c0-.427-.382-.77-.807-.77ZM37.277 21.115H16.4a.763.763 0 0 0-.764.77c0 .427.34.769.764.769h20.92a.763.763 0 0 0 .765-.77c0-.427-.382-.769-.807-.769ZM16.399 17.996h13.325a.763.763 0 0 0 .764-.77c0-.427-.34-.769-.764-.769H16.399a.763.763 0 0 0-.764.77c0 .427.34.769.764.769ZM16.399 13.38h13.325a.763.763 0 0 0 .764-.769c0-.427-.34-.77-.764-.77H16.399a.763.763 0 0 0-.764.77c0 .428.34.77.764.77ZM37.277 39.534H16.4a.763.763 0 0 0-.764.77c0 .427.34.769.764.769h20.92a.763.763 0 0 0 .765-.77c0-.427-.382-.769-.807-.769Z" fill="#03A9F4"/></svg>