<svg width="53" height="53" fill="none" xmlns="http://www.w3.org/2000/svg"><path d="M25.346 36.14a.675.675 0 0 0-.945.145l-.084.114a.68.68 0 0 0 .545 1.081.674.674 0 0 0 .544-.275l.085-.116a.681.681 0 0 0-.145-.95Z" fill="#03A9F4"/><path d="m25.522 42.6-1.739-3.176 1.624-2.22a.68.68 0 0 0-.145-.95.674.674 0 0 0-.945.146l-1.88 2.57a.681.681 0 0 0-.047.73l1.947 3.554a.676.676 0 1 0 1.185-.654ZM30.563 38.97l-1.872-2.56a.674.674 0 0 0-1.201.238.681.681 0 0 0 .11.566l1.617 2.21-1.728 3.154a.683.683 0 0 0 .425.986.67.67 0 0 0 .76-.33l1.936-3.535a.681.681 0 0 0-.047-.729ZM31.634 28.299a.674.674 0 0 0-.698.042c-.402.278-.775.573-1.11.876-1.82 1.652-3.548 1.428-3.616 1.419a.654.654 0 0 0-.123-.008c-.72.018-2.017-.642-3.389-1.724-.21-.165-.425-.323-.64-.468a.674.674 0 0 0-.695-.037.68.68 0 0 0-.359.6v2.329a.68.68 0 0 0 .312.572l4.796 3.217.002.002.013.008a.674.674 0 0 0 .754-.005l.007-.004.008-.005 4.784-3.21a.68.68 0 0 0 .316-.575V28.9a.68.68 0 0 0-.361-.601Zm-.99 2.666-4.144 2.78-4.143-2.78v-.618c1.009.736 2.493 1.64 3.702 1.639h.008c.407.045 2.478.168 4.577-1.681v.66Z" fill="#03A9F4"/><path d="M27.167 34.45a.675.675 0 0 0-1.212-.29l-1.554 2.125a.68.68 0 0 0 .544 1.082.675.675 0 0 0 .546-.278l1.546-2.115a.68.68 0 0 0 .13-.524ZM36.803 12.558c-.013-.106-.33-2.402-2.482-3.307.062-.404.056-.922-.2-1.426-.342-.678-1.018-1.12-2.009-1.313a.671.671 0 0 0-.129-.012h-9.077c-3.686 0-6.685 3.01-6.685 6.712v3.576c0 .932.317 1.84.891 2.558.285.356.635.978.688 1.918a.676.676 0 0 0 1.352-.038v-4.663c.459-1.907 2.026-2.278 2.296-2.328h2.936a3.29 3.29 0 0 0 1.01-.158c.558-.18 1.443-.51 2.088-.756.432-.165.91-.171 1.345-.017l3.143 1.108a2.885 2.885 0 0 1 1.887 2.184v5.596a.677.677 0 0 0 1.345.1c.003-.017.273-1.768 1.144-3.17a3.053 3.053 0 0 0 .463-1.61v-4.868a.682.682 0 0 0-.006-.086Zm-1.347 4.954c0 .303-.085.604-.247.872V16.55a.691.691 0 0 0-.004-.073 4.231 4.231 0 0 0-2.773-3.342l-.009-.003-3.148-1.11a3.3 3.3 0 0 0-2.273.03c-.903.344-1.602.597-2.022.732-.19.061-.391.093-.596.093h-2.991a.683.683 0 0 0-.087.005c-.114.015-2.812.4-3.49 3.455a.682.682 0 0 0-.017.148v1.398a2.768 2.768 0 0 1-.225-1.095v-3.576c0-2.952 2.392-5.354 5.332-5.354h9.009c.373.08.826.244.998.577.21.407-.03.969-.03.97a.681.681 0 0 0 .454.948c1.722.416 2.073 2.074 2.119 2.342v4.817Z" fill="#03A9F4"/><path d="M35.205 16.477a4.231 4.231 0 0 0-2.773-3.342l-.009-.003-3.148-1.11a3.304 3.304 0 0 0-2.273.029 46.61 46.61 0 0 1-2.022.733c-.19.061-.391.092-.596.092h-2.991a.683.683 0 0 0-.087.006c-.114.015-2.812.4-3.49 3.455a.68.68 0 0 0-.017.148v5.853c.005.202.148 4.991 3.443 7.181l.017.012.043.03c.188.128.377.266.561.411.96.757 2.77 2.014 4.196 2.014h.008c.078.009.216.02.404.02.809 0 2.534-.213 4.263-1.782.29-.263.616-.52.97-.765l.05-.035.05-.035c1.1-.742 3.003-2.654 3.403-7.136a.681.681 0 0 0 .002-.06V16.55a.722.722 0 0 0-.004-.073Zm-1.348 5.684c-.369 4.045-2.085 5.613-2.807 6.1l-.076.053-.038.027c-.402.278-.775.573-1.11.876-1.813 1.646-3.536 1.43-3.62 1.418a.675.675 0 0 0-.12-.007c-.719.018-2.016-.642-3.388-1.724-.21-.165-.425-.323-.64-.468l-.016-.012a1.872 1.872 0 0 0-.051-.036c-2.66-1.767-2.834-5.903-2.84-6.075v-5.75c.462-1.914 2.038-2.281 2.296-2.328h2.937a3.29 3.29 0 0 0 1.01-.158c.558-.18 1.443-.51 2.088-.756.432-.165.91-.171 1.345-.017l3.143 1.108a2.885 2.885 0 0 1 1.887 2.184v5.566ZM27.105 34.258a.676.676 0 0 0-1.15-.098l-1.62 2.215a.681.681 0 0 0 .544 1.081.674.674 0 0 0 .545-.276l1.62-2.207a.705.705 0 0 0 .06-.715ZM27.148 45.191a.674.674 0 0 0-.945-.031l-.154.142a.68.68 0 0 0-.134.832l.004.008a.676.676 0 0 0 1.069.15l.15-.151a.68.68 0 0 0 .01-.95Z" fill="#03A9F4"/><path d="m26.951 45.301-.154-.142a.674.674 0 0 0-.945.032.681.681 0 0 0 .01.95l.15.15a.675.675 0 0 0 1.071-.153l.005-.009a.681.681 0 0 0-.137-.828Z" fill="#03A9F4"/><path d="M26.963 45.312a.674.674 0 0 0-.924-.002l-.002.002a.68.68 0 0 0-.021.983l.007.008a.673.673 0 0 0 .955-.002l.007-.007a.68.68 0 0 0-.022-.982ZM26.72 33.904a.68.68 0 1 0-.206 1.326.675.675 0 0 0 .677-.679v-.001a.678.678 0 0 0-.472-.646Z" fill="#03A9F4"/><path d="m27.05 34.154-.006-.008a.675.675 0 0 0-1.22.404v.011a.68.68 0 1 0 1.226-.407Z" fill="#03A9F4"/><path d="M34.545 32.02a.677.677 0 0 0-.404-.398l-2.593-.933a.674.674 0 0 0-.604.075l-4.805 3.223-.004.002.377.564-.385-.558a.679.679 0 0 0-.172.969l3.518 4.81a.675.675 0 0 0 1.137-.075l3.895-7.11a.68.68 0 0 0 .04-.568Zm-4.61 6.092-2.472-3.38 3.949-2.65 1.526.55-3.002 5.48Z" fill="#03A9F4"/><path d="M27.166 34.444a.68.68 0 0 0-.289-.447l-4.82-3.234a.675.675 0 0 0-.605-.074l-2.593.933a.677.677 0 0 0-.364.967l3.895 7.11a.676.676 0 0 0 1.138.075l1.88-2.57a.21.21 0 0 0 .004-.007l1.633-2.234a.681.681 0 0 0 .121-.519ZM24.317 36.4l-.005.006-1.248 1.707-3.002-5.481 1.526-.55 3.948 2.65-1.219 1.668ZM46.467 43.613l-.873-5.29a4.678 4.678 0 0 0-3.011-3.634l-8.44-3.066a.674.674 0 0 0-.735.187.681.681 0 0 0-.1.754l1.762 3.549-1.73.026a.676.676 0 0 0-.57.332.682.682 0 0 0-.018.663l.71 1.36-7.259 6.666a.714.714 0 0 0-.022.02l-.15.151a.681.681 0 0 0-.115.806l.006.01a.676.676 0 0 0 .593.353h17.513c.728 0 1.415-.32 1.885-.877.47-.557.673-1.29.554-2.01Zm-1.585 1.132a1.116 1.116 0 0 1-.853.397H28.226l6.532-6a.68.68 0 0 0 .143-.816l-.441-.846 1.705-.026a.676.676 0 0 0 .568-.326c.12-.2.13-.447.027-.656l-1.487-2.995 6.85 2.489a3.32 3.32 0 0 1 2.137 2.579l.873 5.29c.053.326-.038.658-.251.91Z" fill="#03A9F4"/><path d="m26.969 45.318-.008-.008a.674.674 0 0 0-.933.025l-.008.007a.681.681 0 0 0 .48 1.158h.015a.68.68 0 0 0 .454-1.182Z" fill="#03A9F4"/><path d="M26.948 45.298a.674.674 0 0 0-1.046.178l-.005.009a.681.681 0 0 0 .107.798l.003.003a.673.673 0 0 0 .942.03l.007-.007a.677.677 0 0 0 .149-.198.689.689 0 0 0-.157-.813Z" fill="#03A9F4"/><path d="m26.977 45.34-.003-.004-.005-.005-.15-.15a.47.47 0 0 0-.022-.021l-7.258-6.667.71-1.36a.681.681 0 0 0-.59-.994l-1.729-.026 1.762-3.549a.681.681 0 0 0-.1-.754.674.674 0 0 0-.735-.187l-8.44 3.066a4.678 4.678 0 0 0-3.011 3.634l-.873 5.29c-.118.72.083 1.453.554 2.01.47.557 1.157.877 1.885.877H26.5a.681.681 0 0 0 .477-1.16Zm-18.005-.198a1.125 1.125 0 0 1-1.104-1.307l.872-5.29a3.32 3.32 0 0 1 2.137-2.58l6.85-2.488-1.486 2.995a.682.682 0 0 0 .594.982l1.706.026-.442.846a.68.68 0 0 0 .143.816l6.532 6H8.972Z" fill="#03A9F4"/><path d="M28.802 36.977a.68.68 0 0 0-.111-.567l-1.646-2.25a.673.673 0 0 0-1.111.037l-1.616 2.2a.681.681 0 0 0-.011.793l.688.992-.733 4.639a.682.682 0 0 0 .075.433l1.57 2.867a.676.676 0 0 0 1.186 0l1.582-2.888a.69.69 0 0 0 .075-.434l-.73-4.617.68-.981a.687.687 0 0 0 .102-.224ZM26.5 44.385l-.866-1.581.74-4.68a.68.68 0 0 0-.113-.494l-.567-.817.808-1.101.813 1.11-.56.808a.681.681 0 0 0-.113.495l.736 4.657-.878 1.603Z" fill="#03A9F4"/></svg>