<svg width="53" height="53" fill="none" xmlns="http://www.w3.org/2000/svg"><path d="M38.008 23.917a.91.91 0 0 0-.995 0l-3.28 1.87V13.19c0-.098 0-.492-.298-.689l-6.063-5.707a.912.912 0 0 0-.695-.295H9.68C7.89 6.5 6.5 7.878 6.5 9.649v27.257c0 1.771 1.49 3.149 3.18 3.149h7.157c.596 0 .994-.394.994-.984s-.398-.984-.994-.984H9.68c-.696 0-1.193-.59-1.193-1.181V9.649c0-.689.596-1.181 1.193-1.181h16.002v4.822c0 .59.397.984.994.984h5.069v12.693l-4.87 2.756h-3.28c-.895 0-1.69.393-2.287.885h-7.454c-.596 0-.994.394-.994.984s.398.984.994.984h6.361V37.3c0 1.87 1.491 3.345 3.38 3.345h3.28l10.137 5.707a.91.91 0 0 0 .995 0c.298-.196.496-.492.496-.885V24.803c0-.394-.198-.69-.496-.886ZM27.67 12.207v-2.46l2.584 2.46H27.67Zm8.846 31.587-8.846-5.018c-.2-.099-.299-.099-.497-.099h-3.48c-.794 0-1.39-.59-1.39-1.377v-4.33c0-.787.596-1.378 1.39-1.378h3.48c.198 0 .298 0 .497-.098l8.846-5.019v17.319ZM12.86 20.178c0-.59.398-.984.994-.984H26.28c.596 0 .994.393.994.984 0 .59-.398.984-.994.984H13.855c-.497 0-.994-.394-.994-.984Zm33.794 18.991a1.03 1.03 0 0 1-1.193.787c-.497-.098-.895-.689-.795-1.18.497-2.362.497-4.724-.1-7.085-.099-.492.2-1.083.696-1.181.497-.099 1.093.197 1.193.689.795 2.558.795 5.313.199 7.97Zm-3.777-7.281c.497 2.164.596 4.33.1 6.494a1.03 1.03 0 0 1-1.194.787c-.497-.098-.894-.689-.795-1.18.398-1.87.398-3.74-.1-5.61-.099-.491.2-1.082.697-1.18.596-.197 1.192.196 1.292.688ZM12.86 25.884c0-.59.398-.984.994-.984H26.28c.596 0 .994.394.994.984s-.398.984-.994.984H13.855c-.497 0-.994-.394-.994-.984Z" fill="#03A9F4"/></svg>