<svg width="60" height="60" fill="none" xmlns="http://www.w3.org/2000/svg"><path d="M20.421 46.29V22.604a1.976 1.976 0 0 0-1.974-1.973h-6.315a1.976 1.976 0 0 0-1.974 1.973V46.29c0 1.088.885 1.974 1.974 1.974h6.315a1.976 1.976 0 0 0 1.974-1.974Zm-9.474 0V22.604c0-.653.532-1.184 1.185-1.184h6.315c.653 0 1.185.531 1.185 1.184V46.29c0 .653-.532 1.185-1.185 1.185h-6.315a1.186 1.186 0 0 1-1.185-1.184ZM48.842 25.763V16.29a1.976 1.976 0 0 0-1.974-1.973h-3.157v.79h3.157c.653 0 1.185.53 1.185 1.184v9.473c0 .653-.532 1.184-1.185 1.184H24.763a1.186 1.186 0 0 1-1.184-1.184V16.29c0-.652.531-1.184 1.184-1.184h3.158v-.79h-3.158a1.976 1.976 0 0 0-1.974 1.975v9.473c0 1.088.885 1.974 1.974 1.974h22.105a1.976 1.976 0 0 0 1.974-1.974Z" fill="#03A9F4"/><path d="M24.368 16.29v9.473c0 .218.177.395.395.395h22.105a.395.395 0 0 0 .395-.395V16.29a.395.395 0 0 0-.395-.394h-3.315v.79h2.92v8.683H25.159v-8.684h2.929v-.79h-3.324a.395.395 0 0 0-.395.396Z" fill="#03A9F4"/><path d="M50.026 17.474v.79c.653 0 1.184.53 1.184 1.183v31.58c0 .652-.53 1.184-1.184 1.184H8.974a1.186 1.186 0 0 1-1.185-1.185V19.447c0-.652.532-1.184 1.185-1.184h12.631v-.79H8.974A1.976 1.976 0 0 0 7 19.448v31.58C7 52.113 7.885 53 8.974 53h41.052A1.976 1.976 0 0 0 52 51.026V19.447a1.976 1.976 0 0 0-1.974-1.973Z" fill="#03A9F4"/><path d="M29.105 31.29c0-.653-.531-1.185-1.184-1.185h-3.158c-.653 0-1.184.532-1.184 1.184v1.58c0 .652.531 1.184 1.184 1.184h3.158c.653 0 1.184-.532 1.184-1.185V31.29Zm-.79 1.578a.395.395 0 0 1-.394.395h-3.158a.395.395 0 0 1-.395-.395V31.29c0-.217.178-.394.395-.394h3.158c.217 0 .395.177.395.395v1.578ZM35.421 31.29c0-.653-.531-1.185-1.184-1.185h-3.158c-.653 0-1.184.532-1.184 1.184v1.58c0 .652.531 1.184 1.184 1.184h3.158c.653 0 1.184-.532 1.184-1.185V31.29Zm-.79 1.578a.395.395 0 0 1-.394.395h-3.158a.395.395 0 0 1-.395-.395V31.29c0-.217.178-.394.395-.394h3.158c.217 0 .395.177.395.395v1.578ZM41.737 31.29c0-.653-.532-1.185-1.184-1.185h-3.158c-.653 0-1.184.532-1.184 1.184v1.58c0 .652.53 1.184 1.184 1.184h3.158c.653 0 1.184-.532 1.184-1.185V31.29Zm-.79 1.578a.395.395 0 0 1-.394.395h-3.158a.395.395 0 0 1-.395-.395V31.29c0-.217.178-.394.395-.394h3.158c.217 0 .394.177.394.395v1.578ZM48.053 31.29c0-.653-.532-1.185-1.185-1.185h-3.157c-.653 0-1.185.532-1.185 1.184v1.58c0 .652.532 1.184 1.184 1.184h3.158c.653 0 1.185-.532 1.185-1.185V31.29Zm-.79 1.578a.395.395 0 0 1-.395.395h-3.157a.395.395 0 0 1-.395-.395V31.29c0-.217.177-.394.395-.394h3.157c.218 0 .395.177.395.395v1.578ZM29.105 36.026c0-.653-.531-1.184-1.184-1.184h-3.158c-.653 0-1.184.531-1.184 1.184v1.58c0 .652.531 1.183 1.184 1.183h3.158c.653 0 1.184-.53 1.184-1.184v-1.579Zm-.79 1.58a.395.395 0 0 1-.394.394h-3.158a.395.395 0 0 1-.395-.395v-1.579c0-.218.178-.394.395-.394h3.158c.217 0 .395.176.395.394v1.58ZM35.421 36.026c0-.653-.531-1.184-1.184-1.184h-3.158c-.653 0-1.184.531-1.184 1.184v1.58c0 .652.531 1.183 1.184 1.183h3.158c.653 0 1.184-.53 1.184-1.184v-1.579Zm-.79 1.58a.395.395 0 0 1-.394.394h-3.158a.395.395 0 0 1-.395-.395v-1.579c0-.218.178-.394.395-.394h3.158c.217 0 .395.176.395.394v1.58ZM41.737 36.026c0-.653-.532-1.184-1.184-1.184h-3.158c-.653 0-1.184.531-1.184 1.184v1.58c0 .652.53 1.183 1.184 1.183h3.158c.653 0 1.184-.53 1.184-1.184v-1.579Zm-.79 1.58a.395.395 0 0 1-.394.394h-3.158a.395.395 0 0 1-.395-.395v-1.579c0-.218.178-.394.395-.394h3.158c.217 0 .394.176.394.394v1.58ZM48.053 36.026c0-.653-.532-1.184-1.185-1.184h-3.157c-.653 0-1.185.531-1.185 1.184v1.58c0 .652.532 1.183 1.184 1.183h3.158c.653 0 1.185-.53 1.185-1.184v-1.579Zm-.79 1.58a.395.395 0 0 1-.395.394h-3.157a.395.395 0 0 1-.395-.395v-1.579c0-.218.177-.394.395-.394h3.157c.218 0 .395.176.395.394v1.58ZM29.105 40.763c0-.653-.531-1.184-1.184-1.184h-3.158c-.653 0-1.184.531-1.184 1.184v1.58c0 .652.531 1.183 1.184 1.183h3.158c.653 0 1.184-.531 1.184-1.184v-1.579Zm-.79 1.58a.395.395 0 0 1-.394.394h-3.158a.395.395 0 0 1-.395-.395v-1.579c0-.218.178-.395.395-.395h3.158c.217 0 .395.177.395.395v1.58ZM35.421 40.763c0-.653-.531-1.184-1.184-1.184h-3.158c-.653 0-1.184.531-1.184 1.184v1.58c0 .652.531 1.183 1.184 1.183h3.158c.653 0 1.184-.531 1.184-1.184v-1.579Zm-.79 1.58a.395.395 0 0 1-.394.394h-3.158a.395.395 0 0 1-.395-.395v-1.579c0-.218.178-.395.395-.395h3.158c.217 0 .395.177.395.395v1.58ZM41.737 40.763c0-.653-.532-1.184-1.184-1.184h-3.158c-.653 0-1.184.531-1.184 1.184v1.58c0 .652.53 1.183 1.184 1.183h3.158c.653 0 1.184-.531 1.184-1.184v-1.579Zm-.79 1.58a.395.395 0 0 1-.394.394h-3.158a.395.395 0 0 1-.395-.395v-1.579c0-.218.178-.395.395-.395h3.158c.217 0 .394.177.394.395v1.58ZM48.053 40.763c0-.653-.532-1.184-1.185-1.184h-3.157c-.653 0-1.185.531-1.185 1.184v1.58c0 .652.532 1.183 1.184 1.183h3.158c.653 0 1.185-.531 1.185-1.184v-1.579Zm-.79 1.58a.395.395 0 0 1-.395.394h-3.157a.395.395 0 0 1-.395-.395v-1.579c0-.218.177-.395.395-.395h3.157c.218 0 .395.177.395.395v1.58ZM27.921 44.316h-3.158c-.653 0-1.184.531-1.184 1.184v1.579c0 .653.531 1.184 1.184 1.184h3.158c.653 0 1.184-.531 1.184-1.184V45.5c0-.653-.531-1.184-1.184-1.184Zm.395 2.763a.395.395 0 0 1-.395.395h-3.158a.395.395 0 0 1-.395-.395V45.5c0-.218.178-.395.395-.395h3.158c.217 0 .395.177.395.395v1.579ZM34.237 44.316h-3.158c-.653 0-1.184.531-1.184 1.184v1.579c0 .653.531 1.184 1.184 1.184h3.158c.653 0 1.184-.531 1.184-1.184V45.5c0-.653-.531-1.184-1.184-1.184Zm.395 2.763a.395.395 0 0 1-.395.395h-3.158a.395.395 0 0 1-.395-.395V45.5c0-.218.178-.395.395-.395h3.158c.217 0 .395.177.395.395v1.579ZM40.553 44.316h-3.158c-.653 0-1.184.531-1.184 1.184v1.579c0 .653.53 1.184 1.184 1.184h3.158c.653 0 1.184-.531 1.184-1.184V45.5c0-.653-.532-1.184-1.184-1.184Zm.394 2.763a.395.395 0 0 1-.394.395h-3.158a.395.395 0 0 1-.395-.395V45.5c0-.218.178-.395.395-.395h3.158c.217 0 .394.177.394.395v1.579ZM46.868 44.316h-3.157c-.653 0-1.185.531-1.185 1.184v1.579c0 .653.532 1.184 1.184 1.184h3.158c.653 0 1.185-.531 1.185-1.184V45.5c0-.653-.532-1.184-1.185-1.184Zm.395 2.763a.395.395 0 0 1-.395.395h-3.157a.395.395 0 0 1-.395-.395V45.5c0-.218.177-.395.395-.395h3.157c.218 0 .395.177.395.395v1.579ZM35.816 8a6.712 6.712 0 0 0-6.71 6.71c0 3.284 2.372 6.04 5.526 6.608v.498c0 .653.53 1.184 1.184 1.184.653 0 1.184-.531 1.184-1.184v-.498c2.468-.444 4.601-2.26 5.317-4.933a6.908 6.908 0 0 0 .209-1.675c0-3.655-2.982-6.71-6.71-6.71Zm5.737 8.188c-.66 2.464-2.693 4.11-4.997 4.4a.394.394 0 0 0-.345.39v.838a.395.395 0 0 1-.79 0v-.837a.395.395 0 0 0-.345-.392c-2.916-.367-5.181-2.862-5.181-5.877 0-3.213 2.596-5.92 5.91-5.92 3.317 0 5.93 2.707 5.931 5.92 0 .484-.06.979-.183 1.478Z" fill="#03A9F4"/><path d="M35.816 9.579a5.138 5.138 0 0 0-5.132 5.131 5.138 5.138 0 0 0 5.132 5.132 5.138 5.138 0 0 0 5.131-5.131 5.138 5.138 0 0 0-5.131-5.132Zm3.863 3.158h-2.03c-.128-.857-.339-1.63-.634-2.197a4.36 4.36 0 0 1 2.664 2.197Zm.31 3.158h-2.25c.067-.81.067-1.558 0-2.369h2.25c.225.79.225 1.58 0 2.369Zm-4.173 3.158c-.294 0-.789-.829-1.035-2.369h2.07c-.246 1.54-.742 2.369-1.035 2.369Zm-1.13-3.158a12.764 12.764 0 0 1 0-2.369h2.259c.073.839.073 1.53 0 2.369h-2.258Zm-3.044-2.369h2.251c-.068.81-.068 1.558 0 2.369h-2.251a4.254 4.254 0 0 1 0-2.369Zm4.174-3.158c.293 0 .788.829 1.035 2.369h-2.07c.246-1.54.741-2.369 1.035-2.369Zm-1.2.172c-.294.567-.505 1.34-.633 2.197h-2.03a4.36 4.36 0 0 1 2.664-2.197Zm-2.663 6.144h2.03c.128.858.338 1.63.634 2.197a4.36 4.36 0 0 1-2.664-2.197Zm5.062 2.197c.295-.567.506-1.34.633-2.197h2.03a4.36 4.36 0 0 1-2.663 2.197ZM28.2 22.326l-.558.559.51.51-.51.51.559.559.51-.511.51.51.558-.558-.51-.51.51-.51-.558-.56-.51.512-.51-.511ZM32.378 22.326l-.51.51-.51-.51-.559.559.511.51-.51.51.558.559.51-.511.51.51.56-.558-.511-.51.51-.51-.559-.56ZM40.273 22.326l-.51.51-.51-.51-.559.559.511.51-.51.51.558.559.51-.511.51.51.56-.558-.512-.51.511-.51-.559-.56ZM43.431 22.326l-.51.51-.51-.51-.559.559.51.51-.51.51.56.559.51-.511.51.51.558-.558-.51-.51.51-.51-.559-.56ZM12.526 49.842h.79v.79h-.79v-.79ZM14.105 49.842h.79v.79h-.79v-.79ZM15.684 49.842h.79v.79h-.79v-.79ZM17.263 49.842h.79v.79h-.79v-.79Z" fill="#03A9F4"/></svg>