<svg width="28" height="28" fill="none" xmlns="http://www.w3.org/2000/svg"><path fill-rule="evenodd" clip-rule="evenodd" d="M14 28c7.732 0 14-6.268 14-14S21.732 0 14 0 0 6.268 0 14s6.268 14 14 14Z" fill="#00AEEF"/><path d="M15.999 13.066V9.333c0-1.107-.893-2-2-2-1.027 0-1.86.773-1.973 1.767l3.973 3.966Zm2.053.267a.56.56 0 0 0-.553.473 3.65 3.65 0 0 1-.147.62l.847.847c.2-.4.347-.833.42-1.293a.571.571 0 0 0-.567-.647Zm-9.58-4.96c-.26.26-.26.68 0 .94L12 12.846v.287c0 .793.4 1.547 1.087 1.94.5.287.94.293 1.346.207l1.107 1.106c-.473.22-1 .347-1.54.347-1.693 0-3.253-1.18-3.5-2.927a.56.56 0 0 0-.553-.473.571.571 0 0 0-.567.647c.307 1.973 1.973 3.533 3.953 3.833v1.52c0 .367.3.667.667.667.367 0 .667-.3.667-.667v-1.52c.606-.087 1.18-.3 1.7-.6l2.326 2.327a.664.664 0 1 0 .94-.94L9.412 8.373a.664.664 0 0 0-.94 0Z" fill="#fff"/></svg>