<svg width="28" height="28" fill="none" xmlns="http://www.w3.org/2000/svg"><path d="M27.75 14c0 7.594-6.156 13.75-13.75 13.75S.25 21.595.25 14 6.406.25 14 .25 27.75 6.406 27.75 14Z" fill="#E31010"/><path d="M27.75 14c0 7.594-6.156 13.75-13.75 13.75S.25 21.595.25 14 6.406.25 14 .25 27.75 6.406 27.75 14Z" stroke="url(#a)" stroke-width=".5"/><path d="M27.75 14c0 7.594-6.156 13.75-13.75 13.75S.25 21.595.25 14 6.406.25 14 .25 27.75 6.406 27.75 14Z" stroke="url(#b)" stroke-width=".5"/><g clip-path="url(#c)"><path d="m9.005 16.375 1.346-1.068c.324-.255.512-.645.512-1.055v-1.747a10.16 10.16 0 0 1 6.274 0v1.754c0 .41.189.8.512 1.055l1.34 1.061a1.35 1.35 0 0 0 1.79-.1l.822-.82c.538-.538.538-1.432-.034-1.936-4.315-3.803-10.818-3.803-15.134 0-.572.504-.572 1.398-.033 1.936l.821.82a1.341 1.341 0 0 0 1.784.1Z" fill="#fff"/></g><defs><linearGradient id="a" x1=".137" y1="0" x2=".137" y2="27.727" gradientUnits="userSpaceOnUse"><stop stop-opacity=".01"/><stop offset=".8" stop-opacity=".02"/><stop offset="1" stop-opacity=".04"/></linearGradient><linearGradient id="b" x1="0" y1="0" x2="0" y2="28" gradientUnits="userSpaceOnUse"><stop stop-color="#fff" stop-opacity=".12"/><stop offset=".2" stop-color="#fff" stop-opacity=".06"/><stop offset="1" stop-color="#fff" stop-opacity=".01"/></linearGradient><clipPath id="c"><path fill="#fff" transform="translate(6 6)" d="M0 0h16v16H0z"/></clipPath></defs></svg>