<svg width="28" height="28" fill="none" xmlns="http://www.w3.org/2000/svg"><path fill-rule="evenodd" clip-rule="evenodd" d="M14 28c7.732 0 14-6.268 14-14S21.732 0 14 0 0 6.268 0 14s6.268 14 14 14Z" fill="#818285"/><path d="m19.454 9.295.805.805c.15.151.452.05.402-.2V7.584c0-.151-.1-.252-.252-.252h-2.362c-.201 0-.352.252-.151.453l.804.805-3.015 3.018a.5.5 0 0 0 .704.709l3.065-3.023Z" fill="#fff"/><path fill-rule="evenodd" clip-rule="evenodd" d="M7.332 20.25v-6.086c0-.23.082-.427.245-.589a.816.816 0 0 1 .595-.242h6.32c.233 0 .432.08.595.242a.799.799 0 0 1 .245.59v4.67c0 .23-.082.427-.245.589a.815.815 0 0 1-.595.242h-5.56l-.88.87a.397.397 0 0 1-.46.095.38.38 0 0 1-.26-.381Zm1.332-5.084a.5.5 0 0 1 .5-.5h4.333a.5.5 0 0 1 0 1H9.164a.5.5 0 0 1-.5-.5Zm.5 1.834a.5.5 0 0 0 0 1h4.333a.5.5 0 0 0 0-1H9.164Z" fill="#fff"/></svg>