<svg width="70" height="70" fill="none" xmlns="http://www.w3.org/2000/svg"><g clip-path="url(#a)" fill="#03A9F4"><path d="M52.926 26.92H15.808a1.916 1.916 0 0 0-1.913 1.913v4.676c0 1.055.858 1.914 1.913 1.914h37.118a1.916 1.916 0 0 0 1.914-1.914v-4.676a1.916 1.916 0 0 0-1.914-1.913Zm-.137 6.452H15.945V28.97H52.79v4.4ZM64.55 56.373l-3.74-2.766a1.026 1.026 0 0 0-1.335.1l-1.678 1.678c-.31.31-.476.71-.498 1.118-.557-.155-.325-.024-5.023-4.722l-.066-.067a1.645 1.645 0 0 1-.421-.72 1.707 1.707 0 0 0 1.118-.5l1.678-1.677c.359-.36.401-.927.1-1.335-2.974-4.02-2.782-3.771-2.866-3.855a1.716 1.716 0 0 0-2.424 0l-.02.019a9.418 9.418 0 0 0-2.77 6.526l-.011.677c-.002.1-.01 2.465 2.07 4.543l4.235 4.236c1.412 1.412 3.251 2.07 4.548 2.07l.673-.012a9.419 9.419 0 0 0 6.526-2.77l.019-.019c.773-.774.582-2.006-.115-2.524Zm-6.466 3.262-.67.012c-.03 0-1.622-.026-3.065-1.469l-4.236-4.236c-1.443-1.443-1.468-3.009-1.469-3.061l.012-.673a7.372 7.372 0 0 1 1.913-4.842l1.94 2.625-.846.847a1.278 1.278 0 0 0-1.866.785 3.705 3.705 0 0 0 .962 3.54l4.368 4.37a3.706 3.706 0 0 0 3.542.962 1.277 1.277 0 0 0 .785-1.866l.847-.847 2.625 1.94a7.372 7.372 0 0 1-4.842 1.913Z"/><path d="M62.076 39.725v-2.732a1.025 1.025 0 1 0-2.05 0v1.917a14.42 14.42 0 0 0-4.146-.619H14.918a1.025 1.025 0 1 0 0 2.051h33.64a14.221 14.221 0 0 0-3.074 2.525H14.918a1.025 1.025 0 1 0 0 2.05h29c-.499.793-.92 1.638-1.255 2.525H14.918a1.025 1.025 0 1 0 0 2.051h27.145a14.104 14.104 0 0 0-.298 2.525H14.918a1.025 1.025 0 1 0 0 2.05h26.939a14.047 14.047 0 0 0 1.284 4.441H8.88c-.033 0-.08-.047-.08-.08V23.51h51.225v8.291a1.025 1.025 0 1 0 2.05 0V17.629a2.133 2.133 0 0 0-2.13-2.13h-4.617V5.855a2.133 2.133 0 0 0-2.132-2.13H2.132A2.134 2.134 0 0 0 0 5.855v40.802c0 1.175.956 2.13 2.131 2.13h4.617v9.642c0 1.175.956 2.13 2.132 2.13H44.36a14.092 14.092 0 0 0 8.72 5.694 1.025 1.025 0 1 0 .405-2.01c-5.67-1.14-9.676-6.17-9.676-11.832 0-6.655 5.414-12.07 12.07-12.07 6.624 0 12.07 5.387 12.07 12.07 0 5.729-4.07 10.705-9.677 11.832a1.026 1.026 0 0 0 .404 2.01C65.238 64.936 70 59.115 70 52.413c0-5.565-3.236-10.387-7.924-12.687ZM13.403 21.46H8.799v-3.832c0-.032.048-.08.08-.08h4.524v3.912Zm46.542-3.912c.033 0 .08.047.08.08v3.832H15.454v-3.912h44.491ZM8.705 5.776h44.492c.033 0 .08.047.08.08v3.832H8.705V5.776Zm-6.574 0h4.524v3.912H2.05c0-3.934-.045-3.912.08-3.912Zm4.617 11.852v29.11H2.131c-.033 0-.08-.047-.08-.08v-34.92h51.226v3.76H8.88a2.133 2.133 0 0 0-2.132 2.13Z"/></g><defs><clipPath id="a"><path fill="#fff" d="M0 0h70v70H0z"/></clipPath></defs></svg>