<svg width="28" height="28" fill="none" xmlns="http://www.w3.org/2000/svg"><path fill-rule="evenodd" clip-rule="evenodd" d="M14 28c7.732 0 14-6.268 14-14S21.732 0 14 0 0 6.268 0 14s6.268 14 14 14Z" fill="#818285"/><path d="m15.189 18.215-1.369-1.331c.043-.099.077-.212.103-.338.025-.127.037-.261.037-.402 0-.536-.19-.99-.57-1.363a1.913 1.913 0 0 0-1.391-.56c-.13 0-.257.012-.383.037-.126.024-.25.058-.371.1l-1.057-1.036c.295-.12.59-.206.884-.258.294-.053.603-.08.927-.08 1.027 0 1.95.262 2.77.787a4.967 4.967 0 0 1 1.843 2.077.796.796 0 0 1 .053.296.823.823 0 0 1-.053.296 4.814 4.814 0 0 1-1.423 1.775Zm-.194 2.325-1.476-1.437a4.837 4.837 0 0 1-.755.169 5.51 5.51 0 0 1-.765.053c-1.028 0-1.95-.266-2.77-.798a5.03 5.03 0 0 1-1.843-2.087 1.389 1.389 0 0 1-.038-.138.749.749 0 0 1-.016-.158c0-.056.004-.11.01-.164a.343.343 0 0 1 .044-.132 4.61 4.61 0 0 1 .523-.85c.205-.265.433-.506.684-.724l-.862-.856a.438.438 0 0 1-.135-.312.387.387 0 0 1 .135-.312.437.437 0 0 1 .318-.127c.126 0 .231.042.318.127l7.264 7.133c.086.085.13.187.13.307s-.044.222-.13.306a.437.437 0 0 1-.318.127.436.436 0 0 1-.318-.127Zm-2.996-2.473a2.2 2.2 0 0 0 .42-.042l-2.328-2.282c-.014.07-.027.137-.037.2-.011.064-.017.13-.017.2 0 .536.19.99.571 1.364.381.374.845.56 1.39.56Zm1.164-1.828L11.9 15.002c.367-.035.676.078.928.339.25.26.362.56.334.898ZM19.454 9.295l.805.805c.15.151.452.05.402-.2V7.584c0-.151-.1-.252-.252-.252h-2.362c-.201 0-.352.252-.151.453l.804.805-3.015 3.018a.5.5 0 0 0 .704.709l3.065-3.023Z" fill="#fff"/></svg>