<svg width="70" height="70" fill="none" xmlns="http://www.w3.org/2000/svg"><path d="M65.909 5.163a1.03 1.03 0 1 0-1.953.65c.41 1.241.275 2.147.299 2.62H5.727v-.755c0-3.098 2.387-5.619 5.323-5.619h47.884c1.082 0 2.122.34 3.01.984a1.03 1.03 0 1 0 1.21-1.666A7.146 7.146 0 0 0 58.934 0H11.05C6.98 0 3.668 3.444 3.668 7.678V63.45c0 1.409.424 2.751 1.227 3.881.2.283.518.434.84.434.816 0 1.33-.934.84-1.625a4.613 4.613 0 0 1-.848-2.69V10.492h58.528v52.954c0 2.473-1.9 4.485-4.237 4.485-53.318-.017-50.089.054-50.73-.053a1.029 1.029 0 1 0-.343 2.03c.96.161-1.972.055 51.074.082 3.471 0 6.295-2.936 6.295-6.544-.138-58.458.327-56.088-.405-58.283Z" fill="#00AEEF"/><path d="M55.615 4.315H8.94a1.03 1.03 0 0 0 0 2.06h46.675a1.03 1.03 0 1 0 0-2.06ZM59.885 6.823a1.478 1.478 0 1 0 0-2.957 1.478 1.478 0 0 0 0 2.957ZM60.453 51.198H9.53a1.03 1.03 0 0 0 0 2.059h50.923a1.03 1.03 0 0 0 0-2.06ZM60.453 56.255H9.53a1.03 1.03 0 0 0 0 2.06h50.923a1.03 1.03 0 0 0 0-2.06ZM60.453 61.312H9.53a1.03 1.03 0 0 0 0 2.06h50.923a1.03 1.03 0 0 0 0-2.06ZM45.272 38.913l-1.331-2.133a3.201 3.201 0 0 0-2.73-1.513c-1.742 0-2.053 1.185-3.532 1.185-.872 0-1.666-.44-2.126-1.178-3.767-6.248-4.301-6.37-4.301-7.601 0-1.722 1.517-2.287 1.684-2.444a3.2 3.2 0 0 0 1.513-2.73c0-1.418-.825-2.067-1.82-3.834-1.602-2.569-5.357-2.554-6.944.045a10.913 10.913 0 0 0 .058 11.468l6.161 9.868a10.892 10.892 0 0 0 10.345 5.08c3.007-.3 4.61-3.666 3.023-6.213Zm-3.227 4.164a8.846 8.846 0 0 1-8.395-4.12l-6.16-9.869a8.854 8.854 0 0 1-.046-9.306c.775-1.27 2.632-1.319 3.439-.026 1.227 2.06 1.507 2.185 1.507 2.743 0 .407-.206.776-.545.984-.131.129-2.652 1.212-2.652 4.19 0 .852.239 1.687.693 2.412l3.92 6.28c1.362 2.182 4.192 2.764 6.287 1.453.392-.213.63-.492 1.117-.492.402 0 .77.203.983.545l1.333 2.134c.786 1.265-.012 2.925-1.481 3.072Z" fill="#00AEEF"/><path d="m60.232 33.28.895-.856c1.66-1.587 1-4.406-1.237-5.059l-7.193-2.099V20.36a6.803 6.803 0 0 0-6.796-6.795H24.077c-3.144 0-5.93 2.228-6.628 5.296a1.03 1.03 0 0 0 2.007.457c.487-2.14 2.43-3.694 4.62-3.694h21.825a4.741 4.741 0 0 1 4.736 4.736v4.305c-.723-.19-1.097-.383-1.746-.383a3.004 3.004 0 0 0-3.002 3c0 .645-.023.145 2.597 10.991a3.006 3.006 0 0 0 2.151 2.193v1.102a4.741 4.741 0 0 1-4.736 4.736H24.077a4.741 4.741 0 0 1-4.737-4.736v-18.37a1.03 1.03 0 1 0-2.059 0v18.37a6.803 6.803 0 0 0 6.796 6.796H45.9a6.803 6.803 0 0 0 6.796-6.796V40.28c.671-.318.926-.715 1.685-1.403l1.05 1.098c2.183 2.284 6.054 1.29 6.846-1.792.717-2.812-1.541-4.24-2.046-4.901Zm-.501 5.334a1.988 1.988 0 0 1-2.81-.063l-1.763-1.843a1.03 1.03 0 0 0-1.455-.031c-1.698 1.623-1.782 1.831-2.286 1.831a.961.961 0 0 1-.78-.392c-.199-.277-.008.146-2.66-10.601a.949.949 0 0 1 1.19-1.134l10.147 2.96a.948.948 0 0 1 .388 1.596l-1.637 1.57a1.03 1.03 0 0 0-.032 1.454l1.761 1.84c.73.764.757 2.026-.063 2.813Z" fill="#00AEEF"/></svg>