<svg width="70" height="70" fill="none" xmlns="http://www.w3.org/2000/svg"><g clip-path="url(#a)" fill="#03A9F4"><path d="M8.905 4.28A3.249 3.249 0 0 0 5.66 7.525a3.248 3.248 0 0 0 3.245 3.244 3.248 3.248 0 0 0 3.245-3.245A3.248 3.248 0 0 0 8.904 4.28Zm0 4.418a1.175 1.175 0 0 1-1.174-1.174c0-.647.527-1.173 1.174-1.173.647 0 1.173.526 1.173 1.173s-.526 1.174-1.173 1.174ZM17.604 4.28a3.249 3.249 0 0 0-3.245 3.245 3.248 3.248 0 0 0 3.245 3.244 3.248 3.248 0 0 0 3.245-3.244 3.248 3.248 0 0 0-3.245-3.245Zm0 4.418a1.175 1.175 0 0 1-1.174-1.174 1.175 1.175 0 0 1 2.347 0c0 .647-.526 1.174-1.173 1.174ZM26.303 4.28a3.248 3.248 0 0 0-3.244 3.245 3.248 3.248 0 0 0 3.244 3.244 3.248 3.248 0 0 0 3.244-3.244 3.248 3.248 0 0 0-3.244-3.245Zm0 4.418a1.175 1.175 0 0 1 0-2.347c.647 0 1.174.526 1.174 1.173s-.527 1.174-1.174 1.174Z"/><path d="M66.203 0H3.797A3.8 3.8 0 0 0 0 3.797v45.7a3.8 3.8 0 0 0 3.797 3.797h6.68c-.318.406-.29.994.084 1.368l4.975 4.975c-.372.765-.699 1.553-.976 2.355H7.524c-.571 0-1.035.463-1.035 1.035v5.938c0 .571.464 1.035 1.035 1.035h20.434c.572 0 1.036-.464 1.036-1.035 0-3.16 2.57-5.73 5.73-5.73 3.159 0 5.73 2.57 5.73 5.73 0 .571.463 1.035 1.035 1.035h20.434c.572 0 1.035-.464 1.035-1.035v-5.938c0-.572-.463-1.035-1.035-1.035h-7.035a21.229 21.229 0 0 0-.977-2.355l4.976-4.975c.373-.374.4-.962.084-1.368h7.232a3.8 3.8 0 0 0 3.796-3.797V23.88a1.035 1.035 0 1 0-2.07 0v25.617c0 .952-.775 1.725-1.726 1.725h-9.291l-6.103-6.103v-7.082c0-.572-.465-1.035-1.036-1.035H47.91V30.62l1.461-1.35c.294-.27.406-.686.287-1.067l-2.485-8.008a1.036 1.036 0 0 0-.989-.729h-2.761c-.454 0-.855.296-.99.729l-2.485 8.008c-.118.38-.006.796.287 1.068l1.462 1.349V37h-1.864c-.572 0-1.035.464-1.035 1.036v2.692H30.65v-1.572l3.976-3.977c.195-.194.304-.458.304-.732v-8.492c0-.276-.111-.542-.309-.736L29.1 19.766a1.036 1.036 0 0 0-1.763.737v9.23l-2.692 1.696-2.693-1.695v-.59a1.035 1.035 0 1 0-2.07 0v1.161c0 .356.182.687.483.877l3.728 2.347c.337.212.766.212 1.103 0l3.728-2.348c.301-.19.484-.52.484-.876V22.98l3.451 3.409v7.63l-3.976 3.976a1.036 1.036 0 0 0-.303.733v2.022a1.036 1.036 0 0 0-.829 1.015V48.8c-.803.277-1.59.604-2.355.976L20.71 45.09v-6.362c0-.275-.11-.539-.304-.733l-3.976-3.977v-7.63l3.451-3.408v1.314a1.035 1.035 0 1 0 2.071 0v-3.791a1.034 1.034 0 0 0-1.763-.737l-5.523 5.454c-.197.194-.307.46-.307.736v8.492c0 .274.109.538.303.732l3.977 3.977v5.962l-6.104 6.103H3.797a1.727 1.727 0 0 1-1.726-1.725V15.049H67.93v4.007a1.035 1.035 0 0 0 2.071 0V3.796A3.8 3.8 0 0 0 66.203 0Zm-22.77 29.407-1.313-1.214 2.065-6.655h1.235l2.066 6.655-1.315 1.214a1.036 1.036 0 0 0-.333.76v6.835h-2.07v-6.834c0-.29-.122-.565-.334-.761Zm5.305 9.666v6.017l-4.687 4.687a21.364 21.364 0 0 0-2.355-.977v-7.035c0-.5-.356-.918-.828-1.014v-1.678h7.87ZM25.683 51.955a19.184 19.184 0 0 1 3.407-1.413c.435-.133.732-.535.732-.99V42.8h9.803v6.752c0 .455.298.857.733.99 1.174.358 2.32.834 3.406 1.413.403.214.897.14 1.22-.182l4.775-4.775 5.991 5.992.001.001.94.939-4.776 4.775a1.036 1.036 0 0 0-.181 1.219 19.144 19.144 0 0 1 1.412 3.406c.133.435.535.733.99.733h6.751v3.866H50.36c-.535-8.16-7.342-14.635-15.635-14.635-2.217 0-4.36.454-6.37 1.35a1.036 1.036 0 0 0 .842 1.891 13.496 13.496 0 0 1 5.528-1.17c7.15 0 13.03 5.547 13.56 12.564h-5.828c-.508-3.813-3.782-6.765-7.732-6.765s-7.224 2.952-7.732 6.765h-5.83c.252-3.4 1.743-6.525 4.261-8.887a1.036 1.036 0 0 0-1.416-1.51 15.737 15.737 0 0 0-4.918 10.397H8.56v-3.866h6.752c.455 0 .858-.298.99-.733.359-1.174.834-2.32 1.413-3.406.214-.402.14-.897-.181-1.22l-4.775-4.774.938-.939h.002l5.991-5.993 4.775 4.775c.322.322.817.396 1.22.182ZM2.071 12.978V3.797c0-.952.774-1.726 1.726-1.726h62.406c.952 0 1.726.774 1.726 1.726v9.181H2.07Z"/></g><defs><clipPath id="a"><path fill="#fff" d="M0 0h70v70H0z"/></clipPath></defs></svg>