<svg width="28" height="28" fill="none" xmlns="http://www.w3.org/2000/svg"><path fill-rule="evenodd" clip-rule="evenodd" d="M14 28c7.732 0 14-6.268 14-14S21.732 0 14 0 0 6.268 0 14s6.268 14 14 14Z" fill="#818285"/><path d="M14.001 21.334c-.366 0-.68-.13-.941-.392a1.284 1.284 0 0 1-.392-.942c0-.366.13-.68.392-.942.26-.26.575-.391.941-.391.367 0 .681.13.942.391.261.262.392.576.392.942 0 .367-.13.681-.392.942-.261.261-.575.392-.942.392Zm-4-12c-.366 0-.68-.131-.941-.392A1.282 1.282 0 0 1 8.668 8c0-.366.13-.68.392-.942.26-.26.575-.391.941-.391.367 0 .68.13.942.391.261.262.392.576.392.942 0 .367-.131.68-.392.942-.261.261-.575.392-.942.392Zm0 4c-.366 0-.68-.131-.941-.392A1.282 1.282 0 0 1 8.668 12c0-.366.13-.68.392-.942.26-.26.575-.391.941-.391.367 0 .68.13.942.391.261.262.392.576.392.942 0 .367-.131.68-.392.942-.261.261-.575.392-.942.392Zm0 4c-.366 0-.68-.13-.941-.392A1.284 1.284 0 0 1 8.668 16c0-.366.13-.68.392-.942.26-.26.575-.391.941-.391.367 0 .68.13.942.391.261.262.392.576.392.942 0 .367-.131.681-.392.942-.261.261-.575.392-.942.392Zm8-8c-.366 0-.68-.131-.942-.392A1.283 1.283 0 0 1 16.668 8c0-.366.13-.68.391-.942.262-.26.576-.391.942-.391.367 0 .681.13.942.391.261.262.392.576.392.942 0 .367-.13.68-.392.942a1.284 1.284 0 0 1-.942.392Zm-4 8c-.366 0-.68-.13-.941-.392a1.284 1.284 0 0 1-.392-.942c0-.366.13-.68.392-.942.26-.26.575-.391.941-.391.367 0 .681.13.942.391.261.262.392.576.392.942 0 .367-.13.681-.392.942-.261.261-.575.392-.942.392Zm4 0c-.366 0-.68-.13-.942-.392a1.285 1.285 0 0 1-.391-.942c0-.366.13-.68.391-.942.262-.26.576-.391.942-.391.367 0 .681.13.942.391.261.262.392.576.392.942 0 .367-.13.681-.392.942-.261.261-.575.392-.942.392Zm0-4c-.366 0-.68-.131-.942-.392a1.283 1.283 0 0 1-.391-.942c0-.366.13-.68.391-.942.262-.26.576-.391.942-.391.367 0 .681.13.942.391.261.262.392.576.392.942 0 .367-.13.68-.392.942a1.284 1.284 0 0 1-.942.392Zm-4 0c-.366 0-.68-.131-.941-.392a1.282 1.282 0 0 1-.392-.942c0-.366.13-.68.392-.942.26-.26.575-.391.941-.391.367 0 .681.13.942.391.261.262.392.576.392.942 0 .367-.13.68-.392.942a1.284 1.284 0 0 1-.942.392Zm0-4c-.366 0-.68-.131-.941-.392A1.282 1.282 0 0 1 12.668 8c0-.366.13-.68.392-.942.26-.26.575-.391.941-.391.367 0 .681.13.942.391.261.262.392.576.392.942 0 .367-.13.68-.392.942a1.284 1.284 0 0 1-.942.392Z" fill="#fff"/></svg>