<?xml version="1.0" encoding="utf-8"?><svg viewBox="0 0 70 70" xmlns="http://www.w3.org/2000/svg" xmlns:xlink="http://www.w3.org/1999/xlink"><style>:root>svg{display:none}:root>svg:target{display:block}</style><svg viewBox="0 0 19 19" id="agent" xmlns="http://www.w3.org/2000/svg"><path fill-rule="evenodd" clip-rule="evenodd" d="M18.82 15.152v1.737A2.101 2.101 0 0 1 16.73 19C7.49 19 0 11.439 0 2.111A2.1 2.1 0 0 1 2.091 0h1.721c.855 0 1.624.526 1.942 1.327l.85 2.147a2.12 2.12 0 0 1-1.006 2.672l-.37.187s.523 2.64 2.614 4.75c2.09 2.111 4.705 2.64 4.705 2.64l.185-.374a2.083 2.083 0 0 1 2.647-1.016l2.127.858a2.111 2.111 0 0 1 1.314 1.96Zm-1.568-13.04a2.101 2.101 0 0 1-2.091 2.11 2.101 2.101 0 0 1-2.091-2.11A2.1 2.1 0 0 1 15.16 0c1.156 0 2.092.945 2.092 2.111Zm-.314 3.166c1.04 0 1.882.85 1.882 1.9 0 .7-.562 1.266-1.255 1.266h-4.81a1.26 1.26 0 0 1-1.254-1.266c0-1.05.843-1.9 1.882-1.9h3.555Z"/></svg><svg viewBox="0 0 24 24" id="api" xmlns="http://www.w3.org/2000/svg"><path d="m22.831 14.54-.83-.478c.14-.692.21-1.384.21-2.062 0-.688-.069-1.381-.206-2.064l.826-.476c.256-.147.439-.385.515-.67a1.095 1.095 0 0 0-.11-.838l-2.26-3.904a1.098 1.098 0 0 0-.67-.515 1.101 1.101 0 0 0-.84.11l-.827.477a10.59 10.59 0 0 0-3.582-2.068v-.948C15.057.495 14.561 0 13.951 0H9.433c-.61 0-1.106.495-1.106 1.104v.948a10.59 10.59 0 0 0-3.577 2.07l-.831-.478a1.1 1.1 0 0 0-.84-.11 1.099 1.099 0 0 0-.671.514L.148 7.952a1.094 1.094 0 0 0-.11.838 1.1 1.1 0 0 0 .515.67l.83.478c-.14.691-.21 1.384-.21 2.062 0 .688.07 1.38.207 2.064l-.826.476c-.529.304-.71.98-.405 1.508l2.259 3.904c.305.527.982.709 1.51.404l.827-.476a10.59 10.59 0 0 0 3.582 2.068v.948c0 .609.496 1.104 1.106 1.104h4.518c.61 0 1.106-.495 1.106-1.104v-.948a10.589 10.589 0 0 0 3.577-2.07l.832.478a1.109 1.109 0 0 0 1.51-.404l2.26-3.904a1.104 1.104 0 0 0-.405-1.508Zm-.206 1.155-2.26 3.905a.4.4 0 0 1-.546.146l-1.054-.607a.354.354 0 0 0-.416.047 9.864 9.864 0 0 1-3.749 2.17.352.352 0 0 0-.248.336v1.204a.4.4 0 0 1-.4.4h-4.52a.4.4 0 0 1-.4-.4v-1.204c0-.155-.1-.291-.248-.337a9.867 9.867 0 0 1-3.754-2.167.353.353 0 0 0-.416-.046l-1.05.604a.4.4 0 0 1-.546-.146L.76 15.695a.4.4 0 0 1 .147-.545l1.048-.604a.352.352 0 0 0 .168-.382A9.828 9.828 0 0 1 1.879 12c0-.71.083-1.436.247-2.162a.352.352 0 0 0-.168-.382L.907 8.85a.397.397 0 0 1-.147-.545L3.02 4.4a.398.398 0 0 1 .547-.146l1.053.607a.353.353 0 0 0 .416-.047 9.865 9.865 0 0 1 3.749-2.17.352.352 0 0 0 .248-.336V1.104c0-.22.18-.4.4-.4h4.518a.4.4 0 0 1 .4.4v1.204c0 .155.101.291.25.337a9.866 9.866 0 0 1 3.753 2.167.354.354 0 0 0 .416.046l1.049-.604a.398.398 0 0 1 .547.146l2.259 3.905a.396.396 0 0 1-.147.545l-1.048.604a.352.352 0 0 0-.168.382c.162.715.244 1.442.244 2.164 0 .71-.084 1.436-.247 2.162a.352.352 0 0 0 .167.382l1.052.606a.4.4 0 0 1 .147.545Z"/><path d="M11.692 4.885c-3.931 0-7.13 3.192-7.13 7.115 0 3.924 3.199 7.116 7.13 7.116 3.932 0 7.13-3.192 7.13-7.116 0-3.923-3.198-7.115-7.13-7.115Zm0 13.526c-3.542 0-6.424-2.876-6.424-6.411 0-3.535 2.882-6.411 6.424-6.411 3.543 0 6.425 2.876 6.425 6.411 0 3.535-2.882 6.411-6.425 6.411Z"/><path d="M13.01 10.145h-1.318a.353.353 0 0 0-.353.352v3.006a.353.353 0 0 0 .706 0v-.775h.965c.714 0 1.294-.58 1.294-1.292 0-.712-.58-1.291-1.294-1.291Zm0 1.879h-.965v-1.175h.965c.325 0 .588.264.588.587a.588.588 0 0 1-.588.588Zm-3.246-1.651a.353.353 0 0 0-.33-.228h-.377a.353.353 0 0 0-.33.228l-1.13 3.006a.352.352 0 1 0 .66.248l.197-.523h1.582l.196.523a.353.353 0 0 0 .661-.248l-1.13-3.006ZM8.719 12.4l.526-1.4.526 1.4H8.719Zm6.362-2.255a.353.353 0 0 0-.353.352v3.006a.353.353 0 0 0 .706 0v-3.006a.353.353 0 0 0-.353-.352ZM14.217 4.1a8.3 8.3 0 0 1 .726.27.352.352 0 1 0 .277-.65 9.008 9.008 0 0 0-.788-.291.353.353 0 0 0-.215.671ZM4.395 15.964a.353.353 0 0 0-.62.338c.147.268.309.531.482.783a.353.353 0 0 0 .582-.399 8.335 8.335 0 0 1-.444-.722Zm6.575 4.295a8.324 8.324 0 0 1-5.056-2.304.353.353 0 0 0-.491.506 9.032 9.032 0 0 0 5.517 2.5.353.353 0 0 0 .03-.702ZM16.772 4.57a.352.352 0 1 0-.398.582 8.3 8.3 0 0 1 3.34 4.685.353.353 0 0 0 .681-.183 9.005 9.005 0 0 0-3.623-5.085Z"/></svg><svg viewBox="0 0 16 20" id="audio" xmlns="http://www.w3.org/2000/svg"><path d="M15.65 6.1c-.099-.2-.198-.5-.396-.6L10.5.7c-.198-.2-.396-.3-.595-.4-.297-.3-.594-.3-.792-.3H1.981C1.486 0 .991.2.594.6.198 1 0 1.5 0 2v16c0 .5.198 1 .594 1.4.397.4.892.6 1.387.6h11.886c.496 0 .991-.2 1.387-.6.396-.4.595-.9.595-1.4V6.8c0-.2 0-.5-.199-.7Zm-4.754 7.7c0 .3-.1.5-.396.6-.297.1-.496.1-.694-.1L7.627 12h-1.98c-.199 0-.298-.1-.496-.2-.1-.1-.198-.2-.198-.4V8.7c0-.2.099-.4.198-.5.099-.2.297-.2.495-.2h1.981l2.18-2.2c.197-.2.495-.3.693-.1.297 0 .396.2.396.5v7.6Z"/></svg><svg viewBox="0 0 20 20" id="black-list" xmlns="http://www.w3.org/2000/svg"><path d="M9.271 0h1.26c.36 0 .72.09.99.181 1.89.362 3.51 1.086 4.95 2.443 2.161 1.9 3.241 4.344 3.331 7.24.09 2.263-.54 4.254-1.89 6.064-1.98 2.624-4.59 3.982-7.83 4.072-2.071-.09-3.961-.634-5.581-1.72C2.16 16.652.72 14.48.18 11.675c-.09-.362-.09-.724-.18-1.086V9.141C.18 7.24.81 5.52 1.89 4.071 3.51 1.991 5.58.633 8.191.181c.36-.09.72-.09 1.08-.181Zm.36 2.353c-1.35 0-2.7.452-4.05 1.357-.18.09-.09.181 0 .272l10.26 10.317c.09.09.18.09.27 0 1.171-1.72 1.531-3.53 1.261-5.52-.63-3.802-3.78-6.426-7.74-6.426Zm-7.29 7.42c0 .544 0 .996.09 1.449.9 5.43 7.2 8.144 11.7 4.977.18-.09.18-.18 0-.271-3.33-3.44-6.75-6.878-10.17-10.317-.18-.181-.18-.09-.27 0-.9 1.357-1.35 2.805-1.35 4.163Z"/></svg><svg viewBox="0 0 19 20" id="calendar" xmlns="http://www.w3.org/2000/svg"><path d="M4.703 11.4c-.283 0-.47-.095-.659-.284a.866.866 0 0 1-.282-.665c0-.286.094-.476.282-.666.188-.19.376-.285.659-.285.282 0 .47.095.658.285.189.19.283.38.283.665a.866.866 0 0 1-.283.666c-.188.19-.376.284-.658.284Zm0 3.8c-.283 0-.47-.096-.659-.286a.866.866 0 0 1-.282-.665c0-.285.094-.475.282-.665.188-.19.376-.285.659-.285.282 0 .47.095.658.285.189.19.283.38.283.665a.866.866 0 0 1-.283.665c-.188.19-.376.285-.658.285Zm12.706-3.326c-.941-.95-2.07-1.425-3.294-1.425-1.223 0-2.446.476-3.293 1.425-.941.95-1.412 2.09-1.412 3.325 0 1.236.47 2.47 1.412 3.325.94.95 2.07 1.425 3.293 1.425 1.224 0 2.447-.475 3.294-1.425.94-.95 1.411-2.09 1.411-3.325 0-1.235-.47-2.47-1.411-3.325ZM15.997 17.1c-.094.096-.188.096-.376.096-.094 0-.282 0-.282-.096l-1.412-1.425c-.094-.095-.188-.19-.188-.284 0-.096-.094-.286-.094-.38v-2.185c0-.095 0-.285.188-.285.094-.095.188-.19.282-.19.094 0 .283 0 .283.19.094.095.188.19.188.285v2.184l1.411 1.425c.094.095.094.19.094.285.095.19 0 .285-.094.38Z"/><path d="M1.882 17.1V7.6h13.174v1.045a6.202 6.202 0 0 1 1.882.57V3.8c0-.475-.188-.95-.564-1.33a1.85 1.85 0 0 0-1.318-.57h-.94V.95a.866.866 0 0 0-.283-.665C13.645.095 13.456 0 13.174 0c-.282 0-.47.095-.659.285a.866.866 0 0 0-.282.665v.95H4.705V.95a.866.866 0 0 0-.282-.665C4.235.095 4.046 0 3.764 0c-.282 0-.47.095-.659.285a.866.866 0 0 0-.282.665v.95h-.941c-.47 0-.941.19-1.317.57C.188 2.85 0 3.325 0 3.8v13.3c0 .475.188.95.565 1.33.376.38.847.57 1.317.57h6.775c-.376-.57-.752-1.235-.94-1.9H1.881Z"/><path d="M8.468 11.4c-.282 0-.47-.095-.658-.284a.866.866 0 0 1-.283-.665c0-.286.094-.476.283-.666.188-.19.376-.285.658-.285.283 0 .47.095.66.285a.87.87 0 0 1 .281.665.866.866 0 0 1-.282.666c-.188.19-.376.284-.659.284Z"/></svg><svg viewBox="0 0 22 22" id="call-phone" xmlns="http://www.w3.org/2000/svg"><path d="M10.534 19.294H3.423c-.593 0-.79-.198-.79-.725v-2.831c.066-1.185.395-2.305.922-3.358.395-.725.922-1.383 1.448-1.976.527-.592 1.054-1.12 1.58-1.712.198-.197.396-.263.593-.263h.988c.132 0 .132 0 .132-.132v-.658a.59.59 0 0 1 .592-.593c.33 0 .593.197.593.593v.658c0 .132 0 .132.132.132h1.646c.132 0 .132-.066.132-.132v-.593c0-.395.263-.658.592-.658.33 0 .593.263.593.658v.593c0 .132.066.132.131.132h.988a.75.75 0 0 1 .527.197c.724.79 1.449 1.515 2.173 2.305.988 1.185 1.646 2.568 1.844 4.083.131.987.066 1.975.066 2.963v.592c0 .461-.264.659-.725.659-2.239.066-4.675.066-7.045.066Zm0-2.173a3.091 3.091 0 0 0 3.095-3.095c0-1.712-1.382-3.16-3.095-3.095a3.091 3.091 0 0 0-3.094 3.095 3.091 3.091 0 0 0 3.094 3.095Z"/><path d="M12.444 14.026a1.91 1.91 0 0 1-3.82 0 1.91 1.91 0 0 1 1.91-1.91c1.054-.065 1.91.857 1.91 1.91ZM5.6 7.44l1.317-1.053c.329-.264.527-.659.527-1.054V3.621a9.944 9.944 0 0 1 6.19 0v1.712c0 .395.197.79.526 1.054l1.317 1.053c.527.395 1.317.395 1.778-.131l.79-.79c.527-.527.527-1.45-.066-1.91C13.765.856 7.312.856 3.098 4.609c-.593.46-.593 1.383-.066 1.91l.79.79c.46.46 1.251.526 1.778.131Z"/></svg><svg viewBox="0 0 20 21" id="calling-number" xmlns="http://www.w3.org/2000/svg"><path d="M11.035 9.224c-.09-.091-.181-.183-.181-.274-.09-.091-.09-.183-.09-.365v-5.48L9.767 4.11c-.18.182-.362.274-.633.274s-.452-.092-.633-.274a.833.833 0 0 1-.272-.64.83.83 0 0 1 .272-.639L11.035.274c.18-.183.362-.274.633-.274s.452.091.633.274l2.533 2.557a.833.833 0 0 1 .271.64c0 .273-.09.456-.27.639-.182.182-.363.274-.634.274s-.452-.092-.633-.274l-.995-1.005v4.566h6.332c.271 0 .452.092.633.274.181.183.271.366.271.64s-.09.456-.27.639c-.182.182-.363.274-.634.274h-7.237c-.09 0-.271 0-.362-.091-.09 0-.18-.092-.271-.183Zm4.253 10.868c-1.9 0-3.8-.457-5.7-1.279-1.808-.913-3.527-2.009-4.884-3.47-1.447-1.461-2.533-3.105-3.438-4.932C.362 8.585 0 6.667 0 4.658c0-.274.09-.548.271-.73.09-.183.362-.275.634-.275h3.709c.18 0 .361.092.542.183.181.091.181.365.272.548L5.97 7.58v.548c0 .183-.09.366-.271.457l-2.171 2.283c.633 1.096 1.447 2.1 2.352 3.105a11.885 11.885 0 0 0 3.166 2.466l2.08-2.192c.091-.091.272-.274.543-.274.181-.091.453-.091.634-.091l3.166.639c.18 0 .362.183.543.274.18.183.18.365.18.548v3.836c0 .274-.09.456-.27.73-.182.091-.363.183-.634.183Z"/></svg><svg viewBox="0 0 20 20" id="campaigns" xmlns="http://www.w3.org/2000/svg"><g clip-path="url(#aha)"><path d="M18.337 15.413c-1.037 1.037-2.279 1.816-3.726 2.338a12.99 12.99 0 0 1-4.449.784c-1.52 0-3.002-.26-4.45-.784-1.446-.522-2.688-1.301-3.725-2.338a.694.694 0 0 1-.217-.507.69.69 0 0 1 .217-.506l1.953-1.954a.655.655 0 0 1 .41-.192.6.6 0 0 1 .434.12l2.002 1.375c.129.096.229.2.301.313a.7.7 0 0 1 .109.386l.024 2.34a11.33 11.33 0 0 0 2.894.361c1.013 0 2.01-.12 2.99-.362V14.52c0-.144.04-.293.12-.446.081-.153.186-.277.314-.373l2.002-1.327a.694.694 0 0 1 .44-.115.623.623 0 0 1 .404.188l1.953 1.953a.694.694 0 0 1 .217.506.694.694 0 0 1-.217.507Zm-7.918-3.908c-.21.308-.583.346-.703.308-.119-.039-.246-.257-.246-.436l.415-3.667h-.908a.468.468 0 0 1-.351-.147.506.506 0 0 1-.142-.365l.986-5.13s.047-.267.141-.365a.469.469 0 0 1 .352-.147h2.686c.18 0 .32.077.419.23.098.155.11.317.037.488l-1.353 3.898h.798a.47.47 0 0 1 .431.256.482.482 0 0 1 0 .513l-2.562 4.564Z"/></g><defs><clipPath id="aha"><path transform="translate(.703 .777)" d="M0 0h18.672v18.672H0z"/></clipPath></defs></svg><svg viewBox="0 0 19 19" id="complete" xmlns="http://www.w3.org/2000/svg"><g clip-path="url(#aia)"><path d="m13.982 12.479-1.804-.217a1.197 1.197 0 0 0-1.155.433l-1.3 1.3C7.632 12.983 5.9 11.323 4.889 9.23l1.3-1.3c.288-.288.432-.72.432-1.154l-.216-1.804c-.072-.722-.722-1.3-1.444-1.3l-1.226-.071c-.794 0-1.516.65-1.444 1.515.361 6.135 5.34 11.114 11.475 11.475.794.072 1.516-.65 1.516-1.443v-1.227c0-.722-.578-1.371-1.3-1.444Zm2.381-9.599 1.155 1.155c.216.216.65.072.577-.289V.426c0-.216-.144-.36-.36-.36h-3.393c-.288 0-.505.36-.216.649l1.155 1.155-4.836 4.835 1.01 1.01 4.908-4.835Z"/></g><defs><clipPath id="aia"><path d="M0 0h18.31v18.31H0z"/></clipPath></defs></svg><svg viewBox="0 0 70 70" id="crm-phone" xmlns="http://www.w3.org/2000/svg"><mask id="aja" maskUnits="userSpaceOnUse" x="0" y="0" width="70" height="70"><path d="M0 0h70v70H0V0Z"/></mask><g mask="url(#aja)" stroke-width="2.5" stroke-miterlimit="10" stroke-linecap="round" stroke-linejoin="round"><path d="M48.348 35.414a2.733 2.733 0 0 1-.274-2.08c1.193-4.45-1.458-9.042-5.909-10.235a2.74 2.74 0 0 1 1.419-5.295c7.37 1.975 11.76 9.578 9.785 16.95a2.74 2.74 0 0 1-5.02.66Z"/><path d="M59.067 38.285a2.733 2.733 0 0 1-.274-2.08c2.776-10.362-3.395-21.05-13.757-23.827a2.74 2.74 0 1 1 1.419-5.295c13.281 3.559 21.192 17.26 17.633 30.541a2.74 2.74 0 0 1-5.021.661Zm-40.455 11.97 4.593 7.956c5.754 9.966 18.497 13.38 28.463 7.627l1.892-1.092a5.214 5.214 0 0 0 1.908-7.122l-5.335-9.24a5.214 5.214 0 0 0-7.122-1.91l-5.567 3.215a2.5 2.5 0 0 1-3.416-.916L21.495 27.066a2.5 2.5 0 0 1 .915-3.416l5.567-3.214a5.214 5.214 0 0 0 1.909-7.122l-5.392-9.34a5.214 5.214 0 0 0-7.122-1.907L15.48 3.158C5.514 8.912 2.1 21.656 7.854 31.621L12.46 39.6m9.95-15.95L12.258 6.067M37.445 49.69l10.051 17.408"/></g></svg><svg viewBox="0 0 24 24" id="data" xmlns="http://www.w3.org/2000/svg"><path d="M14.25 9.375a1.126 1.126 0 0 0-1.125-1.125h-4.5A1.126 1.126 0 0 0 7.5 9.375v.75c0 .278.105.545.293.75a1.116 1.116 0 0 0-.293.75v.75c0 .278.105.545.293.75a1.116 1.116 0 0 0-.293.75v.75a1.126 1.126 0 0 0 1.125 1.125h4.5a1.126 1.126 0 0 0 1.125-1.125v-.75a1.11 1.11 0 0 0-.293-.75c.188-.205.292-.472.293-.75v-.75a1.11 1.11 0 0 0-.293-.75c.188-.205.292-.472.293-.75v-.75Zm-.75 5.25a.375.375 0 0 1-.375.375h-4.5a.375.375 0 0 1-.375-.375v-.75a.376.376 0 0 1 .375-.375h4.5a.375.375 0 0 1 .375.375v.75Zm0-2.25a.375.375 0 0 1-.375.375h-4.5a.375.375 0 0 1-.375-.375v-.75a.376.376 0 0 1 .375-.375h4.5a.375.375 0 0 1 .375.375v.75Zm0-2.25a.375.375 0 0 1-.375.375h-4.5a.375.375 0 0 1-.375-.375v-.75A.375.375 0 0 1 8.625 9h4.5a.376.376 0 0 1 .375.375v.75Z"/><path d="M8.625 9.375h.75v.75h-.75v-.75Zm1.5 0h3v.75h-3v-.75Zm-1.5 2.25h.75v.75h-.75v-.75Zm1.5 0h3v.75h-3v-.75Zm-1.5 2.25h.75v.75h-.75v-.75Zm1.5 0h3v.75h-3v-.75Z"/><path d="M10.531 4.8a7.2 7.2 0 1 0 6.143 10.959l-.64-.392a6.45 6.45 0 1 1 .17-6.438l.66-.357a7.2 7.2 0 0 0-6.333-3.771Z"/><path d="M18.439 16.722a.57.57 0 0 1-.08-.67l-.665-.346a1.316 1.316 0 0 0 .215 1.546l.228.229a9.37 9.37 0 0 1-2.124 2.124l-.228-.229a1.316 1.316 0 0 0-1.547-.215c-.406.211-.83.387-1.266.526a1.316 1.316 0 0 0-.939 1.244v.32a9.216 9.216 0 0 1-3.004 0v-.32a1.316 1.316 0 0 0-.939-1.244 8.023 8.023 0 0 1-1.266-.526 1.317 1.317 0 0 0-1.546.215l-.228.229a9.361 9.361 0 0 1-2.124-2.125l.228-.228a1.316 1.316 0 0 0 .215-1.546 8.034 8.034 0 0 1-.526-1.266 1.316 1.316 0 0 0-1.244-.94h-.32a9.188 9.188 0 0 1 0-3.003h.32a1.316 1.316 0 0 0 1.244-.94c.139-.435.315-.859.526-1.265a1.316 1.316 0 0 0-.215-1.546l-.228-.228A9.362 9.362 0 0 1 5.05 4.393l.228.229a1.315 1.315 0 0 0 1.546.215A8.03 8.03 0 0 1 8.09 4.31a1.316 1.316 0 0 0 .94-1.244v-.32a9.229 9.229 0 0 1 3.003 0v.32a1.316 1.316 0 0 0 .94 1.244c.435.139.86.315 1.265.526a1.317 1.317 0 0 0 1.547-.215l.228-.229a9.364 9.364 0 0 1 2.124 2.125l-.228.228a1.316 1.316 0 0 0-.215 1.546l.665-.346a.57.57 0 0 1 .08-.67l.45-.45a.375.375 0 0 0 .046-.475 10.13 10.13 0 0 0-2.756-2.756.374.374 0 0 0-.475.046l-.45.45a.569.569 0 0 1-.67.08 8.825 8.825 0 0 0-1.385-.575.562.562 0 0 1-.416-.53v-.632a.376.376 0 0 0-.303-.368 10.057 10.057 0 0 0-3.898 0 .375.375 0 0 0-.303.368v.633a.562.562 0 0 1-.416.529 8.82 8.82 0 0 0-1.385.575.568.568 0 0 1-.67-.08l-.45-.45a.374.374 0 0 0-.474-.046A10.124 10.124 0 0 0 2.127 6.35a.375.375 0 0 0 .046.475l.45.45a.563.563 0 0 1 .08.67 8.77 8.77 0 0 0-.575 1.385.562.562 0 0 1-.529.416H.966a.375.375 0 0 0-.368.303 10 10 0 0 0 0 3.898.375.375 0 0 0 .368.303h.633a.562.562 0 0 1 .53.416c.151.477.344.94.574 1.385a.563.563 0 0 1-.08.67l-.45.45a.375.375 0 0 0-.046.475 10.124 10.124 0 0 0 2.757 2.756.374.374 0 0 0 .474-.046l.45-.45a.57.57 0 0 1 .67-.08c.445.23.908.423 1.385.575a.562.562 0 0 1 .416.53v.633a.375.375 0 0 0 .303.368c1.287.255 2.611.255 3.898 0a.375.375 0 0 0 .303-.369v-.633a.562.562 0 0 1 .417-.529 8.76 8.76 0 0 0 1.384-.575.57.57 0 0 1 .67.08l.45.45a.374.374 0 0 0 .475.046 10.124 10.124 0 0 0 2.756-2.756.375.375 0 0 0-.046-.475l-.45-.45Z"/><path d="M22.5 13.875a1.123 1.123 0 0 0-1.056.75h-.618l-.639-.958a.374.374 0 0 0-.312-.167H17.25v.75h2.424l.639.958a.374.374 0 0 0 .312.167h.82a1.123 1.123 0 1 0 1.055-1.5Zm0 1.5a.375.375 0 1 1 0-.75.375.375 0 0 1 0 .75Zm-.75-2.25a1.125 1.125 0 1 0-1.056-1.5h-5.319v.75h5.32a1.123 1.123 0 0 0 1.055.75Zm0-1.5a.375.375 0 1 1 0 .75.375.375 0 0 1 0-.75Zm.75-3.75a1.123 1.123 0 0 0-1.056.75h-.819a.375.375 0 0 0-.312.167l-.639.958H17.25v.75h2.625a.374.374 0 0 0 .312-.167l.639-.958h.618a1.123 1.123 0 1 0 1.056-1.5Zm0 1.5a.375.375 0 1 1 0-.75.375.375 0 0 1 0 .75ZM15.75 13.5h.75v.75h-.75v-.75Zm0-3.75h.75v.75h-.75v-.75Z"/></svg><svg viewBox="0 0 16 16" id="dev" xmlns="http://www.w3.org/2000/svg"><path d="M4.5 2.001a2.5 2.5 0 0 0-2.5 2.5v6a2.5 2.5 0 0 0 2.5 2.5h4.281c.033-.216.105-.43.221-.63l.214-.37H4.5a1.5 1.5 0 0 1-1.5-1.5V5h9v1.194a2.926 2.926 0 0 1 1-.204V4.5A2.5 2.5 0 0 0 10.5 2l-6 .001ZM3.084 4a1.5 1.5 0 0 1 1.415-1h6a1.5 1.5 0 0 1 1.414 1H3.084Zm7.332 3.71L8.854 6.146a.5.5 0 0 0-.707.707L9.793 8.5l-1.646 1.646a.5.5 0 1 0 .707.707l1.368-1.368a2.898 2.898 0 0 1 .194-1.777v.002ZM6.853 6.146a.5.5 0 0 1 0 .707L5.207 8.501l1.646 1.646a.5.5 0 1 1-.707.707l-2-2a.5.5 0 0 1 0-.707l2-2a.5.5 0 0 1 .707-.001ZM12.52 8.58l.9-1.56a1.91 1.91 0 0 0-1.902 2.992l-1.651 2.86a.796.796 0 0 0 1.378.795l1.655-2.865a1.91 1.91 0 0 0 1.623-3.144l-.9 1.559a.637.637 0 1 1-1.103-.637Z"/></svg><svg viewBox="0 0 22 22" id="ear" xmlns="http://www.w3.org/2000/svg"><path d="M2.766 14.289a.598.598 0 0 1-.461-.198c-.33-.263-.263-.658 0-.922.46-.395.658-.922.658-1.514 0-.593-.263-1.12-.658-1.515a.705.705 0 0 1-.066-.922.705.705 0 0 1 .922-.065c.724.658 1.12 1.514 1.12 2.436 0 .922-.396 1.844-1.12 2.436-.132.264-.263.264-.395.264Zm2.238.658a.598.598 0 0 1-.461-.197c-.264-.264-.198-.659.066-.922.592-.593.987-1.317.987-2.173 0-.856-.329-1.58-.987-2.173a.705.705 0 0 1-.066-.922.705.705 0 0 1 .922-.066c.921.79 1.382 1.91 1.382 3.095 0 1.185-.526 2.305-1.382 3.095-.132.263-.33.263-.461.263Zm8.628-12.972C9.878 1.71 8.43 7.308 8.43 11.062c0 5.004.066 7.967 2.897 8.033 2.502.066 7.375-4.214 7.638-9.35.264-5.005-2.502-7.573-5.333-7.77Zm1.58 13.038a.748.748 0 0 1-.527.197c-.197 0-.329-.066-.527-.197-.263-.264-.263-.725 0-1.054 1.778-1.91 2.042-5.4 1.12-7.375-.461-.988-1.12-1.514-1.976-1.449-.131 0-.46.066-.79.461-.197.264-.395.659-.527 1.383 1.515.395 2.437 1.646 2.371 3.358-.066 2.108-1.58 4.742-3.49 4.939H10.8a.771.771 0 0 1-.724-.593c-.395-2.238-.461-3.358.197-3.885.264-.197.659-.329 1.317 0 .33.198.527.593.33.988-.132.264-.461.461-.725.395 0 .264 0 .725.132 1.449.856-.593 1.58-1.976 1.58-3.227 0-.922-.329-1.514-.987-1.778v.132c.066.395-.264.724-.659.79-.395.066-.724-.263-.79-.658-.132-1.844.132-3.227.922-4.083.46-.527 1.053-.856 1.712-.922 1.448-.131 2.7.725 3.424 2.24 1.185 2.304.922 6.518-1.317 8.889Z"/></svg><svg viewBox="0 0 24 24" id="excel" xmlns="http://www.w3.org/2000/svg"><g clip-path="url(#ana)"><path d="M22.127 17.02a.352.352 0 0 0 .351-.35V4.743a.353.353 0 0 0-.103-.249L17.983.103A.354.354 0 0 0 17.735 0H7.062C6.283 0 5.65.634 5.65 1.412v.795h-.794c-.78 0-1.413.633-1.413 1.412v2.404a.352.352 0 0 0 .703 0V3.619a.71.71 0 0 1 .71-.71h.794v6.503H4.146V7.663a.352.352 0 0 0-.703 0v1.749h-.935a.99.99 0 0 0-.988.988v5.088a.99.99 0 0 0 .988.988h.935v6.112c0 .778.634 1.412 1.413 1.412h14.003c.779 0 1.413-.634 1.413-1.412v-.794h.794c.779 0 1.412-.634 1.412-1.413V18.31a.352.352 0 1 0-.703 0v2.071a.71.71 0 0 1-.71.71H7.063a.71.71 0 0 1-.71-.71v-3.905H7.76v2.08c0 .452.368.82.82.82h10.97c.452 0 .82-.368.82-.82V5.095h1.406V16.67c0 .194.158.352.352.352ZM18.634 4.374a.71.71 0 0 1-.548-.69V1.2l3.192 3.192c-2.588 0-2.51.007-2.644-.02ZM6.353 1.413a.71.71 0 0 1 .71-.71h10.32v2.98c0 .2.042.39.117.561H8.58a.821.821 0 0 0-.821.82v4.348H6.353v-8Zm6.078 15.063h1.715a.994.994 0 0 0 .947-.707h.604v1.1H12.43v-.393Zm1.715-7.064h-1.715v-.857h3.266v1.1h-.902a.997.997 0 0 0-.649-.243Zm-5.684 0v-.857h3.266v.857H8.462Zm3.969-4.464h3.266v1.1H12.43v-1.1Zm7.235 4.707H16.4v-1.1h3.266v1.1Zm0 1.804H16.4v-1.1h3.266v1.1Zm0 1.803H16.4v-1.1h3.266v1.1Zm0 1.804H16.4v-1.1h3.266v1.1ZM8.462 6.75h3.266v1.1H8.462v-1.1Zm3.969 0h3.266v1.1H12.43v-1.1Zm2.703 5.41h.563v1.101h-.563v-1.1Zm.563-.702h-.563v-1.1h.563v1.1Zm-.563 2.506h.563v1.1h-.563v-1.1Zm-3.406-7.917H8.462v-.983c0-.065.053-.118.117-.118h3.149v1.101Zm4.672 9.721h3.266v1.1H16.4v-1.1Zm3.266-7.917H16.4v-1.1h3.266v1.1ZM2.223 15.488V10.4c0-.157.127-.285.285-.285h11.638c.155 0 .285.127.285.285v5.088a.285.285 0 0 1-.285.285H2.508a.285.285 0 0 1-.285-.285Zm4.84 6.305h12.506v.795a.71.71 0 0 1-.71.709H4.856a.71.71 0 0 1-.71-.71v-6.111H5.65v3.905c0 .779.633 1.412 1.412 1.412Zm4.665-5.317v.393H8.462v-.393h3.266Zm-3.266 2.08v-.983h3.266v1.1H8.579a.117.117 0 0 1-.117-.117Zm3.969-.983h3.266v1.1H12.43v-1.1Zm7.235.983a.117.117 0 0 1-.117.117H16.4v-1.1h3.266v.983Zm0-13.46v.952H16.4v-1.1h1.765c.35.18.639.152 1.5.148Z"/><path d="M7.765 14.796c.074.013.747.007 1.117.005a.351.351 0 0 0-.002-.703h-.002l-.702.002v-2.665a.352.352 0 0 0-.703 0v3.014c0 .172.123.318.292.347Zm3.731.007c.624 0 1.147-.396 1.245-.943.073-.41-.115-.947-.86-1.222a16.144 16.144 0 0 1-.827-.334c-.152-.119-.116-.398.172-.484.439-.133.842.187.854.196a.351.351 0 0 0 .45-.54c-.027-.023-.696-.574-1.506-.33-.407.123-.695.443-.751.836-.065.453.21.837.465.95.017.008.432.193.899.365.138.051.455.196.411.44-.031.178-.247.363-.552.363-.306 0-.602-.124-.79-.331a.352.352 0 0 0-.521.472c.32.352.81.563 1.311.563Zm-7.666-.149.85-1.207.85 1.207a.352.352 0 0 0 .575-.404l-.994-1.413.844-1.199a.352.352 0 0 0-.575-.405l-.699.993-.698-.993a.352.352 0 1 0-.575.405l.843 1.198-.995 1.413a.352.352 0 0 0 .574.405Z"/></g><defs><clipPath id="ana"><path d="M0 0h24v24H0z"/></clipPath></defs></svg><svg viewBox="0 0 21 21" id="fast_start" xmlns="http://www.w3.org/2000/svg"><path fill-rule="evenodd" clip-rule="evenodd" d="M7.954 5.318a.638.638 0 0 1-.47-.19.637.637 0 0 1-.19-.47.64.64 0 0 1 .19-.469.64.64 0 0 1 .47-.189h5.27c.188 0 .344.063.47.19.126.126.19.282.19.469a.636.636 0 0 1-.19.47.636.636 0 0 1-.47.189h-5.27ZM5.977 7.295a.64.64 0 0 1-.47-.19.64.64 0 0 1-.19-.47.64.64 0 0 1 .19-.47.64.64 0 0 1 .47-.188h9.225c.186 0 .343.063.469.189a.64.64 0 0 1 .19.47.638.638 0 0 1-.19.47.637.637 0 0 1-.47.189H5.978Zm-.66 9.883c-.362 0-.672-.129-.93-.386A1.27 1.27 0 0 1 4 15.86V9.27c0-.362.13-.672.387-.93.258-.259.568-.387.93-.387h10.544c.362 0 .672.128.93.386.258.259.387.569.387.931v6.59c0 .362-.129.672-.386.93a1.27 1.27 0 0 1-.931.387H5.318Zm8.567-1.317c0-.989-.078-1.51-.659-1.977-.58-.467-1.96-.659-2.636-.659-.674 0-2.055.192-2.635.659-.58.467-.66.988-.66 1.977h6.59Zm-3.295-3.954a1.318 1.318 0 1 0 0-2.636 1.318 1.318 0 0 0 0 2.636Z"/></svg><svg viewBox="0 0 20 20" id="file" xmlns="http://www.w3.org/2000/svg"><rect width="19.768" height="19.768" rx="2.636"/><g clip-path="url(#apa)"><path d="M14.757 6.852 11.594 3.69a1.3 1.3 0 0 0-.923-.395H5.927c-.725 0-1.318.593-1.318 1.318v10.543c0 .724.593 1.317 1.318 1.317h7.907c.725 0 1.318-.593 1.318-1.318v-7.38a1.3 1.3 0 0 0-.395-.922Zm-6.721 5.14h1.186v-1.977a.66.66 0 0 1 .659-.659.66.66 0 0 1 .659.659v1.977h1.186c.263 0 .461.33.263.593l-1.845 1.845a.318.318 0 0 1-.46 0l-1.846-1.845c-.263-.198-.066-.593.198-.593Zm3.163-4.086c-.396 0-.66-.263-.66-.659V4.282l3.625 3.624h-2.965Z"/></g><defs><clipPath id="apa"><path transform="translate(1.977 1.977)" d="M0 0h15.814v15.814H0z"/></clipPath></defs></svg><svg viewBox="0 0 28 28" id="globe" xmlns="http://www.w3.org/2000/svg"><path d="M13.999 25.666c6.443 0 11.666-5.223 11.666-11.666 0-6.444-5.223-11.667-11.666-11.667C7.555 2.333 2.332 7.556 2.332 14c0 6.443 5.223 11.666 11.667 11.666ZM2.332 14h23.333"/><path d="M13.999 2.333A17.85 17.85 0 0 1 18.665 14 17.85 17.85 0 0 1 14 25.666 17.85 17.85 0 0 1 9.332 14a17.85 17.85 0 0 1 4.667-11.667Z"/></svg><svg viewBox="0 0 21 13" id="group" xmlns="http://www.w3.org/2000/svg"><path d="M0 11.927c.19-.48.286-.962.476-1.443C1.62 8.08 4.192 6.733 6.86 7.022c2.572.288 4.764 2.212 5.43 4.809.096.577-.095.866-.666.866H.857c-.38 0-.666-.097-.762-.481C0 12.119 0 12.023 0 11.927Zm20.958-5.002c-.095.385-.381.481-.762.481h-2.287c-.095 0-.19 0-.19-.096-.477-.962-1.144-1.732-2.096-2.309l-.096-.096c.381-.288.763-.48 1.239-.48 1.81-.386 3.43.48 4.192 2.212v.288ZM6.19 0a2.88 2.88 0 0 1 2.86 2.886c0 1.539-1.239 2.885-2.859 2.885a2.88 2.88 0 0 1-2.858-2.885C3.332 1.25 4.571 0 6.19 0Zm3.146 6.445c.381-.289.762-.577 1.143-.77a4.596 4.596 0 0 1 6.193 2.79c.19.577-.095.962-.667.962h-3.24c-.19 0-.19 0-.285-.193-.762-1.154-1.715-2.116-2.954-2.693 0 0-.095-.096-.19-.096Zm1.051-4.425c0-1.154.857-2.02 2-2.02 1.144 0 2.001.962 2.001 2.02 0 1.154-.953 2.02-2 2.02-1.144 0-2.001-.866-2.001-2.02Zm7.141 1.058a1.512 1.512 0 0 1-1.524-1.539C16.004.673 16.67 0 17.528 0s1.525.673 1.525 1.539c0 .866-.667 1.539-1.525 1.539Z"/></svg><svg viewBox="0 0 17 23" id="ivr" xmlns="http://www.w3.org/2000/svg"><path d="M8.42 23c-.632 0-1.053-.21-1.474-.627-.42-.419-.631-.837-.631-1.464s.21-1.045.631-1.463c.421-.419.842-.628 1.474-.628.631 0 1.052.21 1.473.627.421.419.631.837.631 1.464s-.21 1.046-.631 1.464c-.421.418-.842.627-1.473.627ZM2.105 4.182c-.526 0-1.053-.21-1.474-.627A2.057 2.057 0 0 1 0 2.09C0 1.568.21 1.045.631.627A2.085 2.085 0 0 1 2.105 0c.526 0 1.052.21 1.473.627.421.418.632.941.632 1.464S4 3.136 3.578 3.555a2.085 2.085 0 0 1-1.473.627Zm0 6.272A2.084 2.084 0 0 1 .63 9.827C.211 9.41 0 8.991 0 8.364 0 7.736.21 7.318.631 6.9a2.085 2.085 0 0 1 1.474-.627c.526 0 1.052.209 1.473.627.421.418.632.836.632 1.464 0 .627-.21 1.045-.632 1.463a2.084 2.084 0 0 1-1.473.627Zm0 6.273A2.087 2.087 0 0 1 .631 16.1C.211 15.682 0 15.264 0 14.636c0-.627.21-1.045.631-1.463a2.085 2.085 0 0 1 1.474-.627c.526 0 1.052.209 1.473.627.421.418.632.836.632 1.463 0 .628-.21 1.046-.632 1.464a2.085 2.085 0 0 1-1.473.627Zm12.63-12.545c-.632 0-1.053-.21-1.474-.627a2.057 2.057 0 0 1-.632-1.464c0-.523.21-1.046.632-1.464C13.68.21 14.103 0 14.734 0c.632 0 1.053.21 1.474.627.42.418.631.941.631 1.464s-.21 1.045-.631 1.464c-.421.418-.842.627-1.474.627ZM8.42 16.727c-.632 0-1.053-.209-1.474-.627-.42-.418-.631-.836-.631-1.464 0-.627.21-1.045.631-1.463.421-.418.842-.627 1.474-.627.631 0 1.052.209 1.473.627.421.418.631.836.631 1.463 0 .628-.21 1.046-.631 1.464-.421.418-.842.627-1.473.627Zm6.314 0c-.631 0-1.052-.209-1.473-.627-.421-.418-.632-.836-.632-1.464 0-.627.21-1.045.632-1.463.42-.418.842-.627 1.473-.627.632 0 1.053.209 1.474.627.42.418.631.836.631 1.463 0 .628-.21 1.046-.631 1.464-.421.418-.842.627-1.474.627Zm0-6.273c-.631 0-1.052-.209-1.473-.627-.421-.418-.632-.836-.632-1.463 0-.628.21-1.046.632-1.464.42-.418.842-.627 1.473-.627.632 0 1.053.209 1.474.627.42.418.631.836.631 1.464 0 .627-.21 1.045-.631 1.463-.421.418-.842.627-1.474.627Zm-6.314 0c-.632 0-1.053-.209-1.474-.627-.42-.418-.631-.836-.631-1.463 0-.628.21-1.046.631-1.464.421-.418.842-.627 1.474-.627.631 0 1.052.209 1.473.627.421.418.631.836.631 1.464 0 .627-.21 1.045-.631 1.463-.421.418-.842.627-1.473.627Zm0-6.272c-.632 0-1.053-.21-1.474-.627a2.057 2.057 0 0 1-.631-1.464c0-.523.21-1.046.631-1.464C7.367.21 7.788 0 8.42 0c.631 0 1.052.21 1.473.627.421.418.631.941.631 1.464s-.21 1.045-.631 1.464c-.421.418-.842.627-1.473.627Z"/></svg><svg viewBox="0 0 21 21" id="lightning" xmlns="http://www.w3.org/2000/svg"><path d="M9.73 17.045c-.295.434-.822.488-.99.434-.17-.054-.349-.362-.349-.615l.586-5.176H7.696a.66.66 0 0 1-.496-.208.715.715 0 0 1-.2-.516l1.391-7.24s.066-.378.2-.516A.661.661 0 0 1 9.087 3h3.792c.255 0 .452.11.59.326.14.218.158.447.053.688l-1.91 5.502h1.127c.267 0 .47.12.61.362a.68.68 0 0 1 0 .724L9.73 17.045Z"/></svg><svg viewBox="0 0 28 28" id="mail" xmlns="http://www.w3.org/2000/svg"><path d="M4.665 4.667h18.667A2.34 2.34 0 0 1 25.665 7v14a2.34 2.34 0 0 1-2.333 2.334H4.665A2.34 2.34 0 0 1 2.332 21V7a2.34 2.34 0 0 1 2.333-2.333Z"/><path d="M25.665 7 14 15.167 2.332 7"/></svg><svg viewBox="0 0 21 19" id="off-phone-panel" xmlns="http://www.w3.org/2000/svg"><path d="M5.904 12.616a16.413 16.413 0 0 1-3.692-9.364c-.072-1.12.89-2.05 2.045-2.05h1.77c1.033-.01 1.902.742 2.025 1.743l.297 2.517a1.936 1.936 0 0 1-.583 1.625L5.884 8.91c.42.802.92 1.575 1.483 2.289L18.628.289a1.042 1.042 0 0 1 1.443 0 .977.977 0 0 1 0 1.408L2.703 18.51a1.042 1.042 0 0 1-1.442 0 .965.965 0 0 1 0-1.397l4.643-4.498Zm6.72 2.823 1.893-1.833a2.076 2.076 0 0 1 1.677-.564l2.578.287c1.033.119 1.81.961 1.81 1.972v1.714a2 2 0 0 1-2.117 1.981 17.656 17.656 0 0 1-9.687-3.586l1.463-1.417c.747.545 1.545 1.03 2.383 1.446Z"/></svg><svg viewBox="0 0 15 15" id="overhear" xmlns="http://www.w3.org/2000/svg"><path d="M.75 3C.3 3 0 3.3 0 3.75v9.75c0 .825.675 1.5 1.5 1.5h9.75c.375 0 .75-.375.75-.75s-.375-.75-.75-.75h-9a.752.752 0 0 1-.75-.75v-9C1.5 3.3 1.2 3 .75 3ZM13.5 0h-9C3.675 0 3 .675 3 1.5v9c0 .825.675 1.5 1.5 1.5h9c.825 0 1.5-.675 1.5-1.5v-9c0-.825-.675-1.5-1.5-1.5ZM12 6.75H9.75V9c0 .375-.375.75-.75.75s-.75-.375-.75-.75V6.75H6c-.45 0-.75-.3-.75-.75s.3-.75.75-.75h2.25V3c0-.45.375-.75.75-.75s.75.3.75.75v2.25H12c.375 0 .75.3.75.75s-.375.75-.75.75Z"/></svg><svg viewBox="0 0 24 24" id="password" xmlns="http://www.w3.org/2000/svg"><path d="M12 17a2 2 0 0 1-2-2c0-1.11.89-2 2-2a2 2 0 0 1 0 4Zm6 3V10H6v10h12Zm0-12a2 2 0 0 1 2 2v10a2 2 0 0 1-2 2H6a2 2 0 0 1-2-2V10c0-1.11.89-2 2-2h1V6a5 5 0 1 1 10 0v2h1Zm-6-5a3 3 0 0 0-3 3v2h6V6a3 3 0 0 0-3-3Z"/></svg><svg viewBox="0 0 25 9" id="pause-phone-panel" xmlns="http://www.w3.org/2000/svg"><path d="M4.606 8.562 6.67 6.96c.495-.383.784-.968.784-1.583v-2.62a15.9 15.9 0 0 1 9.617 0v2.63c0 .615.29 1.2.785 1.583l2.053 1.592a2.104 2.104 0 0 0 2.745-.15l1.259-1.23c.825-.807.825-2.147-.052-2.903-6.614-5.705-16.582-5.705-23.197 0-.877.756-.877 2.096-.051 2.902l1.259 1.23c.732.726 1.909.786 2.734.151Z"/></svg><svg viewBox="0 0 28 28" id="phone" xmlns="http://www.w3.org/2000/svg"><path d="M25.668 19.74v3.5a2.331 2.331 0 0 1-2.544 2.333 23.089 23.089 0 0 1-10.068-3.582 22.751 22.751 0 0 1-7-7A23.089 23.089 0 0 1 2.474 4.877a2.333 2.333 0 0 1 2.322-2.543h3.5a2.333 2.333 0 0 1 2.333 2.007c.148 1.12.422 2.22.817 3.278a2.334 2.334 0 0 1-.525 2.462l-1.482 1.482a18.68 18.68 0 0 0 7 7l1.482-1.482a2.333 2.333 0 0 1 2.462-.525c1.058.395 2.158.669 3.278.817a2.333 2.333 0 0 1 2.007 2.368Z"/></svg><svg viewBox="0 0 19 18" id="phone-panel" xmlns="http://www.w3.org/2000/svg"><path d="m16.854 12.275-2.497-.29c-.6-.071-1.19.14-1.612.57L10.936 14.4a14.936 14.936 0 0 1-6.478-6.603l1.819-1.854c.423-.43.63-1.032.56-1.643l-.285-2.525C6.434.762 5.6 0 4.596 0h-1.7C1.784 0 .86.942.928 2.074c.521 8.558 7.235 15.391 15.62 15.922 1.111.07 2.035-.871 2.035-2.004V14.26a1.973 1.973 0 0 0-1.73-1.984Z"/></svg><svg viewBox="0 0 20 20" id="print" xmlns="http://www.w3.org/2000/svg"><rect width="19.768" height="19.768" rx="2.636"/><g clip-path="url(#bba)"><path d="M14.495 7.248H5.27a1.974 1.974 0 0 0-1.977 1.976v2.636c0 .725.593 1.318 1.318 1.318h1.318v1.318c0 .725.593 1.318 1.317 1.318h5.272c.725 0 1.318-.593 1.318-1.318v-1.318h1.317c.725 0 1.318-.593 1.318-1.318V9.224a1.974 1.974 0 0 0-1.976-1.976Zm-2.636 7.248H7.905a.66.66 0 0 1-.659-.66v-2.635h5.272v2.636a.66.66 0 0 1-.66.659Zm2.636-4.613a.66.66 0 0 1-.66-.659.66.66 0 0 1 .66-.658.66.66 0 0 1 .659.658.66.66 0 0 1-.66.66Zm-1.318-5.93h-6.59a.66.66 0 0 0-.658.659V5.93a.66.66 0 0 0 .659.659h6.589a.66.66 0 0 0 .659-.66V4.613a.66.66 0 0 0-.66-.659Z"/></g><defs><clipPath id="bba"><path transform="translate(1.977 1.977)" d="M0 0h15.814v15.814H0z"/></clipPath></defs></svg><svg viewBox="0 0 19 18" id="second-phone-panel" xmlns="http://www.w3.org/2000/svg"><path d="M10.612 2.044c3.126.4 5.574 2.896 5.967 6.082a.985.985 0 0 0 .973.882c.04 0 .079 0 .118-.01a1 1 0 0 0 .855-1.122C18.024 3.778 14.87.56 10.848.05a.989.989 0 0 0-1.091.882.985.985 0 0 0 .855 1.112Zm.374 2.114a.982.982 0 0 0-1.2.722 1 1 0 0 0 .708 1.222c1.032.27 1.838 1.093 2.114 2.155a.99.99 0 0 0 1.199.721c.52-.14.835-.691.708-1.222-.462-1.774-1.81-3.147-3.53-3.598Zm5.868 8.117-2.497-.29c-.6-.071-1.19.14-1.612.57L10.936 14.4a14.936 14.936 0 0 1-6.478-6.603l1.819-1.854c.423-.43.63-1.032.56-1.643l-.285-2.525C6.434.762 5.6 0 4.596 0h-1.7C1.784 0 .86.942.928 2.074c.521 8.558 7.235 15.391 15.62 15.922 1.111.07 2.035-.871 2.035-2.004V14.26a1.973 1.973 0 0 0-1.73-1.984Z"/></svg><svg viewBox="0 0 21 21" id="statuses" xmlns="http://www.w3.org/2000/svg"><g clip-path="url(#bda)"><path d="M18.614 14.726c-1.05 1.05-2.307 1.839-3.772 2.367-1.465.53-2.967.794-4.505.794-1.538 0-3.04-.264-4.505-.794-1.465-.528-2.722-1.318-3.772-2.367a.703.703 0 0 1-.22-.513c0-.195.073-.366.22-.513l1.977-1.978a.663.663 0 0 1 .415-.195.607.607 0 0 1 .44.122l2.026 1.392c.13.098.232.203.306.317a.71.71 0 0 1 .11.391l.024 2.368c.928.244 1.904.367 2.93.367 1.025 0 2.035-.123 3.028-.367v-2.295a.97.97 0 0 1 .122-.452c.081-.154.187-.28.317-.378l2.027-1.343a.702.702 0 0 1 .445-.116.631.631 0 0 1 .41.19l1.977 1.977c.146.147.22.318.22.513a.703.703 0 0 1-.22.513Z"/><path fill-rule="evenodd" clip-rule="evenodd" d="M5.426 2.363c0-.449.364-.813.813-.813h7.673c.45 0 .814.364.814.813v6.898c0 .45-.364.814-.814.814h-1.85a.813.813 0 0 0-.678.362l-.97 1.455a.407.407 0 0 1-.677 0l-.97-1.455a.813.813 0 0 0-.677-.362H6.24a.813.813 0 0 1-.814-.814V2.363ZM9.3 3.875a.775.775 0 0 1 1.55 0v1.55a.775.775 0 0 1-1.55 0v-1.55Zm.775 4.65a.775.775 0 1 0 0-1.55.775.775 0 0 0 0 1.55Z"/></g><defs><clipPath id="bda"><path d="M0 0h20.15v20.15H0z"/></clipPath></defs></svg><svg viewBox="0 0 19 15" id="sufler" xmlns="http://www.w3.org/2000/svg"><path d="M10.984 11.326c-.066-.198-.132-.33-.264-.395l-.527-.33.79-.329c.33-.132.461-.395.396-.724l-.066-.527v-.197c.066-.066.131-.066.197-.132l.33-.066c.197 0 .395-.132.526-.33.066-.197.066-.46 0-.658-.329-.592-.658-1.12-.987-1.712-.198-.263-.33-.658-.461-1.053 0-.132-.066-.395.066-.79V3.95C10.918 1.712 8.679 0 5.847 0 2.16.066.91 1.712.447 3.029L.186 4.083c-.198 1.119-.593 4.016 1.119 5.07.066 0 .066.066.132.066l.197.066c.725.197.922 1.514.856 2.107l-.066 2.502c0 .197.066.33.198.46.066.133.197.198.395.198h3.95c.264 0 .528-.131.593-.395l.132-.329.198-.395c.066-.132.131-.33.46-.33H9.8c.263 0 .526-.065.724-.263.131-.131.197-.329.197-.592 0-.198.066-.33.132-.461.132-.066.132-.264.132-.461Zm5.596 2.964c0-.067.066-.133.132-.198.132-.066.198-.198.264-.264.329-.329.592-.658.658-1.12.066-.329.132-.723.132-1.053 0-.263.066-.527.066-.856l.065-.658c.066-.593.198-1.251.264-1.844 0-.198 0-.33-.066-.527-.132-.263-.395-.395-.724-.329h-.066v-.198c0-.197.066-.329 0-.526-.066-.264-.198-.461-.461-.527-.132-.066-.33 0-.461.066 0-.264-.132-.461-.395-.593h-.198c-.263 0-.46.198-.592.461 0 .066-.066.066-.066 0-.264-.198-.593-.198-.79.066a.748.748 0 0 0-.198.527L13.75 8.56c.066-.395-.132-.592-.33-.592-.263 0-.394.131-.526.329-.263.79-.46 3.16-.46 3.16-.067.264 0 .593.13.857.264.527.593.987 1.054 1.383.066.065.066.131.066.197-.066.198 0 .659.198.659h2.304c.264 0 .396-.198.396-.264Z"/></svg><svg viewBox="0 0 22 22" id="tel" xmlns="http://www.w3.org/2000/svg"><path d="M17.449 3.292h-6.585a1.32 1.32 0 0 0-1.317 1.317v11.853a1.32 1.32 0 0 0 1.317 1.317h6.585a1.32 1.32 0 0 0 1.316-1.317V4.609a1.32 1.32 0 0 0-1.316-1.317Zm0 11.853h-6.585v-9.22h6.585v9.22Zm-9.481-4.873L5.465 7.77c-.197-.198-.592-.066-.592.263v1.185h-2.24c-.197 0-.328.132-.328.33v1.975c0 .197.131.33.329.33h2.305v1.184c0 .33.329.461.592.264l2.502-2.502c.066-.132.066-.396-.065-.527Z"/></svg><svg viewBox="0 0 19 19" id="trilateral" xmlns="http://www.w3.org/2000/svg"><g clip-path="url(#bga)"><path d="M12.8 11.575c.455 0 .757-.303.757-.757V7.944h-1.513v2.874c0 .454.379.757.757.757ZM14.239.53l1.21 1.21-3.025 3.026h-5.07c-.454 0-.756.303-.756.757s.302.756.756.756h5.674l3.404-3.404 1.21 1.21c.227.227.681.076.606-.302V.303c0-.227-.152-.378-.379-.378h-3.555c-.151 0-.303.378-.076.605Zm-2.041 13.54-1.891-.226a1.255 1.255 0 0 0-1.21.453L7.734 15.66c-2.118-1.06-3.858-2.8-4.992-4.994l1.361-1.361c.303-.303.454-.757.454-1.21l-.302-1.968c-.076-.756-.757-1.361-1.513-1.361H1.456c-.832 0-1.589.68-1.513 1.588.378 6.43 5.598 11.65 12.028 12.029.832.075 1.589-.681 1.589-1.514v-1.285a1.687 1.687 0 0 0-1.362-1.514Z"/></g><defs><clipPath id="bga"><path d="M0 0h18.31v18.31H0z"/></clipPath></defs></svg><svg viewBox="0 0 20 20" id="tts" xmlns="http://www.w3.org/2000/svg"><path d="M15.008 8.08c1.1 0 2.1.203 3.001.708V2.02c0-.505-.2-1.01-.6-1.414-.4-.404-.9-.606-1.4-.606H2C1.5 0 1 .202.6.606.2.909 0 1.414 0 2.02v14.141c0 .505.2 1.01.6 1.414.4.404.9.606 1.401.606h6.703c-.4-.909-.7-1.919-.7-3.03 0-.303 0-.707.1-1.01H5.003c-.3 0-.5-.101-.7-.303-.2-.202-.3-.404-.3-.707 0-.303.1-.505.3-.707.2-.202.4-.303.7-.303h3.701c.4-.707.8-1.414 1.401-2.02H5.003c-.3 0-.5-.101-.7-.303-.2-.202-.3-.404-.3-.707 0-.303.1-.505.3-.707.2-.202.4-.303.7-.303h10.004ZM4.302 4.344c.2-.202.4-.303.7-.303h8.005c.3 0 .5.101.7.303.2.202.3.404.3.707 0 .303-.1.505-.3.707-.2.202-.4.303-.7.303H5.003c-.3 0-.5-.1-.7-.303-.2-.202-.3-.505-.3-.707 0-.202.1-.606.3-.707Z"/><path d="M18.41 11.414c-1-1.01-2.2-1.515-3.501-1.515-1.3 0-2.602.505-3.502 1.515-1 1.01-1.5 2.222-1.5 3.536 0 1.313.5 2.626 1.5 3.535 1 1.01 2.201 1.515 3.502 1.515 1.3 0 2.601-.505 3.502-1.515 1-1.01 1.5-2.222 1.5-3.535 0-1.314-.5-2.627-1.5-3.536Zm-3.5 5.556c0 .202-.1.303-.2.303-.1.1-.3 0-.4-.101l-1.201-1.212h-1.1c-.1 0-.2 0-.3-.101-.1-.101-.1-.202-.1-.303v-1.414c0-.101 0-.202.1-.304.1-.1.2-.1.3-.1h1.1l1.2-1.213c.1-.1.2-.1.4-.1.1.1.2.201.2.302v4.243Zm.7-3.435c.3.101.5.303.6.607.2.303.2.606.2.909 0 .303-.1.606-.2.909-.2.303-.4.404-.6.606v-3.03Zm2.001 3.233c-.4.505-.9.909-1.5 1.212h-.3c-.1-.101-.2-.202-.2-.303 0-.101 0-.101.1-.202 0-.101.1-.101.1-.101.5-.202.9-.505 1.1-.91.3-.403.4-.908.4-1.413s-.1-1.01-.4-1.415c-.3-.404-.7-.707-1.1-.909-.1 0-.1-.1-.2-.1 0-.102-.1-.102-.1-.203 0-.1.1-.202.2-.303.1-.1.2-.1.3 0 .6.202 1.1.606 1.5 1.212.4.607.6 1.111.6 1.819 0 .707-.2 1.11-.5 1.616Z"/></svg><svg viewBox="0 0 24 24" id="user" xmlns="http://www.w3.org/2000/svg"><path d="M12 4a4 4 0 1 0 0 8 4 4 0 0 0 0-8ZM6 8a6 6 0 1 1 12 0A6 6 0 0 1 6 8Zm2 10a3 3 0 0 0-3 3 1 1 0 1 1-2 0 5 5 0 0 1 5-5h8a5 5 0 0 1 5 5 1 1 0 0 1-2 0 3 3 0 0 0-3-3H8Z"/></svg><svg viewBox="0 0 19 18" id="util" xmlns="http://www.w3.org/2000/svg"><rect x="7.516" y="1.318" width="3.954" height="3.954" rx=".659"/><rect x="2.242" y="1.318" width="3.954" height="3.954" rx=".659"/><rect x="12.785" y="1.318" width="3.954" height="3.954" rx=".659"/><rect x="2.242" y="6.59" width="3.954" height="3.954" rx=".659"/><rect x="7.516" y="6.59" width="3.954" height="3.954" rx=".659"/><rect x="12.785" y="6.59" width="3.954" height="3.954" rx=".659"/><rect x="2.242" y="11.861" width="14.496" height="3.954" rx=".659"/></svg><svg viewBox="0 0 18 18" id="voice-post" xmlns="http://www.w3.org/2000/svg"><path d="M2.611 15.364a8.977 8.977 0 0 1-1.934-2.919A9.046 9.046 0 0 1 0 9c0-4.97 3.991-9 8.915-9 4.924 0 8.915 4.03 8.915 9s-3.991 9-8.915 9H0l2.611-2.636ZM8.023 3.6v10.8h1.783V3.6H8.023ZM4.457 6.3v5.4H6.24V6.3H4.457Zm7.132 0v5.4h1.783V6.3H11.59Z"/></svg></svg>