<?xml version="1.0" standalone="no"?>
  <!DOCTYPE svg PUBLIC "-//W3C//DTD SVG 1.1//EN" "http://www.w3.org/Graphics/SVG/1.1/DTD/svg11.dtd" >
  <svg>
  <metadata>
  Created by font-carrier
  </metadata>
  <defs>
  <font id="Inter-Thin" horiz-adv-x="7552" vert-adv-y="7552" >
    <font-face
      
      font-family="Inter Thin"
      
      font-weight="400"
      
      font-stretch="normal"
      
      units-per-em="2816"
      
      ascent="2728"
      
      descent="-680"
      
    />
      <missing-glyph />

      

      
      <glyph glyph-name="uni41" unicode="&#x41;" d="M160 0L92 0L824 2048L912 2048L1644 0L1576 0L872 1968L864 1968L160 0M392 756L1344 756L1344 692L392 692L392 756Z"  horiz-adv-x="1736" vert-adv-y="2816"  />

      
      <glyph glyph-name="unic4" unicode="&#xc4;" d="M160 0L92 0L824 2048L912 2048L1644 0L1576 0L872 1968L864 1968L160 0M392 756L1344 756L1344 692L392 692L392 756M676 2328Q650 2328 631 2347Q612 2366 612 2392Q612 2418 631 2437Q650 2456 676 2456Q702 2456 721 2437Q740 2418 740 2392Q740 2366 721 2347Q702 2328 676 2328M1060 2328Q1034 2328 1015 2347Q996 2366 996 2392Q996 2418 1015 2437Q1034 2456 1060 2456Q1086 2456 1105 2437Q1124 2418 1124 2392Q1124 2366 1105 2347Q1086 2328 1060 2328Z"  horiz-adv-x="1736" vert-adv-y="2816"  />

      
      <glyph glyph-name="unic3" unicode="&#xc3;" d="M160 0L92 0L824 2048L912 2048L1644 0L1576 0L872 1968L864 1968L160 0M392 756L1344 756L1344 692L392 692L392 756M474 2344L410 2352Q424 2446 498 2505Q572 2564 674 2564Q743 2564 793 2539Q843 2514 884.50 2482Q926 2450 968.50 2425Q1011 2400 1066 2400Q1134 2400 1192 2443Q1250 2486 1266 2556L1330 2540Q1308 2449 1232.50 2392.50Q1157 2336 1066 2336Q1002 2336 956 2361Q910 2386 869.50 2418Q829 2450 783.50 2475Q738 2500 674 2500Q596 2500 540 2456Q484 2412 474 2344Z"  horiz-adv-x="1736" vert-adv-y="2816"  />

      
      <glyph glyph-name="unic0" unicode="&#xc0;" d="M160 0L92 0L824 2048L912 2048L1644 0L1576 0L872 1968L864 1968L160 0M392 756L1344 756L1344 692L392 692L392 756M838 2272L542 2704L622 2704L902 2272L838 2272Z"  horiz-adv-x="1736" vert-adv-y="2816"  />

      
      <glyph glyph-name="unic1" unicode="&#xc1;" d="M160 0L92 0L824 2048L912 2048L1644 0L1576 0L872 1968L864 1968L160 0M392 756L1344 756L1344 692L392 692L392 756M834 2272L1114 2704L1194 2704L898 2272L834 2272Z"  horiz-adv-x="1736" vert-adv-y="2816"  />

      
      <glyph glyph-name="unic2" unicode="&#xc2;" d="M160 0L92 0L824 2048L912 2048L1644 0L1576 0L872 1968L864 1968L160 0M392 756L1344 756L1344 692L392 692L392 756M1168 2208L868 2516L568 2208L492 2208L492 2216L860 2592L876 2592L1244 2216L1244 2208L1168 2208Z"  horiz-adv-x="1736" vert-adv-y="2816"  />

      
      <glyph glyph-name="unic5" unicode="&#xc5;" d="M160 0L92 0L824 2048L912 2048L1644 0L1576 0L872 1968L864 1968L160 0M392 756L1344 756L1344 692L392 692L392 756M868 2148Q773 2148 706.50 2214.50Q640 2281 640 2376Q640 2440 670.50 2491.50Q701 2543 753 2573.50Q805 2604 868 2604Q932 2604 983.50 2573.50Q1035 2543 1065.50 2491.50Q1096 2440 1096 2377Q1096 2313 1065.50 2261Q1035 2209 983.50 2178.50Q932 2148 868 2148M869 2212Q937 2212 984.50 2260Q1032 2308 1032 2376Q1032 2445 984 2492.50Q936 2540 868 2540Q799 2540 751.50 2492Q704 2444 704 2376Q704 2307 752 2259.50Q800 2212 869 2212Z"  horiz-adv-x="1736" vert-adv-y="2816"  />

      
      <glyph glyph-name="uni01FA" unicode="&#x01FA;" d="M160 0L92 0L824 2048L912 2048L1644 0L1576 0L872 1968L864 1968L160 0M392 756L1344 756L1344 692L392 692L392 756M830 2660L990 2852L1070 2852L894 2660L830 2660M868 2149Q773 2149 706.50 2212Q640 2275 640 2365Q640 2426 670.50 2475Q701 2524 753 2553Q805 2582 868 2582Q963 2582 1029.50 2519Q1096 2456 1096 2365Q1096 2305 1065.50 2256Q1035 2207 983.50 2178Q932 2149 868 2149M869 2209Q937 2209 984.50 2254.50Q1032 2300 1032 2365Q1032 2431 984 2476Q936 2521 868 2521Q799 2521 751.50 2475.50Q704 2430 704 2365Q704 2300 752 2254.50Q800 2209 869 2209Z"  horiz-adv-x="1736" vert-adv-y="2816"  />

      
      <glyph glyph-name="uniEE02" unicode="&#xEE02;" d="M160 0L92 0L824 2048L912 2048L1644 0L1576 0L872 1968L864 1968L160 0M392 756L1344 756L1344 692L392 692L392 756M868 2148Q773 2148 706.50 2214.50Q640 2281 640 2376Q640 2440 670.50 2491.50Q701 2543 753 2573.50Q805 2604 868 2604Q932 2604 983.50 2573.50Q1035 2543 1065.50 2491.50Q1096 2440 1096 2377Q1096 2313 1065.50 2261Q1035 2209 983.50 2178.50Q932 2148 868 2148M869 2212Q937 2212 984.50 2260Q1032 2308 1032 2376Q1032 2445 984 2492.50Q936 2540 868 2540Q799 2540 751.50 2492Q704 2444 704 2376Q704 2307 752 2259.50Q800 2212 869 2212M1596-608Q1493-608 1426.50-548.50Q1360-489 1360-374Q1360-301 1387.50-239Q1415-177 1464.50-119Q1514-61 1580 0L1644 0Q1541-103 1482.50-191.50Q1424-280 1424-374Q1424-462 1472-503Q1520-544 1596-544Q1640-544 1673-531Q1706-518 1742-492L1780-544Q1737-575 1693.50-591.50Q1650-608 1596-608Z"  horiz-adv-x="1736" vert-adv-y="2816"  />

      
      <glyph glyph-name="uni0100" unicode="&#x0100;" d="M160 0L92 0L824 2048L912 2048L1644 0L1576 0L872 1968L864 1968L160 0M392 756L1344 756L1344 692L392 692L392 756M1188 2424L1188 2360L548 2360L548 2424L1188 2424Z"  horiz-adv-x="1736" vert-adv-y="2816"  />

      
      <glyph glyph-name="uni0102" unicode="&#x0102;" d="M160 0L92 0L824 2048L912 2048L1644 0L1576 0L872 1968L864 1968L160 0M392 756L1344 756L1344 692L392 692L392 756M1028 2560L1092 2560Q1092 2454 1032.50 2393Q973 2332 868 2332Q763 2332 703.50 2393Q644 2454 644 2560L708 2560Q708 2481 749 2438.50Q790 2396 868 2396Q946 2396 987 2438.50Q1028 2481 1028 2560Z"  horiz-adv-x="1736" vert-adv-y="2816"  />

      
      <glyph glyph-name="uni0104" unicode="&#x0104;" d="M160 0L92 0L824 2048L912 2048L1644 0L1576 0L872 1968L864 1968L160 0M392 756L1344 756L1344 692L392 692L392 756M1596-608Q1493-608 1426.50-548.50Q1360-489 1360-374Q1360-301 1387.50-239Q1415-177 1464.50-119Q1514-61 1580 0L1644 0Q1541-103 1482.50-191.50Q1424-280 1424-374Q1424-462 1472-503Q1520-544 1596-544Q1640-544 1673-531Q1706-518 1742-492L1780-544Q1737-575 1693.50-591.50Q1650-608 1596-608Z"  horiz-adv-x="1736" vert-adv-y="2816"  />

      
      <glyph glyph-name="uni01CD" unicode="&#x01CD;" d="M160 0L92 0L824 2048L912 2048L1644 0L1576 0L872 1968L864 1968L160 0M392 756L1344 756L1344 692L392 692L392 756M568 2644L868 2336L1168 2644L1244 2644L1244 2636L876 2260L860 2260L492 2636L492 2644L568 2644Z"  horiz-adv-x="1736" vert-adv-y="2816"  />

      
      <glyph glyph-name="uni01DE" unicode="&#x01DE;" d="M160 0L92 0L824 2048L912 2048L1644 0L1576 0L872 1968L864 1968L160 0M392 756L1344 756L1344 692L392 692L392 756M678 2328Q652 2328 633 2347Q614 2366 614 2392Q614 2418 633 2437Q652 2456 678 2456Q704 2456 723 2437Q742 2418 742 2392Q742 2366 723 2347Q704 2328 678 2328M1062 2328Q1036 2328 1017 2347Q998 2366 998 2392Q998 2418 1017 2437Q1036 2456 1062 2456Q1088 2456 1107 2437Q1126 2418 1126 2392Q1126 2366 1107 2347Q1088 2328 1062 2328M1192 2814L1192 2750L552 2750L552 2814L1192 2814Z"  horiz-adv-x="1736" vert-adv-y="2816"  />

      
      <glyph glyph-name="uni01E0" unicode="&#x01E0;" d="M160 0L92 0L824 2048L912 2048L1644 0L1576 0L872 1968L864 1968L160 0M392 756L1344 756L1344 692L392 692L392 756M868 2328Q843 2328 823.50 2347.50Q804 2367 804 2392Q804 2419 823.50 2437.50Q843 2456 868 2456Q895 2456 913.50 2437.50Q932 2419 932 2392Q932 2367 913.50 2347.50Q895 2328 868 2328M1188 2814L1188 2750L548 2750L548 2814L1188 2814Z"  horiz-adv-x="1736" vert-adv-y="2816"  />

      
      <glyph glyph-name="uni0200" unicode="&#x0200;" d="M160 0L92 0L824 2048L912 2048L1644 0L1576 0L872 1968L864 1968L160 0M392 756L1344 756L1344 692L392 692L392 756M744 2272L428 2704L510 2704L808 2272L744 2272M964 2272L710 2704L788 2704L1028 2272L964 2272Z"  horiz-adv-x="1736" vert-adv-y="2816"  />

      
      <glyph glyph-name="uni0202" unicode="&#x0202;" d="M160 0L92 0L824 2048L912 2048L1644 0L1576 0L872 1968L864 1968L160 0M392 756L1344 756L1344 692L392 692L392 756M650 2408Q650 2514 709.50 2575Q769 2636 874 2636Q979 2636 1038.50 2575Q1098 2514 1098 2408L1034 2408Q1034 2488 993 2530Q952 2572 874 2572Q796 2572 755 2530Q714 2488 714 2408L650 2408Z"  horiz-adv-x="1736" vert-adv-y="2816"  />

      
      <glyph glyph-name="uni0226" unicode="&#x0226;" d="M160 0L92 0L824 2048L912 2048L1644 0L1576 0L872 1968L864 1968L160 0M392 756L1344 756L1344 692L392 692L392 756M868 2328Q842 2328 823 2347Q804 2366 804 2392Q804 2418 823 2437Q842 2456 868 2456Q894 2456 913 2437Q932 2418 932 2392Q932 2366 913 2347Q894 2328 868 2328Z"  horiz-adv-x="1736" vert-adv-y="2816"  />

      
      <glyph glyph-name="uni1E00" unicode="&#x1E00;" d="M160 0L92 0L824 2048L912 2048L1644 0L1576 0L872 1968L864 1968L160 0M392 756L1344 756L1344 692L392 692L392 756M640-358Q640-263 706.50-196.50Q773-130 868-130Q963-130 1029.50-196.50Q1096-263 1096-358Q1096-453 1029.50-519.50Q963-586 868-586Q773-586 706.50-519.50Q640-453 640-358M704-358Q704-427 752-474.50Q800-522 868-522Q937-522 984.50-474Q1032-426 1032-358Q1032-289 984-241.50Q936-194 868-194Q799-194 751.50-242Q704-290 704-358Z"  horiz-adv-x="1736" vert-adv-y="2816"  />

      
      <glyph glyph-name="uni1EA0" unicode="&#x1EA0;" d="M160 0L92 0L824 2048L912 2048L1644 0L1576 0L872 1968L864 1968L160 0M392 756L1344 756L1344 692L392 692L392 756M868-456Q842-456 823-437Q804-418 804-392Q804-366 823-347Q842-328 868-328Q894-328 913-347Q932-366 932-392Q932-418 913-437Q894-456 868-456Z"  horiz-adv-x="1736" vert-adv-y="2816"  />

      
      <glyph glyph-name="uni1EA2" unicode="&#x1EA2;" d="M160 0L92 0L824 2048L912 2048L1644 0L1576 0L872 1968L864 1968L160 0M392 756L1344 756L1344 692L392 692L392 756M898 2244L834 2244L834 2438Q949 2445 995 2479.50Q1041 2514 1040 2592Q1039 2684 980.50 2725.50Q922 2767 798 2768L808 2832Q962 2831 1034.50 2767.50Q1107 2704 1108 2600Q1109 2505 1051 2447.50Q993 2390 898 2382L898 2244Z"  horiz-adv-x="1736" vert-adv-y="2816"  />

      
      <glyph glyph-name="uni1EA4" unicode="&#x1EA4;" d="M160 0L92 0L824 2048L912 2048L1644 0L1576 0L872 1968L864 1968L160 0M392 756L1344 756L1344 692L392 692L392 756M496 2276L872 2660L888 2660L1264 2276L1180 2276L880 2584L580 2276L496 2276M1240 2524L1480 2876L1560 2876L1304 2524L1240 2524Z"  horiz-adv-x="1736" vert-adv-y="2816"  />

      
      <glyph glyph-name="uni1EA6" unicode="&#x1EA6;" d="M160 0L92 0L824 2048L912 2048L1644 0L1576 0L872 1968L864 1968L160 0M392 756L1344 756L1344 692L392 692L392 756M880 2712L1256 2328L1172 2328L872 2636L572 2328L488 2328L864 2712L880 2712M306 2928L526 2576L462 2576L226 2928L306 2928Z"  horiz-adv-x="1736" vert-adv-y="2816"  />

      
      <glyph glyph-name="uni1EA8" unicode="&#x1EA8;" d="M160 0L92 0L824 2048L912 2048L1644 0L1576 0L872 1968L864 1968L160 0M392 756L1344 756L1344 692L392 692L392 756M882 2616L1258 2232L1174 2232L874 2540L574 2232L490 2232L866 2616L882 2616M1348 2428L1284 2428L1284 2590Q1398 2597 1444 2629Q1490 2661 1490 2724Q1489 2801 1430 2840Q1371 2879 1248 2880L1258 2944Q1411 2943 1484 2882Q1557 2821 1558 2732Q1558 2652 1500 2597Q1442 2542 1348 2534L1348 2428Z"  horiz-adv-x="1736" vert-adv-y="2816"  />

      
      <glyph glyph-name="uni1EAA" unicode="&#x1EAA;" d="M160 0L92 0L824 2048L912 2048L1644 0L1576 0L872 1968L864 1968L160 0M392 756L1344 756L1344 692L392 692L392 756M854 2564L1230 2180L1146 2180L846 2488L546 2180L462 2180L838 2564L854 2564M1164 2888L1228 2880Q1212 2780 1146 2724Q1080 2668 1002 2668Q945 2668 905 2692.50Q865 2717 833 2749Q801 2781 767.50 2806Q734 2831 690 2832Q637 2833 589.50 2793Q542 2753 530 2676L466 2684Q483 2785 548.50 2840.50Q614 2896 688 2896Q742 2896 782 2871.50Q822 2847 855 2815Q888 2783 923.50 2758Q959 2733 1004 2732Q1058 2731 1105.50 2771.50Q1153 2812 1164 2888Z"  horiz-adv-x="1736" vert-adv-y="2816"  />

      
      <glyph glyph-name="uni1EAC" unicode="&#x1EAC;" d="M160 0L92 0L824 2048L912 2048L1644 0L1576 0L872 1968L864 1968L160 0M392 756L1344 756L1344 692L392 692L392 756M1168 2208L868 2516L568 2208L492 2208L492 2216L860 2592L876 2592L1244 2216L1244 2208L1168 2208M868-456Q842-456 823-437Q804-418 804-392Q804-366 823-347Q842-328 868-328Q894-328 913-347Q932-366 932-392Q932-418 913-437Q894-456 868-456Z"  horiz-adv-x="1736" vert-adv-y="2816"  />

      
      <glyph glyph-name="uni1EAE" unicode="&#x1EAE;" d="M160 0L92 0L824 2048L912 2048L1644 0L1576 0L872 1968L864 1968L160 0M392 756L1344 756L1344 692L392 692L392 756M1016 2500L1080 2500Q1080 2394 1020.50 2333Q961 2272 856 2272Q751 2272 691.50 2333Q632 2394 632 2500L696 2500Q696 2421 737 2378.50Q778 2336 856 2336Q934 2336 975 2378.50Q1016 2421 1016 2500M820 2564L974 2856L1054 2856L872 2564L820 2564Z"  horiz-adv-x="1736" vert-adv-y="2816"  />

      
      <glyph glyph-name="uni1EB0" unicode="&#x1EB0;" d="M160 0L92 0L824 2048L912 2048L1644 0L1576 0L872 1968L864 1968L160 0M392 756L1344 756L1344 692L392 692L392 756M1016 2500L1080 2500Q1080 2394 1020.50 2333Q961 2272 856 2272Q751 2272 691.50 2333Q632 2394 632 2500L696 2500Q696 2421 737 2378.50Q778 2336 856 2336Q934 2336 975 2378.50Q1016 2421 1016 2500M840 2564L658 2852L738 2852L892 2564L840 2564Z"  horiz-adv-x="1736" vert-adv-y="2816"  />

      
      <glyph glyph-name="uni1EB2" unicode="&#x1EB2;" d="M160 0L92 0L824 2048L912 2048L1644 0L1576 0L872 1968L864 1968L160 0M392 756L1344 756L1344 692L392 692L392 756M1004 2572L1068 2572Q1068 2466 1008.50 2405Q949 2344 844 2344Q739 2344 679.50 2405Q620 2466 620 2572L684 2572Q684 2493 725 2450.50Q766 2408 844 2408Q922 2408 963 2450.50Q1004 2493 1004 2572M876 2592L812 2592L812 2754Q896 2761 938 2780.50Q980 2800 978 2848Q976 2910 922.50 2936.50Q869 2963 776 2964L786 3028Q905 3027 975.50 2976Q1046 2925 1046 2850Q1046 2783 997 2744.50Q948 2706 876 2698L876 2592Z"  horiz-adv-x="1736" vert-adv-y="2816"  />

      
      <glyph glyph-name="uni1EB4" unicode="&#x1EB4;" d="M160 0L92 0L824 2048L912 2048L1644 0L1576 0L872 1968L864 1968L160 0M392 756L1344 756L1344 692L392 692L392 756M1012 2578L1076 2578Q1076 2472 1016.50 2411Q957 2350 852 2350Q747 2350 687.50 2411Q628 2472 628 2578L692 2578Q692 2499 733 2456.50Q774 2414 852 2414Q930 2414 971 2456.50Q1012 2499 1012 2578M1114 2894L1172 2886Q1162 2808 1114.50 2751.50Q1067 2695 996 2694Q931 2694 886.50 2730Q842 2766 801.50 2802Q761 2838 708 2838Q657 2838 625.50 2796.50Q594 2755 584 2702L526 2710Q536 2789 585 2845.50Q634 2902 710 2902Q762 2902 798.50 2880Q835 2858 864.50 2829.50Q894 2801 924.50 2779Q955 2757 994 2758Q1042 2759 1073 2800.50Q1104 2842 1114 2894Z"  horiz-adv-x="1736" vert-adv-y="2816"  />

      
      <glyph glyph-name="uni1EB6" unicode="&#x1EB6;" d="M160 0L92 0L824 2048L912 2048L1644 0L1576 0L872 1968L864 1968L160 0M392 756L1344 756L1344 692L392 692L392 756M1028 2560L1092 2560Q1092 2454 1032.50 2393Q973 2332 868 2332Q763 2332 703.50 2393Q644 2454 644 2560L708 2560Q708 2481 749 2438.50Q790 2396 868 2396Q946 2396 987 2438.50Q1028 2481 1028 2560M868-456Q842-456 823-437Q804-418 804-392Q804-366 823-347Q842-328 868-328Q894-328 913-347Q932-366 932-392Q932-418 913-437Q894-456 868-456Z"  horiz-adv-x="1736" vert-adv-y="2816"  />

      
      <glyph glyph-name="uni0391" unicode="&#x0391;" d="M160 0L92 0L824 2048L912 2048L1644 0L1576 0L872 1968L864 1968L160 0M392 756L1344 756L1344 692L392 692L392 756Z"  horiz-adv-x="1736" vert-adv-y="2816"  />

      
      <glyph glyph-name="uni0386" unicode="&#x0386;" d="M160 0L92 0L824 2048L912 2048L1644 0L1576 0L872 1968L864 1968L160 0M392 756L1344 756L1344 692L392 692L392 756M502 1696L542 2156L622 2156L550 1696L502 1696Z"  horiz-adv-x="1736" vert-adv-y="2816"  />

      
      <glyph glyph-name="uni1F08" unicode="&#x1F08;" d="M160 0L92 0L824 2048L912 2048L1644 0L1576 0L872 1968L864 1968L160 0M392 756L1344 756L1344 692L392 692L392 756M548 2048L548 1996Q548 1906 532.50 1835Q517 1764 478 1699Q439 1634 368 1562L322 1584Q387 1661 422 1723.50Q457 1786 470.50 1852Q484 1918 484 2004L484 2048L548 2048Z"  horiz-adv-x="1736" vert-adv-y="2816"  />

      
      <glyph glyph-name="uni1F09" unicode="&#x1F09;" d="M160 0L92 0L824 2048L912 2048L1644 0L1576 0L872 1968L864 1968L160 0M392 756L1344 756L1344 692L392 692L392 756M358 2004L358 2056L422 2056L422 2012Q422 1926 435.50 1860.50Q449 1795 484 1732Q519 1669 584 1592L538 1570Q432 1678 395 1773.50Q358 1869 358 2004Z"  horiz-adv-x="1736" vert-adv-y="2816"  />

      
      <glyph glyph-name="uni1F0A" unicode="&#x1F0A;" d="M160 0L92 0L824 2048L912 2048L1644 0L1576 0L872 1968L864 1968L160 0M392 756L1344 756L1344 692L392 692L392 756M578 1602L578 1584L530 1584L246 2030L246 2048L314 2048L578 1602M182 2048L182 1996Q182 1906 166.50 1835Q151 1764 112 1699Q73 1634 2 1562L-44 1584Q54 1699 86 1787Q118 1875 118 2004L118 2048L182 2048Z"  horiz-adv-x="1736" vert-adv-y="2816"  />

      
      <glyph glyph-name="uni1F0B" unicode="&#x1F0B;" d="M160 0L92 0L824 2048L912 2048L1644 0L1576 0L872 1968L864 1968L160 0M392 756L1344 756L1344 692L392 692L392 756M556 1610L556 1592L508 1592L224 2038L224 2056L292 2056L556 1610M90 2004L90 2056L154 2056L154 2012Q154 1883 186.50 1795Q219 1707 316 1592L270 1570Q164 1678 127 1773Q90 1868 90 2004Z"  horiz-adv-x="1736" vert-adv-y="2816"  />

      
      <glyph glyph-name="uni1F0C" unicode="&#x1F0C;" d="M160 0L92 0L824 2048L912 2048L1644 0L1576 0L872 1968L864 1968L160 0M392 756L1344 756L1344 692L392 692L392 756M108 1592L108 1610L372 2056L440 2056L440 2038L156 1592L108 1592M84 2056L84 2004Q84 1914 68.50 1843Q53 1772 14 1707Q-25 1642-96 1570L-142 1592Q-44 1707-12 1795Q20 1883 20 2012L20 2056L84 2056Z"  horiz-adv-x="1736" vert-adv-y="2816"  />

      
      <glyph glyph-name="uni1F0D" unicode="&#x1F0D;" d="M160 0L92 0L824 2048L912 2048L1644 0L1576 0L872 1968L864 1968L160 0M392 756L1344 756L1344 692L392 692L392 756M242 1592L242 1610L506 2056L574 2056L574 2038L290 1592L242 1592M156 1570Q50 1678 13 1773Q-24 1868-24 2004L-24 2056L40 2056L40 2012Q40 1883 72.50 1795Q105 1707 202 1592L156 1570Z"  horiz-adv-x="1736" vert-adv-y="2816"  />

      
      <glyph glyph-name="uni1F0E" unicode="&#x1F0E;" d="M160 0L92 0L824 2048L912 2048L1644 0L1576 0L872 1968L864 1968L160 0M392 756L1344 756L1344 692L392 692L392 756M630 2298L688 2290Q678 2197 628.50 2138Q579 2079 496 2078Q445 2078 407.50 2102.50Q370 2127 338 2159.50Q306 2192 273 2217Q240 2242 198 2242Q137 2242 103.50 2198Q70 2154 60 2086L2 2094Q12 2188 63 2247Q114 2306 202 2306Q256 2306 293.50 2281Q331 2256 361 2223.50Q391 2191 422 2166.50Q453 2142 494 2142Q554 2143 587 2187Q620 2231 630 2298M364 2024L364 1972Q364 1889 342.50 1804Q321 1719 244 1618L198 1640Q266 1747 283 1825.50Q300 1904 300 1980L300 2024L364 2024Z"  horiz-adv-x="1736" vert-adv-y="2816"  />

      
      <glyph glyph-name="uni1F0F" unicode="&#x1F0F;" d="M160 0L92 0L824 2048L912 2048L1644 0L1576 0L872 1968L864 1968L160 0M392 756L1344 756L1344 692L392 692L392 756M322 1972L322 2024L386 2024L386 1980Q386 1889 412 1810.50Q438 1732 490 1640L444 1618Q381 1704 351.50 1789Q322 1874 322 1972M642 2298L700 2290Q690 2197 640.50 2138Q591 2079 508 2078Q457 2078 419.50 2102.50Q382 2127 350 2159.50Q318 2192 285 2217Q252 2242 210 2242Q149 2242 115.50 2198Q82 2154 72 2086L14 2094Q24 2188 75 2247Q126 2306 214 2306Q268 2306 305.50 2281Q343 2256 373 2223.50Q403 2191 434 2166.50Q465 2142 506 2142Q566 2143 599 2187Q632 2231 642 2298Z"  horiz-adv-x="1736" vert-adv-y="2816"  />

      
      <glyph glyph-name="uni1FB8" unicode="&#x1FB8;" d="M160 0L92 0L824 2048L912 2048L1644 0L1576 0L872 1968L864 1968L160 0M392 756L1344 756L1344 692L392 692L392 756M1028 2560L1092 2560Q1092 2454 1032.50 2393Q973 2332 868 2332Q763 2332 703.50 2393Q644 2454 644 2560L708 2560Q708 2481 749 2438.50Q790 2396 868 2396Q946 2396 987 2438.50Q1028 2481 1028 2560Z"  horiz-adv-x="1736" vert-adv-y="2816"  />

      
      <glyph glyph-name="uni1FB9" unicode="&#x1FB9;" d="M160 0L92 0L824 2048L912 2048L1644 0L1576 0L872 1968L864 1968L160 0M392 756L1344 756L1344 692L392 692L392 756M1188 2424L1188 2360L548 2360L548 2424L1188 2424Z"  horiz-adv-x="1736" vert-adv-y="2816"  />

      
      <glyph glyph-name="uni1FBA" unicode="&#x1FBA;" d="M160 0L92 0L824 2048L912 2048L1644 0L1576 0L872 1968L864 1968L160 0M392 756L1344 756L1344 692L392 692L392 756M396 1580L112 2026L112 2044L180 2044L444 1598L444 1580L396 1580Z"  horiz-adv-x="1736" vert-adv-y="2816"  />

      
      <glyph glyph-name="uni023A" unicode="&#x023A;" d="M1360 2308L448-260L380-260L1292 2308L1360 2308M160 0L92 0L824 2048L912 2048L1644 0L1576 0L872 1968L864 1968L160 0M392 756L1344 756L1344 692L392 692L392 756Z"  horiz-adv-x="1736" vert-adv-y="2816"  />

      
      <glyph glyph-name="uni1FBB" unicode="&#x1FBB;" d="M160 0L92 0L824 2048L912 2048L1644 0L1576 0L872 1968L864 1968L160 0M392 756L1344 756L1344 692L392 692L392 756M388 1728L388 1732L640 2196L716 2196L716 2192L442 1728L388 1728Z"  horiz-adv-x="1736" vert-adv-y="2816"  />

      
      <glyph glyph-name="uni0410" unicode="&#x0410;" d="M160 0L92 0L824 2048L912 2048L1644 0L1576 0L872 1968L864 1968L160 0M392 756L1344 756L1344 692L392 692L392 756Z"  horiz-adv-x="1736" vert-adv-y="2816"  />

      
      <glyph glyph-name="uni04D0" unicode="&#x04D0;" d="M160 0L92 0L824 2048L912 2048L1644 0L1576 0L872 1968L864 1968L160 0M392 756L1344 756L1344 692L392 692L392 756M1028 2560L1092 2560Q1092 2454 1032.50 2393Q973 2332 868 2332Q763 2332 703.50 2393Q644 2454 644 2560L708 2560Q708 2481 749 2438.50Q790 2396 868 2396Q946 2396 987 2438.50Q1028 2481 1028 2560Z"  horiz-adv-x="1736" vert-adv-y="2816"  />

      
      <glyph glyph-name="uni04D2" unicode="&#x04D2;" d="M160 0L92 0L824 2048L912 2048L1644 0L1576 0L872 1968L864 1968L160 0M392 756L1344 756L1344 692L392 692L392 756M676 2328Q650 2328 631 2347Q612 2366 612 2392Q612 2418 631 2437Q650 2456 676 2456Q702 2456 721 2437Q740 2418 740 2392Q740 2366 721 2347Q702 2328 676 2328M1060 2328Q1034 2328 1015 2347Q996 2366 996 2392Q996 2418 1015 2437Q1034 2456 1060 2456Q1086 2456 1105 2437Q1124 2418 1124 2392Q1124 2366 1105 2347Q1086 2328 1060 2328Z"  horiz-adv-x="1736" vert-adv-y="2816"  />

      
      <glyph glyph-name="uni1F88" unicode="&#x1F88;" d="M160 0L92 0L824 2048L912 2048L1644 0L1576 0L872 1968L864 1968L160 0M392 756L1344 756L1344 692L392 692L392 756M968-600Q913-600 874.50-556Q836-512 836-444L836-120L900-120L900-444Q900-485 920-510.50Q940-536 968-536Q978-536 992.50-534Q1007-532 1014-530L1032-592Q1022-595 1002-597.50Q982-600 968-600M548 2048L548 1996Q548 1906 532.50 1835Q517 1764 478 1699Q439 1634 368 1562L322 1584Q387 1661 422 1723.50Q457 1786 470.50 1852Q484 1918 484 2004L484 2048L548 2048Z"  horiz-adv-x="1736" vert-adv-y="2816"  />

      
      <glyph glyph-name="uni1F89" unicode="&#x1F89;" d="M160 0L92 0L824 2048L912 2048L1644 0L1576 0L872 1968L864 1968L160 0M392 756L1344 756L1344 692L392 692L392 756M968-600Q913-600 874.50-556Q836-512 836-444L836-120L900-120L900-444Q900-485 920-510.50Q940-536 968-536Q978-536 992.50-534Q1007-532 1014-530L1032-592Q1022-595 1002-597.50Q982-600 968-600M358 2004L358 2056L422 2056L422 2012Q422 1926 435.50 1860.50Q449 1795 484 1732Q519 1669 584 1592L538 1570Q432 1678 395 1773.50Q358 1869 358 2004Z"  horiz-adv-x="1736" vert-adv-y="2816"  />

      
      <glyph glyph-name="uni1F8A" unicode="&#x1F8A;" d="M160 0L92 0L824 2048L912 2048L1644 0L1576 0L872 1968L864 1968L160 0M392 756L1344 756L1344 692L392 692L392 756M968-600Q913-600 874.50-556Q836-512 836-444L836-120L900-120L900-444Q900-485 920-510.50Q940-536 968-536Q978-536 992.50-534Q1007-532 1014-530L1032-592Q1022-595 1002-597.50Q982-600 968-600M578 1602L578 1584L530 1584L246 2030L246 2048L314 2048L578 1602M182 2048L182 1996Q182 1906 166.50 1835Q151 1764 112 1699Q73 1634 2 1562L-44 1584Q54 1699 86 1787Q118 1875 118 2004L118 2048L182 2048Z"  horiz-adv-x="1736" vert-adv-y="2816"  />

      
      <glyph glyph-name="uni1F8B" unicode="&#x1F8B;" d="M160 0L92 0L824 2048L912 2048L1644 0L1576 0L872 1968L864 1968L160 0M392 756L1344 756L1344 692L392 692L392 756M968-600Q913-600 874.50-556Q836-512 836-444L836-120L900-120L900-444Q900-485 920-510.50Q940-536 968-536Q978-536 992.50-534Q1007-532 1014-530L1032-592Q1022-595 1002-597.50Q982-600 968-600M556 1610L556 1592L508 1592L224 2038L224 2056L292 2056L556 1610M90 2004L90 2056L154 2056L154 2012Q154 1883 186.50 1795Q219 1707 316 1592L270 1570Q164 1678 127 1773Q90 1868 90 2004Z"  horiz-adv-x="1736" vert-adv-y="2816"  />

      
      <glyph glyph-name="uni1F8C" unicode="&#x1F8C;" d="M160 0L92 0L824 2048L912 2048L1644 0L1576 0L872 1968L864 1968L160 0M392 756L1344 756L1344 692L392 692L392 756M108 1592L108 1610L372 2056L440 2056L440 2038L156 1592L108 1592M84 2056L84 2004Q84 1914 68.50 1843Q53 1772 14 1707Q-25 1642-96 1570L-142 1592Q-44 1707-12 1795Q20 1883 20 2012L20 2056L84 2056M968-600Q913-600 874.50-556Q836-512 836-444L836-120L900-120L900-444Q900-485 920-510.50Q940-536 968-536Q978-536 992.50-534Q1007-532 1014-530L1032-592Q1022-595 1002-597.50Q982-600 968-600Z"  horiz-adv-x="1736" vert-adv-y="2816"  />

      
      <glyph glyph-name="uni1F8D" unicode="&#x1F8D;" d="M160 0L92 0L824 2048L912 2048L1644 0L1576 0L872 1968L864 1968L160 0M392 756L1344 756L1344 692L392 692L392 756M968-600Q913-600 874.50-556Q836-512 836-444L836-120L900-120L900-444Q900-485 920-510.50Q940-536 968-536Q978-536 992.50-534Q1007-532 1014-530L1032-592Q1022-595 1002-597.50Q982-600 968-600M242 1592L242 1610L506 2056L574 2056L574 2038L290 1592L242 1592M156 1570Q50 1678 13 1773Q-24 1868-24 2004L-24 2056L40 2056L40 2012Q40 1883 72.50 1795Q105 1707 202 1592L156 1570Z"  horiz-adv-x="1736" vert-adv-y="2816"  />

      
      <glyph glyph-name="uni1F8E" unicode="&#x1F8E;" d="M160 0L92 0L824 2048L912 2048L1644 0L1576 0L872 1968L864 1968L160 0M392 756L1344 756L1344 692L392 692L392 756M630 2298L688 2290Q678 2197 628.50 2138Q579 2079 496 2078Q445 2078 407.50 2102.50Q370 2127 338 2159.50Q306 2192 273 2217Q240 2242 198 2242Q137 2242 103.50 2198Q70 2154 60 2086L2 2094Q12 2188 63 2247Q114 2306 202 2306Q256 2306 293.50 2281Q331 2256 361 2223.50Q391 2191 422 2166.50Q453 2142 494 2142Q554 2143 587 2187Q620 2231 630 2298M364 2024L364 1972Q364 1889 342.50 1804Q321 1719 244 1618L198 1640Q266 1747 283 1825.50Q300 1904 300 1980L300 2024L364 2024M968-600Q913-600 874.50-556Q836-512 836-444L836-120L900-120L900-444Q900-485 920-510.50Q940-536 968-536Q978-536 992.50-534Q1007-532 1014-530L1032-592Q1022-595 1002-597.50Q982-600 968-600Z"  horiz-adv-x="1736" vert-adv-y="2816"  />

      
      <glyph glyph-name="uni1F8F" unicode="&#x1F8F;" d="M160 0L92 0L824 2048L912 2048L1644 0L1576 0L872 1968L864 1968L160 0M392 756L1344 756L1344 692L392 692L392 756M968-600Q913-600 874.50-556Q836-512 836-444L836-120L900-120L900-444Q900-485 920-510.50Q940-536 968-536Q978-536 992.50-534Q1007-532 1014-530L1032-592Q1022-595 1002-597.50Q982-600 968-600M322 1972L322 2024L386 2024L386 1980Q386 1889 412 1810.50Q438 1732 490 1640L444 1618Q381 1704 351.50 1789Q322 1874 322 1972M642 2298L700 2290Q690 2197 640.50 2138Q591 2079 508 2078Q457 2078 419.50 2102.50Q382 2127 350 2159.50Q318 2192 285 2217Q252 2242 210 2242Q149 2242 115.50 2198Q82 2154 72 2086L14 2094Q24 2188 75 2247Q126 2306 214 2306Q268 2306 305.50 2281Q343 2256 373 2223.50Q403 2191 434 2166.50Q465 2142 506 2142Q566 2143 599 2187Q632 2231 642 2298Z"  horiz-adv-x="1736" vert-adv-y="2816"  />

      
      <glyph glyph-name="uni1FBC" unicode="&#x1FBC;" d="M160 0L92 0L824 2048L912 2048L1644 0L1576 0L872 1968L864 1968L160 0M392 756L1344 756L1344 692L392 692L392 756M968-600Q913-600 874.50-556Q836-512 836-444L836-120L900-120L900-444Q900-485 920-510.50Q940-536 968-536Q978-536 992.50-534Q1007-532 1014-530L1032-592Q1022-595 1002-597.50Q982-600 968-600Z"  horiz-adv-x="1736" vert-adv-y="2816"  />

      
      <glyph glyph-name="uni039B" unicode="&#x039B;" d="M160 0L92 0L824 2048L912 2048L1644 0L1576 0L872 1968L864 1968L160 0Z"  horiz-adv-x="1736" vert-adv-y="2816"  />

      
      <glyph glyph-name="unic6" unicode="&#xc6;" d="M92 0L1136 2048L2468 2048L2468 1984L1440 1984L1440 1056L2408 1056L2408 992L1440 992L1440 64L2496 64L2496 0L1376 0L1376 1984L1176 1984L164 0L92 0M492 692L492 756L1412 756L1412 692L492 692Z"  horiz-adv-x="2700" vert-adv-y="2816"  />

      
      <glyph glyph-name="uni01E2" unicode="&#x01E2;" d="M92 0L1136 2048L2468 2048L2468 1984L1440 1984L1440 1056L2408 1056L2408 992L1440 992L1440 64L2496 64L2496 0L1376 0L1376 1984L1176 1984L164 0L92 0M492 692L492 756L1412 756L1412 692L492 692M2048 2424L2048 2360L1408 2360L1408 2424L2048 2424Z"  horiz-adv-x="2700" vert-adv-y="2816"  />

      
      <glyph glyph-name="uni01FC" unicode="&#x01FC;" d="M92 0L1136 2048L2468 2048L2468 1984L1440 1984L1440 1056L2408 1056L2408 992L1440 992L1440 64L2496 64L2496 0L1376 0L1376 1984L1176 1984L164 0L92 0M492 692L492 756L1412 756L1412 692L492 692M1694 2272L1974 2704L2054 2704L1758 2272L1694 2272Z"  horiz-adv-x="2700" vert-adv-y="2816"  />

      
      <glyph glyph-name="uni04D4" unicode="&#x04D4;" d="M92 0L1136 2048L2468 2048L2468 1984L1440 1984L1440 1056L2408 1056L2408 992L1440 992L1440 64L2496 64L2496 0L1376 0L1376 1984L1176 1984L164 0L92 0M492 692L492 756L1412 756L1412 692L492 692Z"  horiz-adv-x="2700" vert-adv-y="2816"  />

      
      <glyph glyph-name="uni42" unicode="&#x42;" d="M320 0L320 2048L960 2048Q1132 2048 1254.50 1985.50Q1377 1923 1442.50 1806.50Q1508 1690 1508 1528Q1508 1408 1471.50 1307Q1435 1206 1365 1137.50Q1295 1069 1196 1044L1196 1036Q1307 1027 1396 959Q1485 891 1536.50 779Q1588 667 1588 524Q1588 366 1521.50 248Q1455 130 1329.50 65Q1204 0 1028 0L320 0M384 64L1028 64Q1253 64 1388.50 190.50Q1524 317 1524 524Q1524 666 1460 775Q1396 884 1284.50 946Q1173 1008 1028 1008L384 1008L384 64M384 1072L1028 1072Q1168 1072 1260 1135Q1352 1198 1398 1302Q1444 1406 1444 1528Q1444 1746 1314 1865Q1184 1984 960 1984L384 1984L384 1072Z"  horiz-adv-x="1804" vert-adv-y="2816"  />

      
      <glyph glyph-name="uni1E02" unicode="&#x1E02;" d="M320 0L320 2048L960 2048Q1132 2048 1254.50 1985.50Q1377 1923 1442.50 1806.50Q1508 1690 1508 1528Q1508 1408 1471.50 1307Q1435 1206 1365 1137.50Q1295 1069 1196 1044L1196 1036Q1307 1027 1396 959Q1485 891 1536.50 779Q1588 667 1588 524Q1588 366 1521.50 248Q1455 130 1329.50 65Q1204 0 1028 0L320 0M384 64L1028 64Q1253 64 1388.50 190.50Q1524 317 1524 524Q1524 666 1460 775Q1396 884 1284.50 946Q1173 1008 1028 1008L384 1008L384 64M384 1072L1028 1072Q1168 1072 1260 1135Q1352 1198 1398 1302Q1444 1406 1444 1528Q1444 1746 1314 1865Q1184 1984 960 1984L384 1984L384 1072M852 2328Q826 2328 807 2347Q788 2366 788 2392Q788 2418 807 2437Q826 2456 852 2456Q878 2456 897 2437Q916 2418 916 2392Q916 2366 897 2347Q878 2328 852 2328Z"  horiz-adv-x="1804" vert-adv-y="2816"  />

      
      <glyph glyph-name="uni1E04" unicode="&#x1E04;" d="M320 0L320 2048L960 2048Q1132 2048 1254.50 1985.50Q1377 1923 1442.50 1806.50Q1508 1690 1508 1528Q1508 1408 1471.50 1307Q1435 1206 1365 1137.50Q1295 1069 1196 1044L1196 1036Q1307 1027 1396 959Q1485 891 1536.50 779Q1588 667 1588 524Q1588 366 1521.50 248Q1455 130 1329.50 65Q1204 0 1028 0L320 0M384 64L1028 64Q1253 64 1388.50 190.50Q1524 317 1524 524Q1524 666 1460 775Q1396 884 1284.50 946Q1173 1008 1028 1008L384 1008L384 64M384 1072L1028 1072Q1168 1072 1260 1135Q1352 1198 1398 1302Q1444 1406 1444 1528Q1444 1746 1314 1865Q1184 1984 960 1984L384 1984L384 1072M876-456Q850-456 831-437Q812-418 812-392Q812-366 831-347Q850-328 876-328Q902-328 921-347Q940-366 940-392Q940-418 921-437Q902-456 876-456Z"  horiz-adv-x="1804" vert-adv-y="2816"  />

      
      <glyph glyph-name="uni1E06" unicode="&#x1E06;" d="M320 0L320 2048L960 2048Q1132 2048 1254.50 1985.50Q1377 1923 1442.50 1806.50Q1508 1690 1508 1528Q1508 1408 1471.50 1307Q1435 1206 1365 1137.50Q1295 1069 1196 1044L1196 1036Q1307 1027 1396 959Q1485 891 1536.50 779Q1588 667 1588 524Q1588 366 1521.50 248Q1455 130 1329.50 65Q1204 0 1028 0L320 0M384 64L1028 64Q1253 64 1388.50 190.50Q1524 317 1524 524Q1524 666 1460 775Q1396 884 1284.50 946Q1173 1008 1028 1008L384 1008L384 64M384 1072L1028 1072Q1168 1072 1260 1135Q1352 1198 1398 1302Q1444 1406 1444 1528Q1444 1746 1314 1865Q1184 1984 960 1984L384 1984L384 1072M1196-288L1196-352L556-352L556-288L1196-288Z"  horiz-adv-x="1804" vert-adv-y="2816"  />

      
      <glyph glyph-name="uni0243" unicode="&#x0243;" d="M456 0L456 2048L1096 2048Q1268 2048 1390.50 1985.50Q1513 1923 1578.50 1806.50Q1644 1690 1644 1528Q1644 1408 1607.50 1307Q1571 1206 1501 1137.50Q1431 1069 1332 1044L1332 1036Q1443 1027 1532 959Q1621 891 1672.50 779Q1724 667 1724 524Q1724 366 1657.50 248Q1591 130 1465.50 65Q1340 0 1164 0L456 0M520 64L1164 64Q1389 64 1524.50 190.50Q1660 317 1660 524Q1660 666 1596 775Q1532 884 1420.50 946Q1309 1008 1164 1008L520 1008L520 64M520 1072L1164 1072Q1304 1072 1396 1135Q1488 1198 1534 1302Q1580 1406 1580 1528Q1580 1746 1450 1865Q1320 1984 1096 1984L520 1984L520 1072M116 568L116 632L876 632L876 568L116 568Z"  horiz-adv-x="1938" vert-adv-y="2816"  />

      
      <glyph glyph-name="uni0181" unicode="&#x0181;" d="M624 1984L448 1984Q372 1984 325 1958Q278 1932 257 1875Q236 1818 236 1724L236 1688L172 1688L172 1760Q173 1854 204 1918Q235 1982 295.50 2015Q356 2048 444 2048L624 2048L624 1984M596 0L596 2048L1236 2048Q1408 2048 1530.50 1985.50Q1653 1923 1718.50 1806.50Q1784 1690 1784 1528Q1784 1408 1747.50 1307Q1711 1206 1641 1137.50Q1571 1069 1472 1044L1472 1036Q1583 1027 1672 959Q1761 891 1812.50 779Q1864 667 1864 524Q1864 366 1797.50 248Q1731 130 1605.50 65Q1480 0 1304 0L596 0M660 64L1304 64Q1529 64 1664.50 190.50Q1800 317 1800 524Q1800 666 1736 775Q1672 884 1560.50 946Q1449 1008 1304 1008L660 1008L660 64M660 1072L1304 1072Q1444 1072 1536 1135Q1628 1198 1674 1302Q1720 1406 1720 1528Q1720 1746 1590 1865Q1460 1984 1236 1984L660 1984L660 1072Z"  horiz-adv-x="2080" vert-adv-y="2816"  />

      
      <glyph glyph-name="uni0412" unicode="&#x0412;" d="M320 0L320 2048L960 2048Q1132 2048 1254.50 1985.50Q1377 1923 1442.50 1806.50Q1508 1690 1508 1528Q1508 1408 1471.50 1307Q1435 1206 1365 1137.50Q1295 1069 1196 1044L1196 1036Q1307 1027 1396 959Q1485 891 1536.50 779Q1588 667 1588 524Q1588 366 1521.50 248Q1455 130 1329.50 65Q1204 0 1028 0L320 0M384 64L1028 64Q1253 64 1388.50 190.50Q1524 317 1524 524Q1524 666 1460 775Q1396 884 1284.50 946Q1173 1008 1028 1008L384 1008L384 64M384 1072L1028 1072Q1168 1072 1260 1135Q1352 1198 1398 1302Q1444 1406 1444 1528Q1444 1746 1314 1865Q1184 1984 960 1984L384 1984L384 1072Z"  horiz-adv-x="1804" vert-adv-y="2816"  />

      
      <glyph glyph-name="uni0392" unicode="&#x0392;" d="M320 0L320 2048L960 2048Q1132 2048 1254.50 1985.50Q1377 1923 1442.50 1806.50Q1508 1690 1508 1528Q1508 1408 1471.50 1307Q1435 1206 1365 1137.50Q1295 1069 1196 1044L1196 1036Q1307 1027 1396 959Q1485 891 1536.50 779Q1588 667 1588 524Q1588 366 1521.50 248Q1455 130 1329.50 65Q1204 0 1028 0L320 0M384 64L1028 64Q1253 64 1388.50 190.50Q1524 317 1524 524Q1524 666 1460 775Q1396 884 1284.50 946Q1173 1008 1028 1008L384 1008L384 64M384 1072L1028 1072Q1168 1072 1260 1135Q1352 1198 1398 1302Q1444 1406 1444 1528Q1444 1746 1314 1865Q1184 1984 960 1984L384 1984L384 1072Z"  horiz-adv-x="1804" vert-adv-y="2816"  />

      
      <glyph glyph-name="uni43" unicode="&#x43;" d="M1836 1408L1768 1408Q1749 1510 1694 1616Q1639 1722 1548 1812Q1457 1902 1333 1957Q1209 2012 1052 2012Q842 2012 663.50 1897.50Q485 1783 376.50 1562.50Q268 1342 268 1024Q268 702 376.50 482Q485 262 663.50 149Q842 36 1052 36Q1209 36 1333 90.50Q1457 145 1548 234.50Q1639 324 1694 430.50Q1749 537 1768 640L1836 640Q1817 532 1760 415.50Q1703 299 1606 198Q1509 97 1371 34.50Q1233-28 1052-28Q800-28 609 104Q418 236 311 473Q204 710 204 1024Q204 1338 311 1575Q418 1812 609 1944Q800 2076 1052 2076Q1233 2076 1371 2014Q1509 1952 1606 1851.50Q1703 1751 1760 1634.50Q1817 1518 1836 1408Z"  horiz-adv-x="2036" vert-adv-y="2816"  />

      
      <glyph glyph-name="uni0187" unicode="&#x0187;" d="M1836 1408L1772 1408L1772 1748Q1772 1850 1797.50 1915.50Q1823 1981 1876 2012.50Q1929 2044 2010 2044Q2025 2044 2038 2043Q2051 2042 2060 2040L2060 1976Q2050 1978 2037 1979Q2024 1980 2010 1980Q1947 1980 1909 1957Q1871 1934 1853.50 1883Q1836 1832 1836 1748L1836 1408M1836 1408L1768 1408Q1749 1510 1694 1616Q1639 1722 1548 1812Q1457 1902 1333 1957Q1209 2012 1052 2012Q842 2012 663.50 1897.50Q485 1783 376.50 1562.50Q268 1342 268 1024Q268 702 376.50 482Q485 262 663.50 149Q842 36 1052 36Q1209 36 1333 90.50Q1457 145 1548 234.50Q1639 324 1694 430.50Q1749 537 1768 640L1836 640Q1817 532 1760 415.50Q1703 299 1606 198Q1509 97 1371 34.50Q1233-28 1052-28Q800-28 609 104Q418 236 311 473Q204 710 204 1024Q204 1338 311 1575Q418 1812 609 1944Q800 2076 1052 2076Q1233 2076 1371 2014Q1509 1952 1606 1851.50Q1703 1751 1760 1634.50Q1817 1518 1836 1408Z"  horiz-adv-x="1985" vert-adv-y="2816"  />

      
      <glyph glyph-name="unic7" unicode="&#xc7;" d="M1836 1408L1768 1408Q1749 1510 1694 1616Q1639 1722 1548 1812Q1457 1902 1333 1957Q1209 2012 1052 2012Q842 2012 663.50 1897.50Q485 1783 376.50 1562.50Q268 1342 268 1024Q268 702 376.50 482Q485 262 663.50 149Q842 36 1052 36Q1209 36 1333 90.50Q1457 145 1548 234.50Q1639 324 1694 430.50Q1749 537 1768 640L1836 640Q1817 532 1760 415.50Q1703 299 1606 198Q1509 97 1371 34.50Q1233-28 1052-28Q800-28 609 104Q418 236 311 473Q204 710 204 1024Q204 1338 311 1575Q418 1812 609 1944Q800 2076 1052 2076Q1233 2076 1371 2014Q1509 1952 1606 1851.50Q1703 1751 1760 1634.50Q1817 1518 1836 1408M1020 8L1084 8L1070-72Q1172-88 1224.50-149.50Q1277-211 1278-304Q1277-410 1208.50-460.50Q1140-511 1008-516L1006-452Q1118-448 1165.50-412.50Q1213-377 1214-304Q1213-218 1157.50-174Q1102-130 992-132L1020 8Z"  horiz-adv-x="2036" vert-adv-y="2816"  />

      
      <glyph glyph-name="uni0106" unicode="&#x0106;" d="M1836 1408L1768 1408Q1749 1510 1694 1616Q1639 1722 1548 1812Q1457 1902 1333 1957Q1209 2012 1052 2012Q842 2012 663.50 1897.50Q485 1783 376.50 1562.50Q268 1342 268 1024Q268 702 376.50 482Q485 262 663.50 149Q842 36 1052 36Q1209 36 1333 90.50Q1457 145 1548 234.50Q1639 324 1694 430.50Q1749 537 1768 640L1836 640Q1817 532 1760 415.50Q1703 299 1606 198Q1509 97 1371 34.50Q1233-28 1052-28Q800-28 609 104Q418 236 311 473Q204 710 204 1024Q204 1338 311 1575Q418 1812 609 1944Q800 2076 1052 2076Q1233 2076 1371 2014Q1509 1952 1606 1851.50Q1703 1751 1760 1634.50Q1817 1518 1836 1408M1018 2272L1298 2704L1378 2704L1082 2272L1018 2272Z"  horiz-adv-x="2036" vert-adv-y="2816"  />

      
      <glyph glyph-name="uni0108" unicode="&#x0108;" d="M1836 1408L1768 1408Q1749 1510 1694 1616Q1639 1722 1548 1812Q1457 1902 1333 1957Q1209 2012 1052 2012Q842 2012 663.50 1897.50Q485 1783 376.50 1562.50Q268 1342 268 1024Q268 702 376.50 482Q485 262 663.50 149Q842 36 1052 36Q1209 36 1333 90.50Q1457 145 1548 234.50Q1639 324 1694 430.50Q1749 537 1768 640L1836 640Q1817 532 1760 415.50Q1703 299 1606 198Q1509 97 1371 34.50Q1233-28 1052-28Q800-28 609 104Q418 236 311 473Q204 710 204 1024Q204 1338 311 1575Q418 1812 609 1944Q800 2076 1052 2076Q1233 2076 1371 2014Q1509 1952 1606 1851.50Q1703 1751 1760 1634.50Q1817 1518 1836 1408M1352 2208L1052 2516L752 2208L676 2208L676 2216L1044 2592L1060 2592L1428 2216L1428 2208L1352 2208Z"  horiz-adv-x="2036" vert-adv-y="2816"  />

      
      <glyph glyph-name="uni010A" unicode="&#x010A;" d="M1836 1408L1768 1408Q1749 1510 1694 1616Q1639 1722 1548 1812Q1457 1902 1333 1957Q1209 2012 1052 2012Q842 2012 663.50 1897.50Q485 1783 376.50 1562.50Q268 1342 268 1024Q268 702 376.50 482Q485 262 663.50 149Q842 36 1052 36Q1209 36 1333 90.50Q1457 145 1548 234.50Q1639 324 1694 430.50Q1749 537 1768 640L1836 640Q1817 532 1760 415.50Q1703 299 1606 198Q1509 97 1371 34.50Q1233-28 1052-28Q800-28 609 104Q418 236 311 473Q204 710 204 1024Q204 1338 311 1575Q418 1812 609 1944Q800 2076 1052 2076Q1233 2076 1371 2014Q1509 1952 1606 1851.50Q1703 1751 1760 1634.50Q1817 1518 1836 1408M1052 2328Q1026 2328 1007 2347Q988 2366 988 2392Q988 2418 1007 2437Q1026 2456 1052 2456Q1078 2456 1097 2437Q1116 2418 1116 2392Q1116 2366 1097 2347Q1078 2328 1052 2328Z"  horiz-adv-x="2036" vert-adv-y="2816"  />

      
      <glyph glyph-name="uni010C" unicode="&#x010C;" d="M1836 1408L1768 1408Q1749 1510 1694 1616Q1639 1722 1548 1812Q1457 1902 1333 1957Q1209 2012 1052 2012Q842 2012 663.50 1897.50Q485 1783 376.50 1562.50Q268 1342 268 1024Q268 702 376.50 482Q485 262 663.50 149Q842 36 1052 36Q1209 36 1333 90.50Q1457 145 1548 234.50Q1639 324 1694 430.50Q1749 537 1768 640L1836 640Q1817 532 1760 415.50Q1703 299 1606 198Q1509 97 1371 34.50Q1233-28 1052-28Q800-28 609 104Q418 236 311 473Q204 710 204 1024Q204 1338 311 1575Q418 1812 609 1944Q800 2076 1052 2076Q1233 2076 1371 2014Q1509 1952 1606 1851.50Q1703 1751 1760 1634.50Q1817 1518 1836 1408M752 2644L1052 2336L1352 2644L1428 2644L1428 2636L1060 2260L1044 2260L676 2636L676 2644L752 2644Z"  horiz-adv-x="2036" vert-adv-y="2816"  />

      
      <glyph glyph-name="uni1E08" unicode="&#x1E08;" d="M1836 1408L1768 1408Q1749 1510 1694 1616Q1639 1722 1548 1812Q1457 1902 1333 1957Q1209 2012 1052 2012Q842 2012 663.50 1897.50Q485 1783 376.50 1562.50Q268 1342 268 1024Q268 702 376.50 482Q485 262 663.50 149Q842 36 1052 36Q1209 36 1333 90.50Q1457 145 1548 234.50Q1639 324 1694 430.50Q1749 537 1768 640L1836 640Q1817 532 1760 415.50Q1703 299 1606 198Q1509 97 1371 34.50Q1233-28 1052-28Q800-28 609 104Q418 236 311 473Q204 710 204 1024Q204 1338 311 1575Q418 1812 609 1944Q800 2076 1052 2076Q1233 2076 1371 2014Q1509 1952 1606 1851.50Q1703 1751 1760 1634.50Q1817 1518 1836 1408M1020 8L1084 8L1070-72Q1172-88 1224.50-149.50Q1277-211 1278-304Q1277-410 1208.50-460.50Q1140-511 1008-516L1006-452Q1118-448 1165.50-412.50Q1213-377 1214-304Q1213-218 1157.50-174Q1102-130 992-132L1020 8M1018 2272L1298 2704L1378 2704L1082 2272L1018 2272Z"  horiz-adv-x="2036" vert-adv-y="2816"  />

      
      <glyph glyph-name="uni023B" unicode="&#x023B;" d="M504-260L1500 2308L1568 2308L572-260L504-260M1836 1408L1768 1408Q1749 1510 1694 1616Q1639 1722 1548 1812Q1457 1902 1333 1957Q1209 2012 1052 2012Q842 2012 663.50 1897.50Q485 1783 376.50 1562.50Q268 1342 268 1024Q268 702 376.50 482Q485 262 663.50 149Q842 36 1052 36Q1209 36 1333 90.50Q1457 145 1548 234.50Q1639 324 1694 430.50Q1749 537 1768 640L1836 640Q1817 532 1760 415.50Q1703 299 1606 198Q1509 97 1371 34.50Q1233-28 1052-28Q800-28 609 104Q418 236 311 473Q204 710 204 1024Q204 1338 311 1575Q418 1812 609 1944Q800 2076 1052 2076Q1233 2076 1371 2014Q1509 1952 1606 1851.50Q1703 1751 1760 1634.50Q1817 1518 1836 1408Z"  horiz-adv-x="2036" vert-adv-y="2816"  />

      
      <glyph glyph-name="uni0186" unicode="&#x0186;" d="M200 640L268 640Q287 538 342 432Q397 326 488 236Q579 146 703 91Q827 36 984 36Q1194 36 1372.50 150.50Q1551 265 1659.50 485.50Q1768 706 1768 1024Q1768 1346 1659.50 1566Q1551 1786 1372.50 1899Q1194 2012 984 2012Q827 2012 703 1957.50Q579 1903 488 1813.50Q397 1724 342 1618Q287 1512 268 1408L200 1408Q219 1516 276 1632.50Q333 1749 430 1850Q527 1951 665 2013.50Q803 2076 984 2076Q1236 2076 1427 1944Q1618 1812 1725 1575Q1832 1338 1832 1024Q1832 710 1725 473Q1618 236 1427 104Q1236-28 984-28Q803-28 665 34Q527 96 430 196.50Q333 297 276 414Q219 531 200 640Z"  horiz-adv-x="2036" vert-adv-y="2816"  />

      
      <glyph glyph-name="uni03F9" unicode="&#x03F9;" d="M1836 1408L1768 1408Q1749 1510 1694 1616Q1639 1722 1548 1812Q1457 1902 1333 1957Q1209 2012 1052 2012Q842 2012 663.50 1897.50Q485 1783 376.50 1562.50Q268 1342 268 1024Q268 702 376.50 482Q485 262 663.50 149Q842 36 1052 36Q1209 36 1333 90.50Q1457 145 1548 234.50Q1639 324 1694 430.50Q1749 537 1768 640L1836 640Q1817 532 1760 415.50Q1703 299 1606 198Q1509 97 1371 34.50Q1233-28 1052-28Q800-28 609 104Q418 236 311 473Q204 710 204 1024Q204 1338 311 1575Q418 1812 609 1944Q800 2076 1052 2076Q1233 2076 1371 2014Q1509 1952 1606 1851.50Q1703 1751 1760 1634.50Q1817 1518 1836 1408Z"  horiz-adv-x="2036" vert-adv-y="2816"  />

      
      <glyph glyph-name="uni44" unicode="&#x44;" d="M856 0L320 0L320 2048L908 2048Q1191 2048 1392.50 1926.50Q1594 1805 1701.50 1578Q1809 1351 1808 1032Q1807 705 1694.50 474.50Q1582 244 1369.50 122Q1157 0 856 0M384 64L856 64Q1140 64 1339 179.50Q1538 295 1641.50 512Q1745 729 1744 1032Q1743 1331 1644.50 1544Q1546 1757 1360 1870.50Q1174 1984 908 1984L384 1984L384 64Z"  horiz-adv-x="2012" vert-adv-y="2816"  />

      
      <glyph glyph-name="uni018A" unicode="&#x018A;" d="M172 1688L172 1760Q173 1854 204 1918Q235 1982 295.50 2015Q356 2048 444 2048L644 2048L644 1984L448 1984Q372 1984 325 1958Q278 1932 257 1875Q236 1818 236 1724L236 1688L172 1688M1156 0L620 0L620 2048L1208 2048Q1491 2048 1692.50 1926.50Q1894 1805 2001.50 1578Q2109 1351 2108 1032Q2107 705 1994.50 474.50Q1882 244 1669.50 122Q1457 0 1156 0M684 64L1156 64Q1440 64 1639 179.50Q1838 295 1941.50 512Q2045 729 2044 1032Q2043 1331 1944.50 1544Q1846 1757 1660 1870.50Q1474 1984 1208 1984L684 1984L684 64Z"  horiz-adv-x="2312" vert-adv-y="2816"  />

      
      <glyph glyph-name="uni010E" unicode="&#x010E;" d="M856 0L320 0L320 2048L908 2048Q1191 2048 1392.50 1926.50Q1594 1805 1701.50 1578Q1809 1351 1808 1032Q1807 705 1694.50 474.50Q1582 244 1369.50 122Q1157 0 856 0M384 64L856 64Q1140 64 1339 179.50Q1538 295 1641.50 512Q1745 729 1744 1032Q1743 1331 1644.50 1544Q1546 1757 1360 1870.50Q1174 1984 908 1984L384 1984L384 64M568 2644L868 2336L1168 2644L1244 2644L1244 2636L876 2260L860 2260L492 2636L492 2644L568 2644Z"  horiz-adv-x="2012" vert-adv-y="2816"  />

      
      <glyph glyph-name="uni1E0A" unicode="&#x1E0A;" d="M856 0L320 0L320 2048L908 2048Q1191 2048 1392.50 1926.50Q1594 1805 1701.50 1578Q1809 1351 1808 1032Q1807 705 1694.50 474.50Q1582 244 1369.50 122Q1157 0 856 0M384 64L856 64Q1140 64 1339 179.50Q1538 295 1641.50 512Q1745 729 1744 1032Q1743 1331 1644.50 1544Q1546 1757 1360 1870.50Q1174 1984 908 1984L384 1984L384 64M868 2328Q842 2328 823 2347Q804 2366 804 2392Q804 2418 823 2437Q842 2456 868 2456Q894 2456 913 2437Q932 2418 932 2392Q932 2366 913 2347Q894 2328 868 2328Z"  horiz-adv-x="2012" vert-adv-y="2816"  />

      
      <glyph glyph-name="uni1E0C" unicode="&#x1E0C;" d="M856 0L320 0L320 2048L908 2048Q1191 2048 1392.50 1926.50Q1594 1805 1701.50 1578Q1809 1351 1808 1032Q1807 705 1694.50 474.50Q1582 244 1369.50 122Q1157 0 856 0M384 64L856 64Q1140 64 1339 179.50Q1538 295 1641.50 512Q1745 729 1744 1032Q1743 1331 1644.50 1544Q1546 1757 1360 1870.50Q1174 1984 908 1984L384 1984L384 64M812-456Q786-456 767-437Q748-418 748-392Q748-366 767-347Q786-328 812-328Q838-328 857-347Q876-366 876-392Q876-418 857-437Q838-456 812-456Z"  horiz-adv-x="2012" vert-adv-y="2816"  />

      
      <glyph glyph-name="uni1E0E" unicode="&#x1E0E;" d="M856 0L320 0L320 2048L908 2048Q1191 2048 1392.50 1926.50Q1594 1805 1701.50 1578Q1809 1351 1808 1032Q1807 705 1694.50 474.50Q1582 244 1369.50 122Q1157 0 856 0M384 64L856 64Q1140 64 1339 179.50Q1538 295 1641.50 512Q1745 729 1744 1032Q1743 1331 1644.50 1544Q1546 1757 1360 1870.50Q1174 1984 908 1984L384 1984L384 64M1132-288L1132-352L492-352L492-288L1132-288Z"  horiz-adv-x="2012" vert-adv-y="2816"  />

      
      <glyph glyph-name="uni1E10" unicode="&#x1E10;" d="M856 0L320 0L320 2048L908 2048Q1191 2048 1392.50 1926.50Q1594 1805 1701.50 1578Q1809 1351 1808 1032Q1807 705 1694.50 474.50Q1582 244 1369.50 122Q1157 0 856 0M384 64L856 64Q1140 64 1339 179.50Q1538 295 1641.50 512Q1745 729 1744 1032Q1743 1331 1644.50 1544Q1546 1757 1360 1870.50Q1174 1984 908 1984L384 1984L384 64M642-680L774-162L844-162L694-680L642-680Z"  horiz-adv-x="2012" vert-adv-y="2816"  />

      
      <glyph glyph-name="uni1E12" unicode="&#x1E12;" d="M856 0L320 0L320 2048L908 2048Q1191 2048 1392.50 1926.50Q1594 1805 1701.50 1578Q1809 1351 1808 1032Q1807 705 1694.50 474.50Q1582 244 1369.50 122Q1157 0 856 0M384 64L856 64Q1140 64 1339 179.50Q1538 295 1641.50 512Q1745 729 1744 1032Q1743 1331 1644.50 1544Q1546 1757 1360 1870.50Q1174 1984 908 1984L384 1984L384 64M1112-544L812-236L512-544L436-544L436-536L804-160L820-160L1188-536L1188-544L1112-544Z"  horiz-adv-x="2012" vert-adv-y="2816"  />

      
      <glyph glyph-name="uni0189" unicode="&#x0189;" d="M856 0L352 0L352 64L856 64Q1140 64 1339 179.50Q1538 295 1641.50 512Q1745 729 1744 1032Q1743 1331 1644.50 1544Q1546 1757 1360 1870.50Q1174 1984 908 1984L352 1984L352 2048L908 2048Q1191 2048 1392.50 1926.50Q1594 1805 1701.50 1578Q1809 1351 1808 1032Q1807 705 1694.50 474.50Q1582 244 1369.50 122Q1157 0 856 0M384 2048L384 0L320 0L320 2048L384 2048M-28 1008L-28 1072L732 1072L732 1008L-28 1008Z"  horiz-adv-x="2012" vert-adv-y="2816"  />

      
      <glyph glyph-name="uni01F2" unicode="&#x01F2;" d="M856 0L320 0L320 2048L908 2048Q1191 2048 1392.50 1926.50Q1594 1805 1701.50 1578Q1809 1351 1808 1032Q1807 705 1694.50 474.50Q1582 244 1369.50 122Q1157 0 856 0M384 64L856 64Q1140 64 1339 179.50Q1538 295 1641.50 512Q1745 729 1744 1032Q1743 1331 1644.50 1544Q1546 1757 1360 1870.50Q1174 1984 908 1984L384 1984L384 64M2228 0L2228 64L3148 1464L3148 1472L2288 1472L2288 1536L3228 1536L3228 1472L2308 72L2308 64L3268 64L3268 0L2228 0Z"  horiz-adv-x="3444" vert-adv-y="2816"  />

      
      <glyph glyph-name="uni01C5" unicode="&#x01C5;" d="M856 0L320 0L320 2048L908 2048Q1191 2048 1392.50 1926.50Q1594 1805 1701.50 1578Q1809 1351 1808 1032Q1807 705 1694.50 474.50Q1582 244 1369.50 122Q1157 0 856 0M384 64L856 64Q1140 64 1339 179.50Q1538 295 1641.50 512Q1745 729 1744 1032Q1743 1331 1644.50 1544Q1546 1757 1360 1870.50Q1174 1984 908 1984L384 1984L384 64M2228 0L2228 64L3148 1464L3148 1472L2288 1472L2288 1536L3228 1536L3228 1472L2308 72L2308 64L3268 64L3268 0L2228 0M2428 2132L2728 1824L3028 2132L3104 2132L3104 2124L2736 1748L2720 1748L2352 2124L2352 2132L2428 2132Z"  horiz-adv-x="3444" vert-adv-y="2816"  />

      
      <glyph glyph-name="uni45" unicode="&#x45;" d="M320 0L320 2048L1412 2048L1412 1984L384 1984L384 1056L1352 1056L1352 992L384 992L384 64L1440 64L1440 0L320 0Z"  horiz-adv-x="1644" vert-adv-y="2816"  />

      
      <glyph glyph-name="unic8" unicode="&#xc8;" d="M320 0L320 2048L1412 2048L1412 1984L384 1984L384 1056L1352 1056L1352 992L384 992L384 64L1440 64L1440 0L320 0M842 2272L546 2704L626 2704L906 2272L842 2272Z"  horiz-adv-x="1644" vert-adv-y="2816"  />

      
      <glyph glyph-name="unic9" unicode="&#xc9;" d="M320 0L320 2048L1412 2048L1412 1984L384 1984L384 1056L1352 1056L1352 992L384 992L384 64L1440 64L1440 0L320 0M838 2272L1118 2704L1198 2704L902 2272L838 2272Z"  horiz-adv-x="1644" vert-adv-y="2816"  />

      
      <glyph glyph-name="unica" unicode="&#xca;" d="M320 0L320 2048L1412 2048L1412 1984L384 1984L384 1056L1352 1056L1352 992L384 992L384 64L1440 64L1440 0L320 0M1172 2208L872 2516L572 2208L496 2208L496 2216L864 2592L880 2592L1248 2216L1248 2208L1172 2208Z"  horiz-adv-x="1644" vert-adv-y="2816"  />

      
      <glyph glyph-name="unicb" unicode="&#xcb;" d="M320 0L320 2048L1412 2048L1412 1984L384 1984L384 1056L1352 1056L1352 992L384 992L384 64L1440 64L1440 0L320 0M680 2328Q654 2328 635 2347Q616 2366 616 2392Q616 2418 635 2437Q654 2456 680 2456Q706 2456 725 2437Q744 2418 744 2392Q744 2366 725 2347Q706 2328 680 2328M1064 2328Q1038 2328 1019 2347Q1000 2366 1000 2392Q1000 2418 1019 2437Q1038 2456 1064 2456Q1090 2456 1109 2437Q1128 2418 1128 2392Q1128 2366 1109 2347Q1090 2328 1064 2328Z"  horiz-adv-x="1644" vert-adv-y="2816"  />

      
      <glyph glyph-name="uni0112" unicode="&#x0112;" d="M320 0L320 2048L1412 2048L1412 1984L384 1984L384 1056L1352 1056L1352 992L384 992L384 64L1440 64L1440 0L320 0M1192 2424L1192 2360L552 2360L552 2424L1192 2424Z"  horiz-adv-x="1644" vert-adv-y="2816"  />

      
      <glyph glyph-name="uni0114" unicode="&#x0114;" d="M320 0L320 2048L1412 2048L1412 1984L384 1984L384 1056L1352 1056L1352 992L384 992L384 64L1440 64L1440 0L320 0M1032 2560L1096 2560Q1096 2454 1036.50 2393Q977 2332 872 2332Q767 2332 707.50 2393Q648 2454 648 2560L712 2560Q712 2481 753 2438.50Q794 2396 872 2396Q950 2396 991 2438.50Q1032 2481 1032 2560Z"  horiz-adv-x="1644" vert-adv-y="2816"  />

      
      <glyph glyph-name="uni0116" unicode="&#x0116;" d="M320 0L320 2048L1412 2048L1412 1984L384 1984L384 1056L1352 1056L1352 992L384 992L384 64L1440 64L1440 0L320 0M872 2328Q846 2328 827 2347Q808 2366 808 2392Q808 2418 827 2437Q846 2456 872 2456Q898 2456 917 2437Q936 2418 936 2392Q936 2366 917 2347Q898 2328 872 2328Z"  horiz-adv-x="1644" vert-adv-y="2816"  />

      
      <glyph glyph-name="uni0118" unicode="&#x0118;" d="M320 0L320 2048L1412 2048L1412 1984L384 1984L384 1056L1352 1056L1352 992L384 992L384 64L1440 64L1440 0L320 0M1392-608Q1289-608 1222.50-548.50Q1156-489 1156-374Q1156-301 1183.50-239Q1211-177 1260.50-119Q1310-61 1376 0L1440 0Q1337-103 1278.50-191.50Q1220-280 1220-374Q1220-462 1268-503Q1316-544 1392-544Q1436-544 1469-531Q1502-518 1538-492L1576-544Q1533-575 1489.50-591.50Q1446-608 1392-608Z"  horiz-adv-x="1644" vert-adv-y="2816"  />

      
      <glyph glyph-name="uni011A" unicode="&#x011A;" d="M320 0L320 2048L1412 2048L1412 1984L384 1984L384 1056L1352 1056L1352 992L384 992L384 64L1440 64L1440 0L320 0M572 2644L872 2336L1172 2644L1248 2644L1248 2636L880 2260L864 2260L496 2636L496 2644L572 2644Z"  horiz-adv-x="1644" vert-adv-y="2816"  />

      
      <glyph glyph-name="uni0204" unicode="&#x0204;" d="M320 0L320 2048L1412 2048L1412 1984L384 1984L384 1056L1352 1056L1352 992L384 992L384 64L1440 64L1440 0L320 0M748 2272L432 2704L514 2704L812 2272L748 2272M968 2272L714 2704L792 2704L1032 2272L968 2272Z"  horiz-adv-x="1644" vert-adv-y="2816"  />

      
      <glyph glyph-name="uni0206" unicode="&#x0206;" d="M320 0L320 2048L1412 2048L1412 1984L384 1984L384 1056L1352 1056L1352 992L384 992L384 64L1440 64L1440 0L320 0M654 2408Q654 2514 713.50 2575Q773 2636 878 2636Q983 2636 1042.50 2575Q1102 2514 1102 2408L1038 2408Q1038 2488 997 2530Q956 2572 878 2572Q800 2572 759 2530Q718 2488 718 2408L654 2408Z"  horiz-adv-x="1644" vert-adv-y="2816"  />

      
      <glyph glyph-name="uni0228" unicode="&#x0228;" d="M320 0L320 2048L1412 2048L1412 1984L384 1984L384 1056L1352 1056L1352 992L384 992L384 64L1440 64L1440 0L320 0M796 8L860 8L846-72Q948-88 1000.50-149.50Q1053-211 1054-304Q1053-410 984.50-460.50Q916-511 784-516L782-452Q894-448 941.50-412.50Q989-377 990-304Q989-218 933.50-174Q878-130 768-132L796 8Z"  horiz-adv-x="1644" vert-adv-y="2816"  />

      
      <glyph glyph-name="uni1E14" unicode="&#x1E14;" d="M320 0L320 2048L1412 2048L1412 1984L384 1984L384 1056L1352 1056L1352 992L384 992L384 64L1440 64L1440 0L320 0M838 2528L586 2784L678 2784L914 2528L838 2528M1192 2336L1192 2272L552 2272L552 2336L1192 2336Z"  horiz-adv-x="1644" vert-adv-y="2816"  />

      
      <glyph glyph-name="uni1E16" unicode="&#x1E16;" d="M320 0L320 2048L1412 2048L1412 1984L384 1984L384 1056L1352 1056L1352 992L384 992L384 64L1440 64L1440 0L320 0M830 2528L1066 2784L1158 2784L906 2528L830 2528M1192 2336L1192 2272L552 2272L552 2336L1192 2336Z"  horiz-adv-x="1644" vert-adv-y="2816"  />

      
      <glyph glyph-name="uni1E18" unicode="&#x1E18;" d="M320 0L320 2048L1412 2048L1412 1984L384 1984L384 1056L1352 1056L1352 992L384 992L384 64L1440 64L1440 0L320 0M1124-544L824-236L524-544L448-544L448-536L816-160L832-160L1200-536L1200-544L1124-544Z"  horiz-adv-x="1644" vert-adv-y="2816"  />

      
      <glyph glyph-name="uni1E1A" unicode="&#x1E1A;" d="M320 0L320 2048L1412 2048L1412 1984L384 1984L384 1056L1352 1056L1352 992L384 992L384 64L1440 64L1440 0L320 0M428-382L364-374Q378-280 452-221Q526-162 628-162Q697-162 747-187Q797-212 838.50-244Q880-276 922.50-301Q965-326 1020-326Q1088-326 1146-283Q1204-240 1220-170L1284-186Q1262-277 1186.50-333.50Q1111-390 1020-390Q956-390 910-365Q864-340 823.50-308Q783-276 737.50-251Q692-226 628-226Q550-226 494-270Q438-314 428-382Z"  horiz-adv-x="1644" vert-adv-y="2816"  />

      
      <glyph glyph-name="uni1E1C" unicode="&#x1E1C;" d="M320 0L320 2048L1412 2048L1412 1984L384 1984L384 1056L1352 1056L1352 992L384 992L384 64L1440 64L1440 0L320 0M796 8L860 8L846-72Q948-88 1000.50-149.50Q1053-211 1054-304Q1053-410 984.50-460.50Q916-511 784-516L782-452Q894-448 941.50-412.50Q989-377 990-304Q989-218 933.50-174Q878-130 768-132L796 8M1032 2560L1096 2560Q1096 2454 1036.50 2393Q977 2332 872 2332Q767 2332 707.50 2393Q648 2454 648 2560L712 2560Q712 2481 753 2438.50Q794 2396 872 2396Q950 2396 991 2438.50Q1032 2481 1032 2560Z"  horiz-adv-x="1644" vert-adv-y="2816"  />

      
      <glyph glyph-name="uni1EB8" unicode="&#x1EB8;" d="M320 0L320 2048L1412 2048L1412 1984L384 1984L384 1056L1352 1056L1352 992L384 992L384 64L1440 64L1440 0L320 0M824-456Q798-456 779-437Q760-418 760-392Q760-366 779-347Q798-328 824-328Q850-328 869-347Q888-366 888-392Q888-418 869-437Q850-456 824-456Z"  horiz-adv-x="1644" vert-adv-y="2816"  />

      
      <glyph glyph-name="uni1EBA" unicode="&#x1EBA;" d="M320 0L320 2048L1412 2048L1412 1984L384 1984L384 1056L1352 1056L1352 992L384 992L384 64L1440 64L1440 0L320 0M902 2244L838 2244L838 2438Q953 2445 999 2479.50Q1045 2514 1044 2592Q1043 2684 984.50 2725.50Q926 2767 802 2768L812 2832Q966 2831 1038.50 2767.50Q1111 2704 1112 2600Q1113 2505 1055 2447.50Q997 2390 902 2382L902 2244Z"  horiz-adv-x="1644" vert-adv-y="2816"  />

      
      <glyph glyph-name="uni1EBC" unicode="&#x1EBC;" d="M320 0L320 2048L1412 2048L1412 1984L384 1984L384 1056L1352 1056L1352 992L384 992L384 64L1440 64L1440 0L320 0M476 2316L412 2324Q426 2418 500 2477Q574 2536 676 2536Q745 2536 795 2511Q845 2486 886.50 2454Q928 2422 970.50 2397Q1013 2372 1068 2372Q1136 2372 1194 2415Q1252 2458 1268 2528L1332 2512Q1310 2421 1234.50 2364.50Q1159 2308 1068 2308Q1004 2308 958 2333Q912 2358 871.50 2390Q831 2422 785.50 2447Q740 2472 676 2472Q598 2472 542 2428Q486 2384 476 2316Z"  horiz-adv-x="1644" vert-adv-y="2816"  />

      
      <glyph glyph-name="uni1EBE" unicode="&#x1EBE;" d="M320 0L320 2048L1412 2048L1412 1984L384 1984L384 1056L1352 1056L1352 992L384 992L384 64L1440 64L1440 0L320 0M500 2276L876 2660L892 2660L1268 2276L1184 2276L884 2584L584 2276L500 2276M1244 2524L1484 2876L1564 2876L1308 2524L1244 2524Z"  horiz-adv-x="1644" vert-adv-y="2816"  />

      
      <glyph glyph-name="uni1EC0" unicode="&#x1EC0;" d="M320 0L320 2048L1412 2048L1412 1984L384 1984L384 1056L1352 1056L1352 992L384 992L384 64L1440 64L1440 0L320 0M884 2712L1260 2328L1176 2328L876 2636L576 2328L492 2328L868 2712L884 2712M310 2928L530 2576L466 2576L230 2928L310 2928Z"  horiz-adv-x="1644" vert-adv-y="2816"  />

      
      <glyph glyph-name="uni1EC2" unicode="&#x1EC2;" d="M320 0L320 2048L1412 2048L1412 1984L384 1984L384 1056L1352 1056L1352 992L384 992L384 64L1440 64L1440 0L320 0M886 2616L1262 2232L1178 2232L878 2540L578 2232L494 2232L870 2616L886 2616M1352 2428L1288 2428L1288 2590Q1402 2597 1448 2629Q1494 2661 1494 2724Q1493 2801 1434 2840Q1375 2879 1252 2880L1262 2944Q1415 2943 1488 2882Q1561 2821 1562 2732Q1562 2652 1504 2597Q1446 2542 1352 2534L1352 2428Z"  horiz-adv-x="1644" vert-adv-y="2816"  />

      
      <glyph glyph-name="uni1EC4" unicode="&#x1EC4;" d="M320 0L320 2048L1412 2048L1412 1984L384 1984L384 1056L1352 1056L1352 992L384 992L384 64L1440 64L1440 0L320 0M858 2564L1234 2180L1150 2180L850 2488L550 2180L466 2180L842 2564L858 2564M1168 2888L1232 2880Q1216 2780 1150 2724Q1084 2668 1006 2668Q949 2668 909 2692.50Q869 2717 837 2749Q805 2781 771.50 2806Q738 2831 694 2832Q641 2833 593.50 2793Q546 2753 534 2676L470 2684Q487 2785 552.50 2840.50Q618 2896 692 2896Q746 2896 786 2871.50Q826 2847 859 2815Q892 2783 927.50 2758Q963 2733 1008 2732Q1062 2731 1109.50 2771.50Q1157 2812 1168 2888Z"  horiz-adv-x="1644" vert-adv-y="2816"  />

      
      <glyph glyph-name="uni1EC6" unicode="&#x1EC6;" d="M320 0L320 2048L1412 2048L1412 1984L384 1984L384 1056L1352 1056L1352 992L384 992L384 64L1440 64L1440 0L320 0M1172 2208L872 2516L572 2208L496 2208L496 2216L864 2592L880 2592L1248 2216L1248 2208L1172 2208M824-456Q798-456 779-437Q760-418 760-392Q760-366 779-347Q798-328 824-328Q850-328 869-347Q888-366 888-392Q888-418 869-437Q850-456 824-456Z"  horiz-adv-x="1644" vert-adv-y="2816"  />

      
      <glyph glyph-name="uni0246" unicode="&#x0246;" d="M1304 2308L562-260L502-260L1244 2308L1304 2308M320 0L320 2048L1412 2048L1412 1984L384 1984L384 1056L1352 1056L1352 992L384 992L384 64L1440 64L1440 0L320 0Z"  horiz-adv-x="1644" vert-adv-y="2816"  />

      
      <glyph glyph-name="uni018E" unicode="&#x018E;" d="M1324 2048L1324 0L232 0L232 64L1260 64L1260 992L292 992L292 1056L1260 1056L1260 1984L204 1984L204 2048L1324 2048Z"  horiz-adv-x="1644" vert-adv-y="2816"  />

      
      <glyph glyph-name="uni0395" unicode="&#x0395;" d="M320 0L320 2048L1412 2048L1412 1984L384 1984L384 1056L1352 1056L1352 992L384 992L384 64L1440 64L1440 0L320 0Z"  horiz-adv-x="1644" vert-adv-y="2816"  />

      
      <glyph glyph-name="uni0388" unicode="&#x0388;" d="M356 0L356 2048L1448 2048L1448 1984L420 1984L420 1056L1388 1056L1388 992L420 992L420 64L1476 64L1476 0L356 0M82 1696L122 2156L202 2156L130 1696L82 1696Z"  horiz-adv-x="1680" vert-adv-y="2816"  />

      
      <glyph glyph-name="uni1F18" unicode="&#x1F18;" d="M624 0L624 2048L1716 2048L1716 1984L688 1984L688 1056L1656 1056L1656 992L688 992L688 64L1744 64L1744 0L624 0M376 2048L376 1996Q376 1906 360.50 1835Q345 1764 306 1699Q267 1634 196 1562L150 1584Q215 1661 250 1723.50Q285 1786 298.50 1852Q312 1918 312 2004L312 2048L376 2048Z"  horiz-adv-x="1948" vert-adv-y="2816"  />

      
      <glyph glyph-name="uni1F19" unicode="&#x1F19;" d="M580 0L580 2048L1672 2048L1672 1984L644 1984L644 1056L1612 1056L1612 992L644 992L644 64L1700 64L1700 0L580 0M182 2004L182 2056L246 2056L246 2012Q246 1926 259.50 1860.50Q273 1795 308 1732Q343 1669 408 1592L362 1570Q256 1678 219 1773.50Q182 1869 182 2004Z"  horiz-adv-x="1904" vert-adv-y="2816"  />

      
      <glyph glyph-name="uni1F1A" unicode="&#x1F1A;" d="M1184 0L1184 2048L2276 2048L2276 1984L1248 1984L1248 1056L2216 1056L2216 992L1248 992L1248 64L2304 64L2304 0L1184 0M966 1602L966 1584L918 1584L634 2030L634 2048L702 2048L966 1602M570 2048L570 1996Q570 1906 554.50 1835Q539 1764 500 1699Q461 1634 390 1562L344 1584Q442 1699 474 1787Q506 1875 506 2004L506 2048L570 2048Z"  horiz-adv-x="2508" vert-adv-y="2816"  />

      
      <glyph glyph-name="uni1F1B" unicode="&#x1F1B;" d="M1060 0L1060 2048L2152 2048L2152 1984L1124 1984L1124 1056L2092 1056L2092 992L1124 992L1124 64L2180 64L2180 0L1060 0M820 1610L820 1592L772 1592L488 2038L488 2056L556 2056L820 1610M354 2004L354 2056L418 2056L418 2012Q418 1883 450.50 1795Q483 1707 580 1592L534 1570Q428 1678 391 1773Q354 1868 354 2004Z"  horiz-adv-x="2384" vert-adv-y="2816"  />

      
      <glyph glyph-name="uni1F1C" unicode="&#x1F1C;" d="M992 0L992 2048L2084 2048L2084 1984L1056 1984L1056 1056L2024 1056L2024 992L1056 992L1056 64L2112 64L2112 0L992 0M304 1592L304 1610L568 2056L636 2056L636 2038L352 1592L304 1592M280 2056L280 2004Q280 1914 264.50 1843Q249 1772 210 1707Q171 1642 100 1570L54 1592Q152 1707 184 1795Q216 1883 216 2012L216 2056L280 2056Z"  horiz-adv-x="2316" vert-adv-y="2816"  />

      
      <glyph glyph-name="uni1F1D" unicode="&#x1F1D;" d="M1048 0L1048 2048L2140 2048L2140 1984L1112 1984L1112 1056L2080 1056L2080 992L1112 992L1112 64L2168 64L2168 0L1048 0M494 1592L494 1610L758 2056L826 2056L826 2038L542 1592L494 1592M408 1570Q302 1678 265 1773Q228 1868 228 2004L228 2056L292 2056L292 2012Q292 1883 324.50 1795Q357 1707 454 1592L408 1570Z"  horiz-adv-x="2372" vert-adv-y="2816"  />

      
      <glyph glyph-name="uni1FC8" unicode="&#x1FC8;" d="M756 0L756 2048L1848 2048L1848 1984L820 1984L820 1056L1788 1056L1788 992L820 992L820 64L1876 64L1876 0L756 0M356 1580L72 2026L72 2044L140 2044L404 1598L404 1580L356 1580Z"  horiz-adv-x="2080" vert-adv-y="2816"  />

      
      <glyph glyph-name="uni1FC9" unicode="&#x1FC9;" d="M628 0L628 2048L1720 2048L1720 1984L692 1984L692 1056L1660 1056L1660 992L692 992L692 64L1748 64L1748 0L628 0M260 1728L260 1732L512 2196L588 2196L588 2192L314 1728L260 1728Z"  horiz-adv-x="1952" vert-adv-y="2816"  />

      
      <glyph glyph-name="uni0415" unicode="&#x0415;" d="M320 0L320 2048L1412 2048L1412 1984L384 1984L384 1056L1352 1056L1352 992L384 992L384 64L1440 64L1440 0L320 0Z"  horiz-adv-x="1644" vert-adv-y="2816"  />

      
      <glyph glyph-name="uni0400" unicode="&#x0400;" d="M320 0L320 2048L1412 2048L1412 1984L384 1984L384 1056L1352 1056L1352 992L384 992L384 64L1440 64L1440 0L320 0M842 2272L546 2704L626 2704L906 2272L842 2272Z"  horiz-adv-x="1644" vert-adv-y="2816"  />

      
      <glyph glyph-name="uni0401" unicode="&#x0401;" d="M320 0L320 2048L1412 2048L1412 1984L384 1984L384 1056L1352 1056L1352 992L384 992L384 64L1440 64L1440 0L320 0M680 2328Q654 2328 635 2347Q616 2366 616 2392Q616 2418 635 2437Q654 2456 680 2456Q706 2456 725 2437Q744 2418 744 2392Q744 2366 725 2347Q706 2328 680 2328M1064 2328Q1038 2328 1019 2347Q1000 2366 1000 2392Q1000 2418 1019 2437Q1038 2456 1064 2456Q1090 2456 1109 2437Q1128 2418 1128 2392Q1128 2366 1109 2347Q1090 2328 1064 2328Z"  horiz-adv-x="1644" vert-adv-y="2816"  />

      
      <glyph glyph-name="uni04D6" unicode="&#x04D6;" d="M320 0L320 2048L1412 2048L1412 1984L384 1984L384 1056L1352 1056L1352 992L384 992L384 64L1440 64L1440 0L320 0M1032 2560L1096 2560Q1096 2454 1036.50 2393Q977 2332 872 2332Q767 2332 707.50 2393Q648 2454 648 2560L712 2560Q712 2481 753 2438.50Q794 2396 872 2396Q950 2396 991 2438.50Q1032 2481 1032 2560Z"  horiz-adv-x="1644" vert-adv-y="2816"  />

      
      <glyph glyph-name="uni46" unicode="&#x46;" d="M320 0L320 2048L1420 2048L1420 1984L384 1984L384 1056L1324 1056L1324 992L384 992L384 0L320 0Z"  horiz-adv-x="1648" vert-adv-y="2816"  />

      
      <glyph glyph-name="uni0191" unicode="&#x0191;" d="M256 0L320 0L320-232Q320-314 302.50-377.50Q285-441 250-484.50Q215-528 164.50-550Q114-572 48-572Q26-572 5-570Q-16-568-30-564L-30-500Q-16-504 2-506Q20-508 42-508Q150-508 203-439.50Q256-371 256-232L256 0M256 0L256 2048L1356 2048L1356 1984L320 1984L320 1056L1260 1056L1260 992L320 992L320 0L256 0Z"  horiz-adv-x="1584" vert-adv-y="2816"  />

      
      <glyph glyph-name="uni1E1E" unicode="&#x1E1E;" d="M320 0L320 2048L1420 2048L1420 1984L384 1984L384 1056L1324 1056L1324 992L384 992L384 0L320 0M872 2328Q846 2328 827 2347Q808 2366 808 2392Q808 2418 827 2437Q846 2456 872 2456Q898 2456 917 2437Q936 2418 936 2392Q936 2366 917 2347Q898 2328 872 2328Z"  horiz-adv-x="1648" vert-adv-y="2816"  />

      
      <glyph glyph-name="uni2132" unicode="&#x2132;" d="M1328 2048L1328 0L228 0L228 64L1264 64L1264 992L324 992L324 1056L1264 1056L1264 2048L1328 2048Z"  horiz-adv-x="1648" vert-adv-y="2816"  />

      
      <glyph glyph-name="uni47" unicode="&#x47;" d="M1772 1408Q1754 1513 1698.50 1619.50Q1643 1726 1551.50 1815Q1460 1904 1335 1958Q1210 2012 1052 2012Q817 2012 640.50 1888.50Q464 1765 366 1542.50Q268 1320 268 1024Q268 732 365 509Q462 286 640 161Q818 36 1060 36Q1274 36 1440 137.50Q1606 239 1699 429.50Q1792 620 1788 888L1816 864L1080 864L1080 928L1852 928L1852 864Q1852 584 1750 384.50Q1648 185 1469 78.50Q1290-28 1060-28Q800-28 607.50 104.50Q415 237 309.50 474Q204 711 204 1024Q204 1260 264.50 1453.50Q325 1647 437.50 1786.50Q550 1926 706 2001Q862 2076 1052 2076Q1232 2076 1370 2014Q1508 1952 1605.50 1851.50Q1703 1751 1760.50 1634.50Q1818 1518 1836 1408L1772 1408Z"  horiz-adv-x="2080" vert-adv-y="2816"  />

      
      <glyph glyph-name="uni01E4" unicode="&#x01E4;" d="M2000 560L2000 496L1080 496L1080 560L2000 560M1772 1408Q1754 1513 1698.50 1619.50Q1643 1726 1551.50 1815Q1460 1904 1335 1958Q1210 2012 1052 2012Q817 2012 640.50 1888.50Q464 1765 366 1542.50Q268 1320 268 1024Q268 732 365 509Q462 286 640 161Q818 36 1060 36Q1274 36 1440 137.50Q1606 239 1699 429.50Q1792 620 1788 888L1816 864L1080 864L1080 928L1852 928L1852 864Q1852 584 1750 384.50Q1648 185 1469 78.50Q1290-28 1060-28Q800-28 607.50 104.50Q415 237 309.50 474Q204 711 204 1024Q204 1260 264.50 1453.50Q325 1647 437.50 1786.50Q550 1926 706 2001Q862 2076 1052 2076Q1232 2076 1370 2014Q1508 1952 1605.50 1851.50Q1703 1751 1760.50 1634.50Q1818 1518 1836 1408L1772 1408Z"  horiz-adv-x="2080" vert-adv-y="2816"  />

      
      <glyph glyph-name="uni0193" unicode="&#x0193;" d="M1836 1408L1772 1408L1772 1640Q1772 1718 1787 1774Q1802 1830 1833 1866Q1864 1902 1912 1919Q1960 1936 2026 1936Q2046 1936 2072.50 1934.50Q2099 1933 2124 1930L2124 1866Q2098 1869 2072 1870.50Q2046 1872 2026 1872Q1956 1872 1914 1849Q1872 1826 1854 1775.50Q1836 1725 1836 1640L1836 1408M1772 1408Q1754 1513 1698.50 1619.50Q1643 1726 1551.50 1815Q1460 1904 1335 1958Q1210 2012 1052 2012Q817 2012 640.50 1888.50Q464 1765 366 1542.50Q268 1320 268 1024Q268 732 365 509Q462 286 640 161Q818 36 1060 36Q1274 36 1440 137.50Q1606 239 1699 429.50Q1792 620 1788 888L1816 864L1080 864L1080 928L1852 928L1852 864Q1852 584 1750 384.50Q1648 185 1469 78.50Q1290-28 1060-28Q800-28 607.50 104.50Q415 237 309.50 474Q204 711 204 1024Q204 1260 264.50 1453.50Q325 1647 437.50 1786.50Q550 1926 706 2001Q862 2076 1052 2076Q1232 2076 1370 2014Q1508 1952 1605.50 1851.50Q1703 1751 1760.50 1634.50Q1818 1518 1836 1408L1772 1408Z"  horiz-adv-x="2003" vert-adv-y="2816"  />

      
      <glyph glyph-name="uni011C" unicode="&#x011C;" d="M1772 1408Q1754 1513 1698.50 1619.50Q1643 1726 1551.50 1815Q1460 1904 1335 1958Q1210 2012 1052 2012Q817 2012 640.50 1888.50Q464 1765 366 1542.50Q268 1320 268 1024Q268 732 365 509Q462 286 640 161Q818 36 1060 36Q1274 36 1440 137.50Q1606 239 1699 429.50Q1792 620 1788 888L1816 864L1080 864L1080 928L1852 928L1852 864Q1852 584 1750 384.50Q1648 185 1469 78.50Q1290-28 1060-28Q800-28 607.50 104.50Q415 237 309.50 474Q204 711 204 1024Q204 1260 264.50 1453.50Q325 1647 437.50 1786.50Q550 1926 706 2001Q862 2076 1052 2076Q1232 2076 1370 2014Q1508 1952 1605.50 1851.50Q1703 1751 1760.50 1634.50Q1818 1518 1836 1408L1772 1408M1340 2208L1040 2516L740 2208L664 2208L664 2216L1032 2592L1048 2592L1416 2216L1416 2208L1340 2208Z"  horiz-adv-x="2080" vert-adv-y="2816"  />

      
      <glyph glyph-name="uni011E" unicode="&#x011E;" d="M1772 1408Q1754 1513 1698.50 1619.50Q1643 1726 1551.50 1815Q1460 1904 1335 1958Q1210 2012 1052 2012Q817 2012 640.50 1888.50Q464 1765 366 1542.50Q268 1320 268 1024Q268 732 365 509Q462 286 640 161Q818 36 1060 36Q1274 36 1440 137.50Q1606 239 1699 429.50Q1792 620 1788 888L1816 864L1080 864L1080 928L1852 928L1852 864Q1852 584 1750 384.50Q1648 185 1469 78.50Q1290-28 1060-28Q800-28 607.50 104.50Q415 237 309.50 474Q204 711 204 1024Q204 1260 264.50 1453.50Q325 1647 437.50 1786.50Q550 1926 706 2001Q862 2076 1052 2076Q1232 2076 1370 2014Q1508 1952 1605.50 1851.50Q1703 1751 1760.50 1634.50Q1818 1518 1836 1408L1772 1408M1200 2560L1264 2560Q1264 2454 1204.50 2393Q1145 2332 1040 2332Q935 2332 875.50 2393Q816 2454 816 2560L880 2560Q880 2481 921 2438.50Q962 2396 1040 2396Q1118 2396 1159 2438.50Q1200 2481 1200 2560Z"  horiz-adv-x="2080" vert-adv-y="2816"  />

      
      <glyph glyph-name="uni0120" unicode="&#x0120;" d="M1772 1408Q1754 1513 1698.50 1619.50Q1643 1726 1551.50 1815Q1460 1904 1335 1958Q1210 2012 1052 2012Q817 2012 640.50 1888.50Q464 1765 366 1542.50Q268 1320 268 1024Q268 732 365 509Q462 286 640 161Q818 36 1060 36Q1274 36 1440 137.50Q1606 239 1699 429.50Q1792 620 1788 888L1816 864L1080 864L1080 928L1852 928L1852 864Q1852 584 1750 384.50Q1648 185 1469 78.50Q1290-28 1060-28Q800-28 607.50 104.50Q415 237 309.50 474Q204 711 204 1024Q204 1260 264.50 1453.50Q325 1647 437.50 1786.50Q550 1926 706 2001Q862 2076 1052 2076Q1232 2076 1370 2014Q1508 1952 1605.50 1851.50Q1703 1751 1760.50 1634.50Q1818 1518 1836 1408L1772 1408M1040 2328Q1014 2328 995 2347Q976 2366 976 2392Q976 2418 995 2437Q1014 2456 1040 2456Q1066 2456 1085 2437Q1104 2418 1104 2392Q1104 2366 1085 2347Q1066 2328 1040 2328Z"  horiz-adv-x="2080" vert-adv-y="2816"  />

      
      <glyph glyph-name="uni0122" unicode="&#x0122;" d="M1772 1408Q1754 1513 1698.50 1619.50Q1643 1726 1551.50 1815Q1460 1904 1335 1958Q1210 2012 1052 2012Q817 2012 640.50 1888.50Q464 1765 366 1542.50Q268 1320 268 1024Q268 732 365 509Q462 286 640 161Q818 36 1060 36Q1274 36 1440 137.50Q1606 239 1699 429.50Q1792 620 1788 888L1816 864L1080 864L1080 928L1852 928L1852 864Q1852 584 1750 384.50Q1648 185 1469 78.50Q1290-28 1060-28Q800-28 607.50 104.50Q415 237 309.50 474Q204 711 204 1024Q204 1260 264.50 1453.50Q325 1647 437.50 1786.50Q550 1926 706 2001Q862 2076 1052 2076Q1232 2076 1370 2014Q1508 1952 1605.50 1851.50Q1703 1751 1760.50 1634.50Q1818 1518 1836 1408L1772 1408M870-680L1002-162L1072-162L922-680L870-680Z"  horiz-adv-x="2080" vert-adv-y="2816"  />

      
      <glyph glyph-name="uni01E6" unicode="&#x01E6;" d="M1772 1408Q1754 1513 1698.50 1619.50Q1643 1726 1551.50 1815Q1460 1904 1335 1958Q1210 2012 1052 2012Q817 2012 640.50 1888.50Q464 1765 366 1542.50Q268 1320 268 1024Q268 732 365 509Q462 286 640 161Q818 36 1060 36Q1274 36 1440 137.50Q1606 239 1699 429.50Q1792 620 1788 888L1816 864L1080 864L1080 928L1852 928L1852 864Q1852 584 1750 384.50Q1648 185 1469 78.50Q1290-28 1060-28Q800-28 607.50 104.50Q415 237 309.50 474Q204 711 204 1024Q204 1260 264.50 1453.50Q325 1647 437.50 1786.50Q550 1926 706 2001Q862 2076 1052 2076Q1232 2076 1370 2014Q1508 1952 1605.50 1851.50Q1703 1751 1760.50 1634.50Q1818 1518 1836 1408L1772 1408M740 2644L1040 2336L1340 2644L1416 2644L1416 2636L1048 2260L1032 2260L664 2636L664 2644L740 2644Z"  horiz-adv-x="2080" vert-adv-y="2816"  />

      
      <glyph glyph-name="uni01F4" unicode="&#x01F4;" d="M1772 1408Q1754 1513 1698.50 1619.50Q1643 1726 1551.50 1815Q1460 1904 1335 1958Q1210 2012 1052 2012Q817 2012 640.50 1888.50Q464 1765 366 1542.50Q268 1320 268 1024Q268 732 365 509Q462 286 640 161Q818 36 1060 36Q1274 36 1440 137.50Q1606 239 1699 429.50Q1792 620 1788 888L1816 864L1080 864L1080 928L1852 928L1852 864Q1852 584 1750 384.50Q1648 185 1469 78.50Q1290-28 1060-28Q800-28 607.50 104.50Q415 237 309.50 474Q204 711 204 1024Q204 1260 264.50 1453.50Q325 1647 437.50 1786.50Q550 1926 706 2001Q862 2076 1052 2076Q1232 2076 1370 2014Q1508 1952 1605.50 1851.50Q1703 1751 1760.50 1634.50Q1818 1518 1836 1408L1772 1408M1006 2272L1286 2704L1366 2704L1070 2272L1006 2272Z"  horiz-adv-x="2080" vert-adv-y="2816"  />

      
      <glyph glyph-name="uni1E20" unicode="&#x1E20;" d="M1772 1408Q1754 1513 1698.50 1619.50Q1643 1726 1551.50 1815Q1460 1904 1335 1958Q1210 2012 1052 2012Q817 2012 640.50 1888.50Q464 1765 366 1542.50Q268 1320 268 1024Q268 732 365 509Q462 286 640 161Q818 36 1060 36Q1274 36 1440 137.50Q1606 239 1699 429.50Q1792 620 1788 888L1816 864L1080 864L1080 928L1852 928L1852 864Q1852 584 1750 384.50Q1648 185 1469 78.50Q1290-28 1060-28Q800-28 607.50 104.50Q415 237 309.50 474Q204 711 204 1024Q204 1260 264.50 1453.50Q325 1647 437.50 1786.50Q550 1926 706 2001Q862 2076 1052 2076Q1232 2076 1370 2014Q1508 1952 1605.50 1851.50Q1703 1751 1760.50 1634.50Q1818 1518 1836 1408L1772 1408M1360 2424L1360 2360L720 2360L720 2424L1360 2424Z"  horiz-adv-x="2080" vert-adv-y="2816"  />

      
      <glyph glyph-name="uniE002" unicode="&#xE002;" d="M1060-28Q800-28 607.50 104.50Q415 237 309.50 474Q204 711 204 1024Q204 1260 264.50 1453.50Q325 1647 437.50 1786.50Q550 1926 706 2001Q862 2076 1052 2076Q1232 2076 1370.50 2014Q1509 1952 1606 1851.50Q1703 1751 1760.50 1634.50Q1818 1518 1836 1408L1772 1408Q1754 1513 1698.50 1619.50Q1643 1726 1552 1815Q1461 1904 1335.50 1958Q1210 2012 1052 2012Q817 2012 640.50 1888.50Q464 1765 366 1542.50Q268 1320 268 1024Q268 732 365 509.50Q462 287 640 161.50Q818 36 1060 36Q1274 36 1440 137.50Q1606 239 1699 429.50Q1792 620 1788 888L1816 864L1080 864L1080 928L1852 928L1852 0L1788 0L1788 474L1780 474Q1689 228 1499.50 100Q1310-28 1060-28Z"  horiz-adv-x="2080" vert-adv-y="2816"  />

      
      <glyph glyph-name="uniE003" unicode="&#xE003;" d="M2000 560L2000 496L1080 496L1080 560L2000 560M1060-28Q800-28 607.50 104.50Q415 237 309.50 474Q204 711 204 1024Q204 1260 264.50 1453.50Q325 1647 437.50 1786.50Q550 1926 706 2001Q862 2076 1052 2076Q1232 2076 1370.50 2014Q1509 1952 1606 1851.50Q1703 1751 1760.50 1634.50Q1818 1518 1836 1408L1772 1408Q1754 1513 1698.50 1619.50Q1643 1726 1552 1815Q1461 1904 1335.50 1958Q1210 2012 1052 2012Q817 2012 640.50 1888.50Q464 1765 366 1542.50Q268 1320 268 1024Q268 732 365 509.50Q462 287 640 161.50Q818 36 1060 36Q1274 36 1440 137.50Q1606 239 1699 429.50Q1792 620 1788 888L1816 864L1080 864L1080 928L1852 928L1852 0L1788 0L1788 474L1780 474Q1689 228 1499.50 100Q1310-28 1060-28Z"  horiz-adv-x="2080" vert-adv-y="2816"  />

      
      <glyph glyph-name="uniE004" unicode="&#xE004;" d="M1836 1408L1772 1408L1772 1664Q1772 1730 1786.50 1780.50Q1801 1831 1829 1866Q1857 1901 1896.50 1918.50Q1936 1936 1986 1936Q2000 1936 2017 1934.50Q2034 1933 2052 1930L2052 1866Q2033 1869 2015.50 1870.50Q1998 1872 1986 1872Q1941 1872 1907 1851.50Q1873 1831 1854.50 1785Q1836 1739 1836 1660L1836 1408M1060-28Q800-28 607.50 104.50Q415 237 309.50 474Q204 711 204 1024Q204 1260 264.50 1453.50Q325 1647 437.50 1786.50Q550 1926 706 2001Q862 2076 1052 2076Q1232 2076 1370.50 2014Q1509 1952 1606 1851.50Q1703 1751 1760.50 1634.50Q1818 1518 1836 1408L1772 1408Q1754 1513 1698.50 1619.50Q1643 1726 1552 1815Q1461 1904 1335.50 1958Q1210 2012 1052 2012Q817 2012 640.50 1888.50Q464 1765 366 1542.50Q268 1320 268 1024Q268 732 365 509.50Q462 287 640 161.50Q818 36 1060 36Q1274 36 1440 137.50Q1606 239 1699 429.50Q1792 620 1788 888L1816 864L1080 864L1080 928L1852 928L1852 0L1788 0L1788 474L1780 474Q1689 228 1499.50 100Q1310-28 1060-28Z"  horiz-adv-x="2004" vert-adv-y="2816"  />

      
      <glyph glyph-name="uniE005" unicode="&#xE005;" d="M1060-28Q800-28 607.50 104.50Q415 237 309.50 474Q204 711 204 1024Q204 1260 264.50 1453.50Q325 1647 437.50 1786.50Q550 1926 706 2001Q862 2076 1052 2076Q1232 2076 1370.50 2014Q1509 1952 1606 1851.50Q1703 1751 1760.50 1634.50Q1818 1518 1836 1408L1772 1408Q1754 1513 1698.50 1619.50Q1643 1726 1552 1815Q1461 1904 1335.50 1958Q1210 2012 1052 2012Q817 2012 640.50 1888.50Q464 1765 366 1542.50Q268 1320 268 1024Q268 732 365 509.50Q462 287 640 161.50Q818 36 1060 36Q1274 36 1440 137.50Q1606 239 1699 429.50Q1792 620 1788 888L1816 864L1080 864L1080 928L1852 928L1852 0L1788 0L1788 474L1780 474Q1689 228 1499.50 100Q1310-28 1060-28M1340 2208L1040 2516L740 2208L664 2208L664 2216L1032 2592L1048 2592L1416 2216L1416 2208L1340 2208Z"  horiz-adv-x="2080" vert-adv-y="2816"  />

      
      <glyph glyph-name="uniE006" unicode="&#xE006;" d="M1060-28Q800-28 607.50 104.50Q415 237 309.50 474Q204 711 204 1024Q204 1260 264.50 1453.50Q325 1647 437.50 1786.50Q550 1926 706 2001Q862 2076 1052 2076Q1232 2076 1370.50 2014Q1509 1952 1606 1851.50Q1703 1751 1760.50 1634.50Q1818 1518 1836 1408L1772 1408Q1754 1513 1698.50 1619.50Q1643 1726 1552 1815Q1461 1904 1335.50 1958Q1210 2012 1052 2012Q817 2012 640.50 1888.50Q464 1765 366 1542.50Q268 1320 268 1024Q268 732 365 509.50Q462 287 640 161.50Q818 36 1060 36Q1274 36 1440 137.50Q1606 239 1699 429.50Q1792 620 1788 888L1816 864L1080 864L1080 928L1852 928L1852 0L1788 0L1788 474L1780 474Q1689 228 1499.50 100Q1310-28 1060-28M1200 2560L1264 2560Q1264 2454 1204.50 2393Q1145 2332 1040 2332Q935 2332 875.50 2393Q816 2454 816 2560L880 2560Q880 2481 921 2438.50Q962 2396 1040 2396Q1118 2396 1159 2438.50Q1200 2481 1200 2560Z"  horiz-adv-x="2080" vert-adv-y="2816"  />

      
      <glyph glyph-name="uniE007" unicode="&#xE007;" d="M1060-28Q800-28 607.50 104.50Q415 237 309.50 474Q204 711 204 1024Q204 1260 264.50 1453.50Q325 1647 437.50 1786.50Q550 1926 706 2001Q862 2076 1052 2076Q1232 2076 1370.50 2014Q1509 1952 1606 1851.50Q1703 1751 1760.50 1634.50Q1818 1518 1836 1408L1772 1408Q1754 1513 1698.50 1619.50Q1643 1726 1552 1815Q1461 1904 1335.50 1958Q1210 2012 1052 2012Q817 2012 640.50 1888.50Q464 1765 366 1542.50Q268 1320 268 1024Q268 732 365 509.50Q462 287 640 161.50Q818 36 1060 36Q1274 36 1440 137.50Q1606 239 1699 429.50Q1792 620 1788 888L1816 864L1080 864L1080 928L1852 928L1852 0L1788 0L1788 474L1780 474Q1689 228 1499.50 100Q1310-28 1060-28M1040 2328Q1014 2328 995 2347Q976 2366 976 2392Q976 2418 995 2437Q1014 2456 1040 2456Q1066 2456 1085 2437Q1104 2418 1104 2392Q1104 2366 1085 2347Q1066 2328 1040 2328Z"  horiz-adv-x="2080" vert-adv-y="2816"  />

      
      <glyph glyph-name="uniE008" unicode="&#xE008;" d="M1060-28Q800-28 607.50 104.50Q415 237 309.50 474Q204 711 204 1024Q204 1260 264.50 1453.50Q325 1647 437.50 1786.50Q550 1926 706 2001Q862 2076 1052 2076Q1232 2076 1370.50 2014Q1509 1952 1606 1851.50Q1703 1751 1760.50 1634.50Q1818 1518 1836 1408L1772 1408Q1754 1513 1698.50 1619.50Q1643 1726 1552 1815Q1461 1904 1335.50 1958Q1210 2012 1052 2012Q817 2012 640.50 1888.50Q464 1765 366 1542.50Q268 1320 268 1024Q268 732 365 509.50Q462 287 640 161.50Q818 36 1060 36Q1274 36 1440 137.50Q1606 239 1699 429.50Q1792 620 1788 888L1816 864L1080 864L1080 928L1852 928L1852 0L1788 0L1788 474L1780 474Q1689 228 1499.50 100Q1310-28 1060-28M870-680L1002-162L1072-162L922-680L870-680Z"  horiz-adv-x="2080" vert-adv-y="2816"  />

      
      <glyph glyph-name="uniE009" unicode="&#xE009;" d="M1060-28Q800-28 607.50 104.50Q415 237 309.50 474Q204 711 204 1024Q204 1260 264.50 1453.50Q325 1647 437.50 1786.50Q550 1926 706 2001Q862 2076 1052 2076Q1232 2076 1370.50 2014Q1509 1952 1606 1851.50Q1703 1751 1760.50 1634.50Q1818 1518 1836 1408L1772 1408Q1754 1513 1698.50 1619.50Q1643 1726 1552 1815Q1461 1904 1335.50 1958Q1210 2012 1052 2012Q817 2012 640.50 1888.50Q464 1765 366 1542.50Q268 1320 268 1024Q268 732 365 509.50Q462 287 640 161.50Q818 36 1060 36Q1274 36 1440 137.50Q1606 239 1699 429.50Q1792 620 1788 888L1816 864L1080 864L1080 928L1852 928L1852 0L1788 0L1788 474L1780 474Q1689 228 1499.50 100Q1310-28 1060-28M740 2644L1040 2336L1340 2644L1416 2644L1416 2636L1048 2260L1032 2260L664 2636L664 2644L740 2644Z"  horiz-adv-x="2080" vert-adv-y="2816"  />

      
      <glyph glyph-name="uniE00A" unicode="&#xE00A;" d="M1060-28Q800-28 607.50 104.50Q415 237 309.50 474Q204 711 204 1024Q204 1260 264.50 1453.50Q325 1647 437.50 1786.50Q550 1926 706 2001Q862 2076 1052 2076Q1232 2076 1370.50 2014Q1509 1952 1606 1851.50Q1703 1751 1760.50 1634.50Q1818 1518 1836 1408L1772 1408Q1754 1513 1698.50 1619.50Q1643 1726 1552 1815Q1461 1904 1335.50 1958Q1210 2012 1052 2012Q817 2012 640.50 1888.50Q464 1765 366 1542.50Q268 1320 268 1024Q268 732 365 509.50Q462 287 640 161.50Q818 36 1060 36Q1274 36 1440 137.50Q1606 239 1699 429.50Q1792 620 1788 888L1816 864L1080 864L1080 928L1852 928L1852 0L1788 0L1788 474L1780 474Q1689 228 1499.50 100Q1310-28 1060-28M1006 2272L1286 2704L1366 2704L1070 2272L1006 2272Z"  horiz-adv-x="2080" vert-adv-y="2816"  />

      
      <glyph glyph-name="uniE00B" unicode="&#xE00B;" d="M1060-28Q800-28 607.50 104.50Q415 237 309.50 474Q204 711 204 1024Q204 1260 264.50 1453.50Q325 1647 437.50 1786.50Q550 1926 706 2001Q862 2076 1052 2076Q1232 2076 1370.50 2014Q1509 1952 1606 1851.50Q1703 1751 1760.50 1634.50Q1818 1518 1836 1408L1772 1408Q1754 1513 1698.50 1619.50Q1643 1726 1552 1815Q1461 1904 1335.50 1958Q1210 2012 1052 2012Q817 2012 640.50 1888.50Q464 1765 366 1542.50Q268 1320 268 1024Q268 732 365 509.50Q462 287 640 161.50Q818 36 1060 36Q1274 36 1440 137.50Q1606 239 1699 429.50Q1792 620 1788 888L1816 864L1080 864L1080 928L1852 928L1852 0L1788 0L1788 474L1780 474Q1689 228 1499.50 100Q1310-28 1060-28M1360 2424L1360 2360L720 2360L720 2424L1360 2424Z"  horiz-adv-x="2080" vert-adv-y="2816"  />

      
      <glyph glyph-name="uni48" unicode="&#x48;" d="M320 0L320 2048L384 2048L384 1056L1688 1056L1688 2048L1752 2048L1752 0L1688 0L1688 992L384 992L384 0L320 0Z"  horiz-adv-x="2072" vert-adv-y="2816"  />

      
      <glyph glyph-name="uni1E28" unicode="&#x1E28;" d="M320 0L320 2048L384 2048L384 1056L1688 1056L1688 2048L1752 2048L1752 0L1688 0L1688 992L384 992L384 0L320 0M320 0L384 0L370-80Q472-96 524.50-157.50Q577-219 578-312Q577-418 508.50-468.50Q440-519 308-524L306-460Q418-456 465.50-420.50Q513-385 514-312Q513-226 457.50-182Q402-138 292-140L320 0Z"  horiz-adv-x="2072" vert-adv-y="2816"  />

      
      <glyph glyph-name="uni0124" unicode="&#x0124;" d="M320 0L320 2048L384 2048L384 1056L1688 1056L1688 2048L1752 2048L1752 0L1688 0L1688 992L384 992L384 0L320 0M1336 2208L1036 2516L736 2208L660 2208L660 2216L1028 2592L1044 2592L1412 2216L1412 2208L1336 2208Z"  horiz-adv-x="2072" vert-adv-y="2816"  />

      
      <glyph glyph-name="uni021E" unicode="&#x021E;" d="M320 0L320 2048L384 2048L384 1056L1688 1056L1688 2048L1752 2048L1752 0L1688 0L1688 992L384 992L384 0L320 0M736 2644L1036 2336L1336 2644L1412 2644L1412 2636L1044 2260L1028 2260L660 2636L660 2644L736 2644Z"  horiz-adv-x="2072" vert-adv-y="2816"  />

      
      <glyph glyph-name="uni1E22" unicode="&#x1E22;" d="M320 0L320 2048L384 2048L384 1056L1688 1056L1688 2048L1752 2048L1752 0L1688 0L1688 992L384 992L384 0L320 0M1036 2328Q1010 2328 991 2347Q972 2366 972 2392Q972 2418 991 2437Q1010 2456 1036 2456Q1062 2456 1081 2437Q1100 2418 1100 2392Q1100 2366 1081 2347Q1062 2328 1036 2328Z"  horiz-adv-x="2072" vert-adv-y="2816"  />

      
      <glyph glyph-name="uni1E24" unicode="&#x1E24;" d="M320 0L320 2048L384 2048L384 1056L1688 1056L1688 2048L1752 2048L1752 0L1688 0L1688 992L384 992L384 0L320 0M1036-456Q1010-456 991-437Q972-418 972-392Q972-366 991-347Q1010-328 1036-328Q1062-328 1081-347Q1100-366 1100-392Q1100-418 1081-437Q1062-456 1036-456Z"  horiz-adv-x="2072" vert-adv-y="2816"  />

      
      <glyph glyph-name="uni1E26" unicode="&#x1E26;" d="M320 0L320 2048L384 2048L384 1056L1688 1056L1688 2048L1752 2048L1752 0L1688 0L1688 992L384 992L384 0L320 0M844 2328Q818 2328 799 2347Q780 2366 780 2392Q780 2418 799 2437Q818 2456 844 2456Q870 2456 889 2437Q908 2418 908 2392Q908 2366 889 2347Q870 2328 844 2328M1228 2328Q1202 2328 1183 2347Q1164 2366 1164 2392Q1164 2418 1183 2437Q1202 2456 1228 2456Q1254 2456 1273 2437Q1292 2418 1292 2392Q1292 2366 1273 2347Q1254 2328 1228 2328Z"  horiz-adv-x="2072" vert-adv-y="2816"  />

      
      <glyph glyph-name="uni1E2A" unicode="&#x1E2A;" d="M320 0L320 2048L384 2048L384 1056L1688 1056L1688 2048L1752 2048L1752 0L1688 0L1688 992L384 992L384 0L320 0M1186-152L1250-152Q1250-222 1223-273.50Q1196-325 1146-352.50Q1096-380 1026-380Q921-380 861.50-319Q802-258 802-152L866-152Q866-231 907-273.50Q948-316 1026-316Q1104-316 1145-273.50Q1186-231 1186-152Z"  horiz-adv-x="2072" vert-adv-y="2816"  />

      
      <glyph glyph-name="uni0126" unicode="&#x0126;" d="M1924 1484L1924 1420L172 1420L172 1484L1924 1484M336 0L336 2048L400 2048L400 1056L1704 1056L1704 2048L1768 2048L1768 0L1704 0L1704 992L400 992L400 0L336 0Z"  horiz-adv-x="2094" vert-adv-y="2816"  />

      
      <glyph glyph-name="uni04C7" unicode="&#x04C7;" d="M1688 0L1752 0L1752-232Q1752-298 1740.50-352Q1729-406 1707-447Q1685-488 1652-516Q1619-544 1576-558Q1533-572 1480-572Q1458-572 1437-570Q1416-568 1402-564L1402-500Q1416-504 1434-506Q1452-508 1474-508Q1546-508 1593.50-477.50Q1641-447 1664.50-386Q1688-325 1688-232L1688 0M320 0L320 2048L384 2048L384 1056L1688 1056L1688 2048L1752 2048L1752 0L1688 0L1688 992L384 992L384 0L320 0Z"  horiz-adv-x="2072" vert-adv-y="2816"  />

      
      <glyph glyph-name="uni04A2" unicode="&#x04A2;" d="M320 0L320 2048L384 2048L384 1056L1688 1056L1688 2048L1752 2048L1752 0L1688 0L1688 992L384 992L384 0L320 0M1814 68L1814-500L1750-500L1750 68L1814 68Z"  horiz-adv-x="2092" vert-adv-y="2816"  />

      
      <glyph glyph-name="uni04C9" unicode="&#x04C9;" d="M320 0L320 2048L384 2048L384 1056L1688 1056L1688 2048L1752 2048L1752 0L1688 0L1688 992L384 992L384 0L320 0M1816 56L1816-36Q1816-97 1806-156.50Q1796-216 1779-274.50Q1762-333 1740-392L1680-370Q1702-313 1718-258Q1734-203 1743-148Q1752-93 1752-36L1752 56L1816 56Z"  horiz-adv-x="2072" vert-adv-y="2816"  />

      
      <glyph glyph-name="uni04A4" unicode="&#x04A4;" d="M2548 2048L2548 1984L1752 1984L1752 0L1688 0L1688 992L384 992L384 0L320 0L320 2048L384 2048L384 1056L1688 1056L1688 2048L2548 2048Z"  horiz-adv-x="2720" vert-adv-y="2816"  />

      
      <glyph glyph-name="uni01F6" unicode="&#x01F6;" d="M2276-32Q2104-32 1971 35Q1838 102 1763 243.50Q1688 385 1688 608L1688 992L384 992L384 0L320 0L320 2048L384 2048L384 1056L1688 1056L1688 2048L1752 2048L1752 608Q1752 316 1889 174.50Q2026 33 2276 32Q2528 31 2656 173.50Q2784 316 2784 608L2784 1576L2848 1576L2848 608Q2848 376 2774 235Q2700 94 2571 31Q2442-32 2276-32Z"  horiz-adv-x="3120" vert-adv-y="2816"  />

      
      <glyph glyph-name="uni0397" unicode="&#x0397;" d="M320 0L320 2048L384 2048L384 1056L1688 1056L1688 2048L1752 2048L1752 0L1688 0L1688 992L384 992L384 0L320 0Z"  horiz-adv-x="2072" vert-adv-y="2816"  />

      
      <glyph glyph-name="uni0389" unicode="&#x0389;" d="M496 0L496 2048L560 2048L560 1056L1864 1056L1864 2048L1928 2048L1928 0L1864 0L1864 992L560 992L560 0L496 0M242 1696L282 2156L362 2156L290 1696L242 1696Z"  horiz-adv-x="2248" vert-adv-y="2816"  />

      
      <glyph glyph-name="uni1F28" unicode="&#x1F28;" d="M724 0L724 2048L788 2048L788 1056L2092 1056L2092 2048L2156 2048L2156 0L2092 0L2092 992L788 992L788 0L724 0M496 2048L496 1996Q496 1906 480.50 1835Q465 1764 426 1699Q387 1634 316 1562L270 1584Q335 1661 370 1723.50Q405 1786 418.50 1852Q432 1918 432 2004L432 2048L496 2048Z"  horiz-adv-x="2476" vert-adv-y="2816"  />

      
      <glyph glyph-name="uni1F29" unicode="&#x1F29;" d="M720 0L720 2048L784 2048L784 1056L2088 1056L2088 2048L2152 2048L2152 0L2088 0L2088 992L784 992L784 0L720 0M346 2004L346 2056L410 2056L410 2012Q410 1926 423.50 1860.50Q437 1795 472 1732Q507 1669 572 1592L526 1570Q420 1678 383 1773.50Q346 1869 346 2004Z"  horiz-adv-x="2472" vert-adv-y="2816"  />

      
      <glyph glyph-name="uni1F2A" unicode="&#x1F2A;" d="M1324 0L1324 2048L1388 2048L1388 1056L2692 1056L2692 2048L2756 2048L2756 0L2692 0L2692 992L1388 992L1388 0L1324 0M910 1602L910 1584L862 1584L578 2030L578 2048L646 2048L910 1602M514 2048L514 1996Q514 1906 498.50 1835Q483 1764 444 1699Q405 1634 334 1562L288 1584Q386 1699 418 1787Q450 1875 450 2004L450 2048L514 2048Z"  horiz-adv-x="3076" vert-adv-y="2816"  />

      
      <glyph glyph-name="uni1F2B" unicode="&#x1F2B;" d="M1200 0L1200 2048L1264 2048L1264 1056L2568 1056L2568 2048L2632 2048L2632 0L2568 0L2568 992L1264 992L1264 0L1200 0M640 1610L640 1592L592 1592L308 2038L308 2056L376 2056L640 1610M174 2004L174 2056L238 2056L238 2012Q238 1883 270.50 1795Q303 1707 400 1592L354 1570Q248 1678 211 1773Q174 1868 174 2004Z"  horiz-adv-x="2952" vert-adv-y="2816"  />

      
      <glyph glyph-name="uni1F2C" unicode="&#x1F2C;" d="M1132 0L1132 2048L1196 2048L1196 1056L2500 1056L2500 2048L2564 2048L2564 0L2500 0L2500 992L1196 992L1196 0L1132 0M468 1592L468 1610L732 2056L800 2056L800 2038L516 1592L468 1592M444 2056L444 2004Q444 1914 428.50 1843Q413 1772 374 1707Q335 1642 264 1570L218 1592Q316 1707 348 1795Q380 1883 380 2012L380 2056L444 2056Z"  horiz-adv-x="2884" vert-adv-y="2816"  />

      
      <glyph glyph-name="uni1F2D" unicode="&#x1F2D;" d="M1188 0L1188 2048L1252 2048L1252 1056L2556 1056L2556 2048L2620 2048L2620 0L2556 0L2556 992L1252 992L1252 0L1188 0M494 1592L494 1610L758 2056L826 2056L826 2038L542 1592L494 1592M408 1570Q302 1678 265 1773Q228 1868 228 2004L228 2056L292 2056L292 2012Q292 1883 324.50 1795Q357 1707 454 1592L408 1570Z"  horiz-adv-x="2940" vert-adv-y="2816"  />

      
      <glyph glyph-name="uni1F2E" unicode="&#x1F2E;" d="M1004 0L1004 2048L1068 2048L1068 1056L2372 1056L2372 2048L2436 2048L2436 0L2372 0L2372 992L1068 992L1068 0L1004 0M858 2298L916 2290Q906 2197 856.50 2138Q807 2079 724 2078Q673 2078 635.50 2102.50Q598 2127 566 2159.50Q534 2192 501 2217Q468 2242 426 2242Q365 2242 331.50 2198Q298 2154 288 2086L230 2094Q240 2188 291 2247Q342 2306 430 2306Q484 2306 521.50 2281Q559 2256 589 2223.50Q619 2191 650 2166.50Q681 2142 722 2142Q782 2143 815 2187Q848 2231 858 2298M592 2024L592 1972Q592 1889 570.50 1804Q549 1719 472 1618L426 1640Q494 1747 511 1825.50Q528 1904 528 1980L528 2024L592 2024Z"  horiz-adv-x="2756" vert-adv-y="2816"  />

      
      <glyph glyph-name="uni1F2F" unicode="&#x1F2F;" d="M992 0L992 2048L1056 2048L1056 1056L2360 1056L2360 2048L2424 2048L2424 0L2360 0L2360 992L1056 992L1056 0L992 0M538 1972L538 2024L602 2024L602 1980Q602 1889 628 1810.50Q654 1732 706 1640L660 1618Q597 1704 567.50 1789Q538 1874 538 1972M858 2298L916 2290Q906 2197 856.50 2138Q807 2079 724 2078Q673 2078 635.50 2102.50Q598 2127 566 2159.50Q534 2192 501 2217Q468 2242 426 2242Q365 2242 331.50 2198Q298 2154 288 2086L230 2094Q240 2188 291 2247Q342 2306 430 2306Q484 2306 521.50 2281Q559 2256 589 2223.50Q619 2191 650 2166.50Q681 2142 722 2142Q782 2143 815 2187Q848 2231 858 2298Z"  horiz-adv-x="2744" vert-adv-y="2816"  />

      
      <glyph glyph-name="uni1FCA" unicode="&#x1FCA;" d="M896 0L896 2048L960 2048L960 1056L2264 1056L2264 2048L2328 2048L2328 0L2264 0L2264 992L960 992L960 0L896 0M520 1580L236 2026L236 2044L304 2044L568 1598L568 1580L520 1580Z"  horiz-adv-x="2648" vert-adv-y="2816"  />

      
      <glyph glyph-name="uni1FCB" unicode="&#x1FCB;" d="M768 0L768 2048L832 2048L832 1056L2136 1056L2136 2048L2200 2048L2200 0L2136 0L2136 992L832 992L832 0L768 0M424 1728L424 1732L676 2196L752 2196L752 2192L478 1728L424 1728Z"  horiz-adv-x="2520" vert-adv-y="2816"  />

      
      <glyph glyph-name="uni041D" unicode="&#x041D;" d="M320 0L320 2048L384 2048L384 1056L1688 1056L1688 2048L1752 2048L1752 0L1688 0L1688 992L384 992L384 0L320 0Z"  horiz-adv-x="2072" vert-adv-y="2816"  />

      
      <glyph glyph-name="uni1F98" unicode="&#x1F98;" d="M588 0L588 2048L652 2048L652 1056L1956 1056L1956 2048L2020 2048L2020 0L1956 0L1956 992L652 992L652 0L588 0M1408-600Q1353-600 1314.50-556Q1276-512 1276-444L1276-120L1340-120L1340-444Q1340-485 1360-510.50Q1380-536 1408-536Q1418-536 1432.50-534Q1447-532 1454-530L1472-592Q1462-595 1442-597.50Q1422-600 1408-600M360 2048L360 1996Q360 1906 344.50 1835Q329 1764 290 1699Q251 1634 180 1562L134 1584Q199 1661 234 1723.50Q269 1786 282.50 1852Q296 1918 296 2004L296 2048L360 2048Z"  horiz-adv-x="2340" vert-adv-y="2816"  />

      
      <glyph glyph-name="uni1F99" unicode="&#x1F99;" d="M720 0L720 2048L784 2048L784 1056L2088 1056L2088 2048L2152 2048L2152 0L2088 0L2088 992L784 992L784 0L720 0M1540-600Q1485-600 1446.50-556Q1408-512 1408-444L1408-120L1472-120L1472-444Q1472-485 1492-510.50Q1512-536 1540-536Q1550-536 1564.50-534Q1579-532 1586-530L1604-592Q1594-595 1574-597.50Q1554-600 1540-600M346 2004L346 2056L410 2056L410 2012Q410 1926 423.50 1860.50Q437 1795 472 1732Q507 1669 572 1592L526 1570Q420 1678 383 1773.50Q346 1869 346 2004Z"  horiz-adv-x="2472" vert-adv-y="2816"  />

      
      <glyph glyph-name="uni1F9A" unicode="&#x1F9A;" d="M1324 0L1324 2048L1388 2048L1388 1056L2692 1056L2692 2048L2756 2048L2756 0L2692 0L2692 992L1388 992L1388 0L1324 0M2144-600Q2089-600 2050.50-556Q2012-512 2012-444L2012-120L2076-120L2076-444Q2076-485 2096-510.50Q2116-536 2144-536Q2154-536 2168.50-534Q2183-532 2190-530L2208-592Q2198-595 2178-597.50Q2158-600 2144-600M910 1602L910 1584L862 1584L578 2030L578 2048L646 2048L910 1602M514 2048L514 1996Q514 1906 498.50 1835Q483 1764 444 1699Q405 1634 334 1562L288 1584Q386 1699 418 1787Q450 1875 450 2004L450 2048L514 2048Z"  horiz-adv-x="3076" vert-adv-y="2816"  />

      
      <glyph glyph-name="uni1F9B" unicode="&#x1F9B;" d="M1200 0L1200 2048L1264 2048L1264 1056L2568 1056L2568 2048L2632 2048L2632 0L2568 0L2568 992L1264 992L1264 0L1200 0M2020-600Q1965-600 1926.50-556Q1888-512 1888-444L1888-120L1952-120L1952-444Q1952-485 1972-510.50Q1992-536 2020-536Q2030-536 2044.50-534Q2059-532 2066-530L2084-592Q2074-595 2054-597.50Q2034-600 2020-600M640 1610L640 1592L592 1592L308 2038L308 2056L376 2056L640 1610M174 2004L174 2056L238 2056L238 2012Q238 1883 270.50 1795Q303 1707 400 1592L354 1570Q248 1678 211 1773Q174 1868 174 2004Z"  horiz-adv-x="2952" vert-adv-y="2816"  />

      
      <glyph glyph-name="uni1F9C" unicode="&#x1F9C;" d="M1132 0L1132 2048L1196 2048L1196 1056L2500 1056L2500 2048L2564 2048L2564 0L2500 0L2500 992L1196 992L1196 0L1132 0M1952-600Q1897-600 1858.50-556Q1820-512 1820-444L1820-120L1884-120L1884-444Q1884-485 1904-510.50Q1924-536 1952-536Q1962-536 1976.50-534Q1991-532 1998-530L2016-592Q2006-595 1986-597.50Q1966-600 1952-600M468 1592L468 1610L732 2056L800 2056L800 2038L516 1592L468 1592M444 2056L444 2004Q444 1914 428.50 1843Q413 1772 374 1707Q335 1642 264 1570L218 1592Q316 1707 348 1795Q380 1883 380 2012L380 2056L444 2056Z"  horiz-adv-x="2884" vert-adv-y="2816"  />

      
      <glyph glyph-name="uni1F9D" unicode="&#x1F9D;" d="M1188 0L1188 2048L1252 2048L1252 1056L2556 1056L2556 2048L2620 2048L2620 0L2556 0L2556 992L1252 992L1252 0L1188 0M2008-600Q1953-600 1914.50-556Q1876-512 1876-444L1876-120L1940-120L1940-444Q1940-485 1960-510.50Q1980-536 2008-536Q2018-536 2032.50-534Q2047-532 2054-530L2072-592Q2062-595 2042-597.50Q2022-600 2008-600M494 1592L494 1610L758 2056L826 2056L826 2038L542 1592L494 1592M408 1570Q302 1678 265 1773Q228 1868 228 2004L228 2056L292 2056L292 2012Q292 1883 324.50 1795Q357 1707 454 1592L408 1570Z"  horiz-adv-x="2940" vert-adv-y="2816"  />

      
      <glyph glyph-name="uni1F9E" unicode="&#x1F9E;" d="M1004 0L1004 2048L1068 2048L1068 1056L2372 1056L2372 2048L2436 2048L2436 0L2372 0L2372 992L1068 992L1068 0L1004 0M1824-600Q1769-600 1730.50-556Q1692-512 1692-444L1692-120L1756-120L1756-444Q1756-485 1776-510.50Q1796-536 1824-536Q1834-536 1848.50-534Q1863-532 1870-530L1888-592Q1878-595 1858-597.50Q1838-600 1824-600M858 2298L916 2290Q906 2197 856.50 2138Q807 2079 724 2078Q673 2078 635.50 2102.50Q598 2127 566 2159.50Q534 2192 501 2217Q468 2242 426 2242Q365 2242 331.50 2198Q298 2154 288 2086L230 2094Q240 2188 291 2247Q342 2306 430 2306Q484 2306 521.50 2281Q559 2256 589 2223.50Q619 2191 650 2166.50Q681 2142 722 2142Q782 2143 815 2187Q848 2231 858 2298M592 2024L592 1972Q592 1889 570.50 1804Q549 1719 472 1618L426 1640Q494 1747 511 1825.50Q528 1904 528 1980L528 2024L592 2024Z"  horiz-adv-x="2756" vert-adv-y="2816"  />

      
      <glyph glyph-name="uni1F9F" unicode="&#x1F9F;" d="M992 0L992 2048L1056 2048L1056 1056L2360 1056L2360 2048L2424 2048L2424 0L2360 0L2360 992L1056 992L1056 0L992 0M1812-600Q1757-600 1718.50-556Q1680-512 1680-444L1680-120L1744-120L1744-444Q1744-485 1764-510.50Q1784-536 1812-536Q1822-536 1836.50-534Q1851-532 1858-530L1876-592Q1866-595 1846-597.50Q1826-600 1812-600M538 1972L538 2024L602 2024L602 1980Q602 1889 628 1810.50Q654 1732 706 1640L660 1618Q597 1704 567.50 1789Q538 1874 538 1972M858 2298L916 2290Q906 2197 856.50 2138Q807 2079 724 2078Q673 2078 635.50 2102.50Q598 2127 566 2159.50Q534 2192 501 2217Q468 2242 426 2242Q365 2242 331.50 2198Q298 2154 288 2086L230 2094Q240 2188 291 2247Q342 2306 430 2306Q484 2306 521.50 2281Q559 2256 589 2223.50Q619 2191 650 2166.50Q681 2142 722 2142Q782 2143 815 2187Q848 2231 858 2298Z"  horiz-adv-x="2744" vert-adv-y="2816"  />

      
      <glyph glyph-name="uni1FCC" unicode="&#x1FCC;" d="M320 0L320 2048L384 2048L384 1056L1688 1056L1688 2048L1752 2048L1752 0L1688 0L1688 992L384 992L384 0L320 0M1136-600Q1081-600 1042.50-556Q1004-512 1004-444L1004-120L1068-120L1068-444Q1068-485 1088-510.50Q1108-536 1136-536Q1146-536 1160.50-534Q1175-532 1182-530L1200-592Q1190-595 1170-597.50Q1150-600 1136-600Z"  horiz-adv-x="2072" vert-adv-y="2816"  />

      
      <glyph glyph-name="uni49" unicode="&#x49;" d="M384 2048L384 0L320 0L320 2048L384 2048Z"  horiz-adv-x="704" vert-adv-y="2816"  />

      
      <glyph glyph-name="unicf" unicode="&#xcf;" d="M384 2048L384 0L320 0L320 2048L384 2048M160 2328Q134 2328 115 2347Q96 2366 96 2392Q96 2418 115 2437Q134 2456 160 2456Q186 2456 205 2437Q224 2418 224 2392Q224 2366 205 2347Q186 2328 160 2328M544 2328Q518 2328 499 2347Q480 2366 480 2392Q480 2418 499 2437Q518 2456 544 2456Q570 2456 589 2437Q608 2418 608 2392Q608 2366 589 2347Q570 2328 544 2328Z"  horiz-adv-x="704" vert-adv-y="2816"  />

      
      <glyph glyph-name="uni1E2E" unicode="&#x1E2E;" d="M384 2048L384 0L320 0L320 2048L384 2048M310 2528L546 2784L638 2784L386 2528L310 2528M160 2240Q134 2240 115 2259Q96 2278 96 2304Q96 2330 115 2349Q134 2368 160 2368Q186 2368 205 2349Q224 2330 224 2304Q224 2278 205 2259Q186 2240 160 2240M544 2240Q518 2240 499 2259Q480 2278 480 2304Q480 2330 499 2349Q518 2368 544 2368Q570 2368 589 2349Q608 2330 608 2304Q608 2278 589 2259Q570 2240 544 2240Z"  horiz-adv-x="704" vert-adv-y="2816"  />

      
      <glyph glyph-name="uni0197" unicode="&#x0197;" d="M384 2048L384 0L320 0L320 2048L384 2048M-28 1024L-28 1088L732 1088L732 1024L-28 1024Z"  horiz-adv-x="704" vert-adv-y="2816"  />

      
      <glyph glyph-name="uni1E2C" unicode="&#x1E2C;" d="M384 2048L384 0L320 0L320 2048L384 2048M-44-382L-108-374Q-94-280-20-221Q54-162 156-162Q225-162 275-187Q325-212 366.50-244Q408-276 450.50-301Q493-326 548-326Q616-326 674-283Q732-240 748-170L812-186Q790-277 714.50-333.50Q639-390 548-390Q484-390 438-365Q392-340 351.50-308Q311-276 265.50-251Q220-226 156-226Q78-226 22-270Q-34-314-44-382Z"  horiz-adv-x="704" vert-adv-y="2816"  />

      
      <glyph glyph-name="unicc" unicode="&#xcc;" d="M384 2048L384 0L320 0L320 2048L384 2048M322 2272L26 2704L106 2704L386 2272L322 2272Z"  horiz-adv-x="704" vert-adv-y="2816"  />

      
      </font>
</defs>
</svg>
