<?xml version="1.0" standalone="no"?>
  <!DOCTYPE svg PUBLIC "-//W3C//DTD SVG 1.1//EN" "http://www.w3.org/Graphics/SVG/1.1/DTD/svg11.dtd" >
  <svg>
  <metadata>
  Created by font-carrier
  </metadata>
  <defs>
  <font id="Montserrat-Thin" horiz-adv-x="1566" vert-adv-y="1566" >
    <font-face
      
      font-family="Montserrat Thin"
      
      font-weight="400"
      
      font-stretch="normal"
      
      units-per-em="1000"
      
      ascent="968"
      
      descent="-251"
      
    />
      <missing-glyph />

      

      
      <glyph glyph-name="uni41" unicode="&#x41;" d="M9 0L334 700L354 700L679 0L656 0L339 684L349 684L32 0L9 0M116 211L126 230L561 230L571 211L116 211Z"  horiz-adv-x="688" vert-adv-y="1000"  />

      
      <glyph glyph-name="unic1" unicode="&#xc1;" d="M9 0L334 700L354 700L679 0L656 0L339 684L349 684L32 0L9 0M116 211L126 230L561 230L571 211L116 211Z"  horiz-adv-x="688" vert-adv-y="1000"  />

      
      <glyph glyph-name="uni0102" unicode="&#x0102;" d="M9 0L334 700L354 700L679 0L656 0L339 684L349 684L32 0L9 0M116 211L126 230L561 230L571 211L116 211Z"  horiz-adv-x="688" vert-adv-y="1000"  />

      
      <glyph glyph-name="uni1EAE" unicode="&#x1EAE;" d="M9 0L334 700L354 700L679 0L656 0L339 684L349 684L32 0L9 0M116 211L126 230L561 230L571 211L116 211Z"  horiz-adv-x="688" vert-adv-y="1000"  />

      
      <glyph glyph-name="uni1EB6" unicode="&#x1EB6;" d="M9 0L334 700L354 700L679 0L656 0L339 684L349 684L32 0L9 0M116 211L126 230L561 230L571 211L116 211M344-176Q334-176 326-168Q318-160 318-150Q318-139 326-131.50Q334-124 344-124Q355-124 362.50-131.50Q370-139 370-150Q370-160 362.50-168Q355-176 344-176Z"  horiz-adv-x="688" vert-adv-y="1000"  />

      
      <glyph glyph-name="uni1EB0" unicode="&#x1EB0;" d="M9 0L334 700L354 700L679 0L656 0L339 684L349 684L32 0L9 0M116 211L126 230L561 230L571 211L116 211Z"  horiz-adv-x="688" vert-adv-y="1000"  />

      
      <glyph glyph-name="uni1EB2" unicode="&#x1EB2;" d="M9 0L334 700L354 700L679 0L656 0L339 684L349 684L32 0L9 0M116 211L126 230L561 230L571 211L116 211Z"  horiz-adv-x="688" vert-adv-y="1000"  />

      
      <glyph glyph-name="uni1EB4" unicode="&#x1EB4;" d="M9 0L334 700L354 700L679 0L656 0L339 684L349 684L32 0L9 0M116 211L126 230L561 230L571 211L116 211Z"  horiz-adv-x="688" vert-adv-y="1000"  />

      
      <glyph glyph-name="uni01CD" unicode="&#x01CD;" d="M9 0L334 700L354 700L679 0L656 0L339 684L349 684L32 0L9 0M116 211L126 230L561 230L571 211L116 211Z"  horiz-adv-x="688" vert-adv-y="1000"  />

      
      <glyph glyph-name="unic2" unicode="&#xc2;" d="M9 0L334 700L354 700L679 0L656 0L339 684L349 684L32 0L9 0M116 211L126 230L561 230L571 211L116 211Z"  horiz-adv-x="688" vert-adv-y="1000"  />

      
      <glyph glyph-name="uni1EA4" unicode="&#x1EA4;" d="M9 0L334 700L354 700L679 0L656 0L339 684L349 684L32 0L9 0M116 211L126 230L561 230L571 211L116 211Z"  horiz-adv-x="688" vert-adv-y="1000"  />

      
      <glyph glyph-name="uni1EAC" unicode="&#x1EAC;" d="M9 0L334 700L354 700L679 0L656 0L339 684L349 684L32 0L9 0M116 211L126 230L561 230L571 211L116 211M344-176Q334-176 326-168Q318-160 318-150Q318-139 326-131.50Q334-124 344-124Q355-124 362.50-131.50Q370-139 370-150Q370-160 362.50-168Q355-176 344-176Z"  horiz-adv-x="688" vert-adv-y="1000"  />

      
      <glyph glyph-name="uni1EA6" unicode="&#x1EA6;" d="M9 0L334 700L354 700L679 0L656 0L339 684L349 684L32 0L9 0M116 211L126 230L561 230L571 211L116 211Z"  horiz-adv-x="688" vert-adv-y="1000"  />

      
      <glyph glyph-name="uni1EA8" unicode="&#x1EA8;" d="M9 0L334 700L354 700L679 0L656 0L339 684L349 684L32 0L9 0M116 211L126 230L561 230L571 211L116 211Z"  horiz-adv-x="688" vert-adv-y="1000"  />

      
      <glyph glyph-name="uni1EAA" unicode="&#x1EAA;" d="M9 0L334 700L354 700L679 0L656 0L339 684L349 684L32 0L9 0M116 211L126 230L561 230L571 211L116 211Z"  horiz-adv-x="688" vert-adv-y="1000"  />

      
      <glyph glyph-name="uni0200" unicode="&#x0200;" d="M9 0L334 700L354 700L679 0L656 0L339 684L349 684L32 0L9 0M116 211L126 230L561 230L571 211L116 211Z"  horiz-adv-x="688" vert-adv-y="1000"  />

      
      <glyph glyph-name="unic4" unicode="&#xc4;" d="M9 0L334 700L354 700L679 0L656 0L339 684L349 684L32 0L9 0M116 211L126 230L561 230L571 211L116 211Z"  horiz-adv-x="688" vert-adv-y="1000"  />

      
      <glyph glyph-name="uni1EA0" unicode="&#x1EA0;" d="M9 0L334 700L354 700L679 0L656 0L339 684L349 684L32 0L9 0M116 211L126 230L561 230L571 211L116 211M344-176Q334-176 326-168Q318-160 318-150Q318-139 326-131.50Q334-124 344-124Q355-124 362.50-131.50Q370-139 370-150Q370-160 362.50-168Q355-176 344-176Z"  horiz-adv-x="688" vert-adv-y="1000"  />

      
      <glyph glyph-name="unic0" unicode="&#xc0;" d="M9 0L334 700L354 700L679 0L656 0L339 684L349 684L32 0L9 0M116 211L126 230L561 230L571 211L116 211Z"  horiz-adv-x="688" vert-adv-y="1000"  />

      
      <glyph glyph-name="uni1EA2" unicode="&#x1EA2;" d="M9 0L334 700L354 700L679 0L656 0L339 684L349 684L32 0L9 0M116 211L126 230L561 230L571 211L116 211Z"  horiz-adv-x="688" vert-adv-y="1000"  />

      
      <glyph glyph-name="uni0202" unicode="&#x0202;" d="M9 0L334 700L354 700L679 0L656 0L339 684L349 684L32 0L9 0M116 211L126 230L561 230L571 211L116 211Z"  horiz-adv-x="688" vert-adv-y="1000"  />

      
      <glyph glyph-name="uni0100" unicode="&#x0100;" d="M9 0L334 700L354 700L679 0L656 0L339 684L349 684L32 0L9 0M116 211L126 230L561 230L571 211L116 211Z"  horiz-adv-x="688" vert-adv-y="1000"  />

      
      <glyph glyph-name="uni0104" unicode="&#x0104;" d="M9 0L334 700L354 700L679 0L656 0L339 684L349 684L32 0L9 0M116 211L126 230L561 230L571 211L116 211M623-213Q584-213 558-191Q532-169 532-130Q532-109 542.50-85Q553-61 582.50-35Q612-9 669 16L679 0Q624-23 597-46.50Q570-70 561-91Q552-112 552-130Q552-162 572.50-178Q593-194 624-194Q641-194 657.50-188Q674-182 686-171L697-186Q681-200 662.50-206.50Q644-213 623-213Z"  horiz-adv-x="688" vert-adv-y="1000"  />

      
      <glyph glyph-name="unic5" unicode="&#xc5;" d="M9 0L334 700L354 700L679 0L656 0L339 684L349 684L32 0L9 0M116 211L126 230L561 230L571 211L116 211M343 780Q316 780 295.50 792.50Q275 805 263 825.50Q251 846 251 870Q251 895 263 916Q275 937 296 950Q317 963 343 963Q370 963 391 950Q412 937 424 916Q436 895 436 870Q436 846 424 825.50Q412 805 391 792.50Q370 780 343 780M343 799Q375 799 395.50 820Q416 841 416 870Q416 900 395.50 922Q375 944 343 944Q312 944 291.50 922.50Q271 901 271 870Q271 840 291 819.50Q311 799 343 799Z"  horiz-adv-x="688" vert-adv-y="1000"  />

      
      <glyph glyph-name="uni01FA" unicode="&#x01FA;" d="M9 0L334 700L354 700L679 0L656 0L339 684L349 684L32 0L9 0M116 211L126 230L561 230L571 211L116 211M343 780Q316 780 295.50 792.50Q275 805 263 825.50Q251 846 251 870Q251 895 263 916Q275 937 296 950Q317 963 343 963Q370 963 391 950Q412 937 424 916Q436 895 436 870Q436 846 424 825.50Q412 805 391 792.50Q370 780 343 780M343 799Q375 799 395.50 820Q416 841 416 870Q416 900 395.50 922Q375 944 343 944Q312 944 291.50 922.50Q271 901 271 870Q271 840 291 819.50Q311 799 343 799M411 928L390 937L479 1021L496 1008L411 928Z"  horiz-adv-x="688" vert-adv-y="1000"  />

      
      <glyph glyph-name="unic3" unicode="&#xc3;" d="M9 0L334 700L354 700L679 0L656 0L339 684L349 684L32 0L9 0M116 211L126 230L561 230L571 211L116 211Z"  horiz-adv-x="688" vert-adv-y="1000"  />

      
      <glyph glyph-name="unic6" unicode="&#xc6;" d="M9 0L454 700L475 700L475 681L453 681L467 685L32 0L9 0M153 211L163 230L475 230L475 211L153 211M485 365L876 365L876 346L485 346L485 365M490 19L936 19L936 0L470 0L470 700L921 700L921 681L490 681L490 19Z"  horiz-adv-x="1005" vert-adv-y="1000"  />

      
      <glyph glyph-name="uni01FC" unicode="&#x01FC;" d="M9 0L454 700L475 700L475 681L453 681L467 685L32 0L9 0M153 211L163 230L475 230L475 211L153 211M485 365L876 365L876 346L485 346L485 365M490 19L936 19L936 0L470 0L470 700L921 700L921 681L490 681L490 19Z"  horiz-adv-x="1005" vert-adv-y="1000"  />

      
      <glyph glyph-name="uni42" unicode="&#x42;" d="M133 0L133 700L410 700Q518 700 581.50 655.50Q645 611 645 523Q645 465 617 426.50Q589 388 539 369Q489 350 424 350L441 363Q522 363 575.50 342.50Q629 322 656 282Q683 242 683 183Q683 95 620.50 47.50Q558 0 430 0L133 0M153 19L434 19Q546 19 604.50 58.50Q663 98 663 183Q663 268 604.50 307Q546 346 434 346L148 346L148 365L414 365Q514 365 569.50 405Q625 445 625 523Q625 601 569.50 641Q514 681 414 681L153 681L153 19Z"  horiz-adv-x="748" vert-adv-y="1000"  />

      
      <glyph glyph-name="uni43" unicode="&#x43;" d="M418-3Q341-3 275.50 23.50Q210 50 161.50 98Q113 146 86 210Q59 274 59 350Q59 426 86 490Q113 554 161.50 602Q210 650 275.50 676.50Q341 703 418 703Q487 703 549 681Q611 659 656 614L644 600Q596 646 539 665Q482 684 418 684Q346 684 284 658.50Q222 633 176 587.50Q130 542 104.50 481.50Q79 421 79 350Q79 279 104.50 218.50Q130 158 176 112.50Q222 67 284 41.50Q346 16 418 16Q482 16 539 35.50Q596 55 644 101L656 87Q611 42 549 19.50Q487-3 418-3Z"  horiz-adv-x="711" vert-adv-y="1000"  />

      
      <glyph glyph-name="uni0106" unicode="&#x0106;" d="M418-3Q341-3 275.50 23.50Q210 50 161.50 98Q113 146 86 210Q59 274 59 350Q59 426 86 490Q113 554 161.50 602Q210 650 275.50 676.50Q341 703 418 703Q487 703 549 681Q611 659 656 614L644 600Q596 646 539 665Q482 684 418 684Q346 684 284 658.50Q222 633 176 587.50Q130 542 104.50 481.50Q79 421 79 350Q79 279 104.50 218.50Q130 158 176 112.50Q222 67 284 41.50Q346 16 418 16Q482 16 539 35.50Q596 55 644 101L656 87Q611 42 549 19.50Q487-3 418-3Z"  horiz-adv-x="711" vert-adv-y="1000"  />

      
      <glyph glyph-name="uni010C" unicode="&#x010C;" d="M418-3Q341-3 275.50 23.50Q210 50 161.50 98Q113 146 86 210Q59 274 59 350Q59 426 86 490Q113 554 161.50 602Q210 650 275.50 676.50Q341 703 418 703Q487 703 549 681Q611 659 656 614L644 600Q596 646 539 665Q482 684 418 684Q346 684 284 658.50Q222 633 176 587.50Q130 542 104.50 481.50Q79 421 79 350Q79 279 104.50 218.50Q130 158 176 112.50Q222 67 284 41.50Q346 16 418 16Q482 16 539 35.50Q596 55 644 101L656 87Q611 42 549 19.50Q487-3 418-3Z"  horiz-adv-x="711" vert-adv-y="1000"  />

      
      <glyph glyph-name="unic7" unicode="&#xc7;" d="M418-3Q341-3 275.50 23.50Q210 50 161.50 98Q113 146 86 210Q59 274 59 350Q59 426 86 490Q113 554 161.50 602Q210 650 275.50 676.50Q341 703 418 703Q487 703 549 681Q611 659 656 614L644 600Q596 646 539 665Q482 684 418 684Q346 684 284 658.50Q222 633 176 587.50Q130 542 104.50 481.50Q79 421 79 350Q79 279 104.50 218.50Q130 158 176 112.50Q222 67 284 41.50Q346 16 418 16Q482 16 539 35.50Q596 55 644 101L656 87Q611 42 549 19.50Q487-3 418-3M392-213Q371-213 353-206.50Q335-200 318-186L329-171Q341-182 357.50-188Q374-194 391-194Q422-194 442.50-178.50Q463-163 463-134Q463-108 444.50-91Q426-74 392-74L376-74L398 5L417 5L400-56Q438-58 460.50-79Q483-100 483-134Q483-170 457-191.50Q431-213 392-213Z"  horiz-adv-x="711" vert-adv-y="1000"  />

      
      <glyph glyph-name="uni1E08" unicode="&#x1E08;" d="M418-3Q341-3 275.50 23.50Q210 50 161.50 98Q113 146 86 210Q59 274 59 350Q59 426 86 490Q113 554 161.50 602Q210 650 275.50 676.50Q341 703 418 703Q487 703 549 681Q611 659 656 614L644 600Q596 646 539 665Q482 684 418 684Q346 684 284 658.50Q222 633 176 587.50Q130 542 104.50 481.50Q79 421 79 350Q79 279 104.50 218.50Q130 158 176 112.50Q222 67 284 41.50Q346 16 418 16Q482 16 539 35.50Q596 55 644 101L656 87Q611 42 549 19.50Q487-3 418-3M392-213Q371-213 353-206.50Q335-200 318-186L329-171Q341-182 357.50-188Q374-194 391-194Q422-194 442.50-178.50Q463-163 463-134Q463-108 444.50-91Q426-74 392-74L376-74L398 5L417 5L400-56Q438-58 460.50-79Q483-100 483-134Q483-170 457-191.50Q431-213 392-213Z"  horiz-adv-x="711" vert-adv-y="1000"  />

      
      <glyph glyph-name="uni0108" unicode="&#x0108;" d="M418-3Q341-3 275.50 23.50Q210 50 161.50 98Q113 146 86 210Q59 274 59 350Q59 426 86 490Q113 554 161.50 602Q210 650 275.50 676.50Q341 703 418 703Q487 703 549 681Q611 659 656 614L644 600Q596 646 539 665Q482 684 418 684Q346 684 284 658.50Q222 633 176 587.50Q130 542 104.50 481.50Q79 421 79 350Q79 279 104.50 218.50Q130 158 176 112.50Q222 67 284 41.50Q346 16 418 16Q482 16 539 35.50Q596 55 644 101L656 87Q611 42 549 19.50Q487-3 418-3Z"  horiz-adv-x="711" vert-adv-y="1000"  />

      
      <glyph glyph-name="uni010A" unicode="&#x010A;" d="M418-3Q341-3 275.50 23.50Q210 50 161.50 98Q113 146 86 210Q59 274 59 350Q59 426 86 490Q113 554 161.50 602Q210 650 275.50 676.50Q341 703 418 703Q487 703 549 681Q611 659 656 614L644 600Q596 646 539 665Q482 684 418 684Q346 684 284 658.50Q222 633 176 587.50Q130 542 104.50 481.50Q79 421 79 350Q79 279 104.50 218.50Q130 158 176 112.50Q222 67 284 41.50Q346 16 418 16Q482 16 539 35.50Q596 55 644 101L656 87Q611 42 549 19.50Q487-3 418-3Z"  horiz-adv-x="711" vert-adv-y="1000"  />

      
      <glyph glyph-name="uni44" unicode="&#x44;" d="M133 0L133 700L398 700Q509 700 592 654.50Q675 609 721 530Q767 451 767 350Q767 249 721 170Q675 91 592 45.50Q509 0 398 0L133 0M153 19L396 19Q503 19 582 62Q661 105 704 179.50Q747 254 747 350Q747 446 704 520.50Q661 595 582 638Q503 681 396 681L153 681L153 19Z"  horiz-adv-x="826" vert-adv-y="1000"  />

      
      <glyph glyph-name="uni01C4" unicode="&#x01C4;" d="M133 0L133 700L398 700Q509 700 592 654.50Q675 609 721 530Q767 451 767 350Q767 249 721 170Q675 91 592 45.50Q509 0 398 0L133 0M153 19L396 19Q503 19 582 62Q661 105 704 179.50Q747 254 747 350Q747 446 704 520.50Q661 595 582 638Q503 681 396 681L153 681L153 19Z"  horiz-adv-x="1461" vert-adv-y="1000"  />

      
      <glyph glyph-name="unid0" unicode="&#xd0;" d="M133 0L133 700L398 700Q509 700 592 654.50Q675 609 721 530Q767 451 767 350Q767 249 721 170Q675 91 592 45.50Q509 0 398 0L133 0M153 19L396 19Q503 19 582 62Q661 105 704 179.50Q747 254 747 350Q747 446 704 520.50Q661 595 582 638Q503 681 396 681L153 681L153 19M20 346L20 365L380 365L380 346L20 346Z"  horiz-adv-x="826" vert-adv-y="1000"  />

      
      <glyph glyph-name="uni010E" unicode="&#x010E;" d="M133 0L133 700L398 700Q509 700 592 654.50Q675 609 721 530Q767 451 767 350Q767 249 721 170Q675 91 592 45.50Q509 0 398 0L133 0M153 19L396 19Q503 19 582 62Q661 105 704 179.50Q747 254 747 350Q747 446 704 520.50Q661 595 582 638Q503 681 396 681L153 681L153 19Z"  horiz-adv-x="826" vert-adv-y="1000"  />

      
      <glyph glyph-name="uni0110" unicode="&#x0110;" d="M133 0L133 700L398 700Q509 700 592 654.50Q675 609 721 530Q767 451 767 350Q767 249 721 170Q675 91 592 45.50Q509 0 398 0L133 0M153 19L396 19Q503 19 582 62Q661 105 704 179.50Q747 254 747 350Q747 446 704 520.50Q661 595 582 638Q503 681 396 681L153 681L153 19M20 346L20 365L380 365L380 346L20 346Z"  horiz-adv-x="826" vert-adv-y="1000"  />

      
      <glyph glyph-name="uni1E0C" unicode="&#x1E0C;" d="M133 0L133 700L398 700Q509 700 592 654.50Q675 609 721 530Q767 451 767 350Q767 249 721 170Q675 91 592 45.50Q509 0 398 0L133 0M153 19L396 19Q503 19 582 62Q661 105 704 179.50Q747 254 747 350Q747 446 704 520.50Q661 595 582 638Q503 681 396 681L153 681L153 19M396-176Q386-176 378-168Q370-160 370-150Q370-139 378-131.50Q386-124 396-124Q407-124 414.50-131.50Q422-139 422-150Q422-160 414.50-168Q407-176 396-176Z"  horiz-adv-x="826" vert-adv-y="1000"  />

      
      <glyph glyph-name="uni1E0E" unicode="&#x1E0E;" d="M133 0L133 700L398 700Q509 700 592 654.50Q675 609 721 530Q767 451 767 350Q767 249 721 170Q675 91 592 45.50Q509 0 398 0L133 0M153 19L396 19Q503 19 582 62Q661 105 704 179.50Q747 254 747 350Q747 446 704 520.50Q661 595 582 638Q503 681 396 681L153 681L153 19M260-160L260-140L532-140L532-160L260-160Z"  horiz-adv-x="826" vert-adv-y="1000"  />

      
      <glyph glyph-name="uni01C5" unicode="&#x01C5;" d="M133 0L133 700L398 700Q509 700 592 654.50Q675 609 721 530Q767 451 767 350Q767 249 721 170Q675 91 592 45.50Q509 0 398 0L133 0M153 19L396 19Q503 19 582 62Q661 105 704 179.50Q747 254 747 350Q747 446 704 520.50Q661 595 582 638Q503 681 396 681L153 681L153 19Z"  horiz-adv-x="1317" vert-adv-y="1000"  />

      
      <glyph glyph-name="uni45" unicode="&#x45;" d="M148 365L539 365L539 346L148 346L148 365M153 19L599 19L599 0L133 0L133 700L584 700L584 681L153 681L153 19Z"  horiz-adv-x="668" vert-adv-y="1000"  />

      
      <glyph glyph-name="unic9" unicode="&#xc9;" d="M148 365L539 365L539 346L148 346L148 365M153 19L599 19L599 0L133 0L133 700L584 700L584 681L153 681L153 19Z"  horiz-adv-x="668" vert-adv-y="1000"  />

      
      <glyph glyph-name="uni0114" unicode="&#x0114;" d="M148 365L539 365L539 346L148 346L148 365M153 19L599 19L599 0L133 0L133 700L584 700L584 681L153 681L153 19Z"  horiz-adv-x="668" vert-adv-y="1000"  />

      
      <glyph glyph-name="uni011A" unicode="&#x011A;" d="M148 365L539 365L539 346L148 346L148 365M153 19L599 19L599 0L133 0L133 700L584 700L584 681L153 681L153 19Z"  horiz-adv-x="668" vert-adv-y="1000"  />

      
      <glyph glyph-name="uni1E1C" unicode="&#x1E1C;" d="M148 365L539 365L539 346L148 346L148 365M153 19L599 19L599 0L133 0L133 700L584 700L584 681L153 681L153 19M360-213Q339-213 321-206.50Q303-200 286-186L297-171Q309-182 325.50-188Q342-194 359-194Q390-194 410.50-178.50Q431-163 431-134Q431-108 412.50-91Q394-74 360-74L344-74L366 5L385 5L368-56Q406-58 428.50-79Q451-100 451-134Q451-170 425-191.50Q399-213 360-213Z"  horiz-adv-x="668" vert-adv-y="1000"  />

      
      <glyph glyph-name="unica" unicode="&#xca;" d="M148 365L539 365L539 346L148 346L148 365M153 19L599 19L599 0L133 0L133 700L584 700L584 681L153 681L153 19Z"  horiz-adv-x="668" vert-adv-y="1000"  />

      
      <glyph glyph-name="uni1EBE" unicode="&#x1EBE;" d="M148 365L539 365L539 346L148 346L148 365M153 19L599 19L599 0L133 0L133 700L584 700L584 681L153 681L153 19Z"  horiz-adv-x="668" vert-adv-y="1000"  />

      
      <glyph glyph-name="uni1EC6" unicode="&#x1EC6;" d="M148 365L539 365L539 346L148 346L148 365M153 19L599 19L599 0L133 0L133 700L584 700L584 681L153 681L153 19M376-176Q366-176 358-168Q350-160 350-150Q350-139 358-131.50Q366-124 376-124Q387-124 394.50-131.50Q402-139 402-150Q402-160 394.50-168Q387-176 376-176Z"  horiz-adv-x="668" vert-adv-y="1000"  />

      
      <glyph glyph-name="uni1EC0" unicode="&#x1EC0;" d="M148 365L539 365L539 346L148 346L148 365M153 19L599 19L599 0L133 0L133 700L584 700L584 681L153 681L153 19Z"  horiz-adv-x="668" vert-adv-y="1000"  />

      
      <glyph glyph-name="uni1EC2" unicode="&#x1EC2;" d="M148 365L539 365L539 346L148 346L148 365M153 19L599 19L599 0L133 0L133 700L584 700L584 681L153 681L153 19Z"  horiz-adv-x="668" vert-adv-y="1000"  />

      
      <glyph glyph-name="uni1EC4" unicode="&#x1EC4;" d="M148 365L539 365L539 346L148 346L148 365M153 19L599 19L599 0L133 0L133 700L584 700L584 681L153 681L153 19Z"  horiz-adv-x="668" vert-adv-y="1000"  />

      
      <glyph glyph-name="uni0204" unicode="&#x0204;" d="M148 365L539 365L539 346L148 346L148 365M153 19L599 19L599 0L133 0L133 700L584 700L584 681L153 681L153 19Z"  horiz-adv-x="668" vert-adv-y="1000"  />

      
      <glyph glyph-name="unicb" unicode="&#xcb;" d="M148 365L539 365L539 346L148 346L148 365M153 19L599 19L599 0L133 0L133 700L584 700L584 681L153 681L153 19Z"  horiz-adv-x="668" vert-adv-y="1000"  />

      
      <glyph glyph-name="uni0116" unicode="&#x0116;" d="M148 365L539 365L539 346L148 346L148 365M153 19L599 19L599 0L133 0L133 700L584 700L584 681L153 681L153 19Z"  horiz-adv-x="668" vert-adv-y="1000"  />

      
      <glyph glyph-name="uni1EB8" unicode="&#x1EB8;" d="M148 365L539 365L539 346L148 346L148 365M153 19L599 19L599 0L133 0L133 700L584 700L584 681L153 681L153 19M376-176Q366-176 358-168Q350-160 350-150Q350-139 358-131.50Q366-124 376-124Q387-124 394.50-131.50Q402-139 402-150Q402-160 394.50-168Q387-176 376-176Z"  horiz-adv-x="668" vert-adv-y="1000"  />

      
      <glyph glyph-name="unic8" unicode="&#xc8;" d="M148 365L539 365L539 346L148 346L148 365M153 19L599 19L599 0L133 0L133 700L584 700L584 681L153 681L153 19Z"  horiz-adv-x="668" vert-adv-y="1000"  />

      
      <glyph glyph-name="uni1EBA" unicode="&#x1EBA;" d="M148 365L539 365L539 346L148 346L148 365M153 19L599 19L599 0L133 0L133 700L584 700L584 681L153 681L153 19Z"  horiz-adv-x="668" vert-adv-y="1000"  />

      
      <glyph glyph-name="uni0206" unicode="&#x0206;" d="M148 365L539 365L539 346L148 346L148 365M153 19L599 19L599 0L133 0L133 700L584 700L584 681L153 681L153 19Z"  horiz-adv-x="668" vert-adv-y="1000"  />

      
      <glyph glyph-name="uni0112" unicode="&#x0112;" d="M148 365L539 365L539 346L148 346L148 365M153 19L599 19L599 0L133 0L133 700L584 700L584 681L153 681L153 19Z"  horiz-adv-x="668" vert-adv-y="1000"  />

      
      <glyph glyph-name="uni1E16" unicode="&#x1E16;" d="M148 365L539 365L539 346L148 346L148 365M153 19L599 19L599 0L133 0L133 700L584 700L584 681L153 681L153 19Z"  horiz-adv-x="668" vert-adv-y="1000"  />

      
      <glyph glyph-name="uni1E14" unicode="&#x1E14;" d="M148 365L539 365L539 346L148 346L148 365M153 19L599 19L599 0L133 0L133 700L584 700L584 681L153 681L153 19Z"  horiz-adv-x="668" vert-adv-y="1000"  />

      
      <glyph glyph-name="uni0118" unicode="&#x0118;" d="M148 365L539 365L539 346L148 346L148 365M153 19L599 19L599 0L133 0L133 700L584 700L584 681L153 681L153 19M543-213Q504-213 478-191Q452-169 452-130Q452-109 462.50-85Q473-61 502.50-35Q532-9 589 16L599 0Q544-23 517-46.50Q490-70 481-91Q472-112 472-130Q472-162 492.50-178Q513-194 544-194Q561-194 577.50-188Q594-182 606-171L617-186Q601-200 582.50-206.50Q564-213 543-213Z"  horiz-adv-x="668" vert-adv-y="1000"  />

      
      <glyph glyph-name="uni1EBC" unicode="&#x1EBC;" d="M148 365L539 365L539 346L148 346L148 365M153 19L599 19L599 0L133 0L133 700L584 700L584 681L153 681L153 19Z"  horiz-adv-x="668" vert-adv-y="1000"  />

      
      <glyph glyph-name="uni01B7" unicode="&#x01B7;" d="M289-3Q204-3 135.50 25Q67 53 34 96L47 109Q79 70 142.50 43Q206 16 290 16Q399 16 456 64Q513 112 513 192Q513 272 454.50 320Q396 368 274 368L237 368L237 383L483 688L485 681L57 681L57 700L505 700L505 685L259 380L257 387L273 387Q361 387 418.50 362.50Q476 338 504.50 294Q533 250 533 192Q533 134 505 90Q477 46 422.50 21.50Q368-3 289-3Z"  horiz-adv-x="599" vert-adv-y="1000"  />

      
      <glyph glyph-name="uni01EE" unicode="&#x01EE;" d="M289-3Q204-3 135.50 25Q67 53 34 96L47 109Q79 70 142.50 43Q206 16 290 16Q399 16 456 64Q513 112 513 192Q513 272 454.50 320Q396 368 274 368L237 368L237 383L483 688L485 681L57 681L57 700L505 700L505 685L259 380L257 387L273 387Q361 387 418.50 362.50Q476 338 504.50 294Q533 250 533 192Q533 134 505 90Q477 46 422.50 21.50Q368-3 289-3Z"  horiz-adv-x="599" vert-adv-y="1000"  />

      
      <glyph glyph-name="uni46" unicode="&#x46;" d="M148 345L539 345L539 326L148 326L148 345M153 0L133 0L133 700L584 700L584 681L153 681L153 0Z"  horiz-adv-x="629" vert-adv-y="1000"  />

      
      <glyph glyph-name="uni47" unicode="&#x47;" d="M421-3Q343-3 277 23.50Q211 50 162 98Q113 146 86 210Q59 274 59 350Q59 426 86 490Q113 554 162 602Q211 650 277 676.50Q343 703 421 703Q492 703 554.50 681Q617 659 662 614L650 600Q602 646 544.50 665Q487 684 421 684Q348 684 285.50 658.50Q223 633 176.50 587.50Q130 542 104.50 481.50Q79 421 79 350Q79 279 104.50 218.50Q130 158 176.50 112.50Q223 67 285.50 41.50Q348 16 421 16Q487 16 545.50 36Q604 56 650 102L662 87Q617 42 554.50 19.50Q492-3 421-3M643 87L643 343L662 343L662 87L643 87Z"  horiz-adv-x="774" vert-adv-y="1000"  />

      
      <glyph glyph-name="uni011E" unicode="&#x011E;" d="M421-3Q343-3 277 23.50Q211 50 162 98Q113 146 86 210Q59 274 59 350Q59 426 86 490Q113 554 162 602Q211 650 277 676.50Q343 703 421 703Q492 703 554.50 681Q617 659 662 614L650 600Q602 646 544.50 665Q487 684 421 684Q348 684 285.50 658.50Q223 633 176.50 587.50Q130 542 104.50 481.50Q79 421 79 350Q79 279 104.50 218.50Q130 158 176.50 112.50Q223 67 285.50 41.50Q348 16 421 16Q487 16 545.50 36Q604 56 650 102L662 87Q617 42 554.50 19.50Q492-3 421-3M643 87L643 343L662 343L662 87L643 87Z"  horiz-adv-x="774" vert-adv-y="1000"  />

      
      <glyph glyph-name="uni01E6" unicode="&#x01E6;" d="M421-3Q343-3 277 23.50Q211 50 162 98Q113 146 86 210Q59 274 59 350Q59 426 86 490Q113 554 162 602Q211 650 277 676.50Q343 703 421 703Q492 703 554.50 681Q617 659 662 614L650 600Q602 646 544.50 665Q487 684 421 684Q348 684 285.50 658.50Q223 633 176.50 587.50Q130 542 104.50 481.50Q79 421 79 350Q79 279 104.50 218.50Q130 158 176.50 112.50Q223 67 285.50 41.50Q348 16 421 16Q487 16 545.50 36Q604 56 650 102L662 87Q617 42 554.50 19.50Q492-3 421-3M643 87L643 343L662 343L662 87L643 87Z"  horiz-adv-x="774" vert-adv-y="1000"  />

      
      <glyph glyph-name="uni011C" unicode="&#x011C;" d="M421-3Q343-3 277 23.50Q211 50 162 98Q113 146 86 210Q59 274 59 350Q59 426 86 490Q113 554 162 602Q211 650 277 676.50Q343 703 421 703Q492 703 554.50 681Q617 659 662 614L650 600Q602 646 544.50 665Q487 684 421 684Q348 684 285.50 658.50Q223 633 176.50 587.50Q130 542 104.50 481.50Q79 421 79 350Q79 279 104.50 218.50Q130 158 176.50 112.50Q223 67 285.50 41.50Q348 16 421 16Q487 16 545.50 36Q604 56 650 102L662 87Q617 42 554.50 19.50Q492-3 421-3M643 87L643 343L662 343L662 87L643 87Z"  horiz-adv-x="774" vert-adv-y="1000"  />

      
      <glyph glyph-name="uni0122" unicode="&#x0122;" d="M421-3Q343-3 277 23.50Q211 50 162 98Q113 146 86 210Q59 274 59 350Q59 426 86 490Q113 554 162 602Q211 650 277 676.50Q343 703 421 703Q492 703 554.50 681Q617 659 662 614L650 600Q602 646 544.50 665Q487 684 421 684Q348 684 285.50 658.50Q223 633 176.50 587.50Q130 542 104.50 481.50Q79 421 79 350Q79 279 104.50 218.50Q130 158 176.50 112.50Q223 67 285.50 41.50Q348 16 421 16Q487 16 545.50 36Q604 56 650 102L662 87Q617 42 554.50 19.50Q492-3 421-3M643 87L643 343L662 343L662 87L643 87M381-259L401-165L402-176Q392-176 384-168Q376-160 376-150Q376-139 383.50-131.50Q391-124 402-124Q414-124 421-132.50Q428-141 428-150Q428-158 426-166Q424-174 422-182L399-259L381-259Z"  horiz-adv-x="774" vert-adv-y="1000"  />

      
      <glyph glyph-name="uni0120" unicode="&#x0120;" d="M421-3Q343-3 277 23.50Q211 50 162 98Q113 146 86 210Q59 274 59 350Q59 426 86 490Q113 554 162 602Q211 650 277 676.50Q343 703 421 703Q492 703 554.50 681Q617 659 662 614L650 600Q602 646 544.50 665Q487 684 421 684Q348 684 285.50 658.50Q223 633 176.50 587.50Q130 542 104.50 481.50Q79 421 79 350Q79 279 104.50 218.50Q130 158 176.50 112.50Q223 67 285.50 41.50Q348 16 421 16Q487 16 545.50 36Q604 56 650 102L662 87Q617 42 554.50 19.50Q492-3 421-3M643 87L643 343L662 343L662 87L643 87Z"  horiz-adv-x="774" vert-adv-y="1000"  />

      
      <glyph glyph-name="uni1E20" unicode="&#x1E20;" d="M421-3Q343-3 277 23.50Q211 50 162 98Q113 146 86 210Q59 274 59 350Q59 426 86 490Q113 554 162 602Q211 650 277 676.50Q343 703 421 703Q492 703 554.50 681Q617 659 662 614L650 600Q602 646 544.50 665Q487 684 421 684Q348 684 285.50 658.50Q223 633 176.50 587.50Q130 542 104.50 481.50Q79 421 79 350Q79 279 104.50 218.50Q130 158 176.50 112.50Q223 67 285.50 41.50Q348 16 421 16Q487 16 545.50 36Q604 56 650 102L662 87Q617 42 554.50 19.50Q492-3 421-3M643 87L643 343L662 343L662 87L643 87Z"  horiz-adv-x="774" vert-adv-y="1000"  />

      
      <glyph glyph-name="uni01E4" unicode="&#x01E4;" d="M420 224L420 243L780 243L780 224L420 224M421-3Q343-3 277 23.50Q211 50 162 98Q113 146 86 210Q59 274 59 350Q59 426 86 490Q113 554 162 602Q211 650 277 676.50Q343 703 421 703Q492 703 554.50 681Q617 659 662 614L650 600Q602 646 544.50 665Q487 684 421 684Q348 684 285.50 658.50Q223 633 176.50 587.50Q130 542 104.50 481.50Q79 421 79 350Q79 279 104.50 218.50Q130 158 176.50 112.50Q223 67 285.50 41.50Q348 16 421 16Q487 16 545.50 36Q604 56 650 102L662 87Q617 42 554.50 19.50Q492-3 421-3M643 87L643 343L662 343L662 87L643 87Z"  horiz-adv-x="804" vert-adv-y="1000"  />

      
      <glyph glyph-name="uni48" unicode="&#x48;" d="M663 700L683 700L683 0L663 0L663 700M153 0L133 0L133 700L153 700L153 0M668 346L148 346L148 365L668 365L668 346Z"  horiz-adv-x="816" vert-adv-y="1000"  />

      
      <glyph glyph-name="uni0126" unicode="&#x0126;" d="M663 700L683 700L683 0L663 0L663 700M153 0L133 0L133 700L153 700L153 0M668 346L148 346L148 365L668 365L668 346M20 529L20 548L796 548L796 529L20 529Z"  horiz-adv-x="816" vert-adv-y="1000"  />

      
      <glyph glyph-name="uni1E2A" unicode="&#x1E2A;" d="M663 700L683 700L683 0L663 0L663 700M153 0L133 0L133 700L153 700L153 0M668 346L148 346L148 365L668 365L668 346M408-198Q354-198 316-169Q278-140 276-90L295-90Q297-131 329.50-155Q362-179 408-179Q455-179 487.50-155Q520-131 521-90L540-90Q539-140 500.50-169Q462-198 408-198Z"  horiz-adv-x="816" vert-adv-y="1000"  />

      
      <glyph glyph-name="uni021E" unicode="&#x021E;" d="M663 700L683 700L683 0L663 0L663 700M153 0L133 0L133 700L153 700L153 0M668 346L148 346L148 365L668 365L668 346Z"  horiz-adv-x="816" vert-adv-y="1000"  />

      
      <glyph glyph-name="uni0124" unicode="&#x0124;" d="M663 700L683 700L683 0L663 0L663 700M153 0L133 0L133 700L153 700L153 0M668 346L148 346L148 365L668 365L668 346Z"  horiz-adv-x="816" vert-adv-y="1000"  />

      
      <glyph glyph-name="uni1E24" unicode="&#x1E24;" d="M663 700L683 700L683 0L663 0L663 700M153 0L133 0L133 700L153 700L153 0M668 346L148 346L148 365L668 365L668 346M408-176Q398-176 390-168Q382-160 382-150Q382-139 390-131.50Q398-124 408-124Q419-124 426.50-131.50Q434-139 434-150Q434-160 426.50-168Q419-176 408-176Z"  horiz-adv-x="816" vert-adv-y="1000"  />

      
      <glyph glyph-name="uni49" unicode="&#x49;" d="M133 0L133 700L153 700L153 0L133 0Z"  horiz-adv-x="286" vert-adv-y="1000"  />

      
      <glyph glyph-name="uni0132" unicode="&#x0132;" d="M327-3Q267-3 214 15.50Q161 34 120 62L132 78Q172 49 222 32.50Q272 16 328 16Q439 16 503 85Q567 154 567 294L567 700L587 700L587 293Q587 194 554.50 128.50Q522 63 464 30Q406-3 327-3M127 290L127 700L147 700L147 290L127 290Z"  horiz-adv-x="714" vert-adv-y="1000"  />

      
      <glyph glyph-name="unicd" unicode="&#xcd;" d="M133 0L133 700L153 700L153 0L133 0Z"  horiz-adv-x="286" vert-adv-y="1000"  />

      
      <glyph glyph-name="uni012C" unicode="&#x012C;" d="M133 0L133 700L153 700L153 0L133 0Z"  horiz-adv-x="286" vert-adv-y="1000"  />

      
      <glyph glyph-name="unice" unicode="&#xce;" d="M133 0L133 700L153 700L153 0L133 0Z"  horiz-adv-x="286" vert-adv-y="1000"  />

      
      <glyph glyph-name="uni0208" unicode="&#x0208;" d="M133 0L133 700L153 700L153 0L133 0Z"  horiz-adv-x="286" vert-adv-y="1000"  />

      
      <glyph glyph-name="unicf" unicode="&#xcf;" d="M133 0L133 700L153 700L153 0L133 0Z"  horiz-adv-x="286" vert-adv-y="1000"  />

      
      <glyph glyph-name="uni1E2E" unicode="&#x1E2E;" d="M133 0L133 700L153 700L153 0L133 0Z"  horiz-adv-x="286" vert-adv-y="1000"  />

      
      <glyph glyph-name="uni0130" unicode="&#x0130;" d="M133 0L133 700L153 700L153 0L133 0Z"  horiz-adv-x="286" vert-adv-y="1000"  />

      
      <glyph glyph-name="uni1ECA" unicode="&#x1ECA;" d="M133 0L133 700L153 700L153 0L133 0M143-176Q133-176 125-168Q117-160 117-150Q117-139 125-131.50Q133-124 143-124Q154-124 161.50-131.50Q169-139 169-150Q169-160 161.50-168Q154-176 143-176Z"  horiz-adv-x="286" vert-adv-y="1000"  />

      
      <glyph glyph-name="unicc" unicode="&#xcc;" d="M133 0L133 700L153 700L153 0L133 0Z"  horiz-adv-x="286" vert-adv-y="1000"  />

      
      <glyph glyph-name="uni1EC8" unicode="&#x1EC8;" d="M133 0L133 700L153 700L153 0L133 0Z"  horiz-adv-x="286" vert-adv-y="1000"  />

      
      <glyph glyph-name="uni020A" unicode="&#x020A;" d="M133 0L133 700L153 700L153 0L133 0Z"  horiz-adv-x="286" vert-adv-y="1000"  />

      
      <glyph glyph-name="uni012A" unicode="&#x012A;" d="M133 0L133 700L153 700L153 0L133 0Z"  horiz-adv-x="286" vert-adv-y="1000"  />

      
      <glyph glyph-name="uni012E" unicode="&#x012E;" d="M133 0L133 700L153 700L153 0L133 0M145-213Q115-213 96.50-191Q78-169 78-135Q78-107 90-67Q102-27 145 17L153 0Q114-44 106-76.50Q98-109 98-134Q98-164 112-179.50Q126-195 145-195Q158-195 168-189.50Q178-184 185-175L196-189Q177-213 145-213Z"  horiz-adv-x="286" vert-adv-y="1000"  />

      
      <glyph glyph-name="uni0128" unicode="&#x0128;" d="M133 0L133 700L153 700L153 0L133 0Z"  horiz-adv-x="286" vert-adv-y="1000"  />

      
      <glyph glyph-name="uni4a" unicode="&#x4a;" d="M178-3Q125-3 78.50 23.50Q32 50 4 96L18 108Q47 64 88.50 40Q130 16 179 16Q330 16 330 196L330 681L68 681L68 700L350 700L350 194Q350 96 307 46.50Q264-3 178-3Z"  horiz-adv-x="477" vert-adv-y="1000"  />

      
      <glyph glyph-name="uni0134" unicode="&#x0134;" d="M178-3Q125-3 78.50 23.50Q32 50 4 96L18 108Q47 64 88.50 40Q130 16 179 16Q330 16 330 196L330 681L68 681L68 700L350 700L350 194Q350 96 307 46.50Q264-3 178-3Z"  horiz-adv-x="477" vert-adv-y="1000"  />

      
      <glyph glyph-name="uni4b" unicode="&#x4b;" d="M149 182L149 209L627 700L654 700L340 377L328 366L149 182M133 0L133 700L153 700L153 0L133 0M650 0L317 377L332 390L677 0L650 0Z"  horiz-adv-x="693" vert-adv-y="1000"  />

      
      <glyph glyph-name="uni01E8" unicode="&#x01E8;" d="M149 182L149 209L627 700L654 700L340 377L328 366L149 182M133 0L133 700L153 700L153 0L133 0M650 0L317 377L332 390L677 0L650 0Z"  horiz-adv-x="693" vert-adv-y="1000"  />

      
      <glyph glyph-name="uni0136" unicode="&#x0136;" d="M149 182L149 209L627 700L654 700L340 377L328 366L149 182M133 0L133 700L153 700L153 0L133 0M650 0L317 377L332 390L677 0L650 0M349-259L369-165L370-176Q360-176 352-168Q344-160 344-150Q344-139 351.50-131.50Q359-124 370-124Q382-124 389-132.50Q396-141 396-150Q396-158 394-166Q392-174 390-182L367-259L349-259Z"  horiz-adv-x="693" vert-adv-y="1000"  />

      
      <glyph glyph-name="uni4c" unicode="&#x4c;" d="M133 0L133 700L153 700L153 19L570 19L570 0L133 0Z"  horiz-adv-x="580" vert-adv-y="1000"  />

      
      <glyph glyph-name="uni01C7" unicode="&#x01C7;" d="M133 0L133 700L153 700L153 19L570 19L570 0L133 0M758-3Q705-3 658.50 23.50Q612 50 584 96L598 108Q627 64 668.50 40Q710 16 759 16Q910 16 910 196L910 681L648 681L648 700L930 700L930 194Q930 96 887 46.50Q844-3 758-3Z"  horiz-adv-x="1057" vert-adv-y="1000"  />

      
      <glyph glyph-name="uni0139" unicode="&#x0139;" d="M133 0L133 700L153 700L153 19L570 19L570 0L133 0Z"  horiz-adv-x="580" vert-adv-y="1000"  />

      
      <glyph glyph-name="uni013D" unicode="&#x013D;" d="M133 0L133 700L153 700L153 19L570 19L570 0L133 0M446 540L446 720L466 720L464 540L446 540Z"  horiz-adv-x="580" vert-adv-y="1000"  />

      
      <glyph glyph-name="uni013B" unicode="&#x013B;" d="M133 0L133 700L153 700L153 19L570 19L570 0L133 0M341-259L361-165L362-176Q352-176 344-168Q336-160 336-150Q336-139 343.50-131.50Q351-124 362-124Q374-124 381-132.50Q388-141 388-150Q388-158 386-166Q384-174 382-182L359-259L341-259Z"  horiz-adv-x="580" vert-adv-y="1000"  />

      
      <glyph glyph-name="uni013F" unicode="&#x013F;" d="M133 0L133 700L153 700L153 19L570 19L570 0L133 0M433 334Q423 334 415 342Q407 350 407 360Q407 371 415 378.50Q423 386 433 386Q444 386 451.50 378.50Q459 371 459 360Q459 350 451.50 342Q444 334 433 334Z"  horiz-adv-x="580" vert-adv-y="1000"  />

      
      <glyph glyph-name="uni1E36" unicode="&#x1E36;" d="M133 0L133 700L153 700L153 19L570 19L570 0L133 0M362-176Q352-176 344-168Q336-160 336-150Q336-139 344-131.50Q352-124 362-124Q373-124 380.50-131.50Q388-139 388-150Q388-160 380.50-168Q373-176 362-176Z"  horiz-adv-x="580" vert-adv-y="1000"  />

      
      <glyph glyph-name="uni01C8" unicode="&#x01C8;" d="M133 0L133 700L153 700L153 19L570 19L570 0L133 0Z"  horiz-adv-x="835" vert-adv-y="1000"  />

      
      <glyph glyph-name="uni1E3A" unicode="&#x1E3A;" d="M133 0L133 700L153 700L153 19L570 19L570 0L133 0M226-160L226-140L498-140L498-160L226-160Z"  horiz-adv-x="580" vert-adv-y="1000"  />

      
      <glyph glyph-name="uni0141" unicode="&#x0141;" d="M133 0L133 700L153 700L153 19L570 19L570 0L133 0M52 282L41 296L284 475L295 461L52 282Z"  horiz-adv-x="580" vert-adv-y="1000"  />

      
      <glyph glyph-name="uni4d" unicode="&#x4d;" d="M133 0L133 700L150 700L483 118L474 118L806 700L823 700L823 0L803 0L803 671L811 671L484 99L472 99L144 671L153 671L153 0L133 0Z"  horiz-adv-x="956" vert-adv-y="1000"  />

      
      <glyph glyph-name="uni1E42" unicode="&#x1E42;" d="M133 0L133 700L150 700L483 118L474 118L806 700L823 700L823 0L803 0L803 671L811 671L484 99L472 99L144 671L153 671L153 0L133 0M478-176Q468-176 460-168Q452-160 452-150Q452-139 460-131.50Q468-124 478-124Q489-124 496.50-131.50Q504-139 504-150Q504-160 496.50-168Q489-176 478-176Z"  horiz-adv-x="956" vert-adv-y="1000"  />

      
      <glyph glyph-name="uni4e" unicode="&#x4e;" d="M133 0L133 700L150 700L674 23L663 23L663 700L683 700L683 0L666 0L142 677L153 677L153 0L133 0Z"  horiz-adv-x="816" vert-adv-y="1000"  />

      
      <glyph glyph-name="uni01CA" unicode="&#x01CA;" d="M133 0L133 700L150 700L674 23L663 23L663 700L683 700L683 0L666 0L142 677L153 677L153 0L133 0M994-3Q941-3 894.50 23.50Q848 50 820 96L834 108Q863 64 904.50 40Q946 16 995 16Q1146 16 1146 196L1146 681L884 681L884 700L1166 700L1166 194Q1166 96 1123 46.50Q1080-3 994-3Z"  horiz-adv-x="1293" vert-adv-y="1000"  />

      
      <glyph glyph-name="uni0143" unicode="&#x0143;" d="M133 0L133 700L150 700L674 23L663 23L663 700L683 700L683 0L666 0L142 677L153 677L153 0L133 0Z"  horiz-adv-x="816" vert-adv-y="1000"  />

      
      <glyph glyph-name="uni0147" unicode="&#x0147;" d="M133 0L133 700L150 700L674 23L663 23L663 700L683 700L683 0L666 0L142 677L153 677L153 0L133 0Z"  horiz-adv-x="816" vert-adv-y="1000"  />

      
      <glyph glyph-name="uni0145" unicode="&#x0145;" d="M133 0L133 700L150 700L674 23L663 23L663 700L683 700L683 0L666 0L142 677L153 677L153 0L133 0M387-259L407-165L408-176Q398-176 390-168Q382-160 382-150Q382-139 389.50-131.50Q397-124 408-124Q420-124 427-132.50Q434-141 434-150Q434-158 432-166Q430-174 428-182L405-259L387-259Z"  horiz-adv-x="816" vert-adv-y="1000"  />

      
      <glyph glyph-name="uni1E44" unicode="&#x1E44;" d="M133 0L133 700L150 700L674 23L663 23L663 700L683 700L683 0L666 0L142 677L153 677L153 0L133 0Z"  horiz-adv-x="816" vert-adv-y="1000"  />

      
      <glyph glyph-name="uni1E46" unicode="&#x1E46;" d="M133 0L133 700L150 700L674 23L663 23L663 700L683 700L683 0L666 0L142 677L153 677L153 0L133 0M408-176Q398-176 390-168Q382-160 382-150Q382-139 390-131.50Q398-124 408-124Q419-124 426.50-131.50Q434-139 434-150Q434-160 426.50-168Q419-176 408-176Z"  horiz-adv-x="816" vert-adv-y="1000"  />

      
      <glyph glyph-name="uni014A" unicode="&#x014A;" d="M133 0L133 700L150 700L674 23L666 0L142 677L153 677L153 0L133 0M511-197Q458-197 411.50-170.50Q365-144 337-98L351-86Q380-130 421.50-154Q463-178 512-178Q663-178 663 2L663 700L683 700L683 0Q683-98 640-147.50Q597-197 511-197Z"  horiz-adv-x="816" vert-adv-y="1000"  />

      
      <glyph glyph-name="uni01CB" unicode="&#x01CB;" d="M133 0L133 700L150 700L674 23L663 23L663 700L683 700L683 0L666 0L142 677L153 677L153 0L133 0Z"  horiz-adv-x="1071" vert-adv-y="1000"  />

      
      <glyph glyph-name="uni1E48" unicode="&#x1E48;" d="M133 0L133 700L150 700L674 23L663 23L663 700L683 700L683 0L666 0L142 677L153 677L153 0L133 0M272-160L272-140L544-140L544-160L272-160Z"  horiz-adv-x="816" vert-adv-y="1000"  />

      
      <glyph glyph-name="unid1" unicode="&#xd1;" d="M133 0L133 700L150 700L674 23L663 23L663 700L683 700L683 0L666 0L142 677L153 677L153 0L133 0Z"  horiz-adv-x="816" vert-adv-y="1000"  />

      
      <glyph glyph-name="uni4f" unicode="&#x4f;" d="M418-3Q341-3 275.50 23.50Q210 50 161.50 98Q113 146 86 210Q59 274 59 350Q59 426 86 490Q113 554 161.50 602Q210 650 275.50 676.50Q341 703 418 703Q495 703 560.50 676.50Q626 650 674.50 602Q723 554 750 490Q777 426 777 350Q777 274 750 210Q723 146 674.50 98Q626 50 560.50 23.50Q495-3 418-3M418 16Q490 16 552 41Q614 66 660 111.50Q706 157 731.50 217.50Q757 278 757 350Q757 422 731.50 482.50Q706 543 660 588.50Q614 634 552 659Q490 684 418 684Q346 684 284 659Q222 634 176 588.50Q130 543 104.50 482.50Q79 422 79 350Q79 278 104.50 217.50Q130 157 176 111.50Q222 66 284 41Q346 16 418 16Z"  horiz-adv-x="836" vert-adv-y="1000"  />

      
      <glyph glyph-name="unid3" unicode="&#xd3;" d="M418-3Q341-3 275.50 23.50Q210 50 161.50 98Q113 146 86 210Q59 274 59 350Q59 426 86 490Q113 554 161.50 602Q210 650 275.50 676.50Q341 703 418 703Q495 703 560.50 676.50Q626 650 674.50 602Q723 554 750 490Q777 426 777 350Q777 274 750 210Q723 146 674.50 98Q626 50 560.50 23.50Q495-3 418-3M418 16Q490 16 552 41Q614 66 660 111.50Q706 157 731.50 217.50Q757 278 757 350Q757 422 731.50 482.50Q706 543 660 588.50Q614 634 552 659Q490 684 418 684Q346 684 284 659Q222 634 176 588.50Q130 543 104.50 482.50Q79 422 79 350Q79 278 104.50 217.50Q130 157 176 111.50Q222 66 284 41Q346 16 418 16Z"  horiz-adv-x="836" vert-adv-y="1000"  />

      
      <glyph glyph-name="uni014E" unicode="&#x014E;" d="M418-3Q341-3 275.50 23.50Q210 50 161.50 98Q113 146 86 210Q59 274 59 350Q59 426 86 490Q113 554 161.50 602Q210 650 275.50 676.50Q341 703 418 703Q495 703 560.50 676.50Q626 650 674.50 602Q723 554 750 490Q777 426 777 350Q777 274 750 210Q723 146 674.50 98Q626 50 560.50 23.50Q495-3 418-3M418 16Q490 16 552 41Q614 66 660 111.50Q706 157 731.50 217.50Q757 278 757 350Q757 422 731.50 482.50Q706 543 660 588.50Q614 634 552 659Q490 684 418 684Q346 684 284 659Q222 634 176 588.50Q130 543 104.50 482.50Q79 422 79 350Q79 278 104.50 217.50Q130 157 176 111.50Q222 66 284 41Q346 16 418 16Z"  horiz-adv-x="836" vert-adv-y="1000"  />

      
      <glyph glyph-name="unid4" unicode="&#xd4;" d="M418-3Q341-3 275.50 23.50Q210 50 161.50 98Q113 146 86 210Q59 274 59 350Q59 426 86 490Q113 554 161.50 602Q210 650 275.50 676.50Q341 703 418 703Q495 703 560.50 676.50Q626 650 674.50 602Q723 554 750 490Q777 426 777 350Q777 274 750 210Q723 146 674.50 98Q626 50 560.50 23.50Q495-3 418-3M418 16Q490 16 552 41Q614 66 660 111.50Q706 157 731.50 217.50Q757 278 757 350Q757 422 731.50 482.50Q706 543 660 588.50Q614 634 552 659Q490 684 418 684Q346 684 284 659Q222 634 176 588.50Q130 543 104.50 482.50Q79 422 79 350Q79 278 104.50 217.50Q130 157 176 111.50Q222 66 284 41Q346 16 418 16Z"  horiz-adv-x="836" vert-adv-y="1000"  />

      
      <glyph glyph-name="uni1ED0" unicode="&#x1ED0;" d="M418-3Q341-3 275.50 23.50Q210 50 161.50 98Q113 146 86 210Q59 274 59 350Q59 426 86 490Q113 554 161.50 602Q210 650 275.50 676.50Q341 703 418 703Q495 703 560.50 676.50Q626 650 674.50 602Q723 554 750 490Q777 426 777 350Q777 274 750 210Q723 146 674.50 98Q626 50 560.50 23.50Q495-3 418-3M418 16Q490 16 552 41Q614 66 660 111.50Q706 157 731.50 217.50Q757 278 757 350Q757 422 731.50 482.50Q706 543 660 588.50Q614 634 552 659Q490 684 418 684Q346 684 284 659Q222 634 176 588.50Q130 543 104.50 482.50Q79 422 79 350Q79 278 104.50 217.50Q130 157 176 111.50Q222 66 284 41Q346 16 418 16Z"  horiz-adv-x="836" vert-adv-y="1000"  />

      
      <glyph glyph-name="uni1ED8" unicode="&#x1ED8;" d="M418-3Q341-3 275.50 23.50Q210 50 161.50 98Q113 146 86 210Q59 274 59 350Q59 426 86 490Q113 554 161.50 602Q210 650 275.50 676.50Q341 703 418 703Q495 703 560.50 676.50Q626 650 674.50 602Q723 554 750 490Q777 426 777 350Q777 274 750 210Q723 146 674.50 98Q626 50 560.50 23.50Q495-3 418-3M418 16Q490 16 552 41Q614 66 660 111.50Q706 157 731.50 217.50Q757 278 757 350Q757 422 731.50 482.50Q706 543 660 588.50Q614 634 552 659Q490 684 418 684Q346 684 284 659Q222 634 176 588.50Q130 543 104.50 482.50Q79 422 79 350Q79 278 104.50 217.50Q130 157 176 111.50Q222 66 284 41Q346 16 418 16M418-176Q408-176 400-168Q392-160 392-150Q392-139 400-131.50Q408-124 418-124Q429-124 436.50-131.50Q444-139 444-150Q444-160 436.50-168Q429-176 418-176Z"  horiz-adv-x="836" vert-adv-y="1000"  />

      
      <glyph glyph-name="uni1ED2" unicode="&#x1ED2;" d="M418-3Q341-3 275.50 23.50Q210 50 161.50 98Q113 146 86 210Q59 274 59 350Q59 426 86 490Q113 554 161.50 602Q210 650 275.50 676.50Q341 703 418 703Q495 703 560.50 676.50Q626 650 674.50 602Q723 554 750 490Q777 426 777 350Q777 274 750 210Q723 146 674.50 98Q626 50 560.50 23.50Q495-3 418-3M418 16Q490 16 552 41Q614 66 660 111.50Q706 157 731.50 217.50Q757 278 757 350Q757 422 731.50 482.50Q706 543 660 588.50Q614 634 552 659Q490 684 418 684Q346 684 284 659Q222 634 176 588.50Q130 543 104.50 482.50Q79 422 79 350Q79 278 104.50 217.50Q130 157 176 111.50Q222 66 284 41Q346 16 418 16Z"  horiz-adv-x="836" vert-adv-y="1000"  />

      
      <glyph glyph-name="uni1ED4" unicode="&#x1ED4;" d="M418-3Q341-3 275.50 23.50Q210 50 161.50 98Q113 146 86 210Q59 274 59 350Q59 426 86 490Q113 554 161.50 602Q210 650 275.50 676.50Q341 703 418 703Q495 703 560.50 676.50Q626 650 674.50 602Q723 554 750 490Q777 426 777 350Q777 274 750 210Q723 146 674.50 98Q626 50 560.50 23.50Q495-3 418-3M418 16Q490 16 552 41Q614 66 660 111.50Q706 157 731.50 217.50Q757 278 757 350Q757 422 731.50 482.50Q706 543 660 588.50Q614 634 552 659Q490 684 418 684Q346 684 284 659Q222 634 176 588.50Q130 543 104.50 482.50Q79 422 79 350Q79 278 104.50 217.50Q130 157 176 111.50Q222 66 284 41Q346 16 418 16Z"  horiz-adv-x="836" vert-adv-y="1000"  />

      
      <glyph glyph-name="uni1ED6" unicode="&#x1ED6;" d="M418-3Q341-3 275.50 23.50Q210 50 161.50 98Q113 146 86 210Q59 274 59 350Q59 426 86 490Q113 554 161.50 602Q210 650 275.50 676.50Q341 703 418 703Q495 703 560.50 676.50Q626 650 674.50 602Q723 554 750 490Q777 426 777 350Q777 274 750 210Q723 146 674.50 98Q626 50 560.50 23.50Q495-3 418-3M418 16Q490 16 552 41Q614 66 660 111.50Q706 157 731.50 217.50Q757 278 757 350Q757 422 731.50 482.50Q706 543 660 588.50Q614 634 552 659Q490 684 418 684Q346 684 284 659Q222 634 176 588.50Q130 543 104.50 482.50Q79 422 79 350Q79 278 104.50 217.50Q130 157 176 111.50Q222 66 284 41Q346 16 418 16Z"  horiz-adv-x="836" vert-adv-y="1000"  />

      
      <glyph glyph-name="uni020C" unicode="&#x020C;" d="M418-3Q341-3 275.50 23.50Q210 50 161.50 98Q113 146 86 210Q59 274 59 350Q59 426 86 490Q113 554 161.50 602Q210 650 275.50 676.50Q341 703 418 703Q495 703 560.50 676.50Q626 650 674.50 602Q723 554 750 490Q777 426 777 350Q777 274 750 210Q723 146 674.50 98Q626 50 560.50 23.50Q495-3 418-3M418 16Q490 16 552 41Q614 66 660 111.50Q706 157 731.50 217.50Q757 278 757 350Q757 422 731.50 482.50Q706 543 660 588.50Q614 634 552 659Q490 684 418 684Q346 684 284 659Q222 634 176 588.50Q130 543 104.50 482.50Q79 422 79 350Q79 278 104.50 217.50Q130 157 176 111.50Q222 66 284 41Q346 16 418 16Z"  horiz-adv-x="836" vert-adv-y="1000"  />

      
      <glyph glyph-name="unid6" unicode="&#xd6;" d="M418-3Q341-3 275.50 23.50Q210 50 161.50 98Q113 146 86 210Q59 274 59 350Q59 426 86 490Q113 554 161.50 602Q210 650 275.50 676.50Q341 703 418 703Q495 703 560.50 676.50Q626 650 674.50 602Q723 554 750 490Q777 426 777 350Q777 274 750 210Q723 146 674.50 98Q626 50 560.50 23.50Q495-3 418-3M418 16Q490 16 552 41Q614 66 660 111.50Q706 157 731.50 217.50Q757 278 757 350Q757 422 731.50 482.50Q706 543 660 588.50Q614 634 552 659Q490 684 418 684Q346 684 284 659Q222 634 176 588.50Q130 543 104.50 482.50Q79 422 79 350Q79 278 104.50 217.50Q130 157 176 111.50Q222 66 284 41Q346 16 418 16Z"  horiz-adv-x="836" vert-adv-y="1000"  />

      
      <glyph glyph-name="uni022A" unicode="&#x022A;" d="M418-3Q341-3 275.50 23.50Q210 50 161.50 98Q113 146 86 210Q59 274 59 350Q59 426 86 490Q113 554 161.50 602Q210 650 275.50 676.50Q341 703 418 703Q495 703 560.50 676.50Q626 650 674.50 602Q723 554 750 490Q777 426 777 350Q777 274 750 210Q723 146 674.50 98Q626 50 560.50 23.50Q495-3 418-3M418 16Q490 16 552 41Q614 66 660 111.50Q706 157 731.50 217.50Q757 278 757 350Q757 422 731.50 482.50Q706 543 660 588.50Q614 634 552 659Q490 684 418 684Q346 684 284 659Q222 634 176 588.50Q130 543 104.50 482.50Q79 422 79 350Q79 278 104.50 217.50Q130 157 176 111.50Q222 66 284 41Q346 16 418 16Z"  horiz-adv-x="836" vert-adv-y="1000"  />

      
      <glyph glyph-name="uni0230" unicode="&#x0230;" d="M418-3Q341-3 275.50 23.50Q210 50 161.50 98Q113 146 86 210Q59 274 59 350Q59 426 86 490Q113 554 161.50 602Q210 650 275.50 676.50Q341 703 418 703Q495 703 560.50 676.50Q626 650 674.50 602Q723 554 750 490Q777 426 777 350Q777 274 750 210Q723 146 674.50 98Q626 50 560.50 23.50Q495-3 418-3M418 16Q490 16 552 41Q614 66 660 111.50Q706 157 731.50 217.50Q757 278 757 350Q757 422 731.50 482.50Q706 543 660 588.50Q614 634 552 659Q490 684 418 684Q346 684 284 659Q222 634 176 588.50Q130 543 104.50 482.50Q79 422 79 350Q79 278 104.50 217.50Q130 157 176 111.50Q222 66 284 41Q346 16 418 16Z"  horiz-adv-x="836" vert-adv-y="1000"  />

      
      <glyph glyph-name="uni1ECC" unicode="&#x1ECC;" d="M418-3Q341-3 275.50 23.50Q210 50 161.50 98Q113 146 86 210Q59 274 59 350Q59 426 86 490Q113 554 161.50 602Q210 650 275.50 676.50Q341 703 418 703Q495 703 560.50 676.50Q626 650 674.50 602Q723 554 750 490Q777 426 777 350Q777 274 750 210Q723 146 674.50 98Q626 50 560.50 23.50Q495-3 418-3M418 16Q490 16 552 41Q614 66 660 111.50Q706 157 731.50 217.50Q757 278 757 350Q757 422 731.50 482.50Q706 543 660 588.50Q614 634 552 659Q490 684 418 684Q346 684 284 659Q222 634 176 588.50Q130 543 104.50 482.50Q79 422 79 350Q79 278 104.50 217.50Q130 157 176 111.50Q222 66 284 41Q346 16 418 16M418-176Q408-176 400-168Q392-160 392-150Q392-139 400-131.50Q408-124 418-124Q429-124 436.50-131.50Q444-139 444-150Q444-160 436.50-168Q429-176 418-176Z"  horiz-adv-x="836" vert-adv-y="1000"  />

      
      <glyph glyph-name="unid2" unicode="&#xd2;" d="M418-3Q341-3 275.50 23.50Q210 50 161.50 98Q113 146 86 210Q59 274 59 350Q59 426 86 490Q113 554 161.50 602Q210 650 275.50 676.50Q341 703 418 703Q495 703 560.50 676.50Q626 650 674.50 602Q723 554 750 490Q777 426 777 350Q777 274 750 210Q723 146 674.50 98Q626 50 560.50 23.50Q495-3 418-3M418 16Q490 16 552 41Q614 66 660 111.50Q706 157 731.50 217.50Q757 278 757 350Q757 422 731.50 482.50Q706 543 660 588.50Q614 634 552 659Q490 684 418 684Q346 684 284 659Q222 634 176 588.50Q130 543 104.50 482.50Q79 422 79 350Q79 278 104.50 217.50Q130 157 176 111.50Q222 66 284 41Q346 16 418 16Z"  horiz-adv-x="836" vert-adv-y="1000"  />

      
      <glyph glyph-name="uni1ECE" unicode="&#x1ECE;" d="M418-3Q341-3 275.50 23.50Q210 50 161.50 98Q113 146 86 210Q59 274 59 350Q59 426 86 490Q113 554 161.50 602Q210 650 275.50 676.50Q341 703 418 703Q495 703 560.50 676.50Q626 650 674.50 602Q723 554 750 490Q777 426 777 350Q777 274 750 210Q723 146 674.50 98Q626 50 560.50 23.50Q495-3 418-3M418 16Q490 16 552 41Q614 66 660 111.50Q706 157 731.50 217.50Q757 278 757 350Q757 422 731.50 482.50Q706 543 660 588.50Q614 634 552 659Q490 684 418 684Q346 684 284 659Q222 634 176 588.50Q130 543 104.50 482.50Q79 422 79 350Q79 278 104.50 217.50Q130 157 176 111.50Q222 66 284 41Q346 16 418 16Z"  horiz-adv-x="836" vert-adv-y="1000"  />

      
      <glyph glyph-name="uni01A0" unicode="&#x01A0;" d="M418-3Q341-3 275.50 23.50Q210 50 161.50 98Q113 146 86 210Q59 274 59 350Q59 426 86 490Q113 554 161.50 602Q210 650 275.50 676.50Q341 703 418 703Q483 703 530.50 695.50Q578 688 627 688Q683 688 710 708.50Q737 729 737 770Q737 790 731 806.50Q725 823 717 837L735 845Q745 830 751 810.50Q757 791 757 771Q757 720 724.50 694.50Q692 669 627 669Q611 669 584 671Q557 673 535 677L548 680Q618 656 669.50 607Q721 558 749 492Q777 426 777 350Q777 274 750 210Q723 146 674.50 98Q626 50 560.50 23.50Q495-3 418-3M418 16Q490 16 552 41.50Q614 67 660 112.50Q706 158 731.50 218.50Q757 279 757 350Q757 421 731.50 481.50Q706 542 660 587.50Q614 633 552 658.50Q490 684 418 684Q346 684 284 658.50Q222 633 176 587.50Q130 542 104.50 481.50Q79 421 79 350Q79 279 104.50 218.50Q130 158 176 112.50Q222 67 284 41.50Q346 16 418 16Z"  horiz-adv-x="836" vert-adv-y="1000"  />

      
      <glyph glyph-name="uni1EDA" unicode="&#x1EDA;" d="M418-3Q341-3 275.50 23.50Q210 50 161.50 98Q113 146 86 210Q59 274 59 350Q59 426 86 490Q113 554 161.50 602Q210 650 275.50 676.50Q341 703 418 703Q483 703 530.50 695.50Q578 688 627 688Q683 688 710 708.50Q737 729 737 770Q737 790 731 806.50Q725 823 717 837L735 845Q745 830 751 810.50Q757 791 757 771Q757 720 724.50 694.50Q692 669 627 669Q611 669 584 671Q557 673 535 677L548 680Q618 656 669.50 607Q721 558 749 492Q777 426 777 350Q777 274 750 210Q723 146 674.50 98Q626 50 560.50 23.50Q495-3 418-3M418 16Q490 16 552 41.50Q614 67 660 112.50Q706 158 731.50 218.50Q757 279 757 350Q757 421 731.50 481.50Q706 542 660 587.50Q614 633 552 658.50Q490 684 418 684Q346 684 284 658.50Q222 633 176 587.50Q130 542 104.50 481.50Q79 421 79 350Q79 279 104.50 218.50Q130 158 176 112.50Q222 67 284 41.50Q346 16 418 16Z"  horiz-adv-x="836" vert-adv-y="1000"  />

      
      <glyph glyph-name="uni1EE2" unicode="&#x1EE2;" d="M418-3Q341-3 275.50 23.50Q210 50 161.50 98Q113 146 86 210Q59 274 59 350Q59 426 86 490Q113 554 161.50 602Q210 650 275.50 676.50Q341 703 418 703Q483 703 530.50 695.50Q578 688 627 688Q683 688 710 708.50Q737 729 737 770Q737 790 731 806.50Q725 823 717 837L735 845Q745 830 751 810.50Q757 791 757 771Q757 720 724.50 694.50Q692 669 627 669Q611 669 584 671Q557 673 535 677L548 680Q618 656 669.50 607Q721 558 749 492Q777 426 777 350Q777 274 750 210Q723 146 674.50 98Q626 50 560.50 23.50Q495-3 418-3M418 16Q490 16 552 41.50Q614 67 660 112.50Q706 158 731.50 218.50Q757 279 757 350Q757 421 731.50 481.50Q706 542 660 587.50Q614 633 552 658.50Q490 684 418 684Q346 684 284 658.50Q222 633 176 587.50Q130 542 104.50 481.50Q79 421 79 350Q79 279 104.50 218.50Q130 158 176 112.50Q222 67 284 41.50Q346 16 418 16M418-176Q408-176 400-168Q392-160 392-150Q392-139 400-131.50Q408-124 418-124Q429-124 436.50-131.50Q444-139 444-150Q444-160 436.50-168Q429-176 418-176Z"  horiz-adv-x="836" vert-adv-y="1000"  />

      
      <glyph glyph-name="uni1EDC" unicode="&#x1EDC;" d="M418-3Q341-3 275.50 23.50Q210 50 161.50 98Q113 146 86 210Q59 274 59 350Q59 426 86 490Q113 554 161.50 602Q210 650 275.50 676.50Q341 703 418 703Q483 703 530.50 695.50Q578 688 627 688Q683 688 710 708.50Q737 729 737 770Q737 790 731 806.50Q725 823 717 837L735 845Q745 830 751 810.50Q757 791 757 771Q757 720 724.50 694.50Q692 669 627 669Q611 669 584 671Q557 673 535 677L548 680Q618 656 669.50 607Q721 558 749 492Q777 426 777 350Q777 274 750 210Q723 146 674.50 98Q626 50 560.50 23.50Q495-3 418-3M418 16Q490 16 552 41.50Q614 67 660 112.50Q706 158 731.50 218.50Q757 279 757 350Q757 421 731.50 481.50Q706 542 660 587.50Q614 633 552 658.50Q490 684 418 684Q346 684 284 658.50Q222 633 176 587.50Q130 542 104.50 481.50Q79 421 79 350Q79 279 104.50 218.50Q130 158 176 112.50Q222 67 284 41.50Q346 16 418 16Z"  horiz-adv-x="836" vert-adv-y="1000"  />

      
      <glyph glyph-name="uni1EDE" unicode="&#x1EDE;" d="M418-3Q341-3 275.50 23.50Q210 50 161.50 98Q113 146 86 210Q59 274 59 350Q59 426 86 490Q113 554 161.50 602Q210 650 275.50 676.50Q341 703 418 703Q483 703 530.50 695.50Q578 688 627 688Q683 688 710 708.50Q737 729 737 770Q737 790 731 806.50Q725 823 717 837L735 845Q745 830 751 810.50Q757 791 757 771Q757 720 724.50 694.50Q692 669 627 669Q611 669 584 671Q557 673 535 677L548 680Q618 656 669.50 607Q721 558 749 492Q777 426 777 350Q777 274 750 210Q723 146 674.50 98Q626 50 560.50 23.50Q495-3 418-3M418 16Q490 16 552 41.50Q614 67 660 112.50Q706 158 731.50 218.50Q757 279 757 350Q757 421 731.50 481.50Q706 542 660 587.50Q614 633 552 658.50Q490 684 418 684Q346 684 284 658.50Q222 633 176 587.50Q130 542 104.50 481.50Q79 421 79 350Q79 279 104.50 218.50Q130 158 176 112.50Q222 67 284 41.50Q346 16 418 16Z"  horiz-adv-x="836" vert-adv-y="1000"  />

      
      <glyph glyph-name="uni1EE0" unicode="&#x1EE0;" d="M418-3Q341-3 275.50 23.50Q210 50 161.50 98Q113 146 86 210Q59 274 59 350Q59 426 86 490Q113 554 161.50 602Q210 650 275.50 676.50Q341 703 418 703Q483 703 530.50 695.50Q578 688 627 688Q683 688 710 708.50Q737 729 737 770Q737 790 731 806.50Q725 823 717 837L735 845Q745 830 751 810.50Q757 791 757 771Q757 720 724.50 694.50Q692 669 627 669Q611 669 584 671Q557 673 535 677L548 680Q618 656 669.50 607Q721 558 749 492Q777 426 777 350Q777 274 750 210Q723 146 674.50 98Q626 50 560.50 23.50Q495-3 418-3M418 16Q490 16 552 41.50Q614 67 660 112.50Q706 158 731.50 218.50Q757 279 757 350Q757 421 731.50 481.50Q706 542 660 587.50Q614 633 552 658.50Q490 684 418 684Q346 684 284 658.50Q222 633 176 587.50Q130 542 104.50 481.50Q79 421 79 350Q79 279 104.50 218.50Q130 158 176 112.50Q222 67 284 41.50Q346 16 418 16Z"  horiz-adv-x="836" vert-adv-y="1000"  />

      
      <glyph glyph-name="uni0150" unicode="&#x0150;" d="M418-3Q341-3 275.50 23.50Q210 50 161.50 98Q113 146 86 210Q59 274 59 350Q59 426 86 490Q113 554 161.50 602Q210 650 275.50 676.50Q341 703 418 703Q495 703 560.50 676.50Q626 650 674.50 602Q723 554 750 490Q777 426 777 350Q777 274 750 210Q723 146 674.50 98Q626 50 560.50 23.50Q495-3 418-3M418 16Q490 16 552 41Q614 66 660 111.50Q706 157 731.50 217.50Q757 278 757 350Q757 422 731.50 482.50Q706 543 660 588.50Q614 634 552 659Q490 684 418 684Q346 684 284 659Q222 634 176 588.50Q130 543 104.50 482.50Q79 422 79 350Q79 278 104.50 217.50Q130 157 176 111.50Q222 66 284 41Q346 16 418 16Z"  horiz-adv-x="836" vert-adv-y="1000"  />

      
      <glyph glyph-name="uni020E" unicode="&#x020E;" d="M418-3Q341-3 275.50 23.50Q210 50 161.50 98Q113 146 86 210Q59 274 59 350Q59 426 86 490Q113 554 161.50 602Q210 650 275.50 676.50Q341 703 418 703Q495 703 560.50 676.50Q626 650 674.50 602Q723 554 750 490Q777 426 777 350Q777 274 750 210Q723 146 674.50 98Q626 50 560.50 23.50Q495-3 418-3M418 16Q490 16 552 41Q614 66 660 111.50Q706 157 731.50 217.50Q757 278 757 350Q757 422 731.50 482.50Q706 543 660 588.50Q614 634 552 659Q490 684 418 684Q346 684 284 659Q222 634 176 588.50Q130 543 104.50 482.50Q79 422 79 350Q79 278 104.50 217.50Q130 157 176 111.50Q222 66 284 41Q346 16 418 16Z"  horiz-adv-x="836" vert-adv-y="1000"  />

      
      <glyph glyph-name="uni014C" unicode="&#x014C;" d="M418-3Q341-3 275.50 23.50Q210 50 161.50 98Q113 146 86 210Q59 274 59 350Q59 426 86 490Q113 554 161.50 602Q210 650 275.50 676.50Q341 703 418 703Q495 703 560.50 676.50Q626 650 674.50 602Q723 554 750 490Q777 426 777 350Q777 274 750 210Q723 146 674.50 98Q626 50 560.50 23.50Q495-3 418-3M418 16Q490 16 552 41Q614 66 660 111.50Q706 157 731.50 217.50Q757 278 757 350Q757 422 731.50 482.50Q706 543 660 588.50Q614 634 552 659Q490 684 418 684Q346 684 284 659Q222 634 176 588.50Q130 543 104.50 482.50Q79 422 79 350Q79 278 104.50 217.50Q130 157 176 111.50Q222 66 284 41Q346 16 418 16Z"  horiz-adv-x="836" vert-adv-y="1000"  />

      
      <glyph glyph-name="uni1E52" unicode="&#x1E52;" d="M418-3Q341-3 275.50 23.50Q210 50 161.50 98Q113 146 86 210Q59 274 59 350Q59 426 86 490Q113 554 161.50 602Q210 650 275.50 676.50Q341 703 418 703Q495 703 560.50 676.50Q626 650 674.50 602Q723 554 750 490Q777 426 777 350Q777 274 750 210Q723 146 674.50 98Q626 50 560.50 23.50Q495-3 418-3M418 16Q490 16 552 41Q614 66 660 111.50Q706 157 731.50 217.50Q757 278 757 350Q757 422 731.50 482.50Q706 543 660 588.50Q614 634 552 659Q490 684 418 684Q346 684 284 659Q222 634 176 588.50Q130 543 104.50 482.50Q79 422 79 350Q79 278 104.50 217.50Q130 157 176 111.50Q222 66 284 41Q346 16 418 16Z"  horiz-adv-x="836" vert-adv-y="1000"  />

      
      <glyph glyph-name="uni1E50" unicode="&#x1E50;" d="M418-3Q341-3 275.50 23.50Q210 50 161.50 98Q113 146 86 210Q59 274 59 350Q59 426 86 490Q113 554 161.50 602Q210 650 275.50 676.50Q341 703 418 703Q495 703 560.50 676.50Q626 650 674.50 602Q723 554 750 490Q777 426 777 350Q777 274 750 210Q723 146 674.50 98Q626 50 560.50 23.50Q495-3 418-3M418 16Q490 16 552 41Q614 66 660 111.50Q706 157 731.50 217.50Q757 278 757 350Q757 422 731.50 482.50Q706 543 660 588.50Q614 634 552 659Q490 684 418 684Q346 684 284 659Q222 634 176 588.50Q130 543 104.50 482.50Q79 422 79 350Q79 278 104.50 217.50Q130 157 176 111.50Q222 66 284 41Q346 16 418 16Z"  horiz-adv-x="836" vert-adv-y="1000"  />

      
      <glyph glyph-name="uni01EA" unicode="&#x01EA;" d="M413-213Q374-213 348-191Q322-169 322-130Q322-109 333-84.50Q344-60 374-34Q404-8 459 16L441-1Q435-2 429.50-2.50Q424-3 418-3Q341-3 275.50 23.50Q210 50 161.50 98Q113 146 86 210Q59 274 59 350Q59 426 86 490Q113 554 161.50 602Q210 650 275.50 676.50Q341 703 418 703Q495 703 560.50 676.50Q626 650 674.50 602Q723 554 750 490Q777 426 777 350Q777 258 739 185.50Q701 113 638.50 67Q576 21 500 6Q459-2 423-22Q387-42 364.50-69.50Q342-97 342-130Q342-162 362.50-178Q383-194 414-194Q431-194 447.50-188Q464-182 476-171L487-186Q471-200 452.50-206.50Q434-213 413-213M418 16Q490 16 552 41Q614 66 660 111.50Q706 157 731.50 217.50Q757 278 757 350Q757 422 731.50 482.50Q706 543 660 588.50Q614 634 552 659Q490 684 418 684Q346 684 284 659Q222 634 176 588.50Q130 543 104.50 482.50Q79 422 79 350Q79 278 104.50 217.50Q130 157 176 111.50Q222 66 284 41Q346 16 418 16Z"  horiz-adv-x="836" vert-adv-y="1000"  />

      
      <glyph glyph-name="unid8" unicode="&#xd8;" d="M418-3Q341-3 275.50 23.50Q210 50 161.50 98Q113 146 86 210Q59 274 59 350Q59 426 86 490Q113 554 161.50 602Q210 650 275.50 676.50Q341 703 418 703Q495 703 560.50 676.50Q626 650 674.50 602Q723 554 750 490Q777 426 777 350Q777 274 750 210Q723 146 674.50 98Q626 50 560.50 23.50Q495-3 418-3M418 16Q490 16 552 41Q614 66 660 111.50Q706 157 731.50 217.50Q757 278 757 350Q757 422 731.50 482.50Q706 543 660 588.50Q614 634 552 659Q490 684 418 684Q346 684 284 659Q222 634 176 588.50Q130 543 104.50 482.50Q79 422 79 350Q79 278 104.50 217.50Q130 157 176 111.50Q222 66 284 41Q346 16 418 16M99-70L714 770L737 770L122-70L99-70Z"  horiz-adv-x="836" vert-adv-y="1000"  />

      
      <glyph glyph-name="uni01FE" unicode="&#x01FE;" d="M418-3Q341-3 275.50 23.50Q210 50 161.50 98Q113 146 86 210Q59 274 59 350Q59 426 86 490Q113 554 161.50 602Q210 650 275.50 676.50Q341 703 418 703Q495 703 560.50 676.50Q626 650 674.50 602Q723 554 750 490Q777 426 777 350Q777 274 750 210Q723 146 674.50 98Q626 50 560.50 23.50Q495-3 418-3M418 16Q490 16 552 41Q614 66 660 111.50Q706 157 731.50 217.50Q757 278 757 350Q757 422 731.50 482.50Q706 543 660 588.50Q614 634 552 659Q490 684 418 684Q346 684 284 659Q222 634 176 588.50Q130 543 104.50 482.50Q79 422 79 350Q79 278 104.50 217.50Q130 157 176 111.50Q222 66 284 41Q346 16 418 16M99-70L714 770L737 770L122-70L99-70Z"  horiz-adv-x="836" vert-adv-y="1000"  />

      
      <glyph glyph-name="unid5" unicode="&#xd5;" d="M418-3Q341-3 275.50 23.50Q210 50 161.50 98Q113 146 86 210Q59 274 59 350Q59 426 86 490Q113 554 161.50 602Q210 650 275.50 676.50Q341 703 418 703Q495 703 560.50 676.50Q626 650 674.50 602Q723 554 750 490Q777 426 777 350Q777 274 750 210Q723 146 674.50 98Q626 50 560.50 23.50Q495-3 418-3M418 16Q490 16 552 41Q614 66 660 111.50Q706 157 731.50 217.50Q757 278 757 350Q757 422 731.50 482.50Q706 543 660 588.50Q614 634 552 659Q490 684 418 684Q346 684 284 659Q222 634 176 588.50Q130 543 104.50 482.50Q79 422 79 350Q79 278 104.50 217.50Q130 157 176 111.50Q222 66 284 41Q346 16 418 16Z"  horiz-adv-x="836" vert-adv-y="1000"  />

      
      <glyph glyph-name="uni1E4C" unicode="&#x1E4C;" d="M418-3Q341-3 275.50 23.50Q210 50 161.50 98Q113 146 86 210Q59 274 59 350Q59 426 86 490Q113 554 161.50 602Q210 650 275.50 676.50Q341 703 418 703Q495 703 560.50 676.50Q626 650 674.50 602Q723 554 750 490Q777 426 777 350Q777 274 750 210Q723 146 674.50 98Q626 50 560.50 23.50Q495-3 418-3M418 16Q490 16 552 41Q614 66 660 111.50Q706 157 731.50 217.50Q757 278 757 350Q757 422 731.50 482.50Q706 543 660 588.50Q614 634 552 659Q490 684 418 684Q346 684 284 659Q222 634 176 588.50Q130 543 104.50 482.50Q79 422 79 350Q79 278 104.50 217.50Q130 157 176 111.50Q222 66 284 41Q346 16 418 16Z"  horiz-adv-x="836" vert-adv-y="1000"  />

      
      <glyph glyph-name="uni1E4E" unicode="&#x1E4E;" d="M418-3Q341-3 275.50 23.50Q210 50 161.50 98Q113 146 86 210Q59 274 59 350Q59 426 86 490Q113 554 161.50 602Q210 650 275.50 676.50Q341 703 418 703Q495 703 560.50 676.50Q626 650 674.50 602Q723 554 750 490Q777 426 777 350Q777 274 750 210Q723 146 674.50 98Q626 50 560.50 23.50Q495-3 418-3M418 16Q490 16 552 41Q614 66 660 111.50Q706 157 731.50 217.50Q757 278 757 350Q757 422 731.50 482.50Q706 543 660 588.50Q614 634 552 659Q490 684 418 684Q346 684 284 659Q222 634 176 588.50Q130 543 104.50 482.50Q79 422 79 350Q79 278 104.50 217.50Q130 157 176 111.50Q222 66 284 41Q346 16 418 16Z"  horiz-adv-x="836" vert-adv-y="1000"  />

      
      <glyph glyph-name="uni022C" unicode="&#x022C;" d="M418-3Q341-3 275.50 23.50Q210 50 161.50 98Q113 146 86 210Q59 274 59 350Q59 426 86 490Q113 554 161.50 602Q210 650 275.50 676.50Q341 703 418 703Q495 703 560.50 676.50Q626 650 674.50 602Q723 554 750 490Q777 426 777 350Q777 274 750 210Q723 146 674.50 98Q626 50 560.50 23.50Q495-3 418-3M418 16Q490 16 552 41Q614 66 660 111.50Q706 157 731.50 217.50Q757 278 757 350Q757 422 731.50 482.50Q706 543 660 588.50Q614 634 552 659Q490 684 418 684Q346 684 284 659Q222 634 176 588.50Q130 543 104.50 482.50Q79 422 79 350Q79 278 104.50 217.50Q130 157 176 111.50Q222 66 284 41Q346 16 418 16Z"  horiz-adv-x="836" vert-adv-y="1000"  />

      
      <glyph glyph-name="uni0152" unicode="&#x0152;" d="M428 0Q318 0 235 45Q152 90 105.50 169Q59 248 59 349Q59 450 105.50 529.50Q152 609 235 654.50Q318 700 428 700L583 700L583 681L428 681Q323 681 244.50 638Q166 595 122.50 520Q79 445 79 349Q79 253 122.50 178.50Q166 104 244.50 61.50Q323 19 428 19L583 19L583 0L428 0M592 365L983 365L983 346L592 346L592 365M597 19L1043 19L1043 0L577 0L577 700L1028 700L1028 681L597 681L597 19Z"  horiz-adv-x="1112" vert-adv-y="1000"  />

      
      <glyph glyph-name="uni50" unicode="&#x50;" d="M133 0L133 700L370 700Q456 700 517.50 672.50Q579 645 612 594Q645 543 645 470Q645 398 612 346.50Q579 295 517.50 267.50Q456 240 370 240L144 240L153 249L153 0L133 0M153 251L144 259L372 259Q495 259 560 314.50Q625 370 625 470Q625 571 560 626Q495 681 372 681L144 681L153 689L153 251Z"  horiz-adv-x="710" vert-adv-y="1000"  />

      
      <glyph glyph-name="unide" unicode="&#xde;" d="M144 139L144 158L372 158Q495 158 560 213.50Q625 269 625 370Q625 471 560 526Q495 581 372 581L144 581L144 600L370 600Q456 600 517.50 572.50Q579 545 612 494Q645 443 645 370Q645 297 612 245.50Q579 194 517.50 166.50Q456 139 370 139L144 139M133 0L133 700L153 700L153 0L133 0Z"  horiz-adv-x="710" vert-adv-y="1000"  />

      
      <glyph glyph-name="uni51" unicode="&#x51;" d="M418-3Q341-3 275.50 23.50Q210 50 161.50 98Q113 146 86 210Q59 274 59 350Q59 426 86 490Q113 554 161.50 602Q210 650 275.50 676.50Q341 703 418 703Q495 703 560.50 676.50Q626 650 674.50 602Q723 554 750 490Q777 426 777 350Q777 274 750 210Q723 146 674.50 98Q626 50 560.50 23.50Q495-3 418-3M648-124Q621-124 595-116.50Q569-109 541.50-93.50Q514-78 485.50-54Q457-30 425 3L451 8Q485-29 518.50-54.50Q552-80 584.50-92.50Q617-105 648-105Q734-105 793-34L807-48Q745-124 648-124M418 16Q490 16 552 41.50Q614 67 660 112.50Q706 158 731.50 218.50Q757 279 757 350Q757 421 731.50 481.50Q706 542 660 587.50Q614 633 552 658.50Q490 684 418 684Q346 684 284 658.50Q222 633 176 587.50Q130 542 104.50 481.50Q79 421 79 350Q79 279 104.50 218.50Q130 158 176 112.50Q222 67 284 41.50Q346 16 418 16Z"  horiz-adv-x="836" vert-adv-y="1000"  />

      
      <glyph glyph-name="uni52" unicode="&#x52;" d="M133 0L133 700L370 700Q456 700 517.50 672.50Q579 645 612 594Q645 543 645 470Q645 398 612 346.50Q579 295 517.50 267.50Q456 240 370 240L144 240L153 249L153 0L133 0M630 0L447 254L472 254L655 0L630 0M153 251L144 259L372 259Q495 259 560 314.50Q625 370 625 470Q625 571 560 626Q495 681 372 681L144 681L153 689L153 251Z"  horiz-adv-x="716" vert-adv-y="1000"  />

      
      <glyph glyph-name="uni0154" unicode="&#x0154;" d="M133 0L133 700L370 700Q456 700 517.50 672.50Q579 645 612 594Q645 543 645 470Q645 398 612 346.50Q579 295 517.50 267.50Q456 240 370 240L144 240L153 249L153 0L133 0M630 0L447 254L472 254L655 0L630 0M153 251L144 259L372 259Q495 259 560 314.50Q625 370 625 470Q625 571 560 626Q495 681 372 681L144 681L153 689L153 251Z"  horiz-adv-x="716" vert-adv-y="1000"  />

      
      <glyph glyph-name="uni0158" unicode="&#x0158;" d="M133 0L133 700L370 700Q456 700 517.50 672.50Q579 645 612 594Q645 543 645 470Q645 398 612 346.50Q579 295 517.50 267.50Q456 240 370 240L144 240L153 249L153 0L133 0M630 0L447 254L472 254L655 0L630 0M153 251L144 259L372 259Q495 259 560 314.50Q625 370 625 470Q625 571 560 626Q495 681 372 681L144 681L153 689L153 251Z"  horiz-adv-x="716" vert-adv-y="1000"  />

      
      <glyph glyph-name="uni0156" unicode="&#x0156;" d="M133 0L133 700L370 700Q456 700 517.50 672.50Q579 645 612 594Q645 543 645 470Q645 398 612 346.50Q579 295 517.50 267.50Q456 240 370 240L144 240L153 249L153 0L133 0M630 0L447 254L472 254L655 0L630 0M153 251L144 259L372 259Q495 259 560 314.50Q625 370 625 470Q625 571 560 626Q495 681 372 681L144 681L153 689L153 251M345-259L365-165L366-176Q356-176 348-168Q340-160 340-150Q340-139 347.50-131.50Q355-124 366-124Q378-124 385-132.50Q392-141 392-150Q392-158 390-166Q388-174 386-182L363-259L345-259Z"  horiz-adv-x="716" vert-adv-y="1000"  />

      
      <glyph glyph-name="uni0210" unicode="&#x0210;" d="M133 0L133 700L370 700Q456 700 517.50 672.50Q579 645 612 594Q645 543 645 470Q645 398 612 346.50Q579 295 517.50 267.50Q456 240 370 240L144 240L153 249L153 0L133 0M630 0L447 254L472 254L655 0L630 0M153 251L144 259L372 259Q495 259 560 314.50Q625 370 625 470Q625 571 560 626Q495 681 372 681L144 681L153 689L153 251Z"  horiz-adv-x="716" vert-adv-y="1000"  />

      
      <glyph glyph-name="uni1E5A" unicode="&#x1E5A;" d="M133 0L133 700L370 700Q456 700 517.50 672.50Q579 645 612 594Q645 543 645 470Q645 398 612 346.50Q579 295 517.50 267.50Q456 240 370 240L144 240L153 249L153 0L133 0M630 0L447 254L472 254L655 0L630 0M153 251L144 259L372 259Q495 259 560 314.50Q625 370 625 470Q625 571 560 626Q495 681 372 681L144 681L153 689L153 251M366-176Q356-176 348-168Q340-160 340-150Q340-139 348-131.50Q356-124 366-124Q377-124 384.50-131.50Q392-139 392-150Q392-160 384.50-168Q377-176 366-176Z"  horiz-adv-x="716" vert-adv-y="1000"  />

      
      <glyph glyph-name="uni0212" unicode="&#x0212;" d="M133 0L133 700L370 700Q456 700 517.50 672.50Q579 645 612 594Q645 543 645 470Q645 398 612 346.50Q579 295 517.50 267.50Q456 240 370 240L144 240L153 249L153 0L133 0M630 0L447 254L472 254L655 0L630 0M153 251L144 259L372 259Q495 259 560 314.50Q625 370 625 470Q625 571 560 626Q495 681 372 681L144 681L153 689L153 251Z"  horiz-adv-x="716" vert-adv-y="1000"  />

      
      <glyph glyph-name="uni1E5E" unicode="&#x1E5E;" d="M133 0L133 700L370 700Q456 700 517.50 672.50Q579 645 612 594Q645 543 645 470Q645 398 612 346.50Q579 295 517.50 267.50Q456 240 370 240L144 240L153 249L153 0L133 0M630 0L447 254L472 254L655 0L630 0M153 251L144 259L372 259Q495 259 560 314.50Q625 370 625 470Q625 571 560 626Q495 681 372 681L144 681L153 689L153 251M230-160L230-140L502-140L502-160L230-160Z"  horiz-adv-x="716" vert-adv-y="1000"  />

      
      <glyph glyph-name="uni53" unicode="&#x53;" d="M304-3Q228-3 160.50 25Q93 53 58 96L72 109Q105 70 167.50 43Q230 16 303 16Q379 16 427.50 37Q476 58 499.50 93.50Q523 129 523 172Q523 222 499 252.50Q475 283 435 300.50Q395 318 348 329.50Q301 341 253.50 353Q206 365 166 384.50Q126 404 102 438Q78 472 78 527Q78 573 102.50 613Q127 653 178.50 678Q230 703 312 703Q368 703 422.50 685.50Q477 668 515 639L504 623Q462 654 411 669Q360 684 313 684Q240 684 192 662.50Q144 641 121 605.50Q98 570 98 526Q98 475 122 444.50Q146 414 186 396.50Q226 379 273.50 367.50Q321 356 368 343.50Q415 331 455 311.50Q495 292 519 259Q543 226 543 172Q543 126 518 86Q493 46 440 21.50Q387-3 304-3Z"  horiz-adv-x="601" vert-adv-y="1000"  />

      
      <glyph glyph-name="uni015A" unicode="&#x015A;" d="M304-3Q228-3 160.50 25Q93 53 58 96L72 109Q105 70 167.50 43Q230 16 303 16Q379 16 427.50 37Q476 58 499.50 93.50Q523 129 523 172Q523 222 499 252.50Q475 283 435 300.50Q395 318 348 329.50Q301 341 253.50 353Q206 365 166 384.50Q126 404 102 438Q78 472 78 527Q78 573 102.50 613Q127 653 178.50 678Q230 703 312 703Q368 703 422.50 685.50Q477 668 515 639L504 623Q462 654 411 669Q360 684 313 684Q240 684 192 662.50Q144 641 121 605.50Q98 570 98 526Q98 475 122 444.50Q146 414 186 396.50Q226 379 273.50 367.50Q321 356 368 343.50Q415 331 455 311.50Q495 292 519 259Q543 226 543 172Q543 126 518 86Q493 46 440 21.50Q387-3 304-3Z"  horiz-adv-x="601" vert-adv-y="1000"  />

      
      <glyph glyph-name="uni1E64" unicode="&#x1E64;" d="M304-3Q228-3 160.50 25Q93 53 58 96L72 109Q105 70 167.50 43Q230 16 303 16Q379 16 427.50 37Q476 58 499.50 93.50Q523 129 523 172Q523 222 499 252.50Q475 283 435 300.50Q395 318 348 329.50Q301 341 253.50 353Q206 365 166 384.50Q126 404 102 438Q78 472 78 527Q78 573 102.50 613Q127 653 178.50 678Q230 703 312 703Q368 703 422.50 685.50Q477 668 515 639L504 623Q462 654 411 669Q360 684 313 684Q240 684 192 662.50Q144 641 121 605.50Q98 570 98 526Q98 475 122 444.50Q146 414 186 396.50Q226 379 273.50 367.50Q321 356 368 343.50Q415 331 455 311.50Q495 292 519 259Q543 226 543 172Q543 126 518 86Q493 46 440 21.50Q387-3 304-3Z"  horiz-adv-x="601" vert-adv-y="1000"  />

      
      <glyph glyph-name="uniA78B" unicode="&#xA78B;" d="M94 299L94 700L114 700L114 299L94 299Z"  horiz-adv-x="208" vert-adv-y="1000"  />

      
      <glyph glyph-name="uni0160" unicode="&#x0160;" d="M304-3Q228-3 160.50 25Q93 53 58 96L72 109Q105 70 167.50 43Q230 16 303 16Q379 16 427.50 37Q476 58 499.50 93.50Q523 129 523 172Q523 222 499 252.50Q475 283 435 300.50Q395 318 348 329.50Q301 341 253.50 353Q206 365 166 384.50Q126 404 102 438Q78 472 78 527Q78 573 102.50 613Q127 653 178.50 678Q230 703 312 703Q368 703 422.50 685.50Q477 668 515 639L504 623Q462 654 411 669Q360 684 313 684Q240 684 192 662.50Q144 641 121 605.50Q98 570 98 526Q98 475 122 444.50Q146 414 186 396.50Q226 379 273.50 367.50Q321 356 368 343.50Q415 331 455 311.50Q495 292 519 259Q543 226 543 172Q543 126 518 86Q493 46 440 21.50Q387-3 304-3Z"  horiz-adv-x="601" vert-adv-y="1000"  />

      
      <glyph glyph-name="uni1E66" unicode="&#x1E66;" d="M304-3Q228-3 160.50 25Q93 53 58 96L72 109Q105 70 167.50 43Q230 16 303 16Q379 16 427.50 37Q476 58 499.50 93.50Q523 129 523 172Q523 222 499 252.50Q475 283 435 300.50Q395 318 348 329.50Q301 341 253.50 353Q206 365 166 384.50Q126 404 102 438Q78 472 78 527Q78 573 102.50 613Q127 653 178.50 678Q230 703 312 703Q368 703 422.50 685.50Q477 668 515 639L504 623Q462 654 411 669Q360 684 313 684Q240 684 192 662.50Q144 641 121 605.50Q98 570 98 526Q98 475 122 444.50Q146 414 186 396.50Q226 379 273.50 367.50Q321 356 368 343.50Q415 331 455 311.50Q495 292 519 259Q543 226 543 172Q543 126 518 86Q493 46 440 21.50Q387-3 304-3Z"  horiz-adv-x="601" vert-adv-y="1000"  />

      
      <glyph glyph-name="uni015E" unicode="&#x015E;" d="M304-3Q228-3 160.50 25Q93 53 58 96L72 109Q105 70 167.50 43Q230 16 303 16Q379 16 427.50 37Q476 58 499.50 93.50Q523 129 523 172Q523 222 499 252.50Q475 283 435 300.50Q395 318 348 329.50Q301 341 253.50 353Q206 365 166 384.50Q126 404 102 438Q78 472 78 527Q78 573 102.50 613Q127 653 178.50 678Q230 703 312 703Q368 703 422.50 685.50Q477 668 515 639L504 623Q462 654 411 669Q360 684 313 684Q240 684 192 662.50Q144 641 121 605.50Q98 570 98 526Q98 475 122 444.50Q146 414 186 396.50Q226 379 273.50 367.50Q321 356 368 343.50Q415 331 455 311.50Q495 292 519 259Q543 226 543 172Q543 126 518 86Q493 46 440 21.50Q387-3 304-3M302-213Q281-213 263-206.50Q245-200 228-186L239-171Q251-182 267.50-188Q284-194 301-194Q332-194 352.50-178.50Q373-163 373-134Q373-108 354.50-91Q336-74 302-74L286-74L308 5L327 5L310-56Q348-58 370.50-79Q393-100 393-134Q393-170 367-191.50Q341-213 302-213Z"  horiz-adv-x="601" vert-adv-y="1000"  />

      
      <glyph glyph-name="uni015C" unicode="&#x015C;" d="M304-3Q228-3 160.50 25Q93 53 58 96L72 109Q105 70 167.50 43Q230 16 303 16Q379 16 427.50 37Q476 58 499.50 93.50Q523 129 523 172Q523 222 499 252.50Q475 283 435 300.50Q395 318 348 329.50Q301 341 253.50 353Q206 365 166 384.50Q126 404 102 438Q78 472 78 527Q78 573 102.50 613Q127 653 178.50 678Q230 703 312 703Q368 703 422.50 685.50Q477 668 515 639L504 623Q462 654 411 669Q360 684 313 684Q240 684 192 662.50Q144 641 121 605.50Q98 570 98 526Q98 475 122 444.50Q146 414 186 396.50Q226 379 273.50 367.50Q321 356 368 343.50Q415 331 455 311.50Q495 292 519 259Q543 226 543 172Q543 126 518 86Q493 46 440 21.50Q387-3 304-3Z"  horiz-adv-x="601" vert-adv-y="1000"  />

      
      <glyph glyph-name="uni0218" unicode="&#x0218;" d="M304-3Q228-3 160.50 25Q93 53 58 96L72 109Q105 70 167.50 43Q230 16 303 16Q379 16 427.50 37Q476 58 499.50 93.50Q523 129 523 172Q523 222 499 252.50Q475 283 435 300.50Q395 318 348 329.50Q301 341 253.50 353Q206 365 166 384.50Q126 404 102 438Q78 472 78 527Q78 573 102.50 613Q127 653 178.50 678Q230 703 312 703Q368 703 422.50 685.50Q477 668 515 639L504 623Q462 654 411 669Q360 684 313 684Q240 684 192 662.50Q144 641 121 605.50Q98 570 98 526Q98 475 122 444.50Q146 414 186 396.50Q226 379 273.50 367.50Q321 356 368 343.50Q415 331 455 311.50Q495 292 519 259Q543 226 543 172Q543 126 518 86Q493 46 440 21.50Q387-3 304-3M297-259L317-165L318-176Q308-176 300-168Q292-160 292-150Q292-139 299.50-131.50Q307-124 318-124Q330-124 337-132.50Q344-141 344-150Q344-158 342-166Q340-174 338-182L315-259L297-259Z"  horiz-adv-x="601" vert-adv-y="1000"  />

      
      <glyph glyph-name="uni1E60" unicode="&#x1E60;" d="M304-3Q228-3 160.50 25Q93 53 58 96L72 109Q105 70 167.50 43Q230 16 303 16Q379 16 427.50 37Q476 58 499.50 93.50Q523 129 523 172Q523 222 499 252.50Q475 283 435 300.50Q395 318 348 329.50Q301 341 253.50 353Q206 365 166 384.50Q126 404 102 438Q78 472 78 527Q78 573 102.50 613Q127 653 178.50 678Q230 703 312 703Q368 703 422.50 685.50Q477 668 515 639L504 623Q462 654 411 669Q360 684 313 684Q240 684 192 662.50Q144 641 121 605.50Q98 570 98 526Q98 475 122 444.50Q146 414 186 396.50Q226 379 273.50 367.50Q321 356 368 343.50Q415 331 455 311.50Q495 292 519 259Q543 226 543 172Q543 126 518 86Q493 46 440 21.50Q387-3 304-3Z"  horiz-adv-x="601" vert-adv-y="1000"  />

      
      <glyph glyph-name="uni1E62" unicode="&#x1E62;" d="M304-3Q228-3 160.50 25Q93 53 58 96L72 109Q105 70 167.50 43Q230 16 303 16Q379 16 427.50 37Q476 58 499.50 93.50Q523 129 523 172Q523 222 499 252.50Q475 283 435 300.50Q395 318 348 329.50Q301 341 253.50 353Q206 365 166 384.50Q126 404 102 438Q78 472 78 527Q78 573 102.50 613Q127 653 178.50 678Q230 703 312 703Q368 703 422.50 685.50Q477 668 515 639L504 623Q462 654 411 669Q360 684 313 684Q240 684 192 662.50Q144 641 121 605.50Q98 570 98 526Q98 475 122 444.50Q146 414 186 396.50Q226 379 273.50 367.50Q321 356 368 343.50Q415 331 455 311.50Q495 292 519 259Q543 226 543 172Q543 126 518 86Q493 46 440 21.50Q387-3 304-3M318-176Q308-176 300-168Q292-160 292-150Q292-139 300-131.50Q308-124 318-124Q329-124 336.50-131.50Q344-139 344-150Q344-160 336.50-168Q329-176 318-176Z"  horiz-adv-x="601" vert-adv-y="1000"  />

      
      <glyph glyph-name="uni1E68" unicode="&#x1E68;" d="M304-3Q228-3 160.50 25Q93 53 58 96L72 109Q105 70 167.50 43Q230 16 303 16Q379 16 427.50 37Q476 58 499.50 93.50Q523 129 523 172Q523 222 499 252.50Q475 283 435 300.50Q395 318 348 329.50Q301 341 253.50 353Q206 365 166 384.50Q126 404 102 438Q78 472 78 527Q78 573 102.50 613Q127 653 178.50 678Q230 703 312 703Q368 703 422.50 685.50Q477 668 515 639L504 623Q462 654 411 669Q360 684 313 684Q240 684 192 662.50Q144 641 121 605.50Q98 570 98 526Q98 475 122 444.50Q146 414 186 396.50Q226 379 273.50 367.50Q321 356 368 343.50Q415 331 455 311.50Q495 292 519 259Q543 226 543 172Q543 126 518 86Q493 46 440 21.50Q387-3 304-3M318-176Q308-176 300-168Q292-160 292-150Q292-139 300-131.50Q308-124 318-124Q329-124 336.50-131.50Q344-139 344-150Q344-160 336.50-168Q329-176 318-176Z"  horiz-adv-x="601" vert-adv-y="1000"  />

      
      <glyph glyph-name="uni1E9E" unicode="&#x1E9E;" d="M452-3Q414-3 382.50 4Q351 11 319 25L327 44Q356 30 388.50 23Q421 16 458 16Q548 16 602.50 61Q657 106 657 193Q657 281 601.50 325Q546 369 454 369Q430 369 406.50 366Q383 363 363 357L356 373L606 630L603 618Q564 653 512 668.50Q460 684 404 684Q279 684 213 616.50Q147 549 147 422L147 0L127 0L127 424Q127 511 159.50 573.50Q192 636 253.50 669.50Q315 703 402 703Q443 703 481.50 695Q520 687 554 671.50Q588 656 616 631L616 615L375 367L374 377Q392 383 412.50 385.50Q433 388 454 388Q521 388 571 366Q621 344 649 300.50Q677 257 677 193Q677 129 649.50 85.50Q622 42 571.50 19.50Q521-3 452-3Z"  horiz-adv-x="742" vert-adv-y="1000"  />

      
      <glyph glyph-name="uni018F" unicode="&#x018F;" d="M408-3Q333-3 269 23.50Q205 50 158 98Q111 146 85 210Q59 274 59 350L59 360L742 360L742 341L71 341L79 350Q79 279 103.50 218.50Q128 158 172.50 112.50Q217 67 277 41.50Q337 16 408 16Q475 16 534.50 41.50Q594 67 639.50 112.50Q685 158 711 218.50Q737 279 737 349L737 351Q737 422 711.50 482.50Q686 543 639.50 588Q593 633 531.50 658.50Q470 684 398 684Q355 684 314.50 676Q274 668 237.50 650Q201 632 167 603L156 618Q188 647 226 665.50Q264 684 307.50 693.50Q351 703 398 703Q475 703 540.50 676.50Q606 650 654.50 602.50Q703 555 730 490.50Q757 426 757 351Q757 278 730 214Q703 150 655 101Q607 52 544 24.50Q481-3 408-3Z"  horiz-adv-x="816" vert-adv-y="1000"  />

      
      <glyph glyph-name="uni54" unicode="&#x54;" d="M264 0L264 681L4 681L4 700L544 700L544 681L284 681L284 0L264 0Z"  horiz-adv-x="548" vert-adv-y="1000"  />

      
      <glyph glyph-name="uni0166" unicode="&#x0166;" d="M264 0L264 681L4 681L4 700L544 700L544 681L284 681L284 0L264 0M94 346L94 365L454 365L454 346L94 346Z"  horiz-adv-x="548" vert-adv-y="1000"  />

      
      <glyph glyph-name="uni0164" unicode="&#x0164;" d="M264 0L264 681L4 681L4 700L544 700L544 681L284 681L284 0L264 0Z"  horiz-adv-x="548" vert-adv-y="1000"  />

      
      <glyph glyph-name="uni0162" unicode="&#x0162;" d="M264 0L264 681L4 681L4 700L544 700L544 681L284 681L284 0L264 0M258-213Q237-213 219-206.50Q201-200 184-186L195-171Q207-182 223.50-188Q240-194 257-194Q288-194 308.50-178.50Q329-163 329-134Q329-108 310.50-91Q292-74 258-74L242-74L264 5L283 5L266-56Q304-58 326.50-79Q349-100 349-134Q349-170 323-191.50Q297-213 258-213Z"  horiz-adv-x="548" vert-adv-y="1000"  />

      
      <glyph glyph-name="uni021A" unicode="&#x021A;" d="M264 0L264 681L4 681L4 700L544 700L544 681L284 681L284 0L264 0M253-259L273-165L274-176Q264-176 256-168Q248-160 248-150Q248-139 255.50-131.50Q263-124 274-124Q286-124 293-132.50Q300-141 300-150Q300-158 298-166Q296-174 294-182L271-259L253-259Z"  horiz-adv-x="548" vert-adv-y="1000"  />

      
      <glyph glyph-name="uni1E6C" unicode="&#x1E6C;" d="M264 0L264 681L4 681L4 700L544 700L544 681L284 681L284 0L264 0M274-176Q264-176 256-168Q248-160 248-150Q248-139 256-131.50Q264-124 274-124Q285-124 292.50-131.50Q300-139 300-150Q300-160 292.50-168Q285-176 274-176Z"  horiz-adv-x="548" vert-adv-y="1000"  />

      
      <glyph glyph-name="uni1E6E" unicode="&#x1E6E;" d="M264 0L264 681L4 681L4 700L544 700L544 681L284 681L284 0L264 0M138-160L138-140L410-140L410-160L138-160Z"  horiz-adv-x="548" vert-adv-y="1000"  />

      
      <glyph glyph-name="uni55" unicode="&#x55;" d="M397-3Q272-3 199.50 71Q127 145 127 293L127 700L147 700L147 294Q147 154 212.50 85Q278 16 397 16Q516 16 581.50 85Q647 154 647 294L647 700L667 700L667 293Q667 145 594.50 71Q522-3 397-3Z"  horiz-adv-x="794" vert-adv-y="1000"  />

      
      <glyph glyph-name="unida" unicode="&#xda;" d="M397-3Q272-3 199.50 71Q127 145 127 293L127 700L147 700L147 294Q147 154 212.50 85Q278 16 397 16Q516 16 581.50 85Q647 154 647 294L647 700L667 700L667 293Q667 145 594.50 71Q522-3 397-3Z"  horiz-adv-x="794" vert-adv-y="1000"  />

      
      <glyph glyph-name="uni016C" unicode="&#x016C;" d="M397-3Q272-3 199.50 71Q127 145 127 293L127 700L147 700L147 294Q147 154 212.50 85Q278 16 397 16Q516 16 581.50 85Q647 154 647 294L647 700L667 700L667 293Q667 145 594.50 71Q522-3 397-3Z"  horiz-adv-x="794" vert-adv-y="1000"  />

      
      <glyph glyph-name="uni01D3" unicode="&#x01D3;" d="M397-3Q272-3 199.50 71Q127 145 127 293L127 700L147 700L147 294Q147 154 212.50 85Q278 16 397 16Q516 16 581.50 85Q647 154 647 294L647 700L667 700L667 293Q667 145 594.50 71Q522-3 397-3Z"  horiz-adv-x="794" vert-adv-y="1000"  />

      
      <glyph glyph-name="unidb" unicode="&#xdb;" d="M397-3Q272-3 199.50 71Q127 145 127 293L127 700L147 700L147 294Q147 154 212.50 85Q278 16 397 16Q516 16 581.50 85Q647 154 647 294L647 700L667 700L667 293Q667 145 594.50 71Q522-3 397-3Z"  horiz-adv-x="794" vert-adv-y="1000"  />

      
      <glyph glyph-name="uni0214" unicode="&#x0214;" d="M397-3Q272-3 199.50 71Q127 145 127 293L127 700L147 700L147 294Q147 154 212.50 85Q278 16 397 16Q516 16 581.50 85Q647 154 647 294L647 700L667 700L667 293Q667 145 594.50 71Q522-3 397-3Z"  horiz-adv-x="794" vert-adv-y="1000"  />

      
      <glyph glyph-name="unidc" unicode="&#xdc;" d="M397-3Q272-3 199.50 71Q127 145 127 293L127 700L147 700L147 294Q147 154 212.50 85Q278 16 397 16Q516 16 581.50 85Q647 154 647 294L647 700L667 700L667 293Q667 145 594.50 71Q522-3 397-3Z"  horiz-adv-x="794" vert-adv-y="1000"  />

      
      <glyph glyph-name="uni1EE4" unicode="&#x1EE4;" d="M397-3Q272-3 199.50 71Q127 145 127 293L127 700L147 700L147 294Q147 154 212.50 85Q278 16 397 16Q516 16 581.50 85Q647 154 647 294L647 700L667 700L667 293Q667 145 594.50 71Q522-3 397-3M397-176Q387-176 379-168Q371-160 371-150Q371-139 379-131.50Q387-124 397-124Q408-124 415.50-131.50Q423-139 423-150Q423-160 415.50-168Q408-176 397-176Z"  horiz-adv-x="794" vert-adv-y="1000"  />

      
      <glyph glyph-name="unid9" unicode="&#xd9;" d="M397-3Q272-3 199.50 71Q127 145 127 293L127 700L147 700L147 294Q147 154 212.50 85Q278 16 397 16Q516 16 581.50 85Q647 154 647 294L647 700L667 700L667 293Q667 145 594.50 71Q522-3 397-3Z"  horiz-adv-x="794" vert-adv-y="1000"  />

      
      <glyph glyph-name="uni1EE6" unicode="&#x1EE6;" d="M397-3Q272-3 199.50 71Q127 145 127 293L127 700L147 700L147 294Q147 154 212.50 85Q278 16 397 16Q516 16 581.50 85Q647 154 647 294L647 700L667 700L667 293Q667 145 594.50 71Q522-3 397-3Z"  horiz-adv-x="794" vert-adv-y="1000"  />

      
      <glyph glyph-name="uni01AF" unicode="&#x01AF;" d="M397-3Q272-3 199.50 71Q127 145 127 293L127 700L147 700L147 294Q147 154 212.50 85Q278 16 397 16Q516 16 581.50 85Q647 154 647 294L647 700L667 700L667 293Q667 145 594.50 71Q522-3 397-3M662 681L662 700L672 700Q711 700 726.50 721Q742 742 742 770Q742 790 736 806.50Q730 823 722 837L740 845Q750 830 756 810.50Q762 791 762 771Q762 734 741.50 707.50Q721 681 672 681L662 681Z"  horiz-adv-x="794" vert-adv-y="1000"  />

      
      <glyph glyph-name="uni1EE8" unicode="&#x1EE8;" d="M397-3Q272-3 199.50 71Q127 145 127 293L127 700L147 700L147 294Q147 154 212.50 85Q278 16 397 16Q516 16 581.50 85Q647 154 647 294L647 700L667 700L667 293Q667 145 594.50 71Q522-3 397-3M662 681L662 700L672 700Q711 700 726.50 721Q742 742 742 770Q742 790 736 806.50Q730 823 722 837L740 845Q750 830 756 810.50Q762 791 762 771Q762 734 741.50 707.50Q721 681 672 681L662 681Z"  horiz-adv-x="794" vert-adv-y="1000"  />

      
      <glyph glyph-name="uni1EF0" unicode="&#x1EF0;" d="M397-3Q272-3 199.50 71Q127 145 127 293L127 700L147 700L147 294Q147 154 212.50 85Q278 16 397 16Q516 16 581.50 85Q647 154 647 294L647 700L667 700L667 293Q667 145 594.50 71Q522-3 397-3M662 681L662 700L672 700Q711 700 726.50 721Q742 742 742 770Q742 790 736 806.50Q730 823 722 837L740 845Q750 830 756 810.50Q762 791 762 771Q762 734 741.50 707.50Q721 681 672 681L662 681M397-176Q387-176 379-168Q371-160 371-150Q371-139 379-131.50Q387-124 397-124Q408-124 415.50-131.50Q423-139 423-150Q423-160 415.50-168Q408-176 397-176Z"  horiz-adv-x="794" vert-adv-y="1000"  />

      
      <glyph glyph-name="uni1EEA" unicode="&#x1EEA;" d="M397-3Q272-3 199.50 71Q127 145 127 293L127 700L147 700L147 294Q147 154 212.50 85Q278 16 397 16Q516 16 581.50 85Q647 154 647 294L647 700L667 700L667 293Q667 145 594.50 71Q522-3 397-3M662 681L662 700L672 700Q711 700 726.50 721Q742 742 742 770Q742 790 736 806.50Q730 823 722 837L740 845Q750 830 756 810.50Q762 791 762 771Q762 734 741.50 707.50Q721 681 672 681L662 681Z"  horiz-adv-x="794" vert-adv-y="1000"  />

      
      <glyph glyph-name="uni1EEC" unicode="&#x1EEC;" d="M397-3Q272-3 199.50 71Q127 145 127 293L127 700L147 700L147 294Q147 154 212.50 85Q278 16 397 16Q516 16 581.50 85Q647 154 647 294L647 700L667 700L667 293Q667 145 594.50 71Q522-3 397-3M662 681L662 700L672 700Q711 700 726.50 721Q742 742 742 770Q742 790 736 806.50Q730 823 722 837L740 845Q750 830 756 810.50Q762 791 762 771Q762 734 741.50 707.50Q721 681 672 681L662 681Z"  horiz-adv-x="794" vert-adv-y="1000"  />

      
      <glyph glyph-name="uni1EEE" unicode="&#x1EEE;" d="M397-3Q272-3 199.50 71Q127 145 127 293L127 700L147 700L147 294Q147 154 212.50 85Q278 16 397 16Q516 16 581.50 85Q647 154 647 294L647 700L667 700L667 293Q667 145 594.50 71Q522-3 397-3M662 681L662 700L672 700Q711 700 726.50 721Q742 742 742 770Q742 790 736 806.50Q730 823 722 837L740 845Q750 830 756 810.50Q762 791 762 771Q762 734 741.50 707.50Q721 681 672 681L662 681Z"  horiz-adv-x="794" vert-adv-y="1000"  />

      
      <glyph glyph-name="uni0170" unicode="&#x0170;" d="M397-3Q272-3 199.50 71Q127 145 127 293L127 700L147 700L147 294Q147 154 212.50 85Q278 16 397 16Q516 16 581.50 85Q647 154 647 294L647 700L667 700L667 293Q667 145 594.50 71Q522-3 397-3Z"  horiz-adv-x="794" vert-adv-y="1000"  />

      
      <glyph glyph-name="uni0216" unicode="&#x0216;" d="M397-3Q272-3 199.50 71Q127 145 127 293L127 700L147 700L147 294Q147 154 212.50 85Q278 16 397 16Q516 16 581.50 85Q647 154 647 294L647 700L667 700L667 293Q667 145 594.50 71Q522-3 397-3Z"  horiz-adv-x="794" vert-adv-y="1000"  />

      
      <glyph glyph-name="uni016A" unicode="&#x016A;" d="M397-3Q272-3 199.50 71Q127 145 127 293L127 700L147 700L147 294Q147 154 212.50 85Q278 16 397 16Q516 16 581.50 85Q647 154 647 294L647 700L667 700L667 293Q667 145 594.50 71Q522-3 397-3Z"  horiz-adv-x="794" vert-adv-y="1000"  />

      
      <glyph glyph-name="uni1E7A" unicode="&#x1E7A;" d="M397-3Q272-3 199.50 71Q127 145 127 293L127 700L147 700L147 294Q147 154 212.50 85Q278 16 397 16Q516 16 581.50 85Q647 154 647 294L647 700L667 700L667 293Q667 145 594.50 71Q522-3 397-3Z"  horiz-adv-x="794" vert-adv-y="1000"  />

      
      <glyph glyph-name="uni0172" unicode="&#x0172;" d="M647 700L667 700L667 293Q667 172 620.50 103.50Q574 35 490 8Q423-14 389.50-39Q356-64 345-87.50Q334-111 334-130Q334-162 354.50-178Q375-194 406-194Q423-194 439.50-188Q456-182 468-171L479-186Q463-200 444.50-206.50Q426-213 405-213Q366-213 340-191Q314-169 314-130Q314-109 324.50-84.50Q335-60 364.50-34Q394-8 451 14L435-1Q426-2 416-2.50Q406-3 397-3Q272-3 199.50 71Q127 145 127 293L127 700L147 700L147 294Q147 154 212.50 85Q278 16 397 16Q516 16 581.50 85Q647 154 647 294L647 700Z"  horiz-adv-x="794" vert-adv-y="1000"  />

      
      <glyph glyph-name="uni016E" unicode="&#x016E;" d="M397-3Q272-3 199.50 71Q127 145 127 293L127 700L147 700L147 294Q147 154 212.50 85Q278 16 397 16Q516 16 581.50 85Q647 154 647 294L647 700L667 700L667 293Q667 145 594.50 71Q522-3 397-3M396 780Q369 780 348.50 792.50Q328 805 316 825.50Q304 846 304 870Q304 895 316 916Q328 937 349 950Q370 963 396 963Q423 963 444 950Q465 937 477 916Q489 895 489 870Q489 846 477 825.50Q465 805 444 792.50Q423 780 396 780M396 799Q428 799 448.50 820Q469 841 469 870Q469 900 448.50 922Q428 944 396 944Q365 944 344.50 922.50Q324 901 324 870Q324 840 344 819.50Q364 799 396 799Z"  horiz-adv-x="794" vert-adv-y="1000"  />

      
      <glyph glyph-name="uni0168" unicode="&#x0168;" d="M397-3Q272-3 199.50 71Q127 145 127 293L127 700L147 700L147 294Q147 154 212.50 85Q278 16 397 16Q516 16 581.50 85Q647 154 647 294L647 700L667 700L667 293Q667 145 594.50 71Q522-3 397-3Z"  horiz-adv-x="794" vert-adv-y="1000"  />

      
      <glyph glyph-name="uni1E78" unicode="&#x1E78;" d="M397-3Q272-3 199.50 71Q127 145 127 293L127 700L147 700L147 294Q147 154 212.50 85Q278 16 397 16Q516 16 581.50 85Q647 154 647 294L647 700L667 700L667 293Q667 145 594.50 71Q522-3 397-3Z"  horiz-adv-x="794" vert-adv-y="1000"  />

      
      <glyph glyph-name="uni56" unicode="&#x56;" d="M325 0L10 700L33 700L340 16L330 16L637 700L660 700L345 0L325 0Z"  horiz-adv-x="670" vert-adv-y="1000"  />

      
      <glyph glyph-name="uni57" unicode="&#x57;" d="M285 0L45 700L67 700L301 16L290 16L530 700L550 700L790 16L780 16L1014 700L1035 700L795 0L775 0L538 678L542 678L305 0L285 0Z"  horiz-adv-x="1080" vert-adv-y="1000"  />

      
      <glyph glyph-name="uni1E82" unicode="&#x1E82;" d="M285 0L45 700L67 700L301 16L290 16L530 700L550 700L790 16L780 16L1014 700L1035 700L795 0L775 0L538 678L542 678L305 0L285 0Z"  horiz-adv-x="1080" vert-adv-y="1000"  />

      
      <glyph glyph-name="uni0174" unicode="&#x0174;" d="M285 0L45 700L67 700L301 16L290 16L530 700L550 700L790 16L780 16L1014 700L1035 700L795 0L775 0L538 678L542 678L305 0L285 0Z"  horiz-adv-x="1080" vert-adv-y="1000"  />

      
      <glyph glyph-name="uni1E84" unicode="&#x1E84;" d="M285 0L45 700L67 700L301 16L290 16L530 700L550 700L790 16L780 16L1014 700L1035 700L795 0L775 0L538 678L542 678L305 0L285 0Z"  horiz-adv-x="1080" vert-adv-y="1000"  />

      
      <glyph glyph-name="uni1E80" unicode="&#x1E80;" d="M285 0L45 700L67 700L301 16L290 16L530 700L550 700L790 16L780 16L1014 700L1035 700L795 0L775 0L538 678L542 678L305 0L285 0Z"  horiz-adv-x="1080" vert-adv-y="1000"  />

      
      <glyph glyph-name="uni58" unicode="&#x58;" d="M25 0L304 370L304 354L45 700L70 700L314 373L308 373L552 700L576 700L320 358L320 366L596 0L571 0L307 351L313 351L49 0L25 0Z"  horiz-adv-x="621" vert-adv-y="1000"  />

      
      <glyph glyph-name="uni59" unicode="&#x59;" d="M295 0L295 245L300 230L10 700L33 700L309 253L301 253L577 700L600 700L310 230L315 245L315 0L295 0Z"  horiz-adv-x="610" vert-adv-y="1000"  />

      
      <glyph glyph-name="unidd" unicode="&#xdd;" d="M295 0L295 245L300 230L10 700L33 700L309 253L301 253L577 700L600 700L310 230L315 245L315 0L295 0Z"  horiz-adv-x="610" vert-adv-y="1000"  />

      
      <glyph glyph-name="uni0176" unicode="&#x0176;" d="M295 0L295 245L300 230L10 700L33 700L309 253L301 253L577 700L600 700L310 230L315 245L315 0L295 0Z"  horiz-adv-x="610" vert-adv-y="1000"  />

      
      <glyph glyph-name="uni0178" unicode="&#x0178;" d="M295 0L295 245L300 230L10 700L33 700L309 253L301 253L577 700L600 700L310 230L315 245L315 0L295 0Z"  horiz-adv-x="610" vert-adv-y="1000"  />

      
      <glyph glyph-name="uni1E8E" unicode="&#x1E8E;" d="M295 0L295 245L300 230L10 700L33 700L309 253L301 253L577 700L600 700L310 230L315 245L315 0L295 0Z"  horiz-adv-x="610" vert-adv-y="1000"  />

      
      <glyph glyph-name="uni1EF4" unicode="&#x1EF4;" d="M295 0L295 245L300 230L10 700L33 700L309 253L301 253L577 700L600 700L310 230L315 245L315 0L295 0M305-176Q295-176 287-168Q279-160 279-150Q279-139 287-131.50Q295-124 305-124Q316-124 323.50-131.50Q331-139 331-150Q331-160 323.50-168Q316-176 305-176Z"  horiz-adv-x="610" vert-adv-y="1000"  />

      
      <glyph glyph-name="uni1EF2" unicode="&#x1EF2;" d="M295 0L295 245L300 230L10 700L33 700L309 253L301 253L577 700L600 700L310 230L315 245L315 0L295 0Z"  horiz-adv-x="610" vert-adv-y="1000"  />

      
      <glyph glyph-name="uni1EF6" unicode="&#x1EF6;" d="M295 0L295 245L300 230L10 700L33 700L309 253L301 253L577 700L600 700L310 230L315 245L315 0L295 0Z"  horiz-adv-x="610" vert-adv-y="1000"  />

      
      <glyph glyph-name="uni0232" unicode="&#x0232;" d="M295 0L295 245L300 230L10 700L33 700L309 253L301 253L577 700L600 700L310 230L315 245L315 0L295 0Z"  horiz-adv-x="610" vert-adv-y="1000"  />

      
      <glyph glyph-name="uni1EF8" unicode="&#x1EF8;" d="M295 0L295 245L300 230L10 700L33 700L309 253L301 253L577 700L600 700L310 230L315 245L315 0L295 0Z"  horiz-adv-x="610" vert-adv-y="1000"  />

      
      <glyph glyph-name="uni5a" unicode="&#x5a;" d="M50 0L50 15L567 688L568 681L55 681L55 700L590 700L590 685L73 12L72 19L600 19L600 0L50 0Z"  horiz-adv-x="639" vert-adv-y="1000"  />

      
      <glyph glyph-name="uni0179" unicode="&#x0179;" d="M50 0L50 15L567 688L568 681L55 681L55 700L590 700L590 685L73 12L72 19L600 19L600 0L50 0Z"  horiz-adv-x="639" vert-adv-y="1000"  />

      
      <glyph glyph-name="uni017D" unicode="&#x017D;" d="M50 0L50 15L567 688L568 681L55 681L55 700L590 700L590 685L73 12L72 19L600 19L600 0L50 0Z"  horiz-adv-x="639" vert-adv-y="1000"  />

      
      <glyph glyph-name="uni017B" unicode="&#x017B;" d="M50 0L50 15L567 688L568 681L55 681L55 700L590 700L590 685L73 12L72 19L600 19L600 0L50 0Z"  horiz-adv-x="639" vert-adv-y="1000"  />

      
      <glyph glyph-name="uni1E92" unicode="&#x1E92;" d="M50 0L50 15L567 688L568 681L55 681L55 700L590 700L590 685L73 12L72 19L600 19L600 0L50 0M335-176Q325-176 317-168Q309-160 309-150Q309-139 317-131.50Q325-124 335-124Q346-124 353.50-131.50Q361-139 361-150Q361-160 353.50-168Q346-176 335-176Z"  horiz-adv-x="639" vert-adv-y="1000"  />

      
      <glyph glyph-name="uni61" unicode="&#x61;" d="M445 0L445 123L445 140L445 338Q445 419 403 460Q361 501 281 501Q223 501 175 481Q127 461 93 429L79 443Q116 478 169 499Q222 520 280 520Q370 520 417.50 474Q465 428 465 339L465 0L445 0M248-3Q190-3 149 15Q108 33 86.50 66Q65 99 65 142Q65 179 82.50 210.50Q100 242 140 261.50Q180 281 249 281L456 281L456 262L248 262Q160 262 122.50 228.50Q85 195 85 143Q85 85 128 50.50Q171 16 248 16Q323 16 371.50 50.50Q420 85 445 148L455 135Q434 73 381.50 35Q329-3 248-3Z"  horiz-adv-x="574" vert-adv-y="1000"  />

      
      <glyph glyph-name="unie1" unicode="&#xe1;" d="M445 0L445 123L445 140L445 338Q445 419 403 460Q361 501 281 501Q223 501 175 481Q127 461 93 429L79 443Q116 478 169 499Q222 520 280 520Q370 520 417.50 474Q465 428 465 339L465 0L445 0M248-3Q190-3 149 15Q108 33 86.50 66Q65 99 65 142Q65 179 82.50 210.50Q100 242 140 261.50Q180 281 249 281L456 281L456 262L248 262Q160 262 122.50 228.50Q85 195 85 143Q85 85 128 50.50Q171 16 248 16Q323 16 371.50 50.50Q420 85 445 148L455 135Q434 73 381.50 35Q329-3 248-3M228 607L368 717L408 717L258 607L228 607Z"  horiz-adv-x="574" vert-adv-y="1000"  />

      
      <glyph glyph-name="uni0103" unicode="&#x0103;" d="M445 0L445 123L445 140L445 338Q445 419 403 460Q361 501 281 501Q223 501 175 481Q127 461 93 429L79 443Q116 478 169 499Q222 520 280 520Q370 520 417.50 474Q465 428 465 339L465 0L445 0M248-3Q190-3 149 15Q108 33 86.50 66Q65 99 65 142Q65 179 82.50 210.50Q100 242 140 261.50Q180 281 249 281L456 281L456 262L248 262Q160 262 122.50 228.50Q85 195 85 143Q85 85 128 50.50Q171 16 248 16Q323 16 371.50 50.50Q420 85 445 148L455 135Q434 73 381.50 35Q329-3 248-3M273 604Q219 604 181 634.50Q143 665 141 717L160 717Q162 674 194.50 648.50Q227 623 273 623Q320 623 352.50 648.50Q385 674 386 717L405 717Q404 665 365.50 634.50Q327 604 273 604Z"  horiz-adv-x="574" vert-adv-y="1000"  />

      
      <glyph glyph-name="uni1EAF" unicode="&#x1EAF;" d="M445 0L445 123L445 140L445 338Q445 419 403 460Q361 501 281 501Q223 501 175 481Q127 461 93 429L79 443Q116 478 169 499Q222 520 280 520Q370 520 417.50 474Q465 428 465 339L465 0L445 0M248-3Q190-3 149 15Q108 33 86.50 66Q65 99 65 142Q65 179 82.50 210.50Q100 242 140 261.50Q180 281 249 281L456 281L456 262L248 262Q160 262 122.50 228.50Q85 195 85 143Q85 85 128 50.50Q171 16 248 16Q323 16 371.50 50.50Q420 85 445 148L455 135Q434 73 381.50 35Q329-3 248-3Z"  horiz-adv-x="574" vert-adv-y="1000"  />

      
      <glyph glyph-name="uni1EB7" unicode="&#x1EB7;" d="M445 0L445 123L445 140L445 338Q445 419 403 460Q361 501 281 501Q223 501 175 481Q127 461 93 429L79 443Q116 478 169 499Q222 520 280 520Q370 520 417.50 474Q465 428 465 339L465 0L445 0M248-3Q190-3 149 15Q108 33 86.50 66Q65 99 65 142Q65 179 82.50 210.50Q100 242 140 261.50Q180 281 249 281L456 281L456 262L248 262Q160 262 122.50 228.50Q85 195 85 143Q85 85 128 50.50Q171 16 248 16Q323 16 371.50 50.50Q420 85 445 148L455 135Q434 73 381.50 35Q329-3 248-3M283-176Q273-176 265-168Q257-160 257-150Q257-139 265-131.50Q273-124 283-124Q294-124 301.50-131.50Q309-139 309-150Q309-160 301.50-168Q294-176 283-176M273 604Q219 604 181 634.50Q143 665 141 717L160 717Q162 674 194.50 648.50Q227 623 273 623Q320 623 352.50 648.50Q385 674 386 717L405 717Q404 665 365.50 634.50Q327 604 273 604Z"  horiz-adv-x="574" vert-adv-y="1000"  />

      
      <glyph glyph-name="uni1EB1" unicode="&#x1EB1;" d="M445 0L445 123L445 140L445 338Q445 419 403 460Q361 501 281 501Q223 501 175 481Q127 461 93 429L79 443Q116 478 169 499Q222 520 280 520Q370 520 417.50 474Q465 428 465 339L465 0L445 0M248-3Q190-3 149 15Q108 33 86.50 66Q65 99 65 142Q65 179 82.50 210.50Q100 242 140 261.50Q180 281 249 281L456 281L456 262L248 262Q160 262 122.50 228.50Q85 195 85 143Q85 85 128 50.50Q171 16 248 16Q323 16 371.50 50.50Q420 85 445 148L455 135Q434 73 381.50 35Q329-3 248-3Z"  horiz-adv-x="574" vert-adv-y="1000"  />

      
      </font>
</defs>
</svg>
