<?xml version="1.0" standalone="no"?>
  <!DOCTYPE svg PUBLIC "-//W3C//DTD SVG 1.1//EN" "http://www.w3.org/Graphics/SVG/1.1/DTD/svg11.dtd" >
  <svg>
  <metadata>
  Created by font-carrier
  </metadata>
  <defs>
  <font id="Montserrat-SemiBoldItalic" horiz-adv-x="1566" vert-adv-y="1566" >
    <font-face
      
      font-family="Montserrat SemiBold"
      
      font-weight="400"
      
      font-stretch="normal"
      
      units-per-em="1000"
      
      ascent="968"
      
      descent="-251"
      
    />
      <missing-glyph />

      

      
      <glyph glyph-name="uni41" unicode="&#x41;" d="M-58 0L397 700L526 700L700 0L571 0L425 633L477 633L81 0L-58 0M120 162L175 264L552 264L569 162L120 162Z"  horiz-adv-x="749" vert-adv-y="1000"  />

      
      <glyph glyph-name="unic1" unicode="&#xc1;" d="M-58 0L397 700L526 700L700 0L571 0L425 633L477 633L81 0L-58 0M120 162L175 264L552 264L569 162L120 162Z"  horiz-adv-x="749" vert-adv-y="1000"  />

      
      <glyph glyph-name="uni0102" unicode="&#x0102;" d="M-58 0L397 700L526 700L700 0L571 0L425 633L477 633L81 0L-58 0M120 162L175 264L552 264L569 162L120 162Z"  horiz-adv-x="749" vert-adv-y="1000"  />

      
      <glyph glyph-name="uni1EAE" unicode="&#x1EAE;" d="M-58 0L397 700L526 700L700 0L571 0L425 633L477 633L81 0L-58 0M120 162L175 264L552 264L569 162L120 162Z"  horiz-adv-x="749" vert-adv-y="1000"  />

      
      <glyph glyph-name="uni1EB6" unicode="&#x1EB6;" d="M-58 0L397 700L526 700L700 0L571 0L425 633L477 633L81 0L-58 0M120 162L175 264L552 264L569 162L120 162M286-203Q262-203 246.50-188Q231-173 231-149Q231-121 251-102Q271-83 298-83Q321-83 337-97.50Q353-112 353-136Q353-166 334-184.50Q315-203 286-203Z"  horiz-adv-x="749" vert-adv-y="1000"  />

      
      <glyph glyph-name="uni1EB0" unicode="&#x1EB0;" d="M-58 0L397 700L526 700L700 0L571 0L425 633L477 633L81 0L-58 0M120 162L175 264L552 264L569 162L120 162Z"  horiz-adv-x="749" vert-adv-y="1000"  />

      
      <glyph glyph-name="uni1EB2" unicode="&#x1EB2;" d="M-58 0L397 700L526 700L700 0L571 0L425 633L477 633L81 0L-58 0M120 162L175 264L552 264L569 162L120 162Z"  horiz-adv-x="749" vert-adv-y="1000"  />

      
      <glyph glyph-name="uni1EB4" unicode="&#x1EB4;" d="M-58 0L397 700L526 700L700 0L571 0L425 633L477 633L81 0L-58 0M120 162L175 264L552 264L569 162L120 162Z"  horiz-adv-x="749" vert-adv-y="1000"  />

      
      <glyph glyph-name="uni01CD" unicode="&#x01CD;" d="M-58 0L397 700L526 700L700 0L571 0L425 633L477 633L81 0L-58 0M120 162L175 264L552 264L569 162L120 162Z"  horiz-adv-x="749" vert-adv-y="1000"  />

      
      <glyph glyph-name="unic2" unicode="&#xc2;" d="M-58 0L397 700L526 700L700 0L571 0L425 633L477 633L81 0L-58 0M120 162L175 264L552 264L569 162L120 162Z"  horiz-adv-x="749" vert-adv-y="1000"  />

      
      <glyph glyph-name="uni1EA4" unicode="&#x1EA4;" d="M-58 0L397 700L526 700L700 0L571 0L425 633L477 633L81 0L-58 0M120 162L175 264L552 264L569 162L120 162Z"  horiz-adv-x="749" vert-adv-y="1000"  />

      
      <glyph glyph-name="uni1EAC" unicode="&#x1EAC;" d="M-58 0L397 700L526 700L700 0L571 0L425 633L477 633L81 0L-58 0M120 162L175 264L552 264L569 162L120 162M286-203Q262-203 246.50-188Q231-173 231-149Q231-121 251-102Q271-83 298-83Q321-83 337-97.50Q353-112 353-136Q353-166 334-184.50Q315-203 286-203Z"  horiz-adv-x="749" vert-adv-y="1000"  />

      
      <glyph glyph-name="uni1EA6" unicode="&#x1EA6;" d="M-58 0L397 700L526 700L700 0L571 0L425 633L477 633L81 0L-58 0M120 162L175 264L552 264L569 162L120 162Z"  horiz-adv-x="749" vert-adv-y="1000"  />

      
      <glyph glyph-name="uni1EA8" unicode="&#x1EA8;" d="M-58 0L397 700L526 700L700 0L571 0L425 633L477 633L81 0L-58 0M120 162L175 264L552 264L569 162L120 162Z"  horiz-adv-x="749" vert-adv-y="1000"  />

      
      <glyph glyph-name="uni1EAA" unicode="&#x1EAA;" d="M-58 0L397 700L526 700L700 0L571 0L425 633L477 633L81 0L-58 0M120 162L175 264L552 264L569 162L120 162Z"  horiz-adv-x="749" vert-adv-y="1000"  />

      
      <glyph glyph-name="uni0200" unicode="&#x0200;" d="M-58 0L397 700L526 700L700 0L571 0L425 633L477 633L81 0L-58 0M120 162L175 264L552 264L569 162L120 162Z"  horiz-adv-x="749" vert-adv-y="1000"  />

      
      <glyph glyph-name="unic4" unicode="&#xc4;" d="M-58 0L397 700L526 700L700 0L571 0L425 633L477 633L81 0L-58 0M120 162L175 264L552 264L569 162L120 162Z"  horiz-adv-x="749" vert-adv-y="1000"  />

      
      <glyph glyph-name="uni1EA0" unicode="&#x1EA0;" d="M-58 0L397 700L526 700L700 0L571 0L425 633L477 633L81 0L-58 0M120 162L175 264L552 264L569 162L120 162M286-203Q262-203 246.50-188Q231-173 231-149Q231-121 251-102Q271-83 298-83Q321-83 337-97.50Q353-112 353-136Q353-166 334-184.50Q315-203 286-203Z"  horiz-adv-x="749" vert-adv-y="1000"  />

      
      <glyph glyph-name="unic0" unicode="&#xc0;" d="M-58 0L397 700L526 700L700 0L571 0L425 633L477 633L81 0L-58 0M120 162L175 264L552 264L569 162L120 162Z"  horiz-adv-x="749" vert-adv-y="1000"  />

      
      <glyph glyph-name="uni1EA2" unicode="&#x1EA2;" d="M-58 0L397 700L526 700L700 0L571 0L425 633L477 633L81 0L-58 0M120 162L175 264L552 264L569 162L120 162Z"  horiz-adv-x="749" vert-adv-y="1000"  />

      
      <glyph glyph-name="uni0202" unicode="&#x0202;" d="M-58 0L397 700L526 700L700 0L571 0L425 633L477 633L81 0L-58 0M120 162L175 264L552 264L569 162L120 162Z"  horiz-adv-x="749" vert-adv-y="1000"  />

      
      <glyph glyph-name="uni0100" unicode="&#x0100;" d="M-58 0L397 700L526 700L700 0L571 0L425 633L477 633L81 0L-58 0M120 162L175 264L552 264L569 162L120 162Z"  horiz-adv-x="749" vert-adv-y="1000"  />

      
      <glyph glyph-name="uni0104" unicode="&#x0104;" d="M-58 0L397 700L526 700L700 0L571 0L425 633L477 633L81 0L-58 0M120 162L175 264L552 264L569 162L120 162M590-228Q538-228 505.50-203.50Q473-179 473-134Q473-97 494-65.50Q515-34 554.50-7.50Q594 19 649 40L701 0Q654-17 622.50-36.50Q591-56 575.50-76Q560-96 560-117Q560-138 574-149Q588-160 609-160Q626-160 643.50-155.50Q661-151 675-144L687-205Q667-215 643-221.50Q619-228 590-228Z"  horiz-adv-x="749" vert-adv-y="1000"  />

      
      <glyph glyph-name="unic5" unicode="&#xc5;" d="M-58 0L397 700L526 700L700 0L571 0L425 633L477 633L81 0L-58 0M120 162L175 264L552 264L569 162L120 162M495 759Q462 759 436 775Q410 791 394.50 816.50Q379 842 379 873Q379 905 394.50 931.50Q410 958 436.50 973.50Q463 989 495 989Q529 989 555.50 973.50Q582 958 597.50 931.50Q613 905 613 873Q613 842 597.50 816Q582 790 555.50 774.50Q529 759 495 759M496 810Q524 810 541.50 828Q559 846 559 873Q559 901 541 919.50Q523 938 495 938Q469 938 451 920Q433 902 433 873Q433 846 450.50 828Q468 810 496 810Z"  horiz-adv-x="749" vert-adv-y="1000"  />

      
      <glyph glyph-name="uni01FA" unicode="&#x01FA;" d="M-58 0L397 700L526 700L700 0L571 0L425 633L477 633L81 0L-58 0M120 162L175 264L552 264L569 162L120 162M495 759Q462 759 436 775Q410 791 394.50 816.50Q379 842 379 873Q379 905 394.50 931.50Q410 958 436.50 973.50Q463 989 495 989Q529 989 555.50 973.50Q582 958 597.50 931.50Q613 905 613 873Q613 842 597.50 816Q582 790 555.50 774.50Q529 759 495 759M496 810Q524 810 541.50 828Q559 846 559 873Q559 901 541 919.50Q523 938 495 938Q469 938 451 920Q433 902 433 873Q433 846 450.50 828Q468 810 496 810M583 927L521 948L634 1064L697 1014L583 927Z"  horiz-adv-x="749" vert-adv-y="1000"  />

      
      <glyph glyph-name="unic3" unicode="&#xc3;" d="M-58 0L397 700L526 700L700 0L571 0L425 633L477 633L81 0L-58 0M120 162L175 264L552 264L569 162L120 162Z"  horiz-adv-x="749" vert-adv-y="1000"  />

      
      <glyph glyph-name="unic6" unicode="&#xc6;" d="M-59 0L482 700L619 700L600 593L487 593L579 647L85 0L-59 0M169 162L193 264L532 264L513 162L169 162M436 0L576 700L1085 700L1063 591L682 591L586 109L981 109L959 0L436 0M613 302L636 409L985 409L963 302L613 302Z"  horiz-adv-x="1064" vert-adv-y="1000"  />

      
      <glyph glyph-name="uni01FC" unicode="&#x01FC;" d="M-59 0L482 700L619 700L600 593L487 593L579 647L85 0L-59 0M169 162L193 264L532 264L513 162L169 162M436 0L576 700L1085 700L1063 591L682 591L586 109L981 109L959 0L436 0M613 302L636 409L985 409L963 302L613 302Z"  horiz-adv-x="1064" vert-adv-y="1000"  />

      
      <glyph glyph-name="uni42" unicode="&#x42;" d="M41 0L181 700L504 700Q614 700 673 660Q732 620 732 543Q732 477 698.50 432Q665 387 612.50 364Q560 341 500 341L525 375Q604 375 653 335.50Q702 296 702 220Q702 147 662.50 98Q623 49 553.50 24.50Q484 0 392 0L41 0M191 102L401 102Q482 102 527 132Q572 162 572 220Q572 267 539 285.50Q506 304 446 304L213 304L233 405L436 405Q484 405 520.50 417.50Q557 430 576.50 456.50Q596 483 596 521Q596 561 564.50 579.50Q533 598 475 598L290 598L191 102Z"  horiz-adv-x="761" vert-adv-y="1000"  />

      
      <glyph glyph-name="uni43" unicode="&#x43;" d="M396-10Q289-10 213 28Q137 66 96.50 133.50Q56 201 56 289Q56 378 86.50 454.50Q117 531 174 588Q231 645 310 677.50Q389 710 487 710Q578 710 647 680Q716 650 753 593L659 514Q630 554 585 575Q540 596 478 596Q411 596 357 573Q303 550 265 508.50Q227 467 207 412.50Q187 358 187 297Q187 240 212 196Q237 152 286 128Q335 104 406 104Q465 104 515.50 124Q566 144 605 185L681 103Q630 45 556.50 17.50Q483-10 396-10Z"  horiz-adv-x="727" vert-adv-y="1000"  />

      
      <glyph glyph-name="uni0106" unicode="&#x0106;" d="M396-10Q289-10 213 28Q137 66 96.50 133.50Q56 201 56 289Q56 378 86.50 454.50Q117 531 174 588Q231 645 310 677.50Q389 710 487 710Q578 710 647 680Q716 650 753 593L659 514Q630 554 585 575Q540 596 478 596Q411 596 357 573Q303 550 265 508.50Q227 467 207 412.50Q187 358 187 297Q187 240 212 196Q237 152 286 128Q335 104 406 104Q465 104 515.50 124Q566 144 605 185L681 103Q630 45 556.50 17.50Q483-10 396-10Z"  horiz-adv-x="727" vert-adv-y="1000"  />

      
      <glyph glyph-name="uni010C" unicode="&#x010C;" d="M396-10Q289-10 213 28Q137 66 96.50 133.50Q56 201 56 289Q56 378 86.50 454.50Q117 531 174 588Q231 645 310 677.50Q389 710 487 710Q578 710 647 680Q716 650 753 593L659 514Q630 554 585 575Q540 596 478 596Q411 596 357 573Q303 550 265 508.50Q227 467 207 412.50Q187 358 187 297Q187 240 212 196Q237 152 286 128Q335 104 406 104Q465 104 515.50 124Q566 144 605 185L681 103Q630 45 556.50 17.50Q483-10 396-10Z"  horiz-adv-x="727" vert-adv-y="1000"  />

      
      <glyph glyph-name="unic7" unicode="&#xc7;" d="M396-10Q289-10 213 28Q137 66 96.50 133.50Q56 201 56 289Q56 378 86.50 454.50Q117 531 174 588Q231 645 310 677.50Q389 710 487 710Q578 710 647 680Q716 650 753 593L659 514Q630 554 585 575Q540 596 478 596Q411 596 357 573Q303 550 265 508.50Q227 467 207 412.50Q187 358 187 297Q187 240 212 196Q237 152 286 128Q335 104 406 104Q465 104 515.50 124Q566 144 605 185L681 103Q630 45 556.50 17.50Q483-10 396-10M289-228Q262-228 239-222.50Q216-217 198-207L228-148Q244-156 261-160Q278-164 297-164Q328-164 342-153Q356-142 356-126Q356-111 345-103Q334-95 309-95L278-95L324 7L392 7L368-49Q404-54 422-74Q440-94 440-123Q438-172 396.50-200Q355-228 289-228Z"  horiz-adv-x="727" vert-adv-y="1000"  />

      
      <glyph glyph-name="uni1E08" unicode="&#x1E08;" d="M396-10Q289-10 213 28Q137 66 96.50 133.50Q56 201 56 289Q56 378 86.50 454.50Q117 531 174 588Q231 645 310 677.50Q389 710 487 710Q578 710 647 680Q716 650 753 593L659 514Q630 554 585 575Q540 596 478 596Q411 596 357 573Q303 550 265 508.50Q227 467 207 412.50Q187 358 187 297Q187 240 212 196Q237 152 286 128Q335 104 406 104Q465 104 515.50 124Q566 144 605 185L681 103Q630 45 556.50 17.50Q483-10 396-10M289-228Q262-228 239-222.50Q216-217 198-207L228-148Q244-156 261-160Q278-164 297-164Q328-164 342-153Q356-142 356-126Q356-111 345-103Q334-95 309-95L278-95L324 7L392 7L368-49Q404-54 422-74Q440-94 440-123Q438-172 396.50-200Q355-228 289-228Z"  horiz-adv-x="727" vert-adv-y="1000"  />

      
      <glyph glyph-name="uni0108" unicode="&#x0108;" d="M396-10Q289-10 213 28Q137 66 96.50 133.50Q56 201 56 289Q56 378 86.50 454.50Q117 531 174 588Q231 645 310 677.50Q389 710 487 710Q578 710 647 680Q716 650 753 593L659 514Q630 554 585 575Q540 596 478 596Q411 596 357 573Q303 550 265 508.50Q227 467 207 412.50Q187 358 187 297Q187 240 212 196Q237 152 286 128Q335 104 406 104Q465 104 515.50 124Q566 144 605 185L681 103Q630 45 556.50 17.50Q483-10 396-10Z"  horiz-adv-x="727" vert-adv-y="1000"  />

      
      <glyph glyph-name="uni010A" unicode="&#x010A;" d="M396-10Q289-10 213 28Q137 66 96.50 133.50Q56 201 56 289Q56 378 86.50 454.50Q117 531 174 588Q231 645 310 677.50Q389 710 487 710Q578 710 647 680Q716 650 753 593L659 514Q630 554 585 575Q540 596 478 596Q411 596 357 573Q303 550 265 508.50Q227 467 207 412.50Q187 358 187 297Q187 240 212 196Q237 152 286 128Q335 104 406 104Q465 104 515.50 124Q566 144 605 185L681 103Q630 45 556.50 17.50Q483-10 396-10Z"  horiz-adv-x="727" vert-adv-y="1000"  />

      
      <glyph glyph-name="uni44" unicode="&#x44;" d="M41 0L181 700L464 700Q571 700 647 664.50Q723 629 763.50 564Q804 499 804 411Q804 318 772.50 242Q741 166 683.50 112.50Q626 59 546 29.50Q466 0 368 0L41 0M193 110L372 110Q466 110 533.50 148.50Q601 187 637 253Q673 319 673 403Q673 460 648 502Q623 544 573.50 567Q524 590 450 590L289 590L193 110Z"  horiz-adv-x="826" vert-adv-y="1000"  />

      
      <glyph glyph-name="uni01C4" unicode="&#x01C4;" d="M41 0L181 700L464 700Q571 700 647 664.50Q723 629 763.50 564Q804 499 804 411Q804 318 772.50 242Q741 166 683.50 112.50Q626 59 546 29.50Q466 0 368 0L41 0M193 110L372 110Q466 110 533.50 148.50Q601 187 637 253Q673 319 673 403Q673 460 648 502Q623 544 573.50 567Q524 590 450 590L289 590L193 110Z"  horiz-adv-x="1452" vert-adv-y="1000"  />

      
      <glyph glyph-name="unid0" unicode="&#xd0;" d="M51 0L191 700L474 700Q581 700 657 664.50Q733 629 773.50 564Q814 499 814 411Q814 318 782.50 242Q751 166 693.50 112.50Q636 59 556 29.50Q476 0 378 0L51 0M203 110L382 110Q476 110 543.50 148.50Q611 187 647 253Q683 319 683 403Q683 460 658 502Q633 544 583.50 567Q534 590 460 590L299 590L203 110M13 308L33 404L449 404L429 308L13 308Z"  horiz-adv-x="836" vert-adv-y="1000"  />

      
      <glyph glyph-name="uni010E" unicode="&#x010E;" d="M41 0L181 700L464 700Q571 700 647 664.50Q723 629 763.50 564Q804 499 804 411Q804 318 772.50 242Q741 166 683.50 112.50Q626 59 546 29.50Q466 0 368 0L41 0M193 110L372 110Q466 110 533.50 148.50Q601 187 637 253Q673 319 673 403Q673 460 648 502Q623 544 573.50 567Q524 590 450 590L289 590L193 110Z"  horiz-adv-x="826" vert-adv-y="1000"  />

      
      <glyph glyph-name="uni0110" unicode="&#x0110;" d="M51 0L191 700L474 700Q581 700 657 664.50Q733 629 773.50 564Q814 499 814 411Q814 318 782.50 242Q751 166 693.50 112.50Q636 59 556 29.50Q476 0 378 0L51 0M203 110L382 110Q476 110 543.50 148.50Q611 187 647 253Q683 319 683 403Q683 460 658 502Q633 544 583.50 567Q534 590 460 590L299 590L203 110M13 308L33 404L449 404L429 308L13 308Z"  horiz-adv-x="836" vert-adv-y="1000"  />

      
      <glyph glyph-name="uni1E0C" unicode="&#x1E0C;" d="M41 0L181 700L464 700Q571 700 647 664.50Q723 629 763.50 564Q804 499 804 411Q804 318 772.50 242Q741 166 683.50 112.50Q626 59 546 29.50Q466 0 368 0L41 0M193 110L372 110Q466 110 533.50 148.50Q601 187 637 253Q673 319 673 403Q673 460 648 502Q623 544 573.50 567Q524 590 450 590L289 590L193 110M288-203Q264-203 248.50-188Q233-173 233-149Q233-121 253-102Q273-83 300-83Q323-83 339-97.50Q355-112 355-136Q355-166 336-184.50Q317-203 288-203Z"  horiz-adv-x="826" vert-adv-y="1000"  />

      
      <glyph glyph-name="uni1E0E" unicode="&#x1E0E;" d="M41 0L181 700L464 700Q571 700 647 664.50Q723 629 763.50 564Q804 499 804 411Q804 318 772.50 242Q741 166 683.50 112.50Q626 59 546 29.50Q466 0 368 0L41 0M193 110L372 110Q466 110 533.50 148.50Q601 187 637 253Q673 319 673 403Q673 460 648 502Q623 544 573.50 567Q524 590 450 590L289 590L193 110M114-178L127-104L475-104L462-178L114-178Z"  horiz-adv-x="826" vert-adv-y="1000"  />

      
      <glyph glyph-name="uni01C5" unicode="&#x01C5;" d="M41 0L181 700L464 700Q571 700 647 664.50Q723 629 763.50 564Q804 499 804 411Q804 318 772.50 242Q741 166 683.50 112.50Q626 59 546 29.50Q466 0 368 0L41 0M193 110L372 110Q466 110 533.50 148.50Q601 187 637 253Q673 319 673 403Q673 460 648 502Q623 544 573.50 567Q524 590 450 590L289 590L193 110Z"  horiz-adv-x="1358" vert-adv-y="1000"  />

      
      <glyph glyph-name="uni45" unicode="&#x45;" d="M242 409L591 409L570 302L221 302L242 409M192 109L588 109L566 0L41 0L181 700L692 700L670 591L288 591L192 109Z"  horiz-adv-x="670" vert-adv-y="1000"  />

      
      <glyph glyph-name="unic9" unicode="&#xc9;" d="M242 409L591 409L570 302L221 302L242 409M192 109L588 109L566 0L41 0L181 700L692 700L670 591L288 591L192 109Z"  horiz-adv-x="670" vert-adv-y="1000"  />

      
      <glyph glyph-name="uni0114" unicode="&#x0114;" d="M242 409L591 409L570 302L221 302L242 409M192 109L588 109L566 0L41 0L181 700L692 700L670 591L288 591L192 109Z"  horiz-adv-x="670" vert-adv-y="1000"  />

      
      <glyph glyph-name="uni011A" unicode="&#x011A;" d="M242 409L591 409L570 302L221 302L242 409M192 109L588 109L566 0L41 0L181 700L692 700L670 591L288 591L192 109Z"  horiz-adv-x="670" vert-adv-y="1000"  />

      
      <glyph glyph-name="uni1E1C" unicode="&#x1E1C;" d="M242 409L591 409L570 302L221 302L242 409M192 109L588 109L566 0L41 0L181 700L692 700L670 591L288 591L192 109M237-228Q210-228 187-222.50Q164-217 146-207L176-148Q192-156 209-160Q226-164 245-164Q276-164 290-153Q304-142 304-126Q304-111 293-103Q282-95 257-95L226-95L272 7L340 7L316-49Q352-54 370-74Q388-94 388-123Q386-172 344.50-200Q303-228 237-228Z"  horiz-adv-x="670" vert-adv-y="1000"  />

      
      <glyph glyph-name="unica" unicode="&#xca;" d="M242 409L591 409L570 302L221 302L242 409M192 109L588 109L566 0L41 0L181 700L692 700L670 591L288 591L192 109Z"  horiz-adv-x="670" vert-adv-y="1000"  />

      
      <glyph glyph-name="uni1EBE" unicode="&#x1EBE;" d="M242 409L591 409L570 302L221 302L242 409M192 109L588 109L566 0L41 0L181 700L692 700L670 591L288 591L192 109Z"  horiz-adv-x="670" vert-adv-y="1000"  />

      
      <glyph glyph-name="uni1EC6" unicode="&#x1EC6;" d="M242 409L591 409L570 302L221 302L242 409M192 109L588 109L566 0L41 0L181 700L692 700L670 591L288 591L192 109M270-203Q246-203 230.50-188Q215-173 215-149Q215-121 235-102Q255-83 282-83Q305-83 321-97.50Q337-112 337-136Q337-166 318-184.50Q299-203 270-203Z"  horiz-adv-x="670" vert-adv-y="1000"  />

      
      <glyph glyph-name="uni1EC0" unicode="&#x1EC0;" d="M242 409L591 409L570 302L221 302L242 409M192 109L588 109L566 0L41 0L181 700L692 700L670 591L288 591L192 109Z"  horiz-adv-x="670" vert-adv-y="1000"  />

      
      <glyph glyph-name="uni1EC2" unicode="&#x1EC2;" d="M242 409L591 409L570 302L221 302L242 409M192 109L588 109L566 0L41 0L181 700L692 700L670 591L288 591L192 109Z"  horiz-adv-x="670" vert-adv-y="1000"  />

      
      <glyph glyph-name="uni1EC4" unicode="&#x1EC4;" d="M242 409L591 409L570 302L221 302L242 409M192 109L588 109L566 0L41 0L181 700L692 700L670 591L288 591L192 109Z"  horiz-adv-x="670" vert-adv-y="1000"  />

      
      <glyph glyph-name="uni0204" unicode="&#x0204;" d="M242 409L591 409L570 302L221 302L242 409M192 109L588 109L566 0L41 0L181 700L692 700L670 591L288 591L192 109Z"  horiz-adv-x="670" vert-adv-y="1000"  />

      
      <glyph glyph-name="unicb" unicode="&#xcb;" d="M242 409L591 409L570 302L221 302L242 409M192 109L588 109L566 0L41 0L181 700L692 700L670 591L288 591L192 109Z"  horiz-adv-x="670" vert-adv-y="1000"  />

      
      <glyph glyph-name="uni0116" unicode="&#x0116;" d="M242 409L591 409L570 302L221 302L242 409M192 109L588 109L566 0L41 0L181 700L692 700L670 591L288 591L192 109Z"  horiz-adv-x="670" vert-adv-y="1000"  />

      
      <glyph glyph-name="uni1EB8" unicode="&#x1EB8;" d="M242 409L591 409L570 302L221 302L242 409M192 109L588 109L566 0L41 0L181 700L692 700L670 591L288 591L192 109M270-203Q246-203 230.50-188Q215-173 215-149Q215-121 235-102Q255-83 282-83Q305-83 321-97.50Q337-112 337-136Q337-166 318-184.50Q299-203 270-203Z"  horiz-adv-x="670" vert-adv-y="1000"  />

      
      <glyph glyph-name="unic8" unicode="&#xc8;" d="M242 409L591 409L570 302L221 302L242 409M192 109L588 109L566 0L41 0L181 700L692 700L670 591L288 591L192 109Z"  horiz-adv-x="670" vert-adv-y="1000"  />

      
      <glyph glyph-name="uni1EBA" unicode="&#x1EBA;" d="M242 409L591 409L570 302L221 302L242 409M192 109L588 109L566 0L41 0L181 700L692 700L670 591L288 591L192 109Z"  horiz-adv-x="670" vert-adv-y="1000"  />

      
      <glyph glyph-name="uni0206" unicode="&#x0206;" d="M242 409L591 409L570 302L221 302L242 409M192 109L588 109L566 0L41 0L181 700L692 700L670 591L288 591L192 109Z"  horiz-adv-x="670" vert-adv-y="1000"  />

      
      <glyph glyph-name="uni0112" unicode="&#x0112;" d="M242 409L591 409L570 302L221 302L242 409M192 109L588 109L566 0L41 0L181 700L692 700L670 591L288 591L192 109Z"  horiz-adv-x="670" vert-adv-y="1000"  />

      
      <glyph glyph-name="uni1E16" unicode="&#x1E16;" d="M242 409L591 409L570 302L221 302L242 409M192 109L588 109L566 0L41 0L181 700L692 700L670 591L288 591L192 109Z"  horiz-adv-x="670" vert-adv-y="1000"  />

      
      <glyph glyph-name="uni1E14" unicode="&#x1E14;" d="M242 409L591 409L570 302L221 302L242 409M192 109L588 109L566 0L41 0L181 700L692 700L670 591L288 591L192 109Z"  horiz-adv-x="670" vert-adv-y="1000"  />

      
      <glyph glyph-name="uni0118" unicode="&#x0118;" d="M242 409L591 409L570 302L221 302L242 409M192 109L588 109L566 0L41 0L181 700L692 700L670 591L288 591L192 109M455-228Q403-228 370.50-203.50Q338-179 338-134Q338-97 359-65.50Q380-34 419.50-7.50Q459 19 514 40L566 0Q519-17 487.50-36.50Q456-56 440.50-76Q425-96 425-117Q425-138 439-149Q453-160 474-160Q491-160 508.50-155.50Q526-151 540-144L552-205Q532-215 508-221.50Q484-228 455-228Z"  horiz-adv-x="670" vert-adv-y="1000"  />

      
      <glyph glyph-name="uni1EBC" unicode="&#x1EBC;" d="M242 409L591 409L570 302L221 302L242 409M192 109L588 109L566 0L41 0L181 700L692 700L670 591L288 591L192 109Z"  horiz-adv-x="670" vert-adv-y="1000"  />

      
      <glyph glyph-name="uni01B7" unicode="&#x01B7;" d="M242-10Q164-10 98 12.50Q32 35-9 74L56 173Q88 142 138.50 122.50Q189 103 250 103Q305 103 343 117.50Q381 132 401.50 159Q422 186 422 223Q422 268 388.50 290.50Q355 313 287 313L223 313L241 402L486 639L499 591L121 591L143 700L619 700L603 613L357 375L294 414L323 414Q396 414 447 392Q498 370 525.50 328.50Q553 287 553 230Q553 161 514 106.50Q475 52 404.50 21Q334-10 242-10Z"  horiz-adv-x="609" vert-adv-y="1000"  />

      
      <glyph glyph-name="uni01EE" unicode="&#x01EE;" d="M242-10Q164-10 98 12.50Q32 35-9 74L56 173Q88 142 138.50 122.50Q189 103 250 103Q305 103 343 117.50Q381 132 401.50 159Q422 186 422 223Q422 268 388.50 290.50Q355 313 287 313L223 313L241 402L486 639L499 591L121 591L143 700L619 700L603 613L357 375L294 414L323 414Q396 414 447 392Q498 370 525.50 328.50Q553 287 553 230Q553 161 514 106.50Q475 52 404.50 21Q334-10 242-10Z"  horiz-adv-x="609" vert-adv-y="1000"  />

      
      <glyph glyph-name="uni46" unicode="&#x46;" d="M236 378L585 378L563 268L214 268L236 378M171 0L41 0L181 700L692 700L670 591L289 591L171 0Z"  horiz-adv-x="637" vert-adv-y="1000"  />

      
      <glyph glyph-name="uni47" unicode="&#x47;" d="M396-10Q291-10 215 28Q139 66 97.50 133.50Q56 201 56 289Q56 378 86.50 454.50Q117 531 174 588Q231 645 311.50 677.50Q392 710 491 710Q587 710 658 680Q729 650 772 595L678 517Q643 559 595.50 577.50Q548 596 485 596Q417 596 362 573.50Q307 551 268 510Q229 469 208 414.50Q187 360 187 297Q187 240 212 196Q237 152 287 128Q337 104 411 104Q466 104 514.50 122.50Q563 141 606 178L657 76Q605 35 536.50 12.50Q468-10 396-10M539 96L591 358L714 358L657 76L539 96Z"  horiz-adv-x="772" vert-adv-y="1000"  />

      
      <glyph glyph-name="uni011E" unicode="&#x011E;" d="M396-10Q291-10 215 28Q139 66 97.50 133.50Q56 201 56 289Q56 378 86.50 454.50Q117 531 174 588Q231 645 311.50 677.50Q392 710 491 710Q587 710 658 680Q729 650 772 595L678 517Q643 559 595.50 577.50Q548 596 485 596Q417 596 362 573.50Q307 551 268 510Q229 469 208 414.50Q187 360 187 297Q187 240 212 196Q237 152 287 128Q337 104 411 104Q466 104 514.50 122.50Q563 141 606 178L657 76Q605 35 536.50 12.50Q468-10 396-10M539 96L591 358L714 358L657 76L539 96Z"  horiz-adv-x="772" vert-adv-y="1000"  />

      
      <glyph glyph-name="uni01E6" unicode="&#x01E6;" d="M396-10Q291-10 215 28Q139 66 97.50 133.50Q56 201 56 289Q56 378 86.50 454.50Q117 531 174 588Q231 645 311.50 677.50Q392 710 491 710Q587 710 658 680Q729 650 772 595L678 517Q643 559 595.50 577.50Q548 596 485 596Q417 596 362 573.50Q307 551 268 510Q229 469 208 414.50Q187 360 187 297Q187 240 212 196Q237 152 287 128Q337 104 411 104Q466 104 514.50 122.50Q563 141 606 178L657 76Q605 35 536.50 12.50Q468-10 396-10M539 96L591 358L714 358L657 76L539 96Z"  horiz-adv-x="772" vert-adv-y="1000"  />

      
      <glyph glyph-name="uni011C" unicode="&#x011C;" d="M396-10Q291-10 215 28Q139 66 97.50 133.50Q56 201 56 289Q56 378 86.50 454.50Q117 531 174 588Q231 645 311.50 677.50Q392 710 491 710Q587 710 658 680Q729 650 772 595L678 517Q643 559 595.50 577.50Q548 596 485 596Q417 596 362 573.50Q307 551 268 510Q229 469 208 414.50Q187 360 187 297Q187 240 212 196Q237 152 287 128Q337 104 411 104Q466 104 514.50 122.50Q563 141 606 178L657 76Q605 35 536.50 12.50Q468-10 396-10M539 96L591 358L714 358L657 76L539 96Z"  horiz-adv-x="772" vert-adv-y="1000"  />

      
      <glyph glyph-name="uni0122" unicode="&#x0122;" d="M396-10Q291-10 215 28Q139 66 97.50 133.50Q56 201 56 289Q56 378 86.50 454.50Q117 531 174 588Q231 645 311.50 677.50Q392 710 491 710Q587 710 658 680Q729 650 772 595L678 517Q643 559 595.50 577.50Q548 596 485 596Q417 596 362 573.50Q307 551 268 510Q229 469 208 414.50Q187 360 187 297Q187 240 212 196Q237 152 287 128Q337 104 411 104Q466 104 514.50 122.50Q563 141 606 178L657 76Q605 35 536.50 12.50Q468-10 396-10M539 96L591 358L714 358L657 76L539 96M254-265L312-143L320-188Q294-188 279.50-175Q265-162 265-143Q265-117 281-100Q297-83 328-83Q357-83 371.50-97Q386-111 386-131Q386-145 380.50-158Q375-171 359-194L313-265L254-265Z"  horiz-adv-x="772" vert-adv-y="1000"  />

      
      <glyph glyph-name="uni0120" unicode="&#x0120;" d="M396-10Q291-10 215 28Q139 66 97.50 133.50Q56 201 56 289Q56 378 86.50 454.50Q117 531 174 588Q231 645 311.50 677.50Q392 710 491 710Q587 710 658 680Q729 650 772 595L678 517Q643 559 595.50 577.50Q548 596 485 596Q417 596 362 573.50Q307 551 268 510Q229 469 208 414.50Q187 360 187 297Q187 240 212 196Q237 152 287 128Q337 104 411 104Q466 104 514.50 122.50Q563 141 606 178L657 76Q605 35 536.50 12.50Q468-10 396-10M539 96L591 358L714 358L657 76L539 96Z"  horiz-adv-x="772" vert-adv-y="1000"  />

      
      <glyph glyph-name="uni1E20" unicode="&#x1E20;" d="M396-10Q291-10 215 28Q139 66 97.50 133.50Q56 201 56 289Q56 378 86.50 454.50Q117 531 174 588Q231 645 311.50 677.50Q392 710 491 710Q587 710 658 680Q729 650 772 595L678 517Q643 559 595.50 577.50Q548 596 485 596Q417 596 362 573.50Q307 551 268 510Q229 469 208 414.50Q187 360 187 297Q187 240 212 196Q237 152 287 128Q337 104 411 104Q466 104 514.50 122.50Q563 141 606 178L657 76Q605 35 536.50 12.50Q468-10 396-10M539 96L591 358L714 358L657 76L539 96Z"  horiz-adv-x="772" vert-adv-y="1000"  />

      
      <glyph glyph-name="uni01E4" unicode="&#x01E4;" d="M384 195L402 290L793 290L774 195L384 195M396-10Q291-10 215 28Q139 66 97.50 133.50Q56 201 56 289Q56 378 86.50 454.50Q117 531 174 588Q231 645 311.50 677.50Q392 710 491 710Q587 710 658 680Q729 650 772 595L678 517Q643 559 595.50 577.50Q548 596 485 596Q417 596 362 573.50Q307 551 268 510Q229 469 208 414.50Q187 360 187 297Q187 240 212 196Q237 152 287 128Q337 104 411 104Q466 104 514.50 122.50Q563 141 606 178L657 76Q605 35 536.50 12.50Q468-10 396-10M539 96L591 358L714 358L657 76L539 96Z"  horiz-adv-x="809" vert-adv-y="1000"  />

      
      <glyph glyph-name="uni48" unicode="&#x48;" d="M673 700L802 700L662 0L533 0L673 700M171 0L41 0L181 700L311 700L171 0M603 300L222 300L243 411L626 411L603 300Z"  horiz-adv-x="810" vert-adv-y="1000"  />

      
      <glyph glyph-name="uni0126" unicode="&#x0126;" d="M683 700L812 700L672 0L543 0L683 700M181 0L51 0L191 700L321 700L181 0M613 300L232 300L253 411L636 411L613 300M54 510L72 606L892 606L875 510L54 510Z"  horiz-adv-x="831" vert-adv-y="1000"  />

      
      <glyph glyph-name="uni1E2A" unicode="&#x1E2A;" d="M673 700L802 700L662 0L533 0L673 700M171 0L41 0L181 700L311 700L171 0M603 300L222 300L243 411L626 411L603 300M322-213Q273-213 235.50-195.50Q198-178 178.50-147Q159-116 162-77L242-77Q241-110 263.50-129Q286-148 325-148Q364-148 391-129.50Q418-111 424-77L508-77Q497-142 444.50-177.50Q392-213 322-213Z"  horiz-adv-x="810" vert-adv-y="1000"  />

      
      <glyph glyph-name="uni021E" unicode="&#x021E;" d="M673 700L802 700L662 0L533 0L673 700M171 0L41 0L181 700L311 700L171 0M603 300L222 300L243 411L626 411L603 300Z"  horiz-adv-x="810" vert-adv-y="1000"  />

      
      <glyph glyph-name="uni0124" unicode="&#x0124;" d="M673 700L802 700L662 0L533 0L673 700M171 0L41 0L181 700L311 700L171 0M603 300L222 300L243 411L626 411L603 300Z"  horiz-adv-x="810" vert-adv-y="1000"  />

      
      <glyph glyph-name="uni1E24" unicode="&#x1E24;" d="M673 700L802 700L662 0L533 0L673 700M171 0L41 0L181 700L311 700L171 0M603 300L222 300L243 411L626 411L603 300M316-203Q292-203 276.50-188Q261-173 261-149Q261-121 281-102Q301-83 328-83Q351-83 367-97.50Q383-112 383-136Q383-166 364-184.50Q345-203 316-203Z"  horiz-adv-x="810" vert-adv-y="1000"  />

      
      <glyph glyph-name="uni49" unicode="&#x49;" d="M41 0L181 700L311 700L171 0L41 0Z"  horiz-adv-x="319" vert-adv-y="1000"  />

      
      <glyph glyph-name="uni0132" unicode="&#x0132;" d="M296-10Q212-10 146.50 10.50Q81 31 36 65L100 167Q144 135 195.50 119Q247 103 304 103Q391 103 440.50 150.50Q490 198 511 304L590 700L719 700L640 298Q608 141 523 65.50Q438-10 296-10M98 315L175 700L305 700L228 315L98 315Z"  horiz-adv-x="722" vert-adv-y="1000"  />

      
      <glyph glyph-name="unicd" unicode="&#xcd;" d="M41 0L181 700L311 700L171 0L41 0Z"  horiz-adv-x="319" vert-adv-y="1000"  />

      
      <glyph glyph-name="uni012C" unicode="&#x012C;" d="M41 0L181 700L311 700L171 0L41 0Z"  horiz-adv-x="319" vert-adv-y="1000"  />

      
      <glyph glyph-name="unice" unicode="&#xce;" d="M41 0L181 700L311 700L171 0L41 0Z"  horiz-adv-x="319" vert-adv-y="1000"  />

      
      <glyph glyph-name="uni0208" unicode="&#x0208;" d="M41 0L181 700L311 700L171 0L41 0Z"  horiz-adv-x="319" vert-adv-y="1000"  />

      
      <glyph glyph-name="unicf" unicode="&#xcf;" d="M41 0L181 700L311 700L171 0L41 0Z"  horiz-adv-x="319" vert-adv-y="1000"  />

      
      <glyph glyph-name="uni1E2E" unicode="&#x1E2E;" d="M41 0L181 700L311 700L171 0L41 0Z"  horiz-adv-x="319" vert-adv-y="1000"  />

      
      <glyph glyph-name="uni0130" unicode="&#x0130;" d="M41 0L181 700L311 700L171 0L41 0Z"  horiz-adv-x="319" vert-adv-y="1000"  />

      
      <glyph glyph-name="uni1ECA" unicode="&#x1ECA;" d="M41 0L181 700L311 700L171 0L41 0M71-203Q47-203 31.50-188Q16-173 16-149Q16-121 36-102Q56-83 83-83Q106-83 122-97.50Q138-112 138-136Q138-166 119-184.50Q100-203 71-203Z"  horiz-adv-x="319" vert-adv-y="1000"  />

      
      <glyph glyph-name="unicc" unicode="&#xcc;" d="M41 0L181 700L311 700L171 0L41 0Z"  horiz-adv-x="319" vert-adv-y="1000"  />

      
      <glyph glyph-name="uni1EC8" unicode="&#x1EC8;" d="M41 0L181 700L311 700L171 0L41 0Z"  horiz-adv-x="319" vert-adv-y="1000"  />

      
      <glyph glyph-name="uni020A" unicode="&#x020A;" d="M41 0L181 700L311 700L171 0L41 0Z"  horiz-adv-x="319" vert-adv-y="1000"  />

      
      <glyph glyph-name="uni012A" unicode="&#x012A;" d="M41 0L181 700L311 700L171 0L41 0Z"  horiz-adv-x="319" vert-adv-y="1000"  />

      
      <glyph glyph-name="uni012E" unicode="&#x012E;" d="M41 0L181 700L311 700L171 0L41 0M99-228Q50-228 24.50-202Q-1-176-1-138Q-1-82 37.50-38Q76 6 134 38L171 0Q128-31 107-63.50Q86-96 86-124Q86-140 95.50-150Q105-160 121-160Q129-160 137.50-157.50Q146-155 156-151L165-211Q154-219 136.50-223.50Q119-228 99-228Z"  horiz-adv-x="319" vert-adv-y="1000"  />

      
      <glyph glyph-name="uni0128" unicode="&#x0128;" d="M41 0L181 700L311 700L171 0L41 0Z"  horiz-adv-x="319" vert-adv-y="1000"  />

      
      <glyph glyph-name="uni4a" unicode="&#x4a;" d="M171-10Q95-10 39.50 17Q-16 44-45 94L42 178Q63 141 96 120.50Q129 100 173 100Q224 100 257 129Q290 158 302 222L376 591L126 591L148 700L525 700L431 229Q414 141 379.50 88.50Q345 36 293 13Q241-10 171-10Z"  horiz-adv-x="527" vert-adv-y="1000"  />

      
      <glyph glyph-name="uni0134" unicode="&#x0134;" d="M171-10Q95-10 39.50 17Q-16 44-45 94L42 178Q63 141 96 120.50Q129 100 173 100Q224 100 257 129Q290 158 302 222L376 591L126 591L148 700L525 700L431 229Q414 141 379.50 88.50Q345 36 293 13Q241-10 171-10Z"  horiz-adv-x="527" vert-adv-y="1000"  />

      
      <glyph glyph-name="uni4b" unicode="&#x4b;" d="M193 168L210 321L646 700L810 700L436 375L352 306L193 168M41 0L181 700L310 700L170 0L41 0M538 0L323 319L412 407L683 0L538 0Z"  horiz-adv-x="729" vert-adv-y="1000"  />

      
      <glyph glyph-name="uni01E8" unicode="&#x01E8;" d="M193 168L210 321L646 700L810 700L436 375L352 306L193 168M41 0L181 700L310 700L170 0L41 0M538 0L323 319L412 407L683 0L538 0Z"  horiz-adv-x="729" vert-adv-y="1000"  />

      
      <glyph glyph-name="uni0136" unicode="&#x0136;" d="M193 168L210 321L646 700L810 700L436 375L352 306L193 168M41 0L181 700L310 700L170 0L41 0M538 0L323 319L412 407L683 0L538 0M225-265L283-143L291-188Q265-188 250.50-175Q236-162 236-143Q236-117 252-100Q268-83 299-83Q328-83 342.50-97Q357-111 357-131Q357-145 351.50-158Q346-171 330-194L284-265L225-265Z"  horiz-adv-x="729" vert-adv-y="1000"  />

      
      <glyph glyph-name="uni4c" unicode="&#x4c;" d="M41 0L181 700L311 700L193 110L559 110L537 0L41 0Z"  horiz-adv-x="599" vert-adv-y="1000"  />

      
      <glyph glyph-name="uni01C7" unicode="&#x01C7;" d="M41 0L181 700L311 700L193 110L559 110L537 0L41 0M770-10Q694-10 638.50 17Q583 44 554 94L641 178Q662 141 695 120.50Q728 100 772 100Q823 100 856 129Q889 158 901 222L975 591L725 591L747 700L1124 700L1030 229Q1013 141 978.50 88.50Q944 36 892 13Q840-10 770-10Z"  horiz-adv-x="1126" vert-adv-y="1000"  />

      
      <glyph glyph-name="uni0139" unicode="&#x0139;" d="M41 0L181 700L311 700L193 110L559 110L537 0L41 0Z"  horiz-adv-x="599" vert-adv-y="1000"  />

      
      <glyph glyph-name="uni013D" unicode="&#x013D;" d="M41 0L181 700L311 700L193 110L559 110L537 0L41 0M490 540L529 737L628 737L573 540L490 540Z"  horiz-adv-x="599" vert-adv-y="1000"  />

      
      <glyph glyph-name="uni013B" unicode="&#x013B;" d="M41 0L181 700L311 700L193 110L559 110L537 0L41 0M202-265L260-143L268-188Q242-188 227.50-175Q213-162 213-143Q213-117 229-100Q245-83 276-83Q305-83 319.50-97Q334-111 334-131Q334-145 328.50-158Q323-171 307-194L261-265L202-265Z"  horiz-adv-x="599" vert-adv-y="1000"  />

      
      <glyph glyph-name="uni013F" unicode="&#x013F;" d="M41 0L181 700L311 700L193 110L559 110L537 0L41 0M483 330Q453 330 433 350Q413 370 413 399Q413 435 436.50 457.50Q460 480 491 480Q519 480 539 460.50Q559 441 559 410Q559 375 536 352.50Q513 330 483 330Z"  horiz-adv-x="599" vert-adv-y="1000"  />

      
      <glyph glyph-name="uni1E36" unicode="&#x1E36;" d="M41 0L181 700L311 700L193 110L559 110L537 0L41 0M266-203Q242-203 226.50-188Q211-173 211-149Q211-121 231-102Q251-83 278-83Q301-83 317-97.50Q333-112 333-136Q333-166 314-184.50Q295-203 266-203Z"  horiz-adv-x="599" vert-adv-y="1000"  />

      
      <glyph glyph-name="uni01C8" unicode="&#x01C8;" d="M41 0L181 700L311 700L193 110L559 110L537 0L41 0Z"  horiz-adv-x="893" vert-adv-y="1000"  />

      
      <glyph glyph-name="uni1E3A" unicode="&#x1E3A;" d="M41 0L181 700L311 700L193 110L559 110L537 0L41 0M92-178L105-104L453-104L440-178L92-178Z"  horiz-adv-x="599" vert-adv-y="1000"  />

      
      <glyph glyph-name="uni0141" unicode="&#x0141;" d="M51 0L191 700L321 700L203 110L569 110L547 0L51 0M48 231L-2 306L394 567L444 493L48 231Z"  horiz-adv-x="609" vert-adv-y="1000"  />

      
      <glyph glyph-name="uni4d" unicode="&#x4d;" d="M41 0L181 700L287 700L491 187L436 188L835 700L947 700L807 0L684 0L785 510L814 509L476 80L418 80L241 510L266 507L165 0L41 0Z"  horiz-adv-x="955" vert-adv-y="1000"  />

      
      <glyph glyph-name="uni1E42" unicode="&#x1E42;" d="M41 0L181 700L287 700L491 187L436 188L835 700L947 700L807 0L684 0L785 510L814 509L476 80L418 80L241 510L266 507L165 0L41 0M390-203Q366-203 350.50-188Q335-173 335-149Q335-121 355-102Q375-83 402-83Q425-83 441-97.50Q457-112 457-136Q457-166 438-184.50Q419-203 390-203Z"  horiz-adv-x="955" vert-adv-y="1000"  />

      
      <glyph glyph-name="uni4e" unicode="&#x4e;" d="M41 0L181 700L288 700L607 157L566 162L673 700L802 700L662 0L555 0L237 543L278 538L170 0L41 0Z"  horiz-adv-x="810" vert-adv-y="1000"  />

      
      <glyph glyph-name="uni01CA" unicode="&#x01CA;" d="M41 0L181 700L288 700L607 157L566 162L673 700L802 700L662 0L555 0L237 543L278 538L170 0L41 0M981-10Q905-10 849.50 17Q794 44 765 94L852 178Q873 141 906 120.50Q939 100 983 100Q1034 100 1067 129Q1100 158 1112 222L1186 591L936 591L958 700L1335 700L1241 229Q1224 141 1189.50 88.50Q1155 36 1103 13Q1051-10 981-10Z"  horiz-adv-x="1337" vert-adv-y="1000"  />

      
      <glyph glyph-name="uni0143" unicode="&#x0143;" d="M41 0L181 700L288 700L607 157L566 162L673 700L802 700L662 0L555 0L237 543L278 538L170 0L41 0Z"  horiz-adv-x="810" vert-adv-y="1000"  />

      
      <glyph glyph-name="uni0147" unicode="&#x0147;" d="M41 0L181 700L288 700L607 157L566 162L673 700L802 700L662 0L555 0L237 543L278 538L170 0L41 0Z"  horiz-adv-x="810" vert-adv-y="1000"  />

      
      <glyph glyph-name="uni0145" unicode="&#x0145;" d="M41 0L181 700L288 700L607 157L566 162L673 700L802 700L662 0L555 0L237 543L278 538L170 0L41 0M253-265L311-143L319-188Q293-188 278.50-175Q264-162 264-143Q264-117 280-100Q296-83 327-83Q356-83 370.50-97Q385-111 385-131Q385-145 379.50-158Q374-171 358-194L312-265L253-265Z"  horiz-adv-x="810" vert-adv-y="1000"  />

      
      <glyph glyph-name="uni1E44" unicode="&#x1E44;" d="M41 0L181 700L288 700L607 157L566 162L673 700L802 700L662 0L555 0L237 543L278 538L170 0L41 0Z"  horiz-adv-x="810" vert-adv-y="1000"  />

      
      <glyph glyph-name="uni1E46" unicode="&#x1E46;" d="M41 0L181 700L288 700L607 157L566 162L673 700L802 700L662 0L555 0L237 543L278 538L170 0L41 0M317-203Q293-203 277.50-188Q262-173 262-149Q262-121 282-102Q302-83 329-83Q352-83 368-97.50Q384-112 384-136Q384-166 365-184.50Q346-203 317-203Z"  horiz-adv-x="810" vert-adv-y="1000"  />

      
      <glyph glyph-name="uni014A" unicode="&#x014A;" d="M41 0L181 700L288 700L607 157L555 0L237 543L278 538L170 0L41 0M410-201Q355-201 304.50-180.50Q254-160 227-125L298-37Q318-62 347.50-76.50Q377-91 414-91Q465-91 496-63.50Q527-36 539 30L673 700L802 700L673 53Q653-45 617.50-100.50Q582-156 530.50-178.50Q479-201 410-201Z"  horiz-adv-x="810" vert-adv-y="1000"  />

      
      <glyph glyph-name="uni01CB" unicode="&#x01CB;" d="M41 0L181 700L288 700L607 157L566 162L673 700L802 700L662 0L555 0L237 543L278 538L170 0L41 0Z"  horiz-adv-x="1105" vert-adv-y="1000"  />

      
      <glyph glyph-name="uni1E48" unicode="&#x1E48;" d="M41 0L181 700L288 700L607 157L566 162L673 700L802 700L662 0L555 0L237 543L278 538L170 0L41 0M143-178L156-104L504-104L491-178L143-178Z"  horiz-adv-x="810" vert-adv-y="1000"  />

      
      <glyph glyph-name="unid1" unicode="&#xd1;" d="M41 0L181 700L288 700L607 157L566 162L673 700L802 700L662 0L555 0L237 543L278 538L170 0L41 0Z"  horiz-adv-x="810" vert-adv-y="1000"  />

      
      <glyph glyph-name="uni4f" unicode="&#x4f;" d="M391-10Q285-10 210 28Q135 66 95.50 133.50Q56 201 56 289Q56 378 86 454.50Q116 531 173 588Q230 645 309 677.50Q388 710 485 710Q590 710 665 672Q740 634 780 566.50Q820 499 820 411Q820 322 789.50 245.50Q759 169 702 112Q645 55 566.50 22.50Q488-10 391-10M402 104Q468 104 521 127.50Q574 151 611.50 192.50Q649 234 669 288.50Q689 343 689 403Q689 460 664 504Q639 548 591 572Q543 596 473 596Q408 596 354.50 572.50Q301 549 263.50 507.50Q226 466 206.50 411.50Q187 357 187 297Q187 240 211.50 196Q236 152 284 128Q332 104 402 104Z"  horiz-adv-x="842" vert-adv-y="1000"  />

      
      <glyph glyph-name="unid3" unicode="&#xd3;" d="M391-10Q285-10 210 28Q135 66 95.50 133.50Q56 201 56 289Q56 378 86 454.50Q116 531 173 588Q230 645 309 677.50Q388 710 485 710Q590 710 665 672Q740 634 780 566.50Q820 499 820 411Q820 322 789.50 245.50Q759 169 702 112Q645 55 566.50 22.50Q488-10 391-10M402 104Q468 104 521 127.50Q574 151 611.50 192.50Q649 234 669 288.50Q689 343 689 403Q689 460 664 504Q639 548 591 572Q543 596 473 596Q408 596 354.50 572.50Q301 549 263.50 507.50Q226 466 206.50 411.50Q187 357 187 297Q187 240 211.50 196Q236 152 284 128Q332 104 402 104Z"  horiz-adv-x="842" vert-adv-y="1000"  />

      
      <glyph glyph-name="uni014E" unicode="&#x014E;" d="M391-10Q285-10 210 28Q135 66 95.50 133.50Q56 201 56 289Q56 378 86 454.50Q116 531 173 588Q230 645 309 677.50Q388 710 485 710Q590 710 665 672Q740 634 780 566.50Q820 499 820 411Q820 322 789.50 245.50Q759 169 702 112Q645 55 566.50 22.50Q488-10 391-10M402 104Q468 104 521 127.50Q574 151 611.50 192.50Q649 234 669 288.50Q689 343 689 403Q689 460 664 504Q639 548 591 572Q543 596 473 596Q408 596 354.50 572.50Q301 549 263.50 507.50Q226 466 206.50 411.50Q187 357 187 297Q187 240 211.50 196Q236 152 284 128Q332 104 402 104Z"  horiz-adv-x="842" vert-adv-y="1000"  />

      
      <glyph glyph-name="unid4" unicode="&#xd4;" d="M391-10Q285-10 210 28Q135 66 95.50 133.50Q56 201 56 289Q56 378 86 454.50Q116 531 173 588Q230 645 309 677.50Q388 710 485 710Q590 710 665 672Q740 634 780 566.50Q820 499 820 411Q820 322 789.50 245.50Q759 169 702 112Q645 55 566.50 22.50Q488-10 391-10M402 104Q468 104 521 127.50Q574 151 611.50 192.50Q649 234 669 288.50Q689 343 689 403Q689 460 664 504Q639 548 591 572Q543 596 473 596Q408 596 354.50 572.50Q301 549 263.50 507.50Q226 466 206.50 411.50Q187 357 187 297Q187 240 211.50 196Q236 152 284 128Q332 104 402 104Z"  horiz-adv-x="842" vert-adv-y="1000"  />

      
      <glyph glyph-name="uni1ED0" unicode="&#x1ED0;" d="M391-10Q285-10 210 28Q135 66 95.50 133.50Q56 201 56 289Q56 378 86 454.50Q116 531 173 588Q230 645 309 677.50Q388 710 485 710Q590 710 665 672Q740 634 780 566.50Q820 499 820 411Q820 322 789.50 245.50Q759 169 702 112Q645 55 566.50 22.50Q488-10 391-10M402 104Q468 104 521 127.50Q574 151 611.50 192.50Q649 234 669 288.50Q689 343 689 403Q689 460 664 504Q639 548 591 572Q543 596 473 596Q408 596 354.50 572.50Q301 549 263.50 507.50Q226 466 206.50 411.50Q187 357 187 297Q187 240 211.50 196Q236 152 284 128Q332 104 402 104Z"  horiz-adv-x="842" vert-adv-y="1000"  />

      
      <glyph glyph-name="uni1ED8" unicode="&#x1ED8;" d="M391-10Q285-10 210 28Q135 66 95.50 133.50Q56 201 56 289Q56 378 86 454.50Q116 531 173 588Q230 645 309 677.50Q388 710 485 710Q590 710 665 672Q740 634 780 566.50Q820 499 820 411Q820 322 789.50 245.50Q759 169 702 112Q645 55 566.50 22.50Q488-10 391-10M402 104Q468 104 521 127.50Q574 151 611.50 192.50Q649 234 669 288.50Q689 343 689 403Q689 460 664 504Q639 548 591 572Q543 596 473 596Q408 596 354.50 572.50Q301 549 263.50 507.50Q226 466 206.50 411.50Q187 357 187 297Q187 240 211.50 196Q236 152 284 128Q332 104 402 104M332-203Q308-203 292.50-188Q277-173 277-149Q277-121 297-102Q317-83 344-83Q367-83 383-97.50Q399-112 399-136Q399-166 380-184.50Q361-203 332-203Z"  horiz-adv-x="842" vert-adv-y="1000"  />

      
      <glyph glyph-name="uni1ED2" unicode="&#x1ED2;" d="M391-10Q285-10 210 28Q135 66 95.50 133.50Q56 201 56 289Q56 378 86 454.50Q116 531 173 588Q230 645 309 677.50Q388 710 485 710Q590 710 665 672Q740 634 780 566.50Q820 499 820 411Q820 322 789.50 245.50Q759 169 702 112Q645 55 566.50 22.50Q488-10 391-10M402 104Q468 104 521 127.50Q574 151 611.50 192.50Q649 234 669 288.50Q689 343 689 403Q689 460 664 504Q639 548 591 572Q543 596 473 596Q408 596 354.50 572.50Q301 549 263.50 507.50Q226 466 206.50 411.50Q187 357 187 297Q187 240 211.50 196Q236 152 284 128Q332 104 402 104Z"  horiz-adv-x="842" vert-adv-y="1000"  />

      
      <glyph glyph-name="uni1ED4" unicode="&#x1ED4;" d="M391-10Q285-10 210 28Q135 66 95.50 133.50Q56 201 56 289Q56 378 86 454.50Q116 531 173 588Q230 645 309 677.50Q388 710 485 710Q590 710 665 672Q740 634 780 566.50Q820 499 820 411Q820 322 789.50 245.50Q759 169 702 112Q645 55 566.50 22.50Q488-10 391-10M402 104Q468 104 521 127.50Q574 151 611.50 192.50Q649 234 669 288.50Q689 343 689 403Q689 460 664 504Q639 548 591 572Q543 596 473 596Q408 596 354.50 572.50Q301 549 263.50 507.50Q226 466 206.50 411.50Q187 357 187 297Q187 240 211.50 196Q236 152 284 128Q332 104 402 104Z"  horiz-adv-x="842" vert-adv-y="1000"  />

      
      <glyph glyph-name="uni1ED6" unicode="&#x1ED6;" d="M391-10Q285-10 210 28Q135 66 95.50 133.50Q56 201 56 289Q56 378 86 454.50Q116 531 173 588Q230 645 309 677.50Q388 710 485 710Q590 710 665 672Q740 634 780 566.50Q820 499 820 411Q820 322 789.50 245.50Q759 169 702 112Q645 55 566.50 22.50Q488-10 391-10M402 104Q468 104 521 127.50Q574 151 611.50 192.50Q649 234 669 288.50Q689 343 689 403Q689 460 664 504Q639 548 591 572Q543 596 473 596Q408 596 354.50 572.50Q301 549 263.50 507.50Q226 466 206.50 411.50Q187 357 187 297Q187 240 211.50 196Q236 152 284 128Q332 104 402 104Z"  horiz-adv-x="842" vert-adv-y="1000"  />

      
      <glyph glyph-name="uni020C" unicode="&#x020C;" d="M391-10Q285-10 210 28Q135 66 95.50 133.50Q56 201 56 289Q56 378 86 454.50Q116 531 173 588Q230 645 309 677.50Q388 710 485 710Q590 710 665 672Q740 634 780 566.50Q820 499 820 411Q820 322 789.50 245.50Q759 169 702 112Q645 55 566.50 22.50Q488-10 391-10M402 104Q468 104 521 127.50Q574 151 611.50 192.50Q649 234 669 288.50Q689 343 689 403Q689 460 664 504Q639 548 591 572Q543 596 473 596Q408 596 354.50 572.50Q301 549 263.50 507.50Q226 466 206.50 411.50Q187 357 187 297Q187 240 211.50 196Q236 152 284 128Q332 104 402 104Z"  horiz-adv-x="842" vert-adv-y="1000"  />

      
      <glyph glyph-name="unid6" unicode="&#xd6;" d="M391-10Q285-10 210 28Q135 66 95.50 133.50Q56 201 56 289Q56 378 86 454.50Q116 531 173 588Q230 645 309 677.50Q388 710 485 710Q590 710 665 672Q740 634 780 566.50Q820 499 820 411Q820 322 789.50 245.50Q759 169 702 112Q645 55 566.50 22.50Q488-10 391-10M402 104Q468 104 521 127.50Q574 151 611.50 192.50Q649 234 669 288.50Q689 343 689 403Q689 460 664 504Q639 548 591 572Q543 596 473 596Q408 596 354.50 572.50Q301 549 263.50 507.50Q226 466 206.50 411.50Q187 357 187 297Q187 240 211.50 196Q236 152 284 128Q332 104 402 104Z"  horiz-adv-x="842" vert-adv-y="1000"  />

      
      <glyph glyph-name="uni022A" unicode="&#x022A;" d="M391-10Q285-10 210 28Q135 66 95.50 133.50Q56 201 56 289Q56 378 86 454.50Q116 531 173 588Q230 645 309 677.50Q388 710 485 710Q590 710 665 672Q740 634 780 566.50Q820 499 820 411Q820 322 789.50 245.50Q759 169 702 112Q645 55 566.50 22.50Q488-10 391-10M402 104Q468 104 521 127.50Q574 151 611.50 192.50Q649 234 669 288.50Q689 343 689 403Q689 460 664 504Q639 548 591 572Q543 596 473 596Q408 596 354.50 572.50Q301 549 263.50 507.50Q226 466 206.50 411.50Q187 357 187 297Q187 240 211.50 196Q236 152 284 128Q332 104 402 104Z"  horiz-adv-x="842" vert-adv-y="1000"  />

      
      <glyph glyph-name="uni0230" unicode="&#x0230;" d="M391-10Q285-10 210 28Q135 66 95.50 133.50Q56 201 56 289Q56 378 86 454.50Q116 531 173 588Q230 645 309 677.50Q388 710 485 710Q590 710 665 672Q740 634 780 566.50Q820 499 820 411Q820 322 789.50 245.50Q759 169 702 112Q645 55 566.50 22.50Q488-10 391-10M402 104Q468 104 521 127.50Q574 151 611.50 192.50Q649 234 669 288.50Q689 343 689 403Q689 460 664 504Q639 548 591 572Q543 596 473 596Q408 596 354.50 572.50Q301 549 263.50 507.50Q226 466 206.50 411.50Q187 357 187 297Q187 240 211.50 196Q236 152 284 128Q332 104 402 104Z"  horiz-adv-x="842" vert-adv-y="1000"  />

      
      <glyph glyph-name="uni1ECC" unicode="&#x1ECC;" d="M391-10Q285-10 210 28Q135 66 95.50 133.50Q56 201 56 289Q56 378 86 454.50Q116 531 173 588Q230 645 309 677.50Q388 710 485 710Q590 710 665 672Q740 634 780 566.50Q820 499 820 411Q820 322 789.50 245.50Q759 169 702 112Q645 55 566.50 22.50Q488-10 391-10M402 104Q468 104 521 127.50Q574 151 611.50 192.50Q649 234 669 288.50Q689 343 689 403Q689 460 664 504Q639 548 591 572Q543 596 473 596Q408 596 354.50 572.50Q301 549 263.50 507.50Q226 466 206.50 411.50Q187 357 187 297Q187 240 211.50 196Q236 152 284 128Q332 104 402 104M332-203Q308-203 292.50-188Q277-173 277-149Q277-121 297-102Q317-83 344-83Q367-83 383-97.50Q399-112 399-136Q399-166 380-184.50Q361-203 332-203Z"  horiz-adv-x="842" vert-adv-y="1000"  />

      
      <glyph glyph-name="unid2" unicode="&#xd2;" d="M391-10Q285-10 210 28Q135 66 95.50 133.50Q56 201 56 289Q56 378 86 454.50Q116 531 173 588Q230 645 309 677.50Q388 710 485 710Q590 710 665 672Q740 634 780 566.50Q820 499 820 411Q820 322 789.50 245.50Q759 169 702 112Q645 55 566.50 22.50Q488-10 391-10M402 104Q468 104 521 127.50Q574 151 611.50 192.50Q649 234 669 288.50Q689 343 689 403Q689 460 664 504Q639 548 591 572Q543 596 473 596Q408 596 354.50 572.50Q301 549 263.50 507.50Q226 466 206.50 411.50Q187 357 187 297Q187 240 211.50 196Q236 152 284 128Q332 104 402 104Z"  horiz-adv-x="842" vert-adv-y="1000"  />

      
      <glyph glyph-name="uni1ECE" unicode="&#x1ECE;" d="M391-10Q285-10 210 28Q135 66 95.50 133.50Q56 201 56 289Q56 378 86 454.50Q116 531 173 588Q230 645 309 677.50Q388 710 485 710Q590 710 665 672Q740 634 780 566.50Q820 499 820 411Q820 322 789.50 245.50Q759 169 702 112Q645 55 566.50 22.50Q488-10 391-10M402 104Q468 104 521 127.50Q574 151 611.50 192.50Q649 234 669 288.50Q689 343 689 403Q689 460 664 504Q639 548 591 572Q543 596 473 596Q408 596 354.50 572.50Q301 549 263.50 507.50Q226 466 206.50 411.50Q187 357 187 297Q187 240 211.50 196Q236 152 284 128Q332 104 402 104Z"  horiz-adv-x="842" vert-adv-y="1000"  />

      
      <glyph glyph-name="uni01A0" unicode="&#x01A0;" d="M391-10Q285-10 210 28Q135 66 95.50 133.50Q56 201 56 289Q56 378 86 454.50Q116 531 173 588Q230 645 309 677.50Q388 710 485 710Q532 710 567 706Q602 702 635 697Q668 692 705 692Q750 692 774 711.50Q798 731 798 764Q798 782 792.50 798Q787 814 778 826L854 854Q868 836 876.50 812Q885 788 885 759Q885 713 865 679Q845 645 810 626.50Q775 608 729 608Q716 608 702.50 610Q689 612 676 613L726 631Q771 591 795.50 535Q820 479 820 411Q820 322 789.50 245.50Q759 169 702 112Q645 55 566.50 22.50Q488-10 391-10M402 104Q468 104 521 127.50Q574 151 611.50 192.50Q649 234 669 288.50Q689 343 689 403Q689 460 664 504Q639 548 591 572Q543 596 473 596Q408 596 354.50 572.50Q301 549 263.50 507.50Q226 466 206.50 411.50Q187 357 187 297Q187 240 211.50 196Q236 152 284 128Q332 104 402 104Z"  horiz-adv-x="842" vert-adv-y="1000"  />

      
      <glyph glyph-name="uni1EDA" unicode="&#x1EDA;" d="M391-10Q285-10 210 28Q135 66 95.50 133.50Q56 201 56 289Q56 378 86 454.50Q116 531 173 588Q230 645 309 677.50Q388 710 485 710Q532 710 567 706Q602 702 635 697Q668 692 705 692Q750 692 774 711.50Q798 731 798 764Q798 782 792.50 798Q787 814 778 826L854 854Q868 836 876.50 812Q885 788 885 759Q885 713 865 679Q845 645 810 626.50Q775 608 729 608Q716 608 702.50 610Q689 612 676 613L726 631Q771 591 795.50 535Q820 479 820 411Q820 322 789.50 245.50Q759 169 702 112Q645 55 566.50 22.50Q488-10 391-10M402 104Q468 104 521 127.50Q574 151 611.50 192.50Q649 234 669 288.50Q689 343 689 403Q689 460 664 504Q639 548 591 572Q543 596 473 596Q408 596 354.50 572.50Q301 549 263.50 507.50Q226 466 206.50 411.50Q187 357 187 297Q187 240 211.50 196Q236 152 284 128Q332 104 402 104Z"  horiz-adv-x="842" vert-adv-y="1000"  />

      
      <glyph glyph-name="uni1EE2" unicode="&#x1EE2;" d="M391-10Q285-10 210 28Q135 66 95.50 133.50Q56 201 56 289Q56 378 86 454.50Q116 531 173 588Q230 645 309 677.50Q388 710 485 710Q532 710 567 706Q602 702 635 697Q668 692 705 692Q750 692 774 711.50Q798 731 798 764Q798 782 792.50 798Q787 814 778 826L854 854Q868 836 876.50 812Q885 788 885 759Q885 713 865 679Q845 645 810 626.50Q775 608 729 608Q716 608 702.50 610Q689 612 676 613L726 631Q771 591 795.50 535Q820 479 820 411Q820 322 789.50 245.50Q759 169 702 112Q645 55 566.50 22.50Q488-10 391-10M402 104Q468 104 521 127.50Q574 151 611.50 192.50Q649 234 669 288.50Q689 343 689 403Q689 460 664 504Q639 548 591 572Q543 596 473 596Q408 596 354.50 572.50Q301 549 263.50 507.50Q226 466 206.50 411.50Q187 357 187 297Q187 240 211.50 196Q236 152 284 128Q332 104 402 104M332-203Q308-203 292.50-188Q277-173 277-149Q277-121 297-102Q317-83 344-83Q367-83 383-97.50Q399-112 399-136Q399-166 380-184.50Q361-203 332-203Z"  horiz-adv-x="842" vert-adv-y="1000"  />

      
      <glyph glyph-name="uni1EDC" unicode="&#x1EDC;" d="M391-10Q285-10 210 28Q135 66 95.50 133.50Q56 201 56 289Q56 378 86 454.50Q116 531 173 588Q230 645 309 677.50Q388 710 485 710Q532 710 567 706Q602 702 635 697Q668 692 705 692Q750 692 774 711.50Q798 731 798 764Q798 782 792.50 798Q787 814 778 826L854 854Q868 836 876.50 812Q885 788 885 759Q885 713 865 679Q845 645 810 626.50Q775 608 729 608Q716 608 702.50 610Q689 612 676 613L726 631Q771 591 795.50 535Q820 479 820 411Q820 322 789.50 245.50Q759 169 702 112Q645 55 566.50 22.50Q488-10 391-10M402 104Q468 104 521 127.50Q574 151 611.50 192.50Q649 234 669 288.50Q689 343 689 403Q689 460 664 504Q639 548 591 572Q543 596 473 596Q408 596 354.50 572.50Q301 549 263.50 507.50Q226 466 206.50 411.50Q187 357 187 297Q187 240 211.50 196Q236 152 284 128Q332 104 402 104Z"  horiz-adv-x="842" vert-adv-y="1000"  />

      
      <glyph glyph-name="uni1EDE" unicode="&#x1EDE;" d="M391-10Q285-10 210 28Q135 66 95.50 133.50Q56 201 56 289Q56 378 86 454.50Q116 531 173 588Q230 645 309 677.50Q388 710 485 710Q532 710 567 706Q602 702 635 697Q668 692 705 692Q750 692 774 711.50Q798 731 798 764Q798 782 792.50 798Q787 814 778 826L854 854Q868 836 876.50 812Q885 788 885 759Q885 713 865 679Q845 645 810 626.50Q775 608 729 608Q716 608 702.50 610Q689 612 676 613L726 631Q771 591 795.50 535Q820 479 820 411Q820 322 789.50 245.50Q759 169 702 112Q645 55 566.50 22.50Q488-10 391-10M402 104Q468 104 521 127.50Q574 151 611.50 192.50Q649 234 669 288.50Q689 343 689 403Q689 460 664 504Q639 548 591 572Q543 596 473 596Q408 596 354.50 572.50Q301 549 263.50 507.50Q226 466 206.50 411.50Q187 357 187 297Q187 240 211.50 196Q236 152 284 128Q332 104 402 104Z"  horiz-adv-x="842" vert-adv-y="1000"  />

      
      <glyph glyph-name="uni1EE0" unicode="&#x1EE0;" d="M391-10Q285-10 210 28Q135 66 95.50 133.50Q56 201 56 289Q56 378 86 454.50Q116 531 173 588Q230 645 309 677.50Q388 710 485 710Q532 710 567 706Q602 702 635 697Q668 692 705 692Q750 692 774 711.50Q798 731 798 764Q798 782 792.50 798Q787 814 778 826L854 854Q868 836 876.50 812Q885 788 885 759Q885 713 865 679Q845 645 810 626.50Q775 608 729 608Q716 608 702.50 610Q689 612 676 613L726 631Q771 591 795.50 535Q820 479 820 411Q820 322 789.50 245.50Q759 169 702 112Q645 55 566.50 22.50Q488-10 391-10M402 104Q468 104 521 127.50Q574 151 611.50 192.50Q649 234 669 288.50Q689 343 689 403Q689 460 664 504Q639 548 591 572Q543 596 473 596Q408 596 354.50 572.50Q301 549 263.50 507.50Q226 466 206.50 411.50Q187 357 187 297Q187 240 211.50 196Q236 152 284 128Q332 104 402 104Z"  horiz-adv-x="842" vert-adv-y="1000"  />

      
      <glyph glyph-name="uni0150" unicode="&#x0150;" d="M391-10Q285-10 210 28Q135 66 95.50 133.50Q56 201 56 289Q56 378 86 454.50Q116 531 173 588Q230 645 309 677.50Q388 710 485 710Q590 710 665 672Q740 634 780 566.50Q820 499 820 411Q820 322 789.50 245.50Q759 169 702 112Q645 55 566.50 22.50Q488-10 391-10M402 104Q468 104 521 127.50Q574 151 611.50 192.50Q649 234 669 288.50Q689 343 689 403Q689 460 664 504Q639 548 591 572Q543 596 473 596Q408 596 354.50 572.50Q301 549 263.50 507.50Q226 466 206.50 411.50Q187 357 187 297Q187 240 211.50 196Q236 152 284 128Q332 104 402 104Z"  horiz-adv-x="842" vert-adv-y="1000"  />

      
      <glyph glyph-name="uni020E" unicode="&#x020E;" d="M391-10Q285-10 210 28Q135 66 95.50 133.50Q56 201 56 289Q56 378 86 454.50Q116 531 173 588Q230 645 309 677.50Q388 710 485 710Q590 710 665 672Q740 634 780 566.50Q820 499 820 411Q820 322 789.50 245.50Q759 169 702 112Q645 55 566.50 22.50Q488-10 391-10M402 104Q468 104 521 127.50Q574 151 611.50 192.50Q649 234 669 288.50Q689 343 689 403Q689 460 664 504Q639 548 591 572Q543 596 473 596Q408 596 354.50 572.50Q301 549 263.50 507.50Q226 466 206.50 411.50Q187 357 187 297Q187 240 211.50 196Q236 152 284 128Q332 104 402 104Z"  horiz-adv-x="842" vert-adv-y="1000"  />

      
      <glyph glyph-name="uni014C" unicode="&#x014C;" d="M391-10Q285-10 210 28Q135 66 95.50 133.50Q56 201 56 289Q56 378 86 454.50Q116 531 173 588Q230 645 309 677.50Q388 710 485 710Q590 710 665 672Q740 634 780 566.50Q820 499 820 411Q820 322 789.50 245.50Q759 169 702 112Q645 55 566.50 22.50Q488-10 391-10M402 104Q468 104 521 127.50Q574 151 611.50 192.50Q649 234 669 288.50Q689 343 689 403Q689 460 664 504Q639 548 591 572Q543 596 473 596Q408 596 354.50 572.50Q301 549 263.50 507.50Q226 466 206.50 411.50Q187 357 187 297Q187 240 211.50 196Q236 152 284 128Q332 104 402 104Z"  horiz-adv-x="842" vert-adv-y="1000"  />

      
      <glyph glyph-name="uni1E52" unicode="&#x1E52;" d="M391-10Q285-10 210 28Q135 66 95.50 133.50Q56 201 56 289Q56 378 86 454.50Q116 531 173 588Q230 645 309 677.50Q388 710 485 710Q590 710 665 672Q740 634 780 566.50Q820 499 820 411Q820 322 789.50 245.50Q759 169 702 112Q645 55 566.50 22.50Q488-10 391-10M402 104Q468 104 521 127.50Q574 151 611.50 192.50Q649 234 669 288.50Q689 343 689 403Q689 460 664 504Q639 548 591 572Q543 596 473 596Q408 596 354.50 572.50Q301 549 263.50 507.50Q226 466 206.50 411.50Q187 357 187 297Q187 240 211.50 196Q236 152 284 128Q332 104 402 104Z"  horiz-adv-x="842" vert-adv-y="1000"  />

      
      <glyph glyph-name="uni1E50" unicode="&#x1E50;" d="M391-10Q285-10 210 28Q135 66 95.50 133.50Q56 201 56 289Q56 378 86 454.50Q116 531 173 588Q230 645 309 677.50Q388 710 485 710Q590 710 665 672Q740 634 780 566.50Q820 499 820 411Q820 322 789.50 245.50Q759 169 702 112Q645 55 566.50 22.50Q488-10 391-10M402 104Q468 104 521 127.50Q574 151 611.50 192.50Q649 234 669 288.50Q689 343 689 403Q689 460 664 504Q639 548 591 572Q543 596 473 596Q408 596 354.50 572.50Q301 549 263.50 507.50Q226 466 206.50 411.50Q187 357 187 297Q187 240 211.50 196Q236 152 284 128Q332 104 402 104Z"  horiz-adv-x="842" vert-adv-y="1000"  />

      
      <glyph glyph-name="uni01EA" unicode="&#x01EA;" d="M344-228Q293-228 260.50-203.50Q228-179 228-134Q228-86 263-44Q298-2 374 26L391-10Q285-10 210 28Q135 66 95.50 133.50Q56 201 56 289Q56 378 86 454.50Q116 531 173 588Q230 645 309 677.50Q388 710 485 710Q590 710 665 672Q740 634 780 566.50Q820 499 820 411Q820 308 779.50 222.50Q739 137 665.50 79Q592 21 494 1Q426-14 387-33.50Q348-53 331.50-74.50Q315-96 315-117Q315-138 328.50-149Q342-160 364-160Q381-160 398.50-155.50Q416-151 429-144L442-205Q422-215 398-221.50Q374-228 344-228M402 104Q468 104 521 127.50Q574 151 611.50 192.50Q649 234 669 288.50Q689 343 689 403Q689 460 664 504Q639 548 591 572Q543 596 473 596Q408 596 354.50 572.50Q301 549 263.50 507.50Q226 466 206.50 411.50Q187 357 187 297Q187 240 211.50 196Q236 152 284 128Q332 104 402 104Z"  horiz-adv-x="842" vert-adv-y="1000"  />

      
      <glyph glyph-name="unid8" unicode="&#xd8;" d="M391-10Q285-10 210 28Q135 66 95.50 133.50Q56 201 56 289Q56 378 86 454.50Q116 531 173 588Q230 645 309 677.50Q388 710 485 710Q590 710 665 672Q740 634 780 566.50Q820 499 820 411Q820 322 789.50 245.50Q759 169 702 112Q645 55 566.50 22.50Q488-10 391-10M402 104Q468 104 521 127.50Q574 151 611.50 192.50Q649 234 669 288.50Q689 343 689 403Q689 460 664 504Q639 548 591 572Q543 596 473 596Q408 596 354.50 572.50Q301 549 263.50 507.50Q226 466 206.50 411.50Q187 357 187 297Q187 240 211.50 196Q236 152 284 128Q332 104 402 104M6-70L773 770L869 770L103-70L6-70Z"  horiz-adv-x="842" vert-adv-y="1000"  />

      
      <glyph glyph-name="uni01FE" unicode="&#x01FE;" d="M391-10Q285-10 210 28Q135 66 95.50 133.50Q56 201 56 289Q56 378 86 454.50Q116 531 173 588Q230 645 309 677.50Q388 710 485 710Q590 710 665 672Q740 634 780 566.50Q820 499 820 411Q820 322 789.50 245.50Q759 169 702 112Q645 55 566.50 22.50Q488-10 391-10M402 104Q468 104 521 127.50Q574 151 611.50 192.50Q649 234 669 288.50Q689 343 689 403Q689 460 664 504Q639 548 591 572Q543 596 473 596Q408 596 354.50 572.50Q301 549 263.50 507.50Q226 466 206.50 411.50Q187 357 187 297Q187 240 211.50 196Q236 152 284 128Q332 104 402 104M6-70L773 770L869 770L103-70L6-70Z"  horiz-adv-x="842" vert-adv-y="1000"  />

      
      <glyph glyph-name="unid5" unicode="&#xd5;" d="M391-10Q285-10 210 28Q135 66 95.50 133.50Q56 201 56 289Q56 378 86 454.50Q116 531 173 588Q230 645 309 677.50Q388 710 485 710Q590 710 665 672Q740 634 780 566.50Q820 499 820 411Q820 322 789.50 245.50Q759 169 702 112Q645 55 566.50 22.50Q488-10 391-10M402 104Q468 104 521 127.50Q574 151 611.50 192.50Q649 234 669 288.50Q689 343 689 403Q689 460 664 504Q639 548 591 572Q543 596 473 596Q408 596 354.50 572.50Q301 549 263.50 507.50Q226 466 206.50 411.50Q187 357 187 297Q187 240 211.50 196Q236 152 284 128Q332 104 402 104Z"  horiz-adv-x="842" vert-adv-y="1000"  />

      
      <glyph glyph-name="uni1E4C" unicode="&#x1E4C;" d="M391-10Q285-10 210 28Q135 66 95.50 133.50Q56 201 56 289Q56 378 86 454.50Q116 531 173 588Q230 645 309 677.50Q388 710 485 710Q590 710 665 672Q740 634 780 566.50Q820 499 820 411Q820 322 789.50 245.50Q759 169 702 112Q645 55 566.50 22.50Q488-10 391-10M402 104Q468 104 521 127.50Q574 151 611.50 192.50Q649 234 669 288.50Q689 343 689 403Q689 460 664 504Q639 548 591 572Q543 596 473 596Q408 596 354.50 572.50Q301 549 263.50 507.50Q226 466 206.50 411.50Q187 357 187 297Q187 240 211.50 196Q236 152 284 128Q332 104 402 104Z"  horiz-adv-x="842" vert-adv-y="1000"  />

      
      <glyph glyph-name="uni1E4E" unicode="&#x1E4E;" d="M391-10Q285-10 210 28Q135 66 95.50 133.50Q56 201 56 289Q56 378 86 454.50Q116 531 173 588Q230 645 309 677.50Q388 710 485 710Q590 710 665 672Q740 634 780 566.50Q820 499 820 411Q820 322 789.50 245.50Q759 169 702 112Q645 55 566.50 22.50Q488-10 391-10M402 104Q468 104 521 127.50Q574 151 611.50 192.50Q649 234 669 288.50Q689 343 689 403Q689 460 664 504Q639 548 591 572Q543 596 473 596Q408 596 354.50 572.50Q301 549 263.50 507.50Q226 466 206.50 411.50Q187 357 187 297Q187 240 211.50 196Q236 152 284 128Q332 104 402 104Z"  horiz-adv-x="842" vert-adv-y="1000"  />

      
      <glyph glyph-name="uni022C" unicode="&#x022C;" d="M391-10Q285-10 210 28Q135 66 95.50 133.50Q56 201 56 289Q56 378 86 454.50Q116 531 173 588Q230 645 309 677.50Q388 710 485 710Q590 710 665 672Q740 634 780 566.50Q820 499 820 411Q820 322 789.50 245.50Q759 169 702 112Q645 55 566.50 22.50Q488-10 391-10M402 104Q468 104 521 127.50Q574 151 611.50 192.50Q649 234 669 288.50Q689 343 689 403Q689 460 664 504Q639 548 591 572Q543 596 473 596Q408 596 354.50 572.50Q301 549 263.50 507.50Q226 466 206.50 411.50Q187 357 187 297Q187 240 211.50 196Q236 152 284 128Q332 104 402 104Z"  horiz-adv-x="842" vert-adv-y="1000"  />

      
      <glyph glyph-name="uni0152" unicode="&#x0152;" d="M395 0Q289 0 213 35.50Q137 71 96.50 136.50Q56 202 56 289Q56 382 87 458Q118 534 175.50 587.50Q233 641 313 670.50Q393 700 491 700L675 700L654 590L488 590Q394 590 326.50 551.50Q259 513 223 447Q187 381 187 297Q187 240 211.50 198Q236 156 285.50 133Q335 110 409 110L555 110L535 0L395 0M502 0L642 700L1152 700L1130 591L749 591L653 109L1048 109L1026 0L502 0M682 302L703 409L1051 409L1030 302L682 302Z"  horiz-adv-x="1131" vert-adv-y="1000"  />

      
      <glyph glyph-name="uni50" unicode="&#x50;" d="M41 0L181 700L451 700Q578 700 647.50 644Q717 588 717 489Q717 400 676.50 335.50Q636 271 561 236.50Q486 202 383 202L155 202L224 264L171 0L41 0M221 249L175 312L388 312Q482 312 534 354Q586 396 586 477Q586 534 547.50 562Q509 590 437 590L234 590L302 655L221 249Z"  horiz-adv-x="726" vert-adv-y="1000"  />

      
      <glyph glyph-name="unide" unicode="&#xde;" d="M167 121L188 230L372 230Q466 230 518.50 272Q571 314 571 395Q571 452 532 480Q493 508 422 508L245 508L265 618L439 618Q564 618 633 563Q702 508 702 407Q702 318 661.50 253.50Q621 189 545.50 155Q470 121 368 121L167 121M41 0L181 700L311 700L171 0L41 0Z"  horiz-adv-x="726" vert-adv-y="1000"  />

      
      <glyph glyph-name="uni51" unicode="&#x51;" d="M391-10Q285-10 210 28Q135 66 95.50 133.50Q56 201 56 289Q56 378 86 454.50Q116 531 173 588Q230 645 309 677.50Q388 710 485 710Q590 710 665 672Q740 634 780 566.50Q820 499 820 411Q820 322 789.50 245.50Q759 169 702 112Q645 55 566.50 22.50Q488-10 391-10M590-153Q501-153 432.50-109.50Q364-66 317 18L461 48Q486-7 518.50-30.50Q551-54 595-54Q629-54 661.50-40.50Q694-27 719-1L770-81Q738-118 690.50-135.50Q643-153 590-153M402 104Q468 104 521 127.50Q574 151 611.50 192.50Q649 234 669 288.50Q689 343 689 403Q689 460 664 504Q639 548 591 572Q543 596 473 596Q408 596 354.50 572.50Q301 549 263.50 507.50Q226 466 206.50 411.50Q187 357 187 297Q187 240 211.50 196Q236 152 284 128Q332 104 402 104Z"  horiz-adv-x="842" vert-adv-y="1000"  />

      
      <glyph glyph-name="uni52" unicode="&#x52;" d="M41 0L181 700L453 700Q580 700 649.50 644.50Q719 589 719 489Q719 401 678.50 337.50Q638 274 563 239.50Q488 205 385 205L157 205L224 264L172 0L41 0M501 0L358 254L496 254L639 0L501 0M221 249L177 312L389 312Q484 312 536 354Q588 396 588 477Q588 534 549.50 562Q511 590 439 590L235 590L303 655L221 249Z"  horiz-adv-x="731" vert-adv-y="1000"  />

      
      <glyph glyph-name="uni0154" unicode="&#x0154;" d="M41 0L181 700L453 700Q580 700 649.50 644.50Q719 589 719 489Q719 401 678.50 337.50Q638 274 563 239.50Q488 205 385 205L157 205L224 264L172 0L41 0M501 0L358 254L496 254L639 0L501 0M221 249L177 312L389 312Q484 312 536 354Q588 396 588 477Q588 534 549.50 562Q511 590 439 590L235 590L303 655L221 249Z"  horiz-adv-x="731" vert-adv-y="1000"  />

      
      <glyph glyph-name="uni0158" unicode="&#x0158;" d="M41 0L181 700L453 700Q580 700 649.50 644.50Q719 589 719 489Q719 401 678.50 337.50Q638 274 563 239.50Q488 205 385 205L157 205L224 264L172 0L41 0M501 0L358 254L496 254L639 0L501 0M221 249L177 312L389 312Q484 312 536 354Q588 396 588 477Q588 534 549.50 562Q511 590 439 590L235 590L303 655L221 249Z"  horiz-adv-x="731" vert-adv-y="1000"  />

      
      <glyph glyph-name="uni0156" unicode="&#x0156;" d="M41 0L181 700L453 700Q580 700 649.50 644.50Q719 589 719 489Q719 401 678.50 337.50Q638 274 563 239.50Q488 205 385 205L157 205L224 264L172 0L41 0M501 0L358 254L496 254L639 0L501 0M221 249L177 312L389 312Q484 312 536 354Q588 396 588 477Q588 534 549.50 562Q511 590 439 590L235 590L303 655L221 249M220-265L278-143L286-188Q260-188 245.50-175Q231-162 231-143Q231-117 247-100Q263-83 294-83Q323-83 337.50-97Q352-111 352-131Q352-145 346.50-158Q341-171 325-194L279-265L220-265Z"  horiz-adv-x="731" vert-adv-y="1000"  />

      
      <glyph glyph-name="uni0210" unicode="&#x0210;" d="M41 0L181 700L453 700Q580 700 649.50 644.50Q719 589 719 489Q719 401 678.50 337.50Q638 274 563 239.50Q488 205 385 205L157 205L224 264L172 0L41 0M501 0L358 254L496 254L639 0L501 0M221 249L177 312L389 312Q484 312 536 354Q588 396 588 477Q588 534 549.50 562Q511 590 439 590L235 590L303 655L221 249Z"  horiz-adv-x="731" vert-adv-y="1000"  />

      
      <glyph glyph-name="uni1E5A" unicode="&#x1E5A;" d="M41 0L181 700L453 700Q580 700 649.50 644.50Q719 589 719 489Q719 401 678.50 337.50Q638 274 563 239.50Q488 205 385 205L157 205L224 264L172 0L41 0M501 0L358 254L496 254L639 0L501 0M221 249L177 312L389 312Q484 312 536 354Q588 396 588 477Q588 534 549.50 562Q511 590 439 590L235 590L303 655L221 249M284-203Q260-203 244.50-188Q229-173 229-149Q229-121 249-102Q269-83 296-83Q319-83 335-97.50Q351-112 351-136Q351-166 332-184.50Q313-203 284-203Z"  horiz-adv-x="731" vert-adv-y="1000"  />

      
      <glyph glyph-name="uni0212" unicode="&#x0212;" d="M41 0L181 700L453 700Q580 700 649.50 644.50Q719 589 719 489Q719 401 678.50 337.50Q638 274 563 239.50Q488 205 385 205L157 205L224 264L172 0L41 0M501 0L358 254L496 254L639 0L501 0M221 249L177 312L389 312Q484 312 536 354Q588 396 588 477Q588 534 549.50 562Q511 590 439 590L235 590L303 655L221 249Z"  horiz-adv-x="731" vert-adv-y="1000"  />

      
      <glyph glyph-name="uni1E5E" unicode="&#x1E5E;" d="M41 0L181 700L453 700Q580 700 649.50 644.50Q719 589 719 489Q719 401 678.50 337.50Q638 274 563 239.50Q488 205 385 205L157 205L224 264L172 0L41 0M501 0L358 254L496 254L639 0L501 0M221 249L177 312L389 312Q484 312 536 354Q588 396 588 477Q588 534 549.50 562Q511 590 439 590L235 590L303 655L221 249M110-178L123-104L471-104L458-178L110-178Z"  horiz-adv-x="731" vert-adv-y="1000"  />

      
      <glyph glyph-name="uni53" unicode="&#x53;" d="M270-10Q215-10 163.50 1Q112 12 69.50 30.50Q27 49-1 72L54 174Q83 150 120 133Q157 116 198.50 107Q240 98 282 98Q333 98 371 110Q409 122 429.50 144Q450 166 450 197Q450 225 431 242.50Q412 260 380.50 271.50Q349 283 311.50 293.50Q274 304 236 317.50Q198 331 167 351.50Q136 372 116.50 404Q97 436 97 484Q97 553 135.50 603.50Q174 654 242.50 682Q311 710 402 710Q470 710 531 695Q592 680 636 651L585 548Q546 574 497 588Q448 602 395 602Q343 602 305 589Q267 576 247 553Q227 530 226 499Q226 470 245 452.50Q264 435 295 423Q326 411 364 400.50Q402 390 439.50 377Q477 364 509 344Q541 324 560 293.50Q579 263 579 217Q579 148 540.50 97Q502 46 432.50 18Q363-10 270-10Z"  horiz-adv-x="629" vert-adv-y="1000"  />

      
      <glyph glyph-name="uni015A" unicode="&#x015A;" d="M270-10Q215-10 163.50 1Q112 12 69.50 30.50Q27 49-1 72L54 174Q83 150 120 133Q157 116 198.50 107Q240 98 282 98Q333 98 371 110Q409 122 429.50 144Q450 166 450 197Q450 225 431 242.50Q412 260 380.50 271.50Q349 283 311.50 293.50Q274 304 236 317.50Q198 331 167 351.50Q136 372 116.50 404Q97 436 97 484Q97 553 135.50 603.50Q174 654 242.50 682Q311 710 402 710Q470 710 531 695Q592 680 636 651L585 548Q546 574 497 588Q448 602 395 602Q343 602 305 589Q267 576 247 553Q227 530 226 499Q226 470 245 452.50Q264 435 295 423Q326 411 364 400.50Q402 390 439.50 377Q477 364 509 344Q541 324 560 293.50Q579 263 579 217Q579 148 540.50 97Q502 46 432.50 18Q363-10 270-10Z"  horiz-adv-x="629" vert-adv-y="1000"  />

      
      <glyph glyph-name="uni1E64" unicode="&#x1E64;" d="M270-10Q215-10 163.50 1Q112 12 69.50 30.50Q27 49-1 72L54 174Q83 150 120 133Q157 116 198.50 107Q240 98 282 98Q333 98 371 110Q409 122 429.50 144Q450 166 450 197Q450 225 431 242.50Q412 260 380.50 271.50Q349 283 311.50 293.50Q274 304 236 317.50Q198 331 167 351.50Q136 372 116.50 404Q97 436 97 484Q97 553 135.50 603.50Q174 654 242.50 682Q311 710 402 710Q470 710 531 695Q592 680 636 651L585 548Q546 574 497 588Q448 602 395 602Q343 602 305 589Q267 576 247 553Q227 530 226 499Q226 470 245 452.50Q264 435 295 423Q326 411 364 400.50Q402 390 439.50 377Q477 364 509 344Q541 324 560 293.50Q579 263 579 217Q579 148 540.50 97Q502 46 432.50 18Q363-10 270-10Z"  horiz-adv-x="629" vert-adv-y="1000"  />

      
      <glyph glyph-name="uniA78B" unicode="&#xA78B;" d="M80 297L161 700L288 700L193 297L80 297Z"  horiz-adv-x="277" vert-adv-y="1000"  />

      
      <glyph glyph-name="uni0160" unicode="&#x0160;" d="M270-10Q215-10 163.50 1Q112 12 69.50 30.50Q27 49-1 72L54 174Q83 150 120 133Q157 116 198.50 107Q240 98 282 98Q333 98 371 110Q409 122 429.50 144Q450 166 450 197Q450 225 431 242.50Q412 260 380.50 271.50Q349 283 311.50 293.50Q274 304 236 317.50Q198 331 167 351.50Q136 372 116.50 404Q97 436 97 484Q97 553 135.50 603.50Q174 654 242.50 682Q311 710 402 710Q470 710 531 695Q592 680 636 651L585 548Q546 574 497 588Q448 602 395 602Q343 602 305 589Q267 576 247 553Q227 530 226 499Q226 470 245 452.50Q264 435 295 423Q326 411 364 400.50Q402 390 439.50 377Q477 364 509 344Q541 324 560 293.50Q579 263 579 217Q579 148 540.50 97Q502 46 432.50 18Q363-10 270-10Z"  horiz-adv-x="629" vert-adv-y="1000"  />

      
      <glyph glyph-name="uni1E66" unicode="&#x1E66;" d="M270-10Q215-10 163.50 1Q112 12 69.50 30.50Q27 49-1 72L54 174Q83 150 120 133Q157 116 198.50 107Q240 98 282 98Q333 98 371 110Q409 122 429.50 144Q450 166 450 197Q450 225 431 242.50Q412 260 380.50 271.50Q349 283 311.50 293.50Q274 304 236 317.50Q198 331 167 351.50Q136 372 116.50 404Q97 436 97 484Q97 553 135.50 603.50Q174 654 242.50 682Q311 710 402 710Q470 710 531 695Q592 680 636 651L585 548Q546 574 497 588Q448 602 395 602Q343 602 305 589Q267 576 247 553Q227 530 226 499Q226 470 245 452.50Q264 435 295 423Q326 411 364 400.50Q402 390 439.50 377Q477 364 509 344Q541 324 560 293.50Q579 263 579 217Q579 148 540.50 97Q502 46 432.50 18Q363-10 270-10Z"  horiz-adv-x="629" vert-adv-y="1000"  />

      
      <glyph glyph-name="uni015E" unicode="&#x015E;" d="M270-10Q215-10 163.50 1Q112 12 69.50 30.50Q27 49-1 72L54 174Q83 150 120 133Q157 116 198.50 107Q240 98 282 98Q333 98 371 110Q409 122 429.50 144Q450 166 450 197Q450 225 431 242.50Q412 260 380.50 271.50Q349 283 311.50 293.50Q274 304 236 317.50Q198 331 167 351.50Q136 372 116.50 404Q97 436 97 484Q97 553 135.50 603.50Q174 654 242.50 682Q311 710 402 710Q470 710 531 695Q592 680 636 651L585 548Q546 574 497 588Q448 602 395 602Q343 602 305 589Q267 576 247 553Q227 530 226 499Q226 470 245 452.50Q264 435 295 423Q326 411 364 400.50Q402 390 439.50 377Q477 364 509 344Q541 324 560 293.50Q579 263 579 217Q579 148 540.50 97Q502 46 432.50 18Q363-10 270-10M201-228Q174-228 151-222.50Q128-217 110-207L140-148Q156-156 173-160Q190-164 209-164Q240-164 254-153Q268-142 268-126Q268-111 257-103Q246-95 221-95L190-95L236 7L304 7L280-49Q316-54 334-74Q352-94 352-123Q350-172 308.50-200Q267-228 201-228Z"  horiz-adv-x="629" vert-adv-y="1000"  />

      
      <glyph glyph-name="uni015C" unicode="&#x015C;" d="M270-10Q215-10 163.50 1Q112 12 69.50 30.50Q27 49-1 72L54 174Q83 150 120 133Q157 116 198.50 107Q240 98 282 98Q333 98 371 110Q409 122 429.50 144Q450 166 450 197Q450 225 431 242.50Q412 260 380.50 271.50Q349 283 311.50 293.50Q274 304 236 317.50Q198 331 167 351.50Q136 372 116.50 404Q97 436 97 484Q97 553 135.50 603.50Q174 654 242.50 682Q311 710 402 710Q470 710 531 695Q592 680 636 651L585 548Q546 574 497 588Q448 602 395 602Q343 602 305 589Q267 576 247 553Q227 530 226 499Q226 470 245 452.50Q264 435 295 423Q326 411 364 400.50Q402 390 439.50 377Q477 364 509 344Q541 324 560 293.50Q579 263 579 217Q579 148 540.50 97Q502 46 432.50 18Q363-10 270-10Z"  horiz-adv-x="629" vert-adv-y="1000"  />

      
      <glyph glyph-name="uni0218" unicode="&#x0218;" d="M270-10Q215-10 163.50 1Q112 12 69.50 30.50Q27 49-1 72L54 174Q83 150 120 133Q157 116 198.50 107Q240 98 282 98Q333 98 371 110Q409 122 429.50 144Q450 166 450 197Q450 225 431 242.50Q412 260 380.50 271.50Q349 283 311.50 293.50Q274 304 236 317.50Q198 331 167 351.50Q136 372 116.50 404Q97 436 97 484Q97 553 135.50 603.50Q174 654 242.50 682Q311 710 402 710Q470 710 531 695Q592 680 636 651L585 548Q546 574 497 588Q448 602 395 602Q343 602 305 589Q267 576 247 553Q227 530 226 499Q226 470 245 452.50Q264 435 295 423Q326 411 364 400.50Q402 390 439.50 377Q477 364 509 344Q541 324 560 293.50Q579 263 579 217Q579 148 540.50 97Q502 46 432.50 18Q363-10 270-10M170-265L228-143L236-188Q210-188 195.50-175Q181-162 181-143Q181-117 197-100Q213-83 244-83Q273-83 287.50-97Q302-111 302-131Q302-145 296.50-158Q291-171 275-194L229-265L170-265Z"  horiz-adv-x="629" vert-adv-y="1000"  />

      
      <glyph glyph-name="uni1E60" unicode="&#x1E60;" d="M270-10Q215-10 163.50 1Q112 12 69.50 30.50Q27 49-1 72L54 174Q83 150 120 133Q157 116 198.50 107Q240 98 282 98Q333 98 371 110Q409 122 429.50 144Q450 166 450 197Q450 225 431 242.50Q412 260 380.50 271.50Q349 283 311.50 293.50Q274 304 236 317.50Q198 331 167 351.50Q136 372 116.50 404Q97 436 97 484Q97 553 135.50 603.50Q174 654 242.50 682Q311 710 402 710Q470 710 531 695Q592 680 636 651L585 548Q546 574 497 588Q448 602 395 602Q343 602 305 589Q267 576 247 553Q227 530 226 499Q226 470 245 452.50Q264 435 295 423Q326 411 364 400.50Q402 390 439.50 377Q477 364 509 344Q541 324 560 293.50Q579 263 579 217Q579 148 540.50 97Q502 46 432.50 18Q363-10 270-10Z"  horiz-adv-x="629" vert-adv-y="1000"  />

      
      <glyph glyph-name="uni1E62" unicode="&#x1E62;" d="M270-10Q215-10 163.50 1Q112 12 69.50 30.50Q27 49-1 72L54 174Q83 150 120 133Q157 116 198.50 107Q240 98 282 98Q333 98 371 110Q409 122 429.50 144Q450 166 450 197Q450 225 431 242.50Q412 260 380.50 271.50Q349 283 311.50 293.50Q274 304 236 317.50Q198 331 167 351.50Q136 372 116.50 404Q97 436 97 484Q97 553 135.50 603.50Q174 654 242.50 682Q311 710 402 710Q470 710 531 695Q592 680 636 651L585 548Q546 574 497 588Q448 602 395 602Q343 602 305 589Q267 576 247 553Q227 530 226 499Q226 470 245 452.50Q264 435 295 423Q326 411 364 400.50Q402 390 439.50 377Q477 364 509 344Q541 324 560 293.50Q579 263 579 217Q579 148 540.50 97Q502 46 432.50 18Q363-10 270-10M234-203Q210-203 194.50-188Q179-173 179-149Q179-121 199-102Q219-83 246-83Q269-83 285-97.50Q301-112 301-136Q301-166 282-184.50Q263-203 234-203Z"  horiz-adv-x="629" vert-adv-y="1000"  />

      
      <glyph glyph-name="uni1E68" unicode="&#x1E68;" d="M270-10Q215-10 163.50 1Q112 12 69.50 30.50Q27 49-1 72L54 174Q83 150 120 133Q157 116 198.50 107Q240 98 282 98Q333 98 371 110Q409 122 429.50 144Q450 166 450 197Q450 225 431 242.50Q412 260 380.50 271.50Q349 283 311.50 293.50Q274 304 236 317.50Q198 331 167 351.50Q136 372 116.50 404Q97 436 97 484Q97 553 135.50 603.50Q174 654 242.50 682Q311 710 402 710Q470 710 531 695Q592 680 636 651L585 548Q546 574 497 588Q448 602 395 602Q343 602 305 589Q267 576 247 553Q227 530 226 499Q226 470 245 452.50Q264 435 295 423Q326 411 364 400.50Q402 390 439.50 377Q477 364 509 344Q541 324 560 293.50Q579 263 579 217Q579 148 540.50 97Q502 46 432.50 18Q363-10 270-10M234-203Q210-203 194.50-188Q179-173 179-149Q179-121 199-102Q219-83 246-83Q269-83 285-97.50Q301-112 301-136Q301-166 282-184.50Q263-203 234-203Z"  horiz-adv-x="629" vert-adv-y="1000"  />

      
      <glyph glyph-name="uni1E9E" unicode="&#x1E9E;" d="M439-10Q396-10 353.50-2.50Q311 5 282 18L317 121Q342 110 373 104Q404 98 438 98Q482 98 514.50 113Q547 128 564.50 156.50Q582 185 582 224Q582 270 550.50 294.50Q519 319 462 319Q444 319 424.50 316Q405 313 388 308L376 368L651 631L652 544Q620 573 577 587.50Q534 602 480 602Q382 602 323.50 552.50Q265 503 245 404L165 0L35 0L118 412Q147 561 239.50 635.50Q332 710 490 710Q536 710 580 702Q624 694 663 678Q702 662 729 640L714 558L479 335L431 403Q450 408 468.50 410Q487 412 504 412Q566 412 613 389.50Q660 367 686.50 326.50Q713 286 713 230Q713 159 679 105Q645 51 583.50 20.50Q522-10 439-10Z"  horiz-adv-x="770" vert-adv-y="1000"  />

      
      <glyph glyph-name="uni018F" unicode="&#x018F;" d="M380-10Q279-10 205.50 27.50Q132 65 92.50 132.50Q53 200 53 287Q53 309 56 331.50Q59 354 66 388L683 388L663 286L137 286L185 338Q183 323 181.50 314.50Q180 306 180 292Q180 231 204 188Q228 145 275.50 122Q323 99 390 99Q455 99 505.50 124Q556 149 591 192Q626 235 645 290Q664 345 664 403Q664 461 640 504.50Q616 548 569 572Q522 596 451 596Q389 596 332 576Q275 556 231 518L169 611Q223 659 299.50 684.50Q376 710 461 710Q567 710 641 672Q715 634 754.50 566.50Q794 499 794 410Q794 321 764.50 244.50Q735 168 680.50 111Q626 54 549.50 22Q473-10 380-10Z"  horiz-adv-x="817" vert-adv-y="1000"  />

      
      <glyph glyph-name="uni54" unicode="&#x54;" d="M183 0L301 590L69 590L91 700L684 700L662 590L430 590L313 0L183 0Z"  horiz-adv-x="602" vert-adv-y="1000"  />

      
      <glyph glyph-name="uni0166" unicode="&#x0166;" d="M183 0L301 590L69 590L91 700L684 700L662 590L430 590L313 0L183 0M96 285L116 381L532 381L512 285L96 285Z"  horiz-adv-x="602" vert-adv-y="1000"  />

      
      <glyph glyph-name="uni0164" unicode="&#x0164;" d="M183 0L301 590L69 590L91 700L684 700L662 590L430 590L313 0L183 0Z"  horiz-adv-x="602" vert-adv-y="1000"  />

      
      <glyph glyph-name="uni0162" unicode="&#x0162;" d="M183 0L301 590L69 590L91 700L684 700L662 590L430 590L313 0L183 0M180-228Q153-228 130-222.50Q107-217 89-207L119-148Q135-156 152-160Q169-164 188-164Q219-164 233-153Q247-142 247-126Q247-111 236-103Q225-95 200-95L169-95L215 7L283 7L259-49Q295-54 313-74Q331-94 331-123Q329-172 287.50-200Q246-228 180-228Z"  horiz-adv-x="602" vert-adv-y="1000"  />

      
      <glyph glyph-name="uni021A" unicode="&#x021A;" d="M183 0L301 590L69 590L91 700L684 700L662 590L430 590L313 0L183 0M149-265L207-143L215-188Q189-188 174.50-175Q160-162 160-143Q160-117 176-100Q192-83 223-83Q252-83 266.50-97Q281-111 281-131Q281-145 275.50-158Q270-171 254-194L208-265L149-265Z"  horiz-adv-x="602" vert-adv-y="1000"  />

      
      <glyph glyph-name="uni1E6C" unicode="&#x1E6C;" d="M183 0L301 590L69 590L91 700L684 700L662 590L430 590L313 0L183 0M213-203Q189-203 173.50-188Q158-173 158-149Q158-121 178-102Q198-83 225-83Q248-83 264-97.50Q280-112 280-136Q280-166 261-184.50Q242-203 213-203Z"  horiz-adv-x="602" vert-adv-y="1000"  />

      
      <glyph glyph-name="uni1E6E" unicode="&#x1E6E;" d="M183 0L301 590L69 590L91 700L684 700L662 590L430 590L313 0L183 0M39-178L52-104L400-104L387-178L39-178Z"  horiz-adv-x="602" vert-adv-y="1000"  />

      
      <glyph glyph-name="uni55" unicode="&#x55;" d="M361-10Q262-10 196 29Q130 68 103.50 138.50Q77 209 96 305L175 700L305 700L226 307Q217 256 221.50 217.50Q226 179 245.50 153.50Q265 128 297.50 116Q330 104 374 104Q430 104 470.50 125Q511 146 538.50 191.50Q566 237 581 308L659 700L787 700L707 299Q676 145 589 67.50Q502-10 361-10Z"  horiz-adv-x="789" vert-adv-y="1000"  />

      
      <glyph glyph-name="unida" unicode="&#xda;" d="M361-10Q262-10 196 29Q130 68 103.50 138.50Q77 209 96 305L175 700L305 700L226 307Q217 256 221.50 217.50Q226 179 245.50 153.50Q265 128 297.50 116Q330 104 374 104Q430 104 470.50 125Q511 146 538.50 191.50Q566 237 581 308L659 700L787 700L707 299Q676 145 589 67.50Q502-10 361-10Z"  horiz-adv-x="789" vert-adv-y="1000"  />

      
      <glyph glyph-name="uni016C" unicode="&#x016C;" d="M361-10Q262-10 196 29Q130 68 103.50 138.50Q77 209 96 305L175 700L305 700L226 307Q217 256 221.50 217.50Q226 179 245.50 153.50Q265 128 297.50 116Q330 104 374 104Q430 104 470.50 125Q511 146 538.50 191.50Q566 237 581 308L659 700L787 700L707 299Q676 145 589 67.50Q502-10 361-10Z"  horiz-adv-x="789" vert-adv-y="1000"  />

      
      <glyph glyph-name="uni01D3" unicode="&#x01D3;" d="M361-10Q262-10 196 29Q130 68 103.50 138.50Q77 209 96 305L175 700L305 700L226 307Q217 256 221.50 217.50Q226 179 245.50 153.50Q265 128 297.50 116Q330 104 374 104Q430 104 470.50 125Q511 146 538.50 191.50Q566 237 581 308L659 700L787 700L707 299Q676 145 589 67.50Q502-10 361-10Z"  horiz-adv-x="789" vert-adv-y="1000"  />

      
      <glyph glyph-name="unidb" unicode="&#xdb;" d="M361-10Q262-10 196 29Q130 68 103.50 138.50Q77 209 96 305L175 700L305 700L226 307Q217 256 221.50 217.50Q226 179 245.50 153.50Q265 128 297.50 116Q330 104 374 104Q430 104 470.50 125Q511 146 538.50 191.50Q566 237 581 308L659 700L787 700L707 299Q676 145 589 67.50Q502-10 361-10Z"  horiz-adv-x="789" vert-adv-y="1000"  />

      
      <glyph glyph-name="uni0214" unicode="&#x0214;" d="M361-10Q262-10 196 29Q130 68 103.50 138.50Q77 209 96 305L175 700L305 700L226 307Q217 256 221.50 217.50Q226 179 245.50 153.50Q265 128 297.50 116Q330 104 374 104Q430 104 470.50 125Q511 146 538.50 191.50Q566 237 581 308L659 700L787 700L707 299Q676 145 589 67.50Q502-10 361-10Z"  horiz-adv-x="789" vert-adv-y="1000"  />

      
      <glyph glyph-name="unidc" unicode="&#xdc;" d="M361-10Q262-10 196 29Q130 68 103.50 138.50Q77 209 96 305L175 700L305 700L226 307Q217 256 221.50 217.50Q226 179 245.50 153.50Q265 128 297.50 116Q330 104 374 104Q430 104 470.50 125Q511 146 538.50 191.50Q566 237 581 308L659 700L787 700L707 299Q676 145 589 67.50Q502-10 361-10Z"  horiz-adv-x="789" vert-adv-y="1000"  />

      
      <glyph glyph-name="uni1EE4" unicode="&#x1EE4;" d="M361-10Q262-10 196 29Q130 68 103.50 138.50Q77 209 96 305L175 700L305 700L226 307Q217 256 221.50 217.50Q226 179 245.50 153.50Q265 128 297.50 116Q330 104 374 104Q430 104 470.50 125Q511 146 538.50 191.50Q566 237 581 308L659 700L787 700L707 299Q676 145 589 67.50Q502-10 361-10M307-203Q283-203 267.50-188Q252-173 252-149Q252-121 272-102Q292-83 319-83Q342-83 358-97.50Q374-112 374-136Q374-166 355-184.50Q336-203 307-203Z"  horiz-adv-x="789" vert-adv-y="1000"  />

      
      <glyph glyph-name="unid9" unicode="&#xd9;" d="M361-10Q262-10 196 29Q130 68 103.50 138.50Q77 209 96 305L175 700L305 700L226 307Q217 256 221.50 217.50Q226 179 245.50 153.50Q265 128 297.50 116Q330 104 374 104Q430 104 470.50 125Q511 146 538.50 191.50Q566 237 581 308L659 700L787 700L707 299Q676 145 589 67.50Q502-10 361-10Z"  horiz-adv-x="789" vert-adv-y="1000"  />

      
      <glyph glyph-name="uni1EE6" unicode="&#x1EE6;" d="M361-10Q262-10 196 29Q130 68 103.50 138.50Q77 209 96 305L175 700L305 700L226 307Q217 256 221.50 217.50Q226 179 245.50 153.50Q265 128 297.50 116Q330 104 374 104Q430 104 470.50 125Q511 146 538.50 191.50Q566 237 581 308L659 700L787 700L707 299Q676 145 589 67.50Q502-10 361-10Z"  horiz-adv-x="789" vert-adv-y="1000"  />

      
      <glyph glyph-name="uni01AF" unicode="&#x01AF;" d="M361-10Q262-10 196 29Q130 68 103.50 138.50Q77 209 96 305L175 700L305 700L226 307Q217 256 221.50 217.50Q226 179 245.50 153.50Q265 128 297.50 116Q330 104 374 104Q430 104 470.50 125Q511 146 538.50 191.50Q566 237 581 308L659 700L787 700L707 299Q676 145 589 67.50Q502-10 361-10M722 611L722 700L744 700Q773 700 789.50 718Q806 736 806 764Q806 782 800.50 798Q795 814 786 826L862 854Q876 836 884 812Q892 788 892 760Q892 714 874 681Q856 648 822 629.50Q788 611 742 611L722 611Z"  horiz-adv-x="801" vert-adv-y="1000"  />

      
      <glyph glyph-name="uni1EE8" unicode="&#x1EE8;" d="M361-10Q262-10 196 29Q130 68 103.50 138.50Q77 209 96 305L175 700L305 700L226 307Q217 256 221.50 217.50Q226 179 245.50 153.50Q265 128 297.50 116Q330 104 374 104Q430 104 470.50 125Q511 146 538.50 191.50Q566 237 581 308L659 700L787 700L707 299Q676 145 589 67.50Q502-10 361-10M722 611L722 700L744 700Q773 700 789.50 718Q806 736 806 764Q806 782 800.50 798Q795 814 786 826L862 854Q876 836 884 812Q892 788 892 760Q892 714 874 681Q856 648 822 629.50Q788 611 742 611L722 611Z"  horiz-adv-x="801" vert-adv-y="1000"  />

      
      <glyph glyph-name="uni1EF0" unicode="&#x1EF0;" d="M361-10Q262-10 196 29Q130 68 103.50 138.50Q77 209 96 305L175 700L305 700L226 307Q217 256 221.50 217.50Q226 179 245.50 153.50Q265 128 297.50 116Q330 104 374 104Q430 104 470.50 125Q511 146 538.50 191.50Q566 237 581 308L659 700L787 700L707 299Q676 145 589 67.50Q502-10 361-10M722 611L722 700L744 700Q773 700 789.50 718Q806 736 806 764Q806 782 800.50 798Q795 814 786 826L862 854Q876 836 884 812Q892 788 892 760Q892 714 874 681Q856 648 822 629.50Q788 611 742 611L722 611M307-203Q283-203 267.50-188Q252-173 252-149Q252-121 272-102Q292-83 319-83Q342-83 358-97.50Q374-112 374-136Q374-166 355-184.50Q336-203 307-203Z"  horiz-adv-x="801" vert-adv-y="1000"  />

      
      <glyph glyph-name="uni1EEA" unicode="&#x1EEA;" d="M361-10Q262-10 196 29Q130 68 103.50 138.50Q77 209 96 305L175 700L305 700L226 307Q217 256 221.50 217.50Q226 179 245.50 153.50Q265 128 297.50 116Q330 104 374 104Q430 104 470.50 125Q511 146 538.50 191.50Q566 237 581 308L659 700L787 700L707 299Q676 145 589 67.50Q502-10 361-10M722 611L722 700L744 700Q773 700 789.50 718Q806 736 806 764Q806 782 800.50 798Q795 814 786 826L862 854Q876 836 884 812Q892 788 892 760Q892 714 874 681Q856 648 822 629.50Q788 611 742 611L722 611Z"  horiz-adv-x="801" vert-adv-y="1000"  />

      
      <glyph glyph-name="uni1EEC" unicode="&#x1EEC;" d="M361-10Q262-10 196 29Q130 68 103.50 138.50Q77 209 96 305L175 700L305 700L226 307Q217 256 221.50 217.50Q226 179 245.50 153.50Q265 128 297.50 116Q330 104 374 104Q430 104 470.50 125Q511 146 538.50 191.50Q566 237 581 308L659 700L787 700L707 299Q676 145 589 67.50Q502-10 361-10M722 611L722 700L744 700Q773 700 789.50 718Q806 736 806 764Q806 782 800.50 798Q795 814 786 826L862 854Q876 836 884 812Q892 788 892 760Q892 714 874 681Q856 648 822 629.50Q788 611 742 611L722 611Z"  horiz-adv-x="801" vert-adv-y="1000"  />

      
      <glyph glyph-name="uni1EEE" unicode="&#x1EEE;" d="M361-10Q262-10 196 29Q130 68 103.50 138.50Q77 209 96 305L175 700L305 700L226 307Q217 256 221.50 217.50Q226 179 245.50 153.50Q265 128 297.50 116Q330 104 374 104Q430 104 470.50 125Q511 146 538.50 191.50Q566 237 581 308L659 700L787 700L707 299Q676 145 589 67.50Q502-10 361-10M722 611L722 700L744 700Q773 700 789.50 718Q806 736 806 764Q806 782 800.50 798Q795 814 786 826L862 854Q876 836 884 812Q892 788 892 760Q892 714 874 681Q856 648 822 629.50Q788 611 742 611L722 611Z"  horiz-adv-x="801" vert-adv-y="1000"  />

      
      <glyph glyph-name="uni0170" unicode="&#x0170;" d="M361-10Q262-10 196 29Q130 68 103.50 138.50Q77 209 96 305L175 700L305 700L226 307Q217 256 221.50 217.50Q226 179 245.50 153.50Q265 128 297.50 116Q330 104 374 104Q430 104 470.50 125Q511 146 538.50 191.50Q566 237 581 308L659 700L787 700L707 299Q676 145 589 67.50Q502-10 361-10Z"  horiz-adv-x="789" vert-adv-y="1000"  />

      
      <glyph glyph-name="uni0216" unicode="&#x0216;" d="M361-10Q262-10 196 29Q130 68 103.50 138.50Q77 209 96 305L175 700L305 700L226 307Q217 256 221.50 217.50Q226 179 245.50 153.50Q265 128 297.50 116Q330 104 374 104Q430 104 470.50 125Q511 146 538.50 191.50Q566 237 581 308L659 700L787 700L707 299Q676 145 589 67.50Q502-10 361-10Z"  horiz-adv-x="789" vert-adv-y="1000"  />

      
      <glyph glyph-name="uni016A" unicode="&#x016A;" d="M361-10Q262-10 196 29Q130 68 103.50 138.50Q77 209 96 305L175 700L305 700L226 307Q217 256 221.50 217.50Q226 179 245.50 153.50Q265 128 297.50 116Q330 104 374 104Q430 104 470.50 125Q511 146 538.50 191.50Q566 237 581 308L659 700L787 700L707 299Q676 145 589 67.50Q502-10 361-10Z"  horiz-adv-x="789" vert-adv-y="1000"  />

      
      <glyph glyph-name="uni1E7A" unicode="&#x1E7A;" d="M361-10Q262-10 196 29Q130 68 103.50 138.50Q77 209 96 305L175 700L305 700L226 307Q217 256 221.50 217.50Q226 179 245.50 153.50Q265 128 297.50 116Q330 104 374 104Q430 104 470.50 125Q511 146 538.50 191.50Q566 237 581 308L659 700L787 700L707 299Q676 145 589 67.50Q502-10 361-10Z"  horiz-adv-x="789" vert-adv-y="1000"  />

      
      <glyph glyph-name="uni0172" unicode="&#x0172;" d="M374 104Q429 104 470 125Q511 146 538 190Q552 213 563 242Q574 271 581 308L659 700L787 700L707 299Q682 174 620 99Q558 24 459 1Q375-19 336.50-52.50Q298-86 298-117Q298-138 311.50-149Q325-160 347-160Q364-160 381-155.50Q398-151 412-144L425-205Q405-215 381-221.50Q357-228 327-228Q276-228 243.50-203.50Q211-179 211-134Q211-97 232-63.50Q253-30 295-5Q291-4 289-4Q287-4 283-3Q214 9 166.50 49Q119 89 99 152Q89 184 88.50 223Q88 262 96 305L175 700L305 700L226 309Q218 265 220.50 230.50Q223 196 235 171Q253 138 288 121Q323 104 374 104Z"  horiz-adv-x="789" vert-adv-y="1000"  />

      
      <glyph glyph-name="uni016E" unicode="&#x016E;" d="M361-10Q262-10 196 29Q130 68 103.50 138.50Q77 209 96 305L175 700L305 700L226 307Q217 256 221.50 217.50Q226 179 245.50 153.50Q265 128 297.50 116Q330 104 374 104Q430 104 470.50 125Q511 146 538.50 191.50Q566 237 581 308L659 700L787 700L707 299Q676 145 589 67.50Q502-10 361-10M515 759Q482 759 456 775Q430 791 414.50 816.50Q399 842 399 873Q399 905 414.50 931.50Q430 958 456.50 973.50Q483 989 515 989Q549 989 575.50 973.50Q602 958 617.50 931.50Q633 905 633 873Q633 842 617.50 816Q602 790 575.50 774.50Q549 759 515 759M516 810Q544 810 561.50 828Q579 846 579 873Q579 901 561 919.50Q543 938 515 938Q489 938 471 920Q453 902 453 873Q453 846 470.50 828Q488 810 516 810Z"  horiz-adv-x="789" vert-adv-y="1000"  />

      
      <glyph glyph-name="uni0168" unicode="&#x0168;" d="M361-10Q262-10 196 29Q130 68 103.50 138.50Q77 209 96 305L175 700L305 700L226 307Q217 256 221.50 217.50Q226 179 245.50 153.50Q265 128 297.50 116Q330 104 374 104Q430 104 470.50 125Q511 146 538.50 191.50Q566 237 581 308L659 700L787 700L707 299Q676 145 589 67.50Q502-10 361-10Z"  horiz-adv-x="789" vert-adv-y="1000"  />

      
      <glyph glyph-name="uni1E78" unicode="&#x1E78;" d="M361-10Q262-10 196 29Q130 68 103.50 138.50Q77 209 96 305L175 700L305 700L226 307Q217 256 221.50 217.50Q226 179 245.50 153.50Q265 128 297.50 116Q330 104 374 104Q430 104 470.50 125Q511 146 538.50 191.50Q566 237 581 308L659 700L787 700L707 299Q676 145 589 67.50Q502-10 361-10Z"  horiz-adv-x="789" vert-adv-y="1000"  />

      
      <glyph glyph-name="uni56" unicode="&#x56;" d="M247 0L82 700L216 700L363 67L280 67L685 700L820 700L375 0L247 0Z"  horiz-adv-x="729" vert-adv-y="1000"  />

      
      <glyph glyph-name="uni57" unicode="&#x57;" d="M205 0L113 700L242 700L324 68L257 68L598 700L719 700L800 68L737 68L1075 700L1204 700L833 0L694 0L616 570L655 570L344 0L205 0Z"  horiz-adv-x="1144" vert-adv-y="1000"  />

      
      <glyph glyph-name="uni1E82" unicode="&#x1E82;" d="M205 0L113 700L242 700L324 68L257 68L598 700L719 700L800 68L737 68L1075 700L1204 700L833 0L694 0L616 570L655 570L344 0L205 0Z"  horiz-adv-x="1144" vert-adv-y="1000"  />

      
      <glyph glyph-name="uni0174" unicode="&#x0174;" d="M205 0L113 700L242 700L324 68L257 68L598 700L719 700L800 68L737 68L1075 700L1204 700L833 0L694 0L616 570L655 570L344 0L205 0Z"  horiz-adv-x="1144" vert-adv-y="1000"  />

      
      <glyph glyph-name="uni1E84" unicode="&#x1E84;" d="M205 0L113 700L242 700L324 68L257 68L598 700L719 700L800 68L737 68L1075 700L1204 700L833 0L694 0L616 570L655 570L344 0L205 0Z"  horiz-adv-x="1144" vert-adv-y="1000"  />

      
      <glyph glyph-name="uni1E80" unicode="&#x1E80;" d="M205 0L113 700L242 700L324 68L257 68L598 700L719 700L800 68L737 68L1075 700L1204 700L833 0L694 0L616 570L655 570L344 0L205 0Z"  horiz-adv-x="1144" vert-adv-y="1000"  />

      
      <glyph glyph-name="uni58" unicode="&#x58;" d="M-44 0L325 397L316 323L111 700L249 700L403 413L345 416L607 700L755 700L408 324L411 398L629 0L490 0L327 305L386 302L112 0L-44 0Z"  horiz-adv-x="693" vert-adv-y="1000"  />

      
      <glyph glyph-name="uni59" unicode="&#x59;" d="M212 0L267 279L282 195L78 700L207 700L370 296L294 295L621 700L757 700L353 194L397 279L341 0L212 0Z"  horiz-adv-x="661" vert-adv-y="1000"  />

      
      <glyph glyph-name="unidd" unicode="&#xdd;" d="M212 0L267 279L282 195L78 700L207 700L370 296L294 295L621 700L757 700L353 194L397 279L341 0L212 0Z"  horiz-adv-x="661" vert-adv-y="1000"  />

      
      <glyph glyph-name="uni0176" unicode="&#x0176;" d="M212 0L267 279L282 195L78 700L207 700L370 296L294 295L621 700L757 700L353 194L397 279L341 0L212 0Z"  horiz-adv-x="661" vert-adv-y="1000"  />

      
      <glyph glyph-name="uni0178" unicode="&#x0178;" d="M212 0L267 279L282 195L78 700L207 700L370 296L294 295L621 700L757 700L353 194L397 279L341 0L212 0Z"  horiz-adv-x="661" vert-adv-y="1000"  />

      
      <glyph glyph-name="uni1E8E" unicode="&#x1E8E;" d="M212 0L267 279L282 195L78 700L207 700L370 296L294 295L621 700L757 700L353 194L397 279L341 0L212 0Z"  horiz-adv-x="661" vert-adv-y="1000"  />

      
      <glyph glyph-name="uni1EF4" unicode="&#x1EF4;" d="M212 0L267 279L282 195L78 700L207 700L370 296L294 295L621 700L757 700L353 194L397 279L341 0L212 0M242-203Q218-203 202.50-188Q187-173 187-149Q187-121 207-102Q227-83 254-83Q277-83 293-97.50Q309-112 309-136Q309-166 290-184.50Q271-203 242-203Z"  horiz-adv-x="661" vert-adv-y="1000"  />

      
      <glyph glyph-name="uni1EF2" unicode="&#x1EF2;" d="M212 0L267 279L282 195L78 700L207 700L370 296L294 295L621 700L757 700L353 194L397 279L341 0L212 0Z"  horiz-adv-x="661" vert-adv-y="1000"  />

      
      <glyph glyph-name="uni1EF6" unicode="&#x1EF6;" d="M212 0L267 279L282 195L78 700L207 700L370 296L294 295L621 700L757 700L353 194L397 279L341 0L212 0Z"  horiz-adv-x="661" vert-adv-y="1000"  />

      
      <glyph glyph-name="uni0232" unicode="&#x0232;" d="M212 0L267 279L282 195L78 700L207 700L370 296L294 295L621 700L757 700L353 194L397 279L341 0L212 0Z"  horiz-adv-x="661" vert-adv-y="1000"  />

      
      <glyph glyph-name="uni1EF8" unicode="&#x1EF8;" d="M212 0L267 279L282 195L78 700L207 700L370 296L294 295L621 700L757 700L353 194L397 279L341 0L212 0Z"  horiz-adv-x="661" vert-adv-y="1000"  />

      
      <glyph glyph-name="uni5a" unicode="&#x5a;" d="M-14 0L3 87L561 639L572 590L114 590L137 700L713 700L695 613L138 61L126 110L606 110L584 0L-14 0Z"  horiz-adv-x="663" vert-adv-y="1000"  />

      
      <glyph glyph-name="uni0179" unicode="&#x0179;" d="M-14 0L3 87L561 639L572 590L114 590L137 700L713 700L695 613L138 61L126 110L606 110L584 0L-14 0Z"  horiz-adv-x="663" vert-adv-y="1000"  />

      
      <glyph glyph-name="uni017D" unicode="&#x017D;" d="M-14 0L3 87L561 639L572 590L114 590L137 700L713 700L695 613L138 61L126 110L606 110L584 0L-14 0Z"  horiz-adv-x="663" vert-adv-y="1000"  />

      
      <glyph glyph-name="uni017B" unicode="&#x017B;" d="M-14 0L3 87L561 639L572 590L114 590L137 700L713 700L695 613L138 61L126 110L606 110L584 0L-14 0Z"  horiz-adv-x="663" vert-adv-y="1000"  />

      
      <glyph glyph-name="uni1E92" unicode="&#x1E92;" d="M-14 0L3 87L561 639L572 590L114 590L137 700L713 700L695 613L138 61L126 110L606 110L584 0L-14 0M256-203Q232-203 216.50-188Q201-173 201-149Q201-121 221-102Q241-83 268-83Q291-83 307-97.50Q323-112 323-136Q323-166 304-184.50Q285-203 256-203Z"  horiz-adv-x="663" vert-adv-y="1000"  />

      
      <glyph glyph-name="uni61" unicode="&#x61;" d="M269-7Q204-7 150.50 21Q97 49 65.50 101.50Q34 154 34 228Q34 296 56.50 353Q79 410 120 452Q161 494 215.50 517Q270 540 335 540Q402 540 450.50 516Q499 492 524 443.50Q549 395 547 323Q545 224 511 149.50Q477 75 416 34Q355-7 269-7M301 100Q355 100 396 125.50Q437 151 461 196Q485 241 485 300Q485 362 448 398Q411 434 344 434Q291 434 249.50 408.50Q208 383 184 338Q160 293 160 234Q160 172 197 136Q234 100 301 100M432 0L456 122L490 264L507 407L532 534L657 534L551 0L432 0Z"  horiz-adv-x="686" vert-adv-y="1000"  />

      
      <glyph glyph-name="unie1" unicode="&#xe1;" d="M269-7Q204-7 150.50 21Q97 49 65.50 101.50Q34 154 34 228Q34 296 56.50 353Q79 410 120 452Q161 494 215.50 517Q270 540 335 540Q402 540 450.50 516Q499 492 524 443.50Q549 395 547 323Q545 224 511 149.50Q477 75 416 34Q355-7 269-7M301 100Q355 100 396 125.50Q437 151 461 196Q485 241 485 300Q485 362 448 398Q411 434 344 434Q291 434 249.50 408.50Q208 383 184 338Q160 293 160 234Q160 172 197 136Q234 100 301 100M432 0L456 122L490 264L507 407L532 534L657 534L551 0L432 0M324 607L475 744L625 744L436 607L324 607Z"  horiz-adv-x="686" vert-adv-y="1000"  />

      
      <glyph glyph-name="uni0103" unicode="&#x0103;" d="M269-7Q204-7 150.50 21Q97 49 65.50 101.50Q34 154 34 228Q34 296 56.50 353Q79 410 120 452Q161 494 215.50 517Q270 540 335 540Q402 540 450.50 516Q499 492 524 443.50Q549 395 547 323Q545 224 511 149.50Q477 75 416 34Q355-7 269-7M301 100Q355 100 396 125.50Q437 151 461 196Q485 241 485 300Q485 362 448 398Q411 434 344 434Q291 434 249.50 408.50Q208 383 184 338Q160 293 160 234Q160 172 197 136Q234 100 301 100M432 0L456 122L490 264L507 407L532 534L657 534L551 0L432 0M420 600Q373 600 336 617.50Q299 635 279.50 667.50Q260 700 263 744L343 744Q342 709 365 689Q388 669 427 669Q466 669 493 689Q520 709 526 744L610 744Q598 678 545.50 639Q493 600 420 600Z"  horiz-adv-x="686" vert-adv-y="1000"  />

      
      <glyph glyph-name="uni1EAF" unicode="&#x1EAF;" d="M269-7Q204-7 150.50 21Q97 49 65.50 101.50Q34 154 34 228Q34 296 56.50 353Q79 410 120 452Q161 494 215.50 517Q270 540 335 540Q402 540 450.50 516Q499 492 524 443.50Q549 395 547 323Q545 224 511 149.50Q477 75 416 34Q355-7 269-7M301 100Q355 100 396 125.50Q437 151 461 196Q485 241 485 300Q485 362 448 398Q411 434 344 434Q291 434 249.50 408.50Q208 383 184 338Q160 293 160 234Q160 172 197 136Q234 100 301 100M432 0L456 122L490 264L507 407L532 534L657 534L551 0L432 0Z"  horiz-adv-x="686" vert-adv-y="1000"  />

      
      <glyph glyph-name="uni1EB7" unicode="&#x1EB7;" d="M269-7Q204-7 150.50 21Q97 49 65.50 101.50Q34 154 34 228Q34 296 56.50 353Q79 410 120 452Q161 494 215.50 517Q270 540 335 540Q402 540 450.50 516Q499 492 524 443.50Q549 395 547 323Q545 224 511 149.50Q477 75 416 34Q355-7 269-7M301 100Q355 100 396 125.50Q437 151 461 196Q485 241 485 300Q485 362 448 398Q411 434 344 434Q291 434 249.50 408.50Q208 383 184 338Q160 293 160 234Q160 172 197 136Q234 100 301 100M432 0L456 122L490 264L507 407L532 534L657 534L551 0L432 0M254-203Q230-203 214.50-188Q199-173 199-149Q199-121 219-102Q239-83 266-83Q289-83 305-97.50Q321-112 321-136Q321-166 302-184.50Q283-203 254-203M420 600Q373 600 336 617.50Q299 635 279.50 667.50Q260 700 263 744L343 744Q342 709 365 689Q388 669 427 669Q466 669 493 689Q520 709 526 744L610 744Q598 678 545.50 639Q493 600 420 600Z"  horiz-adv-x="686" vert-adv-y="1000"  />

      
      </font>
</defs>
</svg>
