<?xml version="1.0" standalone="no"?>
  <!DOCTYPE svg PUBLIC "-//W3C//DTD SVG 1.1//EN" "http://www.w3.org/Graphics/SVG/1.1/DTD/svg11.dtd" >
  <svg>
  <metadata>
  Created by font-carrier
  </metadata>
  <defs>
  <font id="Montserrat-ThinItalic" horiz-adv-x="1566" vert-adv-y="1566" >
    <font-face
      
      font-family="Montserrat Thin"
      
      font-weight="400"
      
      font-stretch="normal"
      
      units-per-em="1000"
      
      ascent="968"
      
      descent="-251"
      
    />
      <missing-glyph />

      

      
      <glyph glyph-name="uni41" unicode="&#x41;" d="M-43 0L422 700L442 700L627 0L606 0L426 684L435 684L-19 0L-43 0M106 211L120 230L555 230L561 211L106 211Z"  horiz-adv-x="688" vert-adv-y="1000"  />

      
      <glyph glyph-name="unic1" unicode="&#xc1;" d="M-43 0L422 700L442 700L627 0L606 0L426 684L435 684L-19 0L-43 0M106 211L120 230L555 230L561 211L106 211Z"  horiz-adv-x="688" vert-adv-y="1000"  />

      
      <glyph glyph-name="uni0102" unicode="&#x0102;" d="M-43 0L422 700L442 700L627 0L606 0L426 684L435 684L-19 0L-43 0M106 211L120 230L555 230L561 211L106 211Z"  horiz-adv-x="688" vert-adv-y="1000"  />

      
      <glyph glyph-name="uni1EAE" unicode="&#x1EAE;" d="M-43 0L422 700L442 700L627 0L606 0L426 684L435 684L-19 0L-43 0M106 211L120 230L555 230L561 211L106 211Z"  horiz-adv-x="688" vert-adv-y="1000"  />

      
      <glyph glyph-name="uni1EB6" unicode="&#x1EB6;" d="M-43 0L422 700L442 700L627 0L606 0L426 684L435 684L-19 0L-43 0M106 211L120 230L555 230L561 211L106 211M257-176Q247-176 240.50-168Q234-160 236-150Q238-139 247.50-131.50Q257-124 267-124Q278-124 284-131.50Q290-139 288-150Q286-160 277-168Q268-176 257-176Z"  horiz-adv-x="688" vert-adv-y="1000"  />

      
      <glyph glyph-name="uni1EB0" unicode="&#x1EB0;" d="M-43 0L422 700L442 700L627 0L606 0L426 684L435 684L-19 0L-43 0M106 211L120 230L555 230L561 211L106 211Z"  horiz-adv-x="688" vert-adv-y="1000"  />

      
      <glyph glyph-name="uni1EB2" unicode="&#x1EB2;" d="M-43 0L422 700L442 700L627 0L606 0L426 684L435 684L-19 0L-43 0M106 211L120 230L555 230L561 211L106 211Z"  horiz-adv-x="688" vert-adv-y="1000"  />

      
      <glyph glyph-name="uni1EB4" unicode="&#x1EB4;" d="M-43 0L422 700L442 700L627 0L606 0L426 684L435 684L-19 0L-43 0M106 211L120 230L555 230L561 211L106 211Z"  horiz-adv-x="688" vert-adv-y="1000"  />

      
      <glyph glyph-name="uni01CD" unicode="&#x01CD;" d="M-43 0L422 700L442 700L627 0L606 0L426 684L435 684L-19 0L-43 0M106 211L120 230L555 230L561 211L106 211Z"  horiz-adv-x="688" vert-adv-y="1000"  />

      
      <glyph glyph-name="unic2" unicode="&#xc2;" d="M-43 0L422 700L442 700L627 0L606 0L426 684L435 684L-19 0L-43 0M106 211L120 230L555 230L561 211L106 211Z"  horiz-adv-x="688" vert-adv-y="1000"  />

      
      <glyph glyph-name="uni1EA4" unicode="&#x1EA4;" d="M-43 0L422 700L442 700L627 0L606 0L426 684L435 684L-19 0L-43 0M106 211L120 230L555 230L561 211L106 211Z"  horiz-adv-x="688" vert-adv-y="1000"  />

      
      <glyph glyph-name="uni1EAC" unicode="&#x1EAC;" d="M-43 0L422 700L442 700L627 0L606 0L426 684L435 684L-19 0L-43 0M106 211L120 230L555 230L561 211L106 211M257-176Q247-176 240.50-168Q234-160 236-150Q238-139 247.50-131.50Q257-124 267-124Q278-124 284-131.50Q290-139 288-150Q286-160 277-168Q268-176 257-176Z"  horiz-adv-x="688" vert-adv-y="1000"  />

      
      <glyph glyph-name="uni1EA6" unicode="&#x1EA6;" d="M-43 0L422 700L442 700L627 0L606 0L426 684L435 684L-19 0L-43 0M106 211L120 230L555 230L561 211L106 211Z"  horiz-adv-x="688" vert-adv-y="1000"  />

      
      <glyph glyph-name="uni1EA8" unicode="&#x1EA8;" d="M-43 0L422 700L442 700L627 0L606 0L426 684L435 684L-19 0L-43 0M106 211L120 230L555 230L561 211L106 211Z"  horiz-adv-x="688" vert-adv-y="1000"  />

      
      <glyph glyph-name="uni1EAA" unicode="&#x1EAA;" d="M-43 0L422 700L442 700L627 0L606 0L426 684L435 684L-19 0L-43 0M106 211L120 230L555 230L561 211L106 211Z"  horiz-adv-x="688" vert-adv-y="1000"  />

      
      <glyph glyph-name="uni0200" unicode="&#x0200;" d="M-43 0L422 700L442 700L627 0L606 0L426 684L435 684L-19 0L-43 0M106 211L120 230L555 230L561 211L106 211Z"  horiz-adv-x="688" vert-adv-y="1000"  />

      
      <glyph glyph-name="unic4" unicode="&#xc4;" d="M-43 0L422 700L442 700L627 0L606 0L426 684L435 684L-19 0L-43 0M106 211L120 230L555 230L561 211L106 211Z"  horiz-adv-x="688" vert-adv-y="1000"  />

      
      <glyph glyph-name="uni1EA0" unicode="&#x1EA0;" d="M-43 0L422 700L442 700L627 0L606 0L426 684L435 684L-19 0L-43 0M106 211L120 230L555 230L561 211L106 211M257-176Q247-176 240.50-168Q234-160 236-150Q238-139 247.50-131.50Q257-124 267-124Q278-124 284-131.50Q290-139 288-150Q286-160 277-168Q268-176 257-176Z"  horiz-adv-x="688" vert-adv-y="1000"  />

      
      <glyph glyph-name="unic0" unicode="&#xc0;" d="M-43 0L422 700L442 700L627 0L606 0L426 684L435 684L-19 0L-43 0M106 211L120 230L555 230L561 211L106 211Z"  horiz-adv-x="688" vert-adv-y="1000"  />

      
      <glyph glyph-name="uni1EA2" unicode="&#x1EA2;" d="M-43 0L422 700L442 700L627 0L606 0L426 684L435 684L-19 0L-43 0M106 211L120 230L555 230L561 211L106 211Z"  horiz-adv-x="688" vert-adv-y="1000"  />

      
      <glyph glyph-name="uni0202" unicode="&#x0202;" d="M-43 0L422 700L442 700L627 0L606 0L426 684L435 684L-19 0L-43 0M106 211L120 230L555 230L561 211L106 211Z"  horiz-adv-x="688" vert-adv-y="1000"  />

      
      <glyph glyph-name="uni0100" unicode="&#x0100;" d="M-43 0L422 700L442 700L627 0L606 0L426 684L435 684L-19 0L-43 0M106 211L120 230L555 230L561 211L106 211Z"  horiz-adv-x="688" vert-adv-y="1000"  />

      
      <glyph glyph-name="uni0104" unicode="&#x0104;" d="M-43 0L422 700L442 700L627 0L606 0L426 684L435 684L-19 0L-43 0M106 211L120 230L555 230L561 211L106 211M528-213Q494-213 473-194.50Q452-176 452-144Q452-114 469-86.50Q486-59 523.50-33Q561-7 620 16L627 0Q575-20 540.50-43Q506-66 489-90.50Q472-115 472-142Q472-167 487-180.50Q502-194 529-194Q548-194 566.50-187.50Q585-181 600-169L608-186Q591-199 570.50-206Q550-213 528-213Z"  horiz-adv-x="688" vert-adv-y="1000"  />

      
      <glyph glyph-name="unic5" unicode="&#xc5;" d="M-43 0L422 700L442 700L627 0L606 0L426 684L435 684L-19 0L-43 0M106 211L120 230L555 230L561 211L106 211M467 780Q440 780 419.50 792.50Q399 805 387 825.50Q375 846 375 870Q375 895 387 916Q399 937 420 950Q441 963 467 963Q494 963 515 950Q536 937 548 916Q560 895 560 870Q560 846 548 825.50Q536 805 515 792.50Q494 780 467 780M467 799Q499 799 519.50 820Q540 841 540 870Q540 900 519.50 922Q499 944 467 944Q436 944 415.50 922.50Q395 901 395 870Q395 840 415 819.50Q435 799 467 799Z"  horiz-adv-x="688" vert-adv-y="1000"  />

      
      <glyph glyph-name="uni01FA" unicode="&#x01FA;" d="M-43 0L422 700L442 700L627 0L606 0L426 684L435 684L-19 0L-43 0M106 211L120 230L555 230L561 211L106 211M467 780Q440 780 419.50 792.50Q399 805 387 825.50Q375 846 375 870Q375 895 387 916Q399 937 420 950Q441 963 467 963Q494 963 515 950Q536 937 548 916Q560 895 560 870Q560 846 548 825.50Q536 805 515 792.50Q494 780 467 780M467 799Q499 799 519.50 820Q540 841 540 870Q540 900 519.50 922Q499 944 467 944Q436 944 415.50 922.50Q395 901 395 870Q395 840 415 819.50Q435 799 467 799M535 928L514 937L603 1021L620 1008L535 928Z"  horiz-adv-x="688" vert-adv-y="1000"  />

      
      <glyph glyph-name="unic3" unicode="&#xc3;" d="M-43 0L422 700L442 700L627 0L606 0L426 684L435 684L-19 0L-43 0M106 211L120 230L555 230L561 211L106 211Z"  horiz-adv-x="688" vert-adv-y="1000"  />

      
      <glyph glyph-name="unic6" unicode="&#xc6;" d="M-43 0L540 700L563 700L559 681L537 681L553 685L-18 0L-43 0M143 211L157 230L469 230L465 211L143 211M418 0L558 700L1009 700L1005 681L574 681L442 19L888 19L884 0L418 0M502 346L506 365L897 365L893 346L502 346Z"  horiz-adv-x="1005" vert-adv-y="1000"  />

      
      <glyph glyph-name="uni01FC" unicode="&#x01FC;" d="M-43 0L540 700L563 700L559 681L537 681L553 685L-18 0L-43 0M143 211L157 230L469 230L465 211L143 211M418 0L558 700L1009 700L1005 681L574 681L442 19L888 19L884 0L418 0M502 346L506 365L897 365L893 346L502 346Z"  horiz-adv-x="1005" vert-adv-y="1000"  />

      
      <glyph glyph-name="uni42" unicode="&#x42;" d="M81 0L221 700L498 700Q592 700 646.50 664.50Q701 629 701 559Q701 490 667.50 443.50Q634 397 577.50 374Q521 351 452 351L471 362Q565 362 618.50 325.50Q672 289 672 214Q672 146 638 98Q604 50 539.50 25Q475 0 382 0L81 0M105 19L386 19Q514 19 583 69Q652 119 652 212Q652 284 602.50 315Q553 346 455 346L165 346L169 365L435 365Q506 365 561.50 386.50Q617 408 649 450.50Q681 493 681 556Q681 618 633 649.50Q585 681 498 681L237 681L105 19Z"  horiz-adv-x="748" vert-adv-y="1000"  />

      
      <glyph glyph-name="uni43" unicode="&#x43;" d="M386-3Q284-3 214 32.50Q144 68 107.50 132Q71 196 71 280Q71 364 99.50 440Q128 516 182.50 575.50Q237 635 315 669Q393 703 492 703Q571 703 631.50 680Q692 657 727 615L713 602Q677 643 621.50 663.50Q566 684 490 684Q399 684 325 652Q251 620 199 564Q147 508 119 435Q91 362 91 280Q91 202 124.50 142.50Q158 83 224 49.50Q290 16 388 16Q465 16 526.50 38.50Q588 61 632 102L644 86Q601 46 533 21.50Q465-3 386-3Z"  horiz-adv-x="711" vert-adv-y="1000"  />

      
      <glyph glyph-name="uni0106" unicode="&#x0106;" d="M386-3Q284-3 214 32.50Q144 68 107.50 132Q71 196 71 280Q71 364 99.50 440Q128 516 182.50 575.50Q237 635 315 669Q393 703 492 703Q571 703 631.50 680Q692 657 727 615L713 602Q677 643 621.50 663.50Q566 684 490 684Q399 684 325 652Q251 620 199 564Q147 508 119 435Q91 362 91 280Q91 202 124.50 142.50Q158 83 224 49.50Q290 16 388 16Q465 16 526.50 38.50Q588 61 632 102L644 86Q601 46 533 21.50Q465-3 386-3Z"  horiz-adv-x="711" vert-adv-y="1000"  />

      
      <glyph glyph-name="uni010C" unicode="&#x010C;" d="M386-3Q284-3 214 32.50Q144 68 107.50 132Q71 196 71 280Q71 364 99.50 440Q128 516 182.50 575.50Q237 635 315 669Q393 703 492 703Q571 703 631.50 680Q692 657 727 615L713 602Q677 643 621.50 663.50Q566 684 490 684Q399 684 325 652Q251 620 199 564Q147 508 119 435Q91 362 91 280Q91 202 124.50 142.50Q158 83 224 49.50Q290 16 388 16Q465 16 526.50 38.50Q588 61 632 102L644 86Q601 46 533 21.50Q465-3 386-3Z"  horiz-adv-x="711" vert-adv-y="1000"  />

      
      <glyph glyph-name="unic7" unicode="&#xc7;" d="M386-3Q284-3 214 32.50Q144 68 107.50 132Q71 196 71 280Q71 364 99.50 440Q128 516 182.50 575.50Q237 635 315 669Q393 703 492 703Q571 703 631.50 680Q692 657 727 615L713 602Q677 643 621.50 663.50Q566 684 490 684Q399 684 325 652Q251 620 199 564Q147 508 119 435Q91 362 91 280Q91 202 124.50 142.50Q158 83 224 49.50Q290 16 388 16Q465 16 526.50 38.50Q588 61 632 102L644 86Q601 46 533 21.50Q465-3 386-3M317-213Q295-213 274.50-206.50Q254-200 239-186L253-171Q265-182 281-188Q297-194 318-194Q353-194 374-174.50Q395-155 395-124Q395-101 378.50-87.50Q362-74 333-74L319-74L357 5L376 5L347-56Q379-59 397.50-77Q416-95 416-124Q416-161 388.50-187Q361-213 317-213Z"  horiz-adv-x="711" vert-adv-y="1000"  />

      
      <glyph glyph-name="uni1E08" unicode="&#x1E08;" d="M386-3Q284-3 214 32.50Q144 68 107.50 132Q71 196 71 280Q71 364 99.50 440Q128 516 182.50 575.50Q237 635 315 669Q393 703 492 703Q571 703 631.50 680Q692 657 727 615L713 602Q677 643 621.50 663.50Q566 684 490 684Q399 684 325 652Q251 620 199 564Q147 508 119 435Q91 362 91 280Q91 202 124.50 142.50Q158 83 224 49.50Q290 16 388 16Q465 16 526.50 38.50Q588 61 632 102L644 86Q601 46 533 21.50Q465-3 386-3M317-213Q295-213 274.50-206.50Q254-200 239-186L253-171Q265-182 281-188Q297-194 318-194Q353-194 374-174.50Q395-155 395-124Q395-101 378.50-87.50Q362-74 333-74L319-74L357 5L376 5L347-56Q379-59 397.50-77Q416-95 416-124Q416-161 388.50-187Q361-213 317-213Z"  horiz-adv-x="711" vert-adv-y="1000"  />

      
      <glyph glyph-name="uni0108" unicode="&#x0108;" d="M386-3Q284-3 214 32.50Q144 68 107.50 132Q71 196 71 280Q71 364 99.50 440Q128 516 182.50 575.50Q237 635 315 669Q393 703 492 703Q571 703 631.50 680Q692 657 727 615L713 602Q677 643 621.50 663.50Q566 684 490 684Q399 684 325 652Q251 620 199 564Q147 508 119 435Q91 362 91 280Q91 202 124.50 142.50Q158 83 224 49.50Q290 16 388 16Q465 16 526.50 38.50Q588 61 632 102L644 86Q601 46 533 21.50Q465-3 386-3Z"  horiz-adv-x="711" vert-adv-y="1000"  />

      
      <glyph glyph-name="uni010A" unicode="&#x010A;" d="M386-3Q284-3 214 32.50Q144 68 107.50 132Q71 196 71 280Q71 364 99.50 440Q128 516 182.50 575.50Q237 635 315 669Q393 703 492 703Q571 703 631.50 680Q692 657 727 615L713 602Q677 643 621.50 663.50Q566 684 490 684Q399 684 325 652Q251 620 199 564Q147 508 119 435Q91 362 91 280Q91 202 124.50 142.50Q158 83 224 49.50Q290 16 388 16Q465 16 526.50 38.50Q588 61 632 102L644 86Q601 46 533 21.50Q465-3 386-3Z"  horiz-adv-x="711" vert-adv-y="1000"  />

      
      <glyph glyph-name="uni44" unicode="&#x44;" d="M81 0L221 700L472 700Q577 700 648.50 665Q720 630 756.50 567Q793 504 793 420Q793 329 762.50 252Q732 175 675 118.50Q618 62 537.50 31Q457 0 357 0L81 0M105 19L359 19Q486 19 578.50 70.50Q671 122 722 212.50Q773 303 773 420Q773 498 739.50 557Q706 616 639 648.50Q572 681 470 681L237 681L105 19Z"  horiz-adv-x="826" vert-adv-y="1000"  />

      
      <glyph glyph-name="uni01C4" unicode="&#x01C4;" d="M81 0L221 700L472 700Q577 700 648.50 665Q720 630 756.50 567Q793 504 793 420Q793 329 762.50 252Q732 175 675 118.50Q618 62 537.50 31Q457 0 357 0L81 0M105 19L359 19Q486 19 578.50 70.50Q671 122 722 212.50Q773 303 773 420Q773 498 739.50 557Q706 616 639 648.50Q572 681 470 681L237 681L105 19Z"  horiz-adv-x="1461" vert-adv-y="1000"  />

      
      <glyph glyph-name="unid0" unicode="&#xd0;" d="M81 0L221 700L472 700Q577 700 648.50 665Q720 630 756.50 567Q793 504 793 420Q793 329 762.50 252Q732 175 675 118.50Q618 62 537.50 31Q457 0 357 0L81 0M105 19L359 19Q486 19 578.50 70.50Q671 122 722 212.50Q773 303 773 420Q773 498 739.50 557Q706 616 639 648.50Q572 681 470 681L237 681L105 19M37 346L41 365L401 365L397 346L37 346Z"  horiz-adv-x="826" vert-adv-y="1000"  />

      
      <glyph glyph-name="uni010E" unicode="&#x010E;" d="M81 0L221 700L472 700Q577 700 648.50 665Q720 630 756.50 567Q793 504 793 420Q793 329 762.50 252Q732 175 675 118.50Q618 62 537.50 31Q457 0 357 0L81 0M105 19L359 19Q486 19 578.50 70.50Q671 122 722 212.50Q773 303 773 420Q773 498 739.50 557Q706 616 639 648.50Q572 681 470 681L237 681L105 19Z"  horiz-adv-x="826" vert-adv-y="1000"  />

      
      <glyph glyph-name="uni0110" unicode="&#x0110;" d="M81 0L221 700L472 700Q577 700 648.50 665Q720 630 756.50 567Q793 504 793 420Q793 329 762.50 252Q732 175 675 118.50Q618 62 537.50 31Q457 0 357 0L81 0M105 19L359 19Q486 19 578.50 70.50Q671 122 722 212.50Q773 303 773 420Q773 498 739.50 557Q706 616 639 648.50Q572 681 470 681L237 681L105 19M37 346L41 365L401 365L397 346L37 346Z"  horiz-adv-x="826" vert-adv-y="1000"  />

      
      <glyph glyph-name="uni1E0C" unicode="&#x1E0C;" d="M81 0L221 700L472 700Q577 700 648.50 665Q720 630 756.50 567Q793 504 793 420Q793 329 762.50 252Q732 175 675 118.50Q618 62 537.50 31Q457 0 357 0L81 0M105 19L359 19Q486 19 578.50 70.50Q671 122 722 212.50Q773 303 773 420Q773 498 739.50 557Q706 616 639 648.50Q572 681 470 681L237 681L105 19M309-176Q299-176 292.50-168Q286-160 288-150Q290-139 299.50-131.50Q309-124 319-124Q330-124 336-131.50Q342-139 340-150Q338-160 329-168Q320-176 309-176Z"  horiz-adv-x="826" vert-adv-y="1000"  />

      
      <glyph glyph-name="uni1E0E" unicode="&#x1E0E;" d="M81 0L221 700L472 700Q577 700 648.50 665Q720 630 756.50 567Q793 504 793 420Q793 329 762.50 252Q732 175 675 118.50Q618 62 537.50 31Q457 0 357 0L81 0M105 19L359 19Q486 19 578.50 70.50Q671 122 722 212.50Q773 303 773 420Q773 498 739.50 557Q706 616 639 648.50Q572 681 470 681L237 681L105 19M176-160L180-140L452-140L448-160L176-160Z"  horiz-adv-x="826" vert-adv-y="1000"  />

      
      <glyph glyph-name="uni01C5" unicode="&#x01C5;" d="M81 0L221 700L472 700Q577 700 648.50 665Q720 630 756.50 567Q793 504 793 420Q793 329 762.50 252Q732 175 675 118.50Q618 62 537.50 31Q457 0 357 0L81 0M105 19L359 19Q486 19 578.50 70.50Q671 122 722 212.50Q773 303 773 420Q773 498 739.50 557Q706 616 639 648.50Q572 681 470 681L237 681L105 19Z"  horiz-adv-x="1317" vert-adv-y="1000"  />

      
      <glyph glyph-name="uni45" unicode="&#x45;" d="M169 365L560 365L556 346L165 346L169 365M105 19L551 19L547 0L81 0L221 700L672 700L668 681L237 681L105 19Z"  horiz-adv-x="668" vert-adv-y="1000"  />

      
      <glyph glyph-name="unic9" unicode="&#xc9;" d="M169 365L560 365L556 346L165 346L169 365M105 19L551 19L547 0L81 0L221 700L672 700L668 681L237 681L105 19Z"  horiz-adv-x="668" vert-adv-y="1000"  />

      
      <glyph glyph-name="uni0114" unicode="&#x0114;" d="M169 365L560 365L556 346L165 346L169 365M105 19L551 19L547 0L81 0L221 700L672 700L668 681L237 681L105 19Z"  horiz-adv-x="668" vert-adv-y="1000"  />

      
      <glyph glyph-name="uni011A" unicode="&#x011A;" d="M169 365L560 365L556 346L165 346L169 365M105 19L551 19L547 0L81 0L221 700L672 700L668 681L237 681L105 19Z"  horiz-adv-x="668" vert-adv-y="1000"  />

      
      <glyph glyph-name="uni1E1C" unicode="&#x1E1C;" d="M169 365L560 365L556 346L165 346L169 365M105 19L551 19L547 0L81 0L221 700L672 700L668 681L237 681L105 19M275-213Q253-213 232.50-206.50Q212-200 197-186L211-171Q223-182 239-188Q255-194 276-194Q311-194 332-174.50Q353-155 353-124Q353-101 336.50-87.50Q320-74 291-74L277-74L315 5L334 5L305-56Q337-59 355.50-77Q374-95 374-124Q374-161 346.50-187Q319-213 275-213Z"  horiz-adv-x="668" vert-adv-y="1000"  />

      
      <glyph glyph-name="unica" unicode="&#xca;" d="M169 365L560 365L556 346L165 346L169 365M105 19L551 19L547 0L81 0L221 700L672 700L668 681L237 681L105 19Z"  horiz-adv-x="668" vert-adv-y="1000"  />

      
      <glyph glyph-name="uni1EBE" unicode="&#x1EBE;" d="M169 365L560 365L556 346L165 346L169 365M105 19L551 19L547 0L81 0L221 700L672 700L668 681L237 681L105 19Z"  horiz-adv-x="668" vert-adv-y="1000"  />

      
      <glyph glyph-name="uni1EC6" unicode="&#x1EC6;" d="M169 365L560 365L556 346L165 346L169 365M105 19L551 19L547 0L81 0L221 700L672 700L668 681L237 681L105 19M289-176Q279-176 272.50-168Q266-160 268-150Q270-139 279.50-131.50Q289-124 299-124Q310-124 316-131.50Q322-139 320-150Q318-160 309-168Q300-176 289-176Z"  horiz-adv-x="668" vert-adv-y="1000"  />

      
      <glyph glyph-name="uni1EC0" unicode="&#x1EC0;" d="M169 365L560 365L556 346L165 346L169 365M105 19L551 19L547 0L81 0L221 700L672 700L668 681L237 681L105 19Z"  horiz-adv-x="668" vert-adv-y="1000"  />

      
      <glyph glyph-name="uni1EC2" unicode="&#x1EC2;" d="M169 365L560 365L556 346L165 346L169 365M105 19L551 19L547 0L81 0L221 700L672 700L668 681L237 681L105 19Z"  horiz-adv-x="668" vert-adv-y="1000"  />

      
      <glyph glyph-name="uni1EC4" unicode="&#x1EC4;" d="M169 365L560 365L556 346L165 346L169 365M105 19L551 19L547 0L81 0L221 700L672 700L668 681L237 681L105 19Z"  horiz-adv-x="668" vert-adv-y="1000"  />

      
      <glyph glyph-name="uni0204" unicode="&#x0204;" d="M169 365L560 365L556 346L165 346L169 365M105 19L551 19L547 0L81 0L221 700L672 700L668 681L237 681L105 19Z"  horiz-adv-x="668" vert-adv-y="1000"  />

      
      <glyph glyph-name="unicb" unicode="&#xcb;" d="M169 365L560 365L556 346L165 346L169 365M105 19L551 19L547 0L81 0L221 700L672 700L668 681L237 681L105 19Z"  horiz-adv-x="668" vert-adv-y="1000"  />

      
      <glyph glyph-name="uni0116" unicode="&#x0116;" d="M169 365L560 365L556 346L165 346L169 365M105 19L551 19L547 0L81 0L221 700L672 700L668 681L237 681L105 19Z"  horiz-adv-x="668" vert-adv-y="1000"  />

      
      <glyph glyph-name="uni1EB8" unicode="&#x1EB8;" d="M169 365L560 365L556 346L165 346L169 365M105 19L551 19L547 0L81 0L221 700L672 700L668 681L237 681L105 19M289-176Q279-176 272.50-168Q266-160 268-150Q270-139 279.50-131.50Q289-124 299-124Q310-124 316-131.50Q322-139 320-150Q318-160 309-168Q300-176 289-176Z"  horiz-adv-x="668" vert-adv-y="1000"  />

      
      <glyph glyph-name="unic8" unicode="&#xc8;" d="M169 365L560 365L556 346L165 346L169 365M105 19L551 19L547 0L81 0L221 700L672 700L668 681L237 681L105 19Z"  horiz-adv-x="668" vert-adv-y="1000"  />

      
      <glyph glyph-name="uni1EBA" unicode="&#x1EBA;" d="M169 365L560 365L556 346L165 346L169 365M105 19L551 19L547 0L81 0L221 700L672 700L668 681L237 681L105 19Z"  horiz-adv-x="668" vert-adv-y="1000"  />

      
      <glyph glyph-name="uni0206" unicode="&#x0206;" d="M169 365L560 365L556 346L165 346L169 365M105 19L551 19L547 0L81 0L221 700L672 700L668 681L237 681L105 19Z"  horiz-adv-x="668" vert-adv-y="1000"  />

      
      <glyph glyph-name="uni0112" unicode="&#x0112;" d="M169 365L560 365L556 346L165 346L169 365M105 19L551 19L547 0L81 0L221 700L672 700L668 681L237 681L105 19Z"  horiz-adv-x="668" vert-adv-y="1000"  />

      
      <glyph glyph-name="uni1E16" unicode="&#x1E16;" d="M169 365L560 365L556 346L165 346L169 365M105 19L551 19L547 0L81 0L221 700L672 700L668 681L237 681L105 19Z"  horiz-adv-x="668" vert-adv-y="1000"  />

      
      <glyph glyph-name="uni1E14" unicode="&#x1E14;" d="M169 365L560 365L556 346L165 346L169 365M105 19L551 19L547 0L81 0L221 700L672 700L668 681L237 681L105 19Z"  horiz-adv-x="668" vert-adv-y="1000"  />

      
      <glyph glyph-name="uni0118" unicode="&#x0118;" d="M169 365L560 365L556 346L165 346L169 365M105 19L551 19L547 0L81 0L221 700L672 700L668 681L237 681L105 19M448-213Q414-213 393-194.50Q372-176 372-144Q372-114 389-86.50Q406-59 443.50-33Q481-7 540 16L547 0Q495-20 460.50-43Q426-66 409-90.50Q392-115 392-142Q392-167 407-180.50Q422-194 449-194Q468-194 486.50-187.50Q505-181 520-169L528-186Q511-199 490.50-206Q470-213 448-213Z"  horiz-adv-x="668" vert-adv-y="1000"  />

      
      <glyph glyph-name="uni1EBC" unicode="&#x1EBC;" d="M169 365L560 365L556 346L165 346L169 365M105 19L551 19L547 0L81 0L221 700L672 700L668 681L237 681L105 19Z"  horiz-adv-x="668" vert-adv-y="1000"  />

      
      <glyph glyph-name="uni01B7" unicode="&#x01B7;" d="M232-3Q150-3 89 25Q28 53 2 96L19 109Q42 69 97.50 42.50Q153 16 233 16Q308 16 363 41Q418 66 447.50 111Q477 156 477 216Q477 290 428 329Q379 368 277 368L249 368L252 383L542 687L545 681L142 681L146 700L569 700L566 685L275 380L272 387L277 387Q350 387 398.50 367Q447 347 472 309Q497 271 497 216Q497 151 464 101.50Q431 52 371.50 24.50Q312-3 232-3Z"  horiz-adv-x="576" vert-adv-y="1000"  />

      
      <glyph glyph-name="uni01EE" unicode="&#x01EE;" d="M232-3Q150-3 89 25Q28 53 2 96L19 109Q42 69 97.50 42.50Q153 16 233 16Q308 16 363 41Q418 66 447.50 111Q477 156 477 216Q477 290 428 329Q379 368 277 368L249 368L252 383L542 687L545 681L142 681L146 700L569 700L566 685L275 380L272 387L277 387Q350 387 398.50 367Q447 347 472 309Q497 271 497 216Q497 151 464 101.50Q431 52 371.50 24.50Q312-3 232-3Z"  horiz-adv-x="576" vert-adv-y="1000"  />

      
      <glyph glyph-name="uni46" unicode="&#x46;" d="M165 345L556 345L552 326L161 326L165 345M101 0L81 0L221 700L672 700L668 681L237 681L101 0Z"  horiz-adv-x="629" vert-adv-y="1000"  />

      
      <glyph glyph-name="uni47" unicode="&#x47;" d="M386-3Q284-3 214 32.50Q144 68 107.50 132Q71 196 71 280Q71 364 99.50 440Q128 516 182.50 575.50Q237 635 315 669Q393 703 492 703Q572 703 634.50 679.50Q697 656 732 614L718 601Q682 642 624.50 663Q567 684 490 684Q399 684 325 652Q251 620 199 564Q147 508 119 435Q91 362 91 280Q91 202 124.50 142.50Q158 83 224 49.50Q290 16 388 16Q459 16 515.50 39Q572 62 618 102L628 87Q584 47 521.50 22Q459-3 386-3M609 87L660 343L679 343L628 87L609 87Z"  horiz-adv-x="774" vert-adv-y="1000"  />

      
      <glyph glyph-name="uni011E" unicode="&#x011E;" d="M386-3Q284-3 214 32.50Q144 68 107.50 132Q71 196 71 280Q71 364 99.50 440Q128 516 182.50 575.50Q237 635 315 669Q393 703 492 703Q572 703 634.50 679.50Q697 656 732 614L718 601Q682 642 624.50 663Q567 684 490 684Q399 684 325 652Q251 620 199 564Q147 508 119 435Q91 362 91 280Q91 202 124.50 142.50Q158 83 224 49.50Q290 16 388 16Q459 16 515.50 39Q572 62 618 102L628 87Q584 47 521.50 22Q459-3 386-3M609 87L660 343L679 343L628 87L609 87Z"  horiz-adv-x="774" vert-adv-y="1000"  />

      
      <glyph glyph-name="uni01E6" unicode="&#x01E6;" d="M386-3Q284-3 214 32.50Q144 68 107.50 132Q71 196 71 280Q71 364 99.50 440Q128 516 182.50 575.50Q237 635 315 669Q393 703 492 703Q572 703 634.50 679.50Q697 656 732 614L718 601Q682 642 624.50 663Q567 684 490 684Q399 684 325 652Q251 620 199 564Q147 508 119 435Q91 362 91 280Q91 202 124.50 142.50Q158 83 224 49.50Q290 16 388 16Q459 16 515.50 39Q572 62 618 102L628 87Q584 47 521.50 22Q459-3 386-3M609 87L660 343L679 343L628 87L609 87Z"  horiz-adv-x="774" vert-adv-y="1000"  />

      
      <glyph glyph-name="uni011C" unicode="&#x011C;" d="M386-3Q284-3 214 32.50Q144 68 107.50 132Q71 196 71 280Q71 364 99.50 440Q128 516 182.50 575.50Q237 635 315 669Q393 703 492 703Q572 703 634.50 679.50Q697 656 732 614L718 601Q682 642 624.50 663Q567 684 490 684Q399 684 325 652Q251 620 199 564Q147 508 119 435Q91 362 91 280Q91 202 124.50 142.50Q158 83 224 49.50Q290 16 388 16Q459 16 515.50 39Q572 62 618 102L628 87Q584 47 521.50 22Q459-3 386-3M609 87L660 343L679 343L628 87L609 87Z"  horiz-adv-x="774" vert-adv-y="1000"  />

      
      <glyph glyph-name="uni0122" unicode="&#x0122;" d="M386-3Q284-3 214 32.50Q144 68 107.50 132Q71 196 71 280Q71 364 99.50 440Q128 516 182.50 575.50Q237 635 315 669Q393 703 492 703Q572 703 634.50 679.50Q697 656 732 614L718 601Q682 642 624.50 663Q567 684 490 684Q399 684 325 652Q251 620 199 564Q147 508 119 435Q91 362 91 280Q91 202 124.50 142.50Q158 83 224 49.50Q290 16 388 16Q459 16 515.50 39Q572 62 618 102L628 87Q584 47 521.50 22Q459-3 386-3M609 87L660 343L679 343L628 87L609 87M279-259L319-165L320-176Q310-176 302-168Q294-160 294-150Q294-139 301.50-131.50Q309-124 319-124Q331-124 338.50-131.50Q346-139 346-150Q346-158 344-164.50Q342-171 337-179L297-259L279-259Z"  horiz-adv-x="774" vert-adv-y="1000"  />

      
      <glyph glyph-name="uni0120" unicode="&#x0120;" d="M386-3Q284-3 214 32.50Q144 68 107.50 132Q71 196 71 280Q71 364 99.50 440Q128 516 182.50 575.50Q237 635 315 669Q393 703 492 703Q572 703 634.50 679.50Q697 656 732 614L718 601Q682 642 624.50 663Q567 684 490 684Q399 684 325 652Q251 620 199 564Q147 508 119 435Q91 362 91 280Q91 202 124.50 142.50Q158 83 224 49.50Q290 16 388 16Q459 16 515.50 39Q572 62 618 102L628 87Q584 47 521.50 22Q459-3 386-3M609 87L660 343L679 343L628 87L609 87Z"  horiz-adv-x="774" vert-adv-y="1000"  />

      
      <glyph glyph-name="uni1E20" unicode="&#x1E20;" d="M386-3Q284-3 214 32.50Q144 68 107.50 132Q71 196 71 280Q71 364 99.50 440Q128 516 182.50 575.50Q237 635 315 669Q393 703 492 703Q572 703 634.50 679.50Q697 656 732 614L718 601Q682 642 624.50 663Q567 684 490 684Q399 684 325 652Q251 620 199 564Q147 508 119 435Q91 362 91 280Q91 202 124.50 142.50Q158 83 224 49.50Q290 16 388 16Q459 16 515.50 39Q572 62 618 102L628 87Q584 47 521.50 22Q459-3 386-3M609 87L660 343L679 343L628 87L609 87Z"  horiz-adv-x="774" vert-adv-y="1000"  />

      
      <glyph glyph-name="uni01E4" unicode="&#x01E4;" d="M412 224L416 243L776 243L772 224L412 224M386-3Q284-3 214 32.50Q144 68 107.50 132Q71 196 71 280Q71 364 99.50 440Q128 516 182.50 575.50Q237 635 315 669Q393 703 492 703Q572 703 634.50 679.50Q697 656 732 614L718 601Q682 642 624.50 663Q567 684 490 684Q399 684 325 652Q251 620 199 564Q147 508 119 435Q91 362 91 280Q91 202 124.50 142.50Q158 83 224 49.50Q290 16 388 16Q459 16 515.50 39Q572 62 618 102L628 87Q584 47 521.50 22Q459-3 386-3M609 87L660 343L679 343L628 87L609 87Z"  horiz-adv-x="804" vert-adv-y="1000"  />

      
      <glyph glyph-name="uni48" unicode="&#x48;" d="M751 700L771 700L631 0L611 0L751 700M101 0L81 0L221 700L241 700L101 0M685 346L165 346L169 365L689 365L685 346Z"  horiz-adv-x="816" vert-adv-y="1000"  />

      
      <glyph glyph-name="uni0126" unicode="&#x0126;" d="M751 700L771 700L631 0L611 0L751 700M101 0L81 0L221 700L241 700L101 0M685 346L165 346L169 365L689 365L685 346M74 529L78 548L854 548L850 529L74 529Z"  horiz-adv-x="816" vert-adv-y="1000"  />

      
      <glyph glyph-name="uni1E2A" unicode="&#x1E2A;" d="M751 700L771 700L631 0L611 0L751 700M101 0L81 0L221 700L241 700L101 0M685 346L165 346L169 365L689 365L685 346M326-198Q290-198 261.50-184.50Q233-171 218-147Q203-123 205-90L224-90Q222-132 250-155.50Q278-179 327-179Q374-179 409-156Q444-133 450-90L469-90Q462-142 420.50-170Q379-198 326-198Z"  horiz-adv-x="816" vert-adv-y="1000"  />

      
      <glyph glyph-name="uni021E" unicode="&#x021E;" d="M751 700L771 700L631 0L611 0L751 700M101 0L81 0L221 700L241 700L101 0M685 346L165 346L169 365L689 365L685 346Z"  horiz-adv-x="816" vert-adv-y="1000"  />

      
      <glyph glyph-name="uni0124" unicode="&#x0124;" d="M751 700L771 700L631 0L611 0L751 700M101 0L81 0L221 700L241 700L101 0M685 346L165 346L169 365L689 365L685 346Z"  horiz-adv-x="816" vert-adv-y="1000"  />

      
      <glyph glyph-name="uni1E24" unicode="&#x1E24;" d="M751 700L771 700L631 0L611 0L751 700M101 0L81 0L221 700L241 700L101 0M685 346L165 346L169 365L689 365L685 346M321-176Q311-176 304.50-168Q298-160 300-150Q302-139 311.50-131.50Q321-124 331-124Q342-124 348-131.50Q354-139 352-150Q350-160 341-168Q332-176 321-176Z"  horiz-adv-x="816" vert-adv-y="1000"  />

      
      <glyph glyph-name="uni49" unicode="&#x49;" d="M81 0L221 700L241 700L101 0L81 0Z"  horiz-adv-x="286" vert-adv-y="1000"  />

      
      <glyph glyph-name="uni0132" unicode="&#x0132;" d="M289-3Q223-3 170.50 15Q118 33 81 61L94 78Q131 50 180.50 33Q230 16 289 16Q406 16 476 83.50Q546 151 574 294L655 700L675 700L593 290Q563 141 488.50 69Q414-3 289-3M133 290L215 700L235 700L153 290L133 290Z"  horiz-adv-x="714" vert-adv-y="1000"  />

      
      <glyph glyph-name="unicd" unicode="&#xcd;" d="M81 0L221 700L241 700L101 0L81 0Z"  horiz-adv-x="286" vert-adv-y="1000"  />

      
      <glyph glyph-name="uni012C" unicode="&#x012C;" d="M81 0L221 700L241 700L101 0L81 0Z"  horiz-adv-x="286" vert-adv-y="1000"  />

      
      <glyph glyph-name="unice" unicode="&#xce;" d="M81 0L221 700L241 700L101 0L81 0Z"  horiz-adv-x="286" vert-adv-y="1000"  />

      
      <glyph glyph-name="uni0208" unicode="&#x0208;" d="M81 0L221 700L241 700L101 0L81 0Z"  horiz-adv-x="286" vert-adv-y="1000"  />

      
      <glyph glyph-name="unicf" unicode="&#xcf;" d="M81 0L221 700L241 700L101 0L81 0Z"  horiz-adv-x="286" vert-adv-y="1000"  />

      
      <glyph glyph-name="uni1E2E" unicode="&#x1E2E;" d="M81 0L221 700L241 700L101 0L81 0Z"  horiz-adv-x="286" vert-adv-y="1000"  />

      
      <glyph glyph-name="uni0130" unicode="&#x0130;" d="M81 0L221 700L241 700L101 0L81 0Z"  horiz-adv-x="286" vert-adv-y="1000"  />

      
      <glyph glyph-name="uni1ECA" unicode="&#x1ECA;" d="M81 0L221 700L241 700L101 0L81 0M56-176Q46-176 39.50-168Q33-160 35-150Q37-139 46.50-131.50Q56-124 66-124Q77-124 83-131.50Q89-139 87-150Q85-160 76-168Q67-176 56-176Z"  horiz-adv-x="286" vert-adv-y="1000"  />

      
      <glyph glyph-name="unicc" unicode="&#xcc;" d="M81 0L221 700L241 700L101 0L81 0Z"  horiz-adv-x="286" vert-adv-y="1000"  />

      
      <glyph glyph-name="uni1EC8" unicode="&#x1EC8;" d="M81 0L221 700L241 700L101 0L81 0Z"  horiz-adv-x="286" vert-adv-y="1000"  />

      
      <glyph glyph-name="uni020A" unicode="&#x020A;" d="M81 0L221 700L241 700L101 0L81 0Z"  horiz-adv-x="286" vert-adv-y="1000"  />

      
      <glyph glyph-name="uni012A" unicode="&#x012A;" d="M81 0L221 700L241 700L101 0L81 0Z"  horiz-adv-x="286" vert-adv-y="1000"  />

      
      <glyph glyph-name="uni012E" unicode="&#x012E;" d="M81 0L221 700L241 700L101 0L81 0M53-213Q28-213 12.50-196.50Q-3-180-3-151Q-3-106 25-62.50Q53-19 93 14L101 0Q61-37 39-75Q17-113 17-150Q17-173 28-184Q39-195 56-195Q69-195 79-189.50Q89-184 97-175L106-189Q97-200 83-206.50Q69-213 53-213Z"  horiz-adv-x="286" vert-adv-y="1000"  />

      
      <glyph glyph-name="uni0128" unicode="&#x0128;" d="M81 0L221 700L241 700L101 0L81 0Z"  horiz-adv-x="286" vert-adv-y="1000"  />

      
      <glyph glyph-name="uni4a" unicode="&#x4a;" d="M137-3Q78-3 33.50 24.50Q-11 52-30 96L-12 106Q7 65 46 40.50Q85 16 140 16Q210 16 253.50 56Q297 96 317 196L414 681L152 681L156 700L438 700L336 190Q322 120 295.50 77.50Q269 35 229.50 16Q190-3 137-3Z"  horiz-adv-x="477" vert-adv-y="1000"  />

      
      <glyph glyph-name="uni0134" unicode="&#x0134;" d="M137-3Q78-3 33.50 24.50Q-11 52-30 96L-12 106Q7 65 46 40.50Q85 16 140 16Q210 16 253.50 56Q297 96 317 196L414 681L152 681L156 700L438 700L336 190Q322 120 295.50 77.50Q269 35 229.50 16Q190-3 137-3Z"  horiz-adv-x="477" vert-adv-y="1000"  />

      
      <glyph glyph-name="uni4b" unicode="&#x4b;" d="M133 182L140 213L712 700L742 700L361 376L353 369L133 182M81 0L221 700L241 700L101 0L81 0M601 0L340 377L357 387L625 0L601 0Z"  horiz-adv-x="693" vert-adv-y="1000"  />

      
      <glyph glyph-name="uni01E8" unicode="&#x01E8;" d="M133 182L140 213L712 700L742 700L361 376L353 369L133 182M81 0L221 700L241 700L101 0L81 0M601 0L340 377L357 387L625 0L601 0Z"  horiz-adv-x="693" vert-adv-y="1000"  />

      
      <glyph glyph-name="uni0136" unicode="&#x0136;" d="M133 182L140 213L712 700L742 700L361 376L353 369L133 182M81 0L221 700L241 700L101 0L81 0M601 0L340 377L357 387L625 0L601 0M247-259L287-165L288-176Q278-176 270-168Q262-160 262-150Q262-139 269.50-131.50Q277-124 287-124Q299-124 306.50-131.50Q314-139 314-150Q314-158 312-164.50Q310-171 305-179L265-259L247-259Z"  horiz-adv-x="693" vert-adv-y="1000"  />

      
      <glyph glyph-name="uni4c" unicode="&#x4c;" d="M81 0L221 700L241 700L105 19L522 19L518 0L81 0Z"  horiz-adv-x="580" vert-adv-y="1000"  />

      
      <glyph glyph-name="uni01C7" unicode="&#x01C7;" d="M81 0L221 700L241 700L105 19L522 19L518 0L81 0M717-3Q658-3 613.50 24.50Q569 52 550 96L568 106Q587 65 626 40.50Q665 16 720 16Q790 16 833.50 56Q877 96 897 196L994 681L732 681L736 700L1018 700L916 190Q902 120 875.50 77.50Q849 35 809.50 16Q770-3 717-3Z"  horiz-adv-x="1057" vert-adv-y="1000"  />

      
      <glyph glyph-name="uni0139" unicode="&#x0139;" d="M81 0L221 700L241 700L105 19L522 19L518 0L81 0Z"  horiz-adv-x="580" vert-adv-y="1000"  />

      
      <glyph glyph-name="uni013D" unicode="&#x013D;" d="M81 0L221 700L241 700L105 19L522 19L518 0L81 0M502 540L538 720L558 720L520 540L502 540Z"  horiz-adv-x="580" vert-adv-y="1000"  />

      
      <glyph glyph-name="uni013B" unicode="&#x013B;" d="M81 0L221 700L241 700L105 19L522 19L518 0L81 0M239-259L279-165L280-176Q270-176 262-168Q254-160 254-150Q254-139 261.50-131.50Q269-124 279-124Q291-124 298.50-131.50Q306-139 306-150Q306-158 304-164.50Q302-171 297-179L257-259L239-259Z"  horiz-adv-x="580" vert-adv-y="1000"  />

      
      <glyph glyph-name="uni013F" unicode="&#x013F;" d="M81 0L221 700L241 700L105 19L522 19L518 0L81 0M453 334Q443 334 435 342Q427 350 427 360Q427 371 435 378.50Q443 386 453 386Q464 386 471.50 378.50Q479 371 479 360Q479 350 471.50 342Q464 334 453 334Z"  horiz-adv-x="580" vert-adv-y="1000"  />

      
      <glyph glyph-name="uni1E36" unicode="&#x1E36;" d="M81 0L221 700L241 700L105 19L522 19L518 0L81 0M275-176Q265-176 258.50-168Q252-160 254-150Q256-139 265.50-131.50Q275-124 285-124Q296-124 302-131.50Q308-139 306-150Q304-160 295-168Q286-176 275-176Z"  horiz-adv-x="580" vert-adv-y="1000"  />

      
      <glyph glyph-name="uni01C8" unicode="&#x01C8;" d="M81 0L221 700L241 700L105 19L522 19L518 0L81 0Z"  horiz-adv-x="835" vert-adv-y="1000"  />

      
      <glyph glyph-name="uni1E3A" unicode="&#x1E3A;" d="M81 0L221 700L241 700L105 19L522 19L518 0L81 0M142-160L146-140L418-140L414-160L142-160Z"  horiz-adv-x="580" vert-adv-y="1000"  />

      
      <glyph glyph-name="uni0141" unicode="&#x0141;" d="M81 0L221 700L241 700L105 19L522 19L518 0L81 0M58 282L49 296L327 475L336 461L58 282Z"  horiz-adv-x="580" vert-adv-y="1000"  />

      
      <glyph glyph-name="uni4d" unicode="&#x4d;" d="M81 0L221 700L238 700L460 118L451 121L892 700L911 700L771 0L751 0L885 671L894 669L458 99L446 99L227 672L235 671L101 0L81 0Z"  horiz-adv-x="956" vert-adv-y="1000"  />

      
      <glyph glyph-name="uni1E42" unicode="&#x1E42;" d="M81 0L221 700L238 700L460 118L451 121L892 700L911 700L771 0L751 0L885 671L894 669L458 99L446 99L227 672L235 671L101 0L81 0M391-176Q381-176 374.50-168Q368-160 370-150Q372-139 381.50-131.50Q391-124 401-124Q412-124 418-131.50Q424-139 422-150Q420-160 411-168Q402-176 391-176Z"  horiz-adv-x="956" vert-adv-y="1000"  />

      
      <glyph glyph-name="uni4e" unicode="&#x4e;" d="M81 0L221 700L238 700L624 22L616 25L751 700L771 700L631 0L614 0L228 678L236 675L101 0L81 0Z"  horiz-adv-x="816" vert-adv-y="1000"  />

      
      <glyph glyph-name="uni01CA" unicode="&#x01CA;" d="M81 0L221 700L238 700L624 22L616 25L751 700L771 700L631 0L614 0L228 678L236 675L101 0L81 0M953-3Q894-3 849.50 24.50Q805 52 786 96L804 106Q823 65 862 40.50Q901 16 956 16Q1026 16 1069.50 56Q1113 96 1133 196L1230 681L968 681L972 700L1254 700L1152 190Q1138 120 1111.50 77.50Q1085 35 1045.50 16Q1006-3 953-3Z"  horiz-adv-x="1293" vert-adv-y="1000"  />

      
      <glyph glyph-name="uni0143" unicode="&#x0143;" d="M81 0L221 700L238 700L624 22L616 25L751 700L771 700L631 0L614 0L228 678L236 675L101 0L81 0Z"  horiz-adv-x="816" vert-adv-y="1000"  />

      
      <glyph glyph-name="uni0147" unicode="&#x0147;" d="M81 0L221 700L238 700L624 22L616 25L751 700L771 700L631 0L614 0L228 678L236 675L101 0L81 0Z"  horiz-adv-x="816" vert-adv-y="1000"  />

      
      <glyph glyph-name="uni0145" unicode="&#x0145;" d="M81 0L221 700L238 700L624 22L616 25L751 700L771 700L631 0L614 0L228 678L236 675L101 0L81 0M285-259L325-165L326-176Q316-176 308-168Q300-160 300-150Q300-139 307.50-131.50Q315-124 325-124Q337-124 344.50-131.50Q352-139 352-150Q352-158 350-164.50Q348-171 343-179L303-259L285-259Z"  horiz-adv-x="816" vert-adv-y="1000"  />

      
      <glyph glyph-name="uni1E44" unicode="&#x1E44;" d="M81 0L221 700L238 700L624 22L616 25L751 700L771 700L631 0L614 0L228 678L236 675L101 0L81 0Z"  horiz-adv-x="816" vert-adv-y="1000"  />

      
      <glyph glyph-name="uni1E46" unicode="&#x1E46;" d="M81 0L221 700L238 700L624 22L616 25L751 700L771 700L631 0L614 0L228 678L236 675L101 0L81 0M321-176Q311-176 304.50-168Q298-160 300-150Q302-139 311.50-131.50Q321-124 331-124Q342-124 348-131.50Q354-139 352-150Q350-160 341-168Q332-176 321-176Z"  horiz-adv-x="816" vert-adv-y="1000"  />

      
      <glyph glyph-name="uni014A" unicode="&#x014A;" d="M81 0L221 700L238 700L624 23L614 1L228 678L236 677L101 0L81 0M431-197Q372-197 327.50-169.50Q283-142 264-98L282-88Q301-129 340-153.50Q379-178 434-178Q504-178 547.50-138Q591-98 611 2L751 700L771 700L630-4Q616-74 589.50-116.50Q563-159 523.50-178Q484-197 431-197Z"  horiz-adv-x="816" vert-adv-y="1000"  />

      
      <glyph glyph-name="uni01CB" unicode="&#x01CB;" d="M81 0L221 700L238 700L624 22L616 25L751 700L771 700L631 0L614 0L228 678L236 675L101 0L81 0Z"  horiz-adv-x="1071" vert-adv-y="1000"  />

      
      <glyph glyph-name="uni1E48" unicode="&#x1E48;" d="M81 0L221 700L238 700L624 22L616 25L751 700L771 700L631 0L614 0L228 678L236 675L101 0L81 0M188-160L192-140L464-140L460-160L188-160Z"  horiz-adv-x="816" vert-adv-y="1000"  />

      
      <glyph glyph-name="unid1" unicode="&#xd1;" d="M81 0L221 700L238 700L624 22L616 25L751 700L771 700L631 0L614 0L228 678L236 675L101 0L81 0Z"  horiz-adv-x="816" vert-adv-y="1000"  />

      
      <glyph glyph-name="uni4f" unicode="&#x4f;" d="M386-3Q284-3 214 32.50Q144 68 107.50 132Q71 196 71 280Q71 364 99.50 440Q128 516 182 575.50Q236 635 313 669Q390 703 487 703Q589 703 659.50 667.50Q730 632 766 568.50Q802 505 802 420Q802 336 773.50 260Q745 184 691 124.50Q637 65 560 31Q483-3 386-3M388 16Q478 16 550.50 48Q623 80 674.50 136Q726 192 754 265Q782 338 782 420Q782 499 748.50 558Q715 617 649 650.50Q583 684 485 684Q395 684 322.50 652Q250 620 198.50 564Q147 508 119 435Q91 362 91 280Q91 202 124.50 142.50Q158 83 224 49.50Q290 16 388 16Z"  horiz-adv-x="836" vert-adv-y="1000"  />

      
      <glyph glyph-name="unid3" unicode="&#xd3;" d="M386-3Q284-3 214 32.50Q144 68 107.50 132Q71 196 71 280Q71 364 99.50 440Q128 516 182 575.50Q236 635 313 669Q390 703 487 703Q589 703 659.50 667.50Q730 632 766 568.50Q802 505 802 420Q802 336 773.50 260Q745 184 691 124.50Q637 65 560 31Q483-3 386-3M388 16Q478 16 550.50 48Q623 80 674.50 136Q726 192 754 265Q782 338 782 420Q782 499 748.50 558Q715 617 649 650.50Q583 684 485 684Q395 684 322.50 652Q250 620 198.50 564Q147 508 119 435Q91 362 91 280Q91 202 124.50 142.50Q158 83 224 49.50Q290 16 388 16Z"  horiz-adv-x="836" vert-adv-y="1000"  />

      
      <glyph glyph-name="uni014E" unicode="&#x014E;" d="M386-3Q284-3 214 32.50Q144 68 107.50 132Q71 196 71 280Q71 364 99.50 440Q128 516 182 575.50Q236 635 313 669Q390 703 487 703Q589 703 659.50 667.50Q730 632 766 568.50Q802 505 802 420Q802 336 773.50 260Q745 184 691 124.50Q637 65 560 31Q483-3 386-3M388 16Q478 16 550.50 48Q623 80 674.50 136Q726 192 754 265Q782 338 782 420Q782 499 748.50 558Q715 617 649 650.50Q583 684 485 684Q395 684 322.50 652Q250 620 198.50 564Q147 508 119 435Q91 362 91 280Q91 202 124.50 142.50Q158 83 224 49.50Q290 16 388 16Z"  horiz-adv-x="836" vert-adv-y="1000"  />

      
      <glyph glyph-name="unid4" unicode="&#xd4;" d="M386-3Q284-3 214 32.50Q144 68 107.50 132Q71 196 71 280Q71 364 99.50 440Q128 516 182 575.50Q236 635 313 669Q390 703 487 703Q589 703 659.50 667.50Q730 632 766 568.50Q802 505 802 420Q802 336 773.50 260Q745 184 691 124.50Q637 65 560 31Q483-3 386-3M388 16Q478 16 550.50 48Q623 80 674.50 136Q726 192 754 265Q782 338 782 420Q782 499 748.50 558Q715 617 649 650.50Q583 684 485 684Q395 684 322.50 652Q250 620 198.50 564Q147 508 119 435Q91 362 91 280Q91 202 124.50 142.50Q158 83 224 49.50Q290 16 388 16Z"  horiz-adv-x="836" vert-adv-y="1000"  />

      
      <glyph glyph-name="uni1ED0" unicode="&#x1ED0;" d="M386-3Q284-3 214 32.50Q144 68 107.50 132Q71 196 71 280Q71 364 99.50 440Q128 516 182 575.50Q236 635 313 669Q390 703 487 703Q589 703 659.50 667.50Q730 632 766 568.50Q802 505 802 420Q802 336 773.50 260Q745 184 691 124.50Q637 65 560 31Q483-3 386-3M388 16Q478 16 550.50 48Q623 80 674.50 136Q726 192 754 265Q782 338 782 420Q782 499 748.50 558Q715 617 649 650.50Q583 684 485 684Q395 684 322.50 652Q250 620 198.50 564Q147 508 119 435Q91 362 91 280Q91 202 124.50 142.50Q158 83 224 49.50Q290 16 388 16Z"  horiz-adv-x="836" vert-adv-y="1000"  />

      
      <glyph glyph-name="uni1ED8" unicode="&#x1ED8;" d="M386-3Q284-3 214 32.50Q144 68 107.50 132Q71 196 71 280Q71 364 99.50 440Q128 516 182 575.50Q236 635 313 669Q390 703 487 703Q589 703 659.50 667.50Q730 632 766 568.50Q802 505 802 420Q802 336 773.50 260Q745 184 691 124.50Q637 65 560 31Q483-3 386-3M388 16Q478 16 550.50 48Q623 80 674.50 136Q726 192 754 265Q782 338 782 420Q782 499 748.50 558Q715 617 649 650.50Q583 684 485 684Q395 684 322.50 652Q250 620 198.50 564Q147 508 119 435Q91 362 91 280Q91 202 124.50 142.50Q158 83 224 49.50Q290 16 388 16M331-176Q321-176 314.50-168Q308-160 310-150Q312-139 321.50-131.50Q331-124 341-124Q352-124 358-131.50Q364-139 362-150Q360-160 351-168Q342-176 331-176Z"  horiz-adv-x="836" vert-adv-y="1000"  />

      
      <glyph glyph-name="uni1ED2" unicode="&#x1ED2;" d="M386-3Q284-3 214 32.50Q144 68 107.50 132Q71 196 71 280Q71 364 99.50 440Q128 516 182 575.50Q236 635 313 669Q390 703 487 703Q589 703 659.50 667.50Q730 632 766 568.50Q802 505 802 420Q802 336 773.50 260Q745 184 691 124.50Q637 65 560 31Q483-3 386-3M388 16Q478 16 550.50 48Q623 80 674.50 136Q726 192 754 265Q782 338 782 420Q782 499 748.50 558Q715 617 649 650.50Q583 684 485 684Q395 684 322.50 652Q250 620 198.50 564Q147 508 119 435Q91 362 91 280Q91 202 124.50 142.50Q158 83 224 49.50Q290 16 388 16Z"  horiz-adv-x="836" vert-adv-y="1000"  />

      
      <glyph glyph-name="uni1ED4" unicode="&#x1ED4;" d="M386-3Q284-3 214 32.50Q144 68 107.50 132Q71 196 71 280Q71 364 99.50 440Q128 516 182 575.50Q236 635 313 669Q390 703 487 703Q589 703 659.50 667.50Q730 632 766 568.50Q802 505 802 420Q802 336 773.50 260Q745 184 691 124.50Q637 65 560 31Q483-3 386-3M388 16Q478 16 550.50 48Q623 80 674.50 136Q726 192 754 265Q782 338 782 420Q782 499 748.50 558Q715 617 649 650.50Q583 684 485 684Q395 684 322.50 652Q250 620 198.50 564Q147 508 119 435Q91 362 91 280Q91 202 124.50 142.50Q158 83 224 49.50Q290 16 388 16Z"  horiz-adv-x="836" vert-adv-y="1000"  />

      
      <glyph glyph-name="uni1ED6" unicode="&#x1ED6;" d="M386-3Q284-3 214 32.50Q144 68 107.50 132Q71 196 71 280Q71 364 99.50 440Q128 516 182 575.50Q236 635 313 669Q390 703 487 703Q589 703 659.50 667.50Q730 632 766 568.50Q802 505 802 420Q802 336 773.50 260Q745 184 691 124.50Q637 65 560 31Q483-3 386-3M388 16Q478 16 550.50 48Q623 80 674.50 136Q726 192 754 265Q782 338 782 420Q782 499 748.50 558Q715 617 649 650.50Q583 684 485 684Q395 684 322.50 652Q250 620 198.50 564Q147 508 119 435Q91 362 91 280Q91 202 124.50 142.50Q158 83 224 49.50Q290 16 388 16Z"  horiz-adv-x="836" vert-adv-y="1000"  />

      
      <glyph glyph-name="uni020C" unicode="&#x020C;" d="M386-3Q284-3 214 32.50Q144 68 107.50 132Q71 196 71 280Q71 364 99.50 440Q128 516 182 575.50Q236 635 313 669Q390 703 487 703Q589 703 659.50 667.50Q730 632 766 568.50Q802 505 802 420Q802 336 773.50 260Q745 184 691 124.50Q637 65 560 31Q483-3 386-3M388 16Q478 16 550.50 48Q623 80 674.50 136Q726 192 754 265Q782 338 782 420Q782 499 748.50 558Q715 617 649 650.50Q583 684 485 684Q395 684 322.50 652Q250 620 198.50 564Q147 508 119 435Q91 362 91 280Q91 202 124.50 142.50Q158 83 224 49.50Q290 16 388 16Z"  horiz-adv-x="836" vert-adv-y="1000"  />

      
      <glyph glyph-name="unid6" unicode="&#xd6;" d="M386-3Q284-3 214 32.50Q144 68 107.50 132Q71 196 71 280Q71 364 99.50 440Q128 516 182 575.50Q236 635 313 669Q390 703 487 703Q589 703 659.50 667.50Q730 632 766 568.50Q802 505 802 420Q802 336 773.50 260Q745 184 691 124.50Q637 65 560 31Q483-3 386-3M388 16Q478 16 550.50 48Q623 80 674.50 136Q726 192 754 265Q782 338 782 420Q782 499 748.50 558Q715 617 649 650.50Q583 684 485 684Q395 684 322.50 652Q250 620 198.50 564Q147 508 119 435Q91 362 91 280Q91 202 124.50 142.50Q158 83 224 49.50Q290 16 388 16Z"  horiz-adv-x="836" vert-adv-y="1000"  />

      
      <glyph glyph-name="uni022A" unicode="&#x022A;" d="M386-3Q284-3 214 32.50Q144 68 107.50 132Q71 196 71 280Q71 364 99.50 440Q128 516 182 575.50Q236 635 313 669Q390 703 487 703Q589 703 659.50 667.50Q730 632 766 568.50Q802 505 802 420Q802 336 773.50 260Q745 184 691 124.50Q637 65 560 31Q483-3 386-3M388 16Q478 16 550.50 48Q623 80 674.50 136Q726 192 754 265Q782 338 782 420Q782 499 748.50 558Q715 617 649 650.50Q583 684 485 684Q395 684 322.50 652Q250 620 198.50 564Q147 508 119 435Q91 362 91 280Q91 202 124.50 142.50Q158 83 224 49.50Q290 16 388 16Z"  horiz-adv-x="836" vert-adv-y="1000"  />

      
      <glyph glyph-name="uni0230" unicode="&#x0230;" d="M386-3Q284-3 214 32.50Q144 68 107.50 132Q71 196 71 280Q71 364 99.50 440Q128 516 182 575.50Q236 635 313 669Q390 703 487 703Q589 703 659.50 667.50Q730 632 766 568.50Q802 505 802 420Q802 336 773.50 260Q745 184 691 124.50Q637 65 560 31Q483-3 386-3M388 16Q478 16 550.50 48Q623 80 674.50 136Q726 192 754 265Q782 338 782 420Q782 499 748.50 558Q715 617 649 650.50Q583 684 485 684Q395 684 322.50 652Q250 620 198.50 564Q147 508 119 435Q91 362 91 280Q91 202 124.50 142.50Q158 83 224 49.50Q290 16 388 16Z"  horiz-adv-x="836" vert-adv-y="1000"  />

      
      <glyph glyph-name="uni1ECC" unicode="&#x1ECC;" d="M386-3Q284-3 214 32.50Q144 68 107.50 132Q71 196 71 280Q71 364 99.50 440Q128 516 182 575.50Q236 635 313 669Q390 703 487 703Q589 703 659.50 667.50Q730 632 766 568.50Q802 505 802 420Q802 336 773.50 260Q745 184 691 124.50Q637 65 560 31Q483-3 386-3M388 16Q478 16 550.50 48Q623 80 674.50 136Q726 192 754 265Q782 338 782 420Q782 499 748.50 558Q715 617 649 650.50Q583 684 485 684Q395 684 322.50 652Q250 620 198.50 564Q147 508 119 435Q91 362 91 280Q91 202 124.50 142.50Q158 83 224 49.50Q290 16 388 16M331-176Q321-176 314.50-168Q308-160 310-150Q312-139 321.50-131.50Q331-124 341-124Q352-124 358-131.50Q364-139 362-150Q360-160 351-168Q342-176 331-176Z"  horiz-adv-x="836" vert-adv-y="1000"  />

      
      <glyph glyph-name="unid2" unicode="&#xd2;" d="M386-3Q284-3 214 32.50Q144 68 107.50 132Q71 196 71 280Q71 364 99.50 440Q128 516 182 575.50Q236 635 313 669Q390 703 487 703Q589 703 659.50 667.50Q730 632 766 568.50Q802 505 802 420Q802 336 773.50 260Q745 184 691 124.50Q637 65 560 31Q483-3 386-3M388 16Q478 16 550.50 48Q623 80 674.50 136Q726 192 754 265Q782 338 782 420Q782 499 748.50 558Q715 617 649 650.50Q583 684 485 684Q395 684 322.50 652Q250 620 198.50 564Q147 508 119 435Q91 362 91 280Q91 202 124.50 142.50Q158 83 224 49.50Q290 16 388 16Z"  horiz-adv-x="836" vert-adv-y="1000"  />

      
      <glyph glyph-name="uni1ECE" unicode="&#x1ECE;" d="M386-3Q284-3 214 32.50Q144 68 107.50 132Q71 196 71 280Q71 364 99.50 440Q128 516 182 575.50Q236 635 313 669Q390 703 487 703Q589 703 659.50 667.50Q730 632 766 568.50Q802 505 802 420Q802 336 773.50 260Q745 184 691 124.50Q637 65 560 31Q483-3 386-3M388 16Q478 16 550.50 48Q623 80 674.50 136Q726 192 754 265Q782 338 782 420Q782 499 748.50 558Q715 617 649 650.50Q583 684 485 684Q395 684 322.50 652Q250 620 198.50 564Q147 508 119 435Q91 362 91 280Q91 202 124.50 142.50Q158 83 224 49.50Q290 16 388 16Z"  horiz-adv-x="836" vert-adv-y="1000"  />

      
      <glyph glyph-name="uni01A0" unicode="&#x01A0;" d="M386-3Q284-3 214 32.50Q144 68 107.50 132Q71 196 71 280Q71 364 99.50 440Q128 516 182 575.50Q236 635 313 669Q390 703 487 703Q540 703 578.50 699.50Q617 696 650.50 692Q684 688 722 688Q777 688 806 710Q835 732 835 770Q835 790 829 806.50Q823 823 815 837L833 845Q843 830 849 810.50Q855 791 855 771Q855 739 839.50 716Q824 693 794 681Q764 669 721 669Q694 669 674.50 670.50Q655 672 637 674L640 675Q720 643 761 576.50Q802 510 802 420Q802 336 773.50 260Q745 184 691 124.50Q637 65 560 31Q483-3 386-3M388 16Q478 16 550.50 48Q623 80 674.50 136Q726 192 754 265Q782 338 782 420Q782 499 748.50 558Q715 617 649 650.50Q583 684 485 684Q395 684 322.50 652Q250 620 198.50 564Q147 508 119 435Q91 362 91 280Q91 202 124.50 142.50Q158 83 224 49.50Q290 16 388 16Z"  horiz-adv-x="836" vert-adv-y="1000"  />

      
      <glyph glyph-name="uni1EDA" unicode="&#x1EDA;" d="M386-3Q284-3 214 32.50Q144 68 107.50 132Q71 196 71 280Q71 364 99.50 440Q128 516 182 575.50Q236 635 313 669Q390 703 487 703Q540 703 578.50 699.50Q617 696 650.50 692Q684 688 722 688Q777 688 806 710Q835 732 835 770Q835 790 829 806.50Q823 823 815 837L833 845Q843 830 849 810.50Q855 791 855 771Q855 739 839.50 716Q824 693 794 681Q764 669 721 669Q694 669 674.50 670.50Q655 672 637 674L640 675Q720 643 761 576.50Q802 510 802 420Q802 336 773.50 260Q745 184 691 124.50Q637 65 560 31Q483-3 386-3M388 16Q478 16 550.50 48Q623 80 674.50 136Q726 192 754 265Q782 338 782 420Q782 499 748.50 558Q715 617 649 650.50Q583 684 485 684Q395 684 322.50 652Q250 620 198.50 564Q147 508 119 435Q91 362 91 280Q91 202 124.50 142.50Q158 83 224 49.50Q290 16 388 16Z"  horiz-adv-x="836" vert-adv-y="1000"  />

      
      <glyph glyph-name="uni1EE2" unicode="&#x1EE2;" d="M386-3Q284-3 214 32.50Q144 68 107.50 132Q71 196 71 280Q71 364 99.50 440Q128 516 182 575.50Q236 635 313 669Q390 703 487 703Q540 703 578.50 699.50Q617 696 650.50 692Q684 688 722 688Q777 688 806 710Q835 732 835 770Q835 790 829 806.50Q823 823 815 837L833 845Q843 830 849 810.50Q855 791 855 771Q855 739 839.50 716Q824 693 794 681Q764 669 721 669Q694 669 674.50 670.50Q655 672 637 674L640 675Q720 643 761 576.50Q802 510 802 420Q802 336 773.50 260Q745 184 691 124.50Q637 65 560 31Q483-3 386-3M388 16Q478 16 550.50 48Q623 80 674.50 136Q726 192 754 265Q782 338 782 420Q782 499 748.50 558Q715 617 649 650.50Q583 684 485 684Q395 684 322.50 652Q250 620 198.50 564Q147 508 119 435Q91 362 91 280Q91 202 124.50 142.50Q158 83 224 49.50Q290 16 388 16M331-176Q321-176 314.50-168Q308-160 310-150Q312-139 321.50-131.50Q331-124 341-124Q352-124 358-131.50Q364-139 362-150Q360-160 351-168Q342-176 331-176Z"  horiz-adv-x="836" vert-adv-y="1000"  />

      
      <glyph glyph-name="uni1EDC" unicode="&#x1EDC;" d="M386-3Q284-3 214 32.50Q144 68 107.50 132Q71 196 71 280Q71 364 99.50 440Q128 516 182 575.50Q236 635 313 669Q390 703 487 703Q540 703 578.50 699.50Q617 696 650.50 692Q684 688 722 688Q777 688 806 710Q835 732 835 770Q835 790 829 806.50Q823 823 815 837L833 845Q843 830 849 810.50Q855 791 855 771Q855 739 839.50 716Q824 693 794 681Q764 669 721 669Q694 669 674.50 670.50Q655 672 637 674L640 675Q720 643 761 576.50Q802 510 802 420Q802 336 773.50 260Q745 184 691 124.50Q637 65 560 31Q483-3 386-3M388 16Q478 16 550.50 48Q623 80 674.50 136Q726 192 754 265Q782 338 782 420Q782 499 748.50 558Q715 617 649 650.50Q583 684 485 684Q395 684 322.50 652Q250 620 198.50 564Q147 508 119 435Q91 362 91 280Q91 202 124.50 142.50Q158 83 224 49.50Q290 16 388 16Z"  horiz-adv-x="836" vert-adv-y="1000"  />

      
      <glyph glyph-name="uni1EDE" unicode="&#x1EDE;" d="M386-3Q284-3 214 32.50Q144 68 107.50 132Q71 196 71 280Q71 364 99.50 440Q128 516 182 575.50Q236 635 313 669Q390 703 487 703Q540 703 578.50 699.50Q617 696 650.50 692Q684 688 722 688Q777 688 806 710Q835 732 835 770Q835 790 829 806.50Q823 823 815 837L833 845Q843 830 849 810.50Q855 791 855 771Q855 739 839.50 716Q824 693 794 681Q764 669 721 669Q694 669 674.50 670.50Q655 672 637 674L640 675Q720 643 761 576.50Q802 510 802 420Q802 336 773.50 260Q745 184 691 124.50Q637 65 560 31Q483-3 386-3M388 16Q478 16 550.50 48Q623 80 674.50 136Q726 192 754 265Q782 338 782 420Q782 499 748.50 558Q715 617 649 650.50Q583 684 485 684Q395 684 322.50 652Q250 620 198.50 564Q147 508 119 435Q91 362 91 280Q91 202 124.50 142.50Q158 83 224 49.50Q290 16 388 16Z"  horiz-adv-x="836" vert-adv-y="1000"  />

      
      <glyph glyph-name="uni1EE0" unicode="&#x1EE0;" d="M386-3Q284-3 214 32.50Q144 68 107.50 132Q71 196 71 280Q71 364 99.50 440Q128 516 182 575.50Q236 635 313 669Q390 703 487 703Q540 703 578.50 699.50Q617 696 650.50 692Q684 688 722 688Q777 688 806 710Q835 732 835 770Q835 790 829 806.50Q823 823 815 837L833 845Q843 830 849 810.50Q855 791 855 771Q855 739 839.50 716Q824 693 794 681Q764 669 721 669Q694 669 674.50 670.50Q655 672 637 674L640 675Q720 643 761 576.50Q802 510 802 420Q802 336 773.50 260Q745 184 691 124.50Q637 65 560 31Q483-3 386-3M388 16Q478 16 550.50 48Q623 80 674.50 136Q726 192 754 265Q782 338 782 420Q782 499 748.50 558Q715 617 649 650.50Q583 684 485 684Q395 684 322.50 652Q250 620 198.50 564Q147 508 119 435Q91 362 91 280Q91 202 124.50 142.50Q158 83 224 49.50Q290 16 388 16Z"  horiz-adv-x="836" vert-adv-y="1000"  />

      
      <glyph glyph-name="uni0150" unicode="&#x0150;" d="M386-3Q284-3 214 32.50Q144 68 107.50 132Q71 196 71 280Q71 364 99.50 440Q128 516 182 575.50Q236 635 313 669Q390 703 487 703Q589 703 659.50 667.50Q730 632 766 568.50Q802 505 802 420Q802 336 773.50 260Q745 184 691 124.50Q637 65 560 31Q483-3 386-3M388 16Q478 16 550.50 48Q623 80 674.50 136Q726 192 754 265Q782 338 782 420Q782 499 748.50 558Q715 617 649 650.50Q583 684 485 684Q395 684 322.50 652Q250 620 198.50 564Q147 508 119 435Q91 362 91 280Q91 202 124.50 142.50Q158 83 224 49.50Q290 16 388 16Z"  horiz-adv-x="836" vert-adv-y="1000"  />

      
      <glyph glyph-name="uni020E" unicode="&#x020E;" d="M386-3Q284-3 214 32.50Q144 68 107.50 132Q71 196 71 280Q71 364 99.50 440Q128 516 182 575.50Q236 635 313 669Q390 703 487 703Q589 703 659.50 667.50Q730 632 766 568.50Q802 505 802 420Q802 336 773.50 260Q745 184 691 124.50Q637 65 560 31Q483-3 386-3M388 16Q478 16 550.50 48Q623 80 674.50 136Q726 192 754 265Q782 338 782 420Q782 499 748.50 558Q715 617 649 650.50Q583 684 485 684Q395 684 322.50 652Q250 620 198.50 564Q147 508 119 435Q91 362 91 280Q91 202 124.50 142.50Q158 83 224 49.50Q290 16 388 16Z"  horiz-adv-x="836" vert-adv-y="1000"  />

      
      <glyph glyph-name="uni014C" unicode="&#x014C;" d="M386-3Q284-3 214 32.50Q144 68 107.50 132Q71 196 71 280Q71 364 99.50 440Q128 516 182 575.50Q236 635 313 669Q390 703 487 703Q589 703 659.50 667.50Q730 632 766 568.50Q802 505 802 420Q802 336 773.50 260Q745 184 691 124.50Q637 65 560 31Q483-3 386-3M388 16Q478 16 550.50 48Q623 80 674.50 136Q726 192 754 265Q782 338 782 420Q782 499 748.50 558Q715 617 649 650.50Q583 684 485 684Q395 684 322.50 652Q250 620 198.50 564Q147 508 119 435Q91 362 91 280Q91 202 124.50 142.50Q158 83 224 49.50Q290 16 388 16Z"  horiz-adv-x="836" vert-adv-y="1000"  />

      
      <glyph glyph-name="uni1E52" unicode="&#x1E52;" d="M386-3Q284-3 214 32.50Q144 68 107.50 132Q71 196 71 280Q71 364 99.50 440Q128 516 182 575.50Q236 635 313 669Q390 703 487 703Q589 703 659.50 667.50Q730 632 766 568.50Q802 505 802 420Q802 336 773.50 260Q745 184 691 124.50Q637 65 560 31Q483-3 386-3M388 16Q478 16 550.50 48Q623 80 674.50 136Q726 192 754 265Q782 338 782 420Q782 499 748.50 558Q715 617 649 650.50Q583 684 485 684Q395 684 322.50 652Q250 620 198.50 564Q147 508 119 435Q91 362 91 280Q91 202 124.50 142.50Q158 83 224 49.50Q290 16 388 16Z"  horiz-adv-x="836" vert-adv-y="1000"  />

      
      <glyph glyph-name="uni1E50" unicode="&#x1E50;" d="M386-3Q284-3 214 32.50Q144 68 107.50 132Q71 196 71 280Q71 364 99.50 440Q128 516 182 575.50Q236 635 313 669Q390 703 487 703Q589 703 659.50 667.50Q730 632 766 568.50Q802 505 802 420Q802 336 773.50 260Q745 184 691 124.50Q637 65 560 31Q483-3 386-3M388 16Q478 16 550.50 48Q623 80 674.50 136Q726 192 754 265Q782 338 782 420Q782 499 748.50 558Q715 617 649 650.50Q583 684 485 684Q395 684 322.50 652Q250 620 198.50 564Q147 508 119 435Q91 362 91 280Q91 202 124.50 142.50Q158 83 224 49.50Q290 16 388 16Z"  horiz-adv-x="836" vert-adv-y="1000"  />

      
      <glyph glyph-name="uni01EA" unicode="&#x01EA;" d="M317-213Q283-213 262.50-194.50Q242-176 242-144Q242-103 275.50-65Q309-27 383 0L386-3Q284-3 214 32.50Q144 68 107.50 132Q71 196 71 280Q71 364 99.50 440Q128 516 182 575.50Q236 635 313 669Q390 703 487 703Q589 703 659.50 667.50Q730 632 766 568.50Q802 505 802 420Q802 320 762 232Q722 144 647 83.50Q572 23 468 4Q395-9 349.50-33Q304-57 283-86Q262-115 262-142Q262-167 277-180.50Q292-194 319-194Q338-194 356.50-187.50Q375-181 390-169L398-186Q381-199 360.50-206Q340-213 317-213M388 16Q478 16 550.50 48Q623 80 674.50 136Q726 192 754 265Q782 338 782 420Q782 499 748.50 558Q715 617 649 650.50Q583 684 485 684Q395 684 322.50 652Q250 620 198.50 564Q147 508 119 435Q91 362 91 280Q91 202 124.50 142.50Q158 83 224 49.50Q290 16 388 16Z"  horiz-adv-x="836" vert-adv-y="1000"  />

      
      <glyph glyph-name="unid8" unicode="&#xd8;" d="M386-3Q284-3 214 32.50Q144 68 107.50 132Q71 196 71 280Q71 364 99.50 440Q128 516 182 575.50Q236 635 313 669Q390 703 487 703Q589 703 659.50 667.50Q730 632 766 568.50Q802 505 802 420Q802 336 773.50 260Q745 184 691 124.50Q637 65 560 31Q483-3 386-3M388 16Q478 16 550.50 48Q623 80 674.50 136Q726 192 754 265Q782 338 782 420Q782 499 748.50 558Q715 617 649 650.50Q583 684 485 684Q395 684 322.50 652Q250 620 198.50 564Q147 508 119 435Q91 362 91 280Q91 202 124.50 142.50Q158 83 224 49.50Q290 16 388 16M32-70L813 770L838 770L57-70L32-70Z"  horiz-adv-x="836" vert-adv-y="1000"  />

      
      <glyph glyph-name="uni01FE" unicode="&#x01FE;" d="M386-3Q284-3 214 32.50Q144 68 107.50 132Q71 196 71 280Q71 364 99.50 440Q128 516 182 575.50Q236 635 313 669Q390 703 487 703Q589 703 659.50 667.50Q730 632 766 568.50Q802 505 802 420Q802 336 773.50 260Q745 184 691 124.50Q637 65 560 31Q483-3 386-3M388 16Q478 16 550.50 48Q623 80 674.50 136Q726 192 754 265Q782 338 782 420Q782 499 748.50 558Q715 617 649 650.50Q583 684 485 684Q395 684 322.50 652Q250 620 198.50 564Q147 508 119 435Q91 362 91 280Q91 202 124.50 142.50Q158 83 224 49.50Q290 16 388 16M32-70L813 770L838 770L57-70L32-70Z"  horiz-adv-x="836" vert-adv-y="1000"  />

      
      <glyph glyph-name="unid5" unicode="&#xd5;" d="M386-3Q284-3 214 32.50Q144 68 107.50 132Q71 196 71 280Q71 364 99.50 440Q128 516 182 575.50Q236 635 313 669Q390 703 487 703Q589 703 659.50 667.50Q730 632 766 568.50Q802 505 802 420Q802 336 773.50 260Q745 184 691 124.50Q637 65 560 31Q483-3 386-3M388 16Q478 16 550.50 48Q623 80 674.50 136Q726 192 754 265Q782 338 782 420Q782 499 748.50 558Q715 617 649 650.50Q583 684 485 684Q395 684 322.50 652Q250 620 198.50 564Q147 508 119 435Q91 362 91 280Q91 202 124.50 142.50Q158 83 224 49.50Q290 16 388 16Z"  horiz-adv-x="836" vert-adv-y="1000"  />

      
      <glyph glyph-name="uni1E4C" unicode="&#x1E4C;" d="M386-3Q284-3 214 32.50Q144 68 107.50 132Q71 196 71 280Q71 364 99.50 440Q128 516 182 575.50Q236 635 313 669Q390 703 487 703Q589 703 659.50 667.50Q730 632 766 568.50Q802 505 802 420Q802 336 773.50 260Q745 184 691 124.50Q637 65 560 31Q483-3 386-3M388 16Q478 16 550.50 48Q623 80 674.50 136Q726 192 754 265Q782 338 782 420Q782 499 748.50 558Q715 617 649 650.50Q583 684 485 684Q395 684 322.50 652Q250 620 198.50 564Q147 508 119 435Q91 362 91 280Q91 202 124.50 142.50Q158 83 224 49.50Q290 16 388 16Z"  horiz-adv-x="836" vert-adv-y="1000"  />

      
      <glyph glyph-name="uni1E4E" unicode="&#x1E4E;" d="M386-3Q284-3 214 32.50Q144 68 107.50 132Q71 196 71 280Q71 364 99.50 440Q128 516 182 575.50Q236 635 313 669Q390 703 487 703Q589 703 659.50 667.50Q730 632 766 568.50Q802 505 802 420Q802 336 773.50 260Q745 184 691 124.50Q637 65 560 31Q483-3 386-3M388 16Q478 16 550.50 48Q623 80 674.50 136Q726 192 754 265Q782 338 782 420Q782 499 748.50 558Q715 617 649 650.50Q583 684 485 684Q395 684 322.50 652Q250 620 198.50 564Q147 508 119 435Q91 362 91 280Q91 202 124.50 142.50Q158 83 224 49.50Q290 16 388 16Z"  horiz-adv-x="836" vert-adv-y="1000"  />

      
      <glyph glyph-name="uni022C" unicode="&#x022C;" d="M386-3Q284-3 214 32.50Q144 68 107.50 132Q71 196 71 280Q71 364 99.50 440Q128 516 182 575.50Q236 635 313 669Q390 703 487 703Q589 703 659.50 667.50Q730 632 766 568.50Q802 505 802 420Q802 336 773.50 260Q745 184 691 124.50Q637 65 560 31Q483-3 386-3M388 16Q478 16 550.50 48Q623 80 674.50 136Q726 192 754 265Q782 338 782 420Q782 499 748.50 558Q715 617 649 650.50Q583 684 485 684Q395 684 322.50 652Q250 620 198.50 564Q147 508 119 435Q91 362 91 280Q91 202 124.50 142.50Q158 83 224 49.50Q290 16 388 16Z"  horiz-adv-x="836" vert-adv-y="1000"  />

      
      <glyph glyph-name="uni0152" unicode="&#x0152;" d="M392 0Q288 0 216 35Q144 70 107.50 133.50Q71 197 71 280Q71 371 101.50 448Q132 525 189 581.50Q246 638 326.50 669Q407 700 507 700L671 700L667 681L505 681Q379 681 286 629.50Q193 578 142 487.50Q91 397 91 280Q91 202 124.50 143.50Q158 85 225.50 52Q293 19 394 19L535 19L531 0L392 0M525 0L665 700L1116 700L1112 681L681 681L549 19L995 19L991 0L525 0M609 346L613 365L1004 365L1000 346L609 346Z"  horiz-adv-x="1112" vert-adv-y="1000"  />

      
      <glyph glyph-name="uni50" unicode="&#x50;" d="M81 0L221 700L456 700Q567 700 628.50 651.50Q690 603 690 514Q690 424 651.50 363Q613 302 542 271Q471 240 373 240L140 240L151 249L101 0L81 0M151 251L144 259L372 259Q514 259 592 323Q670 387 670 514Q670 594 615 637.50Q560 681 457 681L228 681L239 691L151 251Z"  horiz-adv-x="710" vert-adv-y="1000"  />

      
      <glyph glyph-name="unide" unicode="&#xde;" d="M120 139L124 158L352 158Q494 158 572 222Q650 286 650 413Q650 493 595 536.50Q540 580 437 580L208 580L212 599L436 599Q547 599 608.50 550.50Q670 502 670 413Q670 323 631.50 262Q593 201 522 170Q451 139 353 139L120 139M81 0L221 700L241 700L101 0L81 0Z"  horiz-adv-x="710" vert-adv-y="1000"  />

      
      <glyph glyph-name="uni51" unicode="&#x51;" d="M386-3Q284-3 214 32.50Q144 68 107.50 132Q71 196 71 280Q71 364 99.50 440Q128 516 182 575.50Q236 635 313 669Q390 703 487 703Q589 703 659.50 667.50Q730 632 766 568.50Q802 505 802 420Q802 336 773.50 260Q745 184 691 124.50Q637 65 560 31Q483-3 386-3M584-124Q522-124 471.50-91Q421-58 376 3L401 8Q439-47 484.50-76Q530-105 585-105Q629-105 666-87.50Q703-70 731-35L745-48Q714-86 671.50-105Q629-124 584-124M388 16Q478 16 550.50 48Q623 80 674.50 136Q726 192 754 265Q782 338 782 420Q782 499 748.50 558Q715 617 649 650.50Q583 684 485 684Q395 684 322.50 652Q250 620 198.50 564Q147 508 119 435Q91 362 91 280Q91 202 124.50 142.50Q158 83 224 49.50Q290 16 388 16Z"  horiz-adv-x="836" vert-adv-y="1000"  />

      
      <glyph glyph-name="uni52" unicode="&#x52;" d="M81 0L221 700L456 700Q567 700 628.50 651.50Q690 603 690 514Q690 424 651.50 363Q613 302 542 271Q471 240 373 240L140 240L151 249L101 0L81 0M580 0L436 254L459 254L603 0L580 0M151 251L144 259L372 259Q514 259 592 323Q670 387 670 514Q670 594 615 637.50Q560 681 457 681L228 681L239 689L151 251Z"  horiz-adv-x="716" vert-adv-y="1000"  />

      
      <glyph glyph-name="uni0154" unicode="&#x0154;" d="M81 0L221 700L456 700Q567 700 628.50 651.50Q690 603 690 514Q690 424 651.50 363Q613 302 542 271Q471 240 373 240L140 240L151 249L101 0L81 0M580 0L436 254L459 254L603 0L580 0M151 251L144 259L372 259Q514 259 592 323Q670 387 670 514Q670 594 615 637.50Q560 681 457 681L228 681L239 689L151 251Z"  horiz-adv-x="716" vert-adv-y="1000"  />

      
      <glyph glyph-name="uni0158" unicode="&#x0158;" d="M81 0L221 700L456 700Q567 700 628.50 651.50Q690 603 690 514Q690 424 651.50 363Q613 302 542 271Q471 240 373 240L140 240L151 249L101 0L81 0M580 0L436 254L459 254L603 0L580 0M151 251L144 259L372 259Q514 259 592 323Q670 387 670 514Q670 594 615 637.50Q560 681 457 681L228 681L239 689L151 251Z"  horiz-adv-x="716" vert-adv-y="1000"  />

      
      <glyph glyph-name="uni0156" unicode="&#x0156;" d="M81 0L221 700L456 700Q567 700 628.50 651.50Q690 603 690 514Q690 424 651.50 363Q613 302 542 271Q471 240 373 240L140 240L151 249L101 0L81 0M580 0L436 254L459 254L603 0L580 0M151 251L144 259L372 259Q514 259 592 323Q670 387 670 514Q670 594 615 637.50Q560 681 457 681L228 681L239 689L151 251M243-259L283-165L284-176Q274-176 266-168Q258-160 258-150Q258-139 265.50-131.50Q273-124 283-124Q295-124 302.50-131.50Q310-139 310-150Q310-158 308-164.50Q306-171 301-179L261-259L243-259Z"  horiz-adv-x="716" vert-adv-y="1000"  />

      
      <glyph glyph-name="uni0210" unicode="&#x0210;" d="M81 0L221 700L456 700Q567 700 628.50 651.50Q690 603 690 514Q690 424 651.50 363Q613 302 542 271Q471 240 373 240L140 240L151 249L101 0L81 0M580 0L436 254L459 254L603 0L580 0M151 251L144 259L372 259Q514 259 592 323Q670 387 670 514Q670 594 615 637.50Q560 681 457 681L228 681L239 689L151 251Z"  horiz-adv-x="716" vert-adv-y="1000"  />

      
      <glyph glyph-name="uni1E5A" unicode="&#x1E5A;" d="M81 0L221 700L456 700Q567 700 628.50 651.50Q690 603 690 514Q690 424 651.50 363Q613 302 542 271Q471 240 373 240L140 240L151 249L101 0L81 0M580 0L436 254L459 254L603 0L580 0M151 251L144 259L372 259Q514 259 592 323Q670 387 670 514Q670 594 615 637.50Q560 681 457 681L228 681L239 689L151 251M279-176Q269-176 262.50-168Q256-160 258-150Q260-139 269.50-131.50Q279-124 289-124Q300-124 306-131.50Q312-139 310-150Q308-160 299-168Q290-176 279-176Z"  horiz-adv-x="716" vert-adv-y="1000"  />

      
      <glyph glyph-name="uni0212" unicode="&#x0212;" d="M81 0L221 700L456 700Q567 700 628.50 651.50Q690 603 690 514Q690 424 651.50 363Q613 302 542 271Q471 240 373 240L140 240L151 249L101 0L81 0M580 0L436 254L459 254L603 0L580 0M151 251L144 259L372 259Q514 259 592 323Q670 387 670 514Q670 594 615 637.50Q560 681 457 681L228 681L239 689L151 251Z"  horiz-adv-x="716" vert-adv-y="1000"  />

      
      <glyph glyph-name="uni1E5E" unicode="&#x1E5E;" d="M81 0L221 700L456 700Q567 700 628.50 651.50Q690 603 690 514Q690 424 651.50 363Q613 302 542 271Q471 240 373 240L140 240L151 249L101 0L81 0M580 0L436 254L459 254L603 0L580 0M151 251L144 259L372 259Q514 259 592 323Q670 387 670 514Q670 594 615 637.50Q560 681 457 681L228 681L239 689L151 251M146-160L150-140L422-140L418-160L146-160Z"  horiz-adv-x="716" vert-adv-y="1000"  />

      
      <glyph glyph-name="uni53" unicode="&#x53;" d="M263-3Q214-3 166.50 10Q119 23 82 45Q45 67 26 95L42 108Q61 82 96 61Q131 40 175 28Q219 16 264 16Q335 16 390 36.50Q445 57 476 97Q507 137 507 194Q507 235 486.50 260.50Q466 286 432.50 302Q399 318 359 329Q319 340 279 352.50Q239 365 205.50 382.50Q172 400 151.50 429Q131 458 131 503Q131 568 165 612.50Q199 657 257 680Q315 703 388 703Q445 703 499 687Q553 671 590 641L577 624Q540 653 491.50 668.50Q443 684 388 684Q319 684 265 663Q211 642 180.50 602Q150 562 150 505Q150 464 170.50 438Q191 412 224.50 395.50Q258 379 298.50 367.50Q339 356 379 344Q419 332 452.50 314Q486 296 506.50 268Q527 240 527 195Q527 129 491.50 85Q456 41 396.50 19Q337-3 263-3Z"  horiz-adv-x="601" vert-adv-y="1000"  />

      
      <glyph glyph-name="uni015A" unicode="&#x015A;" d="M263-3Q214-3 166.50 10Q119 23 82 45Q45 67 26 95L42 108Q61 82 96 61Q131 40 175 28Q219 16 264 16Q335 16 390 36.50Q445 57 476 97Q507 137 507 194Q507 235 486.50 260.50Q466 286 432.50 302Q399 318 359 329Q319 340 279 352.50Q239 365 205.50 382.50Q172 400 151.50 429Q131 458 131 503Q131 568 165 612.50Q199 657 257 680Q315 703 388 703Q445 703 499 687Q553 671 590 641L577 624Q540 653 491.50 668.50Q443 684 388 684Q319 684 265 663Q211 642 180.50 602Q150 562 150 505Q150 464 170.50 438Q191 412 224.50 395.50Q258 379 298.50 367.50Q339 356 379 344Q419 332 452.50 314Q486 296 506.50 268Q527 240 527 195Q527 129 491.50 85Q456 41 396.50 19Q337-3 263-3Z"  horiz-adv-x="601" vert-adv-y="1000"  />

      
      <glyph glyph-name="uni1E64" unicode="&#x1E64;" d="M263-3Q214-3 166.50 10Q119 23 82 45Q45 67 26 95L42 108Q61 82 96 61Q131 40 175 28Q219 16 264 16Q335 16 390 36.50Q445 57 476 97Q507 137 507 194Q507 235 486.50 260.50Q466 286 432.50 302Q399 318 359 329Q319 340 279 352.50Q239 365 205.50 382.50Q172 400 151.50 429Q131 458 131 503Q131 568 165 612.50Q199 657 257 680Q315 703 388 703Q445 703 499 687Q553 671 590 641L577 624Q540 653 491.50 668.50Q443 684 388 684Q319 684 265 663Q211 642 180.50 602Q150 562 150 505Q150 464 170.50 438Q191 412 224.50 395.50Q258 379 298.50 367.50Q339 356 379 344Q419 332 452.50 314Q486 296 506.50 268Q527 240 527 195Q527 129 491.50 85Q456 41 396.50 19Q337-3 263-3Z"  horiz-adv-x="601" vert-adv-y="1000"  />

      
      <glyph glyph-name="uniA78B" unicode="&#xA78B;" d="M102 298L182 699L202 699L122 298L102 298Z"  horiz-adv-x="208" vert-adv-y="1000"  />

      
      <glyph glyph-name="uni0160" unicode="&#x0160;" d="M263-3Q214-3 166.50 10Q119 23 82 45Q45 67 26 95L42 108Q61 82 96 61Q131 40 175 28Q219 16 264 16Q335 16 390 36.50Q445 57 476 97Q507 137 507 194Q507 235 486.50 260.50Q466 286 432.50 302Q399 318 359 329Q319 340 279 352.50Q239 365 205.50 382.50Q172 400 151.50 429Q131 458 131 503Q131 568 165 612.50Q199 657 257 680Q315 703 388 703Q445 703 499 687Q553 671 590 641L577 624Q540 653 491.50 668.50Q443 684 388 684Q319 684 265 663Q211 642 180.50 602Q150 562 150 505Q150 464 170.50 438Q191 412 224.50 395.50Q258 379 298.50 367.50Q339 356 379 344Q419 332 452.50 314Q486 296 506.50 268Q527 240 527 195Q527 129 491.50 85Q456 41 396.50 19Q337-3 263-3Z"  horiz-adv-x="601" vert-adv-y="1000"  />

      
      <glyph glyph-name="uni1E66" unicode="&#x1E66;" d="M263-3Q214-3 166.50 10Q119 23 82 45Q45 67 26 95L42 108Q61 82 96 61Q131 40 175 28Q219 16 264 16Q335 16 390 36.50Q445 57 476 97Q507 137 507 194Q507 235 486.50 260.50Q466 286 432.50 302Q399 318 359 329Q319 340 279 352.50Q239 365 205.50 382.50Q172 400 151.50 429Q131 458 131 503Q131 568 165 612.50Q199 657 257 680Q315 703 388 703Q445 703 499 687Q553 671 590 641L577 624Q540 653 491.50 668.50Q443 684 388 684Q319 684 265 663Q211 642 180.50 602Q150 562 150 505Q150 464 170.50 438Q191 412 224.50 395.50Q258 379 298.50 367.50Q339 356 379 344Q419 332 452.50 314Q486 296 506.50 268Q527 240 527 195Q527 129 491.50 85Q456 41 396.50 19Q337-3 263-3Z"  horiz-adv-x="601" vert-adv-y="1000"  />

      
      <glyph glyph-name="uni015E" unicode="&#x015E;" d="M263-3Q214-3 166.50 10Q119 23 82 45Q45 67 26 95L42 108Q61 82 96 61Q131 40 175 28Q219 16 264 16Q335 16 390 36.50Q445 57 476 97Q507 137 507 194Q507 235 486.50 260.50Q466 286 432.50 302Q399 318 359 329Q319 340 279 352.50Q239 365 205.50 382.50Q172 400 151.50 429Q131 458 131 503Q131 568 165 612.50Q199 657 257 680Q315 703 388 703Q445 703 499 687Q553 671 590 641L577 624Q540 653 491.50 668.50Q443 684 388 684Q319 684 265 663Q211 642 180.50 602Q150 562 150 505Q150 464 170.50 438Q191 412 224.50 395.50Q258 379 298.50 367.50Q339 356 379 344Q419 332 452.50 314Q486 296 506.50 268Q527 240 527 195Q527 129 491.50 85Q456 41 396.50 19Q337-3 263-3M217-213Q195-213 174.50-206.50Q154-200 139-186L153-171Q165-182 181-188Q197-194 218-194Q253-194 274-174.50Q295-155 295-124Q295-101 278.50-87.50Q262-74 233-74L219-74L257 5L276 5L247-56Q279-59 297.50-77Q316-95 316-124Q316-161 288.50-187Q261-213 217-213Z"  horiz-adv-x="601" vert-adv-y="1000"  />

      
      <glyph glyph-name="uni015C" unicode="&#x015C;" d="M263-3Q214-3 166.50 10Q119 23 82 45Q45 67 26 95L42 108Q61 82 96 61Q131 40 175 28Q219 16 264 16Q335 16 390 36.50Q445 57 476 97Q507 137 507 194Q507 235 486.50 260.50Q466 286 432.50 302Q399 318 359 329Q319 340 279 352.50Q239 365 205.50 382.50Q172 400 151.50 429Q131 458 131 503Q131 568 165 612.50Q199 657 257 680Q315 703 388 703Q445 703 499 687Q553 671 590 641L577 624Q540 653 491.50 668.50Q443 684 388 684Q319 684 265 663Q211 642 180.50 602Q150 562 150 505Q150 464 170.50 438Q191 412 224.50 395.50Q258 379 298.50 367.50Q339 356 379 344Q419 332 452.50 314Q486 296 506.50 268Q527 240 527 195Q527 129 491.50 85Q456 41 396.50 19Q337-3 263-3Z"  horiz-adv-x="601" vert-adv-y="1000"  />

      
      <glyph glyph-name="uni0218" unicode="&#x0218;" d="M263-3Q214-3 166.50 10Q119 23 82 45Q45 67 26 95L42 108Q61 82 96 61Q131 40 175 28Q219 16 264 16Q335 16 390 36.50Q445 57 476 97Q507 137 507 194Q507 235 486.50 260.50Q466 286 432.50 302Q399 318 359 329Q319 340 279 352.50Q239 365 205.50 382.50Q172 400 151.50 429Q131 458 131 503Q131 568 165 612.50Q199 657 257 680Q315 703 388 703Q445 703 499 687Q553 671 590 641L577 624Q540 653 491.50 668.50Q443 684 388 684Q319 684 265 663Q211 642 180.50 602Q150 562 150 505Q150 464 170.50 438Q191 412 224.50 395.50Q258 379 298.50 367.50Q339 356 379 344Q419 332 452.50 314Q486 296 506.50 268Q527 240 527 195Q527 129 491.50 85Q456 41 396.50 19Q337-3 263-3M195-259L235-165L236-176Q226-176 218-168Q210-160 210-150Q210-139 217.50-131.50Q225-124 235-124Q247-124 254.50-131.50Q262-139 262-150Q262-158 260-164.50Q258-171 253-179L213-259L195-259Z"  horiz-adv-x="601" vert-adv-y="1000"  />

      
      <glyph glyph-name="uni1E60" unicode="&#x1E60;" d="M263-3Q214-3 166.50 10Q119 23 82 45Q45 67 26 95L42 108Q61 82 96 61Q131 40 175 28Q219 16 264 16Q335 16 390 36.50Q445 57 476 97Q507 137 507 194Q507 235 486.50 260.50Q466 286 432.50 302Q399 318 359 329Q319 340 279 352.50Q239 365 205.50 382.50Q172 400 151.50 429Q131 458 131 503Q131 568 165 612.50Q199 657 257 680Q315 703 388 703Q445 703 499 687Q553 671 590 641L577 624Q540 653 491.50 668.50Q443 684 388 684Q319 684 265 663Q211 642 180.50 602Q150 562 150 505Q150 464 170.50 438Q191 412 224.50 395.50Q258 379 298.50 367.50Q339 356 379 344Q419 332 452.50 314Q486 296 506.50 268Q527 240 527 195Q527 129 491.50 85Q456 41 396.50 19Q337-3 263-3Z"  horiz-adv-x="601" vert-adv-y="1000"  />

      
      <glyph glyph-name="uni1E62" unicode="&#x1E62;" d="M263-3Q214-3 166.50 10Q119 23 82 45Q45 67 26 95L42 108Q61 82 96 61Q131 40 175 28Q219 16 264 16Q335 16 390 36.50Q445 57 476 97Q507 137 507 194Q507 235 486.50 260.50Q466 286 432.50 302Q399 318 359 329Q319 340 279 352.50Q239 365 205.50 382.50Q172 400 151.50 429Q131 458 131 503Q131 568 165 612.50Q199 657 257 680Q315 703 388 703Q445 703 499 687Q553 671 590 641L577 624Q540 653 491.50 668.50Q443 684 388 684Q319 684 265 663Q211 642 180.50 602Q150 562 150 505Q150 464 170.50 438Q191 412 224.50 395.50Q258 379 298.50 367.50Q339 356 379 344Q419 332 452.50 314Q486 296 506.50 268Q527 240 527 195Q527 129 491.50 85Q456 41 396.50 19Q337-3 263-3M231-176Q221-176 214.50-168Q208-160 210-150Q212-139 221.50-131.50Q231-124 241-124Q252-124 258-131.50Q264-139 262-150Q260-160 251-168Q242-176 231-176Z"  horiz-adv-x="601" vert-adv-y="1000"  />

      
      <glyph glyph-name="uni1E68" unicode="&#x1E68;" d="M263-3Q214-3 166.50 10Q119 23 82 45Q45 67 26 95L42 108Q61 82 96 61Q131 40 175 28Q219 16 264 16Q335 16 390 36.50Q445 57 476 97Q507 137 507 194Q507 235 486.50 260.50Q466 286 432.50 302Q399 318 359 329Q319 340 279 352.50Q239 365 205.50 382.50Q172 400 151.50 429Q131 458 131 503Q131 568 165 612.50Q199 657 257 680Q315 703 388 703Q445 703 499 687Q553 671 590 641L577 624Q540 653 491.50 668.50Q443 684 388 684Q319 684 265 663Q211 642 180.50 602Q150 562 150 505Q150 464 170.50 438Q191 412 224.50 395.50Q258 379 298.50 367.50Q339 356 379 344Q419 332 452.50 314Q486 296 506.50 268Q527 240 527 195Q527 129 491.50 85Q456 41 396.50 19Q337-3 263-3M231-176Q221-176 214.50-168Q208-160 210-150Q212-139 221.50-131.50Q231-124 241-124Q252-124 258-131.50Q264-139 262-150Q260-160 251-168Q242-176 231-176Z"  horiz-adv-x="601" vert-adv-y="1000"  />

      
      <glyph glyph-name="uni1E9E" unicode="&#x1E9E;" d="M420-3Q380-3 342 4.50Q304 12 274 27L284 47Q314 31 348.50 23.50Q383 16 423 16Q489 16 539 41Q589 66 617 112.50Q645 159 645 224Q645 295 599.50 332Q554 369 474 369Q452 369 427 366Q402 363 382 357L379 373L671 625L668 615Q640 650 590.50 667Q541 684 475 684Q352 684 278.50 619Q205 554 180 429L95 0L75 0L162 436Q188 564 266 633.50Q344 703 476 703Q524 703 563 694Q602 685 632.50 668Q663 651 684 626L681 610L399 366L397 377Q417 383 437 385Q457 387 476 387Q534 387 576 368Q618 349 641 312.50Q664 276 664 224Q664 154 633.50 103Q603 52 548 24.50Q493-3 420-3Z"  horiz-adv-x="742" vert-adv-y="1000"  />

      
      <glyph glyph-name="uni018F" unicode="&#x018F;" d="M376-3Q280-3 211 32.50Q142 68 105.50 130.50Q69 193 69 274Q69 294 72 314.50Q75 335 79 360L762 360L758 341L87 341L98 350Q94 331 91.50 312.50Q89 294 89 275Q89 198 124 139.50Q159 81 224 48.50Q289 16 378 16Q464 16 534.50 48Q605 80 656 136Q707 192 734.50 265Q762 338 762 420Q762 499 729 558Q696 617 632 650.50Q568 684 475 684Q398 684 337 662Q276 640 234 602L222 616Q263 655 330.50 679Q398 703 477 703Q574 703 642 667.50Q710 632 746 568.50Q782 505 782 420Q782 336 753.50 260Q725 184 672 124.50Q619 65 544 31Q469-3 376-3Z"  horiz-adv-x="816" vert-adv-y="1000"  />

      
      <glyph glyph-name="uni54" unicode="&#x54;" d="M212 0L348 681L88 681L92 700L632 700L628 681L368 681L232 0L212 0Z"  horiz-adv-x="548" vert-adv-y="1000"  />

      
      <glyph glyph-name="uni0166" unicode="&#x0166;" d="M212 0L348 681L88 681L92 700L632 700L628 681L368 681L232 0L212 0M111 346L115 365L475 365L471 346L111 346Z"  horiz-adv-x="548" vert-adv-y="1000"  />

      
      <glyph glyph-name="uni0164" unicode="&#x0164;" d="M212 0L348 681L88 681L92 700L632 700L628 681L368 681L232 0L212 0Z"  horiz-adv-x="548" vert-adv-y="1000"  />

      
      <glyph glyph-name="uni0162" unicode="&#x0162;" d="M212 0L348 681L88 681L92 700L632 700L628 681L368 681L232 0L212 0M173-213Q151-213 130.50-206.50Q110-200 95-186L109-171Q121-182 137-188Q153-194 174-194Q209-194 230-174.50Q251-155 251-124Q251-101 234.50-87.50Q218-74 189-74L175-74L213 5L232 5L203-56Q235-59 253.50-77Q272-95 272-124Q272-161 244.50-187Q217-213 173-213Z"  horiz-adv-x="548" vert-adv-y="1000"  />

      
      <glyph glyph-name="uni021A" unicode="&#x021A;" d="M212 0L348 681L88 681L92 700L632 700L628 681L368 681L232 0L212 0M151-259L191-165L192-176Q182-176 174-168Q166-160 166-150Q166-139 173.50-131.50Q181-124 191-124Q203-124 210.50-131.50Q218-139 218-150Q218-158 216-164.50Q214-171 209-179L169-259L151-259Z"  horiz-adv-x="548" vert-adv-y="1000"  />

      
      <glyph glyph-name="uni1E6C" unicode="&#x1E6C;" d="M212 0L348 681L88 681L92 700L632 700L628 681L368 681L232 0L212 0M187-176Q177-176 170.50-168Q164-160 166-150Q168-139 177.50-131.50Q187-124 197-124Q208-124 214-131.50Q220-139 218-150Q216-160 207-168Q198-176 187-176Z"  horiz-adv-x="548" vert-adv-y="1000"  />

      
      <glyph glyph-name="uni1E6E" unicode="&#x1E6E;" d="M212 0L348 681L88 681L92 700L632 700L628 681L368 681L232 0L212 0M54-160L58-140L330-140L326-160L54-160Z"  horiz-adv-x="548" vert-adv-y="1000"  />

      
      <glyph glyph-name="uni55" unicode="&#x55;" d="M354-3Q261-3 206.50 37.50Q152 78 134.50 145Q117 212 134 291L215 700L235 700L153 290Q142 238 146.50 189Q151 140 174 101Q197 62 242 39Q287 16 358 16Q445 16 504 48Q563 80 598.50 138.50Q634 197 650 275L735 700L755 700L670 274Q645 145 567 71Q489-3 354-3Z"  horiz-adv-x="794" vert-adv-y="1000"  />

      
      <glyph glyph-name="unida" unicode="&#xda;" d="M354-3Q261-3 206.50 37.50Q152 78 134.50 145Q117 212 134 291L215 700L235 700L153 290Q142 238 146.50 189Q151 140 174 101Q197 62 242 39Q287 16 358 16Q445 16 504 48Q563 80 598.50 138.50Q634 197 650 275L735 700L755 700L670 274Q645 145 567 71Q489-3 354-3Z"  horiz-adv-x="794" vert-adv-y="1000"  />

      
      <glyph glyph-name="uni016C" unicode="&#x016C;" d="M354-3Q261-3 206.50 37.50Q152 78 134.50 145Q117 212 134 291L215 700L235 700L153 290Q142 238 146.50 189Q151 140 174 101Q197 62 242 39Q287 16 358 16Q445 16 504 48Q563 80 598.50 138.50Q634 197 650 275L735 700L755 700L670 274Q645 145 567 71Q489-3 354-3Z"  horiz-adv-x="794" vert-adv-y="1000"  />

      
      <glyph glyph-name="uni01D3" unicode="&#x01D3;" d="M354-3Q261-3 206.50 37.50Q152 78 134.50 145Q117 212 134 291L215 700L235 700L153 290Q142 238 146.50 189Q151 140 174 101Q197 62 242 39Q287 16 358 16Q445 16 504 48Q563 80 598.50 138.50Q634 197 650 275L735 700L755 700L670 274Q645 145 567 71Q489-3 354-3Z"  horiz-adv-x="794" vert-adv-y="1000"  />

      
      <glyph glyph-name="unidb" unicode="&#xdb;" d="M354-3Q261-3 206.50 37.50Q152 78 134.50 145Q117 212 134 291L215 700L235 700L153 290Q142 238 146.50 189Q151 140 174 101Q197 62 242 39Q287 16 358 16Q445 16 504 48Q563 80 598.50 138.50Q634 197 650 275L735 700L755 700L670 274Q645 145 567 71Q489-3 354-3Z"  horiz-adv-x="794" vert-adv-y="1000"  />

      
      <glyph glyph-name="uni0214" unicode="&#x0214;" d="M354-3Q261-3 206.50 37.50Q152 78 134.50 145Q117 212 134 291L215 700L235 700L153 290Q142 238 146.50 189Q151 140 174 101Q197 62 242 39Q287 16 358 16Q445 16 504 48Q563 80 598.50 138.50Q634 197 650 275L735 700L755 700L670 274Q645 145 567 71Q489-3 354-3Z"  horiz-adv-x="794" vert-adv-y="1000"  />

      
      <glyph glyph-name="unidc" unicode="&#xdc;" d="M354-3Q261-3 206.50 37.50Q152 78 134.50 145Q117 212 134 291L215 700L235 700L153 290Q142 238 146.50 189Q151 140 174 101Q197 62 242 39Q287 16 358 16Q445 16 504 48Q563 80 598.50 138.50Q634 197 650 275L735 700L755 700L670 274Q645 145 567 71Q489-3 354-3Z"  horiz-adv-x="794" vert-adv-y="1000"  />

      
      <glyph glyph-name="uni1EE4" unicode="&#x1EE4;" d="M354-3Q261-3 206.50 37.50Q152 78 134.50 145Q117 212 134 291L215 700L235 700L153 290Q142 238 146.50 189Q151 140 174 101Q197 62 242 39Q287 16 358 16Q445 16 504 48Q563 80 598.50 138.50Q634 197 650 275L735 700L755 700L670 274Q645 145 567 71Q489-3 354-3M310-176Q300-176 293.50-168Q287-160 289-150Q291-139 300.50-131.50Q310-124 320-124Q331-124 337-131.50Q343-139 341-150Q339-160 330-168Q321-176 310-176Z"  horiz-adv-x="794" vert-adv-y="1000"  />

      
      <glyph glyph-name="unid9" unicode="&#xd9;" d="M354-3Q261-3 206.50 37.50Q152 78 134.50 145Q117 212 134 291L215 700L235 700L153 290Q142 238 146.50 189Q151 140 174 101Q197 62 242 39Q287 16 358 16Q445 16 504 48Q563 80 598.50 138.50Q634 197 650 275L735 700L755 700L670 274Q645 145 567 71Q489-3 354-3Z"  horiz-adv-x="794" vert-adv-y="1000"  />

      
      <glyph glyph-name="uni1EE6" unicode="&#x1EE6;" d="M354-3Q261-3 206.50 37.50Q152 78 134.50 145Q117 212 134 291L215 700L235 700L153 290Q142 238 146.50 189Q151 140 174 101Q197 62 242 39Q287 16 358 16Q445 16 504 48Q563 80 598.50 138.50Q634 197 650 275L735 700L755 700L670 274Q645 145 567 71Q489-3 354-3Z"  horiz-adv-x="794" vert-adv-y="1000"  />

      
      <glyph glyph-name="uni01AF" unicode="&#x01AF;" d="M354-3Q261-3 206.50 37.50Q152 78 134.50 145Q117 212 134 291L215 700L235 700L153 290Q142 238 146.50 189Q151 140 174 101Q197 62 242 39Q287 16 358 16Q445 16 504 48Q563 80 598.50 138.50Q634 197 650 275L735 700L755 700L670 274Q645 145 567 71Q489-3 354-3M750 681L750 700L760 700Q799 700 814.50 721Q830 742 830 770Q830 790 824 806.50Q818 823 810 837L828 845Q838 830 844 810.50Q850 791 850 771Q850 747 841 726.50Q832 706 812.50 693.50Q793 681 760 681L750 681Z"  horiz-adv-x="794" vert-adv-y="1000"  />

      
      <glyph glyph-name="uni1EE8" unicode="&#x1EE8;" d="M354-3Q261-3 206.50 37.50Q152 78 134.50 145Q117 212 134 291L215 700L235 700L153 290Q142 238 146.50 189Q151 140 174 101Q197 62 242 39Q287 16 358 16Q445 16 504 48Q563 80 598.50 138.50Q634 197 650 275L735 700L755 700L670 274Q645 145 567 71Q489-3 354-3M750 681L750 700L760 700Q799 700 814.50 721Q830 742 830 770Q830 790 824 806.50Q818 823 810 837L828 845Q838 830 844 810.50Q850 791 850 771Q850 747 841 726.50Q832 706 812.50 693.50Q793 681 760 681L750 681Z"  horiz-adv-x="794" vert-adv-y="1000"  />

      
      <glyph glyph-name="uni1EF0" unicode="&#x1EF0;" d="M354-3Q261-3 206.50 37.50Q152 78 134.50 145Q117 212 134 291L215 700L235 700L153 290Q142 238 146.50 189Q151 140 174 101Q197 62 242 39Q287 16 358 16Q445 16 504 48Q563 80 598.50 138.50Q634 197 650 275L735 700L755 700L670 274Q645 145 567 71Q489-3 354-3M750 681L750 700L760 700Q799 700 814.50 721Q830 742 830 770Q830 790 824 806.50Q818 823 810 837L828 845Q838 830 844 810.50Q850 791 850 771Q850 747 841 726.50Q832 706 812.50 693.50Q793 681 760 681L750 681M310-176Q300-176 293.50-168Q287-160 289-150Q291-139 300.50-131.50Q310-124 320-124Q331-124 337-131.50Q343-139 341-150Q339-160 330-168Q321-176 310-176Z"  horiz-adv-x="794" vert-adv-y="1000"  />

      
      <glyph glyph-name="uni1EEA" unicode="&#x1EEA;" d="M354-3Q261-3 206.50 37.50Q152 78 134.50 145Q117 212 134 291L215 700L235 700L153 290Q142 238 146.50 189Q151 140 174 101Q197 62 242 39Q287 16 358 16Q445 16 504 48Q563 80 598.50 138.50Q634 197 650 275L735 700L755 700L670 274Q645 145 567 71Q489-3 354-3M750 681L750 700L760 700Q799 700 814.50 721Q830 742 830 770Q830 790 824 806.50Q818 823 810 837L828 845Q838 830 844 810.50Q850 791 850 771Q850 747 841 726.50Q832 706 812.50 693.50Q793 681 760 681L750 681Z"  horiz-adv-x="794" vert-adv-y="1000"  />

      
      <glyph glyph-name="uni1EEC" unicode="&#x1EEC;" d="M354-3Q261-3 206.50 37.50Q152 78 134.50 145Q117 212 134 291L215 700L235 700L153 290Q142 238 146.50 189Q151 140 174 101Q197 62 242 39Q287 16 358 16Q445 16 504 48Q563 80 598.50 138.50Q634 197 650 275L735 700L755 700L670 274Q645 145 567 71Q489-3 354-3M750 681L750 700L760 700Q799 700 814.50 721Q830 742 830 770Q830 790 824 806.50Q818 823 810 837L828 845Q838 830 844 810.50Q850 791 850 771Q850 747 841 726.50Q832 706 812.50 693.50Q793 681 760 681L750 681Z"  horiz-adv-x="794" vert-adv-y="1000"  />

      
      <glyph glyph-name="uni1EEE" unicode="&#x1EEE;" d="M354-3Q261-3 206.50 37.50Q152 78 134.50 145Q117 212 134 291L215 700L235 700L153 290Q142 238 146.50 189Q151 140 174 101Q197 62 242 39Q287 16 358 16Q445 16 504 48Q563 80 598.50 138.50Q634 197 650 275L735 700L755 700L670 274Q645 145 567 71Q489-3 354-3M750 681L750 700L760 700Q799 700 814.50 721Q830 742 830 770Q830 790 824 806.50Q818 823 810 837L828 845Q838 830 844 810.50Q850 791 850 771Q850 747 841 726.50Q832 706 812.50 693.50Q793 681 760 681L750 681Z"  horiz-adv-x="794" vert-adv-y="1000"  />

      
      <glyph glyph-name="uni0170" unicode="&#x0170;" d="M354-3Q261-3 206.50 37.50Q152 78 134.50 145Q117 212 134 291L215 700L235 700L153 290Q142 238 146.50 189Q151 140 174 101Q197 62 242 39Q287 16 358 16Q445 16 504 48Q563 80 598.50 138.50Q634 197 650 275L735 700L755 700L670 274Q645 145 567 71Q489-3 354-3Z"  horiz-adv-x="794" vert-adv-y="1000"  />

      
      <glyph glyph-name="uni0216" unicode="&#x0216;" d="M354-3Q261-3 206.50 37.50Q152 78 134.50 145Q117 212 134 291L215 700L235 700L153 290Q142 238 146.50 189Q151 140 174 101Q197 62 242 39Q287 16 358 16Q445 16 504 48Q563 80 598.50 138.50Q634 197 650 275L735 700L755 700L670 274Q645 145 567 71Q489-3 354-3Z"  horiz-adv-x="794" vert-adv-y="1000"  />

      
      <glyph glyph-name="uni016A" unicode="&#x016A;" d="M354-3Q261-3 206.50 37.50Q152 78 134.50 145Q117 212 134 291L215 700L235 700L153 290Q142 238 146.50 189Q151 140 174 101Q197 62 242 39Q287 16 358 16Q445 16 504 48Q563 80 598.50 138.50Q634 197 650 275L735 700L755 700L670 274Q645 145 567 71Q489-3 354-3Z"  horiz-adv-x="794" vert-adv-y="1000"  />

      
      <glyph glyph-name="uni1E7A" unicode="&#x1E7A;" d="M354-3Q261-3 206.50 37.50Q152 78 134.50 145Q117 212 134 291L215 700L235 700L153 290Q142 238 146.50 189Q151 140 174 101Q197 62 242 39Q287 16 358 16Q445 16 504 48Q563 80 598.50 138.50Q634 197 650 275L735 700L755 700L670 274Q645 145 567 71Q489-3 354-3Z"  horiz-adv-x="794" vert-adv-y="1000"  />

      
      <glyph glyph-name="uni0172" unicode="&#x0172;" d="M358 16Q446 16 504.50 48Q563 80 599 139Q616 168 629 202Q642 236 650 275L735 700L755 700L670 274Q649 162 587.50 91.50Q526 21 428 3Q339-23 297-63Q255-103 255-142Q255-168 269.50-181Q284-194 312-194Q332-194 350-187.50Q368-181 383-169L391-186Q374-199 354-206Q334-213 311-213Q277-213 256-194.50Q235-176 235-144Q235-106 268.50-68Q302-30 366-3Q360-3 353-3Q346-3 341-3Q258-2 205 38Q152 78 135 145Q126 180 126 216Q126 252 134 291L215 700L235 700L153 290Q142 238 146.50 189Q151 140 174 101Q197 62 242 39Q287 16 358 16Z"  horiz-adv-x="794" vert-adv-y="1000"  />

      
      <glyph glyph-name="uni016E" unicode="&#x016E;" d="M354-3Q261-3 206.50 37.50Q152 78 134.50 145Q117 212 134 291L215 700L235 700L153 290Q142 238 146.50 189Q151 140 174 101Q197 62 242 39Q287 16 358 16Q445 16 504 48Q563 80 598.50 138.50Q634 197 650 275L735 700L755 700L670 274Q645 145 567 71Q489-3 354-3M520 780Q493 780 472.50 792.50Q452 805 440 825.50Q428 846 428 870Q428 895 440 916Q452 937 473 950Q494 963 520 963Q547 963 568 950Q589 937 601 916Q613 895 613 870Q613 846 601 825.50Q589 805 568 792.50Q547 780 520 780M520 799Q552 799 572.50 820Q593 841 593 870Q593 900 572.50 922Q552 944 520 944Q489 944 468.50 922.50Q448 901 448 870Q448 840 468 819.50Q488 799 520 799Z"  horiz-adv-x="794" vert-adv-y="1000"  />

      
      <glyph glyph-name="uni0168" unicode="&#x0168;" d="M354-3Q261-3 206.50 37.50Q152 78 134.50 145Q117 212 134 291L215 700L235 700L153 290Q142 238 146.50 189Q151 140 174 101Q197 62 242 39Q287 16 358 16Q445 16 504 48Q563 80 598.50 138.50Q634 197 650 275L735 700L755 700L670 274Q645 145 567 71Q489-3 354-3Z"  horiz-adv-x="794" vert-adv-y="1000"  />

      
      <glyph glyph-name="uni1E78" unicode="&#x1E78;" d="M354-3Q261-3 206.50 37.50Q152 78 134.50 145Q117 212 134 291L215 700L235 700L153 290Q142 238 146.50 189Q151 140 174 101Q197 62 242 39Q287 16 358 16Q445 16 504 48Q563 80 598.50 138.50Q634 197 650 275L735 700L755 700L670 274Q645 145 567 71Q489-3 354-3Z"  horiz-adv-x="794" vert-adv-y="1000"  />

      
      <glyph glyph-name="uni56" unicode="&#x56;" d="M273 0L98 700L119 700L289 17L280 17L724 700L748 700L293 0L273 0Z"  horiz-adv-x="670" vert-adv-y="1000"  />

      
      <glyph glyph-name="uni57" unicode="&#x57;" d="M233 0L133 700L153 700L250 17L241 17L617 700L637 700L740 17L730 17L1101 700L1123 700L743 0L723 0L621 676L626 677L253 0L233 0Z"  horiz-adv-x="1080" vert-adv-y="1000"  />

      
      <glyph glyph-name="uni1E82" unicode="&#x1E82;" d="M233 0L133 700L153 700L250 17L241 17L617 700L637 700L740 17L730 17L1101 700L1123 700L743 0L723 0L621 676L626 677L253 0L233 0Z"  horiz-adv-x="1080" vert-adv-y="1000"  />

      
      <glyph glyph-name="uni0174" unicode="&#x0174;" d="M233 0L133 700L153 700L250 17L241 17L617 700L637 700L740 17L730 17L1101 700L1123 700L743 0L723 0L621 676L626 677L253 0L233 0Z"  horiz-adv-x="1080" vert-adv-y="1000"  />

      
      <glyph glyph-name="uni1E84" unicode="&#x1E84;" d="M233 0L133 700L153 700L250 17L241 17L617 700L637 700L740 17L730 17L1101 700L1123 700L743 0L723 0L621 676L626 677L253 0L233 0Z"  horiz-adv-x="1080" vert-adv-y="1000"  />

      
      <glyph glyph-name="uni1E80" unicode="&#x1E80;" d="M233 0L133 700L153 700L250 17L241 17L617 700L637 700L740 17L730 17L1101 700L1123 700L743 0L723 0L621 676L626 677L253 0L233 0Z"  horiz-adv-x="1080" vert-adv-y="1000"  />

      
      <glyph glyph-name="uni58" unicode="&#x58;" d="M-27 0L324 369L323 359L133 700L154 700L338 369L329 374L640 700L664 700L340 360L340 366L544 0L523 0L327 353L332 351L-3 0L-27 0Z"  horiz-adv-x="621" vert-adv-y="1000"  />

      
      <glyph glyph-name="uni59" unicode="&#x59;" d="M243 0L292 245L294 230L98 700L120 700L306 253L299 252L663 700L688 700L304 228L312 245L263 0L243 0Z"  horiz-adv-x="610" vert-adv-y="1000"  />

      
      <glyph glyph-name="unidd" unicode="&#xdd;" d="M243 0L292 245L294 230L98 700L120 700L306 253L299 252L663 700L688 700L304 228L312 245L263 0L243 0Z"  horiz-adv-x="610" vert-adv-y="1000"  />

      
      <glyph glyph-name="uni0176" unicode="&#x0176;" d="M243 0L292 245L294 230L98 700L120 700L306 253L299 252L663 700L688 700L304 228L312 245L263 0L243 0Z"  horiz-adv-x="610" vert-adv-y="1000"  />

      
      <glyph glyph-name="uni0178" unicode="&#x0178;" d="M243 0L292 245L294 230L98 700L120 700L306 253L299 252L663 700L688 700L304 228L312 245L263 0L243 0Z"  horiz-adv-x="610" vert-adv-y="1000"  />

      
      <glyph glyph-name="uni1E8E" unicode="&#x1E8E;" d="M243 0L292 245L294 230L98 700L120 700L306 253L299 252L663 700L688 700L304 228L312 245L263 0L243 0Z"  horiz-adv-x="610" vert-adv-y="1000"  />

      
      <glyph glyph-name="uni1EF4" unicode="&#x1EF4;" d="M243 0L292 245L294 230L98 700L120 700L306 253L299 252L663 700L688 700L304 228L312 245L263 0L243 0M218-176Q208-176 201.50-168Q195-160 197-150Q199-139 208.50-131.50Q218-124 228-124Q239-124 245-131.50Q251-139 249-150Q247-160 238-168Q229-176 218-176Z"  horiz-adv-x="610" vert-adv-y="1000"  />

      
      <glyph glyph-name="uni1EF2" unicode="&#x1EF2;" d="M243 0L292 245L294 230L98 700L120 700L306 253L299 252L663 700L688 700L304 228L312 245L263 0L243 0Z"  horiz-adv-x="610" vert-adv-y="1000"  />

      
      <glyph glyph-name="uni1EF6" unicode="&#x1EF6;" d="M243 0L292 245L294 230L98 700L120 700L306 253L299 252L663 700L688 700L304 228L312 245L263 0L243 0Z"  horiz-adv-x="610" vert-adv-y="1000"  />

      
      <glyph glyph-name="uni0232" unicode="&#x0232;" d="M243 0L292 245L294 230L98 700L120 700L306 253L299 252L663 700L688 700L304 228L312 245L263 0L243 0Z"  horiz-adv-x="610" vert-adv-y="1000"  />

      
      <glyph glyph-name="uni1EF8" unicode="&#x1EF8;" d="M243 0L292 245L294 230L98 700L120 700L306 253L299 252L663 700L688 700L304 228L312 245L263 0L243 0Z"  horiz-adv-x="610" vert-adv-y="1000"  />

      
      <glyph glyph-name="uni5a" unicode="&#x5a;" d="M-2 0L1 15L650 688L649 681L139 681L143 700L678 700L675 685L25 12L27 19L552 19L548 0L-2 0Z"  horiz-adv-x="639" vert-adv-y="1000"  />

      
      <glyph glyph-name="uni0179" unicode="&#x0179;" d="M-2 0L1 15L650 688L649 681L139 681L143 700L678 700L675 685L25 12L27 19L552 19L548 0L-2 0Z"  horiz-adv-x="639" vert-adv-y="1000"  />

      
      <glyph glyph-name="uni017D" unicode="&#x017D;" d="M-2 0L1 15L650 688L649 681L139 681L143 700L678 700L675 685L25 12L27 19L552 19L548 0L-2 0Z"  horiz-adv-x="639" vert-adv-y="1000"  />

      
      <glyph glyph-name="uni017B" unicode="&#x017B;" d="M-2 0L1 15L650 688L649 681L139 681L143 700L678 700L675 685L25 12L27 19L552 19L548 0L-2 0Z"  horiz-adv-x="639" vert-adv-y="1000"  />

      
      <glyph glyph-name="uni1E92" unicode="&#x1E92;" d="M-2 0L1 15L650 688L649 681L139 681L143 700L678 700L675 685L25 12L27 19L552 19L548 0L-2 0M248-176Q238-176 231.50-168Q225-160 227-150Q229-139 238.50-131.50Q248-124 258-124Q269-124 275-131.50Q281-139 279-150Q277-160 268-168Q259-176 248-176Z"  horiz-adv-x="639" vert-adv-y="1000"  />

      
      <glyph glyph-name="uni61" unicode="&#x61;" d="M269-3Q202-3 152.50 22.50Q103 48 76 95.50Q49 143 49 207Q49 274 70.50 331Q92 388 131 430.50Q170 473 223.50 496.50Q277 520 341 520Q410 520 458 495Q506 470 531.50 423.50Q557 377 557 312Q558 223 521.50 151.50Q485 80 420 38.50Q355-3 269-3M272 16Q350 16 410.50 54Q471 92 506 158.50Q541 225 541 309Q541 401 487.50 451Q434 501 338 501Q261 501 200 462.50Q139 424 104 358Q69 292 69 208Q69 117 122.50 66.50Q176 16 272 16M485 0L521 180L547 250L550 327L588 517L608 517L505 0L485 0Z"  horiz-adv-x="671" vert-adv-y="1000"  />

      
      <glyph glyph-name="unie1" unicode="&#xe1;" d="M269-3Q202-3 152.50 22.50Q103 48 76 95.50Q49 143 49 207Q49 274 70.50 331Q92 388 131 430.50Q170 473 223.50 496.50Q277 520 341 520Q410 520 458 495Q506 470 531.50 423.50Q557 377 557 312Q558 223 521.50 151.50Q485 80 420 38.50Q355-3 269-3M272 16Q350 16 410.50 54Q471 92 506 158.50Q541 225 541 309Q541 401 487.50 451Q434 501 338 501Q261 501 200 462.50Q139 424 104 358Q69 292 69 208Q69 117 122.50 66.50Q176 16 272 16M485 0L521 180L547 250L550 327L588 517L608 517L505 0L485 0M340 607L492 717L534 717L372 607L340 607Z"  horiz-adv-x="671" vert-adv-y="1000"  />

      
      <glyph glyph-name="uni0103" unicode="&#x0103;" d="M269-3Q202-3 152.50 22.50Q103 48 76 95.50Q49 143 49 207Q49 274 70.50 331Q92 388 131 430.50Q170 473 223.50 496.50Q277 520 341 520Q410 520 458 495Q506 470 531.50 423.50Q557 377 557 312Q558 223 521.50 151.50Q485 80 420 38.50Q355-3 269-3M272 16Q350 16 410.50 54Q471 92 506 158.50Q541 225 541 309Q541 401 487.50 451Q434 501 338 501Q261 501 200 462.50Q139 424 104 358Q69 292 69 208Q69 117 122.50 66.50Q176 16 272 16M485 0L521 180L547 250L550 327L588 517L608 517L505 0L485 0M397 604Q361 604 332.50 618Q304 632 288 657.50Q272 683 275 717L294 717Q291 674 320.50 648.50Q350 623 398 623Q443 623 478.50 648Q514 673 520 717L539 717Q532 665 491.50 634.50Q451 604 397 604Z"  horiz-adv-x="671" vert-adv-y="1000"  />

      
      <glyph glyph-name="uni1EAF" unicode="&#x1EAF;" d="M269-3Q202-3 152.50 22.50Q103 48 76 95.50Q49 143 49 207Q49 274 70.50 331Q92 388 131 430.50Q170 473 223.50 496.50Q277 520 341 520Q410 520 458 495Q506 470 531.50 423.50Q557 377 557 312Q558 223 521.50 151.50Q485 80 420 38.50Q355-3 269-3M272 16Q350 16 410.50 54Q471 92 506 158.50Q541 225 541 309Q541 401 487.50 451Q434 501 338 501Q261 501 200 462.50Q139 424 104 358Q69 292 69 208Q69 117 122.50 66.50Q176 16 272 16M485 0L521 180L547 250L550 327L588 517L608 517L505 0L485 0Z"  horiz-adv-x="671" vert-adv-y="1000"  />

      
      <glyph glyph-name="uni1EB7" unicode="&#x1EB7;" d="M269-3Q202-3 152.50 22.50Q103 48 76 95.50Q49 143 49 207Q49 274 70.50 331Q92 388 131 430.50Q170 473 223.50 496.50Q277 520 341 520Q410 520 458 495Q506 470 531.50 423.50Q557 377 557 312Q558 223 521.50 151.50Q485 80 420 38.50Q355-3 269-3M272 16Q350 16 410.50 54Q471 92 506 158.50Q541 225 541 309Q541 401 487.50 451Q434 501 338 501Q261 501 200 462.50Q139 424 104 358Q69 292 69 208Q69 117 122.50 66.50Q176 16 272 16M485 0L521 180L547 250L550 327L588 517L608 517L505 0L485 0M230-176Q220-176 213.50-168Q207-160 209-150Q211-139 220.50-131.50Q230-124 240-124Q251-124 257-131.50Q263-139 261-150Q259-160 250-168Q241-176 230-176M397 604Q361 604 332.50 618Q304 632 288 657.50Q272 683 275 717L294 717Q291 674 320.50 648.50Q350 623 398 623Q443 623 478.50 648Q514 673 520 717L539 717Q532 665 491.50 634.50Q451 604 397 604Z"  horiz-adv-x="671" vert-adv-y="1000"  />

      
      <glyph glyph-name="uni1EB1" unicode="&#x1EB1;" d="M269-3Q202-3 152.50 22.50Q103 48 76 95.50Q49 143 49 207Q49 274 70.50 331Q92 388 131 430.50Q170 473 223.50 496.50Q277 520 341 520Q410 520 458 495Q506 470 531.50 423.50Q557 377 557 312Q558 223 521.50 151.50Q485 80 420 38.50Q355-3 269-3M272 16Q350 16 410.50 54Q471 92 506 158.50Q541 225 541 309Q541 401 487.50 451Q434 501 338 501Q261 501 200 462.50Q139 424 104 358Q69 292 69 208Q69 117 122.50 66.50Q176 16 272 16M485 0L521 180L547 250L550 327L588 517L608 517L505 0L485 0Z"  horiz-adv-x="671" vert-adv-y="1000"  />

      
      <glyph glyph-name="uni1EB3" unicode="&#x1EB3;" d="M269-3Q202-3 152.50 22.50Q103 48 76 95.50Q49 143 49 207Q49 274 70.50 331Q92 388 131 430.50Q170 473 223.50 496.50Q277 520 341 520Q410 520 458 495Q506 470 531.50 423.50Q557 377 557 312Q558 223 521.50 151.50Q485 80 420 38.50Q355-3 269-3M272 16Q350 16 410.50 54Q471 92 506 158.50Q541 225 541 309Q541 401 487.50 451Q434 501 338 501Q261 501 200 462.50Q139 424 104 358Q69 292 69 208Q69 117 122.50 66.50Q176 16 272 16M485 0L521 180L547 250L550 327L588 517L608 517L505 0L485 0Z"  horiz-adv-x="671" vert-adv-y="1000"  />

      
      <glyph glyph-name="uni1EB5" unicode="&#x1EB5;" d="M269-3Q202-3 152.50 22.50Q103 48 76 95.50Q49 143 49 207Q49 274 70.50 331Q92 388 131 430.50Q170 473 223.50 496.50Q277 520 341 520Q410 520 458 495Q506 470 531.50 423.50Q557 377 557 312Q558 223 521.50 151.50Q485 80 420 38.50Q355-3 269-3M272 16Q350 16 410.50 54Q471 92 506 158.50Q541 225 541 309Q541 401 487.50 451Q434 501 338 501Q261 501 200 462.50Q139 424 104 358Q69 292 69 208Q69 117 122.50 66.50Q176 16 272 16M485 0L521 180L547 250L550 327L588 517L608 517L505 0L485 0Z"  horiz-adv-x="671" vert-adv-y="1000"  />

      
      </font>
</defs>
</svg>
