<?xml version="1.0" standalone="no"?>
  <!DOCTYPE svg PUBLIC "-//W3C//DTD SVG 1.1//EN" "http://www.w3.org/Graphics/SVG/1.1/DTD/svg11.dtd" >
  <svg>
  <metadata>
  Created by font-carrier
  </metadata>
  <defs>
  <font id="Montserrat-ExtraLightItalic" horiz-adv-x="1566" vert-adv-y="1566" >
    <font-face
      
      font-family="Montserrat ExtraLight"
      
      font-weight="400"
      
      font-stretch="normal"
      
      units-per-em="1000"
      
      ascent="968"
      
      descent="-251"
      
    />
      <missing-glyph />

      

      
      <glyph glyph-name="uni41" unicode="&#x41;" d="M-45 0L419 700L452 700L636 0L602 0L426 677L440 677L-7 0L-45 0M108 205L127 234L555 234L562 205L108 205Z"  horiz-adv-x="696" vert-adv-y="1000"  />

      
      <glyph glyph-name="unic1" unicode="&#xc1;" d="M-45 0L419 700L452 700L636 0L602 0L426 677L440 677L-7 0L-45 0M108 205L127 234L555 234L562 205L108 205Z"  horiz-adv-x="696" vert-adv-y="1000"  />

      
      <glyph glyph-name="uni0102" unicode="&#x0102;" d="M-45 0L419 700L452 700L636 0L602 0L426 677L440 677L-7 0L-45 0M108 205L127 234L555 234L562 205L108 205Z"  horiz-adv-x="696" vert-adv-y="1000"  />

      
      <glyph glyph-name="uni1EAE" unicode="&#x1EAE;" d="M-45 0L419 700L452 700L636 0L602 0L426 677L440 677L-7 0L-45 0M108 205L127 234L555 234L562 205L108 205Z"  horiz-adv-x="696" vert-adv-y="1000"  />

      
      <glyph glyph-name="uni1EB6" unicode="&#x1EB6;" d="M-45 0L419 700L452 700L636 0L602 0L426 677L440 677L-7 0L-45 0M108 205L127 234L555 234L562 205L108 205M261-179Q249-179 241.50-170.50Q234-162 236-150Q237-137 248-128Q259-119 271-119Q284-119 291-127.50Q298-136 296-148Q295-161 284.50-170Q274-179 261-179Z"  horiz-adv-x="696" vert-adv-y="1000"  />

      
      <glyph glyph-name="uni1EB0" unicode="&#x1EB0;" d="M-45 0L419 700L452 700L636 0L602 0L426 677L440 677L-7 0L-45 0M108 205L127 234L555 234L562 205L108 205Z"  horiz-adv-x="696" vert-adv-y="1000"  />

      
      <glyph glyph-name="uni1EB2" unicode="&#x1EB2;" d="M-45 0L419 700L452 700L636 0L602 0L426 677L440 677L-7 0L-45 0M108 205L127 234L555 234L562 205L108 205Z"  horiz-adv-x="696" vert-adv-y="1000"  />

      
      <glyph glyph-name="uni1EB4" unicode="&#x1EB4;" d="M-45 0L419 700L452 700L636 0L602 0L426 677L440 677L-7 0L-45 0M108 205L127 234L555 234L562 205L108 205Z"  horiz-adv-x="696" vert-adv-y="1000"  />

      
      <glyph glyph-name="uni01CD" unicode="&#x01CD;" d="M-45 0L419 700L452 700L636 0L602 0L426 677L440 677L-7 0L-45 0M108 205L127 234L555 234L562 205L108 205Z"  horiz-adv-x="696" vert-adv-y="1000"  />

      
      <glyph glyph-name="unic2" unicode="&#xc2;" d="M-45 0L419 700L452 700L636 0L602 0L426 677L440 677L-7 0L-45 0M108 205L127 234L555 234L562 205L108 205Z"  horiz-adv-x="696" vert-adv-y="1000"  />

      
      <glyph glyph-name="uni1EA4" unicode="&#x1EA4;" d="M-45 0L419 700L452 700L636 0L602 0L426 677L440 677L-7 0L-45 0M108 205L127 234L555 234L562 205L108 205Z"  horiz-adv-x="696" vert-adv-y="1000"  />

      
      <glyph glyph-name="uni1EAC" unicode="&#x1EAC;" d="M-45 0L419 700L452 700L636 0L602 0L426 677L440 677L-7 0L-45 0M108 205L127 234L555 234L562 205L108 205M261-179Q249-179 241.50-170.50Q234-162 236-150Q237-137 248-128Q259-119 271-119Q284-119 291-127.50Q298-136 296-148Q295-161 284.50-170Q274-179 261-179Z"  horiz-adv-x="696" vert-adv-y="1000"  />

      
      <glyph glyph-name="uni1EA6" unicode="&#x1EA6;" d="M-45 0L419 700L452 700L636 0L602 0L426 677L440 677L-7 0L-45 0M108 205L127 234L555 234L562 205L108 205Z"  horiz-adv-x="696" vert-adv-y="1000"  />

      
      <glyph glyph-name="uni1EA8" unicode="&#x1EA8;" d="M-45 0L419 700L452 700L636 0L602 0L426 677L440 677L-7 0L-45 0M108 205L127 234L555 234L562 205L108 205Z"  horiz-adv-x="696" vert-adv-y="1000"  />

      
      <glyph glyph-name="uni1EAA" unicode="&#x1EAA;" d="M-45 0L419 700L452 700L636 0L602 0L426 677L440 677L-7 0L-45 0M108 205L127 234L555 234L562 205L108 205Z"  horiz-adv-x="696" vert-adv-y="1000"  />

      
      <glyph glyph-name="uni0200" unicode="&#x0200;" d="M-45 0L419 700L452 700L636 0L602 0L426 677L440 677L-7 0L-45 0M108 205L127 234L555 234L562 205L108 205Z"  horiz-adv-x="696" vert-adv-y="1000"  />

      
      <glyph glyph-name="unic4" unicode="&#xc4;" d="M-45 0L419 700L452 700L636 0L602 0L426 677L440 677L-7 0L-45 0M108 205L127 234L555 234L562 205L108 205Z"  horiz-adv-x="696" vert-adv-y="1000"  />

      
      <glyph glyph-name="uni1EA0" unicode="&#x1EA0;" d="M-45 0L419 700L452 700L636 0L602 0L426 677L440 677L-7 0L-45 0M108 205L127 234L555 234L562 205L108 205M261-179Q249-179 241.50-170.50Q234-162 236-150Q237-137 248-128Q259-119 271-119Q284-119 291-127.50Q298-136 296-148Q295-161 284.50-170Q274-179 261-179Z"  horiz-adv-x="696" vert-adv-y="1000"  />

      
      <glyph glyph-name="unic0" unicode="&#xc0;" d="M-45 0L419 700L452 700L636 0L602 0L426 677L440 677L-7 0L-45 0M108 205L127 234L555 234L562 205L108 205Z"  horiz-adv-x="696" vert-adv-y="1000"  />

      
      <glyph glyph-name="uni1EA2" unicode="&#x1EA2;" d="M-45 0L419 700L452 700L636 0L602 0L426 677L440 677L-7 0L-45 0M108 205L127 234L555 234L562 205L108 205Z"  horiz-adv-x="696" vert-adv-y="1000"  />

      
      <glyph glyph-name="uni0202" unicode="&#x0202;" d="M-45 0L419 700L452 700L636 0L602 0L426 677L440 677L-7 0L-45 0M108 205L127 234L555 234L562 205L108 205Z"  horiz-adv-x="696" vert-adv-y="1000"  />

      
      <glyph glyph-name="uni0100" unicode="&#x0100;" d="M-45 0L419 700L452 700L636 0L602 0L426 677L440 677L-7 0L-45 0M108 205L127 234L555 234L562 205L108 205Z"  horiz-adv-x="696" vert-adv-y="1000"  />

      
      <glyph glyph-name="uni0104" unicode="&#x0104;" d="M-45 0L419 700L452 700L636 0L602 0L426 677L440 677L-7 0L-45 0M108 205L127 234L555 234L562 205L108 205M535-215Q499-215 476.50-195.50Q454-176 454-143Q454-112 471.50-84Q489-56 526.50-30Q564-4 623 19L636 0Q585-20 550.50-42.50Q516-65 499.50-89Q483-113 483-139Q483-163 497.50-176.50Q512-190 539-190Q557-190 575.50-183.50Q594-177 609-166L618-188Q600-201 579-208Q558-215 535-215Z"  horiz-adv-x="696" vert-adv-y="1000"  />

      
      <glyph glyph-name="unic5" unicode="&#xc5;" d="M-45 0L419 700L452 700L636 0L602 0L426 677L440 677L-7 0L-45 0M108 205L127 234L555 234L562 205L108 205M470 778Q442 778 421 790.50Q400 803 387.50 824.50Q375 846 375 871Q375 896 387.50 918Q400 940 421.50 953Q443 966 470 966Q498 966 519.50 953Q541 940 553.50 918Q566 896 566 871Q566 846 553.50 824.50Q541 803 519.50 790.50Q498 778 470 778M470 800Q502 800 522 821Q542 842 542 871Q542 900 522 921.50Q502 943 470 943Q440 943 419.50 922Q399 901 399 871Q399 841 419 820.50Q439 800 470 800Z"  horiz-adv-x="696" vert-adv-y="1000"  />

      
      <glyph glyph-name="uni01FA" unicode="&#x01FA;" d="M-45 0L419 700L452 700L636 0L602 0L426 677L440 677L-7 0L-45 0M108 205L127 234L555 234L562 205L108 205M470 778Q442 778 421 790.50Q400 803 387.50 824.50Q375 846 375 871Q375 896 387.50 918Q400 940 421.50 953Q443 966 470 966Q498 966 519.50 953Q541 940 553.50 918Q566 896 566 871Q566 846 553.50 824.50Q541 803 519.50 790.50Q498 778 470 778M470 800Q502 800 522 821Q542 842 542 871Q542 900 522 921.50Q502 943 470 943Q440 943 419.50 922Q399 901 399 871Q399 841 419 820.50Q439 800 470 800M541 928L515 939L606 1027L629 1009L541 928Z"  horiz-adv-x="696" vert-adv-y="1000"  />

      
      <glyph glyph-name="unic3" unicode="&#xc3;" d="M-45 0L419 700L452 700L636 0L602 0L426 677L440 677L-7 0L-45 0M108 205L127 234L555 234L562 205L108 205Z"  horiz-adv-x="696" vert-adv-y="1000"  />

      
      <glyph glyph-name="unic6" unicode="&#xc6;" d="M-45 0L533 700L570 700L564 670L531 670L556 680L-5 0L-45 0M146 205L161 234L477 234L471 205L146 205M420 0L560 700L1018 700L1012 669L587 669L460 31L900 31L893 0L420 0M516 340L522 371L908 371L902 340L516 340Z"  horiz-adv-x="1012" vert-adv-y="1000"  />

      
      <glyph glyph-name="uni01FC" unicode="&#x01FC;" d="M-45 0L533 700L570 700L564 670L531 670L556 680L-5 0L-45 0M146 205L161 234L477 234L471 205L146 205M420 0L560 700L1018 700L1012 669L587 669L460 31L900 31L893 0L420 0M516 340L522 371L908 371L902 340L516 340Z"  horiz-adv-x="1012" vert-adv-y="1000"  />

      
      <glyph glyph-name="uni42" unicode="&#x42;" d="M76 0L216 700L499 700Q595 700 650 664Q705 628 705 557Q705 488 671.50 442Q638 396 582.50 373Q527 350 460 350L479 364Q570 364 623 327Q676 290 676 215Q676 146 641 98Q606 50 541 25Q476 0 383 0L76 0M116 30L388 30Q510 30 576 77Q642 124 642 213Q642 282 594.50 311.50Q547 341 454 341L171 341L177 370L435 370Q503 370 556 390.50Q609 411 639.50 451.50Q670 492 670 552Q670 611 624 640.50Q578 670 495 670L244 670L116 30Z"  horiz-adv-x="750" vert-adv-y="1000"  />

      
      <glyph glyph-name="uni43" unicode="&#x43;" d="M387-4Q285-4 214 32Q143 68 106 132.50Q69 197 69 281Q69 366 98 442Q127 518 181.50 577Q236 636 314.50 670Q393 704 491 704Q572 704 633.50 680Q695 656 730 612L706 591Q671 632 617 652.50Q563 673 489 673Q400 673 328.50 642Q257 611 207 557Q157 503 130 432Q103 361 103 282Q103 207 135.50 149.50Q168 92 231.50 59.50Q295 27 390 27Q465 27 525 49.50Q585 72 629 113L649 88Q605 46 536 21Q467-4 387-4Z"  horiz-adv-x="713" vert-adv-y="1000"  />

      
      <glyph glyph-name="uni0106" unicode="&#x0106;" d="M387-4Q285-4 214 32Q143 68 106 132.50Q69 197 69 281Q69 366 98 442Q127 518 181.50 577Q236 636 314.50 670Q393 704 491 704Q572 704 633.50 680Q695 656 730 612L706 591Q671 632 617 652.50Q563 673 489 673Q400 673 328.50 642Q257 611 207 557Q157 503 130 432Q103 361 103 282Q103 207 135.50 149.50Q168 92 231.50 59.50Q295 27 390 27Q465 27 525 49.50Q585 72 629 113L649 88Q605 46 536 21Q467-4 387-4Z"  horiz-adv-x="713" vert-adv-y="1000"  />

      
      <glyph glyph-name="uni010C" unicode="&#x010C;" d="M387-4Q285-4 214 32Q143 68 106 132.50Q69 197 69 281Q69 366 98 442Q127 518 181.50 577Q236 636 314.50 670Q393 704 491 704Q572 704 633.50 680Q695 656 730 612L706 591Q671 632 617 652.50Q563 673 489 673Q400 673 328.50 642Q257 611 207 557Q157 503 130 432Q103 361 103 282Q103 207 135.50 149.50Q168 92 231.50 59.50Q295 27 390 27Q465 27 525 49.50Q585 72 629 113L649 88Q605 46 536 21Q467-4 387-4Z"  horiz-adv-x="713" vert-adv-y="1000"  />

      
      <glyph glyph-name="unic7" unicode="&#xc7;" d="M387-4Q285-4 214 32Q143 68 106 132.50Q69 197 69 281Q69 366 98 442Q127 518 181.50 577Q236 636 314.50 670Q393 704 491 704Q572 704 633.50 680Q695 656 730 612L706 591Q671 632 617 652.50Q563 673 489 673Q400 673 328.50 642Q257 611 207 557Q157 503 130 432Q103 361 103 282Q103 207 135.50 149.50Q168 92 231.50 59.50Q295 27 390 27Q465 27 525 49.50Q585 72 629 113L649 88Q605 46 536 21Q467-4 387-4M313-215Q291-215 270-208.50Q249-202 234-189L250-168Q262-179 278.50-184.50Q295-190 315-190Q350-190 370-171.50Q390-153 390-124Q390-102 374.50-89.50Q359-77 330-77L314-77L353 5L378 5L350-55Q382-58 400.50-76.50Q419-95 419-124Q419-162 389.50-188.50Q360-215 313-215Z"  horiz-adv-x="713" vert-adv-y="1000"  />

      
      <glyph glyph-name="uni1E08" unicode="&#x1E08;" d="M387-4Q285-4 214 32Q143 68 106 132.50Q69 197 69 281Q69 366 98 442Q127 518 181.50 577Q236 636 314.50 670Q393 704 491 704Q572 704 633.50 680Q695 656 730 612L706 591Q671 632 617 652.50Q563 673 489 673Q400 673 328.50 642Q257 611 207 557Q157 503 130 432Q103 361 103 282Q103 207 135.50 149.50Q168 92 231.50 59.50Q295 27 390 27Q465 27 525 49.50Q585 72 629 113L649 88Q605 46 536 21Q467-4 387-4M313-215Q291-215 270-208.50Q249-202 234-189L250-168Q262-179 278.50-184.50Q295-190 315-190Q350-190 370-171.50Q390-153 390-124Q390-102 374.50-89.50Q359-77 330-77L314-77L353 5L378 5L350-55Q382-58 400.50-76.50Q419-95 419-124Q419-162 389.50-188.50Q360-215 313-215Z"  horiz-adv-x="713" vert-adv-y="1000"  />

      
      <glyph glyph-name="uni0108" unicode="&#x0108;" d="M387-4Q285-4 214 32Q143 68 106 132.50Q69 197 69 281Q69 366 98 442Q127 518 181.50 577Q236 636 314.50 670Q393 704 491 704Q572 704 633.50 680Q695 656 730 612L706 591Q671 632 617 652.50Q563 673 489 673Q400 673 328.50 642Q257 611 207 557Q157 503 130 432Q103 361 103 282Q103 207 135.50 149.50Q168 92 231.50 59.50Q295 27 390 27Q465 27 525 49.50Q585 72 629 113L649 88Q605 46 536 21Q467-4 387-4Z"  horiz-adv-x="713" vert-adv-y="1000"  />

      
      <glyph glyph-name="uni010A" unicode="&#x010A;" d="M387-4Q285-4 214 32Q143 68 106 132.50Q69 197 69 281Q69 366 98 442Q127 518 181.50 577Q236 636 314.50 670Q393 704 491 704Q572 704 633.50 680Q695 656 730 612L706 591Q671 632 617 652.50Q563 673 489 673Q400 673 328.50 642Q257 611 207 557Q157 503 130 432Q103 361 103 282Q103 207 135.50 149.50Q168 92 231.50 59.50Q295 27 390 27Q465 27 525 49.50Q585 72 629 113L649 88Q605 46 536 21Q467-4 387-4Z"  horiz-adv-x="713" vert-adv-y="1000"  />

      
      <glyph glyph-name="uni44" unicode="&#x44;" d="M76 0L216 700L471 700Q576 700 648 665Q720 630 757 566.50Q794 503 794 419Q794 328 763.50 251Q733 174 676 118Q619 62 538.50 31Q458 0 358 0L76 0M116 31L361 31Q484 31 573 80.50Q662 130 711.50 217.50Q761 305 761 418Q761 493 728.50 550Q696 607 631 638Q566 669 468 669L243 669L116 31Z"  horiz-adv-x="826" vert-adv-y="1000"  />

      
      <glyph glyph-name="uni01C4" unicode="&#x01C4;" d="M76 0L216 700L471 700Q576 700 648 665Q720 630 757 566.50Q794 503 794 419Q794 328 763.50 251Q733 174 676 118Q619 62 538.50 31Q458 0 358 0L76 0M116 31L361 31Q484 31 573 80.50Q662 130 711.50 217.50Q761 305 761 418Q761 493 728.50 550Q696 607 631 638Q566 669 468 669L243 669L116 31Z"  horiz-adv-x="1460" vert-adv-y="1000"  />

      
      <glyph glyph-name="unid0" unicode="&#xd0;" d="M77 0L217 700L472 700Q577 700 649 665Q721 630 758 566.50Q795 503 795 419Q795 328 764.50 251Q734 174 677 118Q620 62 539.50 31Q459 0 359 0L77 0M117 31L362 31Q485 31 574 80.50Q663 130 712.50 217.50Q762 305 762 418Q762 493 729.50 550Q697 607 632 638Q567 669 469 669L244 669L117 31M34 341L40 370L407 370L401 341L34 341Z"  horiz-adv-x="827" vert-adv-y="1000"  />

      
      <glyph glyph-name="uni010E" unicode="&#x010E;" d="M76 0L216 700L471 700Q576 700 648 665Q720 630 757 566.50Q794 503 794 419Q794 328 763.50 251Q733 174 676 118Q619 62 538.50 31Q458 0 358 0L76 0M116 31L361 31Q484 31 573 80.50Q662 130 711.50 217.50Q761 305 761 418Q761 493 728.50 550Q696 607 631 638Q566 669 468 669L243 669L116 31Z"  horiz-adv-x="826" vert-adv-y="1000"  />

      
      <glyph glyph-name="uni0110" unicode="&#x0110;" d="M77 0L217 700L472 700Q577 700 649 665Q721 630 758 566.50Q795 503 795 419Q795 328 764.50 251Q734 174 677 118Q620 62 539.50 31Q459 0 359 0L77 0M117 31L362 31Q485 31 574 80.50Q663 130 712.50 217.50Q762 305 762 418Q762 493 729.50 550Q697 607 632 638Q567 669 469 669L244 669L117 31M34 341L40 370L407 370L401 341L34 341Z"  horiz-adv-x="827" vert-adv-y="1000"  />

      
      <glyph glyph-name="uni1E0C" unicode="&#x1E0C;" d="M76 0L216 700L471 700Q576 700 648 665Q720 630 757 566.50Q794 503 794 419Q794 328 763.50 251Q733 174 676 118Q619 62 538.50 31Q458 0 358 0L76 0M116 31L361 31Q484 31 573 80.50Q662 130 711.50 217.50Q761 305 761 418Q761 493 728.50 550Q696 607 631 638Q566 669 468 669L243 669L116 31M307-179Q295-179 287.50-170.50Q280-162 282-150Q283-137 294-128Q305-119 317-119Q330-119 337-127.50Q344-136 342-148Q341-161 330.50-170Q320-179 307-179Z"  horiz-adv-x="826" vert-adv-y="1000"  />

      
      <glyph glyph-name="uni1E0E" unicode="&#x1E0E;" d="M76 0L216 700L471 700Q576 700 648 665Q720 630 757 566.50Q794 503 794 419Q794 328 763.50 251Q733 174 676 118Q619 62 538.50 31Q458 0 358 0L76 0M116 31L361 31Q484 31 573 80.50Q662 130 711.50 217.50Q761 305 761 418Q761 493 728.50 550Q696 607 631 638Q566 669 468 669L243 669L116 31M169-162L174-135L455-135L450-162L169-162Z"  horiz-adv-x="826" vert-adv-y="1000"  />

      
      <glyph glyph-name="uni01C5" unicode="&#x01C5;" d="M76 0L216 700L471 700Q576 700 648 665Q720 630 757 566.50Q794 503 794 419Q794 328 763.50 251Q733 174 676 118Q619 62 538.50 31Q458 0 358 0L76 0M116 31L361 31Q484 31 573 80.50Q662 130 711.50 217.50Q761 305 761 418Q761 493 728.50 550Q696 607 631 638Q566 669 468 669L243 669L116 31Z"  horiz-adv-x="1322" vert-adv-y="1000"  />

      
      <glyph glyph-name="uni45" unicode="&#x45;" d="M178 371L564 371L558 340L172 340L178 371M116 31L556 31L549 0L76 0L216 700L674 700L668 669L243 669L116 31Z"  horiz-adv-x="668" vert-adv-y="1000"  />

      
      <glyph glyph-name="unic9" unicode="&#xc9;" d="M178 371L564 371L558 340L172 340L178 371M116 31L556 31L549 0L76 0L216 700L674 700L668 669L243 669L116 31Z"  horiz-adv-x="668" vert-adv-y="1000"  />

      
      <glyph glyph-name="uni0114" unicode="&#x0114;" d="M178 371L564 371L558 340L172 340L178 371M116 31L556 31L549 0L76 0L216 700L674 700L668 669L243 669L116 31Z"  horiz-adv-x="668" vert-adv-y="1000"  />

      
      <glyph glyph-name="uni011A" unicode="&#x011A;" d="M178 371L564 371L558 340L172 340L178 371M116 31L556 31L549 0L76 0L216 700L674 700L668 669L243 669L116 31Z"  horiz-adv-x="668" vert-adv-y="1000"  />

      
      <glyph glyph-name="uni1E1C" unicode="&#x1E1C;" d="M178 371L564 371L558 340L172 340L178 371M116 31L556 31L549 0L76 0L216 700L674 700L668 669L243 669L116 31M270-215Q248-215 227-208.50Q206-202 191-189L207-168Q219-179 235.50-184.50Q252-190 272-190Q307-190 327-171.50Q347-153 347-124Q347-102 331.50-89.50Q316-77 287-77L271-77L310 5L335 5L307-55Q339-58 357.50-76.50Q376-95 376-124Q376-162 346.50-188.50Q317-215 270-215Z"  horiz-adv-x="668" vert-adv-y="1000"  />

      
      <glyph glyph-name="unica" unicode="&#xca;" d="M178 371L564 371L558 340L172 340L178 371M116 31L556 31L549 0L76 0L216 700L674 700L668 669L243 669L116 31Z"  horiz-adv-x="668" vert-adv-y="1000"  />

      
      <glyph glyph-name="uni1EBE" unicode="&#x1EBE;" d="M178 371L564 371L558 340L172 340L178 371M116 31L556 31L549 0L76 0L216 700L674 700L668 669L243 669L116 31Z"  horiz-adv-x="668" vert-adv-y="1000"  />

      
      <glyph glyph-name="uni1EC6" unicode="&#x1EC6;" d="M178 371L564 371L558 340L172 340L178 371M116 31L556 31L549 0L76 0L216 700L674 700L668 669L243 669L116 31M287-179Q275-179 267.50-170.50Q260-162 262-150Q263-137 274-128Q285-119 297-119Q310-119 317-127.50Q324-136 322-148Q321-161 310.50-170Q300-179 287-179Z"  horiz-adv-x="668" vert-adv-y="1000"  />

      
      <glyph glyph-name="uni1EC0" unicode="&#x1EC0;" d="M178 371L564 371L558 340L172 340L178 371M116 31L556 31L549 0L76 0L216 700L674 700L668 669L243 669L116 31Z"  horiz-adv-x="668" vert-adv-y="1000"  />

      
      <glyph glyph-name="uni1EC2" unicode="&#x1EC2;" d="M178 371L564 371L558 340L172 340L178 371M116 31L556 31L549 0L76 0L216 700L674 700L668 669L243 669L116 31Z"  horiz-adv-x="668" vert-adv-y="1000"  />

      
      <glyph glyph-name="uni1EC4" unicode="&#x1EC4;" d="M178 371L564 371L558 340L172 340L178 371M116 31L556 31L549 0L76 0L216 700L674 700L668 669L243 669L116 31Z"  horiz-adv-x="668" vert-adv-y="1000"  />

      
      <glyph glyph-name="uni0204" unicode="&#x0204;" d="M178 371L564 371L558 340L172 340L178 371M116 31L556 31L549 0L76 0L216 700L674 700L668 669L243 669L116 31Z"  horiz-adv-x="668" vert-adv-y="1000"  />

      
      <glyph glyph-name="unicb" unicode="&#xcb;" d="M178 371L564 371L558 340L172 340L178 371M116 31L556 31L549 0L76 0L216 700L674 700L668 669L243 669L116 31Z"  horiz-adv-x="668" vert-adv-y="1000"  />

      
      <glyph glyph-name="uni0116" unicode="&#x0116;" d="M178 371L564 371L558 340L172 340L178 371M116 31L556 31L549 0L76 0L216 700L674 700L668 669L243 669L116 31Z"  horiz-adv-x="668" vert-adv-y="1000"  />

      
      <glyph glyph-name="uni1EB8" unicode="&#x1EB8;" d="M178 371L564 371L558 340L172 340L178 371M116 31L556 31L549 0L76 0L216 700L674 700L668 669L243 669L116 31M287-179Q275-179 267.50-170.50Q260-162 262-150Q263-137 274-128Q285-119 297-119Q310-119 317-127.50Q324-136 322-148Q321-161 310.50-170Q300-179 287-179Z"  horiz-adv-x="668" vert-adv-y="1000"  />

      
      <glyph glyph-name="unic8" unicode="&#xc8;" d="M178 371L564 371L558 340L172 340L178 371M116 31L556 31L549 0L76 0L216 700L674 700L668 669L243 669L116 31Z"  horiz-adv-x="668" vert-adv-y="1000"  />

      
      <glyph glyph-name="uni1EBA" unicode="&#x1EBA;" d="M178 371L564 371L558 340L172 340L178 371M116 31L556 31L549 0L76 0L216 700L674 700L668 669L243 669L116 31Z"  horiz-adv-x="668" vert-adv-y="1000"  />

      
      <glyph glyph-name="uni0206" unicode="&#x0206;" d="M178 371L564 371L558 340L172 340L178 371M116 31L556 31L549 0L76 0L216 700L674 700L668 669L243 669L116 31Z"  horiz-adv-x="668" vert-adv-y="1000"  />

      
      <glyph glyph-name="uni0112" unicode="&#x0112;" d="M178 371L564 371L558 340L172 340L178 371M116 31L556 31L549 0L76 0L216 700L674 700L668 669L243 669L116 31Z"  horiz-adv-x="668" vert-adv-y="1000"  />

      
      <glyph glyph-name="uni1E16" unicode="&#x1E16;" d="M178 371L564 371L558 340L172 340L178 371M116 31L556 31L549 0L76 0L216 700L674 700L668 669L243 669L116 31Z"  horiz-adv-x="668" vert-adv-y="1000"  />

      
      <glyph glyph-name="uni1E14" unicode="&#x1E14;" d="M178 371L564 371L558 340L172 340L178 371M116 31L556 31L549 0L76 0L216 700L674 700L668 669L243 669L116 31Z"  horiz-adv-x="668" vert-adv-y="1000"  />

      
      <glyph glyph-name="uni0118" unicode="&#x0118;" d="M178 371L564 371L558 340L172 340L178 371M116 31L556 31L549 0L76 0L216 700L674 700L668 669L243 669L116 31M448-215Q412-215 389.50-195.50Q367-176 367-143Q367-112 384.50-84Q402-56 439.50-30Q477-4 536 19L549 0Q498-20 463.50-42.50Q429-65 412.50-89Q396-113 396-139Q396-163 410.50-176.50Q425-190 452-190Q470-190 488.50-183.50Q507-177 522-166L531-188Q513-201 492-208Q471-215 448-215Z"  horiz-adv-x="668" vert-adv-y="1000"  />

      
      <glyph glyph-name="uni1EBC" unicode="&#x1EBC;" d="M178 371L564 371L558 340L172 340L178 371M116 31L556 31L549 0L76 0L216 700L674 700L668 669L243 669L116 31Z"  horiz-adv-x="668" vert-adv-y="1000"  />

      
      <glyph glyph-name="uni01B7" unicode="&#x01B7;" d="M233-4Q152-4 90.50 23.50Q29 51 1 93L24 117Q48 78 103 52.50Q158 27 235 27Q308 27 361 50.50Q414 74 442 117Q470 160 470 217Q470 287 423 324Q376 361 278 361L246 361L251 385L535 681L540 669L140 669L146 700L576 700L571 676L286 379L275 390L283 390Q356 390 405 370Q454 350 479 311.50Q504 273 504 218Q504 152 470.50 102Q437 52 376 24Q315-4 233-4Z"  horiz-adv-x="580" vert-adv-y="1000"  />

      
      <glyph glyph-name="uni01EE" unicode="&#x01EE;" d="M233-4Q152-4 90.50 23.50Q29 51 1 93L24 117Q48 78 103 52.50Q158 27 235 27Q308 27 361 50.50Q414 74 442 117Q470 160 470 217Q470 287 423 324Q376 361 278 361L246 361L251 385L535 681L540 669L140 669L146 700L576 700L571 676L286 379L275 390L283 390Q356 390 405 370Q454 350 479 311.50Q504 273 504 218Q504 152 470.50 102Q437 52 376 24Q315-4 233-4Z"  horiz-adv-x="580" vert-adv-y="1000"  />

      
      <glyph glyph-name="uni46" unicode="&#x46;" d="M174 349L560 349L553 319L168 319L174 349M110 0L76 0L216 700L674 700L668 669L243 669L110 0Z"  horiz-adv-x="630" vert-adv-y="1000"  />

      
      <glyph glyph-name="uni47" unicode="&#x47;" d="M387-4Q285-4 214 32Q143 68 106 132.50Q69 197 69 281Q69 366 98 442Q127 518 181.50 577Q236 636 314.50 670Q393 704 492 704Q574 704 637.50 679.50Q701 655 737 612L713 590Q677 631 621 652Q565 673 489 673Q401 673 329.50 642Q258 611 207.50 557Q157 503 130 432.50Q103 362 103 282Q103 207 135.50 149.50Q168 92 232 59.50Q296 27 391 27Q460 27 515.50 49.50Q571 72 617 112L632 86Q586 45 523 20.50Q460-4 387-4M600 88L651 345L683 345L632 86L600 88Z"  horiz-adv-x="774" vert-adv-y="1000"  />

      
      <glyph glyph-name="uni011E" unicode="&#x011E;" d="M387-4Q285-4 214 32Q143 68 106 132.50Q69 197 69 281Q69 366 98 442Q127 518 181.50 577Q236 636 314.50 670Q393 704 492 704Q574 704 637.50 679.50Q701 655 737 612L713 590Q677 631 621 652Q565 673 489 673Q401 673 329.50 642Q258 611 207.50 557Q157 503 130 432.50Q103 362 103 282Q103 207 135.50 149.50Q168 92 232 59.50Q296 27 391 27Q460 27 515.50 49.50Q571 72 617 112L632 86Q586 45 523 20.50Q460-4 387-4M600 88L651 345L683 345L632 86L600 88Z"  horiz-adv-x="774" vert-adv-y="1000"  />

      
      <glyph glyph-name="uni01E6" unicode="&#x01E6;" d="M387-4Q285-4 214 32Q143 68 106 132.50Q69 197 69 281Q69 366 98 442Q127 518 181.50 577Q236 636 314.50 670Q393 704 492 704Q574 704 637.50 679.50Q701 655 737 612L713 590Q677 631 621 652Q565 673 489 673Q401 673 329.50 642Q258 611 207.50 557Q157 503 130 432.50Q103 362 103 282Q103 207 135.50 149.50Q168 92 232 59.50Q296 27 391 27Q460 27 515.50 49.50Q571 72 617 112L632 86Q586 45 523 20.50Q460-4 387-4M600 88L651 345L683 345L632 86L600 88Z"  horiz-adv-x="774" vert-adv-y="1000"  />

      
      <glyph glyph-name="uni011C" unicode="&#x011C;" d="M387-4Q285-4 214 32Q143 68 106 132.50Q69 197 69 281Q69 366 98 442Q127 518 181.50 577Q236 636 314.50 670Q393 704 492 704Q574 704 637.50 679.50Q701 655 737 612L713 590Q677 631 621 652Q565 673 489 673Q401 673 329.50 642Q258 611 207.50 557Q157 503 130 432.50Q103 362 103 282Q103 207 135.50 149.50Q168 92 232 59.50Q296 27 391 27Q460 27 515.50 49.50Q571 72 617 112L632 86Q586 45 523 20.50Q460-4 387-4M600 88L651 345L683 345L632 86L600 88Z"  horiz-adv-x="774" vert-adv-y="1000"  />

      
      <glyph glyph-name="uni0122" unicode="&#x0122;" d="M387-4Q285-4 214 32Q143 68 106 132.50Q69 197 69 281Q69 366 98 442Q127 518 181.50 577Q236 636 314.50 670Q393 704 492 704Q574 704 637.50 679.50Q701 655 737 612L713 590Q677 631 621 652Q565 673 489 673Q401 673 329.50 642Q258 611 207.50 557Q157 503 130 432.50Q103 362 103 282Q103 207 135.50 149.50Q168 92 232 59.50Q296 27 391 27Q460 27 515.50 49.50Q571 72 617 112L632 86Q586 45 523 20.50Q460-4 387-4M600 88L651 345L683 345L632 86L600 88M275-260L318-162L320-178Q307-178 298.50-169Q290-160 290-149Q290-136 298.50-127.50Q307-119 320-119Q334-119 342-127Q350-135 350-148Q350-156 348-163.50Q346-171 339-181L298-260L275-260Z"  horiz-adv-x="774" vert-adv-y="1000"  />

      
      <glyph glyph-name="uni0120" unicode="&#x0120;" d="M387-4Q285-4 214 32Q143 68 106 132.50Q69 197 69 281Q69 366 98 442Q127 518 181.50 577Q236 636 314.50 670Q393 704 492 704Q574 704 637.50 679.50Q701 655 737 612L713 590Q677 631 621 652Q565 673 489 673Q401 673 329.50 642Q258 611 207.50 557Q157 503 130 432.50Q103 362 103 282Q103 207 135.50 149.50Q168 92 232 59.50Q296 27 391 27Q460 27 515.50 49.50Q571 72 617 112L632 86Q586 45 523 20.50Q460-4 387-4M600 88L651 345L683 345L632 86L600 88Z"  horiz-adv-x="774" vert-adv-y="1000"  />

      
      <glyph glyph-name="uni1E20" unicode="&#x1E20;" d="M387-4Q285-4 214 32Q143 68 106 132.50Q69 197 69 281Q69 366 98 442Q127 518 181.50 577Q236 636 314.50 670Q393 704 492 704Q574 704 637.50 679.50Q701 655 737 612L713 590Q677 631 621 652Q565 673 489 673Q401 673 329.50 642Q258 611 207.50 557Q157 503 130 432.50Q103 362 103 282Q103 207 135.50 149.50Q168 92 232 59.50Q296 27 391 27Q460 27 515.50 49.50Q571 72 617 112L632 86Q586 45 523 20.50Q460-4 387-4M600 88L651 345L683 345L632 86L600 88Z"  horiz-adv-x="774" vert-adv-y="1000"  />

      
      <glyph glyph-name="uni01E4" unicode="&#x01E4;" d="M408 220L414 249L778 249L772 220L408 220M387-4Q285-4 214 32Q143 68 106 132.50Q69 197 69 281Q69 366 98 442Q127 518 181.50 577Q236 636 314.50 670Q393 704 492 704Q574 704 637.50 679.50Q701 655 737 612L713 590Q677 631 621 652Q565 673 489 673Q401 673 329.50 642Q258 611 207.50 557Q157 503 130 432.50Q103 362 103 282Q103 207 135.50 149.50Q168 92 232 59.50Q296 27 391 27Q460 27 515.50 49.50Q571 72 617 112L632 86Q586 45 523 20.50Q460-4 387-4M600 88L651 345L683 345L632 86L600 88Z"  horiz-adv-x="805" vert-adv-y="1000"  />

      
      <glyph glyph-name="uni48" unicode="&#x48;" d="M741 700L775 700L635 0L601 0L741 700M110 0L76 0L216 700L250 700L110 0M675 340L172 340L178 371L681 371L675 340Z"  horiz-adv-x="815" vert-adv-y="1000"  />

      
      <glyph glyph-name="uni0126" unicode="&#x0126;" d="M742 700L776 700L636 0L602 0L742 700M111 0L77 0L217 700L251 700L111 0M676 340L173 340L179 371L682 371L676 340M71 526L77 555L859 555L853 526L71 526Z"  horiz-adv-x="818" vert-adv-y="1000"  />

      
      <glyph glyph-name="uni1E2A" unicode="&#x1E2A;" d="M741 700L775 700L635 0L601 0L741 700M110 0L76 0L216 700L250 700L110 0M675 340L172 340L178 371L681 371L675 340M326-200Q288-200 258.50-186Q229-172 213.50-147Q198-122 200-88L227-88Q225-129 252-152Q279-175 327-175Q373-175 407-152.50Q441-130 447-88L474-88Q467-142 424-171Q381-200 326-200Z"  horiz-adv-x="815" vert-adv-y="1000"  />

      
      <glyph glyph-name="uni021E" unicode="&#x021E;" d="M741 700L775 700L635 0L601 0L741 700M110 0L76 0L216 700L250 700L110 0M675 340L172 340L178 371L681 371L675 340Z"  horiz-adv-x="815" vert-adv-y="1000"  />

      
      <glyph glyph-name="uni0124" unicode="&#x0124;" d="M741 700L775 700L635 0L601 0L741 700M110 0L76 0L216 700L250 700L110 0M675 340L172 340L178 371L681 371L675 340Z"  horiz-adv-x="815" vert-adv-y="1000"  />

      
      <glyph glyph-name="uni1E24" unicode="&#x1E24;" d="M741 700L775 700L635 0L601 0L741 700M110 0L76 0L216 700L250 700L110 0M675 340L172 340L178 371L681 371L675 340M321-179Q309-179 301.50-170.50Q294-162 296-150Q297-137 308-128Q319-119 331-119Q344-119 351-127.50Q358-136 356-148Q355-161 344.50-170Q334-179 321-179Z"  horiz-adv-x="815" vert-adv-y="1000"  />

      
      <glyph glyph-name="uni49" unicode="&#x49;" d="M76 0L216 700L250 700L110 0L76 0Z"  horiz-adv-x="290" vert-adv-y="1000"  />

      
      <glyph glyph-name="uni0132" unicode="&#x0132;" d="M290-4Q222-4 167.50 14.50Q113 33 75 61L95 89Q133 61 182.50 44Q232 27 291 27Q404 27 471.50 92Q539 157 566 295L647 700L680 700L599 291Q569 141 493 68.50Q417-4 290-4M129 293L210 700L244 700L162 293L129 293Z"  horiz-adv-x="715" vert-adv-y="1000"  />

      
      <glyph glyph-name="unicd" unicode="&#xcd;" d="M76 0L216 700L250 700L110 0L76 0Z"  horiz-adv-x="290" vert-adv-y="1000"  />

      
      <glyph glyph-name="uni012C" unicode="&#x012C;" d="M76 0L216 700L250 700L110 0L76 0Z"  horiz-adv-x="290" vert-adv-y="1000"  />

      
      <glyph glyph-name="unice" unicode="&#xce;" d="M76 0L216 700L250 700L110 0L76 0Z"  horiz-adv-x="290" vert-adv-y="1000"  />

      
      <glyph glyph-name="uni0208" unicode="&#x0208;" d="M76 0L216 700L250 700L110 0L76 0Z"  horiz-adv-x="290" vert-adv-y="1000"  />

      
      <glyph glyph-name="unicf" unicode="&#xcf;" d="M76 0L216 700L250 700L110 0L76 0Z"  horiz-adv-x="290" vert-adv-y="1000"  />

      
      <glyph glyph-name="uni1E2E" unicode="&#x1E2E;" d="M76 0L216 700L250 700L110 0L76 0Z"  horiz-adv-x="290" vert-adv-y="1000"  />

      
      <glyph glyph-name="uni0130" unicode="&#x0130;" d="M76 0L216 700L250 700L110 0L76 0Z"  horiz-adv-x="290" vert-adv-y="1000"  />

      
      <glyph glyph-name="uni1ECA" unicode="&#x1ECA;" d="M76 0L216 700L250 700L110 0L76 0M58-179Q46-179 38.50-170.50Q31-162 33-150Q34-137 45-128Q56-119 68-119Q81-119 88-127.50Q95-136 93-148Q92-161 81.50-170Q71-179 58-179Z"  horiz-adv-x="290" vert-adv-y="1000"  />

      
      <glyph glyph-name="unicc" unicode="&#xcc;" d="M76 0L216 700L250 700L110 0L76 0Z"  horiz-adv-x="290" vert-adv-y="1000"  />

      
      <glyph glyph-name="uni1EC8" unicode="&#x1EC8;" d="M76 0L216 700L250 700L110 0L76 0Z"  horiz-adv-x="290" vert-adv-y="1000"  />

      
      <glyph glyph-name="uni020A" unicode="&#x020A;" d="M76 0L216 700L250 700L110 0L76 0Z"  horiz-adv-x="290" vert-adv-y="1000"  />

      
      <glyph glyph-name="uni012A" unicode="&#x012A;" d="M76 0L216 700L250 700L110 0L76 0Z"  horiz-adv-x="290" vert-adv-y="1000"  />

      
      <glyph glyph-name="uni012E" unicode="&#x012E;" d="M76 0L216 700L250 700L110 0L76 0M59-215Q31-215 14-197Q-3-179-3-149Q-3-103 26.50-59.50Q56-16 98 17L110 0Q70-36 48-73.50Q26-111 26-147Q26-169 37-179.50Q48-190 64-190Q77-190 86.50-185Q96-180 105-172L114-192Q104-202 90-208.50Q76-215 59-215Z"  horiz-adv-x="290" vert-adv-y="1000"  />

      
      <glyph glyph-name="uni0128" unicode="&#x0128;" d="M76 0L216 700L250 700L110 0L76 0Z"  horiz-adv-x="290" vert-adv-y="1000"  />

      
      <glyph glyph-name="uni4a" unicode="&#x4a;" d="M141-4Q80-4 34 23.50Q-12 51-32 96L-5 115Q14 75 52 51Q90 27 144 27Q212 27 254 65.50Q296 104 315 199L409 669L149 669L155 700L449 700L348 195Q333 123 306 79Q279 35 238 15.50Q197-4 141-4Z"  horiz-adv-x="483" vert-adv-y="1000"  />

      
      <glyph glyph-name="uni0134" unicode="&#x0134;" d="M141-4Q80-4 34 23.50Q-12 51-32 96L-5 115Q14 75 52 51Q90 27 144 27Q212 27 254 65.50Q296 104 315 199L409 669L149 669L155 700L449 700L348 195Q333 123 306 79Q279 35 238 15.50Q197-4 141-4Z"  horiz-adv-x="483" vert-adv-y="1000"  />

      
      <glyph glyph-name="uni4b" unicode="&#x4b;" d="M141 180L149 227L704 700L751 700L370 376L353 361L141 180M76 0L216 700L250 700L110 0L76 0M593 0L338 370L364 389L632 0L593 0Z"  horiz-adv-x="697" vert-adv-y="1000"  />

      
      <glyph glyph-name="uni01E8" unicode="&#x01E8;" d="M141 180L149 227L704 700L751 700L370 376L353 361L141 180M76 0L216 700L250 700L110 0L76 0M593 0L338 370L364 389L632 0L593 0Z"  horiz-adv-x="697" vert-adv-y="1000"  />

      
      <glyph glyph-name="uni0136" unicode="&#x0136;" d="M141 180L149 227L704 700L751 700L370 376L353 361L141 180M76 0L216 700L250 700L110 0L76 0M593 0L338 370L364 389L632 0L593 0M244-260L287-162L289-178Q276-178 267.50-169Q259-160 259-149Q259-136 267.50-127.50Q276-119 289-119Q303-119 311-127Q319-135 319-148Q319-156 317-163.50Q315-171 308-181L267-260L244-260Z"  horiz-adv-x="697" vert-adv-y="1000"  />

      
      <glyph glyph-name="uni4c" unicode="&#x4c;" d="M76 0L216 700L250 700L116 31L527 31L520 0L76 0Z"  horiz-adv-x="582" vert-adv-y="1000"  />

      
      <glyph glyph-name="uni01C7" unicode="&#x01C7;" d="M76 0L216 700L250 700L116 31L527 31L520 0L76 0M723-4Q662-4 616 23.50Q570 51 550 96L577 115Q596 75 634 51Q672 27 726 27Q794 27 836 65.50Q878 104 897 199L991 669L731 669L737 700L1031 700L930 195Q915 123 888 79Q861 35 820 15.50Q779-4 723-4Z"  horiz-adv-x="1066" vert-adv-y="1000"  />

      
      <glyph glyph-name="uni0139" unicode="&#x0139;" d="M76 0L216 700L250 700L116 31L527 31L520 0L76 0Z"  horiz-adv-x="582" vert-adv-y="1000"  />

      
      <glyph glyph-name="uni013D" unicode="&#x013D;" d="M76 0L216 700L250 700L116 31L527 31L520 0L76 0M501 540L537 722L567 722L527 540L501 540Z"  horiz-adv-x="582" vert-adv-y="1000"  />

      
      <glyph glyph-name="uni013B" unicode="&#x013B;" d="M76 0L216 700L250 700L116 31L527 31L520 0L76 0M234-260L277-162L279-178Q266-178 257.50-169Q249-160 249-149Q249-136 257.50-127.50Q266-119 279-119Q293-119 301-127Q309-135 309-148Q309-156 307-163.50Q305-171 298-181L257-260L234-260Z"  horiz-adv-x="582" vert-adv-y="1000"  />

      
      <glyph glyph-name="uni013F" unicode="&#x013F;" d="M76 0L216 700L250 700L116 31L527 31L520 0L76 0M456 334Q444 334 434.50 343.50Q425 353 425 365Q425 379 435 388.50Q445 398 457 398Q471 398 480 389Q489 380 489 367Q489 353 479.50 343.50Q470 334 456 334Z"  horiz-adv-x="582" vert-adv-y="1000"  />

      
      <glyph glyph-name="uni1E36" unicode="&#x1E36;" d="M76 0L216 700L250 700L116 31L527 31L520 0L76 0M274-179Q262-179 254.50-170.50Q247-162 249-150Q250-137 261-128Q272-119 284-119Q297-119 304-127.50Q311-136 309-148Q308-161 297.50-170Q287-179 274-179Z"  horiz-adv-x="582" vert-adv-y="1000"  />

      
      <glyph glyph-name="uni01C8" unicode="&#x01C8;" d="M76 0L216 700L250 700L116 31L527 31L520 0L76 0Z"  horiz-adv-x="842" vert-adv-y="1000"  />

      
      <glyph glyph-name="uni1E3A" unicode="&#x1E3A;" d="M76 0L216 700L250 700L116 31L527 31L520 0L76 0M136-162L141-135L422-135L417-162L136-162Z"  horiz-adv-x="582" vert-adv-y="1000"  />

      
      <glyph glyph-name="uni0141" unicode="&#x0141;" d="M77 0L217 700L251 700L117 31L528 31L521 0L77 0M57 275L42 297L335 487L349 464L57 275Z"  horiz-adv-x="584" vert-adv-y="1000"  />

      
      <glyph glyph-name="uni4d" unicode="&#x4d;" d="M76 0L216 700L244 700L464 127L449 130L885 700L915 700L775 0L742 0L872 651L884 649L460 97L443 97L229 651L239 650L109 0L76 0Z"  horiz-adv-x="956" vert-adv-y="1000"  />

      
      <glyph glyph-name="uni1E42" unicode="&#x1E42;" d="M76 0L216 700L244 700L464 127L449 130L885 700L915 700L775 0L742 0L872 651L884 649L460 97L443 97L229 651L239 650L109 0L76 0M391-179Q379-179 371.50-170.50Q364-162 366-150Q367-137 378-128Q389-119 401-119Q414-119 421-127.50Q428-136 426-148Q425-161 414.50-170Q404-179 391-179Z"  horiz-adv-x="956" vert-adv-y="1000"  />

      
      <glyph glyph-name="uni4e" unicode="&#x4e;" d="M76 0L216 700L244 700L622 39L610 42L741 700L775 700L635 0L607 0L229 661L241 658L110 0L76 0Z"  horiz-adv-x="815" vert-adv-y="1000"  />

      
      <glyph glyph-name="uni01CA" unicode="&#x01CA;" d="M76 0L216 700L244 700L622 39L610 42L741 700L775 700L635 0L607 0L229 661L241 658L110 0L76 0M956-4Q895-4 849 23.50Q803 51 783 96L810 115Q829 75 867 51Q905 27 959 27Q1027 27 1069 65.50Q1111 104 1130 199L1224 669L964 669L970 700L1264 700L1163 195Q1148 123 1121 79Q1094 35 1053 15.50Q1012-4 956-4Z"  horiz-adv-x="1298" vert-adv-y="1000"  />

      
      <glyph glyph-name="uni0143" unicode="&#x0143;" d="M76 0L216 700L244 700L622 39L610 42L741 700L775 700L635 0L607 0L229 661L241 658L110 0L76 0Z"  horiz-adv-x="815" vert-adv-y="1000"  />

      
      <glyph glyph-name="uni0147" unicode="&#x0147;" d="M76 0L216 700L244 700L622 39L610 42L741 700L775 700L635 0L607 0L229 661L241 658L110 0L76 0Z"  horiz-adv-x="815" vert-adv-y="1000"  />

      
      <glyph glyph-name="uni0145" unicode="&#x0145;" d="M76 0L216 700L244 700L622 39L610 42L741 700L775 700L635 0L607 0L229 661L241 658L110 0L76 0M281-260L324-162L326-178Q313-178 304.50-169Q296-160 296-149Q296-136 304.50-127.50Q313-119 326-119Q340-119 348-127Q356-135 356-148Q356-156 354-163.50Q352-171 345-181L304-260L281-260Z"  horiz-adv-x="815" vert-adv-y="1000"  />

      
      <glyph glyph-name="uni1E44" unicode="&#x1E44;" d="M76 0L216 700L244 700L622 39L610 42L741 700L775 700L635 0L607 0L229 661L241 658L110 0L76 0Z"  horiz-adv-x="815" vert-adv-y="1000"  />

      
      <glyph glyph-name="uni1E46" unicode="&#x1E46;" d="M76 0L216 700L244 700L622 39L610 42L741 700L775 700L635 0L607 0L229 661L241 658L110 0L76 0M321-179Q309-179 301.50-170.50Q294-162 296-150Q297-137 308-128Q319-119 331-119Q344-119 351-127.50Q358-136 356-148Q355-161 344.50-170Q334-179 321-179Z"  horiz-adv-x="815" vert-adv-y="1000"  />

      
      <glyph glyph-name="uni014A" unicode="&#x014A;" d="M76 0L216 700L244 700L622 40L607 1L229 661L241 659L110 0L76 0M429-197Q370-197 324.50-170.50Q279-144 259-101L284-81Q303-120 341-143.50Q379-167 432-167Q499-167 541-128.50Q583-90 602 5L741 700L775 700L635 3Q621-70 593-114.50Q565-159 524.50-178Q484-197 429-197Z"  horiz-adv-x="815" vert-adv-y="1000"  />

      
      <glyph glyph-name="uni01CB" unicode="&#x01CB;" d="M76 0L216 700L244 700L622 39L610 42L741 700L775 700L635 0L607 0L229 661L241 658L110 0L76 0Z"  horiz-adv-x="1075" vert-adv-y="1000"  />

      
      <glyph glyph-name="uni1E48" unicode="&#x1E48;" d="M76 0L216 700L244 700L622 39L610 42L741 700L775 700L635 0L607 0L229 661L241 658L110 0L76 0M183-162L188-135L469-135L464-162L183-162Z"  horiz-adv-x="815" vert-adv-y="1000"  />

      
      <glyph glyph-name="unid1" unicode="&#xd1;" d="M76 0L216 700L244 700L622 39L610 42L741 700L775 700L635 0L607 0L229 661L241 658L110 0L76 0Z"  horiz-adv-x="815" vert-adv-y="1000"  />

      
      <glyph glyph-name="uni4f" unicode="&#x4f;" d="M387-4Q284-4 213.50 32Q143 68 106 132.50Q69 197 69 281Q69 366 98 442Q127 518 181 577Q235 636 312.50 670Q390 704 487 704Q589 704 660 668Q731 632 767.50 568Q804 504 804 419Q804 334 775.50 258Q747 182 692.50 123Q638 64 561 30Q484-4 387-4M390 27Q477 27 547 58Q617 89 666.50 143Q716 197 743 268Q770 339 770 418Q770 494 738 551Q706 608 642 640.50Q578 673 484 673Q397 673 326.50 642Q256 611 206.50 557Q157 503 130 432Q103 361 103 282Q103 207 135.50 149.50Q168 92 231.50 59.50Q295 27 390 27Z"  horiz-adv-x="837" vert-adv-y="1000"  />

      
      <glyph glyph-name="unid3" unicode="&#xd3;" d="M387-4Q284-4 213.50 32Q143 68 106 132.50Q69 197 69 281Q69 366 98 442Q127 518 181 577Q235 636 312.50 670Q390 704 487 704Q589 704 660 668Q731 632 767.50 568Q804 504 804 419Q804 334 775.50 258Q747 182 692.50 123Q638 64 561 30Q484-4 387-4M390 27Q477 27 547 58Q617 89 666.50 143Q716 197 743 268Q770 339 770 418Q770 494 738 551Q706 608 642 640.50Q578 673 484 673Q397 673 326.50 642Q256 611 206.50 557Q157 503 130 432Q103 361 103 282Q103 207 135.50 149.50Q168 92 231.50 59.50Q295 27 390 27Z"  horiz-adv-x="837" vert-adv-y="1000"  />

      
      <glyph glyph-name="uni014E" unicode="&#x014E;" d="M387-4Q284-4 213.50 32Q143 68 106 132.50Q69 197 69 281Q69 366 98 442Q127 518 181 577Q235 636 312.50 670Q390 704 487 704Q589 704 660 668Q731 632 767.50 568Q804 504 804 419Q804 334 775.50 258Q747 182 692.50 123Q638 64 561 30Q484-4 387-4M390 27Q477 27 547 58Q617 89 666.50 143Q716 197 743 268Q770 339 770 418Q770 494 738 551Q706 608 642 640.50Q578 673 484 673Q397 673 326.50 642Q256 611 206.50 557Q157 503 130 432Q103 361 103 282Q103 207 135.50 149.50Q168 92 231.50 59.50Q295 27 390 27Z"  horiz-adv-x="837" vert-adv-y="1000"  />

      
      <glyph glyph-name="unid4" unicode="&#xd4;" d="M387-4Q284-4 213.50 32Q143 68 106 132.50Q69 197 69 281Q69 366 98 442Q127 518 181 577Q235 636 312.50 670Q390 704 487 704Q589 704 660 668Q731 632 767.50 568Q804 504 804 419Q804 334 775.50 258Q747 182 692.50 123Q638 64 561 30Q484-4 387-4M390 27Q477 27 547 58Q617 89 666.50 143Q716 197 743 268Q770 339 770 418Q770 494 738 551Q706 608 642 640.50Q578 673 484 673Q397 673 326.50 642Q256 611 206.50 557Q157 503 130 432Q103 361 103 282Q103 207 135.50 149.50Q168 92 231.50 59.50Q295 27 390 27Z"  horiz-adv-x="837" vert-adv-y="1000"  />

      
      <glyph glyph-name="uni1ED0" unicode="&#x1ED0;" d="M387-4Q284-4 213.50 32Q143 68 106 132.50Q69 197 69 281Q69 366 98 442Q127 518 181 577Q235 636 312.50 670Q390 704 487 704Q589 704 660 668Q731 632 767.50 568Q804 504 804 419Q804 334 775.50 258Q747 182 692.50 123Q638 64 561 30Q484-4 387-4M390 27Q477 27 547 58Q617 89 666.50 143Q716 197 743 268Q770 339 770 418Q770 494 738 551Q706 608 642 640.50Q578 673 484 673Q397 673 326.50 642Q256 611 206.50 557Q157 503 130 432Q103 361 103 282Q103 207 135.50 149.50Q168 92 231.50 59.50Q295 27 390 27Z"  horiz-adv-x="837" vert-adv-y="1000"  />

      
      <glyph glyph-name="uni1ED8" unicode="&#x1ED8;" d="M387-4Q284-4 213.50 32Q143 68 106 132.50Q69 197 69 281Q69 366 98 442Q127 518 181 577Q235 636 312.50 670Q390 704 487 704Q589 704 660 668Q731 632 767.50 568Q804 504 804 419Q804 334 775.50 258Q747 182 692.50 123Q638 64 561 30Q484-4 387-4M390 27Q477 27 547 58Q617 89 666.50 143Q716 197 743 268Q770 339 770 418Q770 494 738 551Q706 608 642 640.50Q578 673 484 673Q397 673 326.50 642Q256 611 206.50 557Q157 503 130 432Q103 361 103 282Q103 207 135.50 149.50Q168 92 231.50 59.50Q295 27 390 27M331-179Q319-179 311.50-170.50Q304-162 306-150Q307-137 318-128Q329-119 341-119Q354-119 361-127.50Q368-136 366-148Q365-161 354.50-170Q344-179 331-179Z"  horiz-adv-x="837" vert-adv-y="1000"  />

      
      <glyph glyph-name="uni1ED2" unicode="&#x1ED2;" d="M387-4Q284-4 213.50 32Q143 68 106 132.50Q69 197 69 281Q69 366 98 442Q127 518 181 577Q235 636 312.50 670Q390 704 487 704Q589 704 660 668Q731 632 767.50 568Q804 504 804 419Q804 334 775.50 258Q747 182 692.50 123Q638 64 561 30Q484-4 387-4M390 27Q477 27 547 58Q617 89 666.50 143Q716 197 743 268Q770 339 770 418Q770 494 738 551Q706 608 642 640.50Q578 673 484 673Q397 673 326.50 642Q256 611 206.50 557Q157 503 130 432Q103 361 103 282Q103 207 135.50 149.50Q168 92 231.50 59.50Q295 27 390 27Z"  horiz-adv-x="837" vert-adv-y="1000"  />

      
      <glyph glyph-name="uni1ED4" unicode="&#x1ED4;" d="M387-4Q284-4 213.50 32Q143 68 106 132.50Q69 197 69 281Q69 366 98 442Q127 518 181 577Q235 636 312.50 670Q390 704 487 704Q589 704 660 668Q731 632 767.50 568Q804 504 804 419Q804 334 775.50 258Q747 182 692.50 123Q638 64 561 30Q484-4 387-4M390 27Q477 27 547 58Q617 89 666.50 143Q716 197 743 268Q770 339 770 418Q770 494 738 551Q706 608 642 640.50Q578 673 484 673Q397 673 326.50 642Q256 611 206.50 557Q157 503 130 432Q103 361 103 282Q103 207 135.50 149.50Q168 92 231.50 59.50Q295 27 390 27Z"  horiz-adv-x="837" vert-adv-y="1000"  />

      
      <glyph glyph-name="uni1ED6" unicode="&#x1ED6;" d="M387-4Q284-4 213.50 32Q143 68 106 132.50Q69 197 69 281Q69 366 98 442Q127 518 181 577Q235 636 312.50 670Q390 704 487 704Q589 704 660 668Q731 632 767.50 568Q804 504 804 419Q804 334 775.50 258Q747 182 692.50 123Q638 64 561 30Q484-4 387-4M390 27Q477 27 547 58Q617 89 666.50 143Q716 197 743 268Q770 339 770 418Q770 494 738 551Q706 608 642 640.50Q578 673 484 673Q397 673 326.50 642Q256 611 206.50 557Q157 503 130 432Q103 361 103 282Q103 207 135.50 149.50Q168 92 231.50 59.50Q295 27 390 27Z"  horiz-adv-x="837" vert-adv-y="1000"  />

      
      <glyph glyph-name="uni020C" unicode="&#x020C;" d="M387-4Q284-4 213.50 32Q143 68 106 132.50Q69 197 69 281Q69 366 98 442Q127 518 181 577Q235 636 312.50 670Q390 704 487 704Q589 704 660 668Q731 632 767.50 568Q804 504 804 419Q804 334 775.50 258Q747 182 692.50 123Q638 64 561 30Q484-4 387-4M390 27Q477 27 547 58Q617 89 666.50 143Q716 197 743 268Q770 339 770 418Q770 494 738 551Q706 608 642 640.50Q578 673 484 673Q397 673 326.50 642Q256 611 206.50 557Q157 503 130 432Q103 361 103 282Q103 207 135.50 149.50Q168 92 231.50 59.50Q295 27 390 27Z"  horiz-adv-x="837" vert-adv-y="1000"  />

      
      <glyph glyph-name="unid6" unicode="&#xd6;" d="M387-4Q284-4 213.50 32Q143 68 106 132.50Q69 197 69 281Q69 366 98 442Q127 518 181 577Q235 636 312.50 670Q390 704 487 704Q589 704 660 668Q731 632 767.50 568Q804 504 804 419Q804 334 775.50 258Q747 182 692.50 123Q638 64 561 30Q484-4 387-4M390 27Q477 27 547 58Q617 89 666.50 143Q716 197 743 268Q770 339 770 418Q770 494 738 551Q706 608 642 640.50Q578 673 484 673Q397 673 326.50 642Q256 611 206.50 557Q157 503 130 432Q103 361 103 282Q103 207 135.50 149.50Q168 92 231.50 59.50Q295 27 390 27Z"  horiz-adv-x="837" vert-adv-y="1000"  />

      
      <glyph glyph-name="uni022A" unicode="&#x022A;" d="M387-4Q284-4 213.50 32Q143 68 106 132.50Q69 197 69 281Q69 366 98 442Q127 518 181 577Q235 636 312.50 670Q390 704 487 704Q589 704 660 668Q731 632 767.50 568Q804 504 804 419Q804 334 775.50 258Q747 182 692.50 123Q638 64 561 30Q484-4 387-4M390 27Q477 27 547 58Q617 89 666.50 143Q716 197 743 268Q770 339 770 418Q770 494 738 551Q706 608 642 640.50Q578 673 484 673Q397 673 326.50 642Q256 611 206.50 557Q157 503 130 432Q103 361 103 282Q103 207 135.50 149.50Q168 92 231.50 59.50Q295 27 390 27Z"  horiz-adv-x="837" vert-adv-y="1000"  />

      
      <glyph glyph-name="uni0230" unicode="&#x0230;" d="M387-4Q284-4 213.50 32Q143 68 106 132.50Q69 197 69 281Q69 366 98 442Q127 518 181 577Q235 636 312.50 670Q390 704 487 704Q589 704 660 668Q731 632 767.50 568Q804 504 804 419Q804 334 775.50 258Q747 182 692.50 123Q638 64 561 30Q484-4 387-4M390 27Q477 27 547 58Q617 89 666.50 143Q716 197 743 268Q770 339 770 418Q770 494 738 551Q706 608 642 640.50Q578 673 484 673Q397 673 326.50 642Q256 611 206.50 557Q157 503 130 432Q103 361 103 282Q103 207 135.50 149.50Q168 92 231.50 59.50Q295 27 390 27Z"  horiz-adv-x="837" vert-adv-y="1000"  />

      
      <glyph glyph-name="uni1ECC" unicode="&#x1ECC;" d="M387-4Q284-4 213.50 32Q143 68 106 132.50Q69 197 69 281Q69 366 98 442Q127 518 181 577Q235 636 312.50 670Q390 704 487 704Q589 704 660 668Q731 632 767.50 568Q804 504 804 419Q804 334 775.50 258Q747 182 692.50 123Q638 64 561 30Q484-4 387-4M390 27Q477 27 547 58Q617 89 666.50 143Q716 197 743 268Q770 339 770 418Q770 494 738 551Q706 608 642 640.50Q578 673 484 673Q397 673 326.50 642Q256 611 206.50 557Q157 503 130 432Q103 361 103 282Q103 207 135.50 149.50Q168 92 231.50 59.50Q295 27 390 27M331-179Q319-179 311.50-170.50Q304-162 306-150Q307-137 318-128Q329-119 341-119Q354-119 361-127.50Q368-136 366-148Q365-161 354.50-170Q344-179 331-179Z"  horiz-adv-x="837" vert-adv-y="1000"  />

      
      <glyph glyph-name="unid2" unicode="&#xd2;" d="M387-4Q284-4 213.50 32Q143 68 106 132.50Q69 197 69 281Q69 366 98 442Q127 518 181 577Q235 636 312.50 670Q390 704 487 704Q589 704 660 668Q731 632 767.50 568Q804 504 804 419Q804 334 775.50 258Q747 182 692.50 123Q638 64 561 30Q484-4 387-4M390 27Q477 27 547 58Q617 89 666.50 143Q716 197 743 268Q770 339 770 418Q770 494 738 551Q706 608 642 640.50Q578 673 484 673Q397 673 326.50 642Q256 611 206.50 557Q157 503 130 432Q103 361 103 282Q103 207 135.50 149.50Q168 92 231.50 59.50Q295 27 390 27Z"  horiz-adv-x="837" vert-adv-y="1000"  />

      
      <glyph glyph-name="uni1ECE" unicode="&#x1ECE;" d="M387-4Q284-4 213.50 32Q143 68 106 132.50Q69 197 69 281Q69 366 98 442Q127 518 181 577Q235 636 312.50 670Q390 704 487 704Q589 704 660 668Q731 632 767.50 568Q804 504 804 419Q804 334 775.50 258Q747 182 692.50 123Q638 64 561 30Q484-4 387-4M390 27Q477 27 547 58Q617 89 666.50 143Q716 197 743 268Q770 339 770 418Q770 494 738 551Q706 608 642 640.50Q578 673 484 673Q397 673 326.50 642Q256 611 206.50 557Q157 503 130 432Q103 361 103 282Q103 207 135.50 149.50Q168 92 231.50 59.50Q295 27 390 27Z"  horiz-adv-x="837" vert-adv-y="1000"  />

      
      <glyph glyph-name="uni01A0" unicode="&#x01A0;" d="M387-4Q284-4 213.50 32Q143 68 106 132.50Q69 197 69 281Q69 366 98 442Q127 518 181 577Q235 636 312.50 670Q390 704 487 704Q539 704 577 700.50Q615 697 648.50 693Q682 689 720 689Q774 689 802 710.50Q830 732 830 769Q830 789 824 805.50Q818 822 810 836L836 846Q846 831 852.50 811Q859 791 859 770Q859 736 843 711.50Q827 687 796.50 674Q766 661 723 661Q698 661 679.50 662.50Q661 664 644 666L652 669Q727 636 765.50 571Q804 506 804 419Q804 334 775.50 258Q747 182 692.50 123Q638 64 561 30Q484-4 387-4M390 27Q477 27 547 58Q617 89 666.50 143Q716 197 743 268Q770 339 770 418Q770 494 738 551Q706 608 642 640.50Q578 673 484 673Q397 673 326.50 642Q256 611 206.50 557Q157 503 130 432Q103 361 103 282Q103 207 135.50 149.50Q168 92 231.50 59.50Q295 27 390 27Z"  horiz-adv-x="837" vert-adv-y="1000"  />

      
      <glyph glyph-name="uni1EDA" unicode="&#x1EDA;" d="M387-4Q284-4 213.50 32Q143 68 106 132.50Q69 197 69 281Q69 366 98 442Q127 518 181 577Q235 636 312.50 670Q390 704 487 704Q539 704 577 700.50Q615 697 648.50 693Q682 689 720 689Q774 689 802 710.50Q830 732 830 769Q830 789 824 805.50Q818 822 810 836L836 846Q846 831 852.50 811Q859 791 859 770Q859 736 843 711.50Q827 687 796.50 674Q766 661 723 661Q698 661 679.50 662.50Q661 664 644 666L652 669Q727 636 765.50 571Q804 506 804 419Q804 334 775.50 258Q747 182 692.50 123Q638 64 561 30Q484-4 387-4M390 27Q477 27 547 58Q617 89 666.50 143Q716 197 743 268Q770 339 770 418Q770 494 738 551Q706 608 642 640.50Q578 673 484 673Q397 673 326.50 642Q256 611 206.50 557Q157 503 130 432Q103 361 103 282Q103 207 135.50 149.50Q168 92 231.50 59.50Q295 27 390 27Z"  horiz-adv-x="837" vert-adv-y="1000"  />

      
      <glyph glyph-name="uni1EE2" unicode="&#x1EE2;" d="M387-4Q284-4 213.50 32Q143 68 106 132.50Q69 197 69 281Q69 366 98 442Q127 518 181 577Q235 636 312.50 670Q390 704 487 704Q539 704 577 700.50Q615 697 648.50 693Q682 689 720 689Q774 689 802 710.50Q830 732 830 769Q830 789 824 805.50Q818 822 810 836L836 846Q846 831 852.50 811Q859 791 859 770Q859 736 843 711.50Q827 687 796.50 674Q766 661 723 661Q698 661 679.50 662.50Q661 664 644 666L652 669Q727 636 765.50 571Q804 506 804 419Q804 334 775.50 258Q747 182 692.50 123Q638 64 561 30Q484-4 387-4M390 27Q477 27 547 58Q617 89 666.50 143Q716 197 743 268Q770 339 770 418Q770 494 738 551Q706 608 642 640.50Q578 673 484 673Q397 673 326.50 642Q256 611 206.50 557Q157 503 130 432Q103 361 103 282Q103 207 135.50 149.50Q168 92 231.50 59.50Q295 27 390 27M331-179Q319-179 311.50-170.50Q304-162 306-150Q307-137 318-128Q329-119 341-119Q354-119 361-127.50Q368-136 366-148Q365-161 354.50-170Q344-179 331-179Z"  horiz-adv-x="837" vert-adv-y="1000"  />

      
      <glyph glyph-name="uni1EDC" unicode="&#x1EDC;" d="M387-4Q284-4 213.50 32Q143 68 106 132.50Q69 197 69 281Q69 366 98 442Q127 518 181 577Q235 636 312.50 670Q390 704 487 704Q539 704 577 700.50Q615 697 648.50 693Q682 689 720 689Q774 689 802 710.50Q830 732 830 769Q830 789 824 805.50Q818 822 810 836L836 846Q846 831 852.50 811Q859 791 859 770Q859 736 843 711.50Q827 687 796.50 674Q766 661 723 661Q698 661 679.50 662.50Q661 664 644 666L652 669Q727 636 765.50 571Q804 506 804 419Q804 334 775.50 258Q747 182 692.50 123Q638 64 561 30Q484-4 387-4M390 27Q477 27 547 58Q617 89 666.50 143Q716 197 743 268Q770 339 770 418Q770 494 738 551Q706 608 642 640.50Q578 673 484 673Q397 673 326.50 642Q256 611 206.50 557Q157 503 130 432Q103 361 103 282Q103 207 135.50 149.50Q168 92 231.50 59.50Q295 27 390 27Z"  horiz-adv-x="837" vert-adv-y="1000"  />

      
      <glyph glyph-name="uni1EDE" unicode="&#x1EDE;" d="M387-4Q284-4 213.50 32Q143 68 106 132.50Q69 197 69 281Q69 366 98 442Q127 518 181 577Q235 636 312.50 670Q390 704 487 704Q539 704 577 700.50Q615 697 648.50 693Q682 689 720 689Q774 689 802 710.50Q830 732 830 769Q830 789 824 805.50Q818 822 810 836L836 846Q846 831 852.50 811Q859 791 859 770Q859 736 843 711.50Q827 687 796.50 674Q766 661 723 661Q698 661 679.50 662.50Q661 664 644 666L652 669Q727 636 765.50 571Q804 506 804 419Q804 334 775.50 258Q747 182 692.50 123Q638 64 561 30Q484-4 387-4M390 27Q477 27 547 58Q617 89 666.50 143Q716 197 743 268Q770 339 770 418Q770 494 738 551Q706 608 642 640.50Q578 673 484 673Q397 673 326.50 642Q256 611 206.50 557Q157 503 130 432Q103 361 103 282Q103 207 135.50 149.50Q168 92 231.50 59.50Q295 27 390 27Z"  horiz-adv-x="837" vert-adv-y="1000"  />

      
      <glyph glyph-name="uni1EE0" unicode="&#x1EE0;" d="M387-4Q284-4 213.50 32Q143 68 106 132.50Q69 197 69 281Q69 366 98 442Q127 518 181 577Q235 636 312.50 670Q390 704 487 704Q539 704 577 700.50Q615 697 648.50 693Q682 689 720 689Q774 689 802 710.50Q830 732 830 769Q830 789 824 805.50Q818 822 810 836L836 846Q846 831 852.50 811Q859 791 859 770Q859 736 843 711.50Q827 687 796.50 674Q766 661 723 661Q698 661 679.50 662.50Q661 664 644 666L652 669Q727 636 765.50 571Q804 506 804 419Q804 334 775.50 258Q747 182 692.50 123Q638 64 561 30Q484-4 387-4M390 27Q477 27 547 58Q617 89 666.50 143Q716 197 743 268Q770 339 770 418Q770 494 738 551Q706 608 642 640.50Q578 673 484 673Q397 673 326.50 642Q256 611 206.50 557Q157 503 130 432Q103 361 103 282Q103 207 135.50 149.50Q168 92 231.50 59.50Q295 27 390 27Z"  horiz-adv-x="837" vert-adv-y="1000"  />

      
      <glyph glyph-name="uni0150" unicode="&#x0150;" d="M387-4Q284-4 213.50 32Q143 68 106 132.50Q69 197 69 281Q69 366 98 442Q127 518 181 577Q235 636 312.50 670Q390 704 487 704Q589 704 660 668Q731 632 767.50 568Q804 504 804 419Q804 334 775.50 258Q747 182 692.50 123Q638 64 561 30Q484-4 387-4M390 27Q477 27 547 58Q617 89 666.50 143Q716 197 743 268Q770 339 770 418Q770 494 738 551Q706 608 642 640.50Q578 673 484 673Q397 673 326.50 642Q256 611 206.50 557Q157 503 130 432Q103 361 103 282Q103 207 135.50 149.50Q168 92 231.50 59.50Q295 27 390 27Z"  horiz-adv-x="837" vert-adv-y="1000"  />

      
      <glyph glyph-name="uni020E" unicode="&#x020E;" d="M387-4Q284-4 213.50 32Q143 68 106 132.50Q69 197 69 281Q69 366 98 442Q127 518 181 577Q235 636 312.50 670Q390 704 487 704Q589 704 660 668Q731 632 767.50 568Q804 504 804 419Q804 334 775.50 258Q747 182 692.50 123Q638 64 561 30Q484-4 387-4M390 27Q477 27 547 58Q617 89 666.50 143Q716 197 743 268Q770 339 770 418Q770 494 738 551Q706 608 642 640.50Q578 673 484 673Q397 673 326.50 642Q256 611 206.50 557Q157 503 130 432Q103 361 103 282Q103 207 135.50 149.50Q168 92 231.50 59.50Q295 27 390 27Z"  horiz-adv-x="837" vert-adv-y="1000"  />

      
      <glyph glyph-name="uni014C" unicode="&#x014C;" d="M387-4Q284-4 213.50 32Q143 68 106 132.50Q69 197 69 281Q69 366 98 442Q127 518 181 577Q235 636 312.50 670Q390 704 487 704Q589 704 660 668Q731 632 767.50 568Q804 504 804 419Q804 334 775.50 258Q747 182 692.50 123Q638 64 561 30Q484-4 387-4M390 27Q477 27 547 58Q617 89 666.50 143Q716 197 743 268Q770 339 770 418Q770 494 738 551Q706 608 642 640.50Q578 673 484 673Q397 673 326.50 642Q256 611 206.50 557Q157 503 130 432Q103 361 103 282Q103 207 135.50 149.50Q168 92 231.50 59.50Q295 27 390 27Z"  horiz-adv-x="837" vert-adv-y="1000"  />

      
      <glyph glyph-name="uni1E52" unicode="&#x1E52;" d="M387-4Q284-4 213.50 32Q143 68 106 132.50Q69 197 69 281Q69 366 98 442Q127 518 181 577Q235 636 312.50 670Q390 704 487 704Q589 704 660 668Q731 632 767.50 568Q804 504 804 419Q804 334 775.50 258Q747 182 692.50 123Q638 64 561 30Q484-4 387-4M390 27Q477 27 547 58Q617 89 666.50 143Q716 197 743 268Q770 339 770 418Q770 494 738 551Q706 608 642 640.50Q578 673 484 673Q397 673 326.50 642Q256 611 206.50 557Q157 503 130 432Q103 361 103 282Q103 207 135.50 149.50Q168 92 231.50 59.50Q295 27 390 27Z"  horiz-adv-x="837" vert-adv-y="1000"  />

      
      <glyph glyph-name="uni1E50" unicode="&#x1E50;" d="M387-4Q284-4 213.50 32Q143 68 106 132.50Q69 197 69 281Q69 366 98 442Q127 518 181 577Q235 636 312.50 670Q390 704 487 704Q589 704 660 668Q731 632 767.50 568Q804 504 804 419Q804 334 775.50 258Q747 182 692.50 123Q638 64 561 30Q484-4 387-4M390 27Q477 27 547 58Q617 89 666.50 143Q716 197 743 268Q770 339 770 418Q770 494 738 551Q706 608 642 640.50Q578 673 484 673Q397 673 326.50 642Q256 611 206.50 557Q157 503 130 432Q103 361 103 282Q103 207 135.50 149.50Q168 92 231.50 59.50Q295 27 390 27Z"  horiz-adv-x="837" vert-adv-y="1000"  />

      
      <glyph glyph-name="uni01EA" unicode="&#x01EA;" d="M320-215Q284-215 262-195.50Q240-176 240-143Q240-101 273.50-62.50Q307-24 382 4L387-4Q284-4 213.50 32Q143 68 106 132.50Q69 197 69 281Q69 366 98 442Q127 518 181 577Q235 636 312.50 670Q390 704 487 704Q589 704 660 668Q731 632 767.50 568Q804 504 804 419Q804 319 764 231Q724 143 649.50 83Q575 23 472 4Q399-10 354.50-33.50Q310-57 289.50-85Q269-113 269-139Q269-163 283.50-176.50Q298-190 325-190Q343-190 361.50-183.50Q380-177 395-166L404-188Q386-201 365-208Q344-215 320-215M390 27Q477 27 547 58Q617 89 666.50 143Q716 197 743 268Q770 339 770 418Q770 494 738 551Q706 608 642 640.50Q578 673 484 673Q397 673 326.50 642Q256 611 206.50 557Q157 503 130 432Q103 361 103 282Q103 207 135.50 149.50Q168 92 231.50 59.50Q295 27 390 27Z"  horiz-adv-x="837" vert-adv-y="1000"  />

      
      <glyph glyph-name="unid8" unicode="&#xd8;" d="M387-4Q284-4 213.50 32Q143 68 106 132.50Q69 197 69 281Q69 366 98 442Q127 518 181 577Q235 636 312.50 670Q390 704 487 704Q589 704 660 668Q731 632 767.50 568Q804 504 804 419Q804 334 775.50 258Q747 182 692.50 123Q638 64 561 30Q484-4 387-4M390 27Q477 27 547 58Q617 89 666.50 143Q716 197 743 268Q770 339 770 418Q770 494 738 551Q706 608 642 640.50Q578 673 484 673Q397 673 326.50 642Q256 611 206.50 557Q157 503 130 432Q103 361 103 282Q103 207 135.50 149.50Q168 92 231.50 59.50Q295 27 390 27M29-70L808 770L842 770L63-70L29-70Z"  horiz-adv-x="837" vert-adv-y="1000"  />

      
      <glyph glyph-name="uni01FE" unicode="&#x01FE;" d="M387-4Q284-4 213.50 32Q143 68 106 132.50Q69 197 69 281Q69 366 98 442Q127 518 181 577Q235 636 312.50 670Q390 704 487 704Q589 704 660 668Q731 632 767.50 568Q804 504 804 419Q804 334 775.50 258Q747 182 692.50 123Q638 64 561 30Q484-4 387-4M390 27Q477 27 547 58Q617 89 666.50 143Q716 197 743 268Q770 339 770 418Q770 494 738 551Q706 608 642 640.50Q578 673 484 673Q397 673 326.50 642Q256 611 206.50 557Q157 503 130 432Q103 361 103 282Q103 207 135.50 149.50Q168 92 231.50 59.50Q295 27 390 27M29-70L808 770L842 770L63-70L29-70Z"  horiz-adv-x="837" vert-adv-y="1000"  />

      
      <glyph glyph-name="unid5" unicode="&#xd5;" d="M387-4Q284-4 213.50 32Q143 68 106 132.50Q69 197 69 281Q69 366 98 442Q127 518 181 577Q235 636 312.50 670Q390 704 487 704Q589 704 660 668Q731 632 767.50 568Q804 504 804 419Q804 334 775.50 258Q747 182 692.50 123Q638 64 561 30Q484-4 387-4M390 27Q477 27 547 58Q617 89 666.50 143Q716 197 743 268Q770 339 770 418Q770 494 738 551Q706 608 642 640.50Q578 673 484 673Q397 673 326.50 642Q256 611 206.50 557Q157 503 130 432Q103 361 103 282Q103 207 135.50 149.50Q168 92 231.50 59.50Q295 27 390 27Z"  horiz-adv-x="837" vert-adv-y="1000"  />

      
      <glyph glyph-name="uni1E4C" unicode="&#x1E4C;" d="M387-4Q284-4 213.50 32Q143 68 106 132.50Q69 197 69 281Q69 366 98 442Q127 518 181 577Q235 636 312.50 670Q390 704 487 704Q589 704 660 668Q731 632 767.50 568Q804 504 804 419Q804 334 775.50 258Q747 182 692.50 123Q638 64 561 30Q484-4 387-4M390 27Q477 27 547 58Q617 89 666.50 143Q716 197 743 268Q770 339 770 418Q770 494 738 551Q706 608 642 640.50Q578 673 484 673Q397 673 326.50 642Q256 611 206.50 557Q157 503 130 432Q103 361 103 282Q103 207 135.50 149.50Q168 92 231.50 59.50Q295 27 390 27Z"  horiz-adv-x="837" vert-adv-y="1000"  />

      
      <glyph glyph-name="uni1E4E" unicode="&#x1E4E;" d="M387-4Q284-4 213.50 32Q143 68 106 132.50Q69 197 69 281Q69 366 98 442Q127 518 181 577Q235 636 312.50 670Q390 704 487 704Q589 704 660 668Q731 632 767.50 568Q804 504 804 419Q804 334 775.50 258Q747 182 692.50 123Q638 64 561 30Q484-4 387-4M390 27Q477 27 547 58Q617 89 666.50 143Q716 197 743 268Q770 339 770 418Q770 494 738 551Q706 608 642 640.50Q578 673 484 673Q397 673 326.50 642Q256 611 206.50 557Q157 503 130 432Q103 361 103 282Q103 207 135.50 149.50Q168 92 231.50 59.50Q295 27 390 27Z"  horiz-adv-x="837" vert-adv-y="1000"  />

      
      <glyph glyph-name="uni022C" unicode="&#x022C;" d="M387-4Q284-4 213.50 32Q143 68 106 132.50Q69 197 69 281Q69 366 98 442Q127 518 181 577Q235 636 312.50 670Q390 704 487 704Q589 704 660 668Q731 632 767.50 568Q804 504 804 419Q804 334 775.50 258Q747 182 692.50 123Q638 64 561 30Q484-4 387-4M390 27Q477 27 547 58Q617 89 666.50 143Q716 197 743 268Q770 339 770 418Q770 494 738 551Q706 608 642 640.50Q578 673 484 673Q397 673 326.50 642Q256 611 206.50 557Q157 503 130 432Q103 361 103 282Q103 207 135.50 149.50Q168 92 231.50 59.50Q295 27 390 27Z"  horiz-adv-x="837" vert-adv-y="1000"  />

      
      <glyph glyph-name="uni0152" unicode="&#x0152;" d="M392 0Q288 0 215.50 35Q143 70 106 134Q69 198 69 281Q69 372 99.50 449Q130 526 187 582Q244 638 324.50 669Q405 700 505 700L671 700L665 669L503 669Q381 669 291 619.50Q201 570 152 482.50Q103 395 103 282Q103 207 135.50 150.50Q168 94 233 62.50Q298 31 396 31L537 31L531 0L392 0M522 0L662 700L1120 700L1114 669L689 669L562 31L1002 31L995 0L522 0M618 340L624 371L1010 371L1004 340L618 340Z"  horiz-adv-x="1114" vert-adv-y="1000"  />

      
      <glyph glyph-name="uni50" unicode="&#x50;" d="M76 0L216 700L455 700Q568 700 630.50 650.50Q693 601 693 511Q693 421 654.50 359.50Q616 298 544.50 266.50Q473 235 374 235L142 235L160 251L110 0L76 0M160 251L148 266L374 266Q510 266 585 327Q660 388 660 509Q660 586 607 627.50Q554 669 455 669L229 669L247 686L160 251Z"  horiz-adv-x="712" vert-adv-y="1000"  />

      
      <glyph glyph-name="unide" unicode="&#xde;" d="M126 137L132 167L354 167Q491 167 565.50 228.50Q640 290 640 411Q640 488 587 529.50Q534 571 435 571L213 571L219 601L436 601Q549 601 611.50 552Q674 503 674 412Q674 322 635 261Q596 200 524.50 168.50Q453 137 355 137L126 137M76 0L216 700L250 700L110 0L76 0Z"  horiz-adv-x="712" vert-adv-y="1000"  />

      
      <glyph glyph-name="uni51" unicode="&#x51;" d="M387-4Q284-4 213.50 32Q143 68 106 132.50Q69 197 69 281Q69 366 98 442Q127 518 181 577Q235 636 312.50 670Q390 704 487 704Q589 704 660 668Q731 632 767.50 568Q804 504 804 419Q804 334 775.50 258Q747 182 692.50 123Q638 64 561 30Q484-4 387-4M585-128Q520-128 467-93.50Q414-59 369 5L409 13Q445-42 489-70Q533-98 586-98Q629-98 665.50-81.50Q702-65 729-31L748-52Q717-90 674-109Q631-128 585-128M390 27Q477 27 547 58Q617 89 666.50 143Q716 197 743 268Q770 339 770 418Q770 494 738 551Q706 608 642 640.50Q578 673 484 673Q397 673 326.50 642Q256 611 206.50 557Q157 503 130 432Q103 361 103 282Q103 207 135.50 149.50Q168 92 231.50 59.50Q295 27 390 27Z"  horiz-adv-x="837" vert-adv-y="1000"  />

      
      <glyph glyph-name="uni52" unicode="&#x52;" d="M76 0L216 700L456 700Q569 700 631.50 650.50Q694 601 694 511Q694 421 655 359.50Q616 298 544.50 267Q473 236 375 236L142 236L160 251L110 0L76 0M570 0L426 254L464 254L607 0L570 0M160 251L148 266L374 266Q510 266 585 327Q660 388 660 509Q660 586 607 627.50Q554 669 455 669L229 669L247 685L160 251Z"  horiz-adv-x="718" vert-adv-y="1000"  />

      
      <glyph glyph-name="uni0154" unicode="&#x0154;" d="M76 0L216 700L456 700Q569 700 631.50 650.50Q694 601 694 511Q694 421 655 359.50Q616 298 544.50 267Q473 236 375 236L142 236L160 251L110 0L76 0M570 0L426 254L464 254L607 0L570 0M160 251L148 266L374 266Q510 266 585 327Q660 388 660 509Q660 586 607 627.50Q554 669 455 669L229 669L247 685L160 251Z"  horiz-adv-x="718" vert-adv-y="1000"  />

      
      <glyph glyph-name="uni0158" unicode="&#x0158;" d="M76 0L216 700L456 700Q569 700 631.50 650.50Q694 601 694 511Q694 421 655 359.50Q616 298 544.50 267Q473 236 375 236L142 236L160 251L110 0L76 0M570 0L426 254L464 254L607 0L570 0M160 251L148 266L374 266Q510 266 585 327Q660 388 660 509Q660 586 607 627.50Q554 669 455 669L229 669L247 685L160 251Z"  horiz-adv-x="718" vert-adv-y="1000"  />

      
      <glyph glyph-name="uni0156" unicode="&#x0156;" d="M76 0L216 700L456 700Q569 700 631.50 650.50Q694 601 694 511Q694 421 655 359.50Q616 298 544.50 267Q473 236 375 236L142 236L160 251L110 0L76 0M570 0L426 254L464 254L607 0L570 0M160 251L148 266L374 266Q510 266 585 327Q660 388 660 509Q660 586 607 627.50Q554 669 455 669L229 669L247 685L160 251M240-260L283-162L285-178Q272-178 263.50-169Q255-160 255-149Q255-136 263.50-127.50Q272-119 285-119Q299-119 307-127Q315-135 315-148Q315-156 313-163.50Q311-171 304-181L263-260L240-260Z"  horiz-adv-x="718" vert-adv-y="1000"  />

      
      <glyph glyph-name="uni0210" unicode="&#x0210;" d="M76 0L216 700L456 700Q569 700 631.50 650.50Q694 601 694 511Q694 421 655 359.50Q616 298 544.50 267Q473 236 375 236L142 236L160 251L110 0L76 0M570 0L426 254L464 254L607 0L570 0M160 251L148 266L374 266Q510 266 585 327Q660 388 660 509Q660 586 607 627.50Q554 669 455 669L229 669L247 685L160 251Z"  horiz-adv-x="718" vert-adv-y="1000"  />

      
      <glyph glyph-name="uni1E5A" unicode="&#x1E5A;" d="M76 0L216 700L456 700Q569 700 631.50 650.50Q694 601 694 511Q694 421 655 359.50Q616 298 544.50 267Q473 236 375 236L142 236L160 251L110 0L76 0M570 0L426 254L464 254L607 0L570 0M160 251L148 266L374 266Q510 266 585 327Q660 388 660 509Q660 586 607 627.50Q554 669 455 669L229 669L247 685L160 251M280-179Q268-179 260.50-170.50Q253-162 255-150Q256-137 267-128Q278-119 290-119Q303-119 310-127.50Q317-136 315-148Q314-161 303.50-170Q293-179 280-179Z"  horiz-adv-x="718" vert-adv-y="1000"  />

      
      <glyph glyph-name="uni0212" unicode="&#x0212;" d="M76 0L216 700L456 700Q569 700 631.50 650.50Q694 601 694 511Q694 421 655 359.50Q616 298 544.50 267Q473 236 375 236L142 236L160 251L110 0L76 0M570 0L426 254L464 254L607 0L570 0M160 251L148 266L374 266Q510 266 585 327Q660 388 660 509Q660 586 607 627.50Q554 669 455 669L229 669L247 685L160 251Z"  horiz-adv-x="718" vert-adv-y="1000"  />

      
      <glyph glyph-name="uni1E5E" unicode="&#x1E5E;" d="M76 0L216 700L456 700Q569 700 631.50 650.50Q694 601 694 511Q694 421 655 359.50Q616 298 544.50 267Q473 236 375 236L142 236L160 251L110 0L76 0M570 0L426 254L464 254L607 0L570 0M160 251L148 266L374 266Q510 266 585 327Q660 388 660 509Q660 586 607 627.50Q554 669 455 669L229 669L247 685L160 251M142-162L147-135L428-135L423-162L142-162Z"  horiz-adv-x="718" vert-adv-y="1000"  />

      
      <glyph glyph-name="uni53" unicode="&#x53;" d="M264-4Q214-4 166 9Q118 22 80.50 43.50Q43 65 23 92L43 116Q64 91 99 70.50Q134 50 177.50 38Q221 26 266 26Q335 26 388 45.50Q441 65 470.50 103Q500 141 500 194Q500 234 479.50 258.50Q459 283 426 298.50Q393 314 353 324.50Q313 335 273.50 348Q234 361 201 379Q168 397 147.50 426Q127 455 127 501Q127 566 161.50 611.50Q196 657 255.50 680.50Q315 704 390 704Q448 704 503 688Q558 672 596 642L578 614Q541 643 492.50 658.50Q444 674 389 674Q322 674 270 654Q218 634 189 596Q160 558 159 504Q159 465 179.50 440Q200 415 233 399Q266 383 306.50 371.50Q347 360 386.50 348Q426 336 459.50 317.50Q493 299 513 271Q533 243 533 198Q533 131 497.50 86.50Q462 42 401 19Q340-4 264-4Z"  horiz-adv-x="604" vert-adv-y="1000"  />

      
      <glyph glyph-name="uni015A" unicode="&#x015A;" d="M264-4Q214-4 166 9Q118 22 80.50 43.50Q43 65 23 92L43 116Q64 91 99 70.50Q134 50 177.50 38Q221 26 266 26Q335 26 388 45.50Q441 65 470.50 103Q500 141 500 194Q500 234 479.50 258.50Q459 283 426 298.50Q393 314 353 324.50Q313 335 273.50 348Q234 361 201 379Q168 397 147.50 426Q127 455 127 501Q127 566 161.50 611.50Q196 657 255.50 680.50Q315 704 390 704Q448 704 503 688Q558 672 596 642L578 614Q541 643 492.50 658.50Q444 674 389 674Q322 674 270 654Q218 634 189 596Q160 558 159 504Q159 465 179.50 440Q200 415 233 399Q266 383 306.50 371.50Q347 360 386.50 348Q426 336 459.50 317.50Q493 299 513 271Q533 243 533 198Q533 131 497.50 86.50Q462 42 401 19Q340-4 264-4Z"  horiz-adv-x="604" vert-adv-y="1000"  />

      
      <glyph glyph-name="uni1E64" unicode="&#x1E64;" d="M264-4Q214-4 166 9Q118 22 80.50 43.50Q43 65 23 92L43 116Q64 91 99 70.50Q134 50 177.50 38Q221 26 266 26Q335 26 388 45.50Q441 65 470.50 103Q500 141 500 194Q500 234 479.50 258.50Q459 283 426 298.50Q393 314 353 324.50Q313 335 273.50 348Q234 361 201 379Q168 397 147.50 426Q127 455 127 501Q127 566 161.50 611.50Q196 657 255.50 680.50Q315 704 390 704Q448 704 503 688Q558 672 596 642L578 614Q541 643 492.50 658.50Q444 674 389 674Q322 674 270 654Q218 634 189 596Q160 558 159 504Q159 465 179.50 440Q200 415 233 399Q266 383 306.50 371.50Q347 360 386.50 348Q426 336 459.50 317.50Q493 299 513 271Q533 243 533 198Q533 131 497.50 86.50Q462 42 401 19Q340-4 264-4Z"  horiz-adv-x="604" vert-adv-y="1000"  />

      
      <glyph glyph-name="uniA78B" unicode="&#xA78B;" d="M99 298L179 699L213 699L131 298L99 298Z"  horiz-adv-x="217" vert-adv-y="1000"  />

      
      <glyph glyph-name="uni0160" unicode="&#x0160;" d="M264-4Q214-4 166 9Q118 22 80.50 43.50Q43 65 23 92L43 116Q64 91 99 70.50Q134 50 177.50 38Q221 26 266 26Q335 26 388 45.50Q441 65 470.50 103Q500 141 500 194Q500 234 479.50 258.50Q459 283 426 298.50Q393 314 353 324.50Q313 335 273.50 348Q234 361 201 379Q168 397 147.50 426Q127 455 127 501Q127 566 161.50 611.50Q196 657 255.50 680.50Q315 704 390 704Q448 704 503 688Q558 672 596 642L578 614Q541 643 492.50 658.50Q444 674 389 674Q322 674 270 654Q218 634 189 596Q160 558 159 504Q159 465 179.50 440Q200 415 233 399Q266 383 306.50 371.50Q347 360 386.50 348Q426 336 459.50 317.50Q493 299 513 271Q533 243 533 198Q533 131 497.50 86.50Q462 42 401 19Q340-4 264-4Z"  horiz-adv-x="604" vert-adv-y="1000"  />

      
      <glyph glyph-name="uni1E66" unicode="&#x1E66;" d="M264-4Q214-4 166 9Q118 22 80.50 43.50Q43 65 23 92L43 116Q64 91 99 70.50Q134 50 177.50 38Q221 26 266 26Q335 26 388 45.50Q441 65 470.50 103Q500 141 500 194Q500 234 479.50 258.50Q459 283 426 298.50Q393 314 353 324.50Q313 335 273.50 348Q234 361 201 379Q168 397 147.50 426Q127 455 127 501Q127 566 161.50 611.50Q196 657 255.50 680.50Q315 704 390 704Q448 704 503 688Q558 672 596 642L578 614Q541 643 492.50 658.50Q444 674 389 674Q322 674 270 654Q218 634 189 596Q160 558 159 504Q159 465 179.50 440Q200 415 233 399Q266 383 306.50 371.50Q347 360 386.50 348Q426 336 459.50 317.50Q493 299 513 271Q533 243 533 198Q533 131 497.50 86.50Q462 42 401 19Q340-4 264-4Z"  horiz-adv-x="604" vert-adv-y="1000"  />

      
      <glyph glyph-name="uni015E" unicode="&#x015E;" d="M264-4Q214-4 166 9Q118 22 80.50 43.50Q43 65 23 92L43 116Q64 91 99 70.50Q134 50 177.50 38Q221 26 266 26Q335 26 388 45.50Q441 65 470.50 103Q500 141 500 194Q500 234 479.50 258.50Q459 283 426 298.50Q393 314 353 324.50Q313 335 273.50 348Q234 361 201 379Q168 397 147.50 426Q127 455 127 501Q127 566 161.50 611.50Q196 657 255.50 680.50Q315 704 390 704Q448 704 503 688Q558 672 596 642L578 614Q541 643 492.50 658.50Q444 674 389 674Q322 674 270 654Q218 634 189 596Q160 558 159 504Q159 465 179.50 440Q200 415 233 399Q266 383 306.50 371.50Q347 360 386.50 348Q426 336 459.50 317.50Q493 299 513 271Q533 243 533 198Q533 131 497.50 86.50Q462 42 401 19Q340-4 264-4M214-215Q192-215 171-208.50Q150-202 135-189L151-168Q163-179 179.50-184.50Q196-190 216-190Q251-190 271-171.50Q291-153 291-124Q291-102 275.50-89.50Q260-77 231-77L215-77L254 5L279 5L251-55Q283-58 301.50-76.50Q320-95 320-124Q320-162 290.50-188.50Q261-215 214-215Z"  horiz-adv-x="604" vert-adv-y="1000"  />

      
      <glyph glyph-name="uni015C" unicode="&#x015C;" d="M264-4Q214-4 166 9Q118 22 80.50 43.50Q43 65 23 92L43 116Q64 91 99 70.50Q134 50 177.50 38Q221 26 266 26Q335 26 388 45.50Q441 65 470.50 103Q500 141 500 194Q500 234 479.50 258.50Q459 283 426 298.50Q393 314 353 324.50Q313 335 273.50 348Q234 361 201 379Q168 397 147.50 426Q127 455 127 501Q127 566 161.50 611.50Q196 657 255.50 680.50Q315 704 390 704Q448 704 503 688Q558 672 596 642L578 614Q541 643 492.50 658.50Q444 674 389 674Q322 674 270 654Q218 634 189 596Q160 558 159 504Q159 465 179.50 440Q200 415 233 399Q266 383 306.50 371.50Q347 360 386.50 348Q426 336 459.50 317.50Q493 299 513 271Q533 243 533 198Q533 131 497.50 86.50Q462 42 401 19Q340-4 264-4Z"  horiz-adv-x="604" vert-adv-y="1000"  />

      
      <glyph glyph-name="uni0218" unicode="&#x0218;" d="M264-4Q214-4 166 9Q118 22 80.50 43.50Q43 65 23 92L43 116Q64 91 99 70.50Q134 50 177.50 38Q221 26 266 26Q335 26 388 45.50Q441 65 470.50 103Q500 141 500 194Q500 234 479.50 258.50Q459 283 426 298.50Q393 314 353 324.50Q313 335 273.50 348Q234 361 201 379Q168 397 147.50 426Q127 455 127 501Q127 566 161.50 611.50Q196 657 255.50 680.50Q315 704 390 704Q448 704 503 688Q558 672 596 642L578 614Q541 643 492.50 658.50Q444 674 389 674Q322 674 270 654Q218 634 189 596Q160 558 159 504Q159 465 179.50 440Q200 415 233 399Q266 383 306.50 371.50Q347 360 386.50 348Q426 336 459.50 317.50Q493 299 513 271Q533 243 533 198Q533 131 497.50 86.50Q462 42 401 19Q340-4 264-4M191-260L234-162L236-178Q223-178 214.50-169Q206-160 206-149Q206-136 214.50-127.50Q223-119 236-119Q250-119 258-127Q266-135 266-148Q266-156 264-163.50Q262-171 255-181L214-260L191-260Z"  horiz-adv-x="604" vert-adv-y="1000"  />

      
      <glyph glyph-name="uni1E60" unicode="&#x1E60;" d="M264-4Q214-4 166 9Q118 22 80.50 43.50Q43 65 23 92L43 116Q64 91 99 70.50Q134 50 177.50 38Q221 26 266 26Q335 26 388 45.50Q441 65 470.50 103Q500 141 500 194Q500 234 479.50 258.50Q459 283 426 298.50Q393 314 353 324.50Q313 335 273.50 348Q234 361 201 379Q168 397 147.50 426Q127 455 127 501Q127 566 161.50 611.50Q196 657 255.50 680.50Q315 704 390 704Q448 704 503 688Q558 672 596 642L578 614Q541 643 492.50 658.50Q444 674 389 674Q322 674 270 654Q218 634 189 596Q160 558 159 504Q159 465 179.50 440Q200 415 233 399Q266 383 306.50 371.50Q347 360 386.50 348Q426 336 459.50 317.50Q493 299 513 271Q533 243 533 198Q533 131 497.50 86.50Q462 42 401 19Q340-4 264-4Z"  horiz-adv-x="604" vert-adv-y="1000"  />

      
      <glyph glyph-name="uni1E62" unicode="&#x1E62;" d="M264-4Q214-4 166 9Q118 22 80.50 43.50Q43 65 23 92L43 116Q64 91 99 70.50Q134 50 177.50 38Q221 26 266 26Q335 26 388 45.50Q441 65 470.50 103Q500 141 500 194Q500 234 479.50 258.50Q459 283 426 298.50Q393 314 353 324.50Q313 335 273.50 348Q234 361 201 379Q168 397 147.50 426Q127 455 127 501Q127 566 161.50 611.50Q196 657 255.50 680.50Q315 704 390 704Q448 704 503 688Q558 672 596 642L578 614Q541 643 492.50 658.50Q444 674 389 674Q322 674 270 654Q218 634 189 596Q160 558 159 504Q159 465 179.50 440Q200 415 233 399Q266 383 306.50 371.50Q347 360 386.50 348Q426 336 459.50 317.50Q493 299 513 271Q533 243 533 198Q533 131 497.50 86.50Q462 42 401 19Q340-4 264-4M231-179Q219-179 211.50-170.50Q204-162 206-150Q207-137 218-128Q229-119 241-119Q254-119 261-127.50Q268-136 266-148Q265-161 254.50-170Q244-179 231-179Z"  horiz-adv-x="604" vert-adv-y="1000"  />

      
      <glyph glyph-name="uni1E68" unicode="&#x1E68;" d="M264-4Q214-4 166 9Q118 22 80.50 43.50Q43 65 23 92L43 116Q64 91 99 70.50Q134 50 177.50 38Q221 26 266 26Q335 26 388 45.50Q441 65 470.50 103Q500 141 500 194Q500 234 479.50 258.50Q459 283 426 298.50Q393 314 353 324.50Q313 335 273.50 348Q234 361 201 379Q168 397 147.50 426Q127 455 127 501Q127 566 161.50 611.50Q196 657 255.50 680.50Q315 704 390 704Q448 704 503 688Q558 672 596 642L578 614Q541 643 492.50 658.50Q444 674 389 674Q322 674 270 654Q218 634 189 596Q160 558 159 504Q159 465 179.50 440Q200 415 233 399Q266 383 306.50 371.50Q347 360 386.50 348Q426 336 459.50 317.50Q493 299 513 271Q533 243 533 198Q533 131 497.50 86.50Q462 42 401 19Q340-4 264-4M231-179Q219-179 211.50-170.50Q204-162 206-150Q207-137 218-128Q229-119 241-119Q254-119 261-127.50Q268-136 266-148Q265-161 254.50-170Q244-179 231-179Z"  horiz-adv-x="604" vert-adv-y="1000"  />

      
      <glyph glyph-name="uni1E9E" unicode="&#x1E9E;" d="M422-4Q382-4 343.50 3.50Q305 11 275 26L288 56Q318 41 352 33.50Q386 26 425 26Q488 26 536 50Q584 74 610.50 118Q637 162 637 224Q637 292 593.50 327.50Q550 363 473 363Q451 363 426.50 360Q402 357 383 351L379 372L668 626L666 606Q638 640 589 657Q540 674 476 674Q356 674 284 610.50Q212 547 188 426L104 0L70 0L157 433Q183 564 263 634Q343 704 478 704Q525 704 565 695Q605 686 636.50 669Q668 652 690 628L685 603L409 362L401 380Q421 386 441 388Q461 390 479 390Q538 390 580.50 370.50Q623 351 646.50 314Q670 277 670 225Q670 155 639 103.50Q608 52 552.50 24Q497-4 422-4Z"  horiz-adv-x="745" vert-adv-y="1000"  />

      
      <glyph glyph-name="uni018F" unicode="&#x018F;" d="M376-4Q280-4 210.50 32Q141 68 104 131Q67 194 67 276Q67 296 70 316.50Q73 337 77 364L752 364L746 333L93 333L109 349Q105 330 102.50 313Q100 296 100 278Q100 203 134 146Q168 89 230.50 58Q293 27 380 27Q463 27 531 58Q599 89 648 143Q697 197 723.50 268Q750 339 750 418Q750 494 718 551Q686 608 624.50 640.50Q563 673 472 673Q397 673 336.50 651Q276 629 234 591L215 615Q258 656 326.50 680Q395 704 475 704Q573 704 642 668Q711 632 747.50 568Q784 504 784 419Q784 334 755 258Q726 182 673 123Q620 64 544.50 30Q469-4 376-4Z"  horiz-adv-x="816" vert-adv-y="1000"  />

      
      <glyph glyph-name="uni54" unicode="&#x54;" d="M208 0L342 669L86 669L92 700L639 700L632 669L376 669L242 0L208 0Z"  horiz-adv-x="555" vert-adv-y="1000"  />

      
      <glyph glyph-name="uni0166" unicode="&#x0166;" d="M208 0L342 669L86 669L92 700L639 700L632 669L376 669L242 0L208 0M109 338L115 367L482 367L476 338L109 338Z"  horiz-adv-x="555" vert-adv-y="1000"  />

      
      <glyph glyph-name="uni0164" unicode="&#x0164;" d="M208 0L342 669L86 669L92 700L639 700L632 669L376 669L242 0L208 0Z"  horiz-adv-x="555" vert-adv-y="1000"  />

      
      <glyph glyph-name="uni0162" unicode="&#x0162;" d="M208 0L342 669L86 669L92 700L639 700L632 669L376 669L242 0L208 0M173-215Q151-215 130-208.50Q109-202 94-189L110-168Q122-179 138.50-184.50Q155-190 175-190Q210-190 230-171.50Q250-153 250-124Q250-102 234.50-89.50Q219-77 190-77L174-77L213 5L238 5L210-55Q242-58 260.50-76.50Q279-95 279-124Q279-162 249.50-188.50Q220-215 173-215Z"  horiz-adv-x="555" vert-adv-y="1000"  />

      
      <glyph glyph-name="uni021A" unicode="&#x021A;" d="M208 0L342 669L86 669L92 700L639 700L632 669L376 669L242 0L208 0M150-260L193-162L195-178Q182-178 173.50-169Q165-160 165-149Q165-136 173.50-127.50Q182-119 195-119Q209-119 217-127Q225-135 225-148Q225-156 223-163.50Q221-171 214-181L173-260L150-260Z"  horiz-adv-x="555" vert-adv-y="1000"  />

      
      <glyph glyph-name="uni1E6C" unicode="&#x1E6C;" d="M208 0L342 669L86 669L92 700L639 700L632 669L376 669L242 0L208 0M190-179Q178-179 170.50-170.50Q163-162 165-150Q166-137 177-128Q188-119 200-119Q213-119 220-127.50Q227-136 225-148Q224-161 213.50-170Q203-179 190-179Z"  horiz-adv-x="555" vert-adv-y="1000"  />

      
      <glyph glyph-name="uni1E6E" unicode="&#x1E6E;" d="M208 0L342 669L86 669L92 700L639 700L632 669L376 669L242 0L208 0M52-162L57-135L338-135L333-162L52-162Z"  horiz-adv-x="555" vert-adv-y="1000"  />

      
      <glyph glyph-name="uni55" unicode="&#x55;" d="M355-4Q261-4 205.50 36.50Q150 77 131 144Q112 211 129 293L210 700L244 700L162 292Q151 240 155.50 192.50Q160 145 183 107.50Q206 70 249.50 48.50Q293 27 360 27Q443 27 499.50 57.50Q556 88 591 145Q626 202 641 279L726 700L759 700L675 277Q649 145 570 70.50Q491-4 355-4Z"  horiz-adv-x="793" vert-adv-y="1000"  />

      
      <glyph glyph-name="unida" unicode="&#xda;" d="M355-4Q261-4 205.50 36.50Q150 77 131 144Q112 211 129 293L210 700L244 700L162 292Q151 240 155.50 192.50Q160 145 183 107.50Q206 70 249.50 48.50Q293 27 360 27Q443 27 499.50 57.50Q556 88 591 145Q626 202 641 279L726 700L759 700L675 277Q649 145 570 70.50Q491-4 355-4Z"  horiz-adv-x="793" vert-adv-y="1000"  />

      
      <glyph glyph-name="uni016C" unicode="&#x016C;" d="M355-4Q261-4 205.50 36.50Q150 77 131 144Q112 211 129 293L210 700L244 700L162 292Q151 240 155.50 192.50Q160 145 183 107.50Q206 70 249.50 48.50Q293 27 360 27Q443 27 499.50 57.50Q556 88 591 145Q626 202 641 279L726 700L759 700L675 277Q649 145 570 70.50Q491-4 355-4Z"  horiz-adv-x="793" vert-adv-y="1000"  />

      
      <glyph glyph-name="uni01D3" unicode="&#x01D3;" d="M355-4Q261-4 205.50 36.50Q150 77 131 144Q112 211 129 293L210 700L244 700L162 292Q151 240 155.50 192.50Q160 145 183 107.50Q206 70 249.50 48.50Q293 27 360 27Q443 27 499.50 57.50Q556 88 591 145Q626 202 641 279L726 700L759 700L675 277Q649 145 570 70.50Q491-4 355-4Z"  horiz-adv-x="793" vert-adv-y="1000"  />

      
      <glyph glyph-name="unidb" unicode="&#xdb;" d="M355-4Q261-4 205.50 36.50Q150 77 131 144Q112 211 129 293L210 700L244 700L162 292Q151 240 155.50 192.50Q160 145 183 107.50Q206 70 249.50 48.50Q293 27 360 27Q443 27 499.50 57.50Q556 88 591 145Q626 202 641 279L726 700L759 700L675 277Q649 145 570 70.50Q491-4 355-4Z"  horiz-adv-x="793" vert-adv-y="1000"  />

      
      <glyph glyph-name="uni0214" unicode="&#x0214;" d="M355-4Q261-4 205.50 36.50Q150 77 131 144Q112 211 129 293L210 700L244 700L162 292Q151 240 155.50 192.50Q160 145 183 107.50Q206 70 249.50 48.50Q293 27 360 27Q443 27 499.50 57.50Q556 88 591 145Q626 202 641 279L726 700L759 700L675 277Q649 145 570 70.50Q491-4 355-4Z"  horiz-adv-x="793" vert-adv-y="1000"  />

      
      <glyph glyph-name="unidc" unicode="&#xdc;" d="M355-4Q261-4 205.50 36.50Q150 77 131 144Q112 211 129 293L210 700L244 700L162 292Q151 240 155.50 192.50Q160 145 183 107.50Q206 70 249.50 48.50Q293 27 360 27Q443 27 499.50 57.50Q556 88 591 145Q626 202 641 279L726 700L759 700L675 277Q649 145 570 70.50Q491-4 355-4Z"  horiz-adv-x="793" vert-adv-y="1000"  />

      
      <glyph glyph-name="uni1EE4" unicode="&#x1EE4;" d="M355-4Q261-4 205.50 36.50Q150 77 131 144Q112 211 129 293L210 700L244 700L162 292Q151 240 155.50 192.50Q160 145 183 107.50Q206 70 249.50 48.50Q293 27 360 27Q443 27 499.50 57.50Q556 88 591 145Q626 202 641 279L726 700L759 700L675 277Q649 145 570 70.50Q491-4 355-4M310-179Q298-179 290.50-170.50Q283-162 285-150Q286-137 297-128Q308-119 320-119Q333-119 340-127.50Q347-136 345-148Q344-161 333.50-170Q323-179 310-179Z"  horiz-adv-x="793" vert-adv-y="1000"  />

      
      <glyph glyph-name="unid9" unicode="&#xd9;" d="M355-4Q261-4 205.50 36.50Q150 77 131 144Q112 211 129 293L210 700L244 700L162 292Q151 240 155.50 192.50Q160 145 183 107.50Q206 70 249.50 48.50Q293 27 360 27Q443 27 499.50 57.50Q556 88 591 145Q626 202 641 279L726 700L759 700L675 277Q649 145 570 70.50Q491-4 355-4Z"  horiz-adv-x="793" vert-adv-y="1000"  />

      
      <glyph glyph-name="uni1EE6" unicode="&#x1EE6;" d="M355-4Q261-4 205.50 36.50Q150 77 131 144Q112 211 129 293L210 700L244 700L162 292Q151 240 155.50 192.50Q160 145 183 107.50Q206 70 249.50 48.50Q293 27 360 27Q443 27 499.50 57.50Q556 88 591 145Q626 202 641 279L726 700L759 700L675 277Q649 145 570 70.50Q491-4 355-4Z"  horiz-adv-x="793" vert-adv-y="1000"  />

      
      <glyph glyph-name="uni01AF" unicode="&#x01AF;" d="M355-4Q261-4 205.50 36.50Q150 77 131 144Q112 211 129 293L210 700L244 700L162 292Q151 240 155.50 192.50Q160 145 183 107.50Q206 70 249.50 48.50Q293 27 360 27Q443 27 499.50 57.50Q556 88 591 145Q626 202 641 279L726 700L759 700L675 277Q649 145 570 70.50Q491-4 355-4M747 672L747 700L758 700Q796 700 811.50 720.50Q827 741 827 769Q827 789 821 805.50Q815 822 807 836L833 846Q843 831 849.50 811Q856 791 856 770Q856 743 845.50 721Q835 699 814 685.50Q793 672 758 672L747 672Z"  horiz-adv-x="795" vert-adv-y="1000"  />

      
      <glyph glyph-name="uni1EE8" unicode="&#x1EE8;" d="M355-4Q261-4 205.50 36.50Q150 77 131 144Q112 211 129 293L210 700L244 700L162 292Q151 240 155.50 192.50Q160 145 183 107.50Q206 70 249.50 48.50Q293 27 360 27Q443 27 499.50 57.50Q556 88 591 145Q626 202 641 279L726 700L759 700L675 277Q649 145 570 70.50Q491-4 355-4M747 672L747 700L758 700Q796 700 811.50 720.50Q827 741 827 769Q827 789 821 805.50Q815 822 807 836L833 846Q843 831 849.50 811Q856 791 856 770Q856 743 845.50 721Q835 699 814 685.50Q793 672 758 672L747 672Z"  horiz-adv-x="795" vert-adv-y="1000"  />

      
      <glyph glyph-name="uni1EF0" unicode="&#x1EF0;" d="M355-4Q261-4 205.50 36.50Q150 77 131 144Q112 211 129 293L210 700L244 700L162 292Q151 240 155.50 192.50Q160 145 183 107.50Q206 70 249.50 48.50Q293 27 360 27Q443 27 499.50 57.50Q556 88 591 145Q626 202 641 279L726 700L759 700L675 277Q649 145 570 70.50Q491-4 355-4M747 672L747 700L758 700Q796 700 811.50 720.50Q827 741 827 769Q827 789 821 805.50Q815 822 807 836L833 846Q843 831 849.50 811Q856 791 856 770Q856 743 845.50 721Q835 699 814 685.50Q793 672 758 672L747 672M310-179Q298-179 290.50-170.50Q283-162 285-150Q286-137 297-128Q308-119 320-119Q333-119 340-127.50Q347-136 345-148Q344-161 333.50-170Q323-179 310-179Z"  horiz-adv-x="795" vert-adv-y="1000"  />

      
      <glyph glyph-name="uni1EEA" unicode="&#x1EEA;" d="M355-4Q261-4 205.50 36.50Q150 77 131 144Q112 211 129 293L210 700L244 700L162 292Q151 240 155.50 192.50Q160 145 183 107.50Q206 70 249.50 48.50Q293 27 360 27Q443 27 499.50 57.50Q556 88 591 145Q626 202 641 279L726 700L759 700L675 277Q649 145 570 70.50Q491-4 355-4M747 672L747 700L758 700Q796 700 811.50 720.50Q827 741 827 769Q827 789 821 805.50Q815 822 807 836L833 846Q843 831 849.50 811Q856 791 856 770Q856 743 845.50 721Q835 699 814 685.50Q793 672 758 672L747 672Z"  horiz-adv-x="795" vert-adv-y="1000"  />

      
      <glyph glyph-name="uni1EEC" unicode="&#x1EEC;" d="M355-4Q261-4 205.50 36.50Q150 77 131 144Q112 211 129 293L210 700L244 700L162 292Q151 240 155.50 192.50Q160 145 183 107.50Q206 70 249.50 48.50Q293 27 360 27Q443 27 499.50 57.50Q556 88 591 145Q626 202 641 279L726 700L759 700L675 277Q649 145 570 70.50Q491-4 355-4M747 672L747 700L758 700Q796 700 811.50 720.50Q827 741 827 769Q827 789 821 805.50Q815 822 807 836L833 846Q843 831 849.50 811Q856 791 856 770Q856 743 845.50 721Q835 699 814 685.50Q793 672 758 672L747 672Z"  horiz-adv-x="795" vert-adv-y="1000"  />

      
      <glyph glyph-name="uni1EEE" unicode="&#x1EEE;" d="M355-4Q261-4 205.50 36.50Q150 77 131 144Q112 211 129 293L210 700L244 700L162 292Q151 240 155.50 192.50Q160 145 183 107.50Q206 70 249.50 48.50Q293 27 360 27Q443 27 499.50 57.50Q556 88 591 145Q626 202 641 279L726 700L759 700L675 277Q649 145 570 70.50Q491-4 355-4M747 672L747 700L758 700Q796 700 811.50 720.50Q827 741 827 769Q827 789 821 805.50Q815 822 807 836L833 846Q843 831 849.50 811Q856 791 856 770Q856 743 845.50 721Q835 699 814 685.50Q793 672 758 672L747 672Z"  horiz-adv-x="795" vert-adv-y="1000"  />

      
      <glyph glyph-name="uni0170" unicode="&#x0170;" d="M355-4Q261-4 205.50 36.50Q150 77 131 144Q112 211 129 293L210 700L244 700L162 292Q151 240 155.50 192.50Q160 145 183 107.50Q206 70 249.50 48.50Q293 27 360 27Q443 27 499.50 57.50Q556 88 591 145Q626 202 641 279L726 700L759 700L675 277Q649 145 570 70.50Q491-4 355-4Z"  horiz-adv-x="793" vert-adv-y="1000"  />

      
      <glyph glyph-name="uni0216" unicode="&#x0216;" d="M355-4Q261-4 205.50 36.50Q150 77 131 144Q112 211 129 293L210 700L244 700L162 292Q151 240 155.50 192.50Q160 145 183 107.50Q206 70 249.50 48.50Q293 27 360 27Q443 27 499.50 57.50Q556 88 591 145Q626 202 641 279L726 700L759 700L675 277Q649 145 570 70.50Q491-4 355-4Z"  horiz-adv-x="793" vert-adv-y="1000"  />

      
      <glyph glyph-name="uni016A" unicode="&#x016A;" d="M355-4Q261-4 205.50 36.50Q150 77 131 144Q112 211 129 293L210 700L244 700L162 292Q151 240 155.50 192.50Q160 145 183 107.50Q206 70 249.50 48.50Q293 27 360 27Q443 27 499.50 57.50Q556 88 591 145Q626 202 641 279L726 700L759 700L675 277Q649 145 570 70.50Q491-4 355-4Z"  horiz-adv-x="793" vert-adv-y="1000"  />

      
      <glyph glyph-name="uni1E7A" unicode="&#x1E7A;" d="M355-4Q261-4 205.50 36.50Q150 77 131 144Q112 211 129 293L210 700L244 700L162 292Q151 240 155.50 192.50Q160 145 183 107.50Q206 70 249.50 48.50Q293 27 360 27Q443 27 499.50 57.50Q556 88 591 145Q626 202 641 279L726 700L759 700L675 277Q649 145 570 70.50Q491-4 355-4Z"  horiz-adv-x="793" vert-adv-y="1000"  />

      
      <glyph glyph-name="uni0172" unicode="&#x0172;" d="M360 27Q444 27 500 57.50Q556 88 591 145Q608 174 621 207.50Q634 241 641 279L726 700L759 700L675 277Q653 164 591.50 93Q530 22 432 3Q344-22 302-61.50Q260-101 260-139Q260-164 274.50-177Q289-190 316-190Q336-190 354-183.50Q372-177 387-166L395-188Q378-201 357.50-208Q337-215 313-215Q277-215 254.50-195.50Q232-176 232-143Q232-105 263.50-67.50Q295-30 356-3Q351-3 344.50-3Q338-3 333-3Q253-1 200.50 39Q148 79 131 146Q122 180 121.50 216.50Q121 253 129 293L210 700L244 700L162 293Q151 241 155.50 194Q160 147 182 110Q204 72 248 49.50Q292 27 360 27Z"  horiz-adv-x="793" vert-adv-y="1000"  />

      
      <glyph glyph-name="uni016E" unicode="&#x016E;" d="M355-4Q261-4 205.50 36.50Q150 77 131 144Q112 211 129 293L210 700L244 700L162 292Q151 240 155.50 192.50Q160 145 183 107.50Q206 70 249.50 48.50Q293 27 360 27Q443 27 499.50 57.50Q556 88 591 145Q626 202 641 279L726 700L759 700L675 277Q649 145 570 70.50Q491-4 355-4M519 778Q491 778 470 790.50Q449 803 436.50 824.50Q424 846 424 871Q424 896 436.50 918Q449 940 470.50 953Q492 966 519 966Q547 966 568.50 953Q590 940 602.50 918Q615 896 615 871Q615 846 602.50 824.50Q590 803 568.50 790.50Q547 778 519 778M519 800Q551 800 571 821Q591 842 591 871Q591 900 571 921.50Q551 943 519 943Q489 943 468.50 922Q448 901 448 871Q448 841 468 820.50Q488 800 519 800Z"  horiz-adv-x="793" vert-adv-y="1000"  />

      
      <glyph glyph-name="uni0168" unicode="&#x0168;" d="M355-4Q261-4 205.50 36.50Q150 77 131 144Q112 211 129 293L210 700L244 700L162 292Q151 240 155.50 192.50Q160 145 183 107.50Q206 70 249.50 48.50Q293 27 360 27Q443 27 499.50 57.50Q556 88 591 145Q626 202 641 279L726 700L759 700L675 277Q649 145 570 70.50Q491-4 355-4Z"  horiz-adv-x="793" vert-adv-y="1000"  />

      
      <glyph glyph-name="uni1E78" unicode="&#x1E78;" d="M355-4Q261-4 205.50 36.50Q150 77 131 144Q112 211 129 293L210 700L244 700L162 292Q151 240 155.50 192.50Q160 145 183 107.50Q206 70 249.50 48.50Q293 27 360 27Q443 27 499.50 57.50Q556 88 591 145Q626 202 641 279L726 700L759 700L675 277Q649 145 570 70.50Q491-4 355-4Z"  horiz-adv-x="793" vert-adv-y="1000"  />

      
      <glyph glyph-name="uni56" unicode="&#x56;" d="M270 0L96 700L131 700L298 23L280 23L719 700L757 700L303 0L270 0Z"  horiz-adv-x="677" vert-adv-y="1000"  />

      
      <glyph glyph-name="uni57" unicode="&#x57;" d="M230 0L131 700L164 700L259 24L243 24L615 700L647 700L748 24L731 24L1098 700L1133 700L754 0L719 0L620 663L630 663L264 0L230 0Z"  horiz-adv-x="1088" vert-adv-y="1000"  />

      
      <glyph glyph-name="uni1E82" unicode="&#x1E82;" d="M230 0L131 700L164 700L259 24L243 24L615 700L647 700L748 24L731 24L1098 700L1133 700L754 0L719 0L620 663L630 663L264 0L230 0Z"  horiz-adv-x="1088" vert-adv-y="1000"  />

      
      <glyph glyph-name="uni0174" unicode="&#x0174;" d="M230 0L131 700L164 700L259 24L243 24L615 700L647 700L748 24L731 24L1098 700L1133 700L754 0L719 0L620 663L630 663L264 0L230 0Z"  horiz-adv-x="1088" vert-adv-y="1000"  />

      
      <glyph glyph-name="uni1E84" unicode="&#x1E84;" d="M230 0L131 700L164 700L259 24L243 24L615 700L647 700L748 24L731 24L1098 700L1133 700L754 0L719 0L620 663L630 663L264 0L230 0Z"  horiz-adv-x="1088" vert-adv-y="1000"  />

      
      <glyph glyph-name="uni1E80" unicode="&#x1E80;" d="M230 0L131 700L164 700L259 24L243 24L615 700L647 700L748 24L731 24L1098 700L1133 700L754 0L719 0L620 663L630 663L264 0L230 0Z"  horiz-adv-x="1088" vert-adv-y="1000"  />

      
      <glyph glyph-name="uni58" unicode="&#x58;" d="M-29 0L324 372L322 354L130 700L166 700L346 374L331 379L636 700L675 700L348 356L349 370L555 0L519 0L327 347L339 345L11 0L-29 0Z"  horiz-adv-x="630" vert-adv-y="1000"  />

      
      <glyph glyph-name="uni59" unicode="&#x59;" d="M239 0L289 249L293 226L96 700L131 700L314 258L298 257L658 700L697 700L310 224L323 249L273 0L239 0Z"  horiz-adv-x="616" vert-adv-y="1000"  />

      
      <glyph glyph-name="unidd" unicode="&#xdd;" d="M239 0L289 249L293 226L96 700L131 700L314 258L298 257L658 700L697 700L310 224L323 249L273 0L239 0Z"  horiz-adv-x="616" vert-adv-y="1000"  />

      
      <glyph glyph-name="uni0176" unicode="&#x0176;" d="M239 0L289 249L293 226L96 700L131 700L314 258L298 257L658 700L697 700L310 224L323 249L273 0L239 0Z"  horiz-adv-x="616" vert-adv-y="1000"  />

      
      <glyph glyph-name="uni0178" unicode="&#x0178;" d="M239 0L289 249L293 226L96 700L131 700L314 258L298 257L658 700L697 700L310 224L323 249L273 0L239 0Z"  horiz-adv-x="616" vert-adv-y="1000"  />

      
      <glyph glyph-name="uni1E8E" unicode="&#x1E8E;" d="M239 0L289 249L293 226L96 700L131 700L314 258L298 257L658 700L697 700L310 224L323 249L273 0L239 0Z"  horiz-adv-x="616" vert-adv-y="1000"  />

      
      <glyph glyph-name="uni1EF4" unicode="&#x1EF4;" d="M239 0L289 249L293 226L96 700L131 700L314 258L298 257L658 700L697 700L310 224L323 249L273 0L239 0M221-179Q209-179 201.50-170.50Q194-162 196-150Q197-137 208-128Q219-119 231-119Q244-119 251-127.50Q258-136 256-148Q255-161 244.50-170Q234-179 221-179Z"  horiz-adv-x="616" vert-adv-y="1000"  />

      
      <glyph glyph-name="uni1EF2" unicode="&#x1EF2;" d="M239 0L289 249L293 226L96 700L131 700L314 258L298 257L658 700L697 700L310 224L323 249L273 0L239 0Z"  horiz-adv-x="616" vert-adv-y="1000"  />

      
      <glyph glyph-name="uni1EF6" unicode="&#x1EF6;" d="M239 0L289 249L293 226L96 700L131 700L314 258L298 257L658 700L697 700L310 224L323 249L273 0L239 0Z"  horiz-adv-x="616" vert-adv-y="1000"  />

      
      <glyph glyph-name="uni0232" unicode="&#x0232;" d="M239 0L289 249L293 226L96 700L131 700L314 258L298 257L658 700L697 700L310 224L323 249L273 0L239 0Z"  horiz-adv-x="616" vert-adv-y="1000"  />

      
      <glyph glyph-name="uni1EF8" unicode="&#x1EF8;" d="M239 0L289 249L293 226L96 700L131 700L314 258L298 257L658 700L697 700L310 224L323 249L273 0L239 0Z"  horiz-adv-x="616" vert-adv-y="1000"  />

      
      <glyph glyph-name="uni5a" unicode="&#x5a;" d="M-4 0L1 24L639 682L639 669L136 669L142 700L682 700L677 676L39 18L39 31L559 31L552 0L-4 0Z"  horiz-adv-x="642" vert-adv-y="1000"  />

      
      <glyph glyph-name="uni0179" unicode="&#x0179;" d="M-4 0L1 24L639 682L639 669L136 669L142 700L682 700L677 676L39 18L39 31L559 31L552 0L-4 0Z"  horiz-adv-x="642" vert-adv-y="1000"  />

      
      <glyph glyph-name="uni017D" unicode="&#x017D;" d="M-4 0L1 24L639 682L639 669L136 669L142 700L682 700L677 676L39 18L39 31L559 31L552 0L-4 0Z"  horiz-adv-x="642" vert-adv-y="1000"  />

      
      <glyph glyph-name="uni017B" unicode="&#x017B;" d="M-4 0L1 24L639 682L639 669L136 669L142 700L682 700L677 676L39 18L39 31L559 31L552 0L-4 0Z"  horiz-adv-x="642" vert-adv-y="1000"  />

      
      <glyph glyph-name="uni1E92" unicode="&#x1E92;" d="M-4 0L1 24L639 682L639 669L136 669L142 700L682 700L677 676L39 18L39 31L559 31L552 0L-4 0M249-179Q237-179 229.50-170.50Q222-162 224-150Q225-137 236-128Q247-119 259-119Q272-119 279-127.50Q286-136 284-148Q283-161 272.50-170Q262-179 249-179Z"  horiz-adv-x="642" vert-adv-y="1000"  />

      
      <glyph glyph-name="uni61" unicode="&#x61;" d="M270-3Q203-3 152.50 22.50Q102 48 74.50 96Q47 144 47 210Q47 277 68.50 334Q90 391 129.50 433.50Q169 476 222.50 499.50Q276 523 341 523Q409 523 457.50 498Q506 473 531.50 426.50Q557 380 557 315Q558 224 521.50 152Q485 80 420.50 38.50Q356-3 270-3M276 27Q351 27 409 63.50Q467 100 500.50 163.50Q534 227 534 308Q534 396 482.50 444Q431 492 339 492Q265 492 206.50 455.50Q148 419 114 355.50Q80 292 80 211Q80 124 131.50 75.50Q183 27 276 27M478 0L513 173L540 252L545 337L581 519L614 519L511 0L478 0Z"  horiz-adv-x="673" vert-adv-y="1000"  />

      
      <glyph glyph-name="unie1" unicode="&#xe1;" d="M270-3Q203-3 152.50 22.50Q102 48 74.50 96Q47 144 47 210Q47 277 68.50 334Q90 391 129.50 433.50Q169 476 222.50 499.50Q276 523 341 523Q409 523 457.50 498Q506 473 531.50 426.50Q557 380 557 315Q558 224 521.50 152Q485 80 420.50 38.50Q356-3 270-3M276 27Q351 27 409 63.50Q467 100 500.50 163.50Q534 227 534 308Q534 396 482.50 444Q431 492 339 492Q265 492 206.50 455.50Q148 419 114 355.50Q80 292 80 211Q80 124 131.50 75.50Q183 27 276 27M478 0L513 173L540 252L545 337L581 519L614 519L511 0L478 0M338 607L489 720L546 720L380 607L338 607Z"  horiz-adv-x="673" vert-adv-y="1000"  />

      
      <glyph glyph-name="uni0103" unicode="&#x0103;" d="M270-3Q203-3 152.50 22.50Q102 48 74.50 96Q47 144 47 210Q47 277 68.50 334Q90 391 129.50 433.50Q169 476 222.50 499.50Q276 523 341 523Q409 523 457.50 498Q506 473 531.50 426.50Q557 380 557 315Q558 224 521.50 152Q485 80 420.50 38.50Q356-3 270-3M276 27Q351 27 409 63.50Q467 100 500.50 163.50Q534 227 534 308Q534 396 482.50 444Q431 492 339 492Q265 492 206.50 455.50Q148 419 114 355.50Q80 292 80 211Q80 124 131.50 75.50Q183 27 276 27M478 0L513 173L540 252L545 337L581 519L614 519L511 0L478 0M400 604Q362 604 332.50 618Q303 632 286.50 658.50Q270 685 273 720L300 720Q297 678 326 653.50Q355 629 401 629Q446 629 480.50 653.50Q515 678 521 720L548 720Q540 667 498 635.50Q456 604 400 604Z"  horiz-adv-x="673" vert-adv-y="1000"  />

      
      <glyph glyph-name="uni1EAF" unicode="&#x1EAF;" d="M270-3Q203-3 152.50 22.50Q102 48 74.50 96Q47 144 47 210Q47 277 68.50 334Q90 391 129.50 433.50Q169 476 222.50 499.50Q276 523 341 523Q409 523 457.50 498Q506 473 531.50 426.50Q557 380 557 315Q558 224 521.50 152Q485 80 420.50 38.50Q356-3 270-3M276 27Q351 27 409 63.50Q467 100 500.50 163.50Q534 227 534 308Q534 396 482.50 444Q431 492 339 492Q265 492 206.50 455.50Q148 419 114 355.50Q80 292 80 211Q80 124 131.50 75.50Q183 27 276 27M478 0L513 173L540 252L545 337L581 519L614 519L511 0L478 0Z"  horiz-adv-x="673" vert-adv-y="1000"  />

      
      <glyph glyph-name="uni1EB7" unicode="&#x1EB7;" d="M270-3Q203-3 152.50 22.50Q102 48 74.50 96Q47 144 47 210Q47 277 68.50 334Q90 391 129.50 433.50Q169 476 222.50 499.50Q276 523 341 523Q409 523 457.50 498Q506 473 531.50 426.50Q557 380 557 315Q558 224 521.50 152Q485 80 420.50 38.50Q356-3 270-3M276 27Q351 27 409 63.50Q467 100 500.50 163.50Q534 227 534 308Q534 396 482.50 444Q431 492 339 492Q265 492 206.50 455.50Q148 419 114 355.50Q80 292 80 211Q80 124 131.50 75.50Q183 27 276 27M478 0L513 173L540 252L545 337L581 519L614 519L511 0L478 0M233-179Q221-179 213.50-170.50Q206-162 208-150Q209-137 220-128Q231-119 243-119Q256-119 263-127.50Q270-136 268-148Q267-161 256.50-170Q246-179 233-179M400 604Q362 604 332.50 618Q303 632 286.50 658.50Q270 685 273 720L300 720Q297 678 326 653.50Q355 629 401 629Q446 629 480.50 653.50Q515 678 521 720L548 720Q540 667 498 635.50Q456 604 400 604Z"  horiz-adv-x="673" vert-adv-y="1000"  />

      
      <glyph glyph-name="uni1EB1" unicode="&#x1EB1;" d="M270-3Q203-3 152.50 22.50Q102 48 74.50 96Q47 144 47 210Q47 277 68.50 334Q90 391 129.50 433.50Q169 476 222.50 499.50Q276 523 341 523Q409 523 457.50 498Q506 473 531.50 426.50Q557 380 557 315Q558 224 521.50 152Q485 80 420.50 38.50Q356-3 270-3M276 27Q351 27 409 63.50Q467 100 500.50 163.50Q534 227 534 308Q534 396 482.50 444Q431 492 339 492Q265 492 206.50 455.50Q148 419 114 355.50Q80 292 80 211Q80 124 131.50 75.50Q183 27 276 27M478 0L513 173L540 252L545 337L581 519L614 519L511 0L478 0Z"  horiz-adv-x="673" vert-adv-y="1000"  />

      
      <glyph glyph-name="uni1EB3" unicode="&#x1EB3;" d="M270-3Q203-3 152.50 22.50Q102 48 74.50 96Q47 144 47 210Q47 277 68.50 334Q90 391 129.50 433.50Q169 476 222.50 499.50Q276 523 341 523Q409 523 457.50 498Q506 473 531.50 426.50Q557 380 557 315Q558 224 521.50 152Q485 80 420.50 38.50Q356-3 270-3M276 27Q351 27 409 63.50Q467 100 500.50 163.50Q534 227 534 308Q534 396 482.50 444Q431 492 339 492Q265 492 206.50 455.50Q148 419 114 355.50Q80 292 80 211Q80 124 131.50 75.50Q183 27 276 27M478 0L513 173L540 252L545 337L581 519L614 519L511 0L478 0Z"  horiz-adv-x="673" vert-adv-y="1000"  />

      
      </font>
</defs>
</svg>
